<?xml version="1.0" encoding="utf-8" standalone="no"?>
<!DOCTYPE svg PUBLIC "-//W3C//DTD SVG 1.1//EN"
  "http://www.w3.org/Graphics/SVG/1.1/DTD/svg11.dtd">
<!-- Created with matplotlib (https://matplotlib.org/) -->
<svg height="152.60595pt" version="1.1" viewBox="0 0 221.556586 152.60595" width="221.556586pt" xmlns="http://www.w3.org/2000/svg" xmlns:xlink="http://www.w3.org/1999/xlink">
 <metadata>
  <rdf:RDF xmlns:cc="http://creativecommons.org/ns#" xmlns:dc="http://purl.org/dc/elements/1.1/" xmlns:rdf="http://www.w3.org/1999/02/22-rdf-syntax-ns#">
   <cc:Work>
    <dc:type rdf:resource="http://purl.org/dc/dcmitype/StillImage"/>
    <dc:date>2020-08-28T13:24:21.433224</dc:date>
    <dc:format>image/svg+xml</dc:format>
    <dc:creator>
     <cc:Agent>
      <dc:title>Matplotlib v3.3.1, https://matplotlib.org/</dc:title>
     </cc:Agent>
    </dc:creator>
   </cc:Work>
  </rdf:RDF>
 </metadata>
 <defs>
  <style type="text/css">*{stroke-linecap:butt;stroke-linejoin:round;}</style>
 </defs>
 <g id="figure_1">
  <g id="patch_1">
   <path d="M 0 152.60595 
L 221.556586 152.60595 
L 221.556586 0 
L 0 0 
z
" style="fill:none;"/>
  </g>
  <g id="axes_1">
   <g id="patch_2">
    <path d="M 27.796823 121.958763 
L 217.734443 121.958763 
L 217.734443 7.6 
L 27.796823 7.6 
z
" style="fill:#f2f2f2;"/>
   </g>
   <g id="PolyCollection_1">
    <defs>
     <path d="M 27.796823 -59.236878 
L 27.796823 -30.647188 
L 65.177357 -31.123682 
L 79.914652 -31.600177 
L 90.882767 -32.076672 
L 99.882455 -32.553167 
L 107.613229 -33.029662 
L 114.434835 -33.506157 
L 120.561496 -33.982651 
L 126.133183 -34.459146 
L 131.24733 -34.935641 
L 135.975055 -35.412136 
L 140.370181 -35.888631 
L 144.474587 -36.365126 
L 148.321681 -36.841621 
L 151.938585 -37.318115 
L 155.347719 -37.79461 
L 158.567818 -38.271105 
L 161.614789 -38.7476 
L 164.502248 -39.224095 
L 167.241965 -39.70059 
L 169.844175 -40.177084 
L 172.317893 -40.653579 
L 174.671054 -41.130074 
L 176.910734 -41.606569 
L 179.043223 -42.083064 
L 181.074209 -42.559559 
L 183.008776 -43.036054 
L 184.851575 -43.512548 
L 186.606787 -43.989043 
L 188.278243 -44.465538 
L 189.869457 -44.942033 
L 191.383654 -45.418528 
L 192.8238 -45.895023 
L 194.19257 -46.371517 
L 195.492537 -46.848012 
L 196.726031 -47.324507 
L 197.895217 -47.801002 
L 199.002113 -48.277497 
L 200.048622 -48.753992 
L 201.03643 -49.230487 
L 201.967266 -49.706981 
L 202.84261 -50.183476 
L 203.663889 -50.659971 
L 204.432543 -51.136466 
L 205.149711 -51.612961 
L 205.816709 -52.089456 
L 206.434551 -52.56595 
L 207.00443 -53.042445 
L 207.527182 -53.51894 
L 208.0039 -53.995435 
L 208.435355 -54.47193 
L 208.822639 -54.948425 
L 209.166004 -55.424919 
L 209.4668 -55.901414 
L 209.725217 -56.377909 
L 209.942287 -56.854404 
L 210.118624 -57.330899 
L 210.253908 -57.807394 
L 210.351684 -58.283889 
L 210.391715 -58.760383 
L 210.42915 -59.236878 
L 210.42915 -59.236878 
L 210.42915 -59.236878 
L 210.391715 -59.236878 
L 210.351684 -59.236878 
L 210.253908 -59.236878 
L 210.118624 -59.236878 
L 209.942287 -59.236878 
L 209.725217 -59.236878 
L 209.4668 -59.236878 
L 209.166004 -59.236878 
L 208.822639 -59.236878 
L 208.435355 -59.236878 
L 208.0039 -59.236878 
L 207.527182 -59.236878 
L 207.00443 -59.236878 
L 206.434551 -59.236878 
L 205.816709 -59.236878 
L 205.149711 -59.236878 
L 204.432543 -59.236878 
L 203.663889 -59.236878 
L 202.84261 -59.236878 
L 201.967266 -59.236878 
L 201.03643 -59.236878 
L 200.048622 -59.236878 
L 199.002113 -59.236878 
L 197.895217 -59.236878 
L 196.726031 -59.236878 
L 195.492537 -59.236878 
L 194.19257 -59.236878 
L 192.8238 -59.236878 
L 191.383654 -59.236878 
L 189.869457 -59.236878 
L 188.278243 -59.236878 
L 186.606787 -59.236878 
L 184.851575 -59.236878 
L 183.008776 -59.236878 
L 181.074209 -59.236878 
L 179.043223 -59.236878 
L 176.910734 -59.236878 
L 174.671054 -59.236878 
L 172.317893 -59.236878 
L 169.844175 -59.236878 
L 167.241965 -59.236878 
L 164.502248 -59.236878 
L 161.614789 -59.236878 
L 158.567818 -59.236878 
L 155.347719 -59.236878 
L 151.938585 -59.236878 
L 148.321681 -59.236878 
L 144.474587 -59.236878 
L 140.370181 -59.236878 
L 135.975055 -59.236878 
L 131.24733 -59.236878 
L 126.133183 -59.236878 
L 120.561496 -59.236878 
L 114.434835 -59.236878 
L 107.613229 -59.236878 
L 99.882455 -59.236878 
L 90.882767 -59.236878 
L 79.914652 -59.236878 
L 65.177357 -59.236878 
L 27.796823 -59.236878 
z
" id="m652fce6361" style="stroke:#d9d9d9;"/>
    </defs>
    <g clip-path="url(#pd7a1e26e88)">
     <use style="fill:#d9d9d9;stroke:#d9d9d9;" x="0" xlink:href="#m652fce6361" y="152.60595"/>
    </g>
   </g>
   <g id="PolyCollection_2">
    <defs>
     <path d="M 210.502203 -59.236878 
L 210.502203 -59.236878 
L 209.406409 -59.236878 
L 208.310615 -59.236878 
L 207.141768 -59.236878 
L 205.899868 -59.236878 
L 204.657968 -59.236878 
L 203.269963 -59.236878 
L 201.881957 -59.236878 
L 200.420898 -59.236878 
L 198.95984 -59.236878 
L 197.352675 -59.236878 
L 195.745511 -59.236878 
L 193.99224 -59.236878 
L 192.23897 -59.236878 
L 190.4857 -59.236878 
L 188.586324 -59.236878 
L 186.686947 -59.236878 
L 184.641465 -59.236878 
L 182.595983 -59.236878 
L 180.477448 -59.236878 
L 178.358913 -59.236878 
L 176.094272 -59.236878 
L 173.829632 -59.236878 
L 171.418885 -59.236878 
L 169.008138 -59.236878 
L 166.524338 -59.236878 
L 163.967486 -59.236878 
L 161.410633 -59.236878 
L 158.707675 -59.236878 
L 155.931664 -59.236878 
L 153.155652 -59.236878 
L 150.233535 -59.236878 
L 147.311418 -59.236878 
L 144.316248 -59.236878 
L 141.174972 -59.236878 
L 138.033695 -59.236878 
L 134.819367 -59.236878 
L 131.458932 -59.236878 
L 128.098497 -59.236878 
L 124.591956 -59.236878 
L 121.012363 -59.236878 
L 117.432769 -59.236878 
L 113.70707 -59.236878 
L 109.835264 -59.236878 
L 105.963459 -59.236878 
L 101.945548 -59.236878 
L 97.854584 -59.236878 
L 93.690567 -59.236878 
L 89.380444 -59.236878 
L 84.997268 -59.236878 
L 80.467986 -59.236878 
L 75.792598 -59.236878 
L 71.044158 -59.236878 
L 66.149612 -59.236878 
L 61.182012 -59.236878 
L 55.995254 -59.236878 
L 50.735443 -59.236878 
L 45.256473 -59.236878 
L 39.631398 -59.236878 
L 33.787163 -59.236878 
L 27.869876 -59.236878 
L 27.869876 -87.826569 
L 27.869876 -87.826569 
L 33.787163 -87.350074 
L 39.631398 -86.873579 
L 45.256473 -86.397084 
L 50.735443 -85.92059 
L 55.995254 -85.444095 
L 61.182012 -84.9676 
L 66.149612 -84.491105 
L 71.044158 -84.01461 
L 75.792598 -83.538115 
L 80.467986 -83.06162 
L 84.997268 -82.585126 
L 89.380444 -82.108631 
L 93.690567 -81.632136 
L 97.854584 -81.155641 
L 101.945548 -80.679146 
L 105.963459 -80.202651 
L 109.835264 -79.726157 
L 113.70707 -79.249662 
L 117.432769 -78.773167 
L 121.012363 -78.296672 
L 124.591956 -77.820177 
L 128.098497 -77.343682 
L 131.458932 -76.867188 
L 134.819367 -76.390693 
L 138.033695 -75.914198 
L 141.174972 -75.437703 
L 144.316248 -74.961208 
L 147.311418 -74.484713 
L 150.233535 -74.008218 
L 153.155652 -73.531724 
L 155.931664 -73.055229 
L 158.707675 -72.578734 
L 161.410633 -72.102239 
L 163.967486 -71.625744 
L 166.524338 -71.149249 
L 169.008138 -70.672755 
L 171.418885 -70.19626 
L 173.829632 -69.719765 
L 176.094272 -69.24327 
L 178.358913 -68.766775 
L 180.477448 -68.29028 
L 182.595983 -67.813785 
L 184.641465 -67.337291 
L 186.686947 -66.860796 
L 188.586324 -66.384301 
L 190.4857 -65.907806 
L 192.23897 -65.431311 
L 193.99224 -64.954816 
L 195.745511 -64.478322 
L 197.352675 -64.001827 
L 198.95984 -63.525332 
L 200.420898 -63.048837 
L 201.881957 -62.572342 
L 203.269963 -62.095847 
L 204.657968 -61.619352 
L 205.899868 -61.142858 
L 207.141768 -60.666363 
L 208.310615 -60.189868 
L 209.406409 -59.713373 
L 210.502203 -59.236878 
z
" id="m0cf46e0952" style="stroke:#d9d9d9;"/>
    </defs>
    <g clip-path="url(#pd7a1e26e88)">
     <use style="fill:#d9d9d9;stroke:#d9d9d9;" x="0" xlink:href="#m0cf46e0952" y="152.60595"/>
    </g>
   </g>
   <g id="PolyCollection_3">
    <defs>
     <path d="M 210.502203 -116.41626 
L 210.502203 -59.236878 
L 209.406409 -59.713373 
L 208.310615 -60.189868 
L 207.141768 -60.666363 
L 205.899868 -61.142858 
L 204.657968 -61.619352 
L 203.269963 -62.095847 
L 201.881957 -62.572342 
L 200.420898 -63.048837 
L 198.95984 -63.525332 
L 197.352675 -64.001827 
L 195.745511 -64.478322 
L 193.99224 -64.954816 
L 192.23897 -65.431311 
L 190.4857 -65.907806 
L 188.586324 -66.384301 
L 186.686947 -66.860796 
L 184.641465 -67.337291 
L 182.595983 -67.813785 
L 180.477448 -68.29028 
L 178.358913 -68.766775 
L 176.094272 -69.24327 
L 173.829632 -69.719765 
L 171.418885 -70.19626 
L 169.008138 -70.672755 
L 166.524338 -71.149249 
L 163.967486 -71.625744 
L 161.410633 -72.102239 
L 158.707675 -72.578734 
L 155.931664 -73.055229 
L 153.155652 -73.531724 
L 150.233535 -74.008218 
L 147.311418 -74.484713 
L 144.316248 -74.961208 
L 141.174972 -75.437703 
L 138.033695 -75.914198 
L 134.819367 -76.390693 
L 131.458932 -76.867188 
L 128.098497 -77.343682 
L 124.591956 -77.820177 
L 121.012363 -78.296672 
L 117.432769 -78.773167 
L 113.70707 -79.249662 
L 109.835264 -79.726157 
L 105.963459 -80.202651 
L 101.945548 -80.679146 
L 97.854584 -81.155641 
L 93.690567 -81.632136 
L 89.380444 -82.108631 
L 84.997268 -82.585126 
L 80.467986 -83.06162 
L 75.792598 -83.538115 
L 71.044158 -84.01461 
L 66.149612 -84.491105 
L 61.182012 -84.9676 
L 55.995254 -85.444095 
L 50.735443 -85.92059 
L 45.256473 -86.397084 
L 39.631398 -86.873579 
L 33.787163 -87.350074 
L 27.869876 -87.826569 
L 27.869876 -87.826569 
L 27.869876 -87.826569 
L 33.787163 -88.303064 
L 39.631398 -88.779559 
L 45.256473 -89.256053 
L 50.735443 -89.732548 
L 55.995254 -90.209043 
L 61.182012 -90.685538 
L 66.149612 -91.162033 
L 71.044158 -91.638528 
L 75.792598 -92.115023 
L 80.467986 -92.591517 
L 84.997268 -93.068012 
L 89.380444 -93.544507 
L 93.690567 -94.021002 
L 97.854584 -94.497497 
L 101.945548 -94.973992 
L 105.963459 -95.450486 
L 109.835264 -95.926981 
L 113.70707 -96.403476 
L 117.432769 -96.879971 
L 121.012363 -97.356466 
L 124.591956 -97.832961 
L 128.098497 -98.309456 
L 131.458932 -98.78595 
L 134.819367 -99.262445 
L 138.033695 -99.73894 
L 141.174972 -100.215435 
L 144.316248 -100.69193 
L 147.311418 -101.168425 
L 150.233535 -101.644919 
L 153.155652 -102.121414 
L 155.931664 -102.597909 
L 158.707675 -103.074404 
L 161.410633 -103.550899 
L 163.967486 -104.027394 
L 166.524338 -104.503889 
L 169.008138 -104.980383 
L 171.418885 -105.456878 
L 173.829632 -105.933373 
L 176.094272 -106.409868 
L 178.358913 -106.886363 
L 180.477448 -107.362858 
L 182.595983 -107.839352 
L 184.641465 -108.315847 
L 186.686947 -108.792342 
L 188.586324 -109.268837 
L 190.4857 -109.745332 
L 192.23897 -110.221827 
L 193.99224 -110.698322 
L 195.745511 -111.174816 
L 197.352675 -111.651311 
L 198.95984 -112.127806 
L 200.420898 -112.604301 
L 201.881957 -113.080796 
L 203.269963 -113.557291 
L 204.657968 -114.033785 
L 205.899868 -114.51028 
L 207.141768 -114.986775 
L 208.310615 -115.46327 
L 209.406409 -115.939765 
L 210.502203 -116.41626 
z
" id="m499dd61a9b" style="stroke:#bfbfbf;"/>
    </defs>
    <g clip-path="url(#pd7a1e26e88)">
     <use style="fill:#bfbfbf;stroke:#bfbfbf;" x="0" xlink:href="#m499dd61a9b" y="152.60595"/>
    </g>
   </g>
   <g id="PolyCollection_4">
    <defs>
     <path d="M 210.502203 -116.41626 
L 210.502203 -116.41626 
L 209.406409 -115.939765 
L 208.310615 -115.46327 
L 207.141768 -114.986775 
L 205.899868 -114.51028 
L 204.657968 -114.033785 
L 203.269963 -113.557291 
L 201.881957 -113.080796 
L 200.420898 -112.604301 
L 198.95984 -112.127806 
L 197.352675 -111.651311 
L 195.745511 -111.174816 
L 193.99224 -110.698322 
L 192.23897 -110.221827 
L 190.4857 -109.745332 
L 188.586324 -109.268837 
L 186.686947 -108.792342 
L 184.641465 -108.315847 
L 182.595983 -107.839352 
L 180.477448 -107.362858 
L 178.358913 -106.886363 
L 176.094272 -106.409868 
L 173.829632 -105.933373 
L 171.418885 -105.456878 
L 169.008138 -104.980383 
L 166.524338 -104.503889 
L 163.967486 -104.027394 
L 161.410633 -103.550899 
L 158.707675 -103.074404 
L 155.931664 -102.597909 
L 153.155652 -102.121414 
L 150.233535 -101.644919 
L 147.311418 -101.168425 
L 144.316248 -100.69193 
L 141.174972 -100.215435 
L 138.033695 -99.73894 
L 134.819367 -99.262445 
L 131.458932 -98.78595 
L 128.098497 -98.309456 
L 124.591956 -97.832961 
L 121.012363 -97.356466 
L 117.432769 -96.879971 
L 113.70707 -96.403476 
L 109.835264 -95.926981 
L 105.963459 -95.450486 
L 101.945548 -94.973992 
L 97.854584 -94.497497 
L 93.690567 -94.021002 
L 89.380444 -93.544507 
L 84.997268 -93.068012 
L 80.467986 -92.591517 
L 75.792598 -92.115023 
L 71.044158 -91.638528 
L 66.149612 -91.162033 
L 61.182012 -90.685538 
L 55.995254 -90.209043 
L 50.735443 -89.732548 
L 45.256473 -89.256053 
L 39.631398 -88.779559 
L 33.787163 -88.303064 
L 27.869876 -87.826569 
L 27.869876 -116.41626 
L 27.869876 -116.41626 
L 33.787163 -116.41626 
L 39.631398 -116.41626 
L 45.256473 -116.41626 
L 50.735443 -116.41626 
L 55.995254 -116.41626 
L 61.182012 -116.41626 
L 66.149612 -116.41626 
L 71.044158 -116.41626 
L 75.792598 -116.41626 
L 80.467986 -116.41626 
L 84.997268 -116.41626 
L 89.380444 -116.41626 
L 93.690567 -116.41626 
L 97.854584 -116.41626 
L 101.945548 -116.41626 
L 105.963459 -116.41626 
L 109.835264 -116.41626 
L 113.70707 -116.41626 
L 117.432769 -116.41626 
L 121.012363 -116.41626 
L 124.591956 -116.41626 
L 128.098497 -116.41626 
L 131.458932 -116.41626 
L 134.819367 -116.41626 
L 138.033695 -116.41626 
L 141.174972 -116.41626 
L 144.316248 -116.41626 
L 147.311418 -116.41626 
L 150.233535 -116.41626 
L 153.155652 -116.41626 
L 155.931664 -116.41626 
L 158.707675 -116.41626 
L 161.410633 -116.41626 
L 163.967486 -116.41626 
L 166.524338 -116.41626 
L 169.008138 -116.41626 
L 171.418885 -116.41626 
L 173.829632 -116.41626 
L 176.094272 -116.41626 
L 178.358913 -116.41626 
L 180.477448 -116.41626 
L 182.595983 -116.41626 
L 184.641465 -116.41626 
L 186.686947 -116.41626 
L 188.586324 -116.41626 
L 190.4857 -116.41626 
L 192.23897 -116.41626 
L 193.99224 -116.41626 
L 195.745511 -116.41626 
L 197.352675 -116.41626 
L 198.95984 -116.41626 
L 200.420898 -116.41626 
L 201.881957 -116.41626 
L 203.269963 -116.41626 
L 204.657968 -116.41626 
L 205.899868 -116.41626 
L 207.141768 -116.41626 
L 208.310615 -116.41626 
L 209.406409 -116.41626 
L 210.502203 -116.41626 
z
" id="m41b313038e" style="stroke:#d9d9d9;"/>
    </defs>
    <g clip-path="url(#pd7a1e26e88)">
     <use style="fill:#d9d9d9;stroke:#d9d9d9;" x="0" xlink:href="#m41b313038e" y="152.60595"/>
    </g>
   </g>
   <g id="PolyCollection_5">
    <defs>
     <path d="M 27.796823 -145.00595 
L 27.796823 -116.41626 
L 65.177357 -116.41626 
L 79.914652 -116.41626 
L 90.882767 -116.41626 
L 99.882455 -116.41626 
L 107.613229 -116.41626 
L 114.434835 -116.41626 
L 120.561496 -116.41626 
L 126.133183 -116.41626 
L 131.24733 -116.41626 
L 135.975055 -116.41626 
L 140.370181 -116.41626 
L 144.474587 -116.41626 
L 148.321681 -116.41626 
L 151.938585 -116.41626 
L 155.347719 -116.41626 
L 158.567818 -116.41626 
L 161.614789 -116.41626 
L 164.502248 -116.41626 
L 167.241965 -116.41626 
L 169.844175 -116.41626 
L 172.317893 -116.41626 
L 174.671054 -116.41626 
L 176.910734 -116.41626 
L 179.043223 -116.41626 
L 181.074209 -116.41626 
L 183.008776 -116.41626 
L 184.851575 -116.41626 
L 186.606787 -116.41626 
L 188.278243 -116.41626 
L 189.869457 -116.41626 
L 191.383654 -116.41626 
L 192.8238 -116.41626 
L 194.19257 -116.41626 
L 195.492537 -116.41626 
L 196.726031 -116.41626 
L 197.895217 -116.41626 
L 199.002113 -116.41626 
L 200.048622 -116.41626 
L 201.03643 -116.41626 
L 201.967266 -116.41626 
L 202.84261 -116.41626 
L 203.663889 -116.41626 
L 204.432543 -116.41626 
L 205.149711 -116.41626 
L 205.816709 -116.41626 
L 206.434551 -116.41626 
L 207.00443 -116.41626 
L 207.527182 -116.41626 
L 208.0039 -116.41626 
L 208.435355 -116.41626 
L 208.822639 -116.41626 
L 209.166004 -116.41626 
L 209.4668 -116.41626 
L 209.725217 -116.41626 
L 209.942287 -116.41626 
L 210.118624 -116.41626 
L 210.253908 -116.41626 
L 210.351684 -116.41626 
L 210.391715 -116.41626 
L 210.42915 -116.41626 
L 210.42915 -116.41626 
L 210.42915 -116.41626 
L 210.391715 -116.892754 
L 210.351684 -117.369249 
L 210.253908 -117.845744 
L 210.118624 -118.322239 
L 209.942287 -118.798734 
L 209.725217 -119.275229 
L 209.4668 -119.751724 
L 209.166004 -120.228218 
L 208.822639 -120.704713 
L 208.435355 -121.181208 
L 208.0039 -121.657703 
L 207.527182 -122.134198 
L 207.00443 -122.610693 
L 206.434551 -123.087187 
L 205.816709 -123.563682 
L 205.149711 -124.040177 
L 204.432543 -124.516672 
L 203.663889 -124.993167 
L 202.84261 -125.469662 
L 201.967266 -125.946157 
L 201.03643 -126.422651 
L 200.048622 -126.899146 
L 199.002113 -127.375641 
L 197.895217 -127.852136 
L 196.726031 -128.328631 
L 195.492537 -128.805126 
L 194.19257 -129.28162 
L 192.8238 -129.758115 
L 191.383654 -130.23461 
L 189.869457 -130.711105 
L 188.278243 -131.1876 
L 186.606787 -131.664095 
L 184.851575 -132.14059 
L 183.008776 -132.617084 
L 181.074209 -133.093579 
L 179.043223 -133.570074 
L 176.910734 -134.046569 
L 174.671054 -134.523064 
L 172.317893 -134.999559 
L 169.844175 -135.476053 
L 167.241965 -135.952548 
L 164.502248 -136.429043 
L 161.614789 -136.905538 
L 158.567818 -137.382033 
L 155.347719 -137.858528 
L 151.938585 -138.335023 
L 148.321681 -138.811517 
L 144.474587 -139.288012 
L 140.370181 -139.764507 
L 135.975055 -140.241002 
L 131.24733 -140.717497 
L 126.133183 -141.193992 
L 120.561496 -141.670486 
L 114.434835 -142.146981 
L 107.613229 -142.623476 
L 99.882455 -143.099971 
L 90.882767 -143.576466 
L 79.914652 -144.052961 
L 65.177357 -144.529456 
L 27.796823 -145.00595 
z
" id="m03adce953e" style="stroke:#d9d9d9;"/>
    </defs>
    <g clip-path="url(#pd7a1e26e88)">
     <use style="fill:#d9d9d9;stroke:#d9d9d9;" x="0" xlink:href="#m03adce953e" y="152.60595"/>
    </g>
   </g>
   <g id="matplotlib.axis_1">
    <g id="xtick_1">
     <g id="line2d_1">
      <defs>
       <path d="M 0 0 
L 0 -4 
" id="madcc79fe89" style="stroke:#000000;stroke-width:0.5;"/>
      </defs>
      <g>
       <use style="stroke:#000000;stroke-width:0.5;" x="27.796823" xlink:href="#madcc79fe89" y="7.6"/>
      </g>
     </g>
     <g id="text_1">
      <!-- $\mathdefault{0.00}$ -->
      <g transform="translate(20.269387 135.493565)scale(0.08 -0.08)">
       <defs>
        <path d="M 42 31.640625 
C 42 37.75 41.90625 48.125 37.703125 56.109375 
C 34 63.109375 28.09375 65.59375 22.90625 65.59375 
C 18.09375 65.59375 12 63.40625 8.203125 56.203125 
C 4.203125 48.71875 3.796875 39.4375 3.796875 31.640625 
C 3.796875 25.953125 3.90625 17.28125 7 9.671875 
C 11.296875 -0.609375 19 -2 22.90625 -2 
C 27.5 -2 34.5 -0.109375 38.59375 9.375 
C 41.59375 16.28125 42 24.359375 42 31.640625 
z
M 22.90625 -0.40625 
C 16.5 -0.40625 12.703125 5.078125 11.296875 12.6875 
C 10.203125 18.5625 10.203125 27.15625 10.203125 32.75 
C 10.203125 40.4375 10.203125 46.828125 11.5 52.921875 
C 13.40625 61.390625 19 64 22.90625 64 
C 27 64 32.296875 61.296875 34.203125 53.125 
C 35.5 47.4375 35.59375 40.734375 35.59375 32.75 
C 35.59375 26.25 35.59375 18.265625 34.40625 12.375 
C 32.296875 1.484375 26.40625 -0.40625 22.90625 -0.40625 
z
" id="CMR17-48"/>
        <path d="M 18.40625 4.796875 
C 18.40625 7.6875 16 9.671875 13.59375 9.671875 
C 10.703125 9.671875 8.703125 7.28125 8.703125 4.890625 
C 8.703125 2 11.09375 0 13.5 0 
C 16.40625 0 18.40625 2.390625 18.40625 4.796875 
z
" id="CMMI12-58"/>
       </defs>
       <use transform="scale(0.996264)" xlink:href="#CMR17-48"/>
       <use transform="translate(45.690477 0)scale(0.996264)" xlink:href="#CMMI12-58"/>
       <use transform="translate(72.787654 0)scale(0.996264)" xlink:href="#CMR17-48"/>
       <use transform="translate(118.478131 0)scale(0.996264)" xlink:href="#CMR17-48"/>
      </g>
     </g>
    </g>
    <g id="xtick_2">
     <g id="line2d_2">
      <g>
       <use style="stroke:#000000;stroke-width:0.5;" x="64.323288" xlink:href="#madcc79fe89" y="7.6"/>
      </g>
     </g>
     <g id="text_2">
      <!-- $\mathdefault{0.05}$ -->
      <g transform="translate(56.795852 135.493565)scale(0.08 -0.08)">
       <defs>
        <path d="M 11.40625 57.6875 
C 12.40625 57.28125 16.5 56 20.703125 56 
C 30 56 35.09375 61.109375 38 64.0625 
C 38 64.953125 38 65.5 37.40625 65.5 
C 37.296875 65.5 37.09375 65.5 36.296875 65.046875 
C 32.796875 63.40625 28.703125 62.078125 23.703125 62.078125 
C 20.703125 62.078125 16.203125 62.484375 11.296875 64.671875 
C 10.203125 65.171875 10 65.171875 9.90625 65.171875 
C 9.40625 65.171875 9.296875 65.0625 9.296875 63.078125 
L 9.296875 34.421875 
C 9.296875 32.640625 9.296875 32.140625 10.296875 32.140625 
C 10.796875 32.140625 11 32.34375 11.5 33.03125 
C 14.703125 37.515625 19.09375 39.40625 24.09375 39.40625 
C 27.59375 39.40625 35.09375 37.21875 35.09375 20.140625 
C 35.09375 16.953125 35.09375 11.171875 32.09375 6.578125 
C 29.59375 2.484375 25.703125 0.390625 21.40625 0.390625 
C 14.796875 0.390625 8.09375 5 6.296875 12.71875 
C 6.703125 12.609375 7.5 12.421875 7.90625 12.421875 
C 9.203125 12.421875 11.703125 13.125 11.703125 16.21875 
C 11.703125 18.90625 9.796875 20 7.90625 20 
C 5.59375 20 4.09375 18.59375 4.09375 15.796875 
C 4.09375 7.09375 11 -2 21.59375 -2 
C 31.90625 -2 41.703125 6.875 41.703125 19.75 
C 41.703125 31.71875 33.90625 41 24.203125 41 
C 19.09375 41 14.796875 39.109375 11.40625 35.53125 
z
" id="CMR17-53"/>
       </defs>
       <use transform="scale(0.996264)" xlink:href="#CMR17-48"/>
       <use transform="translate(45.690477 0)scale(0.996264)" xlink:href="#CMMI12-58"/>
       <use transform="translate(72.787654 0)scale(0.996264)" xlink:href="#CMR17-48"/>
       <use transform="translate(118.478131 0)scale(0.996264)" xlink:href="#CMR17-53"/>
      </g>
     </g>
    </g>
    <g id="xtick_3">
     <g id="line2d_3">
      <g>
       <use style="stroke:#000000;stroke-width:0.5;" x="100.849754" xlink:href="#madcc79fe89" y="7.6"/>
      </g>
     </g>
     <g id="text_3">
      <!-- $\mathdefault{0.10}$ -->
      <g transform="translate(93.322318 135.493565)scale(0.08 -0.08)">
       <defs>
        <path d="M 26.59375 63.40625 
C 26.59375 65.5 26.5 65.5 25.09375 65.5 
C 21.203125 61.1875 15.296875 59.796875 9.703125 59.796875 
C 9.40625 59.796875 8.90625 59.796875 8.796875 59.5 
C 8.703125 59.296875 8.703125 59.09375 8.703125 57 
C 11.796875 57 17 57.59375 21 59.984375 
L 21 7.203125 
C 21 3.6875 20.796875 2.5 12.203125 2.5 
L 9.203125 2.5 
L 9.203125 0 
C 14 0 19 0 23.796875 0 
C 28.59375 0 33.59375 0 38.40625 0 
L 38.40625 2.5 
L 35.40625 2.5 
C 26.796875 2.5 26.59375 3.59375 26.59375 7.15625 
z
" id="CMR17-49"/>
       </defs>
       <use transform="scale(0.996264)" xlink:href="#CMR17-48"/>
       <use transform="translate(45.690477 0)scale(0.996264)" xlink:href="#CMMI12-58"/>
       <use transform="translate(72.787654 0)scale(0.996264)" xlink:href="#CMR17-49"/>
       <use transform="translate(118.478131 0)scale(0.996264)" xlink:href="#CMR17-48"/>
      </g>
     </g>
    </g>
    <g id="xtick_4">
     <g id="line2d_4">
      <g>
       <use style="stroke:#000000;stroke-width:0.5;" x="137.376219" xlink:href="#madcc79fe89" y="7.6"/>
      </g>
     </g>
     <g id="text_4">
      <!-- $\mathdefault{0.15}$ -->
      <g transform="translate(129.848783 135.493565)scale(0.08 -0.08)">
       <use transform="scale(0.996264)" xlink:href="#CMR17-48"/>
       <use transform="translate(45.690477 0)scale(0.996264)" xlink:href="#CMMI12-58"/>
       <use transform="translate(72.787654 0)scale(0.996264)" xlink:href="#CMR17-49"/>
       <use transform="translate(118.478131 0)scale(0.996264)" xlink:href="#CMR17-53"/>
      </g>
     </g>
    </g>
    <g id="xtick_5">
     <g id="line2d_5">
      <g>
       <use style="stroke:#000000;stroke-width:0.5;" x="173.902684" xlink:href="#madcc79fe89" y="7.6"/>
      </g>
     </g>
     <g id="text_5">
      <!-- $\mathdefault{0.20}$ -->
      <g transform="translate(166.375248 135.493565)scale(0.08 -0.08)">
       <defs>
        <path d="M 41.703125 15.453125 
L 39.90625 15.453125 
C 38.90625 8.375 38.09375 7.171875 37.703125 6.5625 
C 37.203125 5.765625 30 5.765625 28.59375 5.765625 
L 9.40625 5.765625 
C 13 9.671875 20 16.75 28.5 24.953125 
C 34.59375 30.734375 41.703125 37.53125 41.703125 47.421875 
C 41.703125 59.21875 32.296875 66 21.796875 66 
C 10.796875 66 4.09375 56.3125 4.09375 47.34375 
C 4.09375 43.4375 7 42.9375 8.203125 42.9375 
C 9.203125 42.9375 12.203125 43.546875 12.203125 47.03125 
C 12.203125 50.109375 9.59375 51 8.203125 51 
C 7.59375 51 7 50.90625 6.59375 50.703125 
C 8.5 59.21875 14.296875 63.40625 20.40625 63.40625 
C 29.09375 63.40625 34.796875 56.515625 34.796875 47.421875 
C 34.796875 38.734375 29.703125 31.25 24 24.75 
L 4.09375 2.28125 
L 4.09375 0 
L 39.296875 0 
z
" id="CMR17-50"/>
       </defs>
       <use transform="scale(0.996264)" xlink:href="#CMR17-48"/>
       <use transform="translate(45.690477 0)scale(0.996264)" xlink:href="#CMMI12-58"/>
       <use transform="translate(72.787654 0)scale(0.996264)" xlink:href="#CMR17-50"/>
       <use transform="translate(118.478131 0)scale(0.996264)" xlink:href="#CMR17-48"/>
      </g>
     </g>
    </g>
    <g id="xtick_6">
     <g id="line2d_6">
      <g>
       <use style="stroke:#000000;stroke-width:0.5;" x="210.42915" xlink:href="#madcc79fe89" y="7.6"/>
      </g>
     </g>
     <g id="text_6">
      <!-- $\mathdefault{0.25}$ -->
      <g transform="translate(202.901714 135.493565)scale(0.08 -0.08)">
       <use transform="scale(0.996264)" xlink:href="#CMR17-48"/>
       <use transform="translate(45.690477 0)scale(0.996264)" xlink:href="#CMMI12-58"/>
       <use transform="translate(72.787654 0)scale(0.996264)" xlink:href="#CMR17-50"/>
       <use transform="translate(118.478131 0)scale(0.996264)" xlink:href="#CMR17-53"/>
      </g>
     </g>
    </g>
    <g id="text_7">
     <!-- $t/V$ -->
     <g transform="translate(115.570386 146.51529)scale(0.1 -0.1)">
      <defs>
       <path d="M 20.09375 40.09375 
L 29.296875 40.09375 
C 31.203125 40.09375 32.203125 40.09375 32.203125 41.890625 
C 32.203125 43 31.59375 43 29.59375 43 
L 20.796875 43 
L 24.5 57.6875 
C 24.90625 59.078125 24.90625 59.28125 24.90625 60 
C 24.90625 61.609375 23.59375 62.5 22.296875 62.5 
C 21.5 62.5 19.203125 62.203125 18.40625 58.984375 
L 14.5 43 
L 5.09375 43 
C 3.09375 43 2.203125 43 2.203125 41.09375 
C 2.203125 40.09375 2.90625 40.09375 4.796875 40.09375 
L 13.703125 40.09375 
L 7.09375 13.765625 
C 6.296875 10.28125 6 9.28125 6 7.984375 
C 6 3.296875 9.296875 -1 14.90625 -1 
C 25 -1 30.40625 13.5625 30.40625 14.25 
C 30.40625 14.859375 30 15.15625 29.40625 15.15625 
C 29.203125 15.15625 28.796875 15.15625 28.59375 14.75 
C 28.5 14.65625 28.40625 14.546875 27.703125 12.953125 
C 25.59375 7.984375 21 1 15.203125 1 
C 12.203125 1 12 3.5 12 5.6875 
C 12 5.78125 12 7.6875 12.296875 8.875 
z
" id="CMMI12-116"/>
       <path d="M 42.90625 71.28125 
C 42.90625 71.390625 43.5 72.90625 43.5 73.09375 
C 43.5 74.296875 42.5 75 41.703125 75 
C 41.203125 75 40.296875 75 39.5 72.796875 
L 6 -21.296875 
C 6 -21.40625 5.40625 -22.890625 5.40625 -23.09375 
C 5.40625 -24.296875 6.40625 -25 7.203125 -25 
C 7.796875 -25 8.703125 -24.890625 9.40625 -22.796875 
z
" id="CMMI12-61"/>
       <path d="M 61.90625 56.875 
C 65.296875 62.25 68.40625 64.625 73.5 65.03125 
C 74.5 65.125 75.296875 65.125 75.296875 66.90625 
C 75.296875 67.3125 75.09375 67.90625 74.203125 67.90625 
C 72.40625 67.90625 68.09375 67.90625 66.296875 67.90625 
C 63.40625 67.90625 60.40625 67.90625 57.59375 67.90625 
C 56.796875 67.90625 55.796875 67.90625 55.796875 66.03125 
C 55.796875 65.125 56.703125 65.03125 57.09375 65.03125 
C 60.796875 64.734375 61.203125 62.953125 61.203125 61.75 
C 61.203125 60.265625 59.796875 57.96875 59.703125 57.875 
L 28.296875 8.4375 
L 21.296875 62.015625 
C 21.296875 65 26.5 65 27.59375 65 
C 29.09375 65 30 65 30 66.90625 
C 30 67.90625 28.90625 67.90625 28.59375 67.90625 
C 26.90625 67.90625 24.90625 67.90625 23.203125 67.90625 
L 17.59375 67.90625 
C 10.296875 67.90625 7.296875 67.90625 7.203125 67.90625 
C 6.59375 67.90625 5.40625 67.90625 5.40625 66.09375 
C 5.40625 65 6.09375 65 7.703125 65 
C 12.796875 65 13.09375 64.09375 13.40625 61.625 
L 21.40625 0.375 
C 21.703125 -1.703125 21.703125 -2 23.09375 -2 
C 24.296875 -2 24.796875 -1.703125 25.796875 -0.125 
z
" id="CMMI12-86"/>
      </defs>
      <use transform="scale(0.996264)" xlink:href="#CMMI12-116"/>
      <use transform="translate(35.22633 0)scale(0.996264)" xlink:href="#CMMI12-61"/>
      <use transform="translate(84.001249 0)scale(0.996264)" xlink:href="#CMMI12-86"/>
     </g>
    </g>
   </g>
   <g id="matplotlib.axis_2">
    <g id="ytick_1">
     <g id="line2d_7">
      <defs>
       <path d="M 0 0 
L -4 0 
" id="m8f573195d7" style="stroke:#000000;stroke-width:0.5;"/>
      </defs>
      <g>
       <use style="stroke:#000000;stroke-width:0.5;" x="27.796823" xlink:href="#m8f573195d7" y="121.958763"/>
      </g>
     </g>
     <g id="text_8">
      <!-- $\mathdefault{0}$ -->
      <g transform="translate(15.56264 124.726164)scale(0.08 -0.08)">
       <use transform="scale(0.996264)" xlink:href="#CMR17-48"/>
      </g>
     </g>
    </g>
    <g id="ytick_2">
     <g id="line2d_8">
      <g>
       <use style="stroke:#000000;stroke-width:0.5;" x="27.796823" xlink:href="#m8f573195d7" y="102.898969"/>
      </g>
     </g>
     <g id="text_9">
      <!-- $\mathdefault{1}$ -->
      <g transform="translate(15.56264 105.66637)scale(0.08 -0.08)">
       <use transform="scale(0.996264)" xlink:href="#CMR17-49"/>
      </g>
     </g>
    </g>
    <g id="ytick_3">
     <g id="line2d_9">
      <g>
       <use style="stroke:#000000;stroke-width:0.5;" x="27.796823" xlink:href="#m8f573195d7" y="83.839175"/>
      </g>
     </g>
     <g id="text_10">
      <!-- $\mathdefault{2}$ -->
      <g transform="translate(15.56264 86.606576)scale(0.08 -0.08)">
       <use transform="scale(0.996264)" xlink:href="#CMR17-50"/>
      </g>
     </g>
    </g>
    <g id="ytick_4">
     <g id="line2d_10">
      <g>
       <use style="stroke:#000000;stroke-width:0.5;" x="27.796823" xlink:href="#m8f573195d7" y="64.779381"/>
      </g>
     </g>
     <g id="text_11">
      <!-- $\mathdefault{3}$ -->
      <g transform="translate(15.56264 67.546782)scale(0.08 -0.08)">
       <defs>
        <path d="M 22.09375 33.703125 
C 31 33.703125 34.90625 25.96875 34.90625 17.03125 
C 34.90625 5 28.5 0.390625 22.703125 0.390625 
C 17.40625 0.390625 8.796875 3.03125 6.09375 10.828125 
C 6.59375 10.625 7.09375 10.625 7.59375 10.625 
C 10 10.625 11.796875 12.21875 11.796875 14.8125 
C 11.796875 17.703125 9.59375 19 7.59375 19 
C 5.90625 19 3.296875 18.203125 3.296875 14.46875 
C 3.296875 5.234375 12.296875 -2 22.90625 -2 
C 34 -2 42.5 6.71875 42.5 16.953125 
C 42.5 26.671875 34.5 33.703125 25 34.796875 
C 32.59375 36.375 39.90625 43.0625 39.90625 52.015625 
C 39.90625 59.6875 32 65.296875 23 65.296875 
C 13.90625 65.296875 5.90625 59.828125 5.90625 52.015625 
C 5.90625 48.59375 8.5 48 9.796875 48 
C 11.90625 48 13.703125 49.296875 13.703125 51.890625 
C 13.703125 54.46875 11.90625 55.765625 9.796875 55.765625 
C 9.40625 55.765625 8.90625 55.765625 8.5 55.578125 
C 11.40625 61.859375 19.296875 63 22.796875 63 
C 26.296875 63 32.90625 61.328125 32.90625 51.875 
C 32.90625 49.109375 32.5 44.1875 29.09375 39.84375 
C 26.09375 36 22.703125 36 19.40625 35.6875 
C 18.90625 35.6875 16.59375 35.453125 16.203125 35.453125 
C 15.5 35.359375 15.09375 35.265625 15.09375 34.5 
C 15.09375 33.796875 15.203125 33.703125 17.203125 33.703125 
z
" id="CMR17-51"/>
       </defs>
       <use transform="scale(0.996264)" xlink:href="#CMR17-51"/>
      </g>
     </g>
    </g>
    <g id="ytick_5">
     <g id="line2d_11">
      <g>
       <use style="stroke:#000000;stroke-width:0.5;" x="27.796823" xlink:href="#m8f573195d7" y="45.719588"/>
      </g>
     </g>
     <g id="text_12">
      <!-- $\mathdefault{4}$ -->
      <g transform="translate(15.56264 48.486988)scale(0.08 -0.08)">
       <defs>
        <path d="M 33.59375 64.40625 
C 33.59375 66.5 33.5 66.5 31.703125 66.5 
L 2 19.59375 
L 2 17 
L 27.796875 17 
L 27.796875 7.140625 
C 27.796875 3.5 27.59375 2.5 20.59375 2.5 
L 18.703125 2.5 
L 18.703125 0 
C 21.90625 0 27.296875 0 30.703125 0 
C 34.09375 0 39.5 0 42.703125 0 
L 42.703125 2.5 
L 40.796875 2.5 
C 33.796875 2.5 33.59375 3.5 33.59375 7.140625 
L 33.59375 17 
L 43.796875 17 
L 43.796875 19.59375 
L 33.59375 19.59375 
z
M 28.09375 57.859375 
L 28.09375 19.59375 
L 4 19.59375 
z
" id="CMR17-52"/>
       </defs>
       <use transform="scale(0.996264)" xlink:href="#CMR17-52"/>
      </g>
     </g>
    </g>
    <g id="ytick_6">
     <g id="line2d_12">
      <g>
       <use style="stroke:#000000;stroke-width:0.5;" x="27.796823" xlink:href="#m8f573195d7" y="26.659794"/>
      </g>
     </g>
     <g id="text_13">
      <!-- $\mathdefault{5}$ -->
      <g transform="translate(15.56264 29.427195)scale(0.08 -0.08)">
       <use transform="scale(0.996264)" xlink:href="#CMR17-53"/>
      </g>
     </g>
    </g>
    <g id="ytick_7">
     <g id="line2d_13">
      <g>
       <use style="stroke:#000000;stroke-width:0.5;" x="27.796823" xlink:href="#m8f573195d7" y="7.6"/>
      </g>
     </g>
     <g id="text_14">
      <!-- $\mathdefault{6}$ -->
      <g transform="translate(15.56264 10.367401)scale(0.08 -0.08)">
       <defs>
        <path d="M 10.59375 34 
C 10.59375 57.65625 21.796875 63 28.296875 63 
C 30.40625 63 35.5 62.640625 37.5 59 
C 35.90625 59 32.90625 59 32.90625 55.515625 
C 32.90625 52.828125 35.09375 51.921875 36.5 51.921875 
C 37.40625 51.921875 40.09375 52.3125 40.09375 55.625 
C 40.09375 61.78125 35.09375 65.296875 28.203125 65.296875 
C 16.296875 65.296875 3.796875 52.96875 3.796875 31 
C 3.796875 3.953125 15.09375 -2 23.09375 -2 
C 32.796875 -2 42 6.671875 42 20.046875 
C 42 32.515625 33.90625 41.59375 23.703125 41.59375 
C 17.59375 41.59375 13.09375 37.609375 10.59375 30.625 
z
M 23.09375 0.390625 
C 10.796875 0.390625 10.796875 18.75 10.796875 22.4375 
C 10.796875 29.625 14.203125 40 23.5 40 
C 25.203125 40 30.09375 40 33.40625 33.125 
C 35.203125 29.21875 35.203125 25.140625 35.203125 20.140625 
C 35.203125 14.75 35.203125 10.78125 33.09375 6.78125 
C 30.90625 2.671875 27.703125 0.390625 23.09375 0.390625 
z
" id="CMR17-54"/>
       </defs>
       <use transform="scale(0.996264)" xlink:href="#CMR17-54"/>
      </g>
     </g>
    </g>
    <g id="text_15">
     <!-- $\mu/V$ -->
     <g transform="translate(11.07198 73.177302)rotate(-90)scale(0.1 -0.1)">
      <defs>
       <path d="M 14.40625 2.1875 
C 16.90625 -0.09375 20.59375 -1 24 -1 
C 30.40625 -1 34.796875 3.25 37.09375 6.328125 
C 38.09375 1.078125 42.296875 -1 45.796875 -1 
C 48.796875 -1 51.203125 0.78125 53 4.328125 
C 54.59375 7.703125 56 13.734375 56 14.109375 
C 56 14.609375 55.59375 15 55 15 
C 54.09375 15 54 14.5 53.59375 13.03125 
C 52.09375 7.203125 50.203125 1 46.09375 1 
C 43.203125 1 43 3.578125 43 5.59375 
C 43 7.875 43.90625 11.484375 44.59375 14.46875 
L 47.40625 25.234375 
C 47.796875 27.140625 48.90625 31.609375 49.40625 33.421875 
C 50 35.8125 51.09375 40.109375 51.09375 40.5 
C 51.09375 42 49.90625 43 48.40625 43 
C 47.5 43 45.40625 42.59375 44.59375 39.609375 
L 37.59375 11.875 
C 37.09375 9.875 37.09375 9.671875 35.796875 8.078125 
C 34.59375 6.390625 30.703125 1 24.40625 1 
C 18.796875 1 17 5.09375 17 9.765625 
C 17 12.671875 17.90625 16.15625 18.296875 17.859375 
L 22.796875 35.828125 
C 23.296875 37.71875 24.09375 40.90625 24.09375 41.515625 
C 24.09375 43.109375 22.796875 44 21.5 44 
C 20.59375 44 18.40625 43.703125 17.59375 40.5 
L 3.09375 -17.296875 
C 3 -17.796875 2.796875 -18.390625 2.796875 -19 
C 2.796875 -20.5 4 -21.5 5.5 -21.5 
C 8.40625 -21.5 9 -19.1875 9.703125 -16.40625 
z
" id="CMMI12-22"/>
      </defs>
      <use transform="scale(0.996264)" xlink:href="#CMMI12-22"/>
      <use transform="translate(58.691421 0)scale(0.996264)" xlink:href="#CMMI12-61"/>
      <use transform="translate(107.46634 0)scale(0.996264)" xlink:href="#CMMI12-86"/>
     </g>
    </g>
   </g>
   <g id="line2d_14">
    <path clip-path="url(#pd7a1e26e88)" d="M 210.42915 93.369072 
L 210.42915 92.892577 
L 210.42915 92.416082 
L 210.42915 91.939588 
L 210.42915 91.463093 
L 210.42915 90.986598 
L 210.42915 90.510103 
L 210.42915 90.033608 
L 210.42915 89.557113 
L 210.42915 89.080618 
L 210.42915 88.604124 
L 210.42915 88.127629 
L 210.42915 87.651134 
L 210.42915 87.174639 
L 210.42915 86.698144 
L 210.42915 86.221649 
L 210.42915 85.745155 
L 210.42915 85.26866 
L 210.42915 84.792165 
L 210.42915 84.31567 
L 210.42915 83.839175 
L 210.42915 83.36268 
L 210.42915 82.886186 
L 210.42915 82.409691 
L 210.42915 81.933196 
L 210.42915 81.456701 
L 210.42915 80.980206 
L 210.42915 80.503711 
L 210.42915 80.027216 
L 210.42915 79.550722 
L 210.42915 79.074227 
L 210.42915 78.597732 
L 210.42915 78.121237 
L 210.42915 77.644742 
L 210.42915 77.168247 
L 210.42915 76.691753 
L 210.42915 76.215258 
L 210.42915 75.738763 
L 210.42915 75.262268 
L 210.42915 74.785773 
L 210.42915 74.309278 
L 210.42915 73.832783 
L 210.42915 73.356289 
L 210.42915 72.879794 
L 210.42915 72.403299 
L 210.42915 71.926804 
L 210.42915 71.450309 
L 210.42915 70.973814 
L 210.42915 70.49732 
L 210.42915 70.020825 
L 210.42915 69.54433 
L 210.42915 69.067835 
L 210.42915 68.59134 
L 210.42915 68.114845 
L 210.42915 67.63835 
L 210.42915 67.161856 
L 210.42915 66.685361 
L 210.42915 66.208866 
L 210.42915 65.732371 
L 210.42915 65.255876 
L 210.42915 64.779381 
" style="fill:none;stroke:#000000;stroke-dasharray:0.8,1.32;stroke-dashoffset:0;stroke-width:0.8;"/>
   </g>
   <g id="line2d_15">
    <path clip-path="url(#pd7a1e26e88)" d="M 210.502203 93.369072 
L 209.406409 92.892577 
L 208.310615 92.416082 
L 207.141768 91.939588 
L 205.899868 91.463093 
L 204.657968 90.986598 
L 203.269963 90.510103 
L 201.881957 90.033608 
L 200.420898 89.557113 
L 198.95984 89.080618 
L 197.352675 88.604124 
L 195.745511 88.127629 
L 193.99224 87.651134 
L 192.23897 87.174639 
L 190.4857 86.698144 
L 188.586324 86.221649 
L 186.686947 85.745155 
L 184.641465 85.26866 
L 182.595983 84.792165 
L 180.477448 84.31567 
L 178.358913 83.839175 
L 176.094272 83.36268 
L 173.829632 82.886186 
L 171.418885 82.409691 
L 169.008138 81.933196 
L 166.524338 81.456701 
L 163.967486 80.980206 
L 161.410633 80.503711 
L 158.707675 80.027216 
L 155.931664 79.550722 
L 153.155652 79.074227 
L 150.233535 78.597732 
L 147.311418 78.121237 
L 144.316248 77.644742 
L 141.174972 77.168247 
L 138.033695 76.691753 
L 134.819367 76.215258 
L 131.458932 75.738763 
L 128.098497 75.262268 
L 124.591956 74.785773 
L 121.012363 74.309278 
L 117.432769 73.832783 
L 113.70707 73.356289 
L 109.835264 72.879794 
L 105.963459 72.403299 
L 101.945548 71.926804 
L 97.854584 71.450309 
L 93.690567 70.973814 
L 89.380444 70.49732 
L 84.997268 70.020825 
L 80.467986 69.54433 
L 75.792598 69.067835 
L 71.044158 68.59134 
L 66.149612 68.114845 
L 61.182012 67.63835 
L 55.995254 67.161856 
L 50.735443 66.685361 
L 45.256473 66.208866 
L 39.631398 65.732371 
L 33.787163 65.255876 
L 27.869876 64.779381 
" style="fill:none;stroke:#000000;stroke-dasharray:2.96,1.28;stroke-dashoffset:0;stroke-width:0.8;"/>
   </g>
   <g id="line2d_16">
    <path clip-path="url(#pd7a1e26e88)" d="M 27.796823 121.958763 
L 65.177357 121.482268 
L 79.914652 121.005773 
L 90.882767 120.529278 
L 99.882455 120.052783 
L 107.613229 119.576289 
L 114.434835 119.099794 
L 120.561496 118.623299 
L 126.133183 118.146804 
L 131.24733 117.670309 
L 135.975055 117.193814 
L 140.370181 116.71732 
L 144.474587 116.240825 
L 148.321681 115.76433 
L 151.938585 115.287835 
L 155.347719 114.81134 
L 158.567818 114.334845 
L 161.614789 113.85835 
L 164.502248 113.381856 
L 167.241965 112.905361 
L 169.844175 112.428866 
L 172.317893 111.952371 
L 174.671054 111.475876 
L 176.910734 110.999381 
L 179.043223 110.522887 
L 181.074209 110.046392 
L 183.008776 109.569897 
L 184.851575 109.093402 
L 186.606787 108.616907 
L 188.278243 108.140412 
L 189.869457 107.663917 
L 191.383654 107.187423 
L 192.8238 106.710928 
L 194.19257 106.234433 
L 195.492537 105.757938 
L 196.726031 105.281443 
L 197.895217 104.804948 
L 199.002113 104.328454 
L 200.048622 103.851959 
L 201.03643 103.375464 
L 201.967266 102.898969 
L 202.84261 102.422474 
L 203.663889 101.945979 
L 204.432543 101.469484 
L 205.149711 100.99299 
L 205.816709 100.516495 
L 206.434551 100.04 
L 207.00443 99.563505 
L 207.527182 99.08701 
L 208.0039 98.610515 
L 208.435355 98.134021 
L 208.822639 97.657526 
L 209.166004 97.181031 
L 209.4668 96.704536 
L 209.725217 96.228041 
L 209.942287 95.751546 
L 210.118624 95.275051 
L 210.253908 94.798557 
L 210.351684 94.322062 
L 210.391715 93.845567 
L 210.42915 93.369072 
" style="fill:none;stroke:#000000;stroke-linecap:square;stroke-width:0.8;"/>
   </g>
   <g id="line2d_17">
    <path clip-path="url(#pd7a1e26e88)" d="M 210.42915 36.189691 
L 210.42915 36.666186 
L 210.42915 37.14268 
L 210.42915 37.619175 
L 210.42915 38.09567 
L 210.42915 38.572165 
L 210.42915 39.04866 
L 210.42915 39.525155 
L 210.42915 40.001649 
L 210.42915 40.478144 
L 210.42915 40.954639 
L 210.42915 41.431134 
L 210.42915 41.907629 
L 210.42915 42.384124 
L 210.42915 42.860619 
L 210.42915 43.337113 
L 210.42915 43.813608 
L 210.42915 44.290103 
L 210.42915 44.766598 
L 210.42915 45.243093 
L 210.42915 45.719588 
L 210.42915 46.196082 
L 210.42915 46.672577 
L 210.42915 47.149072 
L 210.42915 47.625567 
L 210.42915 48.102062 
L 210.42915 48.578557 
L 210.42915 49.055052 
L 210.42915 49.531546 
L 210.42915 50.008041 
L 210.42915 50.484536 
L 210.42915 50.961031 
L 210.42915 51.437526 
L 210.42915 51.914021 
L 210.42915 52.390515 
L 210.42915 52.86701 
L 210.42915 53.343505 
L 210.42915 53.82 
L 210.42915 54.296495 
L 210.42915 54.77299 
L 210.42915 55.249484 
L 210.42915 55.725979 
L 210.42915 56.202474 
L 210.42915 56.678969 
L 210.42915 57.155464 
L 210.42915 57.631959 
L 210.42915 58.108454 
L 210.42915 58.584948 
L 210.42915 59.061443 
L 210.42915 59.537938 
L 210.42915 60.014433 
L 210.42915 60.490928 
L 210.42915 60.967423 
L 210.42915 61.443917 
L 210.42915 61.920412 
L 210.42915 62.396907 
L 210.42915 62.873402 
L 210.42915 63.349897 
L 210.42915 63.826392 
L 210.42915 64.302887 
L 210.42915 64.779381 
" style="fill:none;stroke:#000000;stroke-dasharray:0.8,1.32;stroke-dashoffset:0;stroke-width:0.8;"/>
   </g>
   <g id="line2d_18">
    <path clip-path="url(#pd7a1e26e88)" d="M 210.502203 36.189691 
L 209.406409 36.666186 
L 208.310615 37.14268 
L 207.141768 37.619175 
L 205.899868 38.09567 
L 204.657968 38.572165 
L 203.269963 39.04866 
L 201.881957 39.525155 
L 200.420898 40.001649 
L 198.95984 40.478144 
L 197.352675 40.954639 
L 195.745511 41.431134 
L 193.99224 41.907629 
L 192.23897 42.384124 
L 190.4857 42.860619 
L 188.586324 43.337113 
L 186.686947 43.813608 
L 184.641465 44.290103 
L 182.595983 44.766598 
L 180.477448 45.243093 
L 178.358913 45.719588 
L 176.094272 46.196082 
L 173.829632 46.672577 
L 171.418885 47.149072 
L 169.008138 47.625567 
L 166.524338 48.102062 
L 163.967486 48.578557 
L 161.410633 49.055052 
L 158.707675 49.531546 
L 155.931664 50.008041 
L 153.155652 50.484536 
L 150.233535 50.961031 
L 147.311418 51.437526 
L 144.316248 51.914021 
L 141.174972 52.390515 
L 138.033695 52.86701 
L 134.819367 53.343505 
L 131.458932 53.82 
L 128.098497 54.296495 
L 124.591956 54.77299 
L 121.012363 55.249484 
L 117.432769 55.725979 
L 113.70707 56.202474 
L 109.835264 56.678969 
L 105.963459 57.155464 
L 101.945548 57.631959 
L 97.854584 58.108454 
L 93.690567 58.584948 
L 89.380444 59.061443 
L 84.997268 59.537938 
L 80.467986 60.014433 
L 75.792598 60.490928 
L 71.044158 60.967423 
L 66.149612 61.443917 
L 61.182012 61.920412 
L 55.995254 62.396907 
L 50.735443 62.873402 
L 45.256473 63.349897 
L 39.631398 63.826392 
L 33.787163 64.302887 
L 27.869876 64.779381 
" style="fill:none;stroke:#000000;stroke-dasharray:2.96,1.28;stroke-dashoffset:0;stroke-width:0.8;"/>
   </g>
   <g id="line2d_19">
    <path clip-path="url(#pd7a1e26e88)" d="M 27.796823 7.6 
L 65.177357 8.076495 
L 79.914652 8.55299 
L 90.882767 9.029485 
L 99.882455 9.505979 
L 107.613229 9.982474 
L 114.434835 10.458969 
L 120.561496 10.935464 
L 126.133183 11.411959 
L 131.24733 11.888454 
L 135.975055 12.364948 
L 140.370181 12.841443 
L 144.474587 13.317938 
L 148.321681 13.794433 
L 151.938585 14.270928 
L 155.347719 14.747423 
L 158.567818 15.223918 
L 161.614789 15.700412 
L 164.502248 16.176907 
L 167.241965 16.653402 
L 169.844175 17.129897 
L 172.317893 17.606392 
L 174.671054 18.082887 
L 176.910734 18.559381 
L 179.043223 19.035876 
L 181.074209 19.512371 
L 183.008776 19.988866 
L 184.851575 20.465361 
L 186.606787 20.941856 
L 188.278243 21.418351 
L 189.869457 21.894845 
L 191.383654 22.37134 
L 192.8238 22.847835 
L 194.19257 23.32433 
L 195.492537 23.800825 
L 196.726031 24.27732 
L 197.895217 24.753814 
L 199.002113 25.230309 
L 200.048622 25.706804 
L 201.03643 26.183299 
L 201.967266 26.659794 
L 202.84261 27.136289 
L 203.663889 27.612783 
L 204.432543 28.089278 
L 205.149711 28.565773 
L 205.816709 29.042268 
L 206.434551 29.518763 
L 207.00443 29.995258 
L 207.527182 30.471753 
L 208.0039 30.948247 
L 208.435355 31.424742 
L 208.822639 31.901237 
L 209.166004 32.377732 
L 209.4668 32.854227 
L 209.725217 33.330722 
L 209.942287 33.807216 
L 210.118624 34.283711 
L 210.253908 34.760206 
L 210.351684 35.236701 
L 210.391715 35.713196 
L 210.42915 36.189691 
" style="fill:none;stroke:#000000;stroke-linecap:square;stroke-width:0.8;"/>
   </g>
   <g id="patch_3">
    <path d="M 27.796823 121.958763 
L 27.796823 7.6 
" style="fill:none;stroke:#000000;stroke-linecap:square;stroke-linejoin:miter;"/>
   </g>
   <g id="patch_4">
    <path d="M 217.734443 121.958763 
L 217.734443 7.6 
" style="fill:none;stroke:#000000;stroke-linecap:square;stroke-linejoin:miter;"/>
   </g>
   <g id="patch_5">
    <path d="M 27.796823 121.958763 
L 217.734443 121.958763 
" style="fill:none;stroke:#000000;stroke-linecap:square;stroke-linejoin:miter;"/>
   </g>
   <g id="patch_6">
    <path d="M 27.796823 7.6 
L 217.734443 7.6 
" style="fill:none;stroke:#000000;stroke-linecap:square;stroke-linejoin:miter;"/>
   </g>
   <g id="text_16">
    <!-- SF -->
    <g transform="translate(203.123857 112.428866)scale(0.1 -0.1)">
     <defs>
      <path d="M 43.796875 67.03125 
C 43.796875 68.8125 43.703125 68.921875 43.09375 68.921875 
C 42.5 68.921875 42.296875 68.515625 41.90625 67.625 
L 38.90625 61.046875 
C 35.09375 66.515625 29.296875 69 23 69 
C 12.796875 69 4.59375 60.953125 4.59375 50.828125 
C 4.59375 47.75 5.296875 43.375 8.703125 39.21875 
C 12.40625 34.65625 15.90625 33.859375 23.90625 31.765625 
C 26.90625 30.96875 31.90625 29.671875 32.90625 29.28125 
C 38.59375 26.90625 41.59375 20.953125 41.59375 15.390625 
C 41.59375 8.234375 36.5 0.59375 27.796875 0.59375 
C 17.09375 0.59375 7.09375 6.546875 6.40625 20.484375 
C 6.296875 22.078125 6.203125 22.171875 5.5 22.171875 
C 4.703125 22.171875 4.59375 22.078125 4.59375 20.078125 
L 4.59375 -0.015625 
C 4.59375 -1.796875 4.703125 -1.90625 5.296875 -1.90625 
C 6 -1.90625 6.203125 -1.40625 7.59375 1.6875 
C 7.703125 1.984375 7.703125 2.1875 9.59375 5.953125 
C 14.59375 -0.609375 23 -2 27.796875 -2 
C 38.703125 -2 46.40625 7.046875 46.40625 17.5625 
C 46.40625 22.71875 44.5 26.6875 43.40625 28.484375 
C 39.203125 34.84375 34.703125 36.03125 29.90625 37.21875 
C 29.203125 37.53125 29 37.53125 23.40625 38.90625 
C 18 40.296875 15.703125 41 13.203125 43.6875 
C 10.40625 46.75 9.40625 49.9375 9.40625 53.109375 
C 9.40625 59.5625 14.59375 66.609375 23.09375 66.609375 
C 33.703125 66.609375 40.296875 59.15625 41.796875 46.765625 
C 42.09375 44.96875 42.203125 44.875 42.90625 44.875 
C 43.796875 44.875 43.796875 45.171875 43.796875 46.859375 
z
" id="CMR17-83"/>
      <path d="M 54.40625 67.578125 
L 5.09375 67.578125 
L 5.09375 65 
C 12 65 13.09375 65 13.09375 60.53125 
L 13.09375 6.96875 
C 13.09375 2.5 12 2.5 5.09375 2.5 
L 5.09375 0 
C 8 0 13.59375 0 16.703125 0 
C 20.796875 0 25.59375 0 29.703125 0 
L 29.703125 2.5 
L 27.5 2.5 
C 19.90625 2.5 19.703125 3.484375 19.703125 7.0625 
L 19.703125 32.421875 
L 28.703125 32.421875 
C 38 32.421875 38.90625 29.140625 38.90625 20.8125 
L 40.703125 20.8125 
L 40.703125 46.671875 
L 38.90625 46.671875 
C 38.90625 38.28125 38 35 28.703125 35 
L 19.703125 35 
L 19.703125 61.109375 
C 19.703125 64.5 19.90625 65 23.90625 65 
L 36.796875 65 
C 51.90625 65 53.59375 58.828125 55 45.5625 
L 56.796875 45.5625 
z
" id="CMR17-70"/>
     </defs>
     <use transform="scale(0.996264)" xlink:href="#CMR17-83"/>
     <use transform="translate(50.89537 0)scale(0.996264)" xlink:href="#CMR17-70"/>
    </g>
   </g>
   <g id="text_17">
    <!-- SS -->
    <g transform="translate(173.902684 64.779381)scale(0.1 -0.1)">
     <use transform="scale(0.996264)" xlink:href="#CMR17-83"/>
     <use transform="translate(50.89537 0)scale(0.996264)" xlink:href="#CMR17-83"/>
    </g>
   </g>
   <g id="text_18">
    <!-- $1/3$ Filling Insulator -->
    <g transform="translate(64.323288 93.369072)scale(0.1 -0.1)">
     <defs>
      <path d="M 15.5 61.078125 
C 15.5 63.265625 13.703125 65.15625 11.40625 65.15625 
C 9.203125 65.15625 7.296875 63.375 7.296875 61.078125 
C 7.296875 58.890625 9.09375 57 11.40625 57 
C 13.59375 57 15.5 58.796875 15.5 61.078125 
z
M 3.796875 42.28125 
L 3.796875 39.703125 
C 9.40625 39.703125 10.203125 39.09375 10.203125 34.328125 
L 10.203125 6.671875 
C 10.203125 2.875 9.796875 2.390625 3.40625 2.390625 
L 3.40625 -0.203125 
C 5.796875 0 10.09375 0 12.59375 0 
C 15 0 19.09375 0 21.40625 -0.203125 
L 21.40625 2.390625 
C 15.5 2.390625 15.296875 2.984375 15.296875 6.5625 
L 15.296875 43.375 
z
" id="CMR17-105"/>
      <path d="M 15.296875 68.6875 
L 3.40625 67.59375 
L 3.40625 65 
C 9.296875 65 10.203125 64.40625 10.203125 59.640625 
L 10.203125 6.65625 
C 10.203125 2.875 9.796875 2.390625 3.40625 2.390625 
L 3.40625 -0.203125 
C 5.796875 0 10.203125 0 12.703125 0 
C 15.296875 0 19.703125 0 22.09375 -0.203125 
L 22.09375 2.390625 
C 15.703125 2.390625 15.296875 2.78125 15.296875 6.65625 
z
" id="CMR17-108"/>
      <path d="M 41.5 30.203125 
C 41.5 35.296875 40.5 43.59375 28.703125 43.59375 
C 20.796875 43.59375 16.703125 37.5 15.203125 33.5 
L 15.09375 33.5 
L 15.09375 43.59375 
L 3.296875 42.5 
L 3.296875 39.90625 
C 9.203125 39.90625 10.09375 39.296875 10.09375 34.5 
L 10.09375 6.6875 
C 10.09375 2.875 9.703125 2.390625 3.296875 2.390625 
L 3.296875 -0.203125 
C 5.703125 0 10.09375 0 12.703125 0 
C 15.296875 0 19.796875 0 22.203125 -0.203125 
L 22.203125 2.390625 
C 15.796875 2.390625 15.40625 2.78125 15.40625 6.6875 
L 15.40625 25.90625 
C 15.40625 35.109375 21 42 28 42 
C 35.40625 42 36.203125 35.40625 36.203125 30.59375 
L 36.203125 6.6875 
C 36.203125 2.875 35.796875 2.390625 29.40625 2.390625 
L 29.40625 -0.203125 
C 31.796875 0 36.203125 0 38.796875 0 
C 41.40625 0 45.90625 0 48.296875 -0.203125 
L 48.296875 2.390625 
C 41.90625 2.390625 41.5 2.78125 41.5 6.6875 
z
" id="CMR17-110"/>
      <path d="M 11.09375 18.1875 
C 13 16.6875 16.296875 15 20.296875 15 
C 28.203125 15 35 21.203125 35 29.5 
C 35 32.09375 34.203125 36.09375 31.203125 39.203125 
C 34 42.0625 38.09375 43 40.40625 43 
C 40.796875 43 41.40625 43 41.90625 42.71875 
C 41.5 42.625 40.59375 42.234375 40.59375 40.703125 
C 40.59375 39.484375 41.5 38.609375 42.796875 38.609375 
C 44.296875 38.609375 45.09375 39.578125 45.09375 40.84375 
C 45.09375 42.671875 43.59375 44.59375 40.40625 44.59375 
C 36.40625 44.59375 32.90625 42.78125 30.09375 40.3125 
C 27.09375 43.015625 23.5 44 20.296875 44 
C 12.40625 44 5.59375 37.796875 5.59375 29.5 
C 5.59375 23.78125 8.90625 20.1875 9.90625 19.1875 
C 6.90625 15.6875 6.90625 11.609375 6.90625 11.109375 
C 6.90625 8.515625 7.90625 4.71875 11.296875 2.625 
C 6.09375 1.328125 2 -2.640625 2 -7.59375 
C 2 -14.734375 11.5 -20 22.90625 -20 
C 33.90625 -20 43.796875 -14.9375 43.796875 -7.484375 
C 43.796875 6 29 6 21.296875 6 
C 19 6 14.90625 6 14.40625 6.109375 
C 11.296875 6.609375 9.203125 9.40625 9.203125 12.90625 
C 9.203125 13.796875 9.203125 16 11.09375 18.1875 
z
M 20.296875 16.6875 
C 11.5 16.6875 11.5 27.5 11.5 29.515625 
C 11.5 31.5 11.5 42.3125 20.296875 42.3125 
C 29.09375 42.3125 29.09375 31.5 29.09375 29.515625 
C 29.09375 27.5 29.09375 16.6875 20.296875 16.6875 
z
M 22.90625 -18.296875 
C 12.90625 -18.296875 6 -13.046875 6 -7.59375 
C 6 -4.515625 7.703125 -1.640625 9.90625 -0.0625 
C 12.40625 1.625 13.40625 1.625 20.203125 1.625 
C 28.40625 1.625 39.796875 1.625 39.796875 -7.59375 
C 39.796875 -13.046875 32.90625 -18.296875 22.90625 -18.296875 
z
" id="CMR17-103"/>
      <path d="M 19.703125 61.015625 
C 19.703125 65.5 20.90625 65.5 28.09375 65.5 
L 28.09375 68 
C 24.90625 68 19.796875 68 16.40625 68 
C 13 68 7.90625 68 4.703125 68 
L 4.703125 65.5 
C 11.90625 65.5 13.09375 65.5 13.09375 61.015625 
L 13.09375 6.984375 
C 13.09375 2.5 11.90625 2.5 4.703125 2.5 
L 4.703125 0 
C 7.90625 0 13 0 16.40625 0 
C 19.796875 0 24.90625 0 28.09375 0 
L 28.09375 2.5 
C 20.90625 2.5 19.703125 2.5 19.703125 6.984375 
z
" id="CMR17-73"/>
      <path d="M 30.90625 42.140625 
C 30.90625 43.953125 30.796875 44.046875 30.203125 44.046875 
C 29.796875 44.046875 29.703125 43.953125 28.5 42.453125 
C 28.203125 42.046875 27.296875 41.03125 27 40.640625 
C 23.796875 44.046875 19.296875 44.046875 17.59375 44.046875 
C 6.5 44.046875 2.5 38.234375 2.5 32.4375 
C 2.5 23.40625 12.703125 21.328125 15.59375 20.703125 
C 21.90625 19.421875 24.09375 19.015625 26.203125 17.203125 
C 27.5 16.015625 29.703125 13.8125 29.703125 10.21875 
C 29.703125 6 27.296875 0.59375 18.09375 0.59375 
C 9.40625 0.59375 6.296875 7.1875 4.5 15.953125 
C 4.203125 17.34375 4.203125 17.453125 3.40625 17.453125 
C 2.59375 17.453125 2.5 17.34375 2.5 15.359375 
L 2.5 0.984375 
C 2.5 -0.796875 2.59375 -0.90625 3.203125 -0.90625 
C 3.703125 -0.90625 3.796875 -0.796875 4.296875 0 
C 4.90625 0.890625 6.40625 3.296875 7 4.3125 
C 9 1.609375 12.5 -1 18.09375 -1 
C 28 -1 33.296875 4.421875 33.296875 12.25 
C 33.296875 17.375 30.59375 20.078125 29.296875 21.28125 
C 26.296875 24.390625 22.796875 25.09375 18.59375 25.890625 
C 13.09375 27.109375 6.09375 28.515625 6.09375 34.640625 
C 6.09375 37.234375 7.5 42.765625 17.59375 42.765625 
C 28.296875 42.765625 28.90625 32.71875 29.09375 29.5 
C 29.203125 29 29.703125 28.890625 30 28.890625 
C 30.90625 28.890625 30.90625 29.203125 30.90625 30.90625 
z
" id="CMR17-115"/>
      <path d="M 29.40625 42.078125 
L 29.40625 39.5 
C 35.296875 39.5 36.203125 38.890625 36.203125 34.15625 
L 36.203125 16.125 
C 36.203125 7.8125 31.703125 0.59375 24.296875 0.59375 
C 16.09375 0.59375 15.40625 5.4375 15.40625 10.59375 
L 15.40625 43.171875 
L 3.296875 42.078125 
L 3.296875 39.5 
C 7.296875 39.5 10 39.5 10.09375 35.53125 
L 10.09375 16.53125 
C 10.09375 9.890625 10.09375 5.640625 12.703125 2.859375 
C 14 1.578125 16.5 -1 23.703125 -1 
C 32.203125 -1 35.5 5.890625 36.296875 7.90625 
L 36.40625 7.90625 
L 36.40625 -0.984375 
L 48.296875 -0.984375 
L 48.296875 2 
C 42.40625 2 41.5 2.59375 41.5 7.390625 
L 41.5 43.171875 
z
" id="CMR17-117"/>
      <path d="M 36 25.828125 
C 36 32.375 36 35.84375 31.796875 39.734375 
C 28.09375 43 23.796875 44 20.40625 44 
C 12.5 44 6.796875 37.609375 6.796875 30.796875 
C 6.796875 27 9.796875 27 10.40625 27 
C 11.703125 27 14 27.78125 14 30.53125 
C 14 33 12.09375 34.078125 10.40625 34.078125 
C 10 34.078125 9.5 33.96875 9.203125 33.875 
C 11.296875 40.5 16.703125 42.40625 20.203125 42.40625 
C 25.203125 42.40625 30.703125 37.953125 30.703125 29.453125 
L 30.703125 25 
C 24.796875 25 17.703125 24.203125 12.09375 21.203125 
C 5.796875 17.703125 4 12.703125 4 8.90625 
C 4 1.203125 13 -1 18.296875 -1 
C 23.796875 -1 28.90625 2.171875 31.09375 7.984375 
C 31.296875 3.640625 34.09375 -0.28125 38.5 -0.28125 
C 40.59375 -0.28125 45.90625 1.09375 45.90625 8.859375 
L 45.90625 14.375 
L 44.09375 14.375 
L 44.09375 8.78125 
C 44.09375 2.78125 41.40625 2 40.09375 2 
C 36 2 36 7.15625 36 11.53125 
z
M 30.703125 13.59375 
C 30.703125 4.953125 24.5 0.59375 19 0.59375 
C 14 0.59375 10.09375 4.296875 10.09375 8.90625 
C 10.09375 11.890625 11.40625 17.1875 17.203125 20.390625 
C 22 23.09375 27.5 23.5 30.703125 23.5 
z
" id="CMR17-97"/>
      <path d="M 15.09375 40 
L 29.09375 40 
L 29.09375 42.578125 
L 15.09375 42.578125 
L 15.09375 61 
L 13.296875 61 
C 13.09375 50.703125 9.59375 41.6875 1.09375 41.6875 
L 1.09375 40 
L 9.796875 40 
L 9.796875 12.046875 
C 9.796875 10.15625 9.796875 -1 21.40625 -1 
C 27.296875 -1 30.703125 4.78125 30.703125 12.140625 
L 30.703125 17.8125 
L 28.90625 17.8125 
L 28.90625 12.234375 
C 28.90625 5.375 26.203125 0.796875 22 0.796875 
C 19.09375 0.796875 15.09375 2.78125 15.09375 11.84375 
z
" id="CMR17-116"/>
      <path d="M 43.09375 21.1875 
C 43.09375 34 33.796875 44 22.90625 44 
C 12 44 2.703125 34 2.703125 21.1875 
C 2.703125 8.609375 12 -1 22.90625 -1 
C 33.796875 -1 43.09375 8.609375 43.09375 21.1875 
z
M 22.90625 0.796875 
C 18.203125 0.796875 14.203125 3.59375 11.90625 7.5 
C 9.40625 11.984375 9.09375 17.59375 9.09375 22 
C 9.09375 26.203125 9.296875 31.40625 11.90625 35.90625 
C 13.90625 39.203125 17.796875 42.40625 22.90625 42.40625 
C 27.40625 42.40625 31.203125 39.90625 33.59375 36.40625 
C 36.703125 31.703125 36.703125 25.109375 36.703125 22 
C 36.703125 18.09375 36.5 12.109375 33.796875 7.296875 
C 31 2.703125 26.703125 0.796875 22.90625 0.796875 
z
" id="CMR17-111"/>
      <path d="M 15 23.390625 
C 15 33 19.09375 42 26.59375 42 
C 27.296875 42 28 41.90625 28.703125 41.59375 
C 28.703125 41.59375 26.5 40.890625 26.5 38.3125 
C 26.5 35.90625 28.40625 34.90625 29.90625 34.90625 
C 31.09375 34.90625 33.296875 35.609375 33.296875 38.40625 
C 33.296875 41.609375 30.09375 43.59375 26.703125 43.59375 
C 19.09375 43.59375 15.796875 36.203125 14.796875 32.703125 
L 14.703125 32.703125 
L 14.703125 43.59375 
L 3.09375 42.5 
L 3.09375 39.90625 
C 9 39.90625 9.90625 39.296875 9.90625 34.5 
L 9.90625 6.6875 
C 9.90625 2.875 9.5 2.390625 3.09375 2.390625 
L 3.09375 -0.203125 
C 5.5 0 10.09375 0 12.703125 0 
C 15.59375 0 20.703125 0 23.40625 -0.203125 
L 23.40625 2.390625 
C 16.203125 2.390625 15 2.390625 15 6.875 
z
" id="CMR17-114"/>
     </defs>
     <use transform="scale(0.996264)" xlink:href="#CMR17-49"/>
     <use transform="translate(45.690477 0)scale(0.996264)" xlink:href="#CMMI12-61"/>
     <use transform="translate(94.465396 0)scale(0.996264)" xlink:href="#CMR17-51"/>
     <use transform="translate(170.231839 0)scale(0.996264)" xlink:href="#CMR17-70"/>
     <use transform="translate(230.215686 0)scale(0.996264)" xlink:href="#CMR17-105"/>
     <use transform="translate(255.086744 0)scale(0.996264)" xlink:href="#CMR17-108"/>
     <use transform="translate(279.957803 0)scale(0.996264)" xlink:href="#CMR17-108"/>
     <use transform="translate(304.828861 0)scale(0.996264)" xlink:href="#CMR17-105"/>
     <use transform="translate(329.69992 0)scale(0.996264)" xlink:href="#CMR17-110"/>
     <use transform="translate(380.59529 0)scale(0.996264)" xlink:href="#CMR17-103"/>
     <use transform="translate(456.361733 0)scale(0.996264)" xlink:href="#CMR17-73"/>
     <use transform="translate(489.000142 0)scale(0.996264)" xlink:href="#CMR17-110"/>
     <use transform="translate(539.895512 0)scale(0.996264)" xlink:href="#CMR17-115"/>
     <use transform="translate(575.69685 0)scale(0.996264)" xlink:href="#CMR17-117"/>
     <use transform="translate(626.592219 0)scale(0.996264)" xlink:href="#CMR17-108"/>
     <use transform="translate(651.463278 0)scale(0.996264)" xlink:href="#CMR17-97"/>
     <use transform="translate(697.153755 0)scale(0.996264)" xlink:href="#CMR17-116"/>
     <use transform="translate(732.434523 0)scale(0.996264)" xlink:href="#CMR17-111"/>
     <use transform="translate(778.125 0)scale(0.996264)" xlink:href="#CMR17-114"/>
    </g>
   </g>
   <g id="text_19">
    <!-- $2/3$ Filling Insulator -->
    <g transform="translate(64.323288 36.189691)scale(0.1 -0.1)">
     <use transform="scale(0.996264)" xlink:href="#CMR17-50"/>
     <use transform="translate(45.690477 0)scale(0.996264)" xlink:href="#CMMI12-61"/>
     <use transform="translate(94.465396 0)scale(0.996264)" xlink:href="#CMR17-51"/>
     <use transform="translate(170.231839 0)scale(0.996264)" xlink:href="#CMR17-70"/>
     <use transform="translate(230.215686 0)scale(0.996264)" xlink:href="#CMR17-105"/>
     <use transform="translate(255.086744 0)scale(0.996264)" xlink:href="#CMR17-108"/>
     <use transform="translate(279.957803 0)scale(0.996264)" xlink:href="#CMR17-108"/>
     <use transform="translate(304.828861 0)scale(0.996264)" xlink:href="#CMR17-105"/>
     <use transform="translate(329.69992 0)scale(0.996264)" xlink:href="#CMR17-110"/>
     <use transform="translate(380.59529 0)scale(0.996264)" xlink:href="#CMR17-103"/>
     <use transform="translate(456.361733 0)scale(0.996264)" xlink:href="#CMR17-73"/>
     <use transform="translate(489.000142 0)scale(0.996264)" xlink:href="#CMR17-110"/>
     <use transform="translate(539.895512 0)scale(0.996264)" xlink:href="#CMR17-115"/>
     <use transform="translate(575.69685 0)scale(0.996264)" xlink:href="#CMR17-117"/>
     <use transform="translate(626.592219 0)scale(0.996264)" xlink:href="#CMR17-108"/>
     <use transform="translate(651.463278 0)scale(0.996264)" xlink:href="#CMR17-97"/>
     <use transform="translate(697.153755 0)scale(0.996264)" xlink:href="#CMR17-116"/>
     <use transform="translate(732.434523 0)scale(0.996264)" xlink:href="#CMR17-111"/>
     <use transform="translate(778.125 0)scale(0.996264)" xlink:href="#CMR17-114"/>
    </g>
   </g>
  </g>
 </g>
 <defs>
  <clipPath id="pd7a1e26e88">
   <rect height="114.358763" width="189.93762" x="27.796823" y="7.6"/>
  </clipPath>
 </defs>
</svg>
