<?xml version="1.0" encoding="utf-8" standalone="no"?>
<!DOCTYPE svg PUBLIC "-//W3C//DTD SVG 1.1//EN"
  "http://www.w3.org/Graphics/SVG/1.1/DTD/svg11.dtd">
<!-- Created with matplotlib (https://matplotlib.org/) -->
<svg height="136.64331pt" version="1.1" viewBox="0 0 239.033605 136.64331" width="239.033605pt" xmlns="http://www.w3.org/2000/svg" xmlns:xlink="http://www.w3.org/1999/xlink">
 <metadata>
  <rdf:RDF xmlns:cc="http://creativecommons.org/ns#" xmlns:dc="http://purl.org/dc/elements/1.1/" xmlns:rdf="http://www.w3.org/1999/02/22-rdf-syntax-ns#">
   <cc:Work>
    <dc:type rdf:resource="http://purl.org/dc/dcmitype/StillImage"/>
    <dc:date>2020-08-23T21:30:55.602456</dc:date>
    <dc:format>image/svg+xml</dc:format>
    <dc:creator>
     <cc:Agent>
      <dc:title>Matplotlib v3.3.1, https://matplotlib.org/</dc:title>
     </cc:Agent>
    </dc:creator>
   </cc:Work>
  </rdf:RDF>
 </metadata>
 <defs>
  <style type="text/css">*{stroke-linecap:butt;stroke-linejoin:round;}</style>
 </defs>
 <g id="figure_1">
  <g id="patch_1">
   <path d="M -0 136.64331 
L 239.033605 136.64331 
L 239.033605 0 
L -0 0 
z
" style="fill:none;"/>
  </g>
  <g id="axes_1">
   <g id="patch_2">
    <path d="M 42.851695 117.958763 
L 232.789315 117.958763 
L 232.789315 3.6 
L 42.851695 3.6 
z
" style="fill:#ffffff;"/>
   </g>
   <g id="matplotlib.axis_1">
    <g id="xtick_1">
     <g id="text_1">
      <!-- $\Gamma$ -->
      <g transform="translate(40.207406 131.493565)scale(0.08 -0.08)">
       <defs>
        <path d="M 51.796875 68 
L 5.09375 68 
L 5.09375 65.40625 
C 12 65.40625 13.09375 65.40625 13.09375 60.90625 
L 13.09375 7 
C 13.09375 2.5 12 2.5 5.09375 2.5 
L 5.09375 0 
C 8 0 13.59375 0 16.703125 0 
C 20.796875 0 25.59375 0 29.703125 0 
L 29.703125 2.5 
L 27.5 2.5 
C 19.90625 2.5 19.703125 3.5 19.703125 7.109375 
L 19.703125 61.5 
C 19.703125 64.90625 19.90625 65.40625 23.90625 65.40625 
L 34.90625 65.40625 
C 50.09375 65.40625 50.90625 58.40625 52.40625 45.90625 
L 54.203125 45.90625 
z
" id="CMR17-0"/>
       </defs>
       <use transform="scale(0.996264)" xlink:href="#CMR17-0"/>
      </g>
     </g>
    </g>
    <g id="xtick_2">
     <g id="text_2">
      <!-- $M$ -->
      <g transform="translate(124.467811 131.493565)scale(0.08 -0.08)">
       <defs>
        <path d="M 90.796875 60.71875 
C 91.703125 64.109375 91.90625 65.109375 99 65.109375 
C 100.90625 65.109375 101.796875 65.109375 101.796875 67 
C 101.796875 68 101.09375 68 99.203125 68 
L 87.203125 68 
C 84.703125 68 84.59375 67.90625 83.5 66.296875 
L 47 8.78125 
L 39.5 65.796875 
C 39.203125 68 39.09375 68 36.5 68 
L 24.09375 68 
C 22.203125 68 21.296875 68 21.296875 66.109375 
C 21.296875 65.109375 22.203125 65.109375 23.703125 65.109375 
C 29.796875 65.109375 29.796875 64.3125 29.796875 63.21875 
C 29.796875 63.03125 29.796875 62.421875 29.40625 60.921875 
L 16.59375 9.90625 
C 15.40625 5.109375 13.09375 2.90625 6.40625 2.90625 
C 6.09375 2.90625 4.90625 2.90625 4.90625 1.140625 
C 4.90625 0 5.796875 0 6.203125 0 
C 8.203125 0 13.296875 0 15.296875 0 
L 20.09375 0 
C 21.5 0 23.203125 0 24.59375 0 
C 25.296875 0 26.40625 0 26.40625 1.90625 
C 26.40625 2.8125 25.40625 2.90625 25 2.90625 
C 21.703125 2.90625 18.5 3.5 18.5 7.09375 
C 18.5 8.09375 18.5 8.1875 18.90625 9.578125 
L 32.703125 64.515625 
L 32.796875 64.515625 
L 41.09375 2.6875 
C 41.40625 0.296875 41.5 0 42.40625 0 
C 43.5 0 44 0.796875 44.5 1.703125 
L 84.703125 65.015625 
L 84.796875 65.015625 
L 70.296875 7.390625 
C 69.40625 3.90625 69.203125 2.90625 62.203125 2.90625 
C 60.296875 2.90625 59.296875 2.90625 59.296875 1.09375 
C 59.296875 0 60.203125 0 60.796875 0 
C 62.5 0 64.5 0 66.203125 0 
L 78 0 
C 79.703125 0 81.796875 0 83.5 0 
C 84.296875 0 85.40625 0 85.40625 1.90625 
C 85.40625 2.90625 84.5 2.90625 83 2.90625 
C 76.90625 2.90625 76.90625 3.65625 76.90625 4.59375 
C 76.90625 4.703125 76.90625 5.390625 77.09375 6.1875 
z
" id="CMMI12-77"/>
       </defs>
       <use transform="scale(0.996264)" xlink:href="#CMMI12-77"/>
      </g>
     </g>
    </g>
    <g id="xtick_3">
     <g id="text_3">
      <!-- $K$ -->
      <g transform="translate(165.354652 131.493565)scale(0.08 -0.08)">
       <defs>
        <path d="M 50 40.171875 
C 49.90625 40.46875 49.5 41.265625 49.5 41.578125 
C 49.5 41.671875 49.59375 41.765625 51.296875 43.0625 
L 61 50.65625 
C 74.40625 61.015625 78.796875 64.5 85.703125 65.109375 
C 86.40625 65.109375 87.40625 65.109375 87.40625 66.90625 
C 87.40625 67.5 87.09375 68 86.296875 68 
C 85.203125 68 84 68 82.90625 68 
L 79.09375 68 
C 76 68 72.703125 68 69.703125 68 
C 69 68 67.796875 68 67.796875 66.203125 
C 67.796875 65.203125 68.5 65.109375 69.09375 65.109375 
C 70.203125 65 71.5 64.609375 71.5 63.21875 
C 71.5 61.234375 68.5 58.828125 67.703125 58.234375 
L 28.5 27.875 
L 36.796875 60.734375 
C 37.703125 64.109375 37.90625 65.109375 45 65.109375 
C 46.90625 65.109375 47.796875 65.109375 47.796875 67 
C 47.796875 68 46.796875 68 46.296875 68 
C 44.5 68 42.40625 68 40.5 68 
L 28.703125 68 
C 26.90625 68 24.703125 68 22.90625 68 
C 22.09375 68 21 68 21 66.109375 
C 21 65.109375 21.90625 65.109375 23.40625 65.109375 
C 29.5 65.109375 29.5 64.3125 29.5 63.21875 
C 29.5 63.03125 29.5 62.421875 29.09375 60.921875 
L 15.59375 7.375 
C 14.703125 3.890625 14.5 2.890625 7.5 2.890625 
C 5.59375 2.890625 4.59375 2.890625 4.59375 1.09375 
C 4.59375 0 5.5 0 6.09375 0 
C 8 0 10 0 11.90625 0 
L 23.59375 0 
C 25.5 0 27.59375 0 29.5 0 
C 30.296875 0 31.40625 0 31.40625 1.890625 
C 31.40625 2.890625 30.5 2.890625 29 2.890625 
C 22.90625 2.890625 22.90625 3.6875 22.90625 4.6875 
C 22.90625 5.390625 23.5 7.875 23.90625 9.46875 
L 27.796875 24.890625 
L 43 36.734375 
C 45.90625 30.359375 51.203125 17.625 55.296875 7.890625 
C 55.59375 7.28125 55.796875 6.6875 55.796875 5.984375 
C 55.796875 2.890625 51.796875 2.890625 50.90625 2.890625 
C 50 2.890625 49 2.890625 49 1 
C 49 0 50.09375 0 50.40625 0 
C 53.90625 0 57.59375 0 61.09375 0 
L 65.90625 0 
C 67.40625 0 69.09375 0 70.59375 0 
C 71.203125 0 72.296875 0 72.296875 1.890625 
C 72.296875 2.890625 71.40625 2.890625 70.40625 2.890625 
C 66.703125 2.890625 65.40625 3.6875 63.90625 7.28125 
z
" id="CMMI12-75"/>
       </defs>
       <use transform="scale(0.996264)" xlink:href="#CMMI12-75"/>
      </g>
     </g>
    </g>
    <g id="xtick_4">
     <g id="text_4">
      <!-- $\Gamma$ -->
      <g transform="translate(230.145026 131.493565)scale(0.08 -0.08)">
       <use transform="scale(0.996264)" xlink:href="#CMR17-0"/>
      </g>
     </g>
    </g>
   </g>
   <g id="matplotlib.axis_2">
    <g id="ytick_1">
     <g id="line2d_1">
      <defs>
       <path d="M 0 0 
L -4 0 
" id="m6689c58e47" style="stroke:#000000;stroke-width:0.5;"/>
      </defs>
      <g>
       <use style="stroke:#000000;stroke-width:0.5;" x="42.851695" xlink:href="#m6689c58e47" y="99.340829"/>
      </g>
     </g>
     <g id="text_5">
      <!-- $\mathdefault{−160}$ -->
      <g transform="translate(15.56264 102.10823)scale(0.08 -0.08)">
       <defs>
        <path d="M 65.90625 23 
C 67.59375 23 69.40625 23 69.40625 25 
C 69.40625 27 67.59375 27 65.90625 27 
L 11.796875 27 
C 10.09375 27 8.296875 27 8.296875 25 
C 8.296875 23 10.09375 23 11.796875 23 
z
" id="CMSY10-0"/>
        <path d="M 26.59375 63.40625 
C 26.59375 65.5 26.5 65.5 25.09375 65.5 
C 21.203125 61.1875 15.296875 59.796875 9.703125 59.796875 
C 9.40625 59.796875 8.90625 59.796875 8.796875 59.5 
C 8.703125 59.296875 8.703125 59.09375 8.703125 57 
C 11.796875 57 17 57.59375 21 59.984375 
L 21 7.203125 
C 21 3.6875 20.796875 2.5 12.203125 2.5 
L 9.203125 2.5 
L 9.203125 0 
C 14 0 19 0 23.796875 0 
C 28.59375 0 33.59375 0 38.40625 0 
L 38.40625 2.5 
L 35.40625 2.5 
C 26.796875 2.5 26.59375 3.59375 26.59375 7.15625 
z
" id="CMR17-49"/>
        <path d="M 10.59375 34 
C 10.59375 57.65625 21.796875 63 28.296875 63 
C 30.40625 63 35.5 62.640625 37.5 59 
C 35.90625 59 32.90625 59 32.90625 55.515625 
C 32.90625 52.828125 35.09375 51.921875 36.5 51.921875 
C 37.40625 51.921875 40.09375 52.3125 40.09375 55.625 
C 40.09375 61.78125 35.09375 65.296875 28.203125 65.296875 
C 16.296875 65.296875 3.796875 52.96875 3.796875 31 
C 3.796875 3.953125 15.09375 -2 23.09375 -2 
C 32.796875 -2 42 6.671875 42 20.046875 
C 42 32.515625 33.90625 41.59375 23.703125 41.59375 
C 17.59375 41.59375 13.09375 37.609375 10.59375 30.625 
z
M 23.09375 0.390625 
C 10.796875 0.390625 10.796875 18.75 10.796875 22.4375 
C 10.796875 29.625 14.203125 40 23.5 40 
C 25.203125 40 30.09375 40 33.40625 33.125 
C 35.203125 29.21875 35.203125 25.140625 35.203125 20.140625 
C 35.203125 14.75 35.203125 10.78125 33.09375 6.78125 
C 30.90625 2.671875 27.703125 0.390625 23.09375 0.390625 
z
" id="CMR17-54"/>
        <path d="M 42 31.640625 
C 42 37.75 41.90625 48.125 37.703125 56.109375 
C 34 63.109375 28.09375 65.59375 22.90625 65.59375 
C 18.09375 65.59375 12 63.40625 8.203125 56.203125 
C 4.203125 48.71875 3.796875 39.4375 3.796875 31.640625 
C 3.796875 25.953125 3.90625 17.28125 7 9.671875 
C 11.296875 -0.609375 19 -2 22.90625 -2 
C 27.5 -2 34.5 -0.109375 38.59375 9.375 
C 41.59375 16.28125 42 24.359375 42 31.640625 
z
M 22.90625 -0.40625 
C 16.5 -0.40625 12.703125 5.078125 11.296875 12.6875 
C 10.203125 18.5625 10.203125 27.15625 10.203125 32.75 
C 10.203125 40.4375 10.203125 46.828125 11.5 52.921875 
C 13.40625 61.390625 19 64 22.90625 64 
C 27 64 32.296875 61.296875 34.203125 53.125 
C 35.5 47.4375 35.59375 40.734375 35.59375 32.75 
C 35.59375 26.25 35.59375 18.265625 34.40625 12.375 
C 32.296875 1.484375 26.40625 -0.40625 22.90625 -0.40625 
z
" id="CMR17-48"/>
       </defs>
       <use transform="scale(0.996264)" xlink:href="#CMSY10-0"/>
       <use transform="translate(77.487468 0)scale(0.996264)" xlink:href="#CMR17-49"/>
       <use transform="translate(123.177945 0)scale(0.996264)" xlink:href="#CMR17-54"/>
       <use transform="translate(168.868422 0)scale(0.996264)" xlink:href="#CMR17-48"/>
      </g>
     </g>
    </g>
    <g id="ytick_2">
     <g id="line2d_2">
      <g>
       <use style="stroke:#000000;stroke-width:0.5;" x="42.851695" xlink:href="#m6689c58e47" y="70.35593"/>
      </g>
     </g>
     <g id="text_6">
      <!-- $\mathdefault{−140}$ -->
      <g transform="translate(15.56264 73.123331)scale(0.08 -0.08)">
       <defs>
        <path d="M 33.59375 64.40625 
C 33.59375 66.5 33.5 66.5 31.703125 66.5 
L 2 19.59375 
L 2 17 
L 27.796875 17 
L 27.796875 7.140625 
C 27.796875 3.5 27.59375 2.5 20.59375 2.5 
L 18.703125 2.5 
L 18.703125 0 
C 21.90625 0 27.296875 0 30.703125 0 
C 34.09375 0 39.5 0 42.703125 0 
L 42.703125 2.5 
L 40.796875 2.5 
C 33.796875 2.5 33.59375 3.5 33.59375 7.140625 
L 33.59375 17 
L 43.796875 17 
L 43.796875 19.59375 
L 33.59375 19.59375 
z
M 28.09375 57.859375 
L 28.09375 19.59375 
L 4 19.59375 
z
" id="CMR17-52"/>
       </defs>
       <use transform="scale(0.996264)" xlink:href="#CMSY10-0"/>
       <use transform="translate(77.487468 0)scale(0.996264)" xlink:href="#CMR17-49"/>
       <use transform="translate(123.177945 0)scale(0.996264)" xlink:href="#CMR17-52"/>
       <use transform="translate(168.868422 0)scale(0.996264)" xlink:href="#CMR17-48"/>
      </g>
     </g>
    </g>
    <g id="ytick_3">
     <g id="line2d_3">
      <g>
       <use style="stroke:#000000;stroke-width:0.5;" x="42.851695" xlink:href="#m6689c58e47" y="41.371032"/>
      </g>
     </g>
     <g id="text_7">
      <!-- $\mathdefault{−120}$ -->
      <g transform="translate(15.56264 44.138433)scale(0.08 -0.08)">
       <defs>
        <path d="M 41.703125 15.453125 
L 39.90625 15.453125 
C 38.90625 8.375 38.09375 7.171875 37.703125 6.5625 
C 37.203125 5.765625 30 5.765625 28.59375 5.765625 
L 9.40625 5.765625 
C 13 9.671875 20 16.75 28.5 24.953125 
C 34.59375 30.734375 41.703125 37.53125 41.703125 47.421875 
C 41.703125 59.21875 32.296875 66 21.796875 66 
C 10.796875 66 4.09375 56.3125 4.09375 47.34375 
C 4.09375 43.4375 7 42.9375 8.203125 42.9375 
C 9.203125 42.9375 12.203125 43.546875 12.203125 47.03125 
C 12.203125 50.109375 9.59375 51 8.203125 51 
C 7.59375 51 7 50.90625 6.59375 50.703125 
C 8.5 59.21875 14.296875 63.40625 20.40625 63.40625 
C 29.09375 63.40625 34.796875 56.515625 34.796875 47.421875 
C 34.796875 38.734375 29.703125 31.25 24 24.75 
L 4.09375 2.28125 
L 4.09375 0 
L 39.296875 0 
z
" id="CMR17-50"/>
       </defs>
       <use transform="scale(0.996264)" xlink:href="#CMSY10-0"/>
       <use transform="translate(77.487468 0)scale(0.996264)" xlink:href="#CMR17-49"/>
       <use transform="translate(123.177945 0)scale(0.996264)" xlink:href="#CMR17-50"/>
       <use transform="translate(168.868422 0)scale(0.996264)" xlink:href="#CMR17-48"/>
      </g>
     </g>
    </g>
    <g id="ytick_4">
     <g id="line2d_4">
      <g>
       <use style="stroke:#000000;stroke-width:0.5;" x="42.851695" xlink:href="#m6689c58e47" y="12.386134"/>
      </g>
     </g>
     <g id="text_8">
      <!-- $\mathdefault{−100}$ -->
      <g transform="translate(15.56264 15.153534)scale(0.08 -0.08)">
       <use transform="scale(0.996264)" xlink:href="#CMSY10-0"/>
       <use transform="translate(77.487468 0)scale(0.996264)" xlink:href="#CMR17-49"/>
       <use transform="translate(123.177945 0)scale(0.996264)" xlink:href="#CMR17-48"/>
       <use transform="translate(168.868422 0)scale(0.996264)" xlink:href="#CMR17-48"/>
      </g>
     </g>
    </g>
    <g id="text_9">
     <!-- Energy (K) -->
     <g transform="translate(11.07198 85.630693)rotate(-90)scale(0.1 -0.1)">
      <defs>
       <path d="M 60.703125 25.234375 
L 58.90625 25.234375 
C 56.703125 10.5625 55.40625 2.59375 37.796875 2.59375 
L 23.90625 2.59375 
C 19.90625 2.59375 19.703125 3.078125 19.703125 6.46875 
L 19.703125 34 
L 29.09375 34 
C 38.5 34 39.40625 30.625 39.40625 22.34375 
L 41.203125 22.34375 
L 41.203125 48.140625 
L 39.40625 48.140625 
C 39.40625 39.953125 38.5 36.59375 29.09375 36.59375 
L 19.703125 36.59375 
L 19.703125 61.140625 
C 19.703125 64.5 19.90625 65 23.90625 65 
L 37.59375 65 
C 53.09375 65 54.90625 58.890625 56.296875 45.765625 
L 58.09375 45.765625 
L 55.703125 67.578125 
L 5.09375 67.578125 
L 5.09375 65 
C 12 65 13.09375 65 13.09375 60.53125 
L 13.09375 7.046875 
C 13.09375 2.59375 12 2.59375 5.09375 2.59375 
L 5.09375 0 
L 57.09375 0 
z
" id="CMR17-69"/>
       <path d="M 41.5 30.203125 
C 41.5 35.296875 40.5 43.59375 28.703125 43.59375 
C 20.796875 43.59375 16.703125 37.5 15.203125 33.5 
L 15.09375 33.5 
L 15.09375 43.59375 
L 3.296875 42.5 
L 3.296875 39.90625 
C 9.203125 39.90625 10.09375 39.296875 10.09375 34.5 
L 10.09375 6.6875 
C 10.09375 2.875 9.703125 2.390625 3.296875 2.390625 
L 3.296875 -0.203125 
C 5.703125 0 10.09375 0 12.703125 0 
C 15.296875 0 19.796875 0 22.203125 -0.203125 
L 22.203125 2.390625 
C 15.796875 2.390625 15.40625 2.78125 15.40625 6.6875 
L 15.40625 25.90625 
C 15.40625 35.109375 21 42 28 42 
C 35.40625 42 36.203125 35.40625 36.203125 30.59375 
L 36.203125 6.6875 
C 36.203125 2.875 35.796875 2.390625 29.40625 2.390625 
L 29.40625 -0.203125 
C 31.796875 0 36.203125 0 38.796875 0 
C 41.40625 0 45.90625 0 48.296875 -0.203125 
L 48.296875 2.390625 
C 41.90625 2.390625 41.5 2.78125 41.5 6.6875 
z
" id="CMR17-110"/>
       <path d="M 38.09375 23 
C 38.5 23.40625 38.5 23.609375 38.5 24.625 
C 38.5 34.96875 33.09375 44 21.703125 44 
C 11.09375 44 2.703125 33.890625 2.703125 21.609375 
C 2.703125 8.609375 12.203125 -1 22.796875 -1 
C 34 -1 38.40625 9.484375 38.40625 11.5625 
C 38.40625 12.25 37.796875 12.25 37.59375 12.25 
C 36.90625 12.25 36.796875 12.046875 36.40625 10.875 
C 34.203125 4.140625 28.703125 0.796875 23.5 0.796875 
C 19.203125 0.796875 14.90625 3.171875 12.203125 7.5 
C 9.09375 12.546875 9.09375 18.375 9.09375 23 
z
M 9.203125 24.5 
C 9.90625 39.140625 17.59375 42.40625 21.59375 42.40625 
C 28.40625 42.40625 33 35.890625 33.09375 24.5 
z
" id="CMR17-101"/>
       <path d="M 15 23.390625 
C 15 33 19.09375 42 26.59375 42 
C 27.296875 42 28 41.90625 28.703125 41.59375 
C 28.703125 41.59375 26.5 40.890625 26.5 38.3125 
C 26.5 35.90625 28.40625 34.90625 29.90625 34.90625 
C 31.09375 34.90625 33.296875 35.609375 33.296875 38.40625 
C 33.296875 41.609375 30.09375 43.59375 26.703125 43.59375 
C 19.09375 43.59375 15.796875 36.203125 14.796875 32.703125 
L 14.703125 32.703125 
L 14.703125 43.59375 
L 3.09375 42.5 
L 3.09375 39.90625 
C 9 39.90625 9.90625 39.296875 9.90625 34.5 
L 9.90625 6.6875 
C 9.90625 2.875 9.5 2.390625 3.09375 2.390625 
L 3.09375 -0.203125 
C 5.5 0 10.09375 0 12.703125 0 
C 15.59375 0 20.703125 0 23.40625 -0.203125 
L 23.40625 2.390625 
C 16.203125 2.390625 15 2.390625 15 6.875 
z
" id="CMR17-114"/>
       <path d="M 11.09375 18.1875 
C 13 16.6875 16.296875 15 20.296875 15 
C 28.203125 15 35 21.203125 35 29.5 
C 35 32.09375 34.203125 36.09375 31.203125 39.203125 
C 34 42.0625 38.09375 43 40.40625 43 
C 40.796875 43 41.40625 43 41.90625 42.71875 
C 41.5 42.625 40.59375 42.234375 40.59375 40.703125 
C 40.59375 39.484375 41.5 38.609375 42.796875 38.609375 
C 44.296875 38.609375 45.09375 39.578125 45.09375 40.84375 
C 45.09375 42.671875 43.59375 44.59375 40.40625 44.59375 
C 36.40625 44.59375 32.90625 42.78125 30.09375 40.3125 
C 27.09375 43.015625 23.5 44 20.296875 44 
C 12.40625 44 5.59375 37.796875 5.59375 29.5 
C 5.59375 23.78125 8.90625 20.1875 9.90625 19.1875 
C 6.90625 15.6875 6.90625 11.609375 6.90625 11.109375 
C 6.90625 8.515625 7.90625 4.71875 11.296875 2.625 
C 6.09375 1.328125 2 -2.640625 2 -7.59375 
C 2 -14.734375 11.5 -20 22.90625 -20 
C 33.90625 -20 43.796875 -14.9375 43.796875 -7.484375 
C 43.796875 6 29 6 21.296875 6 
C 19 6 14.90625 6 14.40625 6.109375 
C 11.296875 6.609375 9.203125 9.40625 9.203125 12.90625 
C 9.203125 13.796875 9.203125 16 11.09375 18.1875 
z
M 20.296875 16.6875 
C 11.5 16.6875 11.5 27.5 11.5 29.515625 
C 11.5 31.5 11.5 42.3125 20.296875 42.3125 
C 29.09375 42.3125 29.09375 31.5 29.09375 29.515625 
C 29.09375 27.5 29.09375 16.6875 20.296875 16.6875 
z
M 22.90625 -18.296875 
C 12.90625 -18.296875 6 -13.046875 6 -7.59375 
C 6 -4.515625 7.703125 -1.640625 9.90625 -0.0625 
C 12.40625 1.625 13.40625 1.625 20.203125 1.625 
C 28.40625 1.625 39.796875 1.625 39.796875 -7.59375 
C 39.796875 -13.046875 32.90625 -18.296875 22.90625 -18.296875 
z
" id="CMR17-103"/>
       <path d="M 39 34.328125 
C 41.5 40.40625 46 40.40625 47.40625 40.40625 
L 47.40625 43 
C 45.5 43 43 43 41.09375 43 
C 39 43 35.703125 43 33.703125 43.09375 
L 33.703125 40.5 
C 37.5 40.203125 37.59375 37.40625 37.59375 36.609375 
C 37.59375 35.625 37.40625 35.125 36.90625 33.921875 
L 26 7.015625 
L 14.09375 36.03125 
C 13.59375 37.21875 13.59375 37.90625 13.59375 38.015625 
C 13.59375 40.203125 15.90625 40.40625 18.296875 40.40625 
L 18.296875 43.09375 
C 15.90625 43 11.59375 43 9.09375 43 
C 6.40625 43 3.203125 43 1 43.09375 
L 1 40.40625 
C 6.40625 40.40625 7 39.90625 8.296875 36.71875 
L 23.203125 0.234375 
C 18.703125 -11.53125 16.09375 -18.40625 9.796875 -18.40625 
C 8.703125 -18.40625 6.203125 -18.109375 4.40625 -16.3125 
C 6.703125 -16.109375 7.703125 -14.71875 7.703125 -13.015625 
C 7.703125 -11.328125 6.5 -9.828125 4.5 -9.828125 
C 2.296875 -9.828125 1.203125 -11.328125 1.203125 -13.125 
C 1.203125 -17.109375 5.296875 -20 9.796875 -20 
C 15.59375 -20 19.203125 -14.40625 21.203125 -9.4375 
z
" id="CMR17-121"/>
       <path d="M 30.59375 -24.390625 
C 30.59375 -24.296875 30.59375 -24.09375 30.296875 -23.796875 
C 25.703125 -19.125 13.40625 -6.359375 13.40625 24.703125 
C 13.40625 55.765625 25.5 68.421875 30.40625 73.390625 
C 30.40625 73.5 30.59375 73.703125 30.59375 74 
C 30.59375 74.296875 30.296875 74.5 29.90625 74.5 
C 28.796875 74.5 20.296875 67.125 15.40625 56.15625 
C 10.40625 45.109375 9 34.359375 9 24.8125 
C 9 17.625 9.703125 5.484375 15.703125 -7.359375 
C 20.5 -17.734375 28.703125 -25 29.90625 -25 
C 30.40625 -25 30.59375 -24.796875 30.59375 -24.390625 
z
" id="CMR17-40"/>
       <path d="M 36.90625 41.796875 
L 54.203125 59.09375 
C 57.796875 62.59375 61.59375 65.40625 67.203125 65.40625 
L 67.203125 68 
C 65.203125 68 62.703125 68 60.703125 68 
C 58 68 53.296875 68 50.703125 68.09375 
L 50.703125 65.5 
C 53.296875 65.3125 53.703125 63.515625 53.703125 62.796875 
C 53.703125 62.109375 53.296875 61.015625 52.90625 60.421875 
L 19.703125 27.15625 
L 19.703125 60.9375 
C 19.703125 65.40625 20.796875 65.40625 27.703125 65.40625 
L 27.703125 68 
C 24.796875 68 19.5 68 16.40625 68 
C 13.296875 68 8 68 5.09375 68 
L 5.09375 65.40625 
C 12 65.40625 13.09375 65.40625 13.09375 60.921875 
L 13.09375 6.96875 
C 13.09375 2.5 12 2.5 5.09375 2.5 
L 5.09375 0 
C 8 0 13.296875 0 16.40625 0 
C 19.5 0 24.796875 0 27.703125 0 
L 27.703125 2.5 
C 20.796875 2.5 19.703125 2.5 19.703125 6.984375 
L 19.703125 24.671875 
L 32.5 37.34375 
L 51.40625 8.390625 
C 52 7.390625 52.703125 6.09375 52.703125 5.09375 
C 52.703125 2.5 49.90625 2.5 48.59375 2.5 
L 48.59375 0 
C 51.796875 0 56.40625 0 59.703125 0 
C 62.09375 0 66.203125 0 68.5 -0.09375 
L 68.5 2.5 
C 63.703125 2.5 62.203125 3.09375 59.203125 7.703125 
z
" id="CMR17-75"/>
       <path d="M 26.296875 24.703125 
C 26.296875 31.875 25.59375 44.015625 19.59375 56.859375 
C 14.796875 67.234375 6.59375 74.5 5.40625 74.5 
C 5.09375 74.5 4.703125 74.390625 4.703125 73.890625 
C 4.703125 73.703125 4.796875 73.59375 4.90625 73.390625 
C 9.703125 68.40625 21.90625 55.75 21.90625 24.75 
C 21.90625 -6.359375 9.796875 -19.015625 4.90625 -24.015625 
C 4.796875 -24.203125 4.703125 -24.3125 4.703125 -24.5 
C 4.703125 -25 5.09375 -25 5.40625 -25 
C 6.5 -25 15 -17.625 19.90625 -6.65625 
C 24.90625 4.390625 26.296875 15.140625 26.296875 24.703125 
z
" id="CMR17-41"/>
      </defs>
      <use transform="scale(0.996264)" xlink:href="#CMR17-69"/>
      <use transform="translate(62.586301 0)scale(0.996264)" xlink:href="#CMR17-110"/>
      <use transform="translate(113.48167 0)scale(0.996264)" xlink:href="#CMR17-101"/>
      <use transform="translate(153.967331 0)scale(0.996264)" xlink:href="#CMR17-114"/>
      <use transform="translate(189.248099 0)scale(0.996264)" xlink:href="#CMR17-103"/>
      <use transform="translate(234.938576 0)scale(0.996264)" xlink:href="#CMR17-121"/>
      <use transform="translate(313.307458 0)scale(0.996264)" xlink:href="#CMR17-40"/>
      <use transform="translate(348.588226 0)scale(0.996264)" xlink:href="#CMR17-75"/>
      <use transform="translate(420.263003 0)scale(0.996264)" xlink:href="#CMR17-41"/>
     </g>
    </g>
   </g>
   <g id="line2d_5">
    <path clip-path="url(#pb837774177)" d="M 128.534212 117.958763 
L 128.534212 3.6 
" style="fill:none;stroke:#808080;stroke-linecap:square;stroke-width:0.8;"/>
   </g>
   <g id="line2d_6">
    <path clip-path="url(#pb837774177)" d="M 168.925338 117.958763 
L 168.925338 3.6 
" style="fill:none;stroke:#808080;stroke-linecap:square;stroke-width:0.8;"/>
   </g>
   <g id="line2d_7">
    <path clip-path="url(#pb837774177)" d="M 42.851695 112.760637 
L 46.4218 112.699474 
L 49.991905 112.63831 
L 53.56201 112.455162 
L 57.132115 112.272013 
L 60.70222 111.967972 
L 64.272325 111.66393 
L 67.842429 111.241052 
L 71.412534 110.818175 
L 74.982639 110.279939 
L 78.552744 109.741703 
L 82.122849 109.0939 
L 85.692954 108.446096 
L 89.263059 107.698618 
L 92.833163 106.95114 
L 96.403268 106.12177 
L 99.973373 105.2924 
L 103.543478 104.415325 
L 107.113583 103.538249 
L 110.683688 102.683706 
L 114.253793 101.829163 
L 117.823898 101.142598 
L 121.394002 100.456033 
L 124.964107 100.176781 
L 128.534212 99.897529 
L 133.583103 99.973404 
L 138.631994 99.622978 
L 143.680884 99.432399 
L 148.729775 98.858493 
L 153.778666 98.480586 
L 158.827556 97.845757 
L 163.876447 97.521197 
L 168.925338 97.249588 
L 176.908335 98.21768 
L 184.891332 100.874581 
L 192.874329 104.076106 
L 200.857327 107.054285 
L 208.840324 109.503057 
L 216.823321 111.300535 
L 224.806318 112.393995 
L 232.789315 112.760637 
" style="fill:none;stroke:#000000;stroke-linecap:square;"/>
   </g>
   <g id="line2d_8">
    <path clip-path="url(#pb837774177)" d="M 42.851695 42.262815 
L 46.4218 44.080417 
L 49.991905 45.89802 
L 53.56201 48.248986 
L 57.132115 50.599951 
L 60.70222 52.99035 
L 64.272325 55.380749 
L 67.842429 57.744369 
L 71.412534 60.10799 
L 74.982639 62.404895 
L 78.552744 64.7018 
L 82.122849 66.90249 
L 85.692954 69.10318 
L 89.263059 71.182102 
L 92.833163 73.261024 
L 96.403268 75.190011 
L 99.973373 77.118999 
L 103.543478 78.856981 
L 107.113583 80.594964 
L 110.683688 82.067195 
L 114.253793 83.539426 
L 117.823898 84.597635 
L 121.394002 85.655844 
L 124.964107 86.059143 
L 128.534212 86.462441 
L 133.583103 86.157122 
L 138.631994 86.069393 
L 143.680884 85.380403 
L 148.729775 84.890708 
L 153.778666 83.839778 
L 158.827556 82.927877 
L 163.876447 81.653104 
L 168.925338 80.183815 
L 176.908335 81.570207 
L 184.891332 79.708244 
L 192.874329 75.743005 
L 200.857327 70.449616 
L 208.840324 64.152289 
L 216.823321 57.018333 
L 224.806318 49.241703 
L 232.789315 42.262815 
" style="fill:none;stroke:#000000;stroke-linecap:square;"/>
   </g>
   <g id="line2d_9">
    <path clip-path="url(#pb837774177)" d="M 42.851695 40.188467 
L 46.4218 40.546419 
L 49.991905 40.904372 
L 53.56201 41.730866 
L 57.132115 42.557361 
L 60.70222 43.528459 
L 64.272325 44.499558 
L 67.842429 45.46185 
L 71.412534 46.424142 
L 74.982639 47.315588 
L 78.552744 48.207035 
L 82.122849 49.000439 
L 85.692954 49.793843 
L 89.263059 50.475933 
L 92.833163 51.158023 
L 96.403268 51.721724 
L 99.973373 52.285424 
L 103.543478 52.72672 
L 107.113583 53.168015 
L 110.683688 53.484546 
L 114.253793 53.801078 
L 117.823898 53.991474 
L 121.394002 54.18187 
L 124.964107 54.24541 
L 128.534212 54.30895 
L 133.583103 57.3578 
L 138.631994 61.517851 
L 143.680884 65.454497 
L 148.729775 69.216804 
L 153.778666 72.580304 
L 158.827556 75.678459 
L 163.876447 78.054329 
L 168.925338 80.183801 
L 176.908335 76.663672 
L 184.891332 72.376736 
L 192.874329 67.340654 
L 200.857327 61.592566 
L 208.840324 55.223704 
L 216.823321 48.515512 
L 224.806318 42.570505 
L 232.789315 40.188467 
" style="fill:none;stroke:#000000;stroke-linecap:square;"/>
   </g>
   <g id="line2d_10">
    <path clip-path="url(#pb837774177)" d="M 42.851695 40.188284 
L 46.4218 38.772146 
L 49.991905 37.356008 
L 53.56201 37.121752 
L 57.132115 36.887497 
L 60.70222 37.971592 
L 64.272325 39.055687 
L 67.842429 40.261557 
L 71.412534 41.467427 
L 74.982639 42.565313 
L 78.552744 43.663199 
L 82.122849 44.616032 
L 85.692954 45.568865 
L 89.263059 46.371121 
L 92.833163 47.173378 
L 96.403268 47.826036 
L 99.973373 48.478695 
L 103.543478 48.983836 
L 107.113583 49.488977 
L 110.683688 49.84846 
L 114.253793 50.207942 
L 117.823898 50.423106 
L 121.394002 50.63827 
L 124.964107 50.709905 
L 128.534212 50.78154 
L 133.583103 47.436797 
L 138.631994 42.657429 
L 143.680884 37.492463 
L 148.729775 32.154173 
L 153.778666 26.530546 
L 158.827556 20.760106 
L 163.876447 14.722902 
L 168.925338 8.798126 
L 176.908335 14.713812 
L 184.891332 19.831942 
L 192.874329 24.14183 
L 200.857327 27.622133 
L 208.840324 30.284314 
L 216.823321 32.641392 
L 224.806318 35.319419 
L 232.789315 40.188284 
" style="fill:none;stroke:#000000;stroke-linecap:square;"/>
   </g>
   <g id="patch_3">
    <path d="M 42.851695 117.958763 
L 42.851695 3.6 
" style="fill:none;stroke:#000000;stroke-linecap:square;stroke-linejoin:miter;"/>
   </g>
   <g id="patch_4">
    <path d="M 232.789315 117.958763 
L 232.789315 3.6 
" style="fill:none;stroke:#000000;stroke-linecap:square;stroke-linejoin:miter;"/>
   </g>
   <g id="patch_5">
    <path d="M 42.851695 117.958763 
L 232.789315 117.958763 
" style="fill:none;stroke:#000000;stroke-linecap:square;stroke-linejoin:miter;"/>
   </g>
   <g id="patch_6">
    <path d="M 42.851695 3.6 
L 232.789315 3.6 
" style="fill:none;stroke:#000000;stroke-linecap:square;stroke-linejoin:miter;"/>
   </g>
  </g>
 </g>
 <defs>
  <clipPath id="pb837774177">
   <rect height="114.358763" width="189.93762" x="42.851695" y="3.6"/>
  </clipPath>
 </defs>
</svg>
