<?xml version="1.0" encoding="utf-8" standalone="no"?>
<!DOCTYPE svg PUBLIC "-//W3C//DTD SVG 1.1//EN"
  "http://www.w3.org/Graphics/SVG/1.1/DTD/svg11.dtd">
<!-- Created with matplotlib (https://matplotlib.org/) -->
<svg height="162.990142pt" version="1.1" viewBox="0 0 259.444188 162.990142" width="259.444188pt" xmlns="http://www.w3.org/2000/svg" xmlns:xlink="http://www.w3.org/1999/xlink">
 <metadata>
  <rdf:RDF xmlns:cc="http://creativecommons.org/ns#" xmlns:dc="http://purl.org/dc/elements/1.1/" xmlns:rdf="http://www.w3.org/1999/02/22-rdf-syntax-ns#">
   <cc:Work>
    <dc:type rdf:resource="http://purl.org/dc/dcmitype/StillImage"/>
    <dc:date>2020-10-21T10:16:01.143604</dc:date>
    <dc:format>image/svg+xml</dc:format>
    <dc:creator>
     <cc:Agent>
      <dc:title>Matplotlib v3.3.1, https://matplotlib.org/</dc:title>
     </cc:Agent>
    </dc:creator>
   </cc:Work>
  </rdf:RDF>
 </metadata>
 <defs>
  <style type="text/css">*{stroke-linecap:butt;stroke-linejoin:round;}</style>
 </defs>
 <g id="figure_1">
  <g id="patch_1">
   <path d="M 0 162.990142 
L 259.444188 162.990142 
L 259.444188 -0 
L 0 -0 
z
" style="fill:none;"/>
  </g>
  <g id="axes_1">
   <g id="patch_2">
    <path d="M 38.617512 131.13499 
L 132.182843 131.13499 
L 132.182843 59.187424 
L 38.617512 59.187424 
z
" style="fill:#ffffff;"/>
   </g>
   <g id="matplotlib.axis_1">
    <g id="xtick_1">
     <g id="line2d_1">
      <defs>
       <path d="M 0 0 
L 0 4 
" id="m150c258bb9" style="stroke:#000000;stroke-width:0.5;"/>
      </defs>
      <g>
       <use style="stroke:#000000;stroke-width:0.5;" x="61.300017" xlink:href="#m150c258bb9" y="131.13499"/>
      </g>
     </g>
     <g id="text_1">
      <!-- $\mathdefault{3}$ -->
      <g transform="translate(59.182925 144.669792)scale(0.08 -0.08)">
       <defs>
        <path d="M 22.09375 33.703125 
C 31 33.703125 34.90625 25.96875 34.90625 17.03125 
C 34.90625 5 28.5 0.390625 22.703125 0.390625 
C 17.40625 0.390625 8.796875 3.03125 6.09375 10.828125 
C 6.59375 10.625 7.09375 10.625 7.59375 10.625 
C 10 10.625 11.796875 12.21875 11.796875 14.8125 
C 11.796875 17.703125 9.59375 19 7.59375 19 
C 5.90625 19 3.296875 18.203125 3.296875 14.46875 
C 3.296875 5.234375 12.296875 -2 22.90625 -2 
C 34 -2 42.5 6.71875 42.5 16.953125 
C 42.5 26.671875 34.5 33.703125 25 34.796875 
C 32.59375 36.375 39.90625 43.0625 39.90625 52.015625 
C 39.90625 59.6875 32 65.296875 23 65.296875 
C 13.90625 65.296875 5.90625 59.828125 5.90625 52.015625 
C 5.90625 48.59375 8.5 48 9.796875 48 
C 11.90625 48 13.703125 49.296875 13.703125 51.890625 
C 13.703125 54.46875 11.90625 55.765625 9.796875 55.765625 
C 9.40625 55.765625 8.90625 55.765625 8.5 55.578125 
C 11.40625 61.859375 19.296875 63 22.796875 63 
C 26.296875 63 32.90625 61.328125 32.90625 51.875 
C 32.90625 49.109375 32.5 44.1875 29.09375 39.84375 
C 26.09375 36 22.703125 36 19.40625 35.6875 
C 18.90625 35.6875 16.59375 35.453125 16.203125 35.453125 
C 15.5 35.359375 15.09375 35.265625 15.09375 34.5 
C 15.09375 33.796875 15.203125 33.703125 17.203125 33.703125 
z
" id="CMR17-51"/>
       </defs>
       <use transform="scale(0.996264)" xlink:href="#CMR17-51"/>
      </g>
     </g>
    </g>
    <g id="xtick_2">
     <g id="line2d_2">
      <g>
       <use style="stroke:#000000;stroke-width:0.5;" x="89.653147" xlink:href="#m150c258bb9" y="131.13499"/>
      </g>
     </g>
     <g id="text_2">
      <!-- $\mathdefault{4}$ -->
      <g transform="translate(87.536056 144.669792)scale(0.08 -0.08)">
       <defs>
        <path d="M 33.59375 64.40625 
C 33.59375 66.5 33.5 66.5 31.703125 66.5 
L 2 19.59375 
L 2 17 
L 27.796875 17 
L 27.796875 7.140625 
C 27.796875 3.5 27.59375 2.5 20.59375 2.5 
L 18.703125 2.5 
L 18.703125 0 
C 21.90625 0 27.296875 0 30.703125 0 
C 34.09375 0 39.5 0 42.703125 0 
L 42.703125 2.5 
L 40.796875 2.5 
C 33.796875 2.5 33.59375 3.5 33.59375 7.140625 
L 33.59375 17 
L 43.796875 17 
L 43.796875 19.59375 
L 33.59375 19.59375 
z
M 28.09375 57.859375 
L 28.09375 19.59375 
L 4 19.59375 
z
" id="CMR17-52"/>
       </defs>
       <use transform="scale(0.996264)" xlink:href="#CMR17-52"/>
      </g>
     </g>
    </g>
    <g id="xtick_3">
     <g id="line2d_3">
      <g>
       <use style="stroke:#000000;stroke-width:0.5;" x="118.006277" xlink:href="#m150c258bb9" y="131.13499"/>
      </g>
     </g>
     <g id="text_3">
      <!-- $\mathdefault{5}$ -->
      <g transform="translate(115.889186 144.669792)scale(0.08 -0.08)">
       <defs>
        <path d="M 11.40625 57.6875 
C 12.40625 57.28125 16.5 56 20.703125 56 
C 30 56 35.09375 61.109375 38 64.0625 
C 38 64.953125 38 65.5 37.40625 65.5 
C 37.296875 65.5 37.09375 65.5 36.296875 65.046875 
C 32.796875 63.40625 28.703125 62.078125 23.703125 62.078125 
C 20.703125 62.078125 16.203125 62.484375 11.296875 64.671875 
C 10.203125 65.171875 10 65.171875 9.90625 65.171875 
C 9.40625 65.171875 9.296875 65.0625 9.296875 63.078125 
L 9.296875 34.421875 
C 9.296875 32.640625 9.296875 32.140625 10.296875 32.140625 
C 10.796875 32.140625 11 32.34375 11.5 33.03125 
C 14.703125 37.515625 19.09375 39.40625 24.09375 39.40625 
C 27.59375 39.40625 35.09375 37.21875 35.09375 20.140625 
C 35.09375 16.953125 35.09375 11.171875 32.09375 6.578125 
C 29.59375 2.484375 25.703125 0.390625 21.40625 0.390625 
C 14.796875 0.390625 8.09375 5 6.296875 12.71875 
C 6.703125 12.609375 7.5 12.421875 7.90625 12.421875 
C 9.203125 12.421875 11.703125 13.125 11.703125 16.21875 
C 11.703125 18.90625 9.796875 20 7.90625 20 
C 5.59375 20 4.09375 18.59375 4.09375 15.796875 
C 4.09375 7.09375 11 -2 21.59375 -2 
C 31.90625 -2 41.703125 6.875 41.703125 19.75 
C 41.703125 31.71875 33.90625 41 24.203125 41 
C 19.09375 41 14.796875 39.109375 11.40625 35.53125 
z
" id="CMR17-53"/>
       </defs>
       <use transform="scale(0.996264)" xlink:href="#CMR17-53"/>
      </g>
     </g>
    </g>
    <g id="xtick_4">
     <g id="line2d_4">
      <defs>
       <path d="M 0 0 
L 0 2.5 
" id="m26b2f388a8" style="stroke:#000000;stroke-width:0.6;"/>
      </defs>
      <g>
       <use style="stroke:#000000;stroke-width:0.6;" x="47.123452" xlink:href="#m26b2f388a8" y="131.13499"/>
      </g>
     </g>
    </g>
    <g id="xtick_5">
     <g id="line2d_5">
      <g>
       <use style="stroke:#000000;stroke-width:0.6;" x="75.476582" xlink:href="#m26b2f388a8" y="131.13499"/>
      </g>
     </g>
    </g>
    <g id="xtick_6">
     <g id="line2d_6">
      <g>
       <use style="stroke:#000000;stroke-width:0.6;" x="103.829712" xlink:href="#m26b2f388a8" y="131.13499"/>
      </g>
     </g>
    </g>
    <g id="xtick_7">
     <g id="line2d_7">
      <g>
       <use style="stroke:#000000;stroke-width:0.6;" x="132.182843" xlink:href="#m26b2f388a8" y="131.13499"/>
      </g>
     </g>
    </g>
    <g id="text_4">
     <!-- $r$(\AA) -->
     <g transform="translate(75.404071 156.899482)scale(0.1 -0.1)">
      <defs>
       <path d="M 38.90625 40.8125 
C 35.796875 40.21875 34.203125 38.015625 34.203125 35.828125 
C 34.203125 33.421875 36.09375 32.625 37.5 32.625 
C 40.296875 32.625 42.59375 35.03125 42.59375 38.015625 
C 42.59375 41.21875 39.5 44 34.5 44 
C 30.5 44 25.90625 42.203125 21.703125 36.125 
C 21 41.40625 17 44 13 44 
C 9.09375 44 7.09375 41.015625 5.90625 38.8125 
C 4.203125 35.21875 2.703125 29.234375 2.703125 28.734375 
C 2.703125 28.34375 3.09375 27.84375 3.796875 27.84375 
C 4.59375 27.84375 4.703125 27.9375 5.296875 30.234375 
C 6.796875 36.21875 8.703125 42.015625 12.703125 42.015625 
C 15.09375 42.015625 15.796875 40.3125 15.796875 37.421875 
C 15.796875 35.21875 14.796875 31.328125 14.09375 28.234375 
L 11.296875 17.46875 
C 10.90625 15.5625 9.796875 11.078125 9.296875 9.28125 
C 8.59375 6.6875 7.5 2 7.5 1.5 
C 7.5 0.09375 8.59375 -1 10.09375 -1 
C 11.203125 -1 13.09375 -0.296875 13.703125 1.703125 
C 14 2.5 17.703125 17.5625 18.296875 19.859375 
C 18.796875 22.046875 19.40625 24.15625 19.90625 26.34375 
C 20.296875 27.734375 20.703125 29.34375 21 30.640625 
C 21.296875 31.53125 24 36.421875 26.5 38.625 
C 27.703125 39.71875 30.296875 42.015625 34.40625 42.015625 
C 36 42.015625 37.59375 41.71875 38.90625 40.8125 
z
" id="CMMI12-114"/>
       <path d="M 30.59375 -24.390625 
C 30.59375 -24.296875 30.59375 -24.09375 30.296875 -23.796875 
C 25.703125 -19.125 13.40625 -6.359375 13.40625 24.703125 
C 13.40625 55.765625 25.5 68.421875 30.40625 73.390625 
C 30.40625 73.5 30.59375 73.703125 30.59375 74 
C 30.59375 74.296875 30.296875 74.5 29.90625 74.5 
C 28.796875 74.5 20.296875 67.125 15.40625 56.15625 
C 10.40625 45.109375 9 34.359375 9 24.8125 
C 9 17.625 9.703125 5.484375 15.703125 -7.359375 
C 20.5 -17.734375 28.703125 -25 29.90625 -25 
C 30.40625 -25 30.59375 -24.796875 30.59375 -24.390625 
z
" id="CMR17-40"/>
       <path d="M 43.296875 61.796875 
C 43.296875 66.796875 39.296875 70.59375 34.59375 70.59375 
C 29.90625 70.59375 25.90625 66.796875 25.90625 61.796875 
C 25.90625 56.796875 29.90625 53 34.59375 53 
C 39.296875 53 43.296875 56.796875 43.296875 61.796875 
z
M 34.59375 54.59375 
C 30.40625 54.59375 27.703125 57.1875 27.703125 61.8125 
C 27.703125 66.5 30.5 69 34.59375 69 
C 38.796875 69 41.5 66.40625 41.5 61.8125 
C 41.5 57.09375 38.703125 54.59375 34.59375 54.59375 
z
" id="CMR17-23"/>
       <path d="M 36.296875 68.40625 
C 35.796875 69.703125 35.59375 70 34.59375 70 
C 33.59375 70 33.40625 69.703125 32.90625 68.40625 
L 11.703125 8.84375 
C 9.796875 3.484375 5.796875 2.390625 2.296875 2.390625 
L 2.296875 -0.203125 
C 4.09375 0 8.09375 0 10 0 
C 12.5 0 16.5 0 18.90625 -0.203125 
L 18.90625 2.390625 
C 14.203125 2.390625 13.5 5.640625 13.5 6.859375 
C 13.5 7.765625 13.703125 8.28125 13.90625 8.890625 
L 19.203125 24 
L 45.40625 24 
L 51.40625 6.90625 
C 51.90625 5.703125 51.90625 5.5 51.90625 5.109375 
C 51.90625 2.390625 47.59375 2.390625 45.703125 2.390625 
L 45.703125 0 
C 48.59375 0 53.796875 0 56.90625 0 
C 59.5 0 64.5 0 66.90625 -0.203125 
L 66.90625 2.390625 
C 61.59375 2.390625 59.796875 2.390625 58.5 6.046875 
z
M 32.296875 60.828125 
L 44.5 26.59375 
L 20.09375 26.59375 
z
" id="CMR17-65"/>
       <path d="M 26.296875 24.703125 
C 26.296875 31.875 25.59375 44.015625 19.59375 56.859375 
C 14.796875 67.234375 6.59375 74.5 5.40625 74.5 
C 5.09375 74.5 4.703125 74.390625 4.703125 73.890625 
C 4.703125 73.703125 4.796875 73.59375 4.90625 73.390625 
C 9.703125 68.40625 21.90625 55.75 21.90625 24.75 
C 21.90625 -6.359375 9.796875 -19.015625 4.90625 -24.015625 
C 4.796875 -24.203125 4.703125 -24.3125 4.703125 -24.5 
C 4.703125 -25 5.09375 -25 5.40625 -25 
C 6.5 -25 15 -17.625 19.90625 -6.65625 
C 24.90625 4.390625 26.296875 15.140625 26.296875 24.703125 
z
" id="CMR17-41"/>
      </defs>
      <use transform="scale(0.996264)" xlink:href="#CMMI12-114"/>
      <use transform="translate(46.670612 0)scale(0.996264)" xlink:href="#CMR17-40"/>
      <use transform="translate(81.95138 17.618744)scale(0.996264)" xlink:href="#CMR17-23"/>
      <use transform="translate(81.95138 0)scale(0.996264)" xlink:href="#CMR17-65"/>
      <use transform="translate(151.02381 0)scale(0.996264)" xlink:href="#CMR17-41"/>
     </g>
    </g>
   </g>
   <g id="matplotlib.axis_2">
    <g id="ytick_1">
     <g id="line2d_8">
      <defs>
       <path d="M 0 0 
L -4 0 
" id="m91bfe2bf15" style="stroke:#000000;stroke-width:0.5;"/>
      </defs>
      <g>
       <use style="stroke:#000000;stroke-width:0.5;" x="38.617512" xlink:href="#m91bfe2bf15" y="131.13499"/>
      </g>
     </g>
     <g id="text_5">
      <!-- $\mathdefault{−50}$ -->
      <g transform="translate(15.56264 133.902391)scale(0.08 -0.08)">
       <defs>
        <path d="M 65.90625 23 
C 67.59375 23 69.40625 23 69.40625 25 
C 69.40625 27 67.59375 27 65.90625 27 
L 11.796875 27 
C 10.09375 27 8.296875 27 8.296875 25 
C 8.296875 23 10.09375 23 11.796875 23 
z
" id="CMSY10-0"/>
        <path d="M 42 31.640625 
C 42 37.75 41.90625 48.125 37.703125 56.109375 
C 34 63.109375 28.09375 65.59375 22.90625 65.59375 
C 18.09375 65.59375 12 63.40625 8.203125 56.203125 
C 4.203125 48.71875 3.796875 39.4375 3.796875 31.640625 
C 3.796875 25.953125 3.90625 17.28125 7 9.671875 
C 11.296875 -0.609375 19 -2 22.90625 -2 
C 27.5 -2 34.5 -0.109375 38.59375 9.375 
C 41.59375 16.28125 42 24.359375 42 31.640625 
z
M 22.90625 -0.40625 
C 16.5 -0.40625 12.703125 5.078125 11.296875 12.6875 
C 10.203125 18.5625 10.203125 27.15625 10.203125 32.75 
C 10.203125 40.4375 10.203125 46.828125 11.5 52.921875 
C 13.40625 61.390625 19 64 22.90625 64 
C 27 64 32.296875 61.296875 34.203125 53.125 
C 35.5 47.4375 35.59375 40.734375 35.59375 32.75 
C 35.59375 26.25 35.59375 18.265625 34.40625 12.375 
C 32.296875 1.484375 26.40625 -0.40625 22.90625 -0.40625 
z
" id="CMR17-48"/>
       </defs>
       <use transform="scale(0.996264)" xlink:href="#CMSY10-0"/>
       <use transform="translate(77.487468 0)scale(0.996264)" xlink:href="#CMR17-53"/>
       <use transform="translate(123.177945 0)scale(0.996264)" xlink:href="#CMR17-48"/>
      </g>
     </g>
    </g>
    <g id="ytick_2">
     <g id="line2d_9">
      <g>
       <use style="stroke:#000000;stroke-width:0.5;" x="38.617512" xlink:href="#m91bfe2bf15" y="107.152468"/>
      </g>
     </g>
     <g id="text_6">
      <!-- $\mathdefault{0}$ -->
      <g transform="translate(26.38333 109.919869)scale(0.08 -0.08)">
       <use transform="scale(0.996264)" xlink:href="#CMR17-48"/>
      </g>
     </g>
    </g>
    <g id="ytick_3">
     <g id="line2d_10">
      <g>
       <use style="stroke:#000000;stroke-width:0.5;" x="38.617512" xlink:href="#m91bfe2bf15" y="83.169946"/>
      </g>
     </g>
     <g id="text_7">
      <!-- $\mathdefault{50}$ -->
      <g transform="translate(22.149147 85.937347)scale(0.08 -0.08)">
       <use transform="scale(0.996264)" xlink:href="#CMR17-53"/>
       <use transform="translate(45.690477 0)scale(0.996264)" xlink:href="#CMR17-48"/>
      </g>
     </g>
    </g>
    <g id="ytick_4">
     <g id="line2d_11">
      <g>
       <use style="stroke:#000000;stroke-width:0.5;" x="38.617512" xlink:href="#m91bfe2bf15" y="59.187424"/>
      </g>
     </g>
     <g id="text_8">
      <!-- $\mathdefault{100}$ -->
      <g transform="translate(17.914964 61.954825)scale(0.08 -0.08)">
       <defs>
        <path d="M 26.59375 63.40625 
C 26.59375 65.5 26.5 65.5 25.09375 65.5 
C 21.203125 61.1875 15.296875 59.796875 9.703125 59.796875 
C 9.40625 59.796875 8.90625 59.796875 8.796875 59.5 
C 8.703125 59.296875 8.703125 59.09375 8.703125 57 
C 11.796875 57 17 57.59375 21 59.984375 
L 21 7.203125 
C 21 3.6875 20.796875 2.5 12.203125 2.5 
L 9.203125 2.5 
L 9.203125 0 
C 14 0 19 0 23.796875 0 
C 28.59375 0 33.59375 0 38.40625 0 
L 38.40625 2.5 
L 35.40625 2.5 
C 26.796875 2.5 26.59375 3.59375 26.59375 7.15625 
z
" id="CMR17-49"/>
       </defs>
       <use transform="scale(0.996264)" xlink:href="#CMR17-49"/>
       <use transform="translate(45.690477 0)scale(0.996264)" xlink:href="#CMR17-48"/>
       <use transform="translate(91.380954 0)scale(0.996264)" xlink:href="#CMR17-48"/>
      </g>
     </g>
    </g>
    <g id="text_9">
     <!-- V(K) -->
     <g transform="translate(11.07198 106.645948)rotate(-90)scale(0.1 -0.1)">
      <defs>
       <path d="M 59 58.515625 
C 59.90625 60.71875 61.5 65 68.203125 65 
L 68.203125 67.6875 
C 65.90625 67.484375 63.296875 67.484375 60.796875 67.484375 
C 58.40625 67.484375 54.296875 67.484375 52 67.6875 
L 52 65 
C 57 65 57.203125 61.5 57.203125 60.90625 
C 57.203125 59.796875 56.90625 59.109375 56.59375 58.3125 
L 36.90625 6.96875 
L 16.296875 60.71875 
C 16 61.421875 15.796875 61.921875 15.796875 62.40625 
C 15.796875 65 19.796875 65 21.90625 65 
L 21.90625 67.484375 
C 18.703125 67.484375 14 67.484375 10.703125 67.484375 
C 8.09375 67.484375 3.40625 67.484375 1 67.6875 
L 1 65 
C 6.796875 65 7.90625 64.609375 9.09375 61.421875 
L 32.90625 -0.40625 
C 33.40625 -1.796875 33.5 -2 34.59375 -2 
C 35.703125 -2 35.796875 -1.796875 36.296875 -0.40625 
z
" id="CMR17-86"/>
       <path d="M 36.90625 41.796875 
L 54.203125 59.09375 
C 57.796875 62.59375 61.59375 65.40625 67.203125 65.40625 
L 67.203125 68 
C 65.203125 68 62.703125 68 60.703125 68 
C 58 68 53.296875 68 50.703125 68.09375 
L 50.703125 65.5 
C 53.296875 65.3125 53.703125 63.515625 53.703125 62.796875 
C 53.703125 62.109375 53.296875 61.015625 52.90625 60.421875 
L 19.703125 27.15625 
L 19.703125 60.9375 
C 19.703125 65.40625 20.796875 65.40625 27.703125 65.40625 
L 27.703125 68 
C 24.796875 68 19.5 68 16.40625 68 
C 13.296875 68 8 68 5.09375 68 
L 5.09375 65.40625 
C 12 65.40625 13.09375 65.40625 13.09375 60.921875 
L 13.09375 6.96875 
C 13.09375 2.5 12 2.5 5.09375 2.5 
L 5.09375 0 
C 8 0 13.296875 0 16.40625 0 
C 19.5 0 24.796875 0 27.703125 0 
L 27.703125 2.5 
C 20.796875 2.5 19.703125 2.5 19.703125 6.984375 
L 19.703125 24.671875 
L 32.5 37.34375 
L 51.40625 8.390625 
C 52 7.390625 52.703125 6.09375 52.703125 5.09375 
C 52.703125 2.5 49.90625 2.5 48.59375 2.5 
L 48.59375 0 
C 51.796875 0 56.40625 0 59.703125 0 
C 62.09375 0 66.203125 0 68.5 -0.09375 
L 68.5 2.5 
C 63.703125 2.5 62.203125 3.09375 59.203125 7.703125 
z
" id="CMR17-75"/>
      </defs>
      <use transform="scale(0.996264)" xlink:href="#CMR17-86"/>
      <use transform="translate(69.07243 0)scale(0.996264)" xlink:href="#CMR17-40"/>
      <use transform="translate(104.353198 0)scale(0.996264)" xlink:href="#CMR17-75"/>
      <use transform="translate(176.027975 0)scale(0.996264)" xlink:href="#CMR17-41"/>
     </g>
    </g>
   </g>
   <g id="line2d_12">
    <path clip-path="url(#p06715b766b)" d="M 37.645372 -1 
L 38.617512 18.634762 
L 40.035169 41.082094 
L 41.452825 58.605169 
L 42.870482 72.21765 
L 44.288139 82.732603 
L 45.705795 90.800971 
L 47.123452 96.942881 
L 48.541108 101.573079 
L 49.958765 105.021566 
L 51.376421 107.550312 
L 52.794078 109.366764 
L 54.211734 110.634763 
L 55.629391 111.483333 
L 57.047047 112.01376 
L 58.464704 112.305271 
L 59.88236 112.419597 
L 61.300017 112.404618 
L 62.717673 112.297281 
L 64.13533 112.125923 
L 65.552986 111.912124 
L 66.970643 111.672176 
L 68.388299 111.41825 
L 69.805956 111.159317 
L 71.223612 110.901875 
L 72.641269 110.650523 
L 74.058925 110.40841 
L 75.476582 110.177585 
L 76.894238 109.959274 
L 78.311895 109.754088 
L 79.729551 109.562192 
L 81.147208 109.383433 
L 82.564864 109.217428 
L 83.982521 109.063648 
L 85.400177 108.921468 
L 86.817834 108.790208 
L 88.235491 108.669165 
L 89.653147 108.557634 
L 91.070804 108.454925 
L 92.48846 108.360371 
L 93.906117 108.273338 
L 95.323773 108.193228 
L 96.74143 108.11948 
L 98.159086 108.051571 
L 99.576743 107.989017 
L 100.994399 107.931372 
L 102.412056 107.878225 
L 103.829712 107.829198 
L 105.247369 107.783944 
L 106.665025 107.742148 
L 108.082682 107.703519 
L 109.500338 107.667794 
L 110.917995 107.634731 
L 112.335651 107.60411 
L 113.753308 107.575729 
L 115.170964 107.549407 
L 116.588621 107.524976 
L 118.006277 107.502283 
L 119.423934 107.48119 
L 120.84159 107.461569 
L 122.259247 107.443306 
L 123.676903 107.426293 
L 125.09456 107.410433 
L 126.512216 107.39564 
L 127.929873 107.38183 
L 129.347529 107.368931 
L 130.765186 107.356874 
L 132.182843 107.345596 
L 133.600499 107.335041 
L 135.018156 107.325156 
L 136.435812 107.315893 
L 137.853469 107.307206 
L 139.271125 107.299056 
L 140.688782 107.291405 
L 142.106438 107.284218 
L 143.524095 107.277462 
L 144.941751 107.271109 
L 146.359408 107.265131 
L 160.535973 107.221265 
L 174.712538 107.196122 
L 188.889103 107.181088 
L 203.065668 107.171769 
L 217.242233 107.165808 
L 231.418799 107.16189 
L 245.595364 107.159252 
L 259.771929 107.157437 
L 260.444188 107.157377 
" style="fill:none;stroke:#440154;stroke-linecap:square;stroke-width:1.5;"/>
   </g>
   <g id="line2d_13">
    <path clip-path="url(#p06715b766b)" d="M 36.92596 -1 
L 37.199856 6.709174 
L 38.617512 38.020836 
L 40.035169 62.437208 
L 41.452825 81.403234 
L 42.870482 95.907957 
L 44.288139 106.809407 
L 45.705795 114.938353 
L 47.123452 120.843842 
L 48.541108 124.912101 
L 49.958765 127.611148 
L 51.376421 129.281769 
L 52.794078 130.06937 
L 54.211734 130.203413 
L 55.629391 129.923967 
L 57.047047 129.277983 
L 58.464704 128.340435 
L 59.88236 127.280961 
L 61.300017 126.132125 
L 62.717673 124.880294 
L 64.13533 123.626949 
L 65.552986 122.418286 
L 66.970643 121.208865 
L 68.388299 120.038823 
L 69.805956 118.957387 
L 71.223612 117.928206 
L 72.641269 116.949006 
L 74.058925 116.05614 
L 75.476582 115.234461 
L 76.894238 114.463521 
L 78.311895 113.761496 
L 79.729551 113.126872 
L 81.147208 112.540715 
L 82.564864 112.007571 
L 83.982521 111.528194 
L 85.400177 111.092742 
L 86.817834 110.699699 
L 88.235491 110.345279 
L 89.653147 110.028724 
L 91.070804 109.742462 
L 92.48846 109.486492 
L 93.906117 109.257785 
L 95.323773 109.052554 
L 96.74143 108.870043 
L 98.159086 108.70495 
L 99.576743 108.558032 
L 100.994399 108.427018 
L 102.412056 108.30812 
L 103.829712 108.199825 
L 105.247369 108.103647 
L 106.665025 108.015799 
L 108.082682 107.94234 
L 109.500338 107.874183 
L 110.917995 107.811326 
L 112.335651 107.7568 
L 113.753308 107.707575 
L 115.170964 107.664408 
L 116.588621 107.624271 
L 118.006277 107.588677 
L 119.423934 107.555356 
L 120.84159 107.525821 
L 122.259247 107.499315 
L 123.676903 107.475081 
L 125.09456 107.453119 
L 126.512216 107.433429 
L 127.929873 107.415254 
L 129.347529 107.397836 
L 130.765186 107.381932 
L 132.182843 107.368301 
L 133.600499 107.354669 
L 135.018156 107.34331 
L 136.435812 107.33195 
L 137.853469 107.321348 
L 139.271125 107.311503 
L 140.688782 107.302415 
L 142.106438 107.294842 
L 143.524095 107.286512 
L 144.941751 107.279696 
L 146.359408 107.27288 
L 160.535973 107.224412 
L 174.712538 107.197906 
L 188.889103 107.182003 
L 203.065668 107.172158 
L 217.242233 107.1661 
L 231.418799 107.161556 
L 245.595364 107.159284 
L 259.771929 107.157012 
L 260.444188 107.15694 
" style="fill:none;stroke:#355f8d;stroke-linecap:square;stroke-width:1.5;"/>
   </g>
   <g id="line2d_14">
    <path clip-path="url(#p06715b766b)" d="M 38.23306 -1 
L 38.617512 7.912792 
L 41.452825 49.287439 
L 44.288139 75.193359 
L 47.123452 91.324003 
L 49.958765 101.27675 
L 52.794078 107.257991 
L 55.629391 110.653916 
L 58.464704 112.356675 
L 58.748235 112.457402 
L 59.031766 112.548535 
L 59.315298 112.630076 
L 59.598829 112.702024 
L 59.88236 112.764378 
L 60.165891 112.821936 
L 60.449423 112.869901 
L 60.732954 112.908273 
L 61.016485 112.941849 
L 61.300017 112.965831 
L 61.583548 112.985017 
L 61.867079 112.999407 
L 62.150611 113.004203 
L 62.434142 113.009 
L 62.717673 113.004203 
L 63.001205 112.99461 
L 63.284736 112.980221 
L 63.568267 112.961035 
L 63.851798 112.941849 
L 64.13533 112.917866 
L 64.418861 112.884291 
L 64.702392 112.855512 
L 64.985924 112.81714 
L 65.269455 112.778768 
L 65.552986 112.740396 
L 65.836518 112.697227 
L 66.120049 112.649262 
L 66.40358 112.601297 
L 66.687111 112.553332 
L 66.970643 112.50057 
L 69.805956 111.920193 
L 72.641269 111.291851 
L 75.476582 110.697085 
L 78.311895 110.159876 
L 81.147208 109.685022 
L 83.982521 109.282116 
L 86.817834 108.936768 
L 89.653147 108.648977 
L 92.48846 108.399559 
L 95.323773 108.193309 
L 98.159086 108.020635 
L 100.994399 107.87674 
L 103.829712 107.761624 
L 106.665025 107.660897 
L 109.500338 107.584153 
L 112.335651 107.517002 
L 115.170964 107.464241 
L 118.006277 107.416276 
L 120.84159 107.3827 
L 123.676903 107.349125 
L 126.512216 107.325142 
L 129.347529 107.30116 
L 132.182843 107.28677 
L 135.018156 107.272381 
L 137.853469 107.257991 
L 140.688782 107.243602 
L 143.524095 107.234009 
L 146.359408 107.229212 
L 149.194721 107.219619 
L 152.030034 107.214823 
L 154.865347 107.210026 
L 157.70066 107.200433 
L 160.535973 107.195637 
L 163.371286 107.195637 
L 166.206599 107.19084 
L 169.041912 107.186044 
L 171.877225 107.186044 
L 174.712538 107.181247 
L 203.065668 107.166858 
L 231.418799 107.157265 
L 259.771929 107.157265 
L 260.444188 107.157151 
" style="fill:none;stroke:#bddf26;stroke-linecap:square;"/>
   </g>
   <g id="patch_3">
    <path d="M 38.617512 131.13499 
L 38.617512 59.187424 
" style="fill:none;stroke:#000000;stroke-linecap:square;stroke-linejoin:miter;"/>
   </g>
   <g id="patch_4">
    <path d="M 132.182843 131.13499 
L 132.182843 59.187424 
" style="fill:none;stroke:#000000;stroke-linecap:square;stroke-linejoin:miter;"/>
   </g>
   <g id="patch_5">
    <path d="M 38.617512 131.13499 
L 132.182843 131.13499 
" style="fill:none;stroke:#000000;stroke-linecap:square;stroke-linejoin:miter;"/>
   </g>
   <g id="patch_6">
    <path d="M 38.617512 59.187424 
L 132.182843 59.187424 
" style="fill:none;stroke:#000000;stroke-linecap:square;stroke-linejoin:miter;"/>
   </g>
   <g id="text_10">
    <!-- He-He -->
    <g transform="translate(69.471187 53.187424)scale(0.12 -0.12)">
     <defs>
      <path d="M 56.09375 61.015625 
C 56.09375 65.5 57.203125 65.5 64.09375 65.5 
L 64.09375 68 
C 61.203125 68 55.90625 68 52.796875 68 
C 49.703125 68 44.40625 68 41.5 68 
L 41.5 65.5 
C 48.40625 65.5 49.5 65.5 49.5 61 
L 49.5 36.578125 
L 19.703125 36.578125 
L 19.703125 61 
C 19.703125 65.5 20.796875 65.5 27.703125 65.5 
L 27.703125 68 
C 24.796875 68 19.5 68 16.40625 68 
C 13.296875 68 8 68 5.09375 68 
L 5.09375 65.5 
C 12 65.5 13.09375 65.5 13.09375 61.015625 
L 13.09375 6.984375 
C 13.09375 2.5 12 2.5 5.09375 2.5 
L 5.09375 0 
C 8 0 13.296875 0 16.40625 0 
C 19.5 0 24.796875 0 27.703125 0 
L 27.703125 2.5 
C 20.796875 2.5 19.703125 2.5 19.703125 6.96875 
L 19.703125 34 
L 49.5 34 
L 49.5 6.96875 
C 49.5 2.5 48.40625 2.5 41.5 2.5 
L 41.5 0 
C 44.40625 0 49.703125 0 52.796875 0 
C 55.90625 0 61.203125 0 64.09375 0 
L 64.09375 2.5 
C 57.203125 2.5 56.09375 2.5 56.09375 6.984375 
z
" id="CMR17-72"/>
      <path d="M 38.09375 23 
C 38.5 23.40625 38.5 23.609375 38.5 24.625 
C 38.5 34.96875 33.09375 44 21.703125 44 
C 11.09375 44 2.703125 33.890625 2.703125 21.609375 
C 2.703125 8.609375 12.203125 -1 22.796875 -1 
C 34 -1 38.40625 9.484375 38.40625 11.5625 
C 38.40625 12.25 37.796875 12.25 37.59375 12.25 
C 36.90625 12.25 36.796875 12.046875 36.40625 10.875 
C 34.203125 4.140625 28.703125 0.796875 23.5 0.796875 
C 19.203125 0.796875 14.90625 3.171875 12.203125 7.5 
C 9.09375 12.546875 9.09375 18.375 9.09375 23 
z
M 9.203125 24.5 
C 9.90625 39.140625 17.59375 42.40625 21.59375 42.40625 
C 28.40625 42.40625 33 35.890625 33.09375 24.5 
z
" id="CMR17-101"/>
      <path d="M 25.5 19 
L 25.5 23.375 
L 0.40625 23.375 
L 0.40625 19 
z
" id="CMR17-45"/>
     </defs>
     <use transform="scale(0.996264)" xlink:href="#CMR17-72"/>
     <use transform="translate(69.07243 0)scale(0.996264)" xlink:href="#CMR17-101"/>
     <use transform="translate(109.55809 0)scale(0.996264)" xlink:href="#CMR17-45"/>
     <use transform="translate(139.634057 0)scale(0.996264)" xlink:href="#CMR17-72"/>
     <use transform="translate(208.706486 0)scale(0.996264)" xlink:href="#CMR17-101"/>
    </g>
   </g>
  </g>
  <g id="axes_2">
   <g id="patch_7">
    <path d="M 134.989802 131.13499 
L 228.555132 131.13499 
L 228.555132 59.187424 
L 134.989802 59.187424 
z
" style="fill:#ffffff;"/>
   </g>
   <g id="matplotlib.axis_3">
    <g id="xtick_8">
     <g id="line2d_15">
      <g>
       <use style="stroke:#000000;stroke-width:0.5;" x="161.531257" xlink:href="#m150c258bb9" y="131.13499"/>
      </g>
     </g>
     <g id="text_11">
      <!-- $\mathdefault{3}$ -->
      <g transform="translate(159.414166 144.669792)scale(0.08 -0.08)">
       <use transform="scale(0.996264)" xlink:href="#CMR17-51"/>
      </g>
     </g>
    </g>
    <g id="xtick_9">
     <g id="line2d_16">
      <g>
       <use style="stroke:#000000;stroke-width:0.5;" x="188.340807" xlink:href="#m150c258bb9" y="131.13499"/>
      </g>
     </g>
     <g id="text_12">
      <!-- $\mathdefault{4}$ -->
      <g transform="translate(186.223716 144.669792)scale(0.08 -0.08)">
       <use transform="scale(0.996264)" xlink:href="#CMR17-52"/>
      </g>
     </g>
    </g>
    <g id="xtick_10">
     <g id="line2d_17">
      <g>
       <use style="stroke:#000000;stroke-width:0.5;" x="215.150357" xlink:href="#m150c258bb9" y="131.13499"/>
      </g>
     </g>
     <g id="text_13">
      <!-- $\mathdefault{5}$ -->
      <g transform="translate(213.033266 144.669792)scale(0.08 -0.08)">
       <use transform="scale(0.996264)" xlink:href="#CMR17-53"/>
      </g>
     </g>
    </g>
    <g id="xtick_11">
     <g id="line2d_18">
      <g>
       <use style="stroke:#000000;stroke-width:0.6;" x="148.126482" xlink:href="#m26b2f388a8" y="131.13499"/>
      </g>
     </g>
    </g>
    <g id="xtick_12">
     <g id="line2d_19">
      <g>
       <use style="stroke:#000000;stroke-width:0.6;" x="174.936032" xlink:href="#m26b2f388a8" y="131.13499"/>
      </g>
     </g>
    </g>
    <g id="xtick_13">
     <g id="line2d_20">
      <g>
       <use style="stroke:#000000;stroke-width:0.6;" x="201.745582" xlink:href="#m26b2f388a8" y="131.13499"/>
      </g>
     </g>
    </g>
    <g id="xtick_14">
     <g id="line2d_21">
      <g>
       <use style="stroke:#000000;stroke-width:0.6;" x="228.555132" xlink:href="#m26b2f388a8" y="131.13499"/>
      </g>
     </g>
    </g>
    <g id="text_14">
     <!-- $z$(\AA) -->
     <g transform="translate(171.626456 156.899482)scale(0.1 -0.1)">
      <defs>
       <path d="M 12.703125 7.59375 
C 17 12.546875 20.5 15.6875 25.5 20.25 
C 31.5 25.5 34.09375 28.015625 35.5 29.546875 
C 42.5 36.53125 46 42.390625 46 43.1875 
C 46 44 45.203125 44 45 44 
C 44.296875 44 44.09375 43.640625 43.59375 42.96875 
C 41.09375 38.96875 38.703125 36.984375 36.09375 36.984375 
C 34 36.984375 32.90625 37.828125 31 40.078125 
C 28.90625 42.421875 27.203125 44 24.296875 44 
C 17 44 12.59375 35.265625 12.59375 33.25 
C 12.59375 32.9375 12.703125 32.3125 13.59375 32.3125 
C 14.40625 32.3125 14.5 32.671875 14.796875 33.328125 
C 16.5 37.0625 21.296875 37.71875 23.203125 37.71875 
C 25.296875 37.71875 27.296875 37.125 29.40625 36.359375 
C 33.203125 35 34.796875 35 35.796875 35 
C 36.5 35 36.90625 35 37.40625 35.09375 
C 34.09375 31.15625 28.703125 26.296875 24.203125 22.15625 
L 14.09375 12.75 
C 8 6.484375 4.296875 0.515625 4.296875 -0.1875 
C 4.296875 -0.796875 4.796875 -1 5.40625 -1 
C 6 -1 6.09375 -0.890625 6.796875 0.21875 
C 8.40625 2.546875 11.59375 6 15.296875 6 
C 17.40625 6 18.40625 5.34375 20.40625 3.015625 
C 22.296875 0.953125 24 -1 27.203125 -1 
C 37 -1 42.59375 11.4375 42.59375 13.6875 
C 42.59375 14.109375 42.5 14.71875 41.5 14.71875 
C 40.703125 14.71875 40.59375 14.328125 40.296875 13.359375 
C 38.09375 7.625 32.203125 5.28125 28.296875 5.28125 
C 26.203125 5.28125 24.203125 5.875 22.09375 6.640625 
C 18.09375 8 17 8 15.703125 8 
C 14.703125 8 13.59375 8 12.703125 7.59375 
z
" id="CMMI12-122"/>
      </defs>
      <use transform="scale(0.996264)" xlink:href="#CMMI12-122"/>
      <use transform="translate(49.755145 0)scale(0.996264)" xlink:href="#CMR17-40"/>
      <use transform="translate(85.035913 17.618744)scale(0.996264)" xlink:href="#CMR17-23"/>
      <use transform="translate(85.035913 0)scale(0.996264)" xlink:href="#CMR17-65"/>
      <use transform="translate(154.108342 0)scale(0.996264)" xlink:href="#CMR17-41"/>
     </g>
    </g>
   </g>
   <g id="matplotlib.axis_4">
    <g id="ytick_5">
     <g id="line2d_22">
      <defs>
       <path d="M 0 0 
L 4 0 
" id="m1147547c0f" style="stroke:#000000;stroke-width:0.5;"/>
      </defs>
      <g>
       <use style="stroke:#000000;stroke-width:0.5;" x="228.555132" xlink:href="#m1147547c0f" y="131.13499"/>
      </g>
     </g>
     <g id="text_15">
      <!-- $\mathdefault{−400}$ -->
      <g transform="translate(236.555132 133.902391)scale(0.08 -0.08)">
       <use transform="scale(0.996264)" xlink:href="#CMSY10-0"/>
       <use transform="translate(77.487468 0)scale(0.996264)" xlink:href="#CMR17-52"/>
       <use transform="translate(123.177945 0)scale(0.996264)" xlink:href="#CMR17-48"/>
       <use transform="translate(168.868422 0)scale(0.996264)" xlink:href="#CMR17-48"/>
      </g>
     </g>
    </g>
    <g id="ytick_6">
     <g id="line2d_23">
      <g>
       <use style="stroke:#000000;stroke-width:0.5;" x="228.555132" xlink:href="#m1147547c0f" y="113.148098"/>
      </g>
     </g>
     <g id="text_16">
      <!-- $\mathdefault{−200}$ -->
      <g transform="translate(236.555132 115.915499)scale(0.08 -0.08)">
       <defs>
        <path d="M 41.703125 15.453125 
L 39.90625 15.453125 
C 38.90625 8.375 38.09375 7.171875 37.703125 6.5625 
C 37.203125 5.765625 30 5.765625 28.59375 5.765625 
L 9.40625 5.765625 
C 13 9.671875 20 16.75 28.5 24.953125 
C 34.59375 30.734375 41.703125 37.53125 41.703125 47.421875 
C 41.703125 59.21875 32.296875 66 21.796875 66 
C 10.796875 66 4.09375 56.3125 4.09375 47.34375 
C 4.09375 43.4375 7 42.9375 8.203125 42.9375 
C 9.203125 42.9375 12.203125 43.546875 12.203125 47.03125 
C 12.203125 50.109375 9.59375 51 8.203125 51 
C 7.59375 51 7 50.90625 6.59375 50.703125 
C 8.5 59.21875 14.296875 63.40625 20.40625 63.40625 
C 29.09375 63.40625 34.796875 56.515625 34.796875 47.421875 
C 34.796875 38.734375 29.703125 31.25 24 24.75 
L 4.09375 2.28125 
L 4.09375 0 
L 39.296875 0 
z
" id="CMR17-50"/>
       </defs>
       <use transform="scale(0.996264)" xlink:href="#CMSY10-0"/>
       <use transform="translate(77.487468 0)scale(0.996264)" xlink:href="#CMR17-50"/>
       <use transform="translate(123.177945 0)scale(0.996264)" xlink:href="#CMR17-48"/>
       <use transform="translate(168.868422 0)scale(0.996264)" xlink:href="#CMR17-48"/>
      </g>
     </g>
    </g>
    <g id="ytick_7">
     <g id="line2d_24">
      <g>
       <use style="stroke:#000000;stroke-width:0.5;" x="228.555132" xlink:href="#m1147547c0f" y="95.161207"/>
      </g>
     </g>
     <g id="text_17">
      <!-- $\mathdefault{0}$ -->
      <g transform="translate(236.555132 97.928608)scale(0.08 -0.08)">
       <use transform="scale(0.996264)" xlink:href="#CMR17-48"/>
      </g>
     </g>
    </g>
    <g id="ytick_8">
     <g id="line2d_25">
      <g>
       <use style="stroke:#000000;stroke-width:0.5;" x="228.555132" xlink:href="#m1147547c0f" y="77.174315"/>
      </g>
     </g>
     <g id="text_18">
      <!-- $\mathdefault{200}$ -->
      <g transform="translate(236.555132 79.941716)scale(0.08 -0.08)">
       <use transform="scale(0.996264)" xlink:href="#CMR17-50"/>
       <use transform="translate(45.690477 0)scale(0.996264)" xlink:href="#CMR17-48"/>
       <use transform="translate(91.380954 0)scale(0.996264)" xlink:href="#CMR17-48"/>
      </g>
     </g>
    </g>
    <g id="ytick_9">
     <g id="line2d_26">
      <g>
       <use style="stroke:#000000;stroke-width:0.5;" x="228.555132" xlink:href="#m1147547c0f" y="59.187424"/>
      </g>
     </g>
     <g id="text_19">
      <!-- $\mathdefault{400}$ -->
      <g transform="translate(236.555132 61.954825)scale(0.08 -0.08)">
       <use transform="scale(0.996264)" xlink:href="#CMR17-52"/>
       <use transform="translate(45.690477 0)scale(0.996264)" xlink:href="#CMR17-48"/>
       <use transform="translate(91.380954 0)scale(0.996264)" xlink:href="#CMR17-48"/>
      </g>
     </g>
    </g>
   </g>
   <g id="line2d_27">
    <path clip-path="url(#p0ae837c31d)" d="M 134.721707 7.044658 
L 136.062184 36.049266 
L 137.402662 57.340625 
L 138.743139 72.955999 
L 140.083617 84.376569 
L 141.424094 92.68578 
L 142.764572 98.680596 
L 144.105049 102.950264 
L 145.445527 105.932491 
L 146.786004 107.953778 
L 148.126482 109.258578 
L 149.466959 110.030495 
L 150.807437 110.407794 
L 152.147915 110.494817 
L 153.488392 110.370411 
L 154.82887 110.094202 
L 156.169347 109.711276 
L 157.509825 109.255684 
L 158.850302 108.753088 
L 160.19078 108.222756 
L 161.531257 107.679075 
L 162.871735 107.132707 
L 164.212212 106.591462 
L 165.55269 106.060973 
L 166.893167 105.545214 
L 168.233645 105.046892 
L 169.574122 104.567754 
L 170.9146 104.108819 
L 172.255077 103.670562 
L 173.595555 103.253053 
L 174.936032 102.856061 
L 176.27651 102.479142 
L 177.616987 102.121697 
L 178.957465 101.783026 
L 180.297942 101.462361 
L 181.63842 101.158896 
L 182.978897 100.871808 
L 184.319375 100.600274 
L 185.659852 100.343482 
L 187.00033 100.100637 
L 188.340807 99.870971 
L 189.681285 99.653745 
L 191.021762 99.448252 
L 192.36224 99.253818 
L 193.702717 99.069802 
L 195.043195 98.895597 
L 196.383672 98.730631 
L 197.72415 98.574363 
L 199.064627 98.426282 
L 200.405105 98.285909 
L 201.745582 98.152793 
L 203.08606 98.026512 
L 204.426537 97.906667 
L 205.767015 97.792885 
L 207.107492 97.684816 
L 208.44797 97.582131 
L 209.788447 97.484523 
L 211.128925 97.391702 
L 212.469402 97.303398 
L 213.80988 97.219357 
L 215.150357 97.13934 
L 228.555132 96.517478 
L 241.959908 96.120753 
L 255.364683 95.85864 
L 260.444188 95.790971 
" style="fill:none;stroke:#440154;stroke-linecap:square;stroke-width:1.5;"/>
   </g>
   <g id="line2d_28">
    <path clip-path="url(#p0ae837c31d)" d="M 140.132214 -1 
L 141.424094 20.583441 
L 142.764572 39.547053 
L 144.105049 55.530467 
L 145.445527 68.929141 
L 146.786004 80.094088 
L 148.126482 89.335709 
L 149.466959 96.928764 
L 150.807437 103.112233 
L 152.147915 108.090729 
L 153.488392 112.038056 
L 154.82887 115.10345 
L 156.169347 117.417689 
L 157.509825 119.102179 
L 158.850302 120.264268 
L 160.19078 120.995828 
L 161.531257 121.370269 
L 162.871735 121.443539 
L 164.212212 121.264483 
L 165.55269 120.880102 
L 166.893167 120.336402 
L 168.233645 119.67371 
L 169.574122 118.924543 
L 170.9146 118.109774 
L 172.255077 117.241473 
L 173.595555 116.331141 
L 174.936032 115.397238 
L 176.27651 114.460637 
L 177.616987 113.5371 
L 178.957465 112.63259 
L 180.297942 111.743984 
L 181.63842 110.872275 
L 182.978897 110.023285 
L 184.319375 109.205676 
L 185.659852 108.42314 
L 187.00033 107.674825 
L 188.340807 106.959027 
L 189.681285 106.278727 
L 191.021762 105.633785 
L 192.36224 105.022637 
L 193.702717 104.445426 
L 195.043195 103.900448 
L 196.383672 103.385006 
L 197.72415 102.898104 
L 199.064627 102.440595 
L 200.405105 102.012337 
L 201.745582 101.610633 
L 203.08606 101.233493 
L 204.426537 100.876943 
L 205.767015 100.541834 
L 207.107492 100.229302 
L 208.44797 99.936082 
L 209.788447 99.660753 
L 211.128925 99.403032 
L 212.469402 99.161782 
L 213.80988 98.936151 
L 215.150357 98.725288 
L 228.555132 97.252797 
L 241.959908 96.485455 
L 255.364683 96.054783 
L 260.444188 95.956102 
" style="fill:none;stroke:#355f8d;stroke-linecap:square;stroke-width:1.5;"/>
   </g>
   <g id="line2d_29">
    <path clip-path="url(#p0ae837c31d)" d="M 142.764572 76.881129 
L 145.445527 98.393451 
L 148.126482 112.639069 
L 153.488392 126.801048 
L 153.488392 126.801048 
L 156.169347 129.35159 
L 156.169347 129.35159 
L 157.77792 129.966741 
L 158.046016 130.015306 
L 158.314111 130.05038 
L 158.850302 130.082757 
L 158.850302 130.082757 
L 159.386493 130.065669 
L 159.654589 130.039588 
L 159.922684 130.003615 
L 160.19078 129.956849 
L 161.531257 129.581822 
L 164.212212 128.264282 
L 164.212212 128.264282 
L 166.893167 126.417028 
L 166.893167 126.417028 
L 169.574122 124.246011 
L 174.936032 119.475887 
L 188.340807 108.637885 
L 215.150357 98.609294 
L 241.959908 96.352839 
L 260.444188 96.044355 
" style="fill:none;stroke:#bddf26;stroke-linecap:square;"/>
   </g>
   <g id="line2d_30">
    <path clip-path="url(#p0ae837c31d)" d="M 129.589122 -1 
L 130.432179 17.275265 
L 131.504561 36.708991 
L 132.576943 52.588854 
L 133.649325 65.531448 
L 134.721707 76.045887 
L 135.794089 84.553268 
L 136.866471 91.402309 
L 137.938853 96.882042 
L 139.011235 101.232158 
L 140.083617 104.651498 
L 141.155999 107.30504 
L 142.228381 109.329661 
L 143.300763 110.83891 
L 144.373145 111.926955 
L 145.445527 112.671862 
L 146.517909 113.138311 
L 147.590291 113.379854 
L 148.930768 113.43225 
L 150.539341 113.219349 
L 152.41601 112.705611 
L 154.82887 111.785827 
L 158.850302 109.966636 
L 165.55269 106.939896 
L 169.842218 105.246401 
L 174.131746 103.787193 
L 178.689369 102.479563 
L 183.515088 101.333308 
L 188.876998 100.298379 
L 194.775099 99.39165 
L 201.477487 98.588006 
L 209.520352 97.859026 
L 218.903694 97.238237 
L 230.699896 96.69279 
L 241.959908 96.331849 
L 241.959908 96.331849 
" style="fill:none;stroke:#22a884;stroke-linecap:square;"/>
   </g>
   <g id="patch_8">
    <path d="M 134.989802 131.13499 
L 134.989802 59.187424 
" style="fill:none;stroke:#000000;stroke-linecap:square;stroke-linejoin:miter;"/>
   </g>
   <g id="patch_9">
    <path d="M 228.555132 131.13499 
L 228.555132 59.187424 
" style="fill:none;stroke:#000000;stroke-linecap:square;stroke-linejoin:miter;"/>
   </g>
   <g id="patch_10">
    <path d="M 134.989802 131.13499 
L 228.555132 131.13499 
" style="fill:none;stroke:#000000;stroke-linecap:square;stroke-linejoin:miter;"/>
   </g>
   <g id="patch_11">
    <path d="M 134.989802 59.187424 
L 228.555132 59.187424 
" style="fill:none;stroke:#000000;stroke-linecap:square;stroke-linejoin:miter;"/>
   </g>
   <g id="text_20">
    <!-- He-Graphene -->
    <g transform="translate(148.079716 53.187424)scale(0.12 -0.12)">
     <defs>
      <path d="M 62.09375 19.265625 
C 62.09375 23.015625 62.40625 23.515625 68.59375 23.515625 
L 68.59375 26.09375 
C 66.203125 26 60.796875 26 58.09375 26 
C 55.296875 26 47.5 26 43.703125 26 
L 43.703125 23.515625 
L 46.703125 23.515625 
C 55.296875 23.515625 55.5 22.40625 55.5 18.765625 
L 55.5 12.09375 
C 55.5 0.984375 42.5 0.984375 39.40625 0.984375 
C 29.09375 0.984375 12.203125 7.984375 12.203125 33.75 
C 12.203125 59.5 28.796875 66.40625 38.5 66.40625 
C 49.796875 66.40625 58 56.65625 59.90625 42.828125 
C 60.09375 41.625 60.09375 41.421875 61 41.421875 
C 62.09375 41.421875 62.09375 41.625 62.09375 43.421875 
L 62.09375 67 
C 62.09375 68.78125 62 68.890625 61.40625 68.890625 
C 61 68.890625 60.90625 68.78125 60.203125 67.59375 
L 55.796875 59.234375 
C 50.90625 65.421875 44.90625 69 37.203125 69 
C 20.09375 69 4.59375 54 4.59375 33.5625 
C 4.59375 13.203125 19.796875 -2 37.40625 -2 
C 45.5 -2 53.40625 0.875 56.5 6.515625 
C 58.203125 2.46875 61 -0.3125 61.5 -0.3125 
C 62 -0.3125 62.09375 -0.203125 62.09375 1.5625 
z
" id="CMR17-71"/>
      <path d="M 15 23.390625 
C 15 33 19.09375 42 26.59375 42 
C 27.296875 42 28 41.90625 28.703125 41.59375 
C 28.703125 41.59375 26.5 40.890625 26.5 38.3125 
C 26.5 35.90625 28.40625 34.90625 29.90625 34.90625 
C 31.09375 34.90625 33.296875 35.609375 33.296875 38.40625 
C 33.296875 41.609375 30.09375 43.59375 26.703125 43.59375 
C 19.09375 43.59375 15.796875 36.203125 14.796875 32.703125 
L 14.703125 32.703125 
L 14.703125 43.59375 
L 3.09375 42.5 
L 3.09375 39.90625 
C 9 39.90625 9.90625 39.296875 9.90625 34.5 
L 9.90625 6.6875 
C 9.90625 2.875 9.5 2.390625 3.09375 2.390625 
L 3.09375 -0.203125 
C 5.5 0 10.09375 0 12.703125 0 
C 15.59375 0 20.703125 0 23.40625 -0.203125 
L 23.40625 2.390625 
C 16.203125 2.390625 15 2.390625 15 6.875 
z
" id="CMR17-114"/>
      <path d="M 36 25.828125 
C 36 32.375 36 35.84375 31.796875 39.734375 
C 28.09375 43 23.796875 44 20.40625 44 
C 12.5 44 6.796875 37.609375 6.796875 30.796875 
C 6.796875 27 9.796875 27 10.40625 27 
C 11.703125 27 14 27.78125 14 30.53125 
C 14 33 12.09375 34.078125 10.40625 34.078125 
C 10 34.078125 9.5 33.96875 9.203125 33.875 
C 11.296875 40.5 16.703125 42.40625 20.203125 42.40625 
C 25.203125 42.40625 30.703125 37.953125 30.703125 29.453125 
L 30.703125 25 
C 24.796875 25 17.703125 24.203125 12.09375 21.203125 
C 5.796875 17.703125 4 12.703125 4 8.90625 
C 4 1.203125 13 -1 18.296875 -1 
C 23.796875 -1 28.90625 2.171875 31.09375 7.984375 
C 31.296875 3.640625 34.09375 -0.28125 38.5 -0.28125 
C 40.59375 -0.28125 45.90625 1.09375 45.90625 8.859375 
L 45.90625 14.375 
L 44.09375 14.375 
L 44.09375 8.78125 
C 44.09375 2.78125 41.40625 2 40.09375 2 
C 36 2 36 7.15625 36 11.53125 
z
M 30.703125 13.59375 
C 30.703125 4.953125 24.5 0.59375 19 0.59375 
C 14 0.59375 10.09375 4.296875 10.09375 8.90625 
C 10.09375 11.890625 11.40625 17.1875 17.203125 20.390625 
C 22 23.09375 27.5 23.5 30.703125 23.5 
z
" id="CMR17-97"/>
      <path d="M 22 -16.609375 
C 15.59375 -16.609375 15.203125 -16.203125 15.203125 -12.328125 
L 15.203125 6.28125 
C 18.09375 2.09375 22.296875 -0.59375 27.59375 -0.59375 
C 37.59375 -0.59375 47.703125 8.171875 47.703125 21.6875 
C 47.703125 34.234375 39 43.78125 28.703125 43.78125 
C 22.703125 43.78125 17.796875 40.5 15 36.53125 
L 15 43.78125 
L 3.09375 42.6875 
L 3.09375 40.109375 
C 9 40.109375 9.90625 39.5 9.90625 34.734375 
L 9.90625 -12.328125 
C 9.90625 -16.109375 9.5 -16.609375 3.09375 -16.609375 
L 3.09375 -19.1875 
C 5.5 -19 9.90625 -19 12.5 -19 
C 15.09375 -19 19.59375 -19 22 -19.1875 
z
M 15.203125 31.4375 
C 15.203125 32.84375 15.203125 34.921875 19.09375 38.609375 
C 19.59375 39.015625 23 42 28 42 
C 35.296875 42 41.296875 32.9375 41.296875 21.59375 
C 41.296875 10.25 34.90625 1 27 1 
C 23.40625 1 19.5 2.6875 16.5 7.375 
C 15.203125 9.5625 15.203125 10.15625 15.203125 11.75 
z
" id="CMR17-112"/>
      <path d="M 41.5 30.203125 
C 41.5 35.296875 40.5 43.59375 28.703125 43.59375 
C 20.5 43.59375 16.5 37 15.296875 33.703125 
L 15.203125 33.703125 
L 15.203125 68.6875 
L 3.296875 67.59375 
L 3.296875 65 
C 9.203125 65 10.09375 64.40625 10.09375 59.640625 
L 10.09375 6.65625 
C 10.09375 2.875 9.703125 2.390625 3.296875 2.390625 
L 3.296875 -0.203125 
C 5.703125 0 10.09375 0 12.703125 0 
C 15.296875 0 19.796875 0 22.203125 -0.203125 
L 22.203125 2.390625 
C 15.796875 2.390625 15.40625 2.78125 15.40625 6.6875 
L 15.40625 25.90625 
C 15.40625 35.109375 21 42 28 42 
C 35.40625 42 36.203125 35.40625 36.203125 30.59375 
L 36.203125 6.6875 
C 36.203125 2.875 35.796875 2.390625 29.40625 2.390625 
L 29.40625 -0.203125 
C 31.796875 0 36.203125 0 38.796875 0 
C 41.40625 0 45.90625 0 48.296875 -0.203125 
L 48.296875 2.390625 
C 41.90625 2.390625 41.5 2.78125 41.5 6.6875 
z
" id="CMR17-104"/>
      <path d="M 41.5 30.203125 
C 41.5 35.296875 40.5 43.59375 28.703125 43.59375 
C 20.796875 43.59375 16.703125 37.5 15.203125 33.5 
L 15.09375 33.5 
L 15.09375 43.59375 
L 3.296875 42.5 
L 3.296875 39.90625 
C 9.203125 39.90625 10.09375 39.296875 10.09375 34.5 
L 10.09375 6.6875 
C 10.09375 2.875 9.703125 2.390625 3.296875 2.390625 
L 3.296875 -0.203125 
C 5.703125 0 10.09375 0 12.703125 0 
C 15.296875 0 19.796875 0 22.203125 -0.203125 
L 22.203125 2.390625 
C 15.796875 2.390625 15.40625 2.78125 15.40625 6.6875 
L 15.40625 25.90625 
C 15.40625 35.109375 21 42 28 42 
C 35.40625 42 36.203125 35.40625 36.203125 30.59375 
L 36.203125 6.6875 
C 36.203125 2.875 35.796875 2.390625 29.40625 2.390625 
L 29.40625 -0.203125 
C 31.796875 0 36.203125 0 38.796875 0 
C 41.40625 0 45.90625 0 48.296875 -0.203125 
L 48.296875 2.390625 
C 41.90625 2.390625 41.5 2.78125 41.5 6.6875 
z
" id="CMR17-110"/>
     </defs>
     <use transform="scale(0.996264)" xlink:href="#CMR17-72"/>
     <use transform="translate(69.07243 0)scale(0.996264)" xlink:href="#CMR17-101"/>
     <use transform="translate(109.55809 0)scale(0.996264)" xlink:href="#CMR17-45"/>
     <use transform="translate(139.634057 0)scale(0.996264)" xlink:href="#CMR17-71"/>
     <use transform="translate(211.989403 0)scale(0.996264)" xlink:href="#CMR17-114"/>
     <use transform="translate(247.27017 0)scale(0.996264)" xlink:href="#CMR17-97"/>
     <use transform="translate(292.960647 0)scale(0.996264)" xlink:href="#CMR17-112"/>
     <use transform="translate(343.856017 0)scale(0.996264)" xlink:href="#CMR17-104"/>
     <use transform="translate(394.751387 0)scale(0.996264)" xlink:href="#CMR17-101"/>
     <use transform="translate(435.237047 0)scale(0.996264)" xlink:href="#CMR17-110"/>
     <use transform="translate(486.132417 0)scale(0.996264)" xlink:href="#CMR17-101"/>
    </g>
   </g>
  </g>
  <g id="legend_1">
   <g id="patch_12">
    <path d="M 25.756804 34.713741 
L 233.687383 34.713741 
Q 235.687383 34.713741 235.687383 32.713741 
L 235.687383 7 
Q 235.687383 5 233.687383 5 
L 25.756804 5 
Q 23.756804 5 23.756804 7 
L 23.756804 32.713741 
Q 23.756804 34.713741 25.756804 34.713741 
z
" style="fill:#ffffff;opacity:0.8;stroke:#cccccc;stroke-linejoin:miter;"/>
   </g>
   <g id="line2d_31">
    <path d="M 27.756804 13.098438 
L 47.756804 13.098438 
" style="fill:none;stroke:#bddf26;stroke-linecap:square;"/>
   </g>
   <g id="line2d_32"/>
   <g id="text_21">
    <!-- MP2 -->
    <g transform="translate(52.756804 16.598438)scale(0.1 -0.1)">
     <defs>
      <path d="M 20.90625 66 
C 20.296875 67.5 20.203125 67.5 18.09375 67.5 
L 5.296875 67.5 
L 5.296875 65 
C 12.203125 65 13.296875 65 13.296875 60.546875 
L 13.296875 9.53125 
C 13.296875 7.046875 13.296875 2.390625 5.296875 2.390625 
L 5.296875 -0.203125 
C 7.59375 0 11.796875 0 14.296875 0 
C 16.796875 0 21 0 23.296875 -0.203125 
L 23.296875 2.390625 
C 15.296875 2.390625 15.296875 7.046875 15.296875 9.53125 
L 15.296875 64.609375 
L 15.40625 64.609375 
L 38.90625 1.390625 
C 39.296875 0.390625 39.5 -0.203125 40.296875 -0.203125 
C 41.09375 -0.203125 41.296875 0.390625 41.703125 1.390625 
L 65.40625 65.09375 
L 65.5 65.09375 
L 65.5 6.84375 
C 65.5 2.390625 64.40625 2.390625 57.5 2.390625 
L 57.5 -0.203125 
C 60.203125 0 65.59375 0 68.5 0 
C 71.40625 0 76.90625 0 79.59375 -0.203125 
L 79.59375 2.390625 
C 72.703125 2.390625 71.59375 2.390625 71.59375 6.84375 
L 71.59375 60.546875 
C 71.59375 65 72.703125 65 79.59375 65 
L 79.59375 67.5 
L 66.90625 67.5 
C 64.796875 67.5 64.703125 67.40625 64.09375 65.90625 
L 42.5 7.84375 
z
" id="CMR17-77"/>
      <path d="M 19.796875 31.90625 
L 35.796875 31.90625 
C 48.703125 31.90625 58.09375 40.28125 58.09375 49.75 
C 58.09375 59.234375 48.90625 68 35.796875 68 
L 5.203125 68 
L 5.203125 65.40625 
C 12.09375 65.40625 13.203125 65.40625 13.203125 60.921875 
L 13.203125 6.96875 
C 13.203125 2.5 12.09375 2.5 5.203125 2.5 
L 5.203125 0 
C 8.09375 0 13.40625 0 16.5 0 
C 19.59375 0 24.90625 0 27.796875 0 
L 27.796875 2.5 
C 20.90625 2.5 19.796875 2.5 19.796875 6.96875 
z
M 19.59375 34 
L 19.59375 61.53125 
C 19.59375 64.921875 19.796875 65.40625 23.796875 65.40625 
L 33.90625 65.40625 
C 46.796875 65.40625 50.5 58.03125 50.5 49.75 
C 50.5 40.6875 46.09375 34 33.90625 34 
z
" id="CMR17-80"/>
     </defs>
     <use transform="scale(0.996264)" xlink:href="#CMR17-77"/>
     <use transform="translate(84.686941 0)scale(0.996264)" xlink:href="#CMR17-80"/>
     <use transform="translate(147.273241 0)scale(0.996264)" xlink:href="#CMR17-50"/>
    </g>
   </g>
   <g id="line2d_33">
    <path d="M 27.756804 25.276563 
L 47.756804 25.276563 
" style="fill:none;stroke:#440154;stroke-linecap:square;stroke-width:1.5;"/>
   </g>
   <g id="line2d_34"/>
   <g id="text_22">
    <!-- QMC -->
    <g transform="translate(52.756804 28.776563)scale(0.1 -0.1)">
     <defs>
      <path d="M 47.296875 1.296875 
C 59.203125 6.375 67.296875 19.3125 67.296875 34.265625 
C 67.296875 54.671875 52.59375 70 36 70 
C 19 70 4.59375 54.5 4.59375 34.359375 
C 4.59375 14.5 19 -1 36 -1 
C 38.296875 -1 41.5 -0.703125 45.296875 0.59375 
C 47 -11.671875 48.09375 -19 56.703125 -19 
C 67.296875 -19 67.796875 -3.328125 67.796875 -0.515625 
C 67.796875 0.5 67.796875 1.1875 67.09375 1.1875 
C 66.59375 1.1875 66.5 0.484375 66.5 0.28125 
C 65.796875 -9.421875 60.40625 -11.4375 57.203125 -11.4375 
C 51.296875 -11.4375 49.203125 -6.15625 47.296875 1.296875 
z
M 30.59375 1.5625 
C 20.203125 4.84375 12 15.890625 12 34.359375 
C 12 57.984375 25.09375 68.203125 35.90625 68.203125 
C 47.09375 68.203125 59.90625 57.59375 59.90625 34.34375 
C 59.90625 17.5625 53.203125 8.234375 46.5 3.96875 
C 45 9.046875 42.59375 15 36.09375 15 
C 31.296875 15 28.59375 10.8125 28.59375 7.03125 
C 28.59375 4.75 29.5 2.859375 30.59375 1.5625 
z
M 44.90625 3 
C 40.90625 0.890625 37.703125 0.890625 36 0.890625 
C 31.5 0.890625 30.203125 4.921875 30.203125 7.09375 
C 30.203125 10.15625 32.296875 13.40625 36.09375 13.40625 
C 42.5 13.40625 44.09375 7.703125 44.90625 3 
z
" id="CMR17-81"/>
      <path d="M 62.09375 67.015625 
C 62.09375 68.796875 62 68.90625 61.40625 68.90625 
C 61 68.90625 60.90625 68.796875 60.203125 67.609375 
L 55.796875 59.25 
C 50.90625 65.421875 44.90625 69 37.203125 69 
C 20.09375 69 4.59375 54 4.59375 33.5625 
C 4.59375 12.90625 20.09375 -2 37.296875 -2 
C 52.59375 -2 62.09375 11.40625 62.09375 22.828125 
C 62.09375 23.8125 62.09375 24.21875 61.203125 24.21875 
C 60.40625 24.21875 60.40625 23.921875 60.296875 23.03125 
C 59.5 9.140625 49.5 0.59375 38.703125 0.59375 
C 28.5 0.59375 12.203125 7.734375 12.203125 33.546875 
C 12.203125 59.453125 28.796875 66.40625 38.5 66.40625 
C 49.796875 66.40625 58 56.6875 59.90625 42.890625 
C 60.09375 41.6875 60.09375 41.484375 61 41.484375 
C 62.09375 41.484375 62.09375 41.6875 62.09375 43.484375 
z
" id="CMR17-67"/>
     </defs>
     <use transform="scale(0.996264)" xlink:href="#CMR17-81"/>
     <use transform="translate(71.714788 0)scale(0.996264)" xlink:href="#CMR17-77"/>
     <use transform="translate(156.401729 0)scale(0.996264)" xlink:href="#CMR17-67"/>
    </g>
   </g>
   <g id="line2d_35">
    <path d="M 96.833235 13.098438 
L 116.833235 13.098438 
" style="fill:none;stroke:#355f8d;stroke-linecap:square;stroke-width:1.5;"/>
   </g>
   <g id="line2d_36"/>
   <g id="text_23">
    <!-- DFT -->
    <g transform="translate(121.833235 16.598438)scale(0.1 -0.1)">
     <defs>
      <path d="M 5.203125 68 
L 5.203125 65.40625 
C 12.09375 65.40625 13.203125 65.40625 13.203125 60.9375 
L 13.203125 7.0625 
C 13.203125 2.59375 12.09375 2.59375 5.203125 2.59375 
L 5.203125 0 
L 37 0 
C 53.09375 0 66 14.734375 66 33.453125 
C 66 52.28125 53.296875 68 37 68 
z
M 23.796875 2.59375 
C 19.796875 2.59375 19.59375 3.078125 19.59375 6.46875 
L 19.59375 61.53125 
C 19.59375 64.921875 19.796875 65.40625 23.796875 65.40625 
L 35 65.40625 
C 43.296875 65.40625 58.59375 60.53125 58.59375 33.453125 
C 58.59375 19.40625 54.5 13.734375 52.59375 11.046875 
C 50.203125 7.96875 44.5 2.59375 35 2.59375 
z
" id="CMR17-68"/>
      <path d="M 54.40625 67.578125 
L 5.09375 67.578125 
L 5.09375 65 
C 12 65 13.09375 65 13.09375 60.53125 
L 13.09375 6.96875 
C 13.09375 2.5 12 2.5 5.09375 2.5 
L 5.09375 0 
C 8 0 13.59375 0 16.703125 0 
C 20.796875 0 25.59375 0 29.703125 0 
L 29.703125 2.5 
L 27.5 2.5 
C 19.90625 2.5 19.703125 3.484375 19.703125 7.0625 
L 19.703125 32.421875 
L 28.703125 32.421875 
C 38 32.421875 38.90625 29.140625 38.90625 20.8125 
L 40.703125 20.8125 
L 40.703125 46.671875 
L 38.90625 46.671875 
C 38.90625 38.28125 38 35 28.703125 35 
L 19.703125 35 
L 19.703125 61.109375 
C 19.703125 64.5 19.90625 65 23.90625 65 
L 36.796875 65 
C 51.90625 65 53.59375 58.828125 55 45.5625 
L 56.796875 45.5625 
z
" id="CMR17-70"/>
      <path d="M 62.203125 67.59375 
L 4.5 67.59375 
L 2.796875 45.59375 
L 4.59375 45.59375 
C 5.90625 62.125 7.296875 65 22.703125 65 
C 24.5 65 27.40625 65 28.203125 64.90625 
C 30.09375 64.609375 30.09375 63.40625 30.09375 61.125 
L 30.09375 7.171875 
C 30.09375 3.59375 29.796875 2.5 21.5 2.5 
L 18.703125 2.5 
L 18.703125 0 
C 23.5 0 28.5 0 33.40625 0 
C 38.296875 0 43.296875 0 48.09375 0 
L 48.09375 2.5 
L 45.296875 2.5 
C 37 2.5 36.703125 3.59375 36.703125 7.171875 
L 36.703125 61.125 
C 36.703125 63.3125 36.703125 64.515625 38.5 64.90625 
C 39.296875 65 42.203125 65 44 65 
C 59.296875 65 60.796875 62.125 62.09375 45.59375 
L 63.90625 45.59375 
z
" id="CMR17-84"/>
     </defs>
     <use transform="scale(0.996264)" xlink:href="#CMR17-68"/>
     <use transform="translate(70.393556 0)scale(0.996264)" xlink:href="#CMR17-70"/>
     <use transform="translate(130.377402 0)scale(0.996264)" xlink:href="#CMR17-84"/>
    </g>
   </g>
   <g id="line2d_37">
    <path d="M 163.142258 13.098438 
L 183.142258 13.098438 
" style="fill:none;stroke:#22a884;stroke-linecap:square;"/>
   </g>
   <g id="line2d_38"/>
   <g id="text_24">
    <!-- Graphite? -->
    <g transform="translate(188.142258 16.598438)scale(0.1 -0.1)">
     <defs>
      <path d="M 15.5 61.078125 
C 15.5 63.265625 13.703125 65.15625 11.40625 65.15625 
C 9.203125 65.15625 7.296875 63.375 7.296875 61.078125 
C 7.296875 58.890625 9.09375 57 11.40625 57 
C 13.59375 57 15.5 58.796875 15.5 61.078125 
z
M 3.796875 42.28125 
L 3.796875 39.703125 
C 9.40625 39.703125 10.203125 39.09375 10.203125 34.328125 
L 10.203125 6.671875 
C 10.203125 2.875 9.796875 2.390625 3.40625 2.390625 
L 3.40625 -0.203125 
C 5.796875 0 10.09375 0 12.59375 0 
C 15 0 19.09375 0 21.40625 -0.203125 
L 21.40625 2.390625 
C 15.5 2.390625 15.296875 2.984375 15.296875 6.5625 
L 15.296875 43.375 
z
" id="CMR17-105"/>
      <path d="M 15.09375 40 
L 29.09375 40 
L 29.09375 42.578125 
L 15.09375 42.578125 
L 15.09375 61 
L 13.296875 61 
C 13.09375 50.703125 9.59375 41.6875 1.09375 41.6875 
L 1.09375 40 
L 9.796875 40 
L 9.796875 12.046875 
C 9.796875 10.15625 9.796875 -1 21.40625 -1 
C 27.296875 -1 30.703125 4.78125 30.703125 12.140625 
L 30.703125 17.8125 
L 28.90625 17.8125 
L 28.90625 12.234375 
C 28.90625 5.375 26.203125 0.796875 22 0.796875 
C 19.09375 0.796875 15.09375 2.78125 15.09375 11.84375 
z
" id="CMR17-116"/>
      <path d="M 21.09375 22.453125 
C 21.09375 31.828125 25.90625 40.109375 33.09375 45.78125 
C 35 47.171875 38.5 49.96875 38.5 56.25 
C 38.5 64.328125 32.40625 70 20.59375 70 
C 10.59375 70 4.59375 63.203125 4.59375 56.6875 
C 4.59375 52.84375 7.90625 52.84375 8.203125 52.84375 
C 9.296875 52.84375 11.796875 53.53125 11.796875 56.421875 
C 11.796875 58.90625 9.90625 60 8.203125 60 
C 7.796875 60 7.296875 59.90625 7 59.8125 
C 9.09375 65.96875 15.09375 68.40625 20.40625 68.40625 
C 32 68.40625 32.09375 60.4375 32.09375 56.75 
C 32.09375 50.671875 30.203125 48.5625 28.296875 46.578125 
C 21.703125 39.515625 19.296875 30.140625 19.296875 22.859375 
L 19.296875 18.96875 
C 19.296875 17.28125 19.296875 16.890625 20.203125 16.890625 
C 21.09375 16.890625 21.09375 17.28125 21.09375 18.96875 
z
M 24.296875 4.078125 
C 24.296875 6.265625 22.5 8.15625 20.203125 8.15625 
C 18 8.15625 16.09375 6.375 16.09375 4.078125 
C 16.09375 1.890625 17.90625 0 20.203125 0 
C 22.40625 0 24.296875 1.796875 24.296875 4.078125 
z
" id="CMR17-63"/>
     </defs>
     <use transform="scale(0.996264)" xlink:href="#CMR17-71"/>
     <use transform="translate(72.355346 0)scale(0.996264)" xlink:href="#CMR17-114"/>
     <use transform="translate(107.636114 0)scale(0.996264)" xlink:href="#CMR17-97"/>
     <use transform="translate(153.326591 0)scale(0.996264)" xlink:href="#CMR17-112"/>
     <use transform="translate(204.221961 0)scale(0.996264)" xlink:href="#CMR17-104"/>
     <use transform="translate(255.11733 0)scale(0.996264)" xlink:href="#CMR17-105"/>
     <use transform="translate(279.988389 0)scale(0.996264)" xlink:href="#CMR17-116"/>
     <use transform="translate(315.269157 0)scale(0.996264)" xlink:href="#CMR17-101"/>
     <use transform="translate(355.754817 0)scale(0.996264)" xlink:href="#CMR17-63"/>
    </g>
   </g>
  </g>
 </g>
 <defs>
  <clipPath id="p06715b766b">
   <rect height="71.947566" width="93.56533" x="38.617512" y="59.187424"/>
  </clipPath>
  <clipPath id="p0ae837c31d">
   <rect height="71.947566" width="93.56533" x="134.989802" y="59.187424"/>
  </clipPath>
 </defs>
</svg>
