<?xml version="1.0" encoding="utf-8" standalone="no"?>
<!DOCTYPE svg PUBLIC "-//W3C//DTD SVG 1.1//EN"
  "http://www.w3.org/Graphics/SVG/1.1/DTD/svg11.dtd">
<!-- Created with matplotlib (https://matplotlib.org/) -->
<svg height="127.768875pt" version="1.1" viewBox="0 0 230.21404 127.768875" width="230.21404pt" xmlns="http://www.w3.org/2000/svg" xmlns:xlink="http://www.w3.org/1999/xlink">
 <metadata>
  <rdf:RDF xmlns:cc="http://creativecommons.org/ns#" xmlns:dc="http://purl.org/dc/elements/1.1/" xmlns:rdf="http://www.w3.org/1999/02/22-rdf-syntax-ns#">
   <cc:Work>
    <dc:type rdf:resource="http://purl.org/dc/dcmitype/StillImage"/>
    <dc:date>2021-02-20T11:02:40.203859</dc:date>
    <dc:format>image/svg+xml</dc:format>
    <dc:creator>
     <cc:Agent>
      <dc:title>Matplotlib v3.3.2, https://matplotlib.org/</dc:title>
     </cc:Agent>
    </dc:creator>
   </cc:Work>
  </rdf:RDF>
 </metadata>
 <defs>
  <style type="text/css">*{stroke-linecap:butt;stroke-linejoin:round;}</style>
 </defs>
 <g id="figure_1">
  <g id="patch_1">
   <path d="M 0 127.768875 
L 230.21404 127.768875 
L 230.21404 0 
L 0 0 
z
" style="fill:none;"/>
  </g>
  <g id="axes_1">
   <g id="patch_2">
    <path d="M 36.676967 115.078763 
L 226.614587 115.078763 
L 226.614587 0.72 
L 36.676967 0.72 
z
" style="fill:#ffffff;"/>
   </g>
   <g id="PolyCollection_1">
    <defs>
     <path d="M 36.676967 -37.133418 
L 36.676967 -17.888238 
L 39.573717 -17.888238 
L 42.470466 -17.888238 
L 45.367216 -17.888238 
L 48.263966 -17.888238 
L 51.160716 -17.888238 
L 54.057465 -17.888238 
L 56.954215 -17.888238 
L 59.850965 -17.888238 
L 62.747715 -17.888238 
L 65.644464 -17.888238 
L 68.541214 -17.888238 
L 71.437964 -17.888238 
L 74.334714 -17.888238 
L 77.231463 -17.888238 
L 80.128213 -17.888238 
L 83.024963 -17.888238 
L 85.921713 -17.888238 
L 88.818462 -17.888238 
L 91.715212 -17.888238 
L 94.611962 -17.888238 
L 97.508712 -17.888238 
L 100.405461 -17.888238 
L 103.302211 -17.888238 
L 106.198961 -17.888238 
L 111.216279 -17.888238 
L 116.233596 -17.888238 
L 121.250914 -17.888238 
L 126.268232 -17.888238 
L 131.28555 -17.888238 
L 136.302867 -17.888238 
L 141.320185 -17.888238 
L 146.337503 -17.888238 
L 156.372138 -17.888238 
L 166.406774 -17.888238 
L 176.441409 -17.888238 
L 186.476045 -17.888238 
L 196.51068 -17.888238 
L 206.545316 -17.888238 
L 216.579951 -17.888238 
L 226.614587 -17.888238 
L 226.614587 -37.133418 
L 226.614587 -37.133418 
L 216.579951 -37.133418 
L 206.545316 -37.133418 
L 196.51068 -37.133418 
L 186.476045 -37.133418 
L 176.441409 -37.133418 
L 166.406774 -37.133418 
L 156.372138 -37.133418 
L 146.337503 -37.133418 
L 141.320185 -37.133418 
L 136.302867 -37.133418 
L 131.28555 -37.133418 
L 126.268232 -37.133418 
L 121.250914 -37.133418 
L 116.233596 -37.133418 
L 111.216279 -37.133418 
L 106.198961 -37.133418 
L 103.302211 -37.133418 
L 100.405461 -37.133418 
L 97.508712 -37.133418 
L 94.611962 -37.133418 
L 91.715212 -37.133418 
L 88.818462 -37.133418 
L 85.921713 -37.133418 
L 83.024963 -37.133418 
L 80.128213 -37.133418 
L 77.231463 -37.133418 
L 74.334714 -37.133418 
L 71.437964 -37.133418 
L 68.541214 -37.133418 
L 65.644464 -37.133418 
L 62.747715 -37.133418 
L 59.850965 -37.133418 
L 56.954215 -37.133418 
L 54.057465 -37.133418 
L 51.160716 -37.133418 
L 48.263966 -37.133418 
L 45.367216 -37.133418 
L 42.470466 -37.133418 
L 39.573717 -37.133418 
L 36.676967 -37.133418 
z
" id="m78435efc1c" style="stroke:#d3d3d3;"/>
    </defs>
    <g clip-path="url(#peeb3aef93e)">
     <use style="fill:#d3d3d3;stroke:#d3d3d3;" x="0" xlink:href="#m78435efc1c" y="127.768875"/>
    </g>
   </g>
   <g id="matplotlib.axis_1">
    <g id="xtick_1">
     <g id="line2d_1">
      <defs>
       <path d="M 0 0 
L 0 2 
" id="mf3c6fd3643" style="stroke:#000000;stroke-width:0.5;"/>
      </defs>
      <g>
       <use style="stroke:#000000;stroke-width:0.5;" x="36.676967" xlink:href="#mf3c6fd3643" y="115.078763"/>
      </g>
     </g>
     <g id="text_1">
      <!-- $\Gamma$ -->
      <g transform="translate(33.797514 125.305413)scale(0.09 -0.09)">
       <defs>
        <path d="M 51.796875 68 
L 5.09375 68 
L 5.09375 65.390625 
C 12 65.390625 13.09375 65.390625 13.09375 60.890625 
L 13.09375 7.078125 
C 13.09375 2.59375 12 2.59375 5.09375 2.59375 
L 5.09375 0 
C 8 0.1875 13.59375 0.1875 16.703125 0.1875 
C 20.796875 0.1875 25.59375 0.1875 29.703125 0 
L 29.703125 2.59375 
L 27.5 2.59375 
C 19.90625 2.59375 19.703125 3.59375 19.703125 7.1875 
L 19.703125 61.5 
C 19.703125 64.890625 19.90625 65.390625 23.90625 65.390625 
L 34.90625 65.390625 
C 50.09375 65.390625 50.90625 58.40625 52.40625 45.921875 
L 54.203125 45.921875 
z
" id="CMR17-0"/>
       </defs>
       <use transform="scale(0.996264)" xlink:href="#CMR17-0"/>
      </g>
     </g>
    </g>
    <g id="xtick_2">
     <g id="line2d_2">
      <g>
       <use style="stroke:#000000;stroke-width:0.5;" x="106.198961" xlink:href="#mf3c6fd3643" y="115.078763"/>
      </g>
     </g>
     <g id="text_2">
      <!-- M -->
      <g transform="translate(101.975944 125.305413)scale(0.09 -0.09)">
       <defs>
        <path d="M 20.90625 66.390625 
C 20.296875 67.890625 20.203125 68 18.09375 68 
L 5.296875 68 
L 5.296875 65.390625 
C 12.203125 65.390625 13.296875 65.390625 13.296875 60.90625 
L 13.296875 9.75 
C 13.296875 7.265625 13.296875 2.59375 5.296875 2.59375 
L 5.296875 0 
C 7.59375 0.1875 11.796875 0.1875 14.296875 0.1875 
C 16.796875 0.1875 21 0.1875 23.296875 0 
L 23.296875 2.59375 
C 15.296875 2.59375 15.296875 7.265625 15.296875 9.75 
L 15.296875 64.984375 
L 15.40625 64.984375 
L 38.90625 1.59375 
C 39.296875 0.59375 39.5 0 40.296875 0 
C 41.09375 0 41.296875 0.59375 41.703125 1.59375 
L 65.40625 65.484375 
L 65.5 65.484375 
L 65.5 7.078125 
C 65.5 2.59375 64.40625 2.59375 57.5 2.59375 
L 57.5 0 
C 60.203125 0.1875 65.59375 0.1875 68.5 0.1875 
C 71.40625 0.1875 76.90625 0.1875 79.59375 0 
L 79.59375 2.59375 
C 72.703125 2.59375 71.59375 2.59375 71.59375 7.078125 
L 71.59375 60.90625 
C 71.59375 65.390625 72.703125 65.390625 79.59375 65.390625 
L 79.59375 68 
L 66.90625 68 
C 64.796875 68 64.703125 67.890625 64.09375 66.390625 
L 42.5 8.0625 
z
" id="CMR17-77"/>
       </defs>
       <use transform="scale(0.996264)" xlink:href="#CMR17-77"/>
      </g>
     </g>
    </g>
    <g id="xtick_3">
     <g id="line2d_3">
      <g>
       <use style="stroke:#000000;stroke-width:0.5;" x="146.337503" xlink:href="#mf3c6fd3643" y="115.078763"/>
      </g>
     </g>
     <g id="text_3">
      <!-- K -->
      <g transform="translate(142.754443 125.305413)scale(0.09 -0.09)">
       <defs>
        <path d="M 36.90625 41.703125 
L 54.203125 58.921875 
C 57.796875 62.40625 61.59375 65.1875 67.203125 65.390625 
L 67.203125 68 
C 65.203125 67.890625 62.703125 67.796875 60.703125 67.796875 
C 58 67.796875 53.296875 67.796875 50.703125 68 
L 50.703125 65.390625 
C 53.296875 65.1875 53.703125 63.390625 53.703125 62.703125 
C 53.703125 62 53.296875 60.90625 52.90625 60.3125 
L 19.703125 27.171875 
L 19.703125 60.90625 
C 19.703125 65.390625 20.796875 65.390625 27.703125 65.390625 
L 27.703125 68 
C 24.796875 67.796875 19.5 67.796875 16.40625 67.796875 
C 13.296875 67.796875 8 67.796875 5.09375 68 
L 5.09375 65.390625 
C 12 65.390625 13.09375 65.390625 13.09375 60.90625 
L 13.09375 7.078125 
C 13.09375 2.59375 12 2.59375 5.09375 2.59375 
L 5.09375 0 
C 8 0.1875 13.296875 0.1875 16.40625 0.1875 
C 19.5 0.1875 24.796875 0.1875 27.703125 0 
L 27.703125 2.59375 
C 20.796875 2.59375 19.703125 2.59375 19.703125 7.078125 
L 19.703125 24.6875 
L 32.5 37.328125 
L 51.40625 8.46875 
C 52 7.46875 52.703125 6.171875 52.703125 5.1875 
C 52.703125 2.59375 49.90625 2.59375 48.59375 2.59375 
L 48.59375 0 
C 51.796875 0.1875 56.40625 0.1875 59.703125 0.1875 
C 62.09375 0.1875 66.203125 0.1875 68.5 0 
L 68.5 2.59375 
C 63.703125 2.59375 62.203125 3.1875 59.203125 7.765625 
z
" id="CMR17-75"/>
       </defs>
       <use transform="scale(0.996264)" xlink:href="#CMR17-75"/>
      </g>
     </g>
    </g>
    <g id="xtick_4">
     <g id="line2d_4">
      <g>
       <use style="stroke:#000000;stroke-width:0.5;" x="226.614587" xlink:href="#mf3c6fd3643" y="115.078763"/>
      </g>
     </g>
     <g id="text_4">
      <!-- $\Gamma$ -->
      <g transform="translate(223.735134 125.305413)scale(0.09 -0.09)">
       <use transform="scale(0.996264)" xlink:href="#CMR17-0"/>
      </g>
     </g>
    </g>
   </g>
   <g id="matplotlib.axis_2">
    <g id="ytick_1">
     <g id="line2d_5">
      <defs>
       <path d="M 0 0 
L -2 0 
" id="me5197ac094" style="stroke:#000000;stroke-width:0.5;"/>
      </defs>
      <g>
       <use style="stroke:#000000;stroke-width:0.5;" x="36.676967" xlink:href="#me5197ac094" y="109.665185"/>
      </g>
     </g>
     <g id="text_5">
      <!-- $\mathdefault{−160}$ -->
      <g transform="translate(11.686376 112.77851)scale(0.09 -0.09)">
       <defs>
        <path d="M 65.90625 23 
C 67.59375 23 69.40625 23 69.40625 25 
C 69.40625 27 67.59375 27 65.90625 27 
L 11.796875 27 
C 10.09375 27 8.296875 27 8.296875 25 
C 8.296875 23 10.09375 23 11.796875 23 
z
" id="CMSY10-0"/>
        <path d="M 26.59375 63.796875 
C 26.59375 65.890625 26.5 66 25.09375 66 
C 21.203125 61.359375 15.296875 59.890625 9.703125 59.6875 
C 9.40625 59.6875 8.90625 59.6875 8.796875 59.5 
C 8.703125 59.296875 8.703125 59.09375 8.703125 57 
C 11.796875 57 17 57.59375 21 59.984375 
L 21 7.296875 
C 21 3.796875 20.796875 2.59375 12.203125 2.59375 
L 9.203125 2.59375 
L 9.203125 0 
C 14 0.09375 19 0.1875 23.796875 0.1875 
C 28.59375 0.1875 33.59375 0.09375 38.40625 0 
L 38.40625 2.59375 
L 35.40625 2.59375 
C 26.796875 2.59375 26.59375 3.6875 26.59375 7.296875 
z
" id="CMR17-49"/>
        <path d="M 10.59375 34.34375 
C 10.59375 58 21.796875 63.6875 28.296875 63.6875 
C 30.40625 63.6875 35.5 63.265625 37.5 59.09375 
C 35.90625 59.09375 32.90625 59.09375 32.90625 55.59375 
C 32.90625 52.890625 35.09375 52 36.5 52 
C 37.40625 52 40.09375 52.390625 40.09375 55.796875 
C 40.09375 62.296875 35.09375 66 28.203125 66 
C 16.296875 66 3.796875 53.296875 3.796875 31.421875 
C 3.796875 4.015625 15.09375 -2 23.09375 -2 
C 32.796875 -2 42 6.734375 42 20.234375 
C 42 32.828125 33.90625 42 23.703125 42 
C 17.59375 42 13.09375 37.96875 10.59375 30.921875 
z
M 23.09375 0.390625 
C 10.796875 0.390625 10.796875 18.9375 10.796875 22.65625 
C 10.796875 29.90625 14.203125 40.390625 23.5 40.390625 
C 25.203125 40.390625 30.09375 40.390625 33.40625 33.4375 
C 35.203125 29.515625 35.203125 25.375 35.203125 20.34375 
C 35.203125 14.90625 35.203125 10.875 33.09375 6.84375 
C 30.90625 2.703125 27.703125 0.390625 23.09375 0.390625 
z
" id="CMR17-54"/>
        <path d="M 42 31.84375 
C 42 37.96875 41.90625 48.421875 37.703125 56.453125 
C 34 63.484375 28.09375 66 22.90625 66 
C 18.09375 66 12 63.78125 8.203125 56.5625 
C 4.203125 49.015625 3.796875 39.671875 3.796875 31.84375 
C 3.796875 26.109375 3.90625 17.375 7 9.734375 
C 11.296875 -0.609375 19 -2 22.90625 -2 
C 27.5 -2 34.5 -0.109375 38.59375 9.4375 
C 41.59375 16.375 42 24.5 42 31.84375 
z
M 22.90625 -0.40625 
C 16.5 -0.40625 12.703125 5.125 11.296875 12.75 
C 10.203125 18.6875 10.203125 27.328125 10.203125 32.953125 
C 10.203125 40.6875 10.203125 47.109375 11.5 53.234375 
C 13.40625 61.78125 19 64.390625 22.90625 64.390625 
C 27 64.390625 32.296875 61.671875 34.203125 53.4375 
C 35.5 47.71875 35.59375 40.984375 35.59375 32.953125 
C 35.59375 26.421875 35.59375 18.375 34.40625 12.453125 
C 32.296875 1.5 26.40625 -0.40625 22.90625 -0.40625 
z
" id="CMR17-48"/>
       </defs>
       <use transform="scale(0.996264)" xlink:href="#CMSY10-0"/>
       <use transform="translate(77.487468 0)scale(0.996264)" xlink:href="#CMR17-49"/>
       <use transform="translate(123.177945 0)scale(0.996264)" xlink:href="#CMR17-54"/>
       <use transform="translate(168.868422 0)scale(0.996264)" xlink:href="#CMR17-48"/>
      </g>
     </g>
    </g>
    <g id="ytick_2">
     <g id="line2d_6">
      <g>
       <use style="stroke:#000000;stroke-width:0.5;" x="36.676967" xlink:href="#me5197ac094" y="80.31048"/>
      </g>
     </g>
     <g id="text_6">
      <!-- $\mathdefault{−140}$ -->
      <g transform="translate(11.686376 83.423805)scale(0.09 -0.09)">
       <defs>
        <path d="M 33.59375 64.796875 
C 33.59375 66.890625 33.5 67 31.703125 67 
L 2 19.59375 
L 2 17 
L 27.796875 17 
L 27.796875 7.1875 
C 27.796875 3.59375 27.59375 2.59375 20.59375 2.59375 
L 18.703125 2.59375 
L 18.703125 0 
C 21.90625 0.1875 27.296875 0.1875 30.703125 0.1875 
C 34.09375 0.1875 39.5 0.1875 42.703125 0 
L 42.703125 2.59375 
L 40.796875 2.59375 
C 33.796875 2.59375 33.59375 3.59375 33.59375 7.1875 
L 33.59375 17 
L 43.796875 17 
L 43.796875 19.59375 
L 33.59375 19.59375 
z
M 28.09375 58.171875 
L 28.09375 19.59375 
L 4 19.59375 
z
" id="CMR17-52"/>
       </defs>
       <use transform="scale(0.996264)" xlink:href="#CMSY10-0"/>
       <use transform="translate(77.487468 0)scale(0.996264)" xlink:href="#CMR17-49"/>
       <use transform="translate(123.177945 0)scale(0.996264)" xlink:href="#CMR17-52"/>
       <use transform="translate(168.868422 0)scale(0.996264)" xlink:href="#CMR17-48"/>
      </g>
     </g>
    </g>
    <g id="ytick_3">
     <g id="line2d_7">
      <g>
       <use style="stroke:#000000;stroke-width:0.5;" x="36.676967" xlink:href="#me5197ac094" y="50.955774"/>
      </g>
     </g>
     <g id="text_7">
      <!-- $\mathdefault{−120}$ -->
      <g transform="translate(11.686376 54.069099)scale(0.09 -0.09)">
       <defs>
        <path d="M 41.703125 15.46875 
L 39.90625 15.46875 
C 38.90625 8.390625 38.09375 7.1875 37.703125 6.59375 
C 37.203125 5.796875 30 5.796875 28.59375 5.796875 
L 9.40625 5.796875 
C 13 9.6875 20 16.765625 28.5 24.9375 
C 34.59375 30.71875 41.703125 37.5 41.703125 47.390625 
C 41.703125 59.1875 32.296875 66 21.796875 66 
C 10.796875 66 4.09375 56.296875 4.09375 47.296875 
C 4.09375 43.390625 7 42.890625 8.203125 42.890625 
C 9.203125 42.890625 12.203125 43.484375 12.203125 46.984375 
C 12.203125 50.09375 9.59375 51 8.203125 51 
C 7.59375 51 7 50.890625 6.59375 50.6875 
C 8.5 59.1875 14.296875 63.390625 20.40625 63.390625 
C 29.09375 63.390625 34.796875 56.5 34.796875 47.390625 
C 34.796875 38.703125 29.703125 31.21875 24 24.734375 
L 4.09375 2.296875 
L 4.09375 0 
L 39.296875 0 
z
" id="CMR17-50"/>
       </defs>
       <use transform="scale(0.996264)" xlink:href="#CMSY10-0"/>
       <use transform="translate(77.487468 0)scale(0.996264)" xlink:href="#CMR17-49"/>
       <use transform="translate(123.177945 0)scale(0.996264)" xlink:href="#CMR17-50"/>
       <use transform="translate(168.868422 0)scale(0.996264)" xlink:href="#CMR17-48"/>
      </g>
     </g>
    </g>
    <g id="ytick_4">
     <g id="line2d_8">
      <g>
       <use style="stroke:#000000;stroke-width:0.5;" x="36.676967" xlink:href="#me5197ac094" y="21.601068"/>
      </g>
     </g>
     <g id="text_8">
      <!-- $\mathdefault{−100}$ -->
      <g transform="translate(11.686376 24.714393)scale(0.09 -0.09)">
       <use transform="scale(0.996264)" xlink:href="#CMSY10-0"/>
       <use transform="translate(77.487468 0)scale(0.996264)" xlink:href="#CMR17-49"/>
       <use transform="translate(123.177945 0)scale(0.996264)" xlink:href="#CMR17-48"/>
       <use transform="translate(168.868422 0)scale(0.996264)" xlink:href="#CMR17-48"/>
      </g>
     </g>
    </g>
    <g id="text_9">
     <!-- $\varepsilon (\boldsymbol{k})$ / K -->
     <g transform="translate(7.444782 75.697727)rotate(-90)scale(0.09 -0.09)">
      <defs>
       <path d="M 13.90625 22.296875 
C 17.09375 21 20.5 21 22.40625 21 
C 25 21 30.203125 21 30.203125 24.28125 
C 30.203125 26.296875 28.296875 27 23.203125 27 
C 20.703125 27 17.703125 26.6875 14.203125 25.1875 
C 11.09375 26.6875 9.90625 28.953125 9.90625 31.109375 
C 9.90625 37.171875 19.703125 40.6875 28.59375 40.6875 
C 30.296875 40.6875 33.90625 40.6875 38.09375 37.65625 
C 38.703125 37.265625 39 36.96875 39.703125 36.96875 
C 40.90625 36.96875 42.203125 38.25 42.203125 39.421875 
C 42.203125 41.1875 36.40625 45 29.5 45 
C 18.296875 45 7.703125 38.34375 7.703125 31.109375 
C 7.703125 27.484375 10.09375 25.1875 11.796875 23.5625 
C 6 20.125 2.59375 14.890625 2.59375 10.140625 
C 2.59375 3.453125 8.796875 -2 18.40625 -2 
C 31.59375 -2 36.90625 6.65625 36.90625 8.015625 
C 36.90625 8.5 36.5 8.875 36 8.875 
C 35.5 8.875 35.296875 8.59375 34.90625 8.015625 
C 33.796875 6.171875 31.203125 2.296875 19.296875 2.296875 
C 13.09375 2.296875 4.90625 3.84375 4.90625 10.71875 
C 4.90625 14.015625 7.40625 18.953125 13.90625 22.296875 
z
M 17 23.703125 
C 19.703125 24.984375 22.296875 24.984375 23 24.984375 
C 25.796875 24.984375 26.296875 24.703125 27.90625 24.140625 
C 26.203125 23 26 23 22.40625 23 
C 20.59375 23 19 23 17 23.703125 
z
" id="CMMI12-34"/>
       <path d="M 30.59375 -24.40625 
C 30.59375 -24.3125 30.59375 -24.109375 30.296875 -23.8125 
C 25.703125 -19.109375 13.40625 -6.296875 13.40625 24.9375 
C 13.40625 56.171875 25.5 68.875 30.40625 73.890625 
C 30.40625 73.984375 30.59375 74.1875 30.59375 74.484375 
C 30.59375 74.796875 30.296875 75 29.90625 75 
C 28.796875 75 20.296875 67.578125 15.40625 56.5625 
C 10.40625 45.453125 9 34.65625 9 25.046875 
C 9 17.828125 9.703125 5.625 15.703125 -7.296875 
C 20.5 -17.703125 28.703125 -25 29.90625 -25 
C 30.40625 -25 30.59375 -24.8125 30.59375 -24.40625 
z
" id="CMR17-40"/>
       <path d="M 31.59375 65.484375 
C 32 66.890625 32 67.09375 32 67.1875 
C 32 68.484375 30.90625 69 29.796875 69 
C 29.40625 69 29.296875 69 29.09375 68.890625 
L 16.203125 68.296875 
C 14.796875 68.1875 13 68.09375 13 65.296875 
C 13 63.484375 14.90625 63.484375 15.59375 63.484375 
C 16.703125 63.484375 18.5 63.484375 19.796875 63.296875 
L 5.40625 5.796875 
C 5.296875 5.390625 5 3.890625 5 3.5 
C 5 1.09375 6.90625 -1 9.796875 -1 
C 11.59375 -1 14.5 -0.109375 15.90625 3 
C 16.203125 3.890625 17.59375 9.6875 20.5 21.296875 
C 22.40625 21.09375 31.09375 19.890625 31.09375 13.796875 
C 31.09375 13.09375 31.09375 12.796875 30.796875 11.6875 
C 30.5 10.390625 30.5 10.296875 30.5 9.296875 
C 30.5 2.796875 36.703125 -1 43.296875 -1 
C 53.296875 -1 57 13.796875 57 14.59375 
C 57 16 55.5 16 54.59375 16 
C 52.796875 16 52.59375 15.796875 52.09375 14 
C 51.296875 11.09375 48.90625 2.59375 43.796875 2.59375 
C 42.203125 2.59375 41.203125 3.5 41.203125 6.5 
C 41.203125 7.5 41.40625 9.390625 42 11.6875 
C 42.296875 12.796875 42.296875 13.5 42.296875 14.1875 
C 42.296875 22.6875 32.203125 24.296875 25 25 
C 26 25.6875 28.40625 27.296875 33.90625 32.59375 
C 41.59375 40.1875 45.796875 41.390625 48.796875 41.390625 
C 50.703125 41.390625 51.40625 40.296875 51.40625 40.1875 
C 46.40625 39.5 44.5 35.5 44.5 33 
C 44.5 30.796875 46.203125 28.390625 49.5 28.390625 
C 51.40625 28.390625 56.703125 29.6875 56.703125 36.796875 
C 56.703125 41.984375 53.40625 45 49.09375 45 
C 43 45 37.5 40.59375 31.59375 34.890625 
C 30.59375 33.796875 25.796875 29.1875 22 27.09375 
z
" id="CMMIB10-107"/>
       <path d="M 26.296875 24.9375 
C 26.296875 32.140625 25.59375 44.359375 19.59375 57.265625 
C 14.796875 67.6875 6.59375 75 5.40625 75 
C 5.09375 75 4.703125 74.890625 4.703125 74.390625 
C 4.703125 74.1875 4.796875 74.09375 4.90625 73.890625 
C 9.703125 68.875 21.90625 56.171875 21.90625 25.046875 
C 21.90625 -6.1875 9.796875 -18.90625 4.90625 -23.90625 
C 4.796875 -24.109375 4.703125 -24.203125 4.703125 -24.40625 
C 4.703125 -24.90625 5.09375 -25 5.40625 -25 
C 6.5 -25 15 -17.609375 19.90625 -6.59375 
C 24.90625 4.515625 26.296875 15.328125 26.296875 24.9375 
z
" id="CMR17-41"/>
       <path d="M 40.703125 71.484375 
C 41.203125 72.78125 41.203125 72.984375 41.203125 73.1875 
C 41.203125 74.390625 40.296875 75 39.5 75 
C 38.296875 75 37.90625 74.1875 37.5 72.984375 
L 5.09375 -21.5 
C 4.59375 -22.8125 4.59375 -23 4.59375 -23.203125 
C 4.59375 -24.40625 5.5 -25 6.296875 -25 
C 7.5 -25 7.90625 -24.203125 8.296875 -23 
z
" id="CMR17-47"/>
      </defs>
      <use transform="scale(0.996264)" xlink:href="#CMMI12-34"/>
      <use transform="translate(45.650192 0)scale(0.996264)" xlink:href="#CMR17-40"/>
      <use transform="translate(80.93096 0)scale(0.996264)" xlink:href="#CMMIB10-107"/>
      <use transform="translate(142.920484 0)scale(0.996264)" xlink:href="#CMR17-41"/>
      <use transform="translate(208.277218 0)scale(0.996264)" xlink:href="#CMR17-47"/>
      <use transform="translate(284.043662 0)scale(0.996264)" xlink:href="#CMR17-75"/>
     </g>
    </g>
   </g>
   <g id="line2d_9">
    <path clip-path="url(#peeb3aef93e)" d="M 106.198961 115.078763 
L 106.198961 0.72 
" style="fill:none;stroke:#000000;stroke-linecap:square;stroke-width:0.8;"/>
   </g>
   <g id="line2d_10">
    <path clip-path="url(#peeb3aef93e)" d="M 146.337503 115.078763 
L 146.337503 0.72 
" style="fill:none;stroke:#000000;stroke-linecap:square;stroke-width:0.8;"/>
   </g>
   <g id="line2d_11">
    <path clip-path="url(#peeb3aef93e)" d="M 36.676967 109.880637 
L 39.573717 109.815354 
L 42.470466 109.750071 
L 45.367216 109.554348 
L 48.263966 109.358626 
L 51.160716 109.032875 
L 54.057465 108.707124 
L 56.954215 108.252122 
L 59.850965 107.79712 
L 62.747715 107.214205 
L 65.644464 106.63129 
L 68.541214 105.922744 
L 71.437964 105.214197 
L 74.334714 104.38408 
L 77.231463 103.553963 
L 80.128213 102.610076 
L 83.024963 101.66619 
L 85.921713 100.625371 
L 88.818462 99.584552 
L 91.715212 98.489676 
L 94.611962 97.394799 
L 97.508712 96.380551 
L 100.405461 95.366303 
L 103.302211 94.870119 
L 106.198961 94.373935 
L 111.216279 94.563003 
L 116.233596 94.032046 
L 121.250914 93.881305 
L 126.268232 93.04695 
L 131.28555 92.609845 
L 136.302867 91.620015 
L 141.320185 91.14201 
L 146.337503 90.635456 
L 156.372138 92.423546 
L 166.406774 96.332149 
L 176.441409 100.279588 
L 186.476045 103.676421 
L 196.51068 106.372376 
L 206.545316 108.316766 
L 216.579951 109.489064 
L 226.614587 109.880637 
" style="fill:none;stroke:#000000;stroke-linecap:square;"/>
   </g>
   <g id="line2d_12">
    <path clip-path="url(#peeb3aef93e)" d="M 36.676967 37.316631 
L 39.573717 39.27496 
L 42.470466 41.233288 
L 45.367216 43.772833 
L 48.263966 46.312378 
L 51.160716 48.902495 
L 54.057465 51.492611 
L 56.954215 54.046043 
L 59.850965 56.599474 
L 62.747715 59.07235 
L 65.644464 61.545225 
L 68.541214 63.912674 
L 71.437964 66.280122 
L 74.334714 68.525501 
L 77.231463 70.77088 
L 80.128213 72.879053 
L 83.024963 74.987226 
L 85.921713 76.93693 
L 88.818462 78.886635 
L 91.715212 80.632284 
L 94.611962 82.377933 
L 97.508712 83.78322 
L 100.405461 85.188507 
L 103.302211 85.815128 
L 106.198961 86.44175 
L 111.216279 86.001293 
L 116.233596 86.04048 
L 121.250914 85.207757 
L 126.268232 84.836833 
L 131.28555 83.632749 
L 136.302867 82.83134 
L 141.320185 81.39811 
L 146.337503 80.025029 
" style="fill:none;stroke:#440154;stroke-linecap:square;"/>
   </g>
   <g id="line2d_13">
    <path clip-path="url(#peeb3aef93e)" d="M 36.676967 35.402347 
L 39.573717 35.969133 
L 42.470466 36.53592 
L 45.367216 37.6288 
L 48.263966 38.72168 
L 51.160716 39.864275 
L 54.057465 41.00687 
L 56.954215 42.078322 
L 59.850965 43.149775 
L 62.747715 44.11491 
L 65.644464 45.080046 
L 68.541214 45.925622 
L 71.437964 46.771199 
L 74.334714 47.491241 
L 77.231463 48.211283 
L 80.128213 48.802745 
L 83.024963 49.394206 
L 85.921713 49.855405 
L 88.818462 50.316603 
L 91.715212 50.646567 
L 94.611962 50.976532 
L 97.508712 51.174703 
L 100.405461 51.372875 
L 103.302211 51.438962 
L 106.198961 51.505049 
L 111.216279 55.405132 
L 116.233596 59.850869 
L 121.250914 64.016245 
L 126.268232 68.011609 
L 131.28555 71.647717 
L 136.302867 75.035938 
L 141.320185 77.745931 
L 146.337503 80.025026 
" style="fill:none;stroke:#355f8d;stroke-linecap:square;"/>
   </g>
   <g id="line2d_14">
    <path clip-path="url(#peeb3aef93e)" d="M 146.337503 80.025029 
L 156.372138 80.643935 
L 166.406774 77.543421 
L 176.441409 72.806151 
L 186.476045 67.025621 
L 196.51068 60.362288 
L 206.545316 52.894294 
L 216.579951 44.742863 
L 226.614587 37.316631 
" style="fill:none;stroke:#355f8d;stroke-linecap:square;"/>
   </g>
   <g id="line2d_15">
    <path clip-path="url(#peeb3aef93e)" d="M 146.337503 80.025026 
L 156.372138 76.419717 
L 166.406774 72.018651 
L 176.441409 66.827955 
L 186.476045 60.860424 
L 196.51068 54.147495 
L 206.545316 46.733097 
L 216.579951 39.318699 
L 226.614587 35.402347 
" style="fill:none;stroke:#440154;stroke-linecap:square;"/>
   </g>
   <g id="line2d_16">
    <path clip-path="url(#peeb3aef93e)" d="M 36.676967 35.402268 
L 39.573717 34.412766 
L 42.470466 33.423264 
L 45.367216 34.489495 
L 48.263966 35.555726 
L 51.160716 36.937844 
L 54.057465 38.319962 
L 56.954215 39.564962 
L 59.850965 40.809962 
L 62.747715 41.894953 
L 65.644464 42.979945 
L 68.541214 43.909643 
L 71.437964 44.83934 
L 74.334714 45.619315 
L 77.231463 46.39929 
L 80.128213 47.033544 
L 83.024963 47.667797 
L 85.921713 48.158983 
L 88.818462 48.650169 
L 91.715212 48.999995 
L 94.611962 49.34982 
L 97.508712 49.559337 
L 100.405461 49.768854 
L 103.302211 49.838633 
L 106.198961 49.908412 
L 111.216279 45.724355 
L 116.233596 40.69694 
L 121.250914 35.370938 
L 126.268232 29.898816 
L 131.28555 24.151517 
L 136.302867 18.264621 
L 141.320185 12.107095 
L 146.337503 5.918126 
L 156.372138 11.945526 
L 166.406774 17.167798 
L 176.441409 21.581971 
L 186.476045 25.182482 
L 196.51068 27.954648 
L 206.545316 30.005191 
L 216.579951 31.703419 
L 226.614587 35.402268 
" style="fill:none;stroke:#22a884;stroke-linecap:square;"/>
   </g>
   <g id="line2d_17">
    <path clip-path="url(#peeb3aef93e)" d="M 36.676967 109.880637 
L 39.573717 109.832067 
L 42.470466 109.686533 
L 45.367216 109.444591 
L 48.263966 109.107283 
L 51.160716 108.676294 
L 54.057465 108.154149 
L 56.954215 107.544448 
L 59.850965 106.852096 
L 62.747715 106.083523 
L 65.644464 105.246867 
L 68.541214 104.35209 
L 71.437964 103.411031 
L 74.334714 102.437357 
L 77.231463 101.446424 
L 80.128213 100.455032 
L 83.024963 99.48109 
L 85.921713 98.543189 
L 88.818462 97.660104 
L 91.715212 96.850249 
L 94.611962 96.131108 
L 97.508712 95.518656 
L 100.405461 95.026823 
L 103.302211 94.667002 
L 106.198961 94.44764 
L 111.216279 94.240484 
L 116.233596 93.858082 
L 121.250914 93.278514 
L 126.268232 92.581459 
L 131.28555 91.865422 
L 136.302867 91.236673 
L 141.320185 90.797536 
L 146.337503 90.635456 
L 156.372138 91.367326 
L 166.406774 93.573872 
L 176.441409 96.926358 
L 186.476045 100.788995 
L 196.51068 104.464486 
L 206.545316 107.396406 
L 216.579951 109.25055 
L 226.614587 109.880637 
" style="fill:none;stroke:#808080;stroke-dasharray:3.7,1.6;stroke-dashoffset:0;"/>
   </g>
   <g id="patch_3">
    <path d="M 36.676967 115.078763 
L 36.676967 0.72 
" style="fill:none;stroke:#000000;stroke-linecap:square;stroke-linejoin:miter;stroke-width:0.5;"/>
   </g>
   <g id="patch_4">
    <path d="M 226.614587 115.078763 
L 226.614587 0.72 
" style="fill:none;stroke:#000000;stroke-linecap:square;stroke-linejoin:miter;stroke-width:0.5;"/>
   </g>
   <g id="patch_5">
    <path d="M 36.676967 115.078763 
L 226.614587 115.078763 
" style="fill:none;stroke:#000000;stroke-linecap:square;stroke-linejoin:miter;stroke-width:0.5;"/>
   </g>
   <g id="patch_6">
    <path d="M 36.676967 0.72 
L 226.614587 0.72 
" style="fill:none;stroke:#000000;stroke-linecap:square;stroke-linejoin:miter;stroke-width:0.5;"/>
   </g>
  </g>
 </g>
 <defs>
  <clipPath id="peeb3aef93e">
   <rect height="114.358763" width="189.93762" x="36.676967" y="0.72"/>
  </clipPath>
 </defs>
</svg>
