<?xml version="1.0" encoding="utf-8" standalone="no"?>
<!DOCTYPE svg PUBLIC "-//W3C//DTD SVG 1.1//EN"
  "http://www.w3.org/Graphics/SVG/1.1/DTD/svg11.dtd">
<svg height="127.768875pt" version="1.1" viewBox="0 0 230.21404 127.768875" width="230.21404pt" xmlns="http://www.w3.org/2000/svg" xmlns:xlink="http://www.w3.org/1999/xlink">
 <metadata>
  <rdf:RDF xmlns:cc="http://creativecommons.org/ns#" xmlns:dc="http://purl.org/dc/elements/1.1/" xmlns:rdf="http://www.w3.org/1999/02/22-rdf-syntax-ns#">
   <cc:Work>
    <dc:type rdf:resource="http://purl.org/dc/dcmitype/StillImage"/>
    <dc:date>2021-06-10T13:28:17.407478</dc:date>
    <dc:format>image/svg+xml</dc:format>
    <dc:creator>
     <cc:Agent>
      <dc:title>Matplotlib v3.4.2, https://matplotlib.org/</dc:title>
     </cc:Agent>
    </dc:creator>
   </cc:Work>
  </rdf:RDF>
 </metadata>
 <defs>
  <style type="text/css">*{stroke-linecap:butt;stroke-linejoin:round;}</style>
 </defs>
 <g id="figure_1">
  <g id="patch_1">
   <path d="M 0 127.768875 
L 230.21404 127.768875 
L 230.21404 0 
L 0 0 
z
" style="fill:none;"/>
  </g>
  <g id="axes_1">
   <g id="patch_2">
    <path d="M 36.676967 115.078763 
L 226.614587 115.078763 
L 226.614587 0.72 
L 36.676967 0.72 
z
" style="fill:#ffffff;"/>
   </g>
   <g id="PolyCollection_1">
    <defs>
     <path d="M 36.676967 -37.133418 
L 36.676967 -17.888238 
L 39.573717 -17.888238 
L 42.470466 -17.888238 
L 45.367216 -17.888238 
L 48.263966 -17.888238 
L 51.160716 -17.888238 
L 54.057465 -17.888238 
L 56.954215 -17.888238 
L 59.850965 -17.888238 
L 62.747715 -17.888238 
L 65.644464 -17.888238 
L 68.541214 -17.888238 
L 71.437964 -17.888238 
L 74.334714 -17.888238 
L 77.231463 -17.888238 
L 80.128213 -17.888238 
L 83.024963 -17.888238 
L 85.921713 -17.888238 
L 88.818462 -17.888238 
L 91.715212 -17.888238 
L 94.611962 -17.888238 
L 97.508712 -17.888238 
L 100.405461 -17.888238 
L 103.302211 -17.888238 
L 106.198961 -17.888238 
L 111.216279 -17.888238 
L 116.233596 -17.888238 
L 121.250914 -17.888238 
L 126.268232 -17.888238 
L 131.28555 -17.888238 
L 136.302867 -17.888238 
L 141.320185 -17.888238 
L 146.337503 -17.888238 
L 156.372138 -17.888238 
L 166.406774 -17.888238 
L 176.441409 -17.888238 
L 186.476045 -17.888238 
L 196.51068 -17.888238 
L 206.545316 -17.888238 
L 216.579951 -17.888238 
L 226.614587 -17.888238 
L 226.614587 -37.133418 
L 226.614587 -37.133418 
L 216.579951 -37.133418 
L 206.545316 -37.133418 
L 196.51068 -37.133418 
L 186.476045 -37.133418 
L 176.441409 -37.133418 
L 166.406774 -37.133418 
L 156.372138 -37.133418 
L 146.337503 -37.133418 
L 141.320185 -37.133418 
L 136.302867 -37.133418 
L 131.28555 -37.133418 
L 126.268232 -37.133418 
L 121.250914 -37.133418 
L 116.233596 -37.133418 
L 111.216279 -37.133418 
L 106.198961 -37.133418 
L 103.302211 -37.133418 
L 100.405461 -37.133418 
L 97.508712 -37.133418 
L 94.611962 -37.133418 
L 91.715212 -37.133418 
L 88.818462 -37.133418 
L 85.921713 -37.133418 
L 83.024963 -37.133418 
L 80.128213 -37.133418 
L 77.231463 -37.133418 
L 74.334714 -37.133418 
L 71.437964 -37.133418 
L 68.541214 -37.133418 
L 65.644464 -37.133418 
L 62.747715 -37.133418 
L 59.850965 -37.133418 
L 56.954215 -37.133418 
L 54.057465 -37.133418 
L 51.160716 -37.133418 
L 48.263966 -37.133418 
L 45.367216 -37.133418 
L 42.470466 -37.133418 
L 39.573717 -37.133418 
L 36.676967 -37.133418 
z
" id="m744361bb0a" style="stroke:#d3d3d3;"/>
    </defs>
    <g clip-path="url(#pcaa54d11cb)">
     <use style="fill:#d3d3d3;stroke:#d3d3d3;" x="0" xlink:href="#m744361bb0a" y="127.768875"/>
    </g>
   </g>
   <g id="matplotlib.axis_1">
    <g id="xtick_1">
     <g id="line2d_1">
      <defs>
       <path d="M 0 0 
L 0 2 
" id="mc8432f7a77" style="stroke:#000000;stroke-width:0.5;"/>
      </defs>
      <g>
       <use style="stroke:#000000;stroke-width:0.5;" x="36.676967" xlink:href="#mc8432f7a77" y="115.078763"/>
      </g>
     </g>
     <g id="text_1">
      <!-- $\Gamma$ -->
      <g transform="translate(33.797514 125.305413)scale(0.09 -0.09)">
       <defs>
        <path d="M 3315 4352 
L 326 4352 
L 326 4185 
C 768 4185 838 4185 838 3897 
L 838 453 
C 838 166 768 166 326 166 
L 326 0 
C 512 12 870 12 1069 12 
C 1331 12 1638 12 1901 0 
L 1901 166 
L 1760 166 
C 1274 166 1261 230 1261 460 
L 1261 3936 
C 1261 4153 1274 4185 1530 4185 
L 2234 4185 
C 3206 4185 3258 3738 3354 2939 
L 3469 2939 
L 3315 4352 
z
" id="CMR17-0" transform="scale(0.015625)"/>
       </defs>
       <use transform="scale(0.996264)" xlink:href="#CMR17-0"/>
      </g>
     </g>
    </g>
    <g id="xtick_2">
     <g id="line2d_2">
      <g>
       <use style="stroke:#000000;stroke-width:0.5;" x="106.198961" xlink:href="#mc8432f7a77" y="115.078763"/>
      </g>
     </g>
     <g id="text_2">
      <!-- M -->
      <g transform="translate(101.975944 125.305413)scale(0.09 -0.09)">
       <defs>
        <path d="M 1338 4249 
C 1299 4345 1293 4352 1158 4352 
L 339 4352 
L 339 4185 
C 781 4185 851 4185 851 3898 
L 851 624 
C 851 465 851 166 339 166 
L 339 0 
C 486 12 755 12 915 12 
C 1075 12 1344 12 1491 0 
L 1491 166 
C 979 166 979 465 979 624 
L 979 4159 
L 986 4159 
L 2490 102 
C 2515 38 2528 0 2579 0 
C 2630 0 2643 38 2669 102 
L 4186 4191 
L 4192 4191 
L 4192 453 
C 4192 166 4122 166 3680 166 
L 3680 0 
C 3853 12 4198 12 4384 12 
C 4570 12 4922 12 5094 0 
L 5094 166 
C 4653 166 4582 166 4582 453 
L 4582 3898 
C 4582 4185 4653 4185 5094 4185 
L 5094 4352 
L 4282 4352 
C 4147 4352 4141 4345 4102 4249 
L 2720 516 
L 1338 4249 
z
" id="CMR17-4d" transform="scale(0.015625)"/>
       </defs>
       <use transform="scale(0.996264)" xlink:href="#CMR17-4d"/>
      </g>
     </g>
    </g>
    <g id="xtick_3">
     <g id="line2d_3">
      <g>
       <use style="stroke:#000000;stroke-width:0.5;" x="146.337503" xlink:href="#mc8432f7a77" y="115.078763"/>
      </g>
     </g>
     <g id="text_3">
      <!-- K -->
      <g transform="translate(142.754443 125.305413)scale(0.09 -0.09)">
       <defs>
        <path d="M 2362 2669 
L 3469 3771 
C 3699 3994 3942 4172 4301 4185 
L 4301 4352 
C 4173 4345 4013 4339 3885 4339 
C 3712 4339 3411 4339 3245 4352 
L 3245 4185 
C 3411 4172 3437 4057 3437 4013 
C 3437 3968 3411 3898 3386 3860 
L 1261 1739 
L 1261 3898 
C 1261 4185 1331 4185 1773 4185 
L 1773 4352 
C 1587 4339 1248 4339 1050 4339 
C 851 4339 512 4339 326 4352 
L 326 4185 
C 768 4185 838 4185 838 3898 
L 838 453 
C 838 166 768 166 326 166 
L 326 0 
C 512 12 851 12 1050 12 
C 1248 12 1587 12 1773 0 
L 1773 166 
C 1331 166 1261 166 1261 453 
L 1261 1580 
L 2080 2389 
L 3290 542 
C 3328 478 3373 395 3373 332 
C 3373 166 3194 166 3110 166 
L 3110 0 
C 3315 12 3610 12 3821 12 
C 3974 12 4237 12 4384 0 
L 4384 166 
C 4077 166 3981 204 3789 497 
L 2362 2669 
z
" id="CMR17-4b" transform="scale(0.015625)"/>
       </defs>
       <use transform="scale(0.996264)" xlink:href="#CMR17-4b"/>
      </g>
     </g>
    </g>
    <g id="xtick_4">
     <g id="line2d_4">
      <g>
       <use style="stroke:#000000;stroke-width:0.5;" x="226.614587" xlink:href="#mc8432f7a77" y="115.078763"/>
      </g>
     </g>
     <g id="text_4">
      <!-- $\Gamma$ -->
      <g transform="translate(223.735134 125.305413)scale(0.09 -0.09)">
       <use transform="scale(0.996264)" xlink:href="#CMR17-0"/>
      </g>
     </g>
    </g>
   </g>
   <g id="matplotlib.axis_2">
    <g id="ytick_1">
     <g id="line2d_5">
      <defs>
       <path d="M 0 0 
L -2 0 
" id="mbcdd445a2c" style="stroke:#000000;stroke-width:0.5;"/>
      </defs>
      <g>
       <use style="stroke:#000000;stroke-width:0.5;" x="36.676967" xlink:href="#mbcdd445a2c" y="109.665185"/>
      </g>
     </g>
     <g id="text_5">
      <!-- $\mathdefault{−160}$ -->
      <g transform="translate(11.686376 112.77851)scale(0.09 -0.09)">
       <defs>
        <path d="M 4218 1472 
C 4326 1472 4442 1472 4442 1600 
C 4442 1728 4326 1728 4218 1728 
L 755 1728 
C 646 1728 531 1728 531 1600 
C 531 1472 646 1472 755 1472 
L 4218 1472 
z
" id="CMSY10-0" transform="scale(0.015625)"/>
        <path d="M 1702 4083 
C 1702 4217 1696 4224 1606 4224 
C 1357 3927 979 3833 621 3820 
C 602 3820 570 3820 563 3808 
C 557 3795 557 3782 557 3648 
C 755 3648 1088 3686 1344 3839 
L 1344 467 
C 1344 243 1331 166 781 166 
L 589 166 
L 589 0 
C 896 6 1216 12 1523 12 
C 1830 12 2150 6 2458 0 
L 2458 166 
L 2266 166 
C 1715 166 1702 236 1702 467 
L 1702 4083 
z
" id="CMR17-31" transform="scale(0.015625)"/>
        <path d="M 678 2198 
C 678 3712 1395 4076 1811 4076 
C 1946 4076 2272 4049 2400 3782 
C 2298 3782 2106 3782 2106 3558 
C 2106 3385 2246 3328 2336 3328 
C 2394 3328 2566 3353 2566 3571 
C 2566 3987 2246 4224 1805 4224 
C 1043 4224 243 3411 243 2011 
C 243 257 966 -128 1478 -128 
C 2099 -128 2688 431 2688 1295 
C 2688 2101 2170 2688 1517 2688 
C 1126 2688 838 2430 678 1979 
L 678 2198 
z
M 1478 25 
C 691 25 691 1212 691 1450 
C 691 1914 909 2585 1504 2585 
C 1613 2585 1926 2585 2138 2140 
C 2253 1889 2253 1624 2253 1302 
C 2253 954 2253 696 2118 438 
C 1978 173 1773 25 1478 25 
z
" id="CMR17-36" transform="scale(0.015625)"/>
        <path d="M 2688 2038 
C 2688 2430 2682 3099 2413 3613 
C 2176 4063 1798 4224 1466 4224 
C 1158 4224 768 4082 525 3620 
C 269 3137 243 2539 243 2038 
C 243 1671 250 1112 448 623 
C 723 -39 1216 -128 1466 -128 
C 1760 -128 2208 -7 2470 604 
C 2662 1048 2688 1568 2688 2038 
z
M 1466 -26 
C 1056 -26 813 328 723 816 
C 653 1196 653 1749 653 2109 
C 653 2604 653 3015 736 3407 
C 858 3954 1216 4121 1466 4121 
C 1728 4121 2067 3947 2189 3420 
C 2272 3054 2278 2623 2278 2109 
C 2278 1691 2278 1176 2202 797 
C 2067 96 1690 -26 1466 -26 
z
" id="CMR17-30" transform="scale(0.015625)"/>
       </defs>
       <use transform="scale(0.996264)" xlink:href="#CMSY10-0"/>
       <use transform="translate(77.487468 0)scale(0.996264)" xlink:href="#CMR17-31"/>
       <use transform="translate(123.177945 0)scale(0.996264)" xlink:href="#CMR17-36"/>
       <use transform="translate(168.868422 0)scale(0.996264)" xlink:href="#CMR17-30"/>
      </g>
     </g>
    </g>
    <g id="ytick_2">
     <g id="line2d_6">
      <g>
       <use style="stroke:#000000;stroke-width:0.5;" x="36.676967" xlink:href="#mbcdd445a2c" y="80.31048"/>
      </g>
     </g>
     <g id="text_6">
      <!-- $\mathdefault{−140}$ -->
      <g transform="translate(11.686376 83.423805)scale(0.09 -0.09)">
       <defs>
        <path d="M 2150 4147 
C 2150 4281 2144 4288 2029 4288 
L 128 1254 
L 128 1088 
L 1779 1088 
L 1779 460 
C 1779 230 1766 166 1318 166 
L 1197 166 
L 1197 0 
C 1402 12 1747 12 1965 12 
C 2182 12 2528 12 2733 0 
L 2733 166 
L 2611 166 
C 2163 166 2150 230 2150 460 
L 2150 1088 
L 2803 1088 
L 2803 1254 
L 2150 1254 
L 2150 4147 
z
M 1798 3723 
L 1798 1254 
L 256 1254 
L 1798 3723 
z
" id="CMR17-34" transform="scale(0.015625)"/>
       </defs>
       <use transform="scale(0.996264)" xlink:href="#CMSY10-0"/>
       <use transform="translate(77.487468 0)scale(0.996264)" xlink:href="#CMR17-31"/>
       <use transform="translate(123.177945 0)scale(0.996264)" xlink:href="#CMR17-34"/>
       <use transform="translate(168.868422 0)scale(0.996264)" xlink:href="#CMR17-30"/>
      </g>
     </g>
    </g>
    <g id="ytick_3">
     <g id="line2d_7">
      <g>
       <use style="stroke:#000000;stroke-width:0.5;" x="36.676967" xlink:href="#mbcdd445a2c" y="50.955774"/>
      </g>
     </g>
     <g id="text_7">
      <!-- $\mathdefault{−120}$ -->
      <g transform="translate(11.686376 54.069099)scale(0.09 -0.09)">
       <defs>
        <path d="M 2669 990 
L 2554 990 
C 2490 537 2438 460 2413 422 
C 2381 371 1920 371 1830 371 
L 602 371 
C 832 620 1280 1073 1824 1596 
C 2214 1966 2669 2400 2669 3033 
C 2669 3788 2067 4224 1395 4224 
C 691 4224 262 3603 262 3027 
C 262 2777 448 2745 525 2745 
C 589 2745 781 2783 781 3007 
C 781 3206 614 3264 525 3264 
C 486 3264 448 3257 422 3244 
C 544 3788 915 4057 1306 4057 
C 1862 4057 2227 3616 2227 3033 
C 2227 2477 1901 1998 1536 1583 
L 262 147 
L 262 0 
L 2515 0 
L 2669 990 
z
" id="CMR17-32" transform="scale(0.015625)"/>
       </defs>
       <use transform="scale(0.996264)" xlink:href="#CMSY10-0"/>
       <use transform="translate(77.487468 0)scale(0.996264)" xlink:href="#CMR17-31"/>
       <use transform="translate(123.177945 0)scale(0.996264)" xlink:href="#CMR17-32"/>
       <use transform="translate(168.868422 0)scale(0.996264)" xlink:href="#CMR17-30"/>
      </g>
     </g>
    </g>
    <g id="ytick_4">
     <g id="line2d_8">
      <g>
       <use style="stroke:#000000;stroke-width:0.5;" x="36.676967" xlink:href="#mbcdd445a2c" y="21.601068"/>
      </g>
     </g>
     <g id="text_8">
      <!-- $\mathdefault{−100}$ -->
      <g transform="translate(11.686376 24.714393)scale(0.09 -0.09)">
       <use transform="scale(0.996264)" xlink:href="#CMSY10-0"/>
       <use transform="translate(77.487468 0)scale(0.996264)" xlink:href="#CMR17-31"/>
       <use transform="translate(123.177945 0)scale(0.996264)" xlink:href="#CMR17-30"/>
       <use transform="translate(168.868422 0)scale(0.996264)" xlink:href="#CMR17-30"/>
      </g>
     </g>
    </g>
    <g id="text_9">
     <!-- $\alabel{\varepsilon(k)}{\kelvin}$ -->
     <g transform="translate(7.444782 75.879221)rotate(-90)scale(0.09 -0.09)">
      <defs>
       <path d="M 890 1427 
C 1094 1344 1312 1344 1434 1344 
C 1600 1344 1933 1344 1933 1554 
C 1933 1683 1811 1728 1485 1728 
C 1325 1728 1133 1708 909 1612 
C 710 1708 634 1853 634 1991 
C 634 2379 1261 2604 1830 2604 
C 1939 2604 2170 2604 2438 2410 
C 2477 2385 2496 2366 2541 2366 
C 2618 2366 2701 2448 2701 2523 
C 2701 2636 2330 2880 1888 2880 
C 1171 2880 493 2454 493 1991 
C 493 1759 646 1612 755 1508 
C 384 1288 166 953 166 649 
C 166 221 563 -128 1178 -128 
C 2022 -128 2362 426 2362 513 
C 2362 544 2336 568 2304 568 
C 2272 568 2259 550 2234 513 
C 2163 395 1997 147 1235 147 
C 838 147 314 246 314 686 
C 314 897 474 1213 890 1427 
z
M 1088 1517 
C 1261 1599 1427 1599 1472 1599 
C 1651 1599 1683 1581 1786 1545 
C 1677 1472 1664 1472 1434 1472 
C 1318 1472 1216 1472 1088 1517 
z
" id="CMMI12-22" transform="scale(0.015625)"/>
       <path d="M 1958 -1562 
C 1958 -1556 1958 -1543 1939 -1524 
C 1645 -1223 858 -403 858 1596 
C 858 3595 1632 4408 1946 4729 
C 1946 4735 1958 4748 1958 4767 
C 1958 4787 1939 4800 1914 4800 
C 1843 4800 1299 4325 986 3620 
C 666 2909 576 2218 576 1603 
C 576 1141 621 360 1005 -467 
C 1312 -1133 1837 -1600 1914 -1600 
C 1946 -1600 1958 -1588 1958 -1562 
z
" id="CMR17-28" transform="scale(0.015625)"/>
       <path d="M 1798 4255 
C 1805 4281 1818 4319 1818 4351 
C 1818 4416 1754 4416 1741 4416 
C 1734 4416 1504 4396 1389 4383 
C 1280 4377 1184 4364 1069 4358 
C 915 4345 870 4339 870 4223 
C 870 4159 934 4159 998 4159 
C 1325 4159 1325 4103 1325 4040 
C 1325 4014 1325 4002 1293 3888 
L 378 250 
C 352 153 352 141 352 102 
C 352 -39 461 -64 525 -64 
C 704 -64 742 76 794 275 
L 1094 1476 
C 1555 1425 1830 1232 1830 924 
C 1830 885 1830 860 1811 763 
C 1786 667 1786 590 1786 558 
C 1786 185 2029 -64 2355 -64 
C 2650 -64 2803 205 2854 295 
C 2989 532 3072 892 3072 917 
C 3072 949 3046 975 3008 975 
C 2950 975 2944 949 2918 847 
C 2829 513 2694 64 2368 64 
C 2240 64 2157 128 2157 372 
C 2157 494 2182 635 2208 731 
C 2234 847 2234 853 2234 930 
C 2234 1309 1894 1521 1306 1598 
C 1536 1739 1766 1989 1856 2086 
C 2221 2495 2470 2687 2765 2687 
C 2912 2687 2950 2655 2995 2624 
C 2758 2598 2669 2431 2669 2303 
C 2669 2150 2790 2099 2880 2099 
C 3053 2099 3206 2246 3206 2451 
C 3206 2634 3059 2816 2771 2816 
C 2419 2816 2131 2579 1677 2067 
C 1613 1989 1376 1746 1139 1656 
L 1798 4255 
z
" id="CMMI12-6b" transform="scale(0.015625)"/>
       <path d="M 1683 1596 
C 1683 2057 1638 2839 1254 3665 
C 947 4332 422 4800 346 4800 
C 326 4800 301 4793 301 4761 
C 301 4748 307 4742 314 4729 
C 621 4408 1402 3595 1402 1603 
C 1402 -396 627 -1210 314 -1530 
C 307 -1543 301 -1549 301 -1562 
C 301 -1594 326 -1600 346 -1600 
C 416 -1600 960 -1127 1274 -422 
C 1594 289 1683 981 1683 1596 
z
" id="CMR17-29" transform="scale(0.015625)"/>
      </defs>
      <use transform="scale(0.996264)" xlink:href="#CMMI12-22"/>
      <use transform="translate(45.650192 0)scale(0.996264)" xlink:href="#CMR17-28"/>
      <use transform="translate(80.93096 0)scale(0.996264)" xlink:href="#CMMI12-6b"/>
      <use transform="translate(135.010161 0)scale(0.996264)" xlink:href="#CMR17-29"/>
      <use transform="translate(225.638946 0)scale(0.996264)" xlink:href="#CMR17-28"/>
      <use transform="translate(260.919714 0)scale(0.996264)" xlink:href="#CMR17-4b"/>
      <use transform="translate(332.594491 0)scale(0.996264)" xlink:href="#CMR17-29"/>
     </g>
    </g>
   </g>
   <g id="line2d_9">
    <path clip-path="url(#pcaa54d11cb)" d="M 106.198961 115.078763 
L 106.198961 0.72 
" style="fill:none;stroke:#000000;stroke-linecap:square;stroke-width:0.8;"/>
   </g>
   <g id="line2d_10">
    <path clip-path="url(#pcaa54d11cb)" d="M 146.337503 115.078763 
L 146.337503 0.72 
" style="fill:none;stroke:#000000;stroke-linecap:square;stroke-width:0.8;"/>
   </g>
   <g id="line2d_11">
    <path clip-path="url(#pcaa54d11cb)" d="M 36.676967 109.880637 
L 39.573717 109.815354 
L 42.470466 109.750071 
L 45.367216 109.554348 
L 48.263966 109.358626 
L 51.160716 109.032875 
L 54.057465 108.707124 
L 56.954215 108.252122 
L 59.850965 107.79712 
L 62.747715 107.214205 
L 65.644464 106.63129 
L 68.541214 105.922744 
L 71.437964 105.214197 
L 74.334714 104.38408 
L 77.231463 103.553963 
L 80.128213 102.610076 
L 83.024963 101.66619 
L 85.921713 100.625371 
L 88.818462 99.584552 
L 91.715212 98.489676 
L 94.611962 97.394799 
L 97.508712 96.380551 
L 100.405461 95.366303 
L 103.302211 94.870119 
L 106.198961 94.373935 
L 111.216279 94.563003 
L 116.233596 94.032046 
L 121.250914 93.881305 
L 126.268232 93.04695 
L 131.28555 92.609845 
L 136.302867 91.620015 
L 141.320185 91.14201 
L 146.337503 90.635456 
L 156.372138 92.423546 
L 166.406774 96.332149 
L 176.441409 100.279588 
L 186.476045 103.676421 
L 196.51068 106.372376 
L 206.545316 108.316766 
L 216.579951 109.489064 
L 226.614587 109.880637 
" style="fill:none;stroke:#000000;stroke-linecap:square;"/>
   </g>
   <g id="line2d_12">
    <path clip-path="url(#pcaa54d11cb)" d="M 36.676967 37.316631 
L 39.573717 39.27496 
L 42.470466 41.233288 
L 45.367216 43.772833 
L 48.263966 46.312378 
L 51.160716 48.902495 
L 54.057465 51.492611 
L 56.954215 54.046043 
L 59.850965 56.599474 
L 62.747715 59.07235 
L 65.644464 61.545225 
L 68.541214 63.912674 
L 71.437964 66.280122 
L 74.334714 68.525501 
L 77.231463 70.77088 
L 80.128213 72.879053 
L 83.024963 74.987226 
L 85.921713 76.93693 
L 88.818462 78.886635 
L 91.715212 80.632284 
L 94.611962 82.377933 
L 97.508712 83.78322 
L 100.405461 85.188507 
L 103.302211 85.815128 
L 106.198961 86.44175 
L 111.216279 86.001293 
L 116.233596 86.04048 
L 121.250914 85.207757 
L 126.268232 84.836833 
L 131.28555 83.632749 
L 136.302867 82.83134 
L 141.320185 81.39811 
L 146.337503 80.025029 
" style="fill:none;stroke:#440154;stroke-linecap:square;"/>
   </g>
   <g id="line2d_13">
    <path clip-path="url(#pcaa54d11cb)" d="M 36.676967 35.402347 
L 39.573717 35.969133 
L 42.470466 36.53592 
L 45.367216 37.6288 
L 48.263966 38.72168 
L 51.160716 39.864275 
L 54.057465 41.00687 
L 56.954215 42.078322 
L 59.850965 43.149775 
L 62.747715 44.11491 
L 65.644464 45.080046 
L 68.541214 45.925622 
L 71.437964 46.771199 
L 74.334714 47.491241 
L 77.231463 48.211283 
L 80.128213 48.802745 
L 83.024963 49.394206 
L 85.921713 49.855405 
L 88.818462 50.316603 
L 91.715212 50.646567 
L 94.611962 50.976532 
L 97.508712 51.174703 
L 100.405461 51.372875 
L 103.302211 51.438962 
L 106.198961 51.505049 
L 111.216279 55.405132 
L 116.233596 59.850869 
L 121.250914 64.016245 
L 126.268232 68.011609 
L 131.28555 71.647717 
L 136.302867 75.035938 
L 141.320185 77.745931 
L 146.337503 80.025026 
" style="fill:none;stroke:#355f8d;stroke-linecap:square;"/>
   </g>
   <g id="line2d_14">
    <path clip-path="url(#pcaa54d11cb)" d="M 146.337503 80.025029 
L 156.372138 80.643935 
L 166.406774 77.543421 
L 176.441409 72.806151 
L 186.476045 67.025621 
L 196.51068 60.362288 
L 206.545316 52.894294 
L 216.579951 44.742863 
L 226.614587 37.316631 
" style="fill:none;stroke:#355f8d;stroke-linecap:square;"/>
   </g>
   <g id="line2d_15">
    <path clip-path="url(#pcaa54d11cb)" d="M 146.337503 80.025026 
L 156.372138 76.419717 
L 166.406774 72.018651 
L 176.441409 66.827955 
L 186.476045 60.860424 
L 196.51068 54.147495 
L 206.545316 46.733097 
L 216.579951 39.318699 
L 226.614587 35.402347 
" style="fill:none;stroke:#440154;stroke-linecap:square;"/>
   </g>
   <g id="line2d_16">
    <path clip-path="url(#pcaa54d11cb)" d="M 36.676967 35.402268 
L 39.573717 34.412766 
L 42.470466 33.423264 
L 45.367216 34.489495 
L 48.263966 35.555726 
L 51.160716 36.937844 
L 54.057465 38.319962 
L 56.954215 39.564962 
L 59.850965 40.809962 
L 62.747715 41.894953 
L 65.644464 42.979945 
L 68.541214 43.909643 
L 71.437964 44.83934 
L 74.334714 45.619315 
L 77.231463 46.39929 
L 80.128213 47.033544 
L 83.024963 47.667797 
L 85.921713 48.158983 
L 88.818462 48.650169 
L 91.715212 48.999995 
L 94.611962 49.34982 
L 97.508712 49.559337 
L 100.405461 49.768854 
L 103.302211 49.838633 
L 106.198961 49.908412 
L 111.216279 45.724355 
L 116.233596 40.69694 
L 121.250914 35.370938 
L 126.268232 29.898816 
L 131.28555 24.151517 
L 136.302867 18.264621 
L 141.320185 12.107095 
L 146.337503 5.918126 
L 156.372138 11.945526 
L 166.406774 17.167798 
L 176.441409 21.581971 
L 186.476045 25.182482 
L 196.51068 27.954648 
L 206.545316 30.005191 
L 216.579951 31.703419 
L 226.614587 35.402268 
" style="fill:none;stroke:#22a884;stroke-linecap:square;"/>
   </g>
   <g id="line2d_17">
    <path clip-path="url(#pcaa54d11cb)" d="M 36.676967 109.880637 
L 39.573717 109.832067 
L 42.470466 109.686533 
L 45.367216 109.444591 
L 48.263966 109.107283 
L 51.160716 108.676294 
L 54.057465 108.154149 
L 56.954215 107.544448 
L 59.850965 106.852096 
L 62.747715 106.083523 
L 65.644464 105.246867 
L 68.541214 104.35209 
L 71.437964 103.411031 
L 74.334714 102.437357 
L 77.231463 101.446424 
L 80.128213 100.455032 
L 83.024963 99.48109 
L 85.921713 98.543189 
L 88.818462 97.660104 
L 91.715212 96.850249 
L 94.611962 96.131108 
L 97.508712 95.518656 
L 100.405461 95.026823 
L 103.302211 94.667002 
L 106.198961 94.44764 
L 111.216279 94.240484 
L 116.233596 93.858082 
L 121.250914 93.278514 
L 126.268232 92.581459 
L 131.28555 91.865422 
L 136.302867 91.236673 
L 141.320185 90.797536 
L 146.337503 90.635456 
L 156.372138 91.367326 
L 166.406774 93.573872 
L 176.441409 96.926358 
L 186.476045 100.788995 
L 196.51068 104.464486 
L 206.545316 107.396406 
L 216.579951 109.25055 
L 226.614587 109.880637 
" style="fill:none;stroke:#808080;stroke-dasharray:3.7,1.6;stroke-dashoffset:0;"/>
   </g>
   <g id="patch_3">
    <path d="M 36.676967 115.078763 
L 36.676967 0.72 
" style="fill:none;stroke:#000000;stroke-linecap:square;stroke-linejoin:miter;stroke-width:0.5;"/>
   </g>
   <g id="patch_4">
    <path d="M 226.614587 115.078763 
L 226.614587 0.72 
" style="fill:none;stroke:#000000;stroke-linecap:square;stroke-linejoin:miter;stroke-width:0.5;"/>
   </g>
   <g id="patch_5">
    <path d="M 36.676967 115.078763 
L 226.614587 115.078763 
" style="fill:none;stroke:#000000;stroke-linecap:square;stroke-linejoin:miter;stroke-width:0.5;"/>
   </g>
   <g id="patch_6">
    <path d="M 36.676967 0.72 
L 226.614587 0.72 
" style="fill:none;stroke:#000000;stroke-linecap:square;stroke-linejoin:miter;stroke-width:0.5;"/>
   </g>
   <g id="axes_2">
    <g id="line2d_18">
     <path clip-path="url(#pa3ba9603bb)" d="M 79.412931 20.732783 
L 96.454797 20.732783 
" style="fill:none;stroke:#808080;stroke-linecap:square;stroke-width:0.5;"/>
    </g>
    <g id="line2d_19">
     <path clip-path="url(#pa3ba9603bb)" d="M 79.412931 20.732783 
L 92.194331 13.353439 
" style="fill:none;stroke:#808080;stroke-linecap:square;stroke-width:0.5;"/>
    </g>
    <g id="text_10">
     <!-- $\Gamma$ -->
     <g transform="translate(74.412931 22.732783)scale(0.08 -0.08)">
      <use transform="scale(0.996264)" xlink:href="#CMR17-0"/>
     </g>
    </g>
    <g id="text_11">
     <!-- $K$ -->
     <g transform="translate(97.454797 22.732783)scale(0.08 -0.08)">
      <defs>
       <path d="M 3200 2574 
C 3194 2593 3168 2644 3168 2663 
C 3168 2669 3174 2675 3283 2758 
L 3904 3242 
C 4762 3905 5043 4128 5485 4166 
C 5530 4172 5594 4172 5594 4281 
C 5594 4319 5574 4352 5523 4352 
C 5453 4352 5376 4339 5306 4339 
L 5062 4339 
C 4864 4339 4653 4352 4461 4352 
C 4416 4352 4339 4352 4339 4236 
C 4339 4172 4384 4166 4422 4166 
C 4493 4159 4576 4134 4576 4045 
C 4576 3917 4384 3765 4333 3726 
L 1824 1784 
L 2355 3886 
C 2413 4102 2426 4166 2880 4166 
C 3002 4166 3059 4166 3059 4287 
C 3059 4352 2995 4352 2963 4352 
C 2848 4352 2714 4339 2592 4339 
L 1837 4339 
C 1722 4339 1581 4352 1466 4352 
C 1414 4352 1344 4352 1344 4230 
C 1344 4166 1402 4166 1498 4166 
C 1888 4166 1888 4115 1888 4045 
C 1888 4032 1888 3994 1862 3898 
L 998 472 
C 941 249 928 185 480 185 
C 358 185 294 185 294 70 
C 294 0 352 0 390 0 
C 512 0 640 12 762 12 
L 1510 12 
C 1632 12 1766 0 1888 0 
C 1939 0 2010 0 2010 121 
C 2010 185 1952 185 1856 185 
C 1466 185 1466 236 1466 300 
C 1466 344 1504 504 1530 605 
L 1779 1593 
L 2752 2351 
C 2938 1943 3277 1128 3539 504 
C 3558 465 3571 427 3571 383 
C 3571 191 3315 185 3258 185 
C 3200 185 3136 185 3136 64 
C 3136 0 3206 0 3226 0 
C 3450 0 3686 12 3910 12 
L 4218 12 
C 4314 12 4422 0 4518 0 
C 4557 0 4627 0 4627 121 
C 4627 185 4570 185 4506 185 
C 4269 191 4186 242 4090 472 
L 3200 2574 
z
" id="CMMI12-4b" transform="scale(0.015625)"/>
      </defs>
      <use transform="scale(0.996264)" xlink:href="#CMMI12-4b"/>
     </g>
    </g>
    <g id="text_12">
     <!-- $M$ -->
     <g transform="translate(93.194331 14.353439)scale(0.08 -0.08)">
      <defs>
       <path d="M 5811 3886 
C 5869 4102 5882 4166 6336 4166 
C 6458 4166 6515 4166 6515 4287 
C 6515 4352 6470 4352 6349 4352 
L 5581 4352 
C 5421 4352 5414 4345 5344 4243 
L 3008 567 
L 2528 4211 
C 2509 4352 2502 4352 2336 4352 
L 1542 4352 
C 1421 4352 1363 4352 1363 4230 
C 1363 4166 1421 4166 1517 4166 
C 1907 4166 1907 4115 1907 4045 
C 1907 4032 1907 3994 1882 3898 
L 1062 650 
C 986 344 838 204 410 185 
C 390 185 314 179 314 70 
C 314 0 371 0 397 0 
C 525 0 851 12 979 12 
L 1286 12 
C 1376 12 1485 0 1574 0 
C 1619 0 1690 0 1690 121 
C 1690 179 1626 185 1600 185 
C 1389 191 1184 230 1184 459 
C 1184 523 1184 529 1210 618 
L 2093 4128 
L 2099 4128 
L 2630 172 
C 2650 19 2656 0 2714 0 
C 2784 0 2816 51 2848 108 
L 5421 4159 
L 5427 4159 
L 4499 472 
C 4442 249 4429 185 3981 185 
C 3859 185 3795 185 3795 70 
C 3795 0 3853 0 3891 0 
C 4000 0 4128 12 4237 12 
L 4992 12 
C 5101 12 5235 0 5344 0 
C 5395 0 5466 0 5466 121 
C 5466 185 5408 185 5312 185 
C 4922 185 4922 236 4922 300 
C 4922 306 4922 351 4934 402 
L 5811 3886 
z
" id="CMMI12-4d" transform="scale(0.015625)"/>
      </defs>
      <use transform="scale(0.996264)" xlink:href="#CMMI12-4d"/>
     </g>
    </g>
    <g id="patch_7">
     <path clip-path="url(#pa3ba9603bb)" d="M 96.454797 20.732783 
L 87.933864 5.974095 
L 70.891998 5.974095 
L 62.371066 20.732783 
L 70.891998 35.491472 
L 87.933864 35.491472 
z
" style="fill:none;stroke:#000000;stroke-linejoin:miter;stroke-width:0.6;"/>
    </g>
   </g>
  </g>
 </g>
 <defs>
  <clipPath id="pcaa54d11cb">
   <rect height="114.358763" width="189.93762" x="36.676967" y="0.72"/>
  </clipPath>
  <clipPath id="pa3ba9603bb">
   <rect height="40.025567" width="40.025567" x="59.400148" y="0.72"/>
  </clipPath>
 </defs>
</svg>
