<?xml version="1.0" encoding="utf-8" standalone="no"?>
<!DOCTYPE svg PUBLIC "-//W3C//DTD SVG 1.1//EN"
  "http://www.w3.org/Graphics/SVG/1.1/DTD/svg11.dtd">
<svg height="307.343601pt" version="1.1" viewBox="0 0 252.407109 307.343601" width="252.407109pt" xmlns="http://www.w3.org/2000/svg" xmlns:xlink="http://www.w3.org/1999/xlink">
 <metadata>
  <rdf:RDF xmlns:cc="http://creativecommons.org/ns#" xmlns:dc="http://purl.org/dc/elements/1.1/" xmlns:rdf="http://www.w3.org/1999/02/22-rdf-syntax-ns#">
   <cc:Work>
    <dc:type rdf:resource="http://purl.org/dc/dcmitype/StillImage"/>
    <dc:date>2021-07-29T14:56:07.790826</dc:date>
    <dc:format>image/svg+xml</dc:format>
    <dc:creator>
     <cc:Agent>
      <dc:title>Matplotlib v3.4.2, https://matplotlib.org/</dc:title>
     </cc:Agent>
    </dc:creator>
   </cc:Work>
  </rdf:RDF>
 </metadata>
 <defs>
  <style type="text/css">*{stroke-linecap:butt;stroke-linejoin:round;}</style>
 </defs>
 <g id="figure_1">
  <g id="patch_1">
   <path d="M 0 307.343601 
L 252.407109 307.343601 
L 252.407109 0 
L 0 0 
z
" style="fill:none;"/>
  </g>
  <g id="axes_1">
   <g id="patch_2">
    <path d="M 50.578625 94.730228 
L 250.013126 94.730228 
L 250.013126 5.196678 
L 50.578625 5.196678 
z
" style="fill:none;"/>
   </g>
   <g id="line2d_1">
    <path clip-path="url(#p1dc66e2197)" d="M 54.489106 90.007567 
L 55.62428 76.234716 
L 56.759455 65.261929 
L 57.894629 56.519945 
L 59.029804 49.555233 
L 60.164978 44.00647 
L 61.300153 39.585788 
L 62.435327 36.063844 
L 63.570502 33.257923 
L 64.705676 31.022455 
L 65.840851 29.241464 
L 66.976025 27.822554 
L 68.300395 26.527446 
L 69.624766 25.533991 
L 71.138332 24.678638 
L 72.841093 23.98056 
L 74.922247 23.39499 
L 77.381791 22.954478 
L 80.598119 22.625782 
L 85.138817 22.40867 
L 92.895843 22.29318 
L 116.16692 22.262479 
L 243.495659 22.262185 
L 243.495659 22.262185 
" style="fill:none;stroke:#5e4fa2;stroke-linecap:square;stroke-width:0.75;"/>
   </g>
   <g id="matplotlib.axis_1">
    <g id="xtick_1">
     <g id="line2d_2">
      <defs>
       <path d="M 0 0 
L 0 2 
" id="m623acab836" style="stroke:#000000;stroke-width:0.5;"/>
      </defs>
      <g>
       <use style="stroke:#000000;stroke-width:0.5;" x="80.558975" xlink:href="#m623acab836" y="94.730228"/>
      </g>
     </g>
    </g>
    <g id="xtick_2">
     <g id="line2d_3">
      <g>
       <use style="stroke:#000000;stroke-width:0.5;" x="113.146312" xlink:href="#m623acab836" y="94.730228"/>
      </g>
     </g>
    </g>
    <g id="xtick_3">
     <g id="line2d_4">
      <g>
       <use style="stroke:#000000;stroke-width:0.5;" x="145.733649" xlink:href="#m623acab836" y="94.730228"/>
      </g>
     </g>
    </g>
    <g id="xtick_4">
     <g id="line2d_5">
      <g>
       <use style="stroke:#000000;stroke-width:0.5;" x="178.320985" xlink:href="#m623acab836" y="94.730228"/>
      </g>
     </g>
    </g>
    <g id="xtick_5">
     <g id="line2d_6">
      <g>
       <use style="stroke:#000000;stroke-width:0.5;" x="210.908322" xlink:href="#m623acab836" y="94.730228"/>
      </g>
     </g>
    </g>
    <g id="xtick_6">
     <g id="line2d_7">
      <g>
       <use style="stroke:#000000;stroke-width:0.5;" x="243.495659" xlink:href="#m623acab836" y="94.730228"/>
      </g>
     </g>
    </g>
   </g>
   <g id="matplotlib.axis_2">
    <g id="ytick_1">
     <g id="line2d_8">
      <defs>
       <path d="M 0 0 
L -2 0 
" id="m5b93b19abc" style="stroke:#000000;stroke-width:0.5;"/>
      </defs>
      <g>
       <use style="stroke:#000000;stroke-width:0.5;" x="50.578625" xlink:href="#m5b93b19abc" y="78.660885"/>
      </g>
     </g>
     <g id="text_1">
      <!-- $\mathdefault{123}$ -->
      <g transform="translate(32.755553 81.77421)scale(0.09 -0.09)">
       <defs>
        <path d="M 1702 4083 
C 1702 4217 1696 4224 1606 4224 
C 1357 3927 979 3833 621 3820 
C 602 3820 570 3820 563 3808 
C 557 3795 557 3782 557 3648 
C 755 3648 1088 3686 1344 3839 
L 1344 467 
C 1344 243 1331 166 781 166 
L 589 166 
L 589 0 
C 896 6 1216 12 1523 12 
C 1830 12 2150 6 2458 0 
L 2458 166 
L 2266 166 
C 1715 166 1702 236 1702 467 
L 1702 4083 
z
" id="CMR17-31" transform="scale(0.015625)"/>
        <path d="M 2669 990 
L 2554 990 
C 2490 537 2438 460 2413 422 
C 2381 371 1920 371 1830 371 
L 602 371 
C 832 620 1280 1073 1824 1596 
C 2214 1966 2669 2400 2669 3033 
C 2669 3788 2067 4224 1395 4224 
C 691 4224 262 3603 262 3027 
C 262 2777 448 2745 525 2745 
C 589 2745 781 2783 781 3007 
C 781 3206 614 3264 525 3264 
C 486 3264 448 3257 422 3244 
C 544 3788 915 4057 1306 4057 
C 1862 4057 2227 3616 2227 3033 
C 2227 2477 1901 1998 1536 1583 
L 262 147 
L 262 0 
L 2515 0 
L 2669 990 
z
" id="CMR17-32" transform="scale(0.015625)"/>
        <path d="M 1414 2176 
C 1984 2176 2234 1673 2234 1094 
C 2234 322 1824 25 1453 25 
C 1114 25 563 193 390 691 
C 422 678 454 678 486 678 
C 640 678 755 780 755 947 
C 755 1132 614 1216 486 1216 
C 378 1216 211 1164 211 927 
C 211 335 787 -128 1466 -128 
C 2176 -128 2720 432 2720 1087 
C 2720 1718 2208 2176 1600 2246 
C 2086 2347 2554 2776 2554 3353 
C 2554 3856 2048 4224 1472 4224 
C 890 4224 378 3862 378 3347 
C 378 3123 544 3084 627 3084 
C 762 3084 877 3167 877 3334 
C 877 3500 762 3584 627 3584 
C 602 3584 570 3584 544 3571 
C 730 3999 1235 4076 1459 4076 
C 1683 4076 2106 3966 2106 3347 
C 2106 3167 2080 2851 1862 2574 
C 1670 2329 1453 2316 1242 2297 
C 1210 2297 1062 2284 1037 2284 
C 992 2278 966 2272 966 2227 
C 966 2182 973 2176 1101 2176 
L 1414 2176 
z
" id="CMR17-33" transform="scale(0.015625)"/>
       </defs>
       <use transform="scale(0.996264)" xlink:href="#CMR17-31"/>
       <use transform="translate(45.690477 0)scale(0.996264)" xlink:href="#CMR17-32"/>
       <use transform="translate(91.380954 0)scale(0.996264)" xlink:href="#CMR17-33"/>
      </g>
     </g>
    </g>
    <g id="ytick_2">
     <g id="line2d_9">
      <g>
       <use style="stroke:#000000;stroke-width:0.5;" x="50.578625" xlink:href="#m5b93b19abc" y="34.815539"/>
      </g>
     </g>
     <g id="text_2">
      <!-- $\mathdefault{124}$ -->
      <g transform="translate(32.755553 37.928864)scale(0.09 -0.09)">
       <defs>
        <path d="M 2150 4147 
C 2150 4281 2144 4288 2029 4288 
L 128 1254 
L 128 1088 
L 1779 1088 
L 1779 460 
C 1779 230 1766 166 1318 166 
L 1197 166 
L 1197 0 
C 1402 12 1747 12 1965 12 
C 2182 12 2528 12 2733 0 
L 2733 166 
L 2611 166 
C 2163 166 2150 230 2150 460 
L 2150 1088 
L 2803 1088 
L 2803 1254 
L 2150 1254 
L 2150 4147 
z
M 1798 3723 
L 1798 1254 
L 256 1254 
L 1798 3723 
z
" id="CMR17-34" transform="scale(0.015625)"/>
       </defs>
       <use transform="scale(0.996264)" xlink:href="#CMR17-31"/>
       <use transform="translate(45.690477 0)scale(0.996264)" xlink:href="#CMR17-32"/>
       <use transform="translate(91.380954 0)scale(0.996264)" xlink:href="#CMR17-34"/>
      </g>
     </g>
    </g>
    <g id="text_3">
     <!-- $\alabel{\expval{K/N}}{\kelvin}$ -->
     <g transform="translate(22.513959 73.454364)rotate(-90)scale(0.09 -0.09)">
      <defs>
       <path d="M 2099 4557 
C 2131 4627 2131 4640 2131 4672 
C 2131 4742 2074 4800 2003 4800 
C 1946 4800 1901 4768 1856 4653 
L 736 1715 
C 723 1677 704 1638 704 1600 
C 704 1580 704 1568 736 1491 
L 1856 -1447 
C 1882 -1517 1914 -1600 2003 -1600 
C 2074 -1600 2131 -1543 2131 -1472 
C 2131 -1453 2131 -1440 2099 -1370 
L 966 1600 
L 2099 4557 
z
" id="CMSY10-68" transform="scale(0.015625)"/>
       <path d="M 3200 2574 
C 3194 2593 3168 2644 3168 2663 
C 3168 2669 3174 2675 3283 2758 
L 3904 3242 
C 4762 3905 5043 4128 5485 4166 
C 5530 4172 5594 4172 5594 4281 
C 5594 4319 5574 4352 5523 4352 
C 5453 4352 5376 4339 5306 4339 
L 5062 4339 
C 4864 4339 4653 4352 4461 4352 
C 4416 4352 4339 4352 4339 4236 
C 4339 4172 4384 4166 4422 4166 
C 4493 4159 4576 4134 4576 4045 
C 4576 3917 4384 3765 4333 3726 
L 1824 1784 
L 2355 3886 
C 2413 4102 2426 4166 2880 4166 
C 3002 4166 3059 4166 3059 4287 
C 3059 4352 2995 4352 2963 4352 
C 2848 4352 2714 4339 2592 4339 
L 1837 4339 
C 1722 4339 1581 4352 1466 4352 
C 1414 4352 1344 4352 1344 4230 
C 1344 4166 1402 4166 1498 4166 
C 1888 4166 1888 4115 1888 4045 
C 1888 4032 1888 3994 1862 3898 
L 998 472 
C 941 249 928 185 480 185 
C 358 185 294 185 294 70 
C 294 0 352 0 390 0 
C 512 0 640 12 762 12 
L 1510 12 
C 1632 12 1766 0 1888 0 
C 1939 0 2010 0 2010 121 
C 2010 185 1952 185 1856 185 
C 1466 185 1466 236 1466 300 
C 1466 344 1504 504 1530 605 
L 1779 1593 
L 2752 2351 
C 2938 1943 3277 1128 3539 504 
C 3558 465 3571 427 3571 383 
C 3571 191 3315 185 3258 185 
C 3200 185 3136 185 3136 64 
C 3136 0 3206 0 3226 0 
C 3450 0 3686 12 3910 12 
L 4218 12 
C 4314 12 4422 0 4518 0 
C 4557 0 4627 0 4627 121 
C 4627 185 4570 185 4506 185 
C 4269 191 4186 242 4090 472 
L 3200 2574 
z
" id="CMMI12-4b" transform="scale(0.015625)"/>
       <path d="M 2746 4563 
C 2746 4569 2784 4665 2784 4678 
C 2784 4755 2720 4800 2669 4800 
C 2637 4800 2579 4800 2528 4659 
L 384 -1364 
C 384 -1370 346 -1466 346 -1479 
C 346 -1556 410 -1600 461 -1600 
C 499 -1600 557 -1594 602 -1460 
L 2746 4563 
z
" id="CMMI12-3d" transform="scale(0.015625)"/>
       <path d="M 4736 3682 
C 4806 3956 4909 4147 5395 4166 
C 5414 4166 5491 4172 5491 4281 
C 5491 4352 5434 4352 5408 4352 
C 5280 4352 4954 4339 4826 4339 
L 4518 4339 
C 4429 4339 4314 4352 4224 4352 
C 4186 4352 4109 4352 4109 4230 
C 4109 4166 4160 4166 4205 4166 
C 4589 4153 4614 4007 4614 3892 
C 4614 3835 4608 3816 4589 3726 
L 3866 854 
L 2496 4243 
C 2451 4345 2445 4352 2304 4352 
L 1523 4352 
C 1395 4352 1338 4352 1338 4230 
C 1338 4166 1382 4166 1504 4166 
C 1536 4166 1914 4166 1914 4109 
C 1914 4096 1901 4045 1894 4026 
L 1043 650 
C 966 338 813 204 390 185 
C 358 185 294 179 294 64 
C 294 0 358 0 378 0 
C 506 0 832 12 960 12 
L 1267 12 
C 1357 12 1466 0 1555 0 
C 1600 0 1670 0 1670 121 
C 1670 179 1606 185 1581 185 
C 1370 191 1165 230 1165 459 
C 1165 510 1178 567 1190 618 
L 2054 4026 
C 2093 3962 2093 3949 2118 3892 
L 3642 115 
C 3674 38 3686 0 3744 0 
C 3808 0 3814 19 3840 128 
L 4736 3682 
z
" id="CMMI12-4e" transform="scale(0.015625)"/>
       <path d="M 1747 1491 
C 1779 1568 1779 1580 1779 1600 
C 1779 1619 1779 1632 1747 1709 
L 627 4653 
C 589 4761 550 4800 480 4800 
C 410 4800 352 4742 352 4672 
C 352 4653 352 4640 384 4569 
L 1517 1600 
L 384 -1357 
C 352 -1428 352 -1440 352 -1472 
C 352 -1543 410 -1600 480 -1600 
C 563 -1600 589 -1536 614 -1472 
L 1747 1491 
z
" id="CMSY10-69" transform="scale(0.015625)"/>
       <path d="M 1958 -1562 
C 1958 -1556 1958 -1543 1939 -1524 
C 1645 -1223 858 -403 858 1596 
C 858 3595 1632 4408 1946 4729 
C 1946 4735 1958 4748 1958 4767 
C 1958 4787 1939 4800 1914 4800 
C 1843 4800 1299 4325 986 3620 
C 666 2909 576 2218 576 1603 
C 576 1141 621 360 1005 -467 
C 1312 -1133 1837 -1600 1914 -1600 
C 1946 -1600 1958 -1588 1958 -1562 
z
" id="CMR17-28" transform="scale(0.015625)"/>
       <path d="M 2362 2669 
L 3469 3771 
C 3699 3994 3942 4172 4301 4185 
L 4301 4352 
C 4173 4345 4013 4339 3885 4339 
C 3712 4339 3411 4339 3245 4352 
L 3245 4185 
C 3411 4172 3437 4057 3437 4013 
C 3437 3968 3411 3898 3386 3860 
L 1261 1739 
L 1261 3898 
C 1261 4185 1331 4185 1773 4185 
L 1773 4352 
C 1587 4339 1248 4339 1050 4339 
C 851 4339 512 4339 326 4352 
L 326 4185 
C 768 4185 838 4185 838 3898 
L 838 453 
C 838 166 768 166 326 166 
L 326 0 
C 512 12 851 12 1050 12 
C 1248 12 1587 12 1773 0 
L 1773 166 
C 1331 166 1261 166 1261 453 
L 1261 1580 
L 2080 2389 
L 3290 542 
C 3328 478 3373 395 3373 332 
C 3373 166 3194 166 3110 166 
L 3110 0 
C 3315 12 3610 12 3821 12 
C 3974 12 4237 12 4384 0 
L 4384 166 
C 4077 166 3981 204 3789 497 
L 2362 2669 
z
" id="CMR17-4b" transform="scale(0.015625)"/>
       <path d="M 1683 1596 
C 1683 2057 1638 2839 1254 3665 
C 947 4332 422 4800 346 4800 
C 326 4800 301 4793 301 4761 
C 301 4748 307 4742 314 4729 
C 621 4408 1402 3595 1402 1603 
C 1402 -396 627 -1210 314 -1530 
C 307 -1543 301 -1549 301 -1562 
C 301 -1594 326 -1600 346 -1600 
C 416 -1600 960 -1127 1274 -422 
C 1594 289 1683 981 1683 1596 
z
" id="CMR17-29" transform="scale(0.015625)"/>
      </defs>
      <use transform="scale(0.996264)" xlink:href="#CMSY10-68"/>
      <use transform="translate(38.743734 0)scale(0.996264)" xlink:href="#CMMI12-4b"/>
      <use transform="translate(123.471719 0)scale(0.996264)" xlink:href="#CMMI12-3d"/>
      <use transform="translate(166.827203 0)scale(0.996264)" xlink:href="#CMMI12-4e"/>
      <use transform="translate(255.348975 0)scale(0.996264)" xlink:href="#CMSY10-69"/>
      <use transform="translate(349.440726 0)scale(0.996264)" xlink:href="#CMR17-28"/>
      <use transform="translate(384.721494 0)scale(0.996264)" xlink:href="#CMR17-4b"/>
      <use transform="translate(456.396272 0)scale(0.996264)" xlink:href="#CMR17-29"/>
     </g>
    </g>
   </g>
   <g id="LineCollection_1">
    <path clip-path="url(#p1dc66e2197)" style="fill:none;stroke:#5e4fa2;stroke-width:0.5;"/>
    <path clip-path="url(#p1dc66e2197)" d="M 243.808999 24.55209 
L 243.808999 17.30193 
" style="fill:none;stroke:#5e4fa2;stroke-width:0.5;"/>
    <path clip-path="url(#p1dc66e2197)" d="M 230.753907 22.177601 
L 230.753907 14.857486 
" style="fill:none;stroke:#5e4fa2;stroke-width:0.5;"/>
    <path clip-path="url(#p1dc66e2197)" d="M 217.697351 15.667124 
L 217.697351 9.266384 
" style="fill:none;stroke:#5e4fa2;stroke-width:0.5;"/>
    <path clip-path="url(#p1dc66e2197)" d="M 204.641527 26.20065 
L 204.641527 19.718316 
" style="fill:none;stroke:#5e4fa2;stroke-width:0.5;"/>
    <path clip-path="url(#p1dc66e2197)" d="M 191.585127 29.194556 
L 191.585127 22.870344 
" style="fill:none;stroke:#5e4fa2;stroke-width:0.5;"/>
    <path clip-path="url(#p1dc66e2197)" d="M 178.529879 19.184343 
L 178.529879 13.011446 
" style="fill:none;stroke:#5e4fa2;stroke-width:0.5;"/>
    <path clip-path="url(#p1dc66e2197)" d="M 165.473348 24.670573 
L 165.473348 17.952363 
" style="fill:none;stroke:#5e4fa2;stroke-width:0.5;"/>
    <path clip-path="url(#p1dc66e2197)" d="M 152.418231 28.461318 
L 152.418231 22.462375 
" style="fill:none;stroke:#5e4fa2;stroke-width:0.5;"/>
    <path clip-path="url(#p1dc66e2197)" d="M 139.362132 24.225395 
L 139.362132 17.912238 
" style="fill:none;stroke:#5e4fa2;stroke-width:0.5;"/>
    <path clip-path="url(#p1dc66e2197)" d="M 126.306582 28.250317 
L 126.306582 22.24869 
" style="fill:none;stroke:#5e4fa2;stroke-width:0.5;"/>
    <path clip-path="url(#p1dc66e2197)" d="M 113.250432 24.753645 
L 113.250432 19.073108 
" style="fill:none;stroke:#5e4fa2;stroke-width:0.5;"/>
    <path clip-path="url(#p1dc66e2197)" d="M 100.194725 29.66151 
L 100.194725 24.705205 
" style="fill:none;stroke:#5e4fa2;stroke-width:0.5;"/>
    <path clip-path="url(#p1dc66e2197)" d="M 87.138993 25.465684 
L 87.138993 21.850743 
" style="fill:none;stroke:#5e4fa2;stroke-width:0.5;"/>
    <path clip-path="url(#p1dc66e2197)" d="M 74.083234 27.034686 
L 74.083234 24.173563 
" style="fill:none;stroke:#5e4fa2;stroke-width:0.5;"/>
    <path clip-path="url(#p1dc66e2197)" d="M 72.451262 26.770479 
L 72.451262 23.814158 
" style="fill:none;stroke:#5e4fa2;stroke-width:0.5;"/>
    <path clip-path="url(#p1dc66e2197)" d="M 70.819262 26.071454 
L 70.819262 23.465542 
" style="fill:none;stroke:#5e4fa2;stroke-width:0.5;"/>
    <path clip-path="url(#p1dc66e2197)" d="M 69.187283 26.235673 
L 69.187283 23.92487 
" style="fill:none;stroke:#5e4fa2;stroke-width:0.5;"/>
    <path clip-path="url(#p1dc66e2197)" d="M 67.555316 26.909014 
L 67.555316 24.708005 
" style="fill:none;stroke:#5e4fa2;stroke-width:0.5;"/>
    <path clip-path="url(#p1dc66e2197)" d="M 65.923349 28.53937 
L 65.923349 26.034119 
" style="fill:none;stroke:#5e4fa2;stroke-width:0.5;"/>
    <path clip-path="url(#p1dc66e2197)" d="M 64.291377 32.65561 
L 64.291377 30.633194 
" style="fill:none;stroke:#5e4fa2;stroke-width:0.5;"/>
    <path clip-path="url(#p1dc66e2197)" d="M 62.659402 35.694062 
L 62.659402 33.754597 
" style="fill:none;stroke:#5e4fa2;stroke-width:0.5;"/>
    <path clip-path="url(#p1dc66e2197)" d="M 61.027423 42.370406 
L 61.027423 40.454745 
" style="fill:none;stroke:#5e4fa2;stroke-width:0.5;"/>
    <path clip-path="url(#p1dc66e2197)" d="M 59.39546 50.442235 
L 59.39546 48.653288 
" style="fill:none;stroke:#5e4fa2;stroke-width:0.5;"/>
    <path clip-path="url(#p1dc66e2197)" d="M 57.763484 57.675428 
L 57.763484 56.159301 
" style="fill:none;stroke:#5e4fa2;stroke-width:0.5;"/>
    <path clip-path="url(#p1dc66e2197)" d="M 56.131508 71.372254 
L 56.131508 70.009584 
" style="fill:none;stroke:#5e4fa2;stroke-width:0.5;"/>
    <path clip-path="url(#p1dc66e2197)" d="M 54.499534 90.660521 
L 54.499534 89.266573 
" style="fill:none;stroke:#5e4fa2;stroke-width:0.5;"/>
   </g>
   <g id="line2d_10">
    <defs>
     <path d="M 0 2.5 
C 0.663008 2.5 1.29895 2.236584 1.767767 1.767767 
C 2.236584 1.29895 2.5 0.663008 2.5 0 
C 2.5 -0.663008 2.236584 -1.29895 1.767767 -1.767767 
C 1.29895 -2.236584 0.663008 -2.5 0 -2.5 
C -0.663008 -2.5 -1.29895 -2.236584 -1.767767 -1.767767 
C -2.236584 -1.29895 -2.5 -0.663008 -2.5 0 
C -2.5 0.663008 -2.236584 1.29895 -1.767767 1.767767 
C -1.29895 2.236584 -0.663008 2.5 0 2.5 
z
" id="mdeae8d05ce" style="stroke:#5e4fa2;stroke-width:0.75;"/>
    </defs>
    <g clip-path="url(#p1dc66e2197)">
     <use style="fill-opacity:0;stroke:#5e4fa2;stroke-width:0.75;" x="256.864823" xlink:href="#mdeae8d05ce" y="26.802253"/>
     <use style="fill-opacity:0;stroke:#5e4fa2;stroke-width:0.75;" x="243.808999" xlink:href="#mdeae8d05ce" y="20.92701"/>
     <use style="fill-opacity:0;stroke:#5e4fa2;stroke-width:0.75;" x="230.753907" xlink:href="#mdeae8d05ce" y="18.517544"/>
     <use style="fill-opacity:0;stroke:#5e4fa2;stroke-width:0.75;" x="217.697351" xlink:href="#mdeae8d05ce" y="12.466754"/>
     <use style="fill-opacity:0;stroke:#5e4fa2;stroke-width:0.75;" x="204.641527" xlink:href="#mdeae8d05ce" y="22.959483"/>
     <use style="fill-opacity:0;stroke:#5e4fa2;stroke-width:0.75;" x="191.585127" xlink:href="#mdeae8d05ce" y="26.03245"/>
     <use style="fill-opacity:0;stroke:#5e4fa2;stroke-width:0.75;" x="178.529879" xlink:href="#mdeae8d05ce" y="16.097894"/>
     <use style="fill-opacity:0;stroke:#5e4fa2;stroke-width:0.75;" x="165.473348" xlink:href="#mdeae8d05ce" y="21.311468"/>
     <use style="fill-opacity:0;stroke:#5e4fa2;stroke-width:0.75;" x="152.418231" xlink:href="#mdeae8d05ce" y="25.461846"/>
     <use style="fill-opacity:0;stroke:#5e4fa2;stroke-width:0.75;" x="139.362132" xlink:href="#mdeae8d05ce" y="21.068817"/>
     <use style="fill-opacity:0;stroke:#5e4fa2;stroke-width:0.75;" x="126.306582" xlink:href="#mdeae8d05ce" y="25.249503"/>
     <use style="fill-opacity:0;stroke:#5e4fa2;stroke-width:0.75;" x="113.250432" xlink:href="#mdeae8d05ce" y="21.913377"/>
     <use style="fill-opacity:0;stroke:#5e4fa2;stroke-width:0.75;" x="100.194725" xlink:href="#mdeae8d05ce" y="27.183357"/>
     <use style="fill-opacity:0;stroke:#5e4fa2;stroke-width:0.75;" x="87.138993" xlink:href="#mdeae8d05ce" y="23.658213"/>
     <use style="fill-opacity:0;stroke:#5e4fa2;stroke-width:0.75;" x="74.083234" xlink:href="#mdeae8d05ce" y="25.604125"/>
     <use style="fill-opacity:0;stroke:#5e4fa2;stroke-width:0.75;" x="72.451262" xlink:href="#mdeae8d05ce" y="25.292318"/>
     <use style="fill-opacity:0;stroke:#5e4fa2;stroke-width:0.75;" x="70.819262" xlink:href="#mdeae8d05ce" y="24.768498"/>
     <use style="fill-opacity:0;stroke:#5e4fa2;stroke-width:0.75;" x="69.187283" xlink:href="#mdeae8d05ce" y="25.080271"/>
     <use style="fill-opacity:0;stroke:#5e4fa2;stroke-width:0.75;" x="67.555316" xlink:href="#mdeae8d05ce" y="25.80851"/>
     <use style="fill-opacity:0;stroke:#5e4fa2;stroke-width:0.75;" x="65.923349" xlink:href="#mdeae8d05ce" y="27.286745"/>
     <use style="fill-opacity:0;stroke:#5e4fa2;stroke-width:0.75;" x="64.291377" xlink:href="#mdeae8d05ce" y="31.644402"/>
     <use style="fill-opacity:0;stroke:#5e4fa2;stroke-width:0.75;" x="62.659402" xlink:href="#mdeae8d05ce" y="34.724329"/>
     <use style="fill-opacity:0;stroke:#5e4fa2;stroke-width:0.75;" x="61.027423" xlink:href="#mdeae8d05ce" y="41.412575"/>
     <use style="fill-opacity:0;stroke:#5e4fa2;stroke-width:0.75;" x="59.39546" xlink:href="#mdeae8d05ce" y="49.547762"/>
     <use style="fill-opacity:0;stroke:#5e4fa2;stroke-width:0.75;" x="57.763484" xlink:href="#mdeae8d05ce" y="56.917364"/>
     <use style="fill-opacity:0;stroke:#5e4fa2;stroke-width:0.75;" x="56.131508" xlink:href="#mdeae8d05ce" y="70.690919"/>
     <use style="fill-opacity:0;stroke:#5e4fa2;stroke-width:0.75;" x="54.499534" xlink:href="#mdeae8d05ce" y="89.963547"/>
    </g>
   </g>
   <g id="patch_3">
    <path d="M 50.578625 94.730228 
L 50.578625 5.196678 
" style="fill:none;stroke:#000000;stroke-linecap:square;stroke-linejoin:miter;stroke-width:0.5;"/>
   </g>
   <g id="patch_4">
    <path d="M 250.013126 94.730228 
L 250.013126 5.196678 
" style="fill:none;stroke:#000000;stroke-linecap:square;stroke-linejoin:miter;stroke-width:0.5;"/>
   </g>
   <g id="patch_5">
    <path d="M 50.578625 94.730228 
L 250.013126 94.730228 
" style="fill:none;stroke:#000000;stroke-linecap:square;stroke-linejoin:miter;stroke-width:0.5;"/>
   </g>
   <g id="patch_6">
    <path d="M 50.578625 5.196678 
L 250.013126 5.196678 
" style="fill:none;stroke:#000000;stroke-linecap:square;stroke-linejoin:miter;stroke-width:0.5;"/>
   </g>
   <g id="text_4">
    <!-- (a) -->
    <g transform="translate(0.72 7.444782)scale(0.09 -0.09)">
     <defs>
      <path d="M 2304 1656 
C 2304 2048 2304 2275 2035 2534 
C 1798 2751 1523 2816 1306 2816 
C 800 2816 435 2408 435 1977 
C 435 1740 627 1728 666 1728 
C 749 1728 896 1779 896 1958 
C 896 2118 774 2188 666 2188 
C 640 2188 608 2182 589 2176 
C 723 2594 1069 2713 1293 2713 
C 1613 2713 1965 2421 1965 1875 
L 1965 1632 
C 1587 1619 1133 1568 774 1373 
C 371 1147 256 822 256 576 
C 256 77 832 -64 1171 -64 
C 1523 -64 1850 135 1990 505 
C 2003 219 2182 -39 2464 -39 
C 2598 -39 2938 51 2938 563 
L 2938 926 
L 2822 926 
L 2822 557 
C 2822 161 2650 109 2566 109 
C 2304 109 2304 446 2304 732 
L 2304 1656 
z
M 1965 887 
C 1965 323 1568 38 1216 38 
C 896 38 646 278 646 576 
C 646 771 730 1114 1101 1322 
C 1408 1497 1760 1523 1965 1536 
L 1965 887 
z
" id="CMR17-61" transform="scale(0.015625)"/>
     </defs>
     <use transform="scale(0.996264)" xlink:href="#CMR17-28"/>
     <use transform="translate(35.280768 0)scale(0.996264)" xlink:href="#CMR17-61"/>
     <use transform="translate(80.971245 0)scale(0.996264)" xlink:href="#CMR17-29"/>
    </g>
   </g>
   <g id="text_5">
    <!-- $N_\graphene = 4, f=1$ -->
    <g transform="translate(54.567315 16.883248)scale(0.09 -0.09)">
     <defs>
      <path d="M 4045 2645 
L 4045 2240 
L 5050 2240 
L 4006 448 
L 1901 448 
L 845 2246 
L 1901 4096 
L 4006 4096 
L 4512 3200 
L 4941 3200 
L 4250 4544 
L 1658 4544 
L 352 2246 
L 1658 0 
L 4250 0 
L 5555 2240 
L 5037 2645 
L 4045 2645 
z
" id="SVRsymbols-73" transform="scale(0.015625)"/>
      <path d="M 4115 2048 
C 4211 2048 4307 2048 4307 2156 
C 4307 2272 4198 2272 4090 2272 
L 512 2272 
C 403 2272 294 2272 294 2156 
C 294 2048 390 2048 486 2048 
L 4115 2048 
z
M 4090 927 
C 4198 927 4307 927 4307 1043 
C 4307 1152 4211 1152 4115 1152 
L 486 1152 
C 390 1152 294 1152 294 1043 
C 294 927 403 927 512 927 
L 4090 927 
z
" id="CMR17-3d" transform="scale(0.015625)"/>
      <path d="M 1248 -26 
C 1248 345 1126 620 864 620 
C 659 620 557 454 557 313 
C 557 172 653 0 870 0 
C 954 0 1024 25 1082 83 
C 1094 96 1101 96 1107 96 
C 1120 96 1120 6 1120 -26 
C 1120 -233 1082 -642 710 -1051 
C 640 -1127 640 -1140 640 -1152 
C 640 -1184 672 -1216 704 -1216 
C 755 -1216 1248 -749 1248 -26 
z
" id="CMMI12-3b" transform="scale(0.015625)"/>
      <path d="M 2854 2566 
C 2982 2566 3034 2566 3034 2687 
C 3034 2752 2982 2752 2867 2752 
L 2349 2752 
C 2470 3398 2560 3846 2611 4051 
C 2650 4204 2784 4351 2950 4351 
C 3085 4351 3219 4294 3283 4236 
C 3034 4211 2957 4025 2957 3916 
C 2957 3788 3053 3712 3174 3712 
C 3302 3712 3494 3820 3494 4064 
C 3494 4332 3226 4480 2944 4480 
C 2669 4480 2400 4275 2272 4025 
C 2157 3801 2093 3573 1946 2752 
L 1517 2752 
C 1395 2752 1331 2752 1331 2636 
C 1331 2566 1370 2566 1498 2566 
L 1907 2566 
C 1792 1977 1530 545 1382 -132 
C 1274 -685 1178 -1152 858 -1152 
C 838 -1152 653 -1152 538 -1031 
C 864 -1005 864 -724 864 -717 
C 864 -589 768 -512 646 -512 
C 518 -512 326 -621 326 -865 
C 326 -1140 608 -1280 858 -1280 
C 1510 -1280 1779 -113 1850 203 
C 1965 691 2278 2376 2310 2566 
L 2854 2566 
z
" id="CMMI12-66" transform="scale(0.015625)"/>
     </defs>
     <use transform="scale(0.996264)" xlink:href="#CMMI12-4e"/>
     <use transform="translate(78.115119 -15.337838)scale(0.697382)" xlink:href="#SVRsymbols-73"/>
     <use transform="translate(170.655619 0)scale(0.996264)" xlink:href="#CMR17-3d"/>
     <use transform="translate(270.044417 0)scale(0.996264)" xlink:href="#CMR17-34"/>
     <use transform="translate(315.734894 0)scale(0.996264)" xlink:href="#CMMI12-3b"/>
     <use transform="translate(359.436476 0)scale(0.996264)" xlink:href="#CMMI12-66"/>
     <use transform="translate(445.83079 0)scale(0.996264)" xlink:href="#CMR17-3d"/>
     <use transform="translate(545.219587 0)scale(0.996264)" xlink:href="#CMR17-31"/>
    </g>
   </g>
   <g id="legend_1">
    <g id="LineCollection_2">
     <path d="M 184.322361 75.05373 
L 184.322361 66.05373 
" style="fill:none;stroke:#5e4fa2;stroke-width:0.5;"/>
    </g>
    <g id="line2d_11"/>
    <g id="line2d_12">
     <g>
      <use style="fill-opacity:0;stroke:#5e4fa2;stroke-width:0.75;" x="184.322361" xlink:href="#mdeae8d05ce" y="70.55373"/>
     </g>
    </g>
    <g id="text_6">
     <!-- QMC -->
     <g transform="translate(193.322361 73.70373)scale(0.09 -0.09)">
      <defs>
       <path d="M 3027 31 
C 3789 355 4307 1187 4307 2157 
C 4307 3484 3366 4480 2304 4480 
C 1216 4480 294 3471 294 2157 
C 294 863 1216 -128 2304 -128 
C 2451 -128 2656 -109 2899 -26 
C 3008 -813 3078 -1280 3629 -1280 
C 4307 -1280 4339 -277 4339 -96 
C 4339 -32 4339 12 4294 12 
C 4262 12 4256 -32 4256 -45 
C 4211 -665 3866 -794 3661 -794 
C 3283 -794 3149 -452 3027 31 
z
M 1958 38 
C 1293 247 768 954 768 2157 
C 768 3698 1606 4364 2298 4364 
C 3014 4364 3834 3672 3834 2157 
C 3834 1064 3405 463 2976 190 
C 2880 514 2726 896 2310 896 
C 2003 896 1830 628 1830 387 
C 1830 241 1888 120 1958 38 
z
M 2874 133 
C 2618 -1 2413 -13 2304 -13 
C 2016 -13 1933 247 1933 387 
C 1933 584 2067 793 2310 793 
C 2720 793 2822 431 2874 133 
z
" id="CMR17-51" transform="scale(0.015625)"/>
       <path d="M 1338 4249 
C 1299 4345 1293 4352 1158 4352 
L 339 4352 
L 339 4185 
C 781 4185 851 4185 851 3898 
L 851 624 
C 851 465 851 166 339 166 
L 339 0 
C 486 12 755 12 915 12 
C 1075 12 1344 12 1491 0 
L 1491 166 
C 979 166 979 465 979 624 
L 979 4159 
L 986 4159 
L 2490 102 
C 2515 38 2528 0 2579 0 
C 2630 0 2643 38 2669 102 
L 4186 4191 
L 4192 4191 
L 4192 453 
C 4192 166 4122 166 3680 166 
L 3680 0 
C 3853 12 4198 12 4384 12 
C 4570 12 4922 12 5094 0 
L 5094 166 
C 4653 166 4582 166 4582 453 
L 4582 3898 
C 4582 4185 4653 4185 5094 4185 
L 5094 4352 
L 4282 4352 
C 4147 4352 4141 4345 4102 4249 
L 2720 516 
L 1338 4249 
z
" id="CMR17-4d" transform="scale(0.015625)"/>
       <path d="M 3974 4351 
C 3974 4467 3968 4473 3930 4473 
C 3904 4473 3898 4467 3853 4390 
L 3571 3849 
C 3258 4249 2874 4480 2381 4480 
C 1286 4480 294 3507 294 2179 
C 294 837 1286 -128 2387 -128 
C 3366 -128 3974 741 3974 1482 
C 3974 1547 3974 1573 3917 1573 
C 3866 1573 3866 1553 3859 1495 
C 3808 592 3168 38 2477 38 
C 1824 38 781 502 781 2179 
C 781 3862 1843 4313 2464 4313 
C 3187 4313 3712 3681 3834 2785 
C 3846 2707 3846 2695 3904 2695 
C 3974 2695 3974 2707 3974 2824 
L 3974 4351 
z
" id="CMR17-43" transform="scale(0.015625)"/>
      </defs>
      <use transform="scale(0.996264)" xlink:href="#CMR17-51"/>
      <use transform="translate(71.714788 0)scale(0.996264)" xlink:href="#CMR17-4d"/>
      <use transform="translate(156.401729 0)scale(0.996264)" xlink:href="#CMR17-43"/>
     </g>
    </g>
    <g id="line2d_13">
     <path d="M 179.822361 81.760088 
L 188.822361 81.760088 
" style="fill:none;stroke:#5e4fa2;stroke-linecap:square;stroke-width:0.75;"/>
    </g>
    <g id="line2d_14"/>
    <g id="text_7">
     <!-- $K_0 + c_1\mathrm{e}^{-c_2\beta}$ -->
     <g transform="translate(193.322361 84.910088)scale(0.09 -0.09)">
      <defs>
       <path d="M 2688 2038 
C 2688 2430 2682 3099 2413 3613 
C 2176 4063 1798 4224 1466 4224 
C 1158 4224 768 4082 525 3620 
C 269 3137 243 2539 243 2038 
C 243 1671 250 1112 448 623 
C 723 -39 1216 -128 1466 -128 
C 1760 -128 2208 -7 2470 604 
C 2662 1048 2688 1568 2688 2038 
z
M 1466 -26 
C 1056 -26 813 328 723 816 
C 653 1196 653 1749 653 2109 
C 653 2604 653 3015 736 3407 
C 858 3954 1216 4121 1466 4121 
C 1728 4121 2067 3947 2189 3420 
C 2272 3054 2278 2623 2278 2109 
C 2278 1691 2278 1176 2202 797 
C 2067 96 1690 -26 1466 -26 
z
" id="CMR17-30" transform="scale(0.015625)"/>
       <path d="M 2413 1472 
L 4109 1472 
C 4198 1472 4307 1472 4307 1580 
C 4307 1696 4205 1696 4109 1696 
L 2413 1696 
L 2413 3385 
C 2413 3475 2413 3584 2304 3584 
C 2189 3584 2189 3481 2189 3385 
L 2189 1696 
L 493 1696 
C 403 1696 294 1696 294 1587 
C 294 1472 397 1472 493 1472 
L 2189 1472 
L 2189 -194 
C 2189 -282 2189 -391 2298 -391 
C 2413 -391 2413 -289 2413 -194 
L 2413 1472 
z
" id="CMR17-2b" transform="scale(0.015625)"/>
       <path d="M 2502 2432 
C 2381 2432 2323 2432 2234 2355 
C 2195 2323 2125 2227 2125 2124 
C 2125 1996 2221 1919 2342 1919 
C 2496 1919 2669 2047 2669 2303 
C 2669 2591 2374 2816 1933 2816 
C 1094 2816 256 1932 256 1011 
C 256 446 602 -64 1254 -64 
C 2125 -64 2675 622 2675 706 
C 2675 745 2637 777 2611 777 
C 2592 777 2586 771 2528 712 
C 2118 161 1510 64 1267 64 
C 826 64 685 453 685 777 
C 685 1004 794 1634 1024 2073 
C 1190 2374 1536 2687 1939 2687 
C 2022 2687 2374 2676 2502 2432 
z
" id="CMMI12-63" transform="scale(0.015625)"/>
       <path d="M 2438 1503 
C 2464 1529 2464 1542 2464 1606 
C 2464 2251 2118 2816 1389 2816 
C 710 2816 173 2175 173 1394 
C 173 554 781 -64 1459 -64 
C 2176 -64 2458 619 2458 755 
C 2458 800 2419 800 2406 800 
C 2362 800 2355 787 2330 709 
C 2189 270 1837 51 1504 51 
C 1229 51 954 206 781 490 
C 582 819 582 1200 582 1503 
L 2438 1503 
z
M 589 1600 
C 634 2511 1126 2713 1382 2713 
C 1818 2713 2112 2308 2118 1600 
L 589 1600 
z
" id="CMR17-65" transform="scale(0.015625)"/>
       <path d="M 4218 1472 
C 4326 1472 4442 1472 4442 1600 
C 4442 1728 4326 1728 4218 1728 
L 755 1728 
C 646 1728 531 1728 531 1600 
C 531 1472 646 1472 755 1472 
L 4218 1472 
z
" id="CMSY10-0" transform="scale(0.015625)"/>
       <path d="M 3622 3739 
C 3622 4131 3296 4544 2714 4544 
C 1888 4544 1363 3510 1197 2830 
L 186 -1152 
C 173 -1204 211 -1216 243 -1216 
C 288 -1216 320 -1210 326 -1178 
L 774 592 
C 838 231 1190 -64 1568 -64 
C 2483 -64 3347 657 3347 1618 
C 3347 1863 3290 2108 3155 2314 
C 3078 2437 2982 2527 2880 2599 
C 3341 2823 3622 3222 3622 3739 
z
M 2509 2605 
C 2406 2571 2304 2560 2182 2560 
C 2093 2560 2010 2553 1894 2588 
C 1958 2627 2054 2639 2189 2639 
C 2304 2639 2419 2627 2509 2605 
z
M 3290 3798 
C 3290 3438 3117 2915 2701 2684 
C 2579 2723 2413 2752 2272 2752 
C 2138 2752 1754 2765 1754 2582 
C 1754 2411 2106 2430 2214 2430 
C 2381 2430 2528 2469 2682 2514 
C 2886 2347 2976 2127 2976 1805 
C 2976 1431 2874 1128 2752 850 
C 2541 373 2042 64 1600 64 
C 1133 64 890 438 890 876 
C 890 934 890 1018 915 1115 
L 1331 2784 
C 1542 3641 2080 4413 2701 4413 
C 3162 4413 3290 4086 3290 3798 
z
" id="CMMI12-c" transform="scale(0.015625)"/>
      </defs>
      <use transform="scale(0.996264)" xlink:href="#CMMI12-4b"/>
      <use transform="translate(82.992611 -14.943915)scale(0.697382)" xlink:href="#CMR17-30"/>
      <use transform="translate(137.613132 0)scale(0.996264)" xlink:href="#CMR17-2b"/>
      <use transform="translate(231.467127 0)scale(0.996264)" xlink:href="#CMMI12-63"/>
      <use transform="translate(273.450361 -14.943915)scale(0.697382)" xlink:href="#CMR17-31"/>
      <use transform="translate(305.931675 0)scale(0.996264)" xlink:href="#CMR17-65"/>
      <use transform="translate(346.417335 36.153639)scale(0.697382)" xlink:href="#CMSY10-0"/>
      <use transform="translate(400.658328 36.153639)scale(0.697382)" xlink:href="#CMMI12-63"/>
      <use transform="translate(430.04646 25.692943)scale(0.498132)" xlink:href="#CMR17-32"/>
      <use transform="translate(453.38983 36.153639)scale(0.697382)" xlink:href="#CMMI12-c"/>
     </g>
    </g>
   </g>
  </g>
  <g id="axes_2">
   <g id="patch_7">
    <path d="M 50.578625 188.740456 
L 250.013126 188.740456 
L 250.013126 99.206905 
L 50.578625 99.206905 
z
" style="fill:none;"/>
   </g>
   <g id="line2d_15">
    <path clip-path="url(#p2762baad1e)" d="M 54.489106 104.128139 
L 55.435084 123.535895 
L 56.381063 138.049682 
L 57.327042 148.90359 
L 58.273021 157.020514 
L 59.218999 163.090629 
L 60.164978 167.630069 
L 61.110957 171.024819 
L 62.056936 173.563529 
L 63.002914 175.462063 
L 63.948893 176.881852 
L 64.894872 177.943619 
L 66.030046 178.870593 
L 67.165221 179.524678 
L 68.489591 180.048665 
L 70.192353 180.473776 
L 72.462702 180.784416 
L 75.67903 180.977754 
L 81.733294 181.074585 
L 105.761154 181.092434 
L 243.495659 181.092446 
L 243.495659 181.092446 
" style="fill:none;stroke:#3c93b8;stroke-linecap:square;stroke-width:0.75;"/>
   </g>
   <g id="matplotlib.axis_3">
    <g id="xtick_7">
     <g id="line2d_16">
      <g>
       <use style="stroke:#000000;stroke-width:0.5;" x="80.558975" xlink:href="#m623acab836" y="188.740456"/>
      </g>
     </g>
    </g>
    <g id="xtick_8">
     <g id="line2d_17">
      <g>
       <use style="stroke:#000000;stroke-width:0.5;" x="113.146312" xlink:href="#m623acab836" y="188.740456"/>
      </g>
     </g>
    </g>
    <g id="xtick_9">
     <g id="line2d_18">
      <g>
       <use style="stroke:#000000;stroke-width:0.5;" x="145.733649" xlink:href="#m623acab836" y="188.740456"/>
      </g>
     </g>
    </g>
    <g id="xtick_10">
     <g id="line2d_19">
      <g>
       <use style="stroke:#000000;stroke-width:0.5;" x="178.320985" xlink:href="#m623acab836" y="188.740456"/>
      </g>
     </g>
    </g>
    <g id="xtick_11">
     <g id="line2d_20">
      <g>
       <use style="stroke:#000000;stroke-width:0.5;" x="210.908322" xlink:href="#m623acab836" y="188.740456"/>
      </g>
     </g>
    </g>
    <g id="xtick_12">
     <g id="line2d_21">
      <g>
       <use style="stroke:#000000;stroke-width:0.5;" x="243.495659" xlink:href="#m623acab836" y="188.740456"/>
      </g>
     </g>
    </g>
   </g>
   <g id="matplotlib.axis_4">
    <g id="ytick_3">
     <g id="line2d_22">
      <g>
       <use style="stroke:#000000;stroke-width:0.5;" x="50.578625" xlink:href="#m5b93b19abc" y="164.354759"/>
      </g>
     </g>
     <g id="text_8">
      <!-- $\mathdefault{−150}$ -->
      <g transform="translate(25.588035 167.468085)scale(0.09 -0.09)">
       <defs>
        <path d="M 730 3750 
C 794 3724 1056 3641 1325 3641 
C 1920 3641 2246 3961 2432 4140 
C 2432 4191 2432 4224 2394 4224 
C 2387 4224 2374 4224 2323 4198 
C 2099 4102 1837 4032 1517 4032 
C 1325 4032 1037 4055 723 4191 
C 653 4224 640 4224 634 4224 
C 602 4224 595 4217 595 4090 
L 595 2231 
C 595 2113 595 2080 659 2080 
C 691 2080 704 2093 736 2139 
C 941 2435 1222 2560 1542 2560 
C 1766 2560 2246 2415 2246 1293 
C 2246 1087 2246 716 2054 422 
C 1894 159 1645 25 1370 25 
C 947 25 518 319 403 812 
C 429 806 480 793 506 793 
C 589 793 749 838 749 1036 
C 749 1209 627 1280 506 1280 
C 358 1280 262 1190 262 1011 
C 262 454 704 -128 1382 -128 
C 2042 -128 2669 441 2669 1267 
C 2669 2054 2170 2662 1549 2662 
C 1222 2662 947 2540 730 2304 
L 730 3750 
z
" id="CMR17-35" transform="scale(0.015625)"/>
       </defs>
       <use transform="scale(0.996264)" xlink:href="#CMSY10-0"/>
       <use transform="translate(77.487468 0)scale(0.996264)" xlink:href="#CMR17-31"/>
       <use transform="translate(123.177945 0)scale(0.996264)" xlink:href="#CMR17-35"/>
       <use transform="translate(168.868422 0)scale(0.996264)" xlink:href="#CMR17-30"/>
      </g>
     </g>
    </g>
    <g id="ytick_4">
     <g id="line2d_23">
      <g>
       <use style="stroke:#000000;stroke-width:0.5;" x="50.578625" xlink:href="#m5b93b19abc" y="126.17311"/>
      </g>
     </g>
     <g id="text_9">
      <!-- $\mathdefault{−149}$ -->
      <g transform="translate(25.588035 129.286435)scale(0.09 -0.09)">
       <defs>
        <path d="M 2253 1871 
C 2253 448 1670 25 1190 25 
C 1043 25 685 43 538 281 
C 704 256 826 345 826 505 
C 826 678 685 736 595 736 
C 538 736 365 710 365 492 
C 365 68 742 -128 1203 -128 
C 1939 -128 2688 665 2688 2090 
C 2688 3857 1971 4224 1485 4224 
C 851 4224 243 3664 243 2800 
C 243 2000 762 1408 1414 1408 
C 1952 1408 2189 1910 2253 2122 
L 2253 1871 
z
M 1427 1510 
C 1254 1510 1011 1542 813 1929 
C 678 2181 678 2477 678 2793 
C 678 3174 678 3438 858 3722 
C 947 3857 1114 4076 1485 4076 
C 2240 4076 2240 2909 2240 2651 
C 2240 2193 2035 1510 1427 1510 
z
" id="CMR17-39" transform="scale(0.015625)"/>
       </defs>
       <use transform="scale(0.996264)" xlink:href="#CMSY10-0"/>
       <use transform="translate(77.487468 0)scale(0.996264)" xlink:href="#CMR17-31"/>
       <use transform="translate(123.177945 0)scale(0.996264)" xlink:href="#CMR17-34"/>
       <use transform="translate(168.868422 0)scale(0.996264)" xlink:href="#CMR17-39"/>
      </g>
     </g>
    </g>
    <g id="text_10">
     <!-- $\alabel{\expval{V_{\rm He-\graphene}/N}}{\kelvin}$ -->
     <g transform="translate(21.346441 176.384116)rotate(-90)scale(0.09 -0.09)">
      <defs>
       <path d="M 3962 3644 
C 4179 3987 4378 4140 4704 4166 
C 4768 4172 4819 4172 4819 4287 
C 4819 4313 4806 4352 4749 4352 
C 4634 4352 4358 4339 4243 4339 
C 4058 4339 3866 4352 3686 4352 
C 3635 4352 3571 4352 3571 4230 
C 3571 4172 3629 4166 3654 4166 
C 3891 4146 3917 4032 3917 3956 
C 3917 3860 3827 3714 3821 3708 
L 1811 540 
L 1363 3968 
C 1363 4153 1696 4166 1766 4166 
C 1862 4166 1920 4166 1920 4287 
C 1920 4352 1850 4352 1830 4352 
C 1722 4352 1594 4339 1485 4339 
L 1126 4339 
C 659 4339 467 4352 461 4352 
C 422 4352 346 4352 346 4236 
C 346 4166 390 4166 493 4166 
C 819 4166 838 4108 858 3949 
L 1370 25 
C 1389 -109 1389 -128 1478 -128 
C 1555 -128 1587 -109 1651 -7 
L 3962 3644 
z
" id="CMMI12-56" transform="scale(0.015625)"/>
       <path d="M 3590 3898 
C 3590 4185 3661 4185 4102 4185 
L 4102 4352 
C 3917 4339 3578 4339 3379 4339 
C 3181 4339 2842 4339 2656 4352 
L 2656 4185 
C 3098 4185 3168 4185 3168 3898 
L 3168 2342 
L 1261 2342 
L 1261 3898 
C 1261 4185 1331 4185 1773 4185 
L 1773 4352 
C 1587 4339 1248 4339 1050 4339 
C 851 4339 512 4339 326 4352 
L 326 4185 
C 768 4185 838 4185 838 3898 
L 838 452 
C 838 166 768 166 326 166 
L 326 0 
C 512 12 851 12 1050 12 
C 1248 12 1587 12 1773 0 
L 1773 166 
C 1331 166 1261 166 1261 452 
L 1261 2176 
L 3168 2176 
L 3168 452 
C 3168 166 3098 166 2656 166 
L 2656 0 
C 2842 12 3181 12 3379 12 
C 3578 12 3917 12 4102 0 
L 4102 166 
C 3661 166 3590 166 3590 452 
L 3590 3898 
z
" id="CMR17-48" transform="scale(0.015625)"/>
      </defs>
      <use transform="scale(0.996264)" xlink:href="#CMSY10-68"/>
      <use transform="translate(38.743734 0)scale(0.996264)" xlink:href="#CMMI12-56"/>
      <use transform="translate(95.613313 -15.337838)scale(0.697382)" xlink:href="#CMR17-48"/>
      <use transform="translate(143.963798 -15.337838)scale(0.697382)" xlink:href="#CMR17-65"/>
      <use transform="translate(172.303629 -15.337838)scale(0.697382)" xlink:href="#CMSY10-0"/>
      <use transform="translate(226.544623 -15.337838)scale(0.697382)" xlink:href="#SVRsymbols-73"/>
      <use transform="translate(291.411115 0)scale(0.996264)" xlink:href="#CMMI12-3d"/>
      <use transform="translate(334.766598 0)scale(0.996264)" xlink:href="#CMMI12-4e"/>
      <use transform="translate(423.288371 0)scale(0.996264)" xlink:href="#CMSY10-69"/>
      <use transform="translate(517.380122 0)scale(0.996264)" xlink:href="#CMR17-28"/>
      <use transform="translate(552.66089 0)scale(0.996264)" xlink:href="#CMR17-4b"/>
      <use transform="translate(624.335667 0)scale(0.996264)" xlink:href="#CMR17-29"/>
     </g>
    </g>
   </g>
   <g id="LineCollection_3">
    <path clip-path="url(#p2762baad1e)" style="fill:none;stroke:#3c93b8;stroke-width:0.5;"/>
    <path clip-path="url(#p2762baad1e)" d="M 243.808999 181.695277 
L 243.808999 179.790897 
" style="fill:none;stroke:#3c93b8;stroke-width:0.5;"/>
    <path clip-path="url(#p2762baad1e)" d="M 230.753907 183.591937 
L 230.753907 181.573899 
" style="fill:none;stroke:#3c93b8;stroke-width:0.5;"/>
    <path clip-path="url(#p2762baad1e)" d="M 217.697351 183.399747 
L 217.697351 181.468195 
" style="fill:none;stroke:#3c93b8;stroke-width:0.5;"/>
    <path clip-path="url(#p2762baad1e)" d="M 204.641527 183.440507 
L 204.641527 181.549406 
" style="fill:none;stroke:#3c93b8;stroke-width:0.5;"/>
    <path clip-path="url(#p2762baad1e)" d="M 191.585127 183.394503 
L 191.585127 181.591286 
" style="fill:none;stroke:#3c93b8;stroke-width:0.5;"/>
    <path clip-path="url(#p2762baad1e)" d="M 178.529879 183.415858 
L 178.529879 181.674988 
" style="fill:none;stroke:#3c93b8;stroke-width:0.5;"/>
    <path clip-path="url(#p2762baad1e)" d="M 165.473348 184.670749 
L 165.473348 182.889973 
" style="fill:none;stroke:#3c93b8;stroke-width:0.5;"/>
    <path clip-path="url(#p2762baad1e)" d="M 152.418231 183.353428 
L 152.418231 181.648646 
" style="fill:none;stroke:#3c93b8;stroke-width:0.5;"/>
    <path clip-path="url(#p2762baad1e)" d="M 139.362132 182.457511 
L 139.362132 180.735077 
" style="fill:none;stroke:#3c93b8;stroke-width:0.5;"/>
    <path clip-path="url(#p2762baad1e)" d="M 126.306582 184.095745 
L 126.306582 182.452972 
" style="fill:none;stroke:#3c93b8;stroke-width:0.5;"/>
    <path clip-path="url(#p2762baad1e)" d="M 113.250432 184.040222 
L 113.250432 182.635296 
" style="fill:none;stroke:#3c93b8;stroke-width:0.5;"/>
    <path clip-path="url(#p2762baad1e)" d="M 100.194725 182.691411 
L 100.194725 181.454592 
" style="fill:none;stroke:#3c93b8;stroke-width:0.5;"/>
    <path clip-path="url(#p2762baad1e)" d="M 87.138993 181.253265 
L 87.138993 180.236498 
" style="fill:none;stroke:#3c93b8;stroke-width:0.5;"/>
    <path clip-path="url(#p2762baad1e)" d="M 74.083234 181.937947 
L 74.083234 181.15073 
" style="fill:none;stroke:#3c93b8;stroke-width:0.5;"/>
    <path clip-path="url(#p2762baad1e)" d="M 72.451262 181.269952 
L 72.451262 180.576352 
" style="fill:none;stroke:#3c93b8;stroke-width:0.5;"/>
    <path clip-path="url(#p2762baad1e)" d="M 70.819262 181.429787 
L 70.819262 180.761908 
" style="fill:none;stroke:#3c93b8;stroke-width:0.5;"/>
    <path clip-path="url(#p2762baad1e)" d="M 69.187283 180.638196 
L 69.187283 180.019303 
" style="fill:none;stroke:#3c93b8;stroke-width:0.5;"/>
    <path clip-path="url(#p2762baad1e)" d="M 67.555316 179.672399 
L 67.555316 179.06651 
" style="fill:none;stroke:#3c93b8;stroke-width:0.5;"/>
    <path clip-path="url(#p2762baad1e)" d="M 65.923349 178.316351 
L 65.923349 177.734379 
" style="fill:none;stroke:#3c93b8;stroke-width:0.5;"/>
    <path clip-path="url(#p2762baad1e)" d="M 64.291377 176.819436 
L 64.291377 176.282563 
" style="fill:none;stroke:#3c93b8;stroke-width:0.5;"/>
    <path clip-path="url(#p2762baad1e)" d="M 62.659402 174.096909 
L 62.659402 173.581081 
" style="fill:none;stroke:#3c93b8;stroke-width:0.5;"/>
    <path clip-path="url(#p2762baad1e)" d="M 61.027423 170.194851 
L 61.027423 169.599622 
" style="fill:none;stroke:#3c93b8;stroke-width:0.5;"/>
    <path clip-path="url(#p2762baad1e)" d="M 59.39546 163.767468 
L 59.39546 163.257267 
" style="fill:none;stroke:#3c93b8;stroke-width:0.5;"/>
    <path clip-path="url(#p2762baad1e)" d="M 57.763484 154.175931 
L 57.763484 153.701356 
" style="fill:none;stroke:#3c93b8;stroke-width:0.5;"/>
    <path clip-path="url(#p2762baad1e)" d="M 56.131508 136.186537 
L 56.131508 135.593932 
" style="fill:none;stroke:#3c93b8;stroke-width:0.5;"/>
    <path clip-path="url(#p2762baad1e)" d="M 54.499534 103.843979 
L 54.499534 103.276612 
" style="fill:none;stroke:#3c93b8;stroke-width:0.5;"/>
   </g>
   <g id="line2d_24">
    <defs>
     <path d="M 0 2.5 
C 0.663008 2.5 1.29895 2.236584 1.767767 1.767767 
C 2.236584 1.29895 2.5 0.663008 2.5 0 
C 2.5 -0.663008 2.236584 -1.29895 1.767767 -1.767767 
C 1.29895 -2.236584 0.663008 -2.5 0 -2.5 
C -0.663008 -2.5 -1.29895 -2.236584 -1.767767 -1.767767 
C -2.236584 -1.29895 -2.5 -0.663008 -2.5 0 
C -2.5 0.663008 -2.236584 1.29895 -1.767767 1.767767 
C -1.29895 2.236584 -0.663008 2.5 0 2.5 
z
" id="m2115bb88ab" style="stroke:#3c93b8;stroke-width:0.75;"/>
    </defs>
    <g clip-path="url(#p2762baad1e)">
     <use style="fill-opacity:0;stroke:#3c93b8;stroke-width:0.75;" x="256.864823" xlink:href="#m2115bb88ab" y="181.712433"/>
     <use style="fill-opacity:0;stroke:#3c93b8;stroke-width:0.75;" x="243.808999" xlink:href="#m2115bb88ab" y="180.743087"/>
     <use style="fill-opacity:0;stroke:#3c93b8;stroke-width:0.75;" x="230.753907" xlink:href="#m2115bb88ab" y="182.582918"/>
     <use style="fill-opacity:0;stroke:#3c93b8;stroke-width:0.75;" x="217.697351" xlink:href="#m2115bb88ab" y="182.433971"/>
     <use style="fill-opacity:0;stroke:#3c93b8;stroke-width:0.75;" x="204.641527" xlink:href="#m2115bb88ab" y="182.494957"/>
     <use style="fill-opacity:0;stroke:#3c93b8;stroke-width:0.75;" x="191.585127" xlink:href="#m2115bb88ab" y="182.492895"/>
     <use style="fill-opacity:0;stroke:#3c93b8;stroke-width:0.75;" x="178.529879" xlink:href="#m2115bb88ab" y="182.545423"/>
     <use style="fill-opacity:0;stroke:#3c93b8;stroke-width:0.75;" x="165.473348" xlink:href="#m2115bb88ab" y="183.780361"/>
     <use style="fill-opacity:0;stroke:#3c93b8;stroke-width:0.75;" x="152.418231" xlink:href="#m2115bb88ab" y="182.501037"/>
     <use style="fill-opacity:0;stroke:#3c93b8;stroke-width:0.75;" x="139.362132" xlink:href="#m2115bb88ab" y="181.596294"/>
     <use style="fill-opacity:0;stroke:#3c93b8;stroke-width:0.75;" x="126.306582" xlink:href="#m2115bb88ab" y="183.274359"/>
     <use style="fill-opacity:0;stroke:#3c93b8;stroke-width:0.75;" x="113.250432" xlink:href="#m2115bb88ab" y="183.337759"/>
     <use style="fill-opacity:0;stroke:#3c93b8;stroke-width:0.75;" x="100.194725" xlink:href="#m2115bb88ab" y="182.073002"/>
     <use style="fill-opacity:0;stroke:#3c93b8;stroke-width:0.75;" x="87.138993" xlink:href="#m2115bb88ab" y="180.744882"/>
     <use style="fill-opacity:0;stroke:#3c93b8;stroke-width:0.75;" x="74.083234" xlink:href="#m2115bb88ab" y="181.544339"/>
     <use style="fill-opacity:0;stroke:#3c93b8;stroke-width:0.75;" x="72.451262" xlink:href="#m2115bb88ab" y="180.923152"/>
     <use style="fill-opacity:0;stroke:#3c93b8;stroke-width:0.75;" x="70.819262" xlink:href="#m2115bb88ab" y="181.095847"/>
     <use style="fill-opacity:0;stroke:#3c93b8;stroke-width:0.75;" x="69.187283" xlink:href="#m2115bb88ab" y="180.328749"/>
     <use style="fill-opacity:0;stroke:#3c93b8;stroke-width:0.75;" x="67.555316" xlink:href="#m2115bb88ab" y="179.369455"/>
     <use style="fill-opacity:0;stroke:#3c93b8;stroke-width:0.75;" x="65.923349" xlink:href="#m2115bb88ab" y="178.025365"/>
     <use style="fill-opacity:0;stroke:#3c93b8;stroke-width:0.75;" x="64.291377" xlink:href="#m2115bb88ab" y="176.551"/>
     <use style="fill-opacity:0;stroke:#3c93b8;stroke-width:0.75;" x="62.659402" xlink:href="#m2115bb88ab" y="173.838995"/>
     <use style="fill-opacity:0;stroke:#3c93b8;stroke-width:0.75;" x="61.027423" xlink:href="#m2115bb88ab" y="169.897236"/>
     <use style="fill-opacity:0;stroke:#3c93b8;stroke-width:0.75;" x="59.39546" xlink:href="#m2115bb88ab" y="163.512367"/>
     <use style="fill-opacity:0;stroke:#3c93b8;stroke-width:0.75;" x="57.763484" xlink:href="#m2115bb88ab" y="153.938643"/>
     <use style="fill-opacity:0;stroke:#3c93b8;stroke-width:0.75;" x="56.131508" xlink:href="#m2115bb88ab" y="135.890235"/>
     <use style="fill-opacity:0;stroke:#3c93b8;stroke-width:0.75;" x="54.499534" xlink:href="#m2115bb88ab" y="103.560295"/>
    </g>
   </g>
   <g id="patch_8">
    <path d="M 50.578625 188.740456 
L 50.578625 99.206905 
" style="fill:none;stroke:#000000;stroke-linecap:square;stroke-linejoin:miter;stroke-width:0.5;"/>
   </g>
   <g id="patch_9">
    <path d="M 250.013126 188.740456 
L 250.013126 99.206905 
" style="fill:none;stroke:#000000;stroke-linecap:square;stroke-linejoin:miter;stroke-width:0.5;"/>
   </g>
   <g id="patch_10">
    <path d="M 50.578625 188.740456 
L 250.013126 188.740456 
" style="fill:none;stroke:#000000;stroke-linecap:square;stroke-linejoin:miter;stroke-width:0.5;"/>
   </g>
   <g id="patch_11">
    <path d="M 50.578625 99.206905 
L 250.013126 99.206905 
" style="fill:none;stroke:#000000;stroke-linecap:square;stroke-linejoin:miter;stroke-width:0.5;"/>
   </g>
   <g id="text_11">
    <!-- (b) -->
    <g transform="translate(0.72 101.45501)scale(0.09 -0.09)">
     <defs>
      <path d="M 960 4416 
L 198 4345 
L 198 4179 
C 576 4179 634 4141 634 3843 
L 634 -13 
L 749 -13 
L 934 445 
C 1120 141 1395 -64 1766 -64 
C 2406 -64 3053 503 3053 1382 
C 3053 2209 2477 2816 1830 2816 
C 1434 2816 1152 2603 960 2351 
L 960 4416 
z
M 973 2022 
C 973 2138 973 2157 1062 2293 
C 1312 2681 1670 2713 1792 2713 
C 1984 2713 2643 2610 2643 1388 
C 2643 109 1888 38 1734 38 
C 1536 38 1248 115 1043 490 
C 973 613 973 626 973 742 
L 973 2022 
z
" id="CMR17-62" transform="scale(0.015625)"/>
     </defs>
     <use transform="scale(0.996264)" xlink:href="#CMR17-28"/>
     <use transform="translate(35.280768 0)scale(0.996264)" xlink:href="#CMR17-62"/>
     <use transform="translate(86.176138 0)scale(0.996264)" xlink:href="#CMR17-29"/>
    </g>
   </g>
  </g>
  <g id="axes_3">
   <g id="patch_12">
    <path d="M 50.578625 282.750684 
L 250.013126 282.750684 
L 250.013126 193.217133 
L 50.578625 193.217133 
z
" style="fill:none;"/>
   </g>
   <g id="line2d_25">
    <path clip-path="url(#p3ab5901f54)" d="M 54.489106 198.144126 
L 55.435084 213.658945 
L 56.381063 225.945369 
L 57.327042 235.675179 
L 58.273021 243.380365 
L 59.218999 249.482222 
L 60.164978 254.314376 
L 61.110957 258.141034 
L 62.056936 261.171423 
L 63.002914 263.571235 
L 64.138089 265.801405 
L 65.273263 267.486998 
L 66.408438 268.760992 
L 67.543612 269.723893 
L 68.867983 270.55436 
L 70.381549 271.224125 
L 72.08431 271.731696 
L 74.165464 272.122154 
L 77.0034 272.415183 
L 81.165706 272.600719 
L 89.111928 272.6897 
L 124.680729 272.704291 
L 243.495659 272.704293 
L 243.495659 272.704293 
" style="fill:none;stroke:#79c9a4;stroke-linecap:square;stroke-width:0.75;"/>
   </g>
   <g id="matplotlib.axis_5">
    <g id="xtick_13">
     <g id="line2d_26">
      <g>
       <use style="stroke:#000000;stroke-width:0.5;" x="80.558975" xlink:href="#m623acab836" y="282.750684"/>
      </g>
     </g>
     <g id="text_12">
      <!-- $\mathdefault{0.25}$ -->
      <g transform="translate(72.367525 292.977334)scale(0.09 -0.09)">
       <defs>
        <path d="M 1178 307 
C 1178 492 1024 620 870 620 
C 685 620 557 467 557 313 
C 557 128 710 0 864 0 
C 1050 0 1178 153 1178 307 
z
" id="CMMI12-3a" transform="scale(0.015625)"/>
       </defs>
       <use transform="scale(0.996264)" xlink:href="#CMR17-30"/>
       <use transform="translate(45.690477 0)scale(0.996264)" xlink:href="#CMMI12-3a"/>
       <use transform="translate(72.787654 0)scale(0.996264)" xlink:href="#CMR17-32"/>
       <use transform="translate(118.478131 0)scale(0.996264)" xlink:href="#CMR17-35"/>
      </g>
     </g>
    </g>
    <g id="xtick_14">
     <g id="line2d_27">
      <g>
       <use style="stroke:#000000;stroke-width:0.5;" x="113.146312" xlink:href="#m623acab836" y="282.750684"/>
      </g>
     </g>
     <g id="text_13">
      <!-- $\mathdefault{0.50}$ -->
      <g transform="translate(104.954862 292.977334)scale(0.09 -0.09)">
       <use transform="scale(0.996264)" xlink:href="#CMR17-30"/>
       <use transform="translate(45.690477 0)scale(0.996264)" xlink:href="#CMMI12-3a"/>
       <use transform="translate(72.787654 0)scale(0.996264)" xlink:href="#CMR17-35"/>
       <use transform="translate(118.478131 0)scale(0.996264)" xlink:href="#CMR17-30"/>
      </g>
     </g>
    </g>
    <g id="xtick_15">
     <g id="line2d_28">
      <g>
       <use style="stroke:#000000;stroke-width:0.5;" x="145.733649" xlink:href="#m623acab836" y="282.750684"/>
      </g>
     </g>
     <g id="text_14">
      <!-- $\mathdefault{0.75}$ -->
      <g transform="translate(137.542199 292.977334)scale(0.09 -0.09)">
       <defs>
        <path d="M 2886 3955 
L 2886 4096 
L 1382 4096 
C 634 4096 621 4166 595 4288 
L 480 4288 
L 294 3104 
L 410 3104 
C 429 3226 474 3552 550 3673 
C 589 3724 1062 3724 1171 3724 
L 2579 3724 
L 1869 2670 
C 1395 1961 1069 1003 1069 166 
C 1069 89 1069 -128 1299 -128 
C 1530 -128 1530 89 1530 172 
L 1530 466 
C 1530 1514 1709 2204 2003 2644 
L 2886 3955 
z
" id="CMR17-37" transform="scale(0.015625)"/>
       </defs>
       <use transform="scale(0.996264)" xlink:href="#CMR17-30"/>
       <use transform="translate(45.690477 0)scale(0.996264)" xlink:href="#CMMI12-3a"/>
       <use transform="translate(72.787654 0)scale(0.996264)" xlink:href="#CMR17-37"/>
       <use transform="translate(118.478131 0)scale(0.996264)" xlink:href="#CMR17-35"/>
      </g>
     </g>
    </g>
    <g id="xtick_16">
     <g id="line2d_29">
      <g>
       <use style="stroke:#000000;stroke-width:0.5;" x="178.320985" xlink:href="#m623acab836" y="282.750684"/>
      </g>
     </g>
     <g id="text_15">
      <!-- $\mathdefault{1.00}$ -->
      <g transform="translate(170.129535 292.977334)scale(0.09 -0.09)">
       <use transform="scale(0.996264)" xlink:href="#CMR17-31"/>
       <use transform="translate(45.690477 0)scale(0.996264)" xlink:href="#CMMI12-3a"/>
       <use transform="translate(72.787654 0)scale(0.996264)" xlink:href="#CMR17-30"/>
       <use transform="translate(118.478131 0)scale(0.996264)" xlink:href="#CMR17-30"/>
      </g>
     </g>
    </g>
    <g id="xtick_17">
     <g id="line2d_30">
      <g>
       <use style="stroke:#000000;stroke-width:0.5;" x="210.908322" xlink:href="#m623acab836" y="282.750684"/>
      </g>
     </g>
     <g id="text_16">
      <!-- $\mathdefault{1.25}$ -->
      <g transform="translate(202.716872 292.977334)scale(0.09 -0.09)">
       <use transform="scale(0.996264)" xlink:href="#CMR17-31"/>
       <use transform="translate(45.690477 0)scale(0.996264)" xlink:href="#CMMI12-3a"/>
       <use transform="translate(72.787654 0)scale(0.996264)" xlink:href="#CMR17-32"/>
       <use transform="translate(118.478131 0)scale(0.996264)" xlink:href="#CMR17-35"/>
      </g>
     </g>
    </g>
    <g id="xtick_18">
     <g id="line2d_31">
      <g>
       <use style="stroke:#000000;stroke-width:0.5;" x="243.495659" xlink:href="#m623acab836" y="282.750684"/>
      </g>
     </g>
     <g id="text_17">
      <!-- $\mathdefault{1.50}$ -->
      <g transform="translate(235.304209 292.977334)scale(0.09 -0.09)">
       <use transform="scale(0.996264)" xlink:href="#CMR17-31"/>
       <use transform="translate(45.690477 0)scale(0.996264)" xlink:href="#CMMI12-3a"/>
       <use transform="translate(72.787654 0)scale(0.996264)" xlink:href="#CMR17-35"/>
       <use transform="translate(118.478131 0)scale(0.996264)" xlink:href="#CMR17-30"/>
      </g>
     </g>
    </g>
    <g id="text_18">
     <!-- $\alabel{\beta}{\per\kelvin}$ -->
     <g transform="translate(132.785125 304.382007)scale(0.09 -0.09)">
      <use transform="scale(0.996264)" xlink:href="#CMMI12-c"/>
      <use transform="translate(115.942033 0)scale(0.996264)" xlink:href="#CMR17-28"/>
      <use transform="translate(151.222801 0)scale(0.996264)" xlink:href="#CMR17-4b"/>
      <use transform="translate(222.897578 36.153639)scale(0.697382)" xlink:href="#CMSY10-0"/>
      <use transform="translate(277.138572 36.153639)scale(0.697382)" xlink:href="#CMR17-31"/>
      <use transform="translate(309.619886 0)scale(0.996264)" xlink:href="#CMR17-29"/>
     </g>
    </g>
   </g>
   <g id="matplotlib.axis_6">
    <g id="ytick_5">
     <g id="line2d_32">
      <g>
       <use style="stroke:#000000;stroke-width:0.5;" x="50.578625" xlink:href="#m5b93b19abc" y="278.376998"/>
      </g>
     </g>
     <g id="text_19">
      <!-- $\mathdefault{147.50}$ -->
      <g transform="translate(20.980344 281.490323)scale(0.09 -0.09)">
       <use transform="scale(0.996264)" xlink:href="#CMR17-31"/>
       <use transform="translate(45.690477 0)scale(0.996264)" xlink:href="#CMR17-34"/>
       <use transform="translate(91.380954 0)scale(0.996264)" xlink:href="#CMR17-37"/>
       <use transform="translate(137.071431 0)scale(0.996264)" xlink:href="#CMMI12-3a"/>
       <use transform="translate(164.168608 0)scale(0.996264)" xlink:href="#CMR17-35"/>
       <use transform="translate(209.859086 0)scale(0.996264)" xlink:href="#CMR17-30"/>
      </g>
     </g>
    </g>
    <g id="ytick_6">
     <g id="line2d_33">
      <g>
       <use style="stroke:#000000;stroke-width:0.5;" x="50.578625" xlink:href="#m5b93b19abc" y="251.041465"/>
      </g>
     </g>
     <g id="text_20">
      <!-- $\mathdefault{147.75}$ -->
      <g transform="translate(20.980344 254.15479)scale(0.09 -0.09)">
       <use transform="scale(0.996264)" xlink:href="#CMR17-31"/>
       <use transform="translate(45.690477 0)scale(0.996264)" xlink:href="#CMR17-34"/>
       <use transform="translate(91.380954 0)scale(0.996264)" xlink:href="#CMR17-37"/>
       <use transform="translate(137.071431 0)scale(0.996264)" xlink:href="#CMMI12-3a"/>
       <use transform="translate(164.168608 0)scale(0.996264)" xlink:href="#CMR17-37"/>
       <use transform="translate(209.859086 0)scale(0.996264)" xlink:href="#CMR17-35"/>
      </g>
     </g>
    </g>
    <g id="ytick_7">
     <g id="line2d_34">
      <g>
       <use style="stroke:#000000;stroke-width:0.5;" x="50.578625" xlink:href="#m5b93b19abc" y="223.705931"/>
      </g>
     </g>
     <g id="text_21">
      <!-- $\mathdefault{148.00}$ -->
      <g transform="translate(20.980344 226.819256)scale(0.09 -0.09)">
       <defs>
        <path d="M 1741 2289 
C 2144 2494 2554 2803 2554 3298 
C 2554 3884 1990 4224 1472 4224 
C 890 4224 378 3800 378 3215 
C 378 3054 416 2777 666 2533 
C 730 2469 998 2276 1171 2154 
C 883 2006 211 1652 211 945 
C 211 282 838 -128 1459 -128 
C 2144 -128 2720 366 2720 1022 
C 2720 1607 2330 1877 2074 2051 
L 1741 2289 
z
M 902 2855 
C 851 2887 595 3086 595 3388 
C 595 3781 998 4076 1459 4076 
C 1965 4076 2336 3716 2336 3298 
C 2336 2700 1670 2359 1638 2359 
C 1632 2359 1626 2359 1574 2398 
L 902 2855 
z
M 2080 1536 
C 2176 1466 2483 1253 2483 861 
C 2483 385 2010 25 1472 25 
C 890 25 448 443 448 951 
C 448 1459 838 1884 1280 2083 
L 2080 1536 
z
" id="CMR17-38" transform="scale(0.015625)"/>
       </defs>
       <use transform="scale(0.996264)" xlink:href="#CMR17-31"/>
       <use transform="translate(45.690477 0)scale(0.996264)" xlink:href="#CMR17-34"/>
       <use transform="translate(91.380954 0)scale(0.996264)" xlink:href="#CMR17-38"/>
       <use transform="translate(137.071431 0)scale(0.996264)" xlink:href="#CMMI12-3a"/>
       <use transform="translate(164.168608 0)scale(0.996264)" xlink:href="#CMR17-30"/>
       <use transform="translate(209.859086 0)scale(0.996264)" xlink:href="#CMR17-30"/>
      </g>
     </g>
    </g>
    <g id="ytick_8">
     <g id="line2d_35">
      <g>
       <use style="stroke:#000000;stroke-width:0.5;" x="50.578625" xlink:href="#m5b93b19abc" y="196.370398"/>
      </g>
     </g>
     <g id="text_22">
      <!-- $\mathdefault{148.25}$ -->
      <g transform="translate(20.980344 199.483723)scale(0.09 -0.09)">
       <use transform="scale(0.996264)" xlink:href="#CMR17-31"/>
       <use transform="translate(45.690477 0)scale(0.996264)" xlink:href="#CMR17-34"/>
       <use transform="translate(91.380954 0)scale(0.996264)" xlink:href="#CMR17-38"/>
       <use transform="translate(137.071431 0)scale(0.996264)" xlink:href="#CMMI12-3a"/>
       <use transform="translate(164.168608 0)scale(0.996264)" xlink:href="#CMR17-32"/>
       <use transform="translate(209.859086 0)scale(0.996264)" xlink:href="#CMR17-35"/>
      </g>
     </g>
    </g>
    <g id="text_23">
     <!-- $\alabel{\expval{V_{\rm He-He}/N}}{\kelvin}$ -->
     <g transform="translate(10.73875 271.947252)rotate(-90)scale(0.09 -0.09)">
      <use transform="scale(0.996264)" xlink:href="#CMSY10-68"/>
      <use transform="translate(38.743734 0)scale(0.996264)" xlink:href="#CMMI12-56"/>
      <use transform="translate(95.613313 -14.943915)scale(0.697382)" xlink:href="#CMR17-48"/>
      <use transform="translate(143.963798 -14.943915)scale(0.697382)" xlink:href="#CMR17-65"/>
      <use transform="translate(172.303629 -14.943915)scale(0.697382)" xlink:href="#CMSY10-0"/>
      <use transform="translate(226.544623 -14.943915)scale(0.697382)" xlink:href="#CMR17-48"/>
      <use transform="translate(274.895108 -14.943915)scale(0.697382)" xlink:href="#CMR17-65"/>
      <use transform="translate(303.733071 0)scale(0.996264)" xlink:href="#CMMI12-3d"/>
      <use transform="translate(347.088555 0)scale(0.996264)" xlink:href="#CMMI12-4e"/>
      <use transform="translate(435.610327 0)scale(0.996264)" xlink:href="#CMSY10-69"/>
      <use transform="translate(529.702079 0)scale(0.996264)" xlink:href="#CMR17-28"/>
      <use transform="translate(564.982846 0)scale(0.996264)" xlink:href="#CMR17-4b"/>
      <use transform="translate(636.657624 0)scale(0.996264)" xlink:href="#CMR17-29"/>
     </g>
    </g>
   </g>
   <g id="LineCollection_4">
    <path clip-path="url(#p3ab5901f54)" style="fill:none;stroke:#79c9a4;stroke-width:0.5;"/>
    <path clip-path="url(#p3ab5901f54)" d="M 243.808999 276.5175 
L 243.808999 268.077542 
" style="fill:none;stroke:#79c9a4;stroke-width:0.5;"/>
    <path clip-path="url(#p3ab5901f54)" d="M 230.753907 281.436506 
L 230.753907 273.793425 
" style="fill:none;stroke:#79c9a4;stroke-width:0.5;"/>
    <path clip-path="url(#p3ab5901f54)" d="M 217.697351 281.21195 
L 217.697351 273.611775 
" style="fill:none;stroke:#79c9a4;stroke-width:0.5;"/>
    <path clip-path="url(#p3ab5901f54)" d="M 204.641527 274.96433 
L 204.641527 266.344325 
" style="fill:none;stroke:#79c9a4;stroke-width:0.5;"/>
    <path clip-path="url(#p3ab5901f54)" d="M 191.585127 278.709319 
L 191.585127 271.281976 
" style="fill:none;stroke:#79c9a4;stroke-width:0.5;"/>
    <path clip-path="url(#p3ab5901f54)" d="M 178.529879 276.069056 
L 178.529879 268.75719 
" style="fill:none;stroke:#79c9a4;stroke-width:0.5;"/>
    <path clip-path="url(#p3ab5901f54)" d="M 165.473348 276.248151 
L 165.473348 269.072594 
" style="fill:none;stroke:#79c9a4;stroke-width:0.5;"/>
    <path clip-path="url(#p3ab5901f54)" d="M 152.418231 271.461792 
L 152.418231 264.369806 
" style="fill:none;stroke:#79c9a4;stroke-width:0.5;"/>
    <path clip-path="url(#p3ab5901f54)" d="M 139.362132 282.708732 
L 139.362132 275.6 
" style="fill:none;stroke:#79c9a4;stroke-width:0.5;"/>
    <path clip-path="url(#p3ab5901f54)" d="M 126.306582 270.840361 
L 126.306582 264.239127 
" style="fill:none;stroke:#79c9a4;stroke-width:0.5;"/>
    <path clip-path="url(#p3ab5901f54)" d="M 113.250432 275.172055 
L 113.250432 268.45848 
" style="fill:none;stroke:#79c9a4;stroke-width:0.5;"/>
    <path clip-path="url(#p3ab5901f54)" d="M 100.194725 273.572372 
L 100.194725 268.495937 
" style="fill:none;stroke:#79c9a4;stroke-width:0.5;"/>
    <path clip-path="url(#p3ab5901f54)" d="M 87.138993 280.286222 
L 87.138993 275.940089 
" style="fill:none;stroke:#79c9a4;stroke-width:0.5;"/>
    <path clip-path="url(#p3ab5901f54)" d="M 74.083234 273.392715 
L 74.083234 270.003336 
" style="fill:none;stroke:#79c9a4;stroke-width:0.5;"/>
    <path clip-path="url(#p3ab5901f54)" d="M 72.451262 274.138274 
L 72.451262 271.183784 
" style="fill:none;stroke:#79c9a4;stroke-width:0.5;"/>
    <path clip-path="url(#p3ab5901f54)" d="M 70.819262 271.650219 
L 70.819262 268.962692 
" style="fill:none;stroke:#79c9a4;stroke-width:0.5;"/>
    <path clip-path="url(#p3ab5901f54)" d="M 69.187283 271.956612 
L 69.187283 268.909098 
" style="fill:none;stroke:#79c9a4;stroke-width:0.5;"/>
    <path clip-path="url(#p3ab5901f54)" d="M 67.555316 269.108781 
L 67.555316 266.560116 
" style="fill:none;stroke:#79c9a4;stroke-width:0.5;"/>
    <path clip-path="url(#p3ab5901f54)" d="M 65.923349 270.643781 
L 65.923349 268.302864 
" style="fill:none;stroke:#79c9a4;stroke-width:0.5;"/>
    <path clip-path="url(#p3ab5901f54)" d="M 64.291377 265.683899 
L 64.291377 263.293096 
" style="fill:none;stroke:#79c9a4;stroke-width:0.5;"/>
    <path clip-path="url(#p3ab5901f54)" d="M 62.659402 263.977673 
L 62.659402 261.647165 
" style="fill:none;stroke:#79c9a4;stroke-width:0.5;"/>
    <path clip-path="url(#p3ab5901f54)" d="M 61.027423 258.509809 
L 61.027423 256.150308 
" style="fill:none;stroke:#79c9a4;stroke-width:0.5;"/>
    <path clip-path="url(#p3ab5901f54)" d="M 59.39546 251.690784 
L 59.39546 249.628446 
" style="fill:none;stroke:#79c9a4;stroke-width:0.5;"/>
    <path clip-path="url(#p3ab5901f54)" d="M 57.763484 241.986611 
L 57.763484 240.023344 
" style="fill:none;stroke:#79c9a4;stroke-width:0.5;"/>
    <path clip-path="url(#p3ab5901f54)" d="M 56.131508 223.156677 
L 56.131508 221.555036 
" style="fill:none;stroke:#79c9a4;stroke-width:0.5;"/>
    <path clip-path="url(#p3ab5901f54)" d="M 54.499534 199.264627 
L 54.499534 197.478638 
" style="fill:none;stroke:#79c9a4;stroke-width:0.5;"/>
   </g>
   <g id="line2d_36">
    <defs>
     <path d="M 0 2.5 
C 0.663008 2.5 1.29895 2.236584 1.767767 1.767767 
C 2.236584 1.29895 2.5 0.663008 2.5 0 
C 2.5 -0.663008 2.236584 -1.29895 1.767767 -1.767767 
C 1.29895 -2.236584 0.663008 -2.5 0 -2.5 
C -0.663008 -2.5 -1.29895 -2.236584 -1.767767 -1.767767 
C -2.236584 -1.29895 -2.5 -0.663008 -2.5 0 
C -2.5 0.663008 -2.236584 1.29895 -1.767767 1.767767 
C -1.29895 2.236584 -0.663008 2.5 0 2.5 
z
" id="mb1a9b8d3b3" style="stroke:#79c9a4;stroke-width:0.75;"/>
    </defs>
    <g clip-path="url(#p3ab5901f54)">
     <use style="fill-opacity:0;stroke:#79c9a4;stroke-width:0.75;" x="256.864823" xlink:href="#mb1a9b8d3b3" y="275.869865"/>
     <use style="fill-opacity:0;stroke:#79c9a4;stroke-width:0.75;" x="243.808999" xlink:href="#mb1a9b8d3b3" y="272.297521"/>
     <use style="fill-opacity:0;stroke:#79c9a4;stroke-width:0.75;" x="230.753907" xlink:href="#mb1a9b8d3b3" y="277.614966"/>
     <use style="fill-opacity:0;stroke:#79c9a4;stroke-width:0.75;" x="217.697351" xlink:href="#mb1a9b8d3b3" y="277.411862"/>
     <use style="fill-opacity:0;stroke:#79c9a4;stroke-width:0.75;" x="204.641527" xlink:href="#mb1a9b8d3b3" y="270.654327"/>
     <use style="fill-opacity:0;stroke:#79c9a4;stroke-width:0.75;" x="191.585127" xlink:href="#mb1a9b8d3b3" y="274.995647"/>
     <use style="fill-opacity:0;stroke:#79c9a4;stroke-width:0.75;" x="178.529879" xlink:href="#mb1a9b8d3b3" y="272.413123"/>
     <use style="fill-opacity:0;stroke:#79c9a4;stroke-width:0.75;" x="165.473348" xlink:href="#mb1a9b8d3b3" y="272.660373"/>
     <use style="fill-opacity:0;stroke:#79c9a4;stroke-width:0.75;" x="152.418231" xlink:href="#mb1a9b8d3b3" y="267.915799"/>
     <use style="fill-opacity:0;stroke:#79c9a4;stroke-width:0.75;" x="139.362132" xlink:href="#mb1a9b8d3b3" y="279.154366"/>
     <use style="fill-opacity:0;stroke:#79c9a4;stroke-width:0.75;" x="126.306582" xlink:href="#mb1a9b8d3b3" y="267.539744"/>
     <use style="fill-opacity:0;stroke:#79c9a4;stroke-width:0.75;" x="113.250432" xlink:href="#mb1a9b8d3b3" y="271.815267"/>
     <use style="fill-opacity:0;stroke:#79c9a4;stroke-width:0.75;" x="100.194725" xlink:href="#mb1a9b8d3b3" y="271.034155"/>
     <use style="fill-opacity:0;stroke:#79c9a4;stroke-width:0.75;" x="87.138993" xlink:href="#mb1a9b8d3b3" y="278.113156"/>
     <use style="fill-opacity:0;stroke:#79c9a4;stroke-width:0.75;" x="74.083234" xlink:href="#mb1a9b8d3b3" y="271.698025"/>
     <use style="fill-opacity:0;stroke:#79c9a4;stroke-width:0.75;" x="72.451262" xlink:href="#mb1a9b8d3b3" y="272.661029"/>
     <use style="fill-opacity:0;stroke:#79c9a4;stroke-width:0.75;" x="70.819262" xlink:href="#mb1a9b8d3b3" y="270.306455"/>
     <use style="fill-opacity:0;stroke:#79c9a4;stroke-width:0.75;" x="69.187283" xlink:href="#mb1a9b8d3b3" y="270.432855"/>
     <use style="fill-opacity:0;stroke:#79c9a4;stroke-width:0.75;" x="67.555316" xlink:href="#mb1a9b8d3b3" y="267.834448"/>
     <use style="fill-opacity:0;stroke:#79c9a4;stroke-width:0.75;" x="65.923349" xlink:href="#mb1a9b8d3b3" y="269.473323"/>
     <use style="fill-opacity:0;stroke:#79c9a4;stroke-width:0.75;" x="64.291377" xlink:href="#mb1a9b8d3b3" y="264.488497"/>
     <use style="fill-opacity:0;stroke:#79c9a4;stroke-width:0.75;" x="62.659402" xlink:href="#mb1a9b8d3b3" y="262.812419"/>
     <use style="fill-opacity:0;stroke:#79c9a4;stroke-width:0.75;" x="61.027423" xlink:href="#mb1a9b8d3b3" y="257.330059"/>
     <use style="fill-opacity:0;stroke:#79c9a4;stroke-width:0.75;" x="59.39546" xlink:href="#mb1a9b8d3b3" y="250.659615"/>
     <use style="fill-opacity:0;stroke:#79c9a4;stroke-width:0.75;" x="57.763484" xlink:href="#mb1a9b8d3b3" y="241.004978"/>
     <use style="fill-opacity:0;stroke:#79c9a4;stroke-width:0.75;" x="56.131508" xlink:href="#mb1a9b8d3b3" y="222.355857"/>
     <use style="fill-opacity:0;stroke:#79c9a4;stroke-width:0.75;" x="54.499534" xlink:href="#mb1a9b8d3b3" y="198.371632"/>
    </g>
   </g>
   <g id="patch_13">
    <path d="M 50.578625 282.750684 
L 50.578625 193.217133 
" style="fill:none;stroke:#000000;stroke-linecap:square;stroke-linejoin:miter;stroke-width:0.5;"/>
   </g>
   <g id="patch_14">
    <path d="M 250.013126 282.750684 
L 250.013126 193.217133 
" style="fill:none;stroke:#000000;stroke-linecap:square;stroke-linejoin:miter;stroke-width:0.5;"/>
   </g>
   <g id="patch_15">
    <path d="M 50.578625 282.750684 
L 250.013126 282.750684 
" style="fill:none;stroke:#000000;stroke-linecap:square;stroke-linejoin:miter;stroke-width:0.5;"/>
   </g>
   <g id="patch_16">
    <path d="M 50.578625 193.217133 
L 250.013126 193.217133 
" style="fill:none;stroke:#000000;stroke-linecap:square;stroke-linejoin:miter;stroke-width:0.5;"/>
   </g>
   <g id="text_24">
    <!-- (c) -->
    <g transform="translate(0.72 195.465238)scale(0.09 -0.09)">
     <defs>
      <path d="M 2234 2240 
C 2112 2240 1933 2240 1933 2015 
C 1933 1836 2080 1785 2163 1785 
C 2208 1785 2394 1804 2394 2028 
C 2394 2476 1958 2816 1466 2816 
C 787 2816 211 2201 211 1379 
C 211 521 813 -64 1466 -64 
C 2259 -64 2458 676 2458 747 
C 2458 773 2451 792 2406 792 
C 2362 792 2355 786 2330 702 
C 2163 180 1798 51 1523 51 
C 1114 51 621 431 621 1385 
C 621 2358 1094 2700 1472 2700 
C 1722 2700 2093 2582 2234 2240 
z
" id="CMR17-63" transform="scale(0.015625)"/>
     </defs>
     <use transform="scale(0.996264)" xlink:href="#CMR17-28"/>
     <use transform="translate(35.280768 0)scale(0.996264)" xlink:href="#CMR17-63"/>
     <use transform="translate(75.766428 0)scale(0.996264)" xlink:href="#CMR17-29"/>
    </g>
   </g>
  </g>
  <g id="axes_4">
   <g id="patch_17">
    <path d="M 112.091445 152.23409 
L 236.538574 152.23409 
L 236.538574 103.348771 
L 112.091445 103.348771 
z
" style="fill:none;"/>
   </g>
   <g id="line2d_37">
    <path clip-path="url(#pa3c1e88f6d)" d="M 117.748133 106.12076 
L 133.031585 106.231823 
L 148.315037 106.565009 
L 149.756872 106.607908 
L 149.756872 106.607908 
" style="fill:none;stroke:#3c93b8;stroke-linecap:square;stroke-width:0.5;"/>
   </g>
   <g id="line2d_38">
    <path clip-path="url(#pa3c1e88f6d)" d="M 128.372455 152.23409 
L 128.372455 103.348771 
" style="fill:none;stroke:#808080;stroke-dasharray:0.5,0.825;stroke-dashoffset:0;stroke-opacity:0.5;stroke-width:0.5;"/>
   </g>
   <g id="matplotlib.axis_7">
    <g id="xtick_19">
     <g id="line2d_39">
      <g>
       <use style="stroke:#000000;stroke-width:0.5;" x="117.748133" xlink:href="#m623acab836" y="152.23409"/>
      </g>
     </g>
     <g id="text_25">
      <!-- $\mathdefault{0.00}$ -->
      <g transform="translate(109.556683 162.46074)scale(0.09 -0.09)">
       <use transform="scale(0.996264)" xlink:href="#CMR17-30"/>
       <use transform="translate(45.690477 0)scale(0.996264)" xlink:href="#CMMI12-3a"/>
       <use transform="translate(72.787654 0)scale(0.996264)" xlink:href="#CMR17-30"/>
       <use transform="translate(118.478131 0)scale(0.996264)" xlink:href="#CMR17-30"/>
      </g>
     </g>
    </g>
    <g id="xtick_20">
     <g id="line2d_40">
      <g>
       <use style="stroke:#000000;stroke-width:0.5;" x="151.691653" xlink:href="#m623acab836" y="152.23409"/>
      </g>
     </g>
     <g id="text_26">
      <!-- $\mathdefault{0.01}$ -->
      <g transform="translate(143.500203 162.46074)scale(0.09 -0.09)">
       <use transform="scale(0.996264)" xlink:href="#CMR17-30"/>
       <use transform="translate(45.690477 0)scale(0.996264)" xlink:href="#CMMI12-3a"/>
       <use transform="translate(72.787654 0)scale(0.996264)" xlink:href="#CMR17-30"/>
       <use transform="translate(118.478131 0)scale(0.996264)" xlink:href="#CMR17-31"/>
      </g>
     </g>
    </g>
    <g id="xtick_21">
     <g id="line2d_41">
      <g>
       <use style="stroke:#000000;stroke-width:0.5;" x="185.635173" xlink:href="#m623acab836" y="152.23409"/>
      </g>
     </g>
     <g id="text_27">
      <!-- $\mathdefault{0.02}$ -->
      <g transform="translate(177.443723 162.46074)scale(0.09 -0.09)">
       <use transform="scale(0.996264)" xlink:href="#CMR17-30"/>
       <use transform="translate(45.690477 0)scale(0.996264)" xlink:href="#CMMI12-3a"/>
       <use transform="translate(72.787654 0)scale(0.996264)" xlink:href="#CMR17-30"/>
       <use transform="translate(118.478131 0)scale(0.996264)" xlink:href="#CMR17-32"/>
      </g>
     </g>
    </g>
    <g id="xtick_22">
     <g id="line2d_42">
      <g>
       <use style="stroke:#000000;stroke-width:0.5;" x="219.578694" xlink:href="#m623acab836" y="152.23409"/>
      </g>
     </g>
     <g id="text_28">
      <!-- $\mathdefault{0.03}$ -->
      <g transform="translate(211.387244 162.46074)scale(0.09 -0.09)">
       <use transform="scale(0.996264)" xlink:href="#CMR17-30"/>
       <use transform="translate(45.690477 0)scale(0.996264)" xlink:href="#CMMI12-3a"/>
       <use transform="translate(72.787654 0)scale(0.996264)" xlink:href="#CMR17-30"/>
       <use transform="translate(118.478131 0)scale(0.996264)" xlink:href="#CMR17-33"/>
      </g>
     </g>
    </g>
    <g id="text_29">
     <!-- $\alabel{\tau}{\kelvin}$ -->
     <g transform="translate(162.046358 172.928984)scale(0.09 -0.09)">
      <defs>
       <path d="M 1837 2406 
L 2899 2406 
C 2982 2406 3194 2406 3194 2611 
C 3194 2752 3072 2752 2957 2752 
L 1197 2752 
C 1050 2752 832 2752 538 2438 
C 371 2253 166 1916 166 1878 
C 166 1839 198 1827 237 1827 
C 282 1827 288 1846 320 1884 
C 653 2406 986 2406 1146 2406 
L 1677 2406 
L 1011 223 
C 979 127 979 114 979 95 
C 979 25 1024 -64 1152 -64 
C 1350 -64 1382 108 1402 204 
L 1837 2406 
z
" id="CMMI12-1c" transform="scale(0.015625)"/>
      </defs>
      <use transform="scale(0.996264)" xlink:href="#CMMI12-1c"/>
      <use transform="translate(108.839183 0)scale(0.996264)" xlink:href="#CMR17-28"/>
      <use transform="translate(144.119951 0)scale(0.996264)" xlink:href="#CMR17-4b"/>
      <use transform="translate(215.794728 0)scale(0.996264)" xlink:href="#CMR17-29"/>
     </g>
    </g>
   </g>
   <g id="matplotlib.axis_8">
    <g id="ytick_9">
     <g id="line2d_43">
      <g>
       <use style="stroke:#000000;stroke-width:0.5;" x="112.091445" xlink:href="#m5b93b19abc" y="149.606185"/>
      </g>
     </g>
     <g id="text_30">
      <!-- $\mathdefault{−157.5}$ -->
      <g transform="translate(79.933336 152.71951)scale(0.09 -0.09)">
       <use transform="scale(0.996264)" xlink:href="#CMSY10-0"/>
       <use transform="translate(77.487468 0)scale(0.996264)" xlink:href="#CMR17-31"/>
       <use transform="translate(123.177945 0)scale(0.996264)" xlink:href="#CMR17-35"/>
       <use transform="translate(168.868422 0)scale(0.996264)" xlink:href="#CMR17-37"/>
       <use transform="translate(214.558899 0)scale(0.996264)" xlink:href="#CMMI12-3a"/>
       <use transform="translate(241.656076 0)scale(0.996264)" xlink:href="#CMR17-35"/>
      </g>
     </g>
    </g>
    <g id="ytick_10">
     <g id="line2d_44">
      <g>
       <use style="stroke:#000000;stroke-width:0.5;" x="112.091445" xlink:href="#m5b93b19abc" y="134.075961"/>
      </g>
     </g>
     <g id="text_31">
      <!-- $\mathdefault{−155.0}$ -->
      <g transform="translate(79.933336 137.189286)scale(0.09 -0.09)">
       <use transform="scale(0.996264)" xlink:href="#CMSY10-0"/>
       <use transform="translate(77.487468 0)scale(0.996264)" xlink:href="#CMR17-31"/>
       <use transform="translate(123.177945 0)scale(0.996264)" xlink:href="#CMR17-35"/>
       <use transform="translate(168.868422 0)scale(0.996264)" xlink:href="#CMR17-35"/>
       <use transform="translate(214.558899 0)scale(0.996264)" xlink:href="#CMMI12-3a"/>
       <use transform="translate(241.656076 0)scale(0.996264)" xlink:href="#CMR17-30"/>
      </g>
     </g>
    </g>
    <g id="ytick_11">
     <g id="line2d_45">
      <g>
       <use style="stroke:#000000;stroke-width:0.5;" x="112.091445" xlink:href="#m5b93b19abc" y="118.545737"/>
      </g>
     </g>
     <g id="text_32">
      <!-- $\mathdefault{−152.5}$ -->
      <g transform="translate(79.933336 121.659062)scale(0.09 -0.09)">
       <use transform="scale(0.996264)" xlink:href="#CMSY10-0"/>
       <use transform="translate(77.487468 0)scale(0.996264)" xlink:href="#CMR17-31"/>
       <use transform="translate(123.177945 0)scale(0.996264)" xlink:href="#CMR17-35"/>
       <use transform="translate(168.868422 0)scale(0.996264)" xlink:href="#CMR17-32"/>
       <use transform="translate(214.558899 0)scale(0.996264)" xlink:href="#CMMI12-3a"/>
       <use transform="translate(241.656076 0)scale(0.996264)" xlink:href="#CMR17-35"/>
      </g>
     </g>
    </g>
   </g>
   <g id="LineCollection_5">
    <path clip-path="url(#pa3c1e88f6d)" d="M 123.009378 106.82781 
L 123.009378 106.321091 
" style="fill:none;stroke:#3c93b8;stroke-width:0.5;"/>
    <path clip-path="url(#pa3c1e88f6d)" d="M 124.774441 106.232779 
L 124.774441 105.814706 
" style="fill:none;stroke:#3c93b8;stroke-width:0.5;"/>
    <path clip-path="url(#pa3c1e88f6d)" d="M 128.372455 106.300258 
L 128.372455 106.004585 
" style="fill:none;stroke:#3c93b8;stroke-width:0.5;"/>
    <path clip-path="url(#pa3c1e88f6d)" d="M 131.766807 105.920656 
L 131.766807 105.570831 
" style="fill:none;stroke:#3c93b8;stroke-width:0.5;"/>
    <path clip-path="url(#pa3c1e88f6d)" d="M 133.599757 106.721791 
L 133.599757 106.398187 
" style="fill:none;stroke:#3c93b8;stroke-width:0.5;"/>
    <path clip-path="url(#pa3c1e88f6d)" d="M 138.691285 107.029451 
L 138.691285 106.692291 
" style="fill:none;stroke:#3c93b8;stroke-width:0.5;"/>
    <path clip-path="url(#pa3c1e88f6d)" d="M 149.756872 110.563415 
L 149.756872 110.172801 
" style="fill:none;stroke:#3c93b8;stroke-width:0.5;"/>
    <path clip-path="url(#pa3c1e88f6d)" d="M 159.159228 113.719346 
L 159.159228 113.308084 
" style="fill:none;stroke:#3c93b8;stroke-width:0.5;"/>
    <path clip-path="url(#pa3c1e88f6d)" d="M 172.499031 120.108147 
L 172.499031 119.737954 
" style="fill:none;stroke:#3c93b8;stroke-width:0.5;"/>
    <path clip-path="url(#pa3c1e88f6d)" d="M 230.881886 150.01203 
L 230.881886 147.674297 
" style="fill:none;stroke:#3c93b8;stroke-width:0.5;"/>
   </g>
   <g id="line2d_46">
    <defs>
     <path d="M 0 -2 
L -2 2 
L 2 2 
z
" id="mc2c06c21ca" style="stroke:#3c93b8;stroke-linejoin:miter;stroke-width:0.5;"/>
    </defs>
    <g clip-path="url(#pa3c1e88f6d)">
     <use style="fill-opacity:0;stroke:#3c93b8;stroke-linejoin:miter;stroke-width:0.5;" x="123.009378" xlink:href="#mc2c06c21ca" y="106.57445"/>
     <use style="fill-opacity:0;stroke:#3c93b8;stroke-linejoin:miter;stroke-width:0.5;" x="124.774441" xlink:href="#mc2c06c21ca" y="106.023743"/>
     <use style="fill-opacity:0;stroke:#3c93b8;stroke-linejoin:miter;stroke-width:0.5;" x="128.372455" xlink:href="#mc2c06c21ca" y="106.152421"/>
     <use style="fill-opacity:0;stroke:#3c93b8;stroke-linejoin:miter;stroke-width:0.5;" x="131.766807" xlink:href="#mc2c06c21ca" y="105.745744"/>
     <use style="fill-opacity:0;stroke:#3c93b8;stroke-linejoin:miter;stroke-width:0.5;" x="133.599757" xlink:href="#mc2c06c21ca" y="106.559989"/>
     <use style="fill-opacity:0;stroke:#3c93b8;stroke-linejoin:miter;stroke-width:0.5;" x="138.691285" xlink:href="#mc2c06c21ca" y="106.860871"/>
     <use style="fill-opacity:0;stroke:#3c93b8;stroke-linejoin:miter;stroke-width:0.5;" x="149.756872" xlink:href="#mc2c06c21ca" y="110.368108"/>
     <use style="fill-opacity:0;stroke:#3c93b8;stroke-linejoin:miter;stroke-width:0.5;" x="159.159228" xlink:href="#mc2c06c21ca" y="113.513715"/>
     <use style="fill-opacity:0;stroke:#3c93b8;stroke-linejoin:miter;stroke-width:0.5;" x="172.499031" xlink:href="#mc2c06c21ca" y="119.923051"/>
     <use style="fill-opacity:0;stroke:#3c93b8;stroke-linejoin:miter;stroke-width:0.5;" x="230.881886" xlink:href="#mc2c06c21ca" y="148.843163"/>
    </g>
   </g>
   <g id="patch_18">
    <path d="M 112.091445 152.23409 
L 112.091445 103.348771 
" style="fill:none;stroke:#000000;stroke-linecap:square;stroke-linejoin:miter;stroke-width:0.5;"/>
   </g>
   <g id="patch_19">
    <path d="M 236.538574 152.23409 
L 236.538574 103.348771 
" style="fill:none;stroke:#000000;stroke-linecap:square;stroke-linejoin:miter;stroke-width:0.5;"/>
   </g>
   <g id="patch_20">
    <path d="M 112.091445 152.23409 
L 236.538574 152.23409 
" style="fill:none;stroke:#000000;stroke-linecap:square;stroke-linejoin:miter;stroke-width:0.5;"/>
   </g>
   <g id="patch_21">
    <path d="M 112.091445 103.348771 
L 236.538574 103.348771 
" style="fill:none;stroke:#000000;stroke-linecap:square;stroke-linejoin:miter;stroke-width:0.5;"/>
   </g>
   <g id="legend_2">
    <g id="LineCollection_6">
     <path d="M 120.191445 131.110937 
L 120.191445 122.110937 
" style="fill:none;stroke:#3c93b8;stroke-width:0.5;"/>
    </g>
    <g id="line2d_47"/>
    <g id="line2d_48">
     <g>
      <use style="fill-opacity:0;stroke:#3c93b8;stroke-linejoin:miter;stroke-width:0.5;" x="120.191445" xlink:href="#mc2c06c21ca" y="126.610937"/>
     </g>
    </g>
    <g id="text_33">
     <!-- QMC -->
     <g transform="translate(129.191445 129.760937)scale(0.09 -0.09)">
      <use transform="scale(0.996264)" xlink:href="#CMR17-51"/>
      <use transform="translate(71.714788 0)scale(0.996264)" xlink:href="#CMR17-4d"/>
      <use transform="translate(156.401729 0)scale(0.996264)" xlink:href="#CMR17-43"/>
     </g>
    </g>
    <g id="line2d_49">
     <path d="M 115.691445 138.265611 
L 124.691445 138.265611 
" style="fill:none;stroke:#3c93b8;stroke-linecap:square;stroke-width:0.5;"/>
    </g>
    <g id="line2d_50"/>
    <g id="text_34">
     <!-- $V_{\rm He-\graphene,0} + c_1\tau^2 + c_2 \tau^4$ -->
     <g transform="translate(129.191445 141.415611)scale(0.09 -0.09)">
      <use transform="scale(0.996264)" xlink:href="#CMMI12-56"/>
      <use transform="translate(56.869579 -15.337838)scale(0.697382)" xlink:href="#CMR17-48"/>
      <use transform="translate(105.220064 -15.337838)scale(0.697382)" xlink:href="#CMR17-65"/>
      <use transform="translate(133.559896 -15.337838)scale(0.697382)" xlink:href="#CMSY10-0"/>
      <use transform="translate(187.800889 -15.337838)scale(0.697382)" xlink:href="#SVRsymbols-73"/>
      <use transform="translate(252.169249 -15.337838)scale(0.697382)" xlink:href="#CMMI12-3b"/>
      <use transform="translate(271.137181 -15.337838)scale(0.697382)" xlink:href="#CMR17-30"/>
      <use transform="translate(325.757702 0)scale(0.996264)" xlink:href="#CMR17-2b"/>
      <use transform="translate(419.611698 0)scale(0.996264)" xlink:href="#CMMI12-63"/>
      <use transform="translate(461.594931 -14.943915)scale(0.697382)" xlink:href="#CMR17-31"/>
      <use transform="translate(494.076245 0)scale(0.996264)" xlink:href="#CMMI12-1c"/>
      <use transform="translate(547.567411 36.153639)scale(0.697382)" xlink:href="#CMR17-32"/>
      <use transform="translate(602.187932 0)scale(0.996264)" xlink:href="#CMR17-2b"/>
      <use transform="translate(696.041927 0)scale(0.996264)" xlink:href="#CMMI12-63"/>
      <use transform="translate(738.025161 -14.943915)scale(0.697382)" xlink:href="#CMR17-32"/>
      <use transform="translate(770.506475 0)scale(0.996264)" xlink:href="#CMMI12-1c"/>
      <use transform="translate(823.99764 36.153639)scale(0.697382)" xlink:href="#CMR17-34"/>
     </g>
    </g>
   </g>
  </g>
  <g id="axes_5">
   <g id="patch_22">
    <path d="M 112.091445 246.244317 
L 236.538574 246.244317 
L 236.538574 197.358999 
L 112.091445 197.358999 
z
" style="fill:none;"/>
   </g>
   <g id="line2d_51">
    <path clip-path="url(#paf4311dd9d)" d="M 117.748133 199.581059 
L 120.50364 199.693392 
L 123.259147 200.030393 
L 126.014654 200.592061 
L 128.802202 201.38886 
L 131.621791 202.42872 
L 134.47342 203.71966 
L 137.35709 205.26979 
L 140.304842 207.108682 
L 143.316676 209.253104 
L 146.39259 211.720189 
L 149.532587 214.527434 
L 149.756872 214.739115 
L 149.756872 214.739115 
" style="fill:none;stroke:#79c9a4;stroke-linecap:square;stroke-width:0.5;"/>
   </g>
   <g id="line2d_52">
    <path clip-path="url(#paf4311dd9d)" d="M 128.372455 246.244317 
L 128.372455 197.358999 
" style="fill:none;stroke:#808080;stroke-dasharray:0.5,0.825;stroke-dashoffset:0;stroke-opacity:0.5;stroke-width:0.5;"/>
   </g>
   <g id="matplotlib.axis_9">
    <g id="xtick_23">
     <g id="line2d_53">
      <g>
       <use style="stroke:#000000;stroke-width:0.5;" x="117.748133" xlink:href="#m623acab836" y="246.244317"/>
      </g>
     </g>
     <g id="text_35">
      <!-- $\mathdefault{0.00}$ -->
      <g transform="translate(109.556683 256.470968)scale(0.09 -0.09)">
       <use transform="scale(0.996264)" xlink:href="#CMR17-30"/>
       <use transform="translate(45.690477 0)scale(0.996264)" xlink:href="#CMMI12-3a"/>
       <use transform="translate(72.787654 0)scale(0.996264)" xlink:href="#CMR17-30"/>
       <use transform="translate(118.478131 0)scale(0.996264)" xlink:href="#CMR17-30"/>
      </g>
     </g>
    </g>
    <g id="xtick_24">
     <g id="line2d_54">
      <g>
       <use style="stroke:#000000;stroke-width:0.5;" x="151.691653" xlink:href="#m623acab836" y="246.244317"/>
      </g>
     </g>
     <g id="text_36">
      <!-- $\mathdefault{0.01}$ -->
      <g transform="translate(143.500203 256.470968)scale(0.09 -0.09)">
       <use transform="scale(0.996264)" xlink:href="#CMR17-30"/>
       <use transform="translate(45.690477 0)scale(0.996264)" xlink:href="#CMMI12-3a"/>
       <use transform="translate(72.787654 0)scale(0.996264)" xlink:href="#CMR17-30"/>
       <use transform="translate(118.478131 0)scale(0.996264)" xlink:href="#CMR17-31"/>
      </g>
     </g>
    </g>
    <g id="xtick_25">
     <g id="line2d_55">
      <g>
       <use style="stroke:#000000;stroke-width:0.5;" x="185.635173" xlink:href="#m623acab836" y="246.244317"/>
      </g>
     </g>
     <g id="text_37">
      <!-- $\mathdefault{0.02}$ -->
      <g transform="translate(177.443723 256.470968)scale(0.09 -0.09)">
       <use transform="scale(0.996264)" xlink:href="#CMR17-30"/>
       <use transform="translate(45.690477 0)scale(0.996264)" xlink:href="#CMMI12-3a"/>
       <use transform="translate(72.787654 0)scale(0.996264)" xlink:href="#CMR17-30"/>
       <use transform="translate(118.478131 0)scale(0.996264)" xlink:href="#CMR17-32"/>
      </g>
     </g>
    </g>
    <g id="xtick_26">
     <g id="line2d_56">
      <g>
       <use style="stroke:#000000;stroke-width:0.5;" x="219.578694" xlink:href="#m623acab836" y="246.244317"/>
      </g>
     </g>
     <g id="text_38">
      <!-- $\mathdefault{0.03}$ -->
      <g transform="translate(211.387244 256.470968)scale(0.09 -0.09)">
       <use transform="scale(0.996264)" xlink:href="#CMR17-30"/>
       <use transform="translate(45.690477 0)scale(0.996264)" xlink:href="#CMMI12-3a"/>
       <use transform="translate(72.787654 0)scale(0.996264)" xlink:href="#CMR17-30"/>
       <use transform="translate(118.478131 0)scale(0.996264)" xlink:href="#CMR17-33"/>
      </g>
     </g>
    </g>
    <g id="text_39">
     <!-- $\alabel{\tau}{\kelvin}$ -->
     <g transform="translate(162.046358 266.939212)scale(0.09 -0.09)">
      <use transform="scale(0.996264)" xlink:href="#CMMI12-1c"/>
      <use transform="translate(108.839183 0)scale(0.996264)" xlink:href="#CMR17-28"/>
      <use transform="translate(144.119951 0)scale(0.996264)" xlink:href="#CMR17-4b"/>
      <use transform="translate(215.794728 0)scale(0.996264)" xlink:href="#CMR17-29"/>
     </g>
    </g>
   </g>
   <g id="matplotlib.axis_10">
    <g id="ytick_12">
     <g id="line2d_57">
      <g>
       <use style="stroke:#000000;stroke-width:0.5;" x="112.091445" xlink:href="#m5b93b19abc" y="230.482963"/>
      </g>
     </g>
     <g id="text_40">
      <!-- $\mathdefault{100}$ -->
      <g transform="translate(94.268373 233.596288)scale(0.09 -0.09)">
       <use transform="scale(0.996264)" xlink:href="#CMR17-31"/>
       <use transform="translate(45.690477 0)scale(0.996264)" xlink:href="#CMR17-30"/>
       <use transform="translate(91.380954 0)scale(0.996264)" xlink:href="#CMR17-30"/>
      </g>
     </g>
    </g>
    <g id="ytick_13">
     <g id="line2d_58">
      <g>
       <use style="stroke:#000000;stroke-width:0.5;" x="112.091445" xlink:href="#m5b93b19abc" y="199.450264"/>
      </g>
     </g>
     <g id="text_41">
      <!-- $\mathdefault{150}$ -->
      <g transform="translate(94.268373 202.563589)scale(0.09 -0.09)">
       <use transform="scale(0.996264)" xlink:href="#CMR17-31"/>
       <use transform="translate(45.690477 0)scale(0.996264)" xlink:href="#CMR17-35"/>
       <use transform="translate(91.380954 0)scale(0.996264)" xlink:href="#CMR17-30"/>
      </g>
     </g>
    </g>
   </g>
   <g id="LineCollection_7">
    <path clip-path="url(#paf4311dd9d)" d="M 123.009378 200.341403 
L 123.009378 200.278716 
" style="fill:none;stroke:#79c9a4;stroke-width:0.5;"/>
    <path clip-path="url(#paf4311dd9d)" d="M 124.774441 200.385387 
L 124.774441 200.329661 
" style="fill:none;stroke:#79c9a4;stroke-width:0.5;"/>
    <path clip-path="url(#paf4311dd9d)" d="M 128.372455 200.96452 
L 128.372455 200.919016 
" style="fill:none;stroke:#79c9a4;stroke-width:0.5;"/>
    <path clip-path="url(#paf4311dd9d)" d="M 131.766807 202.487775 
L 131.766807 202.431668 
" style="fill:none;stroke:#79c9a4;stroke-width:0.5;"/>
    <path clip-path="url(#paf4311dd9d)" d="M 133.599757 203.469801 
L 133.599757 203.421269 
" style="fill:none;stroke:#79c9a4;stroke-width:0.5;"/>
    <path clip-path="url(#paf4311dd9d)" d="M 138.691285 206.928931 
L 138.691285 206.872786 
" style="fill:none;stroke:#79c9a4;stroke-width:0.5;"/>
    <path clip-path="url(#paf4311dd9d)" d="M 149.756872 214.972277 
L 149.756872 214.922185 
" style="fill:none;stroke:#79c9a4;stroke-width:0.5;"/>
    <path clip-path="url(#paf4311dd9d)" d="M 159.159228 221.032269 
L 159.159228 220.982323 
" style="fill:none;stroke:#79c9a4;stroke-width:0.5;"/>
    <path clip-path="url(#paf4311dd9d)" d="M 172.499031 227.909681 
L 172.499031 227.861167 
" style="fill:none;stroke:#79c9a4;stroke-width:0.5;"/>
    <path clip-path="url(#paf4311dd9d)" d="M 230.881886 244.022258 
L 230.881886 243.621979 
" style="fill:none;stroke:#79c9a4;stroke-width:0.5;"/>
   </g>
   <g id="line2d_59">
    <defs>
     <path d="M 0 -2 
L -2 2 
L 2 2 
z
" id="m7dd407d9c0" style="stroke:#79c9a4;stroke-linejoin:miter;stroke-width:0.5;"/>
    </defs>
    <g clip-path="url(#paf4311dd9d)">
     <use style="fill-opacity:0;stroke:#79c9a4;stroke-linejoin:miter;stroke-width:0.5;" x="123.009378" xlink:href="#m7dd407d9c0" y="200.310059"/>
     <use style="fill-opacity:0;stroke:#79c9a4;stroke-linejoin:miter;stroke-width:0.5;" x="124.774441" xlink:href="#m7dd407d9c0" y="200.357524"/>
     <use style="fill-opacity:0;stroke:#79c9a4;stroke-linejoin:miter;stroke-width:0.5;" x="128.372455" xlink:href="#m7dd407d9c0" y="200.941768"/>
     <use style="fill-opacity:0;stroke:#79c9a4;stroke-linejoin:miter;stroke-width:0.5;" x="131.766807" xlink:href="#m7dd407d9c0" y="202.459722"/>
     <use style="fill-opacity:0;stroke:#79c9a4;stroke-linejoin:miter;stroke-width:0.5;" x="133.599757" xlink:href="#m7dd407d9c0" y="203.445535"/>
     <use style="fill-opacity:0;stroke:#79c9a4;stroke-linejoin:miter;stroke-width:0.5;" x="138.691285" xlink:href="#m7dd407d9c0" y="206.900858"/>
     <use style="fill-opacity:0;stroke:#79c9a4;stroke-linejoin:miter;stroke-width:0.5;" x="149.756872" xlink:href="#m7dd407d9c0" y="214.947231"/>
     <use style="fill-opacity:0;stroke:#79c9a4;stroke-linejoin:miter;stroke-width:0.5;" x="159.159228" xlink:href="#m7dd407d9c0" y="221.007296"/>
     <use style="fill-opacity:0;stroke:#79c9a4;stroke-linejoin:miter;stroke-width:0.5;" x="172.499031" xlink:href="#m7dd407d9c0" y="227.885424"/>
     <use style="fill-opacity:0;stroke:#79c9a4;stroke-linejoin:miter;stroke-width:0.5;" x="230.881886" xlink:href="#m7dd407d9c0" y="243.822118"/>
    </g>
   </g>
   <g id="patch_23">
    <path d="M 112.091445 246.244317 
L 112.091445 197.358999 
" style="fill:none;stroke:#000000;stroke-linecap:square;stroke-linejoin:miter;stroke-width:0.5;"/>
   </g>
   <g id="patch_24">
    <path d="M 236.538574 246.244317 
L 236.538574 197.358999 
" style="fill:none;stroke:#000000;stroke-linecap:square;stroke-linejoin:miter;stroke-width:0.5;"/>
   </g>
   <g id="patch_25">
    <path d="M 112.091445 246.244317 
L 236.538574 246.244317 
" style="fill:none;stroke:#000000;stroke-linecap:square;stroke-linejoin:miter;stroke-width:0.5;"/>
   </g>
   <g id="patch_26">
    <path d="M 112.091445 197.358999 
L 236.538574 197.358999 
" style="fill:none;stroke:#000000;stroke-linecap:square;stroke-linejoin:miter;stroke-width:0.5;"/>
   </g>
  </g>
 </g>
 <defs>
  <clipPath id="p1dc66e2197">
   <rect height="89.53355" width="199.434501" x="50.578625" y="5.196678"/>
  </clipPath>
  <clipPath id="p2762baad1e">
   <rect height="89.53355" width="199.434501" x="50.578625" y="99.206905"/>
  </clipPath>
  <clipPath id="p3ab5901f54">
   <rect height="89.53355" width="199.434501" x="50.578625" y="193.217133"/>
  </clipPath>
  <clipPath id="pa3c1e88f6d">
   <rect height="48.885318" width="124.447129" x="112.091445" y="103.348771"/>
  </clipPath>
  <clipPath id="paf4311dd9d">
   <rect height="48.885318" width="124.447129" x="112.091445" y="197.358999"/>
  </clipPath>
 </defs>
</svg>
