<?xml version="1.0" encoding="utf-8" standalone="no"?>
<!DOCTYPE svg PUBLIC "-//W3C//DTD SVG 1.1//EN"
  "http://www.w3.org/Graphics/SVG/1.1/DTD/svg11.dtd">
<!-- Created with matplotlib (https://matplotlib.org/) -->
<svg height="145.761683pt" version="1.1" viewBox="0 0 237.250878 145.761683" width="237.250878pt" xmlns="http://www.w3.org/2000/svg" xmlns:xlink="http://www.w3.org/1999/xlink">
 <metadata>
  <rdf:RDF xmlns:cc="http://creativecommons.org/ns#" xmlns:dc="http://purl.org/dc/elements/1.1/" xmlns:rdf="http://www.w3.org/1999/02/22-rdf-syntax-ns#">
   <cc:Work>
    <dc:type rdf:resource="http://purl.org/dc/dcmitype/StillImage"/>
    <dc:date>2021-05-19T21:35:05.322969</dc:date>
    <dc:format>image/svg+xml</dc:format>
    <dc:creator>
     <cc:Agent>
      <dc:title>Matplotlib v3.3.4, https://matplotlib.org/</dc:title>
     </cc:Agent>
    </dc:creator>
   </cc:Work>
  </rdf:RDF>
 </metadata>
 <defs>
  <style type="text/css">*{stroke-linecap:butt;stroke-linejoin:round;}</style>
 </defs>
 <g id="figure_1">
  <g id="patch_1">
   <path d="M 0 145.761683 
L 237.250878 145.761683 
L 237.250878 0 
L 0 0 
z
" style="fill:none;"/>
  </g>
  <g id="axes_1">
   <g id="patch_2">
    <path d="M 27.599496 120.796701 
L 236.530878 120.796701 
L 236.530878 0.72 
L 27.599496 0.72 
z
" style="fill:none;"/>
   </g>
   <g id="patch_3">
    <path d="M 114.262593 78.701184 
Q 127.316654 96.271202 140.370715 113.84122 
" style="fill:none;opacity:0.5;stroke:#808080;stroke-dasharray:0.5,0.825;stroke-dashoffset:0;stroke-linecap:round;stroke-width:0.5;"/>
   </g>
   <g id="patch_4">
    <path d="M 189.363422 78.326704 
Q 166.251946 96.272889 143.14047 114.219075 
" style="fill:none;opacity:0.5;stroke:#808080;stroke-dasharray:0.5,0.825;stroke-dashoffset:0;stroke-linecap:round;stroke-width:0.5;"/>
   </g>
   <g id="matplotlib.axis_1">
    <g id="xtick_1">
     <g id="line2d_1">
      <defs>
       <path d="M 0 0 
L 0 2 
" id="me95f5135dd" style="stroke:#000000;stroke-width:0.5;"/>
      </defs>
      <g>
       <use style="stroke:#000000;stroke-width:0.5;" x="56.090139" xlink:href="#me95f5135dd" y="120.796701"/>
      </g>
     </g>
     <g id="text_1">
      <!-- $\mathdefault{4.6}$ -->
      <g transform="translate(50.202534 131.023351)scale(0.09 -0.09)">
       <defs>
        <path d="M 33.59375 64.796875 
C 33.59375 66.890625 33.5 67 31.703125 67 
L 2 19.59375 
L 2 17 
L 27.796875 17 
L 27.796875 7.1875 
C 27.796875 3.59375 27.59375 2.59375 20.59375 2.59375 
L 18.703125 2.59375 
L 18.703125 0 
C 21.90625 0.1875 27.296875 0.1875 30.703125 0.1875 
C 34.09375 0.1875 39.5 0.1875 42.703125 0 
L 42.703125 2.59375 
L 40.796875 2.59375 
C 33.796875 2.59375 33.59375 3.59375 33.59375 7.1875 
L 33.59375 17 
L 43.796875 17 
L 43.796875 19.59375 
L 33.59375 19.59375 
z
M 28.09375 58.171875 
L 28.09375 19.59375 
L 4 19.59375 
z
" id="CMR17-52"/>
        <path d="M 18.40625 4.796875 
C 18.40625 7.6875 16 9.6875 13.59375 9.6875 
C 10.703125 9.6875 8.703125 7.296875 8.703125 4.890625 
C 8.703125 2 11.09375 0 13.5 0 
C 16.40625 0 18.40625 2.390625 18.40625 4.796875 
z
" id="CMMI12-58"/>
        <path d="M 10.59375 34.34375 
C 10.59375 58 21.796875 63.6875 28.296875 63.6875 
C 30.40625 63.6875 35.5 63.265625 37.5 59.09375 
C 35.90625 59.09375 32.90625 59.09375 32.90625 55.59375 
C 32.90625 52.890625 35.09375 52 36.5 52 
C 37.40625 52 40.09375 52.390625 40.09375 55.796875 
C 40.09375 62.296875 35.09375 66 28.203125 66 
C 16.296875 66 3.796875 53.296875 3.796875 31.421875 
C 3.796875 4.015625 15.09375 -2 23.09375 -2 
C 32.796875 -2 42 6.734375 42 20.234375 
C 42 32.828125 33.90625 42 23.703125 42 
C 17.59375 42 13.09375 37.96875 10.59375 30.921875 
z
M 23.09375 0.390625 
C 10.796875 0.390625 10.796875 18.9375 10.796875 22.65625 
C 10.796875 29.90625 14.203125 40.390625 23.5 40.390625 
C 25.203125 40.390625 30.09375 40.390625 33.40625 33.4375 
C 35.203125 29.515625 35.203125 25.375 35.203125 20.34375 
C 35.203125 14.90625 35.203125 10.875 33.09375 6.84375 
C 30.90625 2.703125 27.703125 0.390625 23.09375 0.390625 
z
" id="CMR17-54"/>
       </defs>
       <use transform="scale(0.996264)" xlink:href="#CMR17-52"/>
       <use transform="translate(45.690477 0)scale(0.996264)" xlink:href="#CMMI12-58"/>
       <use transform="translate(72.787654 0)scale(0.996264)" xlink:href="#CMR17-54"/>
      </g>
     </g>
    </g>
    <g id="xtick_2">
     <g id="line2d_2">
      <g>
       <use style="stroke:#000000;stroke-width:0.5;" x="94.077663" xlink:href="#me95f5135dd" y="120.796701"/>
      </g>
     </g>
     <g id="text_2">
      <!-- $\mathdefault{4.8}$ -->
      <g transform="translate(88.190058 131.023351)scale(0.09 -0.09)">
       <defs>
        <path d="M 27.203125 35.765625 
C 33.5 38.96875 39.90625 43.796875 39.90625 51.53125 
C 39.90625 60.6875 31.09375 66 23 66 
C 13.90625 66 5.90625 59.375 5.90625 50.234375 
C 5.90625 47.71875 6.5 43.390625 10.40625 39.578125 
C 11.40625 38.578125 15.59375 35.5625 18.296875 33.65625 
C 13.796875 31.34375 3.296875 25.8125 3.296875 14.765625 
C 3.296875 4.40625 13.09375 -2 22.796875 -2 
C 33.5 -2 42.5 5.71875 42.5 15.96875 
C 42.5 25.109375 36.40625 29.328125 32.40625 32.046875 
z
M 14.09375 44.609375 
C 13.296875 45.109375 9.296875 48.21875 9.296875 52.9375 
C 9.296875 59.078125 15.59375 63.6875 22.796875 63.6875 
C 30.703125 63.6875 36.5 58.0625 36.5 51.53125 
C 36.5 42.1875 26.09375 36.859375 25.59375 36.859375 
C 25.5 36.859375 25.40625 36.859375 24.59375 37.46875 
z
M 32.5 24 
C 34 22.90625 38.796875 19.578125 38.796875 13.453125 
C 38.796875 6.015625 31.40625 0.390625 23 0.390625 
C 13.90625 0.390625 7 6.921875 7 14.859375 
C 7 22.796875 13.09375 29.4375 20 32.546875 
z
" id="CMR17-56"/>
       </defs>
       <use transform="scale(0.996264)" xlink:href="#CMR17-52"/>
       <use transform="translate(45.690477 0)scale(0.996264)" xlink:href="#CMMI12-58"/>
       <use transform="translate(72.787654 0)scale(0.996264)" xlink:href="#CMR17-56"/>
      </g>
     </g>
    </g>
    <g id="xtick_3">
     <g id="line2d_3">
      <g>
       <use style="stroke:#000000;stroke-width:0.5;" x="132.065187" xlink:href="#me95f5135dd" y="120.796701"/>
      </g>
     </g>
     <g id="text_3">
      <!-- $\mathdefault{5.0}$ -->
      <g transform="translate(126.177582 131.023351)scale(0.09 -0.09)">
       <defs>
        <path d="M 11.40625 58.59375 
C 12.40625 58.1875 16.5 56.890625 20.703125 56.890625 
C 30 56.890625 35.09375 61.890625 38 64.6875 
C 38 65.484375 38 66 37.40625 66 
C 37.296875 66 37.09375 66 36.296875 65.59375 
C 32.796875 64.09375 28.703125 63 23.703125 63 
C 20.703125 63 16.203125 63.359375 11.296875 65.484375 
C 10.203125 66 10 66 9.90625 66 
C 9.40625 66 9.296875 65.890625 9.296875 63.90625 
L 9.296875 34.859375 
C 9.296875 33.015625 9.296875 32.5 10.296875 32.5 
C 10.796875 32.5 11 32.703125 11.5 33.421875 
C 14.703125 38.046875 19.09375 40 24.09375 40 
C 27.59375 40 35.09375 37.734375 35.09375 20.203125 
C 35.09375 16.984375 35.09375 11.1875 32.09375 6.59375 
C 29.59375 2.484375 25.703125 0.390625 21.40625 0.390625 
C 14.796875 0.390625 8.09375 4.984375 6.296875 12.6875 
C 6.703125 12.59375 7.5 12.390625 7.90625 12.390625 
C 9.203125 12.390625 11.703125 13.09375 11.703125 16.1875 
C 11.703125 18.890625 9.796875 20 7.90625 20 
C 5.59375 20 4.09375 18.59375 4.09375 15.796875 
C 4.09375 7.09375 11 -2 21.59375 -2 
C 31.90625 -2 41.703125 6.890625 41.703125 19.796875 
C 41.703125 32.09375 33.90625 41.59375 24.203125 41.59375 
C 19.09375 41.59375 14.796875 39.6875 11.40625 36 
z
" id="CMR17-53"/>
        <path d="M 42 31.84375 
C 42 37.96875 41.90625 48.421875 37.703125 56.453125 
C 34 63.484375 28.09375 66 22.90625 66 
C 18.09375 66 12 63.78125 8.203125 56.5625 
C 4.203125 49.015625 3.796875 39.671875 3.796875 31.84375 
C 3.796875 26.109375 3.90625 17.375 7 9.734375 
C 11.296875 -0.609375 19 -2 22.90625 -2 
C 27.5 -2 34.5 -0.109375 38.59375 9.4375 
C 41.59375 16.375 42 24.5 42 31.84375 
z
M 22.90625 -0.40625 
C 16.5 -0.40625 12.703125 5.125 11.296875 12.75 
C 10.203125 18.6875 10.203125 27.328125 10.203125 32.953125 
C 10.203125 40.6875 10.203125 47.109375 11.5 53.234375 
C 13.40625 61.78125 19 64.390625 22.90625 64.390625 
C 27 64.390625 32.296875 61.671875 34.203125 53.4375 
C 35.5 47.71875 35.59375 40.984375 35.59375 32.953125 
C 35.59375 26.421875 35.59375 18.375 34.40625 12.453125 
C 32.296875 1.5 26.40625 -0.40625 22.90625 -0.40625 
z
" id="CMR17-48"/>
       </defs>
       <use transform="scale(0.996264)" xlink:href="#CMR17-53"/>
       <use transform="translate(45.690477 0)scale(0.996264)" xlink:href="#CMMI12-58"/>
       <use transform="translate(72.787654 0)scale(0.996264)" xlink:href="#CMR17-48"/>
      </g>
     </g>
    </g>
    <g id="xtick_4">
     <g id="line2d_4">
      <g>
       <use style="stroke:#000000;stroke-width:0.5;" x="170.052711" xlink:href="#me95f5135dd" y="120.796701"/>
      </g>
     </g>
     <g id="text_4">
      <!-- $\mathdefault{5.2}$ -->
      <g transform="translate(164.165106 131.023351)scale(0.09 -0.09)">
       <defs>
        <path d="M 41.703125 15.46875 
L 39.90625 15.46875 
C 38.90625 8.390625 38.09375 7.1875 37.703125 6.59375 
C 37.203125 5.796875 30 5.796875 28.59375 5.796875 
L 9.40625 5.796875 
C 13 9.6875 20 16.765625 28.5 24.9375 
C 34.59375 30.71875 41.703125 37.5 41.703125 47.390625 
C 41.703125 59.1875 32.296875 66 21.796875 66 
C 10.796875 66 4.09375 56.296875 4.09375 47.296875 
C 4.09375 43.390625 7 42.890625 8.203125 42.890625 
C 9.203125 42.890625 12.203125 43.484375 12.203125 46.984375 
C 12.203125 50.09375 9.59375 51 8.203125 51 
C 7.59375 51 7 50.890625 6.59375 50.6875 
C 8.5 59.1875 14.296875 63.390625 20.40625 63.390625 
C 29.09375 63.390625 34.796875 56.5 34.796875 47.390625 
C 34.796875 38.703125 29.703125 31.21875 24 24.734375 
L 4.09375 2.296875 
L 4.09375 0 
L 39.296875 0 
z
" id="CMR17-50"/>
       </defs>
       <use transform="scale(0.996264)" xlink:href="#CMR17-53"/>
       <use transform="translate(45.690477 0)scale(0.996264)" xlink:href="#CMMI12-58"/>
       <use transform="translate(72.787654 0)scale(0.996264)" xlink:href="#CMR17-50"/>
      </g>
     </g>
    </g>
    <g id="xtick_5">
     <g id="line2d_5">
      <g>
       <use style="stroke:#000000;stroke-width:0.5;" x="208.040235" xlink:href="#me95f5135dd" y="120.796701"/>
      </g>
     </g>
     <g id="text_5">
      <!-- $\mathdefault{5.4}$ -->
      <g transform="translate(202.15263 131.023351)scale(0.09 -0.09)">
       <use transform="scale(0.996264)" xlink:href="#CMR17-53"/>
       <use transform="translate(45.690477 0)scale(0.996264)" xlink:href="#CMMI12-58"/>
       <use transform="translate(72.787654 0)scale(0.996264)" xlink:href="#CMR17-52"/>
      </g>
     </g>
    </g>
    <g id="text_6">
     <!-- $\alabel{L_z}{\angstrom}$ -->
     <g transform="translate(117.182916 142.800089)scale(0.09 -0.09)">
      <defs>
       <path d="M 36.703125 60.3125 
C 37.59375 64.09375 37.90625 65.09375 46.703125 65.09375 
C 49.40625 65.09375 50.09375 65.09375 50.09375 66.984375 
C 50.09375 68 49 68 48.59375 68 
C 46.59375 68 44.296875 67.796875 42.296875 67.796875 
L 28.90625 67.796875 
C 27 67.796875 24.796875 68 22.90625 68 
C 22.09375 68 21 68 21 66.09375 
C 21 65.09375 21.90625 65.09375 23.40625 65.09375 
C 29.5 65.09375 29.5 64.296875 29.5 63.203125 
C 29.5 63 29.5 62.40625 29.09375 60.90625 
L 15.59375 7.375 
C 14.703125 3.890625 14.5 2.890625 7.5 2.890625 
C 5.59375 2.890625 4.59375 2.890625 4.59375 1.09375 
C 4.59375 0 5.203125 0 7.203125 0 
L 52 0 
C 54.203125 0 54.296875 0.09375 55 1.890625 
L 62.703125 23.09375 
C 62.90625 23.59375 63.09375 24.1875 63.09375 24.484375 
C 63.09375 25.078125 62.59375 25.484375 62.09375 25.484375 
C 62 25.484375 61.5 25.484375 61.296875 25.078125 
C 61.09375 24.984375 61.09375 24.78125 60.296875 22.890625 
C 57.09375 14.140625 52.59375 2.890625 35.703125 2.890625 
L 26.09375 2.890625 
C 24.703125 2.890625 24.5 2.890625 23.90625 2.984375 
C 22.796875 3.09375 22.703125 3.296875 22.703125 4.09375 
C 22.703125 4.78125 22.90625 5.375 23.09375 6.28125 
z
" id="CMMI12-76"/>
       <path d="M 12.703125 7.59375 
C 17 12.640625 20.5 15.859375 25.5 20.515625 
C 31.5 25.890625 34.09375 28.46875 35.5 30.03125 
C 42.5 37.046875 46 42.390625 46 43.1875 
C 46 44 45.203125 44 45 44 
C 44.296875 44 44.09375 43.59375 43.59375 42.890625 
C 41.09375 38.59375 38.703125 37 36.09375 37 
C 34 37 32.90625 37.546875 31 39.796875 
C 28.90625 42.296875 27.203125 44 24.296875 44 
C 17 44 12.59375 35.390625 12.59375 33.234375 
C 12.59375 32.921875 12.703125 32.296875 13.59375 32.296875 
C 14.40625 32.296875 14.5 32.71875 14.796875 33.4375 
C 16.5 37.296875 21.296875 37.734375 23.203125 37.734375 
C 25.296875 37.734375 27.296875 37.296875 29.40625 36.59375 
C 33.203125 34.984375 34.796875 34.984375 35.796875 34.984375 
C 36.5 34.984375 36.90625 34.984375 37.40625 35.09375 
C 34.09375 31.0625 28.703125 26.09375 24.203125 21.859375 
L 14.09375 12.234375 
C 8 5.9375 4.296875 0.5 4.296875 -0.203125 
C 4.296875 -0.8125 4.796875 -1 5.40625 -1 
C 6 -1 6.09375 -0.90625 6.796875 0.296875 
C 8.40625 2.796875 11.59375 6 15.296875 6 
C 17.40625 6 18.40625 5.5625 20.40625 3.296875 
C 22.296875 1.09375 24 -1 27.203125 -1 
C 37 -1 42.59375 11.296875 42.59375 13.6875 
C 42.59375 14.09375 42.5 14.71875 41.5 14.71875 
C 40.703125 14.71875 40.59375 14.296875 40.296875 13.265625 
C 38.09375 7.1875 32.203125 5.25 28.296875 5.25 
C 26.203125 5.25 24.203125 5.6875 22.09375 6.390625 
C 18.09375 8 17 8 15.703125 8 
C 14.703125 8 13.59375 8 12.703125 7.59375 
z
" id="CMMI12-122"/>
       <path d="M 30.59375 -24.40625 
C 30.59375 -24.3125 30.59375 -24.109375 30.296875 -23.8125 
C 25.703125 -19.109375 13.40625 -6.296875 13.40625 24.9375 
C 13.40625 56.171875 25.5 68.875 30.40625 73.890625 
C 30.40625 73.984375 30.59375 74.1875 30.59375 74.484375 
C 30.59375 74.796875 30.296875 75 29.90625 75 
C 28.796875 75 20.296875 67.578125 15.40625 56.5625 
C 10.40625 45.453125 9 34.65625 9 25.046875 
C 9 17.828125 9.703125 5.625 15.703125 -7.296875 
C 20.5 -17.703125 28.703125 -25 29.90625 -25 
C 30.40625 -25 30.59375 -24.8125 30.59375 -24.40625 
z
" id="CMR17-40"/>
       <path d="M 32.59375 64 
C 29 63.328125 25.40625 60.875 25.40625 56.453125 
L 25.40625 55.78125 
C 25.90625 51.921875 29.5 49 33.59375 49 
C 37.703125 49 41.703125 52.484375 41.703125 56.546875 
L 41.703125 57.296875 
C 41.203125 61.890625 37.59375 65 33.5 65 
C 33.203125 64.09375 32.90625 64 32.59375 64 
z
M 26.703125 55.78125 
L 26.703125 56.453125 
C 26.703125 61 30 63.390625 33.703125 63.390625 
C 37.40625 63.390625 39.90625 60.890625 40.40625 57.5 
L 40.40625 56.796875 
C 40.40625 52.390625 37.09375 50 33.40625 50 
C 29.703125 50 27.203125 52.5 26.703125 55.890625 
z
" id="Computer_Modern_Roman-6"/>
       <path d="M 36.296875 69.390625 
C 35.796875 70.6875 35.59375 71 34.59375 71 
C 33.59375 71 33.40625 70.6875 32.90625 69.390625 
L 11.703125 9.0625 
C 9.796875 3.6875 5.796875 2.59375 2.296875 2.59375 
L 2.296875 0 
C 4.09375 0.1875 8.09375 0.1875 10 0.1875 
C 12.5 0.1875 16.5 0.1875 18.90625 0 
L 18.90625 2.59375 
C 14.203125 2.796875 13.5 5.96875 13.5 7.171875 
C 13.5 8.0625 13.703125 8.5625 13.90625 9.15625 
L 19.203125 24 
L 45.40625 24 
L 51.40625 7.078125 
C 51.90625 5.875 51.90625 5.671875 51.90625 5.28125 
C 51.90625 2.59375 47.59375 2.59375 45.703125 2.59375 
L 45.703125 0 
C 48.59375 0.1875 53.796875 0.1875 56.90625 0.1875 
C 59.5 0.1875 64.5 0.1875 66.90625 0 
L 66.90625 2.59375 
C 61.59375 2.59375 59.796875 2.59375 58.5 6.28125 
z
M 32.296875 61.3125 
L 44.5 26.59375 
L 20.09375 26.59375 
z
" id="CMR17-65"/>
       <path d="M 26.296875 24.9375 
C 26.296875 32.140625 25.59375 44.359375 19.59375 57.265625 
C 14.796875 67.6875 6.59375 75 5.40625 75 
C 5.09375 75 4.703125 74.890625 4.703125 74.390625 
C 4.703125 74.1875 4.796875 74.09375 4.90625 73.890625 
C 9.703125 68.875 21.90625 56.171875 21.90625 25.046875 
C 21.90625 -6.1875 9.796875 -18.90625 4.90625 -23.90625 
C 4.796875 -24.109375 4.703125 -24.203125 4.703125 -24.40625 
C 4.703125 -24.90625 5.09375 -25 5.40625 -25 
C 6.5 -25 15 -17.609375 19.90625 -6.59375 
C 24.90625 4.515625 26.296875 15.328125 26.296875 24.9375 
z
" id="CMR17-41"/>
      </defs>
      <use transform="scale(0.996264)" xlink:href="#CMMI12-76"/>
      <use transform="translate(66.370875 -14.943915)scale(0.697382)" xlink:href="#CMMI12-122"/>
      <use transform="translate(157.045448 0)scale(0.996264)" xlink:href="#CMR17-40"/>
      <use transform="translate(214.887866 52.703059)scale(0.356961)" xlink:href="#Computer_Modern_Roman-6"/>
      <use transform="translate(192.326216 0)scale(0.996264)" xlink:href="#CMR17-65"/>
      <use transform="translate(261.398646 0)scale(0.996264)" xlink:href="#CMR17-41"/>
     </g>
    </g>
   </g>
   <g id="matplotlib.axis_2">
    <g id="ytick_1">
     <g id="line2d_6">
      <defs>
       <path d="M 0 0 
L -2 0 
" id="m71e6b0a3b9" style="stroke:#000000;stroke-width:0.5;"/>
      </defs>
      <g>
       <use style="stroke:#000000;stroke-width:0.5;" x="27.599496" xlink:href="#m71e6b0a3b9" y="98.87512"/>
      </g>
     </g>
     <g id="text_7">
      <!-- $\mathdefault{5}$ -->
      <g transform="translate(18.991805 101.988445)scale(0.09 -0.09)">
       <use transform="scale(0.996264)" xlink:href="#CMR17-53"/>
      </g>
     </g>
    </g>
    <g id="ytick_2">
     <g id="line2d_7">
      <g>
       <use style="stroke:#000000;stroke-width:0.5;" x="27.599496" xlink:href="#m71e6b0a3b9" y="75.204273"/>
      </g>
     </g>
     <g id="text_8">
      <!-- $\mathdefault{10}$ -->
      <g transform="translate(14.384115 78.317598)scale(0.09 -0.09)">
       <defs>
        <path d="M 26.59375 63.796875 
C 26.59375 65.890625 26.5 66 25.09375 66 
C 21.203125 61.359375 15.296875 59.890625 9.703125 59.6875 
C 9.40625 59.6875 8.90625 59.6875 8.796875 59.5 
C 8.703125 59.296875 8.703125 59.09375 8.703125 57 
C 11.796875 57 17 57.59375 21 59.984375 
L 21 7.296875 
C 21 3.796875 20.796875 2.59375 12.203125 2.59375 
L 9.203125 2.59375 
L 9.203125 0 
C 14 0.09375 19 0.1875 23.796875 0.1875 
C 28.59375 0.1875 33.59375 0.09375 38.40625 0 
L 38.40625 2.59375 
L 35.40625 2.59375 
C 26.796875 2.59375 26.59375 3.6875 26.59375 7.296875 
z
" id="CMR17-49"/>
       </defs>
       <use transform="scale(0.996264)" xlink:href="#CMR17-49"/>
       <use transform="translate(45.690477 0)scale(0.996264)" xlink:href="#CMR17-48"/>
      </g>
     </g>
    </g>
    <g id="ytick_3">
     <g id="line2d_8">
      <g>
       <use style="stroke:#000000;stroke-width:0.5;" x="27.599496" xlink:href="#m71e6b0a3b9" y="51.533426"/>
      </g>
     </g>
     <g id="text_9">
      <!-- $\mathdefault{15}$ -->
      <g transform="translate(14.384115 54.646751)scale(0.09 -0.09)">
       <use transform="scale(0.996264)" xlink:href="#CMR17-49"/>
       <use transform="translate(45.690477 0)scale(0.996264)" xlink:href="#CMR17-53"/>
      </g>
     </g>
    </g>
    <g id="ytick_4">
     <g id="line2d_9">
      <g>
       <use style="stroke:#000000;stroke-width:0.5;" x="27.599496" xlink:href="#m71e6b0a3b9" y="27.86258"/>
      </g>
     </g>
     <g id="text_10">
      <!-- $\mathdefault{20}$ -->
      <g transform="translate(14.384115 30.975905)scale(0.09 -0.09)">
       <use transform="scale(0.996264)" xlink:href="#CMR17-50"/>
       <use transform="translate(45.690477 0)scale(0.996264)" xlink:href="#CMR17-48"/>
      </g>
     </g>
    </g>
    <g id="ytick_5">
     <g id="line2d_10">
      <g>
       <use style="stroke:#000000;stroke-width:0.5;" x="27.599496" xlink:href="#m71e6b0a3b9" y="4.191733"/>
      </g>
     </g>
     <g id="text_11">
      <!-- $\mathdefault{25}$ -->
      <g transform="translate(14.384115 7.305058)scale(0.09 -0.09)">
       <use transform="scale(0.996264)" xlink:href="#CMR17-50"/>
       <use transform="translate(45.690477 0)scale(0.996264)" xlink:href="#CMR17-53"/>
      </g>
     </g>
    </g>
    <g id="text_12">
     <!-- $\alabel{\chi^2}{\angstrom^{-2}}$ -->
     <g transform="translate(10.142521 80.259007)rotate(-90)scale(0.09 -0.09)">
      <defs>
       <path d="M 33 16.171875 
C 30.296875 24.40625 30.90625 23.609375 28.40625 30.5625 
C 25.296875 39.109375 24.5 39.796875 23.09375 41.1875 
C 21.296875 42.796875 17.90625 44 14.40625 44 
C 8.796875 44 6.09375 38.8125 6.09375 37.515625 
C 6.09375 36.921875 6.59375 36.625 7.203125 36.625 
C 8 36.625 8.203125 37.125 8.296875 37.515625 
C 9.796875 41.390625 12.90625 41.984375 13.796875 41.984375 
C 16.703125 41.984375 19.5 34.84375 21.296875 30.078125 
C 23.703125 24.015625 24.90625 19.84375 27.59375 10.203125 
L 4 -16.40625 
C 3.09375 -17.5 3.09375 -17.90625 3.09375 -18 
C 3.09375 -18.8125 3.59375 -19 4 -19 
C 4.40625 -19 4.703125 -18.8125 5 -18.5 
C 7.796875 -15.71875 14 -8.359375 16.59375 -5.390625 
L 28.203125 7.71875 
C 33.09375 -7.484375 33.09375 -7.671875 34.59375 -11.359375 
C 36.203125 -15.125 38.296875 -20 46.796875 -20 
C 52.5 -20 55.09375 -14.921875 55.09375 -13.53125 
C 55.09375 -12.84375 54.5 -12.640625 54 -12.640625 
C 53.203125 -12.640625 53.09375 -13.046875 52.796875 -13.84375 
C 51.703125 -16.625 49.09375 -18 47.5 -18 
C 46.203125 -18 44.59375 -18 40.203125 -6.984375 
C 37.59375 -0.328125 35.296875 7.609375 33.59375 13.78125 
L 57.296875 40.59375 
C 58.09375 41.484375 58.203125 41.59375 58.203125 41.984375 
C 58.203125 42.6875 57.703125 43 57.203125 43 
C 56.90625 43 56.59375 43 55.59375 41.890625 
z
" id="CMMI12-31"/>
       <path d="M 65.90625 23 
C 67.59375 23 69.40625 23 69.40625 25 
C 69.40625 27 67.59375 27 65.90625 27 
L 11.796875 27 
C 10.09375 27 8.296875 27 8.296875 25 
C 8.296875 23 10.09375 23 11.796875 23 
z
" id="CMSY10-0"/>
      </defs>
      <use transform="scale(0.996264)" xlink:href="#CMMI12-31"/>
      <use transform="translate(61.112959 36.153639)scale(0.697382)" xlink:href="#CMR17-50"/>
      <use transform="translate(148.94229 0)scale(0.996264)" xlink:href="#CMR17-40"/>
      <use transform="translate(206.784707 52.703059)scale(0.356961)" xlink:href="#Computer_Modern_Roman-6"/>
      <use transform="translate(184.223058 0)scale(0.996264)" xlink:href="#CMR17-65"/>
      <use transform="translate(253.295488 48.338187)scale(0.697382)" xlink:href="#CMSY10-0"/>
      <use transform="translate(307.536481 48.338187)scale(0.697382)" xlink:href="#CMR17-50"/>
      <use transform="translate(340.017795 0)scale(0.996264)" xlink:href="#CMR17-41"/>
     </g>
    </g>
   </g>
   <g id="line2d_11">
    <path clip-path="url(#p04d07735d2)" d="M 37.096377 6.178032 
L 46.593258 28.569083 
L 56.090139 47.24209 
L 65.58702 63.559631 
L 75.083901 77.190468 
L 84.580782 87.698028 
L 94.077663 96.146008 
L 103.574544 102.972766 
L 113.071425 108.100873 
L 122.568306 111.649947 
L 132.065187 113.713684 
L 141.562068 114.546837 
L 151.058949 113.963404 
L 160.55583 112.167918 
L 170.052711 109.13447 
L 179.549592 104.587721 
L 189.046473 97.719594 
L 198.543354 92.048994 
L 208.040235 85.564229 
L 217.537116 78.732565 
L 227.033997 70.226278 
" style="fill:none;stroke:#aea6d0;stroke-dasharray:2.775,1.2;stroke-dashoffset:0;stroke-width:0.75;"/>
    <defs>
     <path d="M 0 2.5 
C 0.663008 2.5 1.29895 2.236584 1.767767 1.767767 
C 2.236584 1.29895 2.5 0.663008 2.5 0 
C 2.5 -0.663008 2.236584 -1.29895 1.767767 -1.767767 
C 1.29895 -2.236584 0.663008 -2.5 0 -2.5 
C -0.663008 -2.5 -1.29895 -2.236584 -1.767767 -1.767767 
C -2.236584 -1.29895 -2.5 -0.663008 -2.5 0 
C -2.5 0.663008 -2.236584 1.29895 -1.767767 1.767767 
C -1.29895 2.236584 -0.663008 2.5 0 2.5 
z
" id="mbcd4c4421f" style="stroke:#5e4fa2;stroke-width:0.75;"/>
    </defs>
    <g clip-path="url(#p04d07735d2)">
     <use style="fill-opacity:0;stroke:#5e4fa2;stroke-width:0.75;" x="37.096377" xlink:href="#mbcd4c4421f" y="6.178032"/>
     <use style="fill-opacity:0;stroke:#5e4fa2;stroke-width:0.75;" x="46.593258" xlink:href="#mbcd4c4421f" y="28.569083"/>
     <use style="fill-opacity:0;stroke:#5e4fa2;stroke-width:0.75;" x="56.090139" xlink:href="#mbcd4c4421f" y="47.24209"/>
     <use style="fill-opacity:0;stroke:#5e4fa2;stroke-width:0.75;" x="65.58702" xlink:href="#mbcd4c4421f" y="63.559631"/>
     <use style="fill-opacity:0;stroke:#5e4fa2;stroke-width:0.75;" x="75.083901" xlink:href="#mbcd4c4421f" y="77.190468"/>
     <use style="fill-opacity:0;stroke:#5e4fa2;stroke-width:0.75;" x="84.580782" xlink:href="#mbcd4c4421f" y="87.698028"/>
     <use style="fill-opacity:0;stroke:#5e4fa2;stroke-width:0.75;" x="94.077663" xlink:href="#mbcd4c4421f" y="96.146008"/>
     <use style="fill-opacity:0;stroke:#5e4fa2;stroke-width:0.75;" x="103.574544" xlink:href="#mbcd4c4421f" y="102.972766"/>
     <use style="fill-opacity:0;stroke:#5e4fa2;stroke-width:0.75;" x="113.071425" xlink:href="#mbcd4c4421f" y="108.100873"/>
     <use style="fill-opacity:0;stroke:#5e4fa2;stroke-width:0.75;" x="122.568306" xlink:href="#mbcd4c4421f" y="111.649947"/>
     <use style="fill-opacity:0;stroke:#5e4fa2;stroke-width:0.75;" x="132.065187" xlink:href="#mbcd4c4421f" y="113.713684"/>
     <use style="fill-opacity:0;stroke:#5e4fa2;stroke-width:0.75;" x="141.562068" xlink:href="#mbcd4c4421f" y="114.546837"/>
     <use style="fill-opacity:0;stroke:#5e4fa2;stroke-width:0.75;" x="151.058949" xlink:href="#mbcd4c4421f" y="113.963404"/>
     <use style="fill-opacity:0;stroke:#5e4fa2;stroke-width:0.75;" x="160.55583" xlink:href="#mbcd4c4421f" y="112.167918"/>
     <use style="fill-opacity:0;stroke:#5e4fa2;stroke-width:0.75;" x="170.052711" xlink:href="#mbcd4c4421f" y="109.13447"/>
     <use style="fill-opacity:0;stroke:#5e4fa2;stroke-width:0.75;" x="179.549592" xlink:href="#mbcd4c4421f" y="104.587721"/>
     <use style="fill-opacity:0;stroke:#5e4fa2;stroke-width:0.75;" x="189.046473" xlink:href="#mbcd4c4421f" y="97.719594"/>
     <use style="fill-opacity:0;stroke:#5e4fa2;stroke-width:0.75;" x="198.543354" xlink:href="#mbcd4c4421f" y="92.048994"/>
     <use style="fill-opacity:0;stroke:#5e4fa2;stroke-width:0.75;" x="208.040235" xlink:href="#mbcd4c4421f" y="85.564229"/>
     <use style="fill-opacity:0;stroke:#5e4fa2;stroke-width:0.75;" x="217.537116" xlink:href="#mbcd4c4421f" y="78.732565"/>
     <use style="fill-opacity:0;stroke:#5e4fa2;stroke-width:0.75;" x="227.033997" xlink:href="#mbcd4c4421f" y="70.226278"/>
    </g>
   </g>
   <g id="line2d_12">
    <path clip-path="url(#p04d07735d2)" d="M 37.096377 12.25551 
L 46.593258 33.615766 
L 56.090139 51.683243 
L 65.58702 67.702903 
L 75.083901 80.548652 
L 84.580782 91.033896 
L 94.077663 99.070284 
L 103.574544 105.355053 
L 113.071425 110.245597 
L 122.568306 113.314333 
L 132.065187 115.033954 
L 141.562068 115.338669 
L 151.058949 114.554839 
L 160.55583 112.670033 
L 170.052711 109.115528 
L 179.549592 101.766974 
L 189.046473 95.188254 
L 198.543354 90.603108 
L 208.040235 87.400082 
L 217.537116 79.854331 
L 227.033997 58.477028 
" style="fill:none;stroke:#a3b4d6;stroke-dasharray:2.775,1.2;stroke-dashoffset:0;stroke-width:0.75;"/>
    <defs>
     <path d="M 0 2.5 
C 0.663008 2.5 1.29895 2.236584 1.767767 1.767767 
C 2.236584 1.29895 2.5 0.663008 2.5 0 
C 2.5 -0.663008 2.236584 -1.29895 1.767767 -1.767767 
C 1.29895 -2.236584 0.663008 -2.5 0 -2.5 
C -0.663008 -2.5 -1.29895 -2.236584 -1.767767 -1.767767 
C -2.236584 -1.29895 -2.5 -0.663008 -2.5 0 
C -2.5 0.663008 -2.236584 1.29895 -1.767767 1.767767 
C -1.29895 2.236584 -0.663008 2.5 0 2.5 
z
" id="mf03860d885" style="stroke:#496aaf;stroke-width:0.75;"/>
    </defs>
    <g clip-path="url(#p04d07735d2)">
     <use style="fill-opacity:0;stroke:#496aaf;stroke-width:0.75;" x="37.096377" xlink:href="#mf03860d885" y="12.25551"/>
     <use style="fill-opacity:0;stroke:#496aaf;stroke-width:0.75;" x="46.593258" xlink:href="#mf03860d885" y="33.615766"/>
     <use style="fill-opacity:0;stroke:#496aaf;stroke-width:0.75;" x="56.090139" xlink:href="#mf03860d885" y="51.683243"/>
     <use style="fill-opacity:0;stroke:#496aaf;stroke-width:0.75;" x="65.58702" xlink:href="#mf03860d885" y="67.702903"/>
     <use style="fill-opacity:0;stroke:#496aaf;stroke-width:0.75;" x="75.083901" xlink:href="#mf03860d885" y="80.548652"/>
     <use style="fill-opacity:0;stroke:#496aaf;stroke-width:0.75;" x="84.580782" xlink:href="#mf03860d885" y="91.033896"/>
     <use style="fill-opacity:0;stroke:#496aaf;stroke-width:0.75;" x="94.077663" xlink:href="#mf03860d885" y="99.070284"/>
     <use style="fill-opacity:0;stroke:#496aaf;stroke-width:0.75;" x="103.574544" xlink:href="#mf03860d885" y="105.355053"/>
     <use style="fill-opacity:0;stroke:#496aaf;stroke-width:0.75;" x="113.071425" xlink:href="#mf03860d885" y="110.245597"/>
     <use style="fill-opacity:0;stroke:#496aaf;stroke-width:0.75;" x="122.568306" xlink:href="#mf03860d885" y="113.314333"/>
     <use style="fill-opacity:0;stroke:#496aaf;stroke-width:0.75;" x="132.065187" xlink:href="#mf03860d885" y="115.033954"/>
     <use style="fill-opacity:0;stroke:#496aaf;stroke-width:0.75;" x="141.562068" xlink:href="#mf03860d885" y="115.338669"/>
     <use style="fill-opacity:0;stroke:#496aaf;stroke-width:0.75;" x="151.058949" xlink:href="#mf03860d885" y="114.554839"/>
     <use style="fill-opacity:0;stroke:#496aaf;stroke-width:0.75;" x="160.55583" xlink:href="#mf03860d885" y="112.670033"/>
     <use style="fill-opacity:0;stroke:#496aaf;stroke-width:0.75;" x="170.052711" xlink:href="#mf03860d885" y="109.115528"/>
     <use style="fill-opacity:0;stroke:#496aaf;stroke-width:0.75;" x="179.549592" xlink:href="#mf03860d885" y="101.766974"/>
     <use style="fill-opacity:0;stroke:#496aaf;stroke-width:0.75;" x="189.046473" xlink:href="#mf03860d885" y="95.188254"/>
     <use style="fill-opacity:0;stroke:#496aaf;stroke-width:0.75;" x="198.543354" xlink:href="#mf03860d885" y="90.603108"/>
     <use style="fill-opacity:0;stroke:#496aaf;stroke-width:0.75;" x="208.040235" xlink:href="#mf03860d885" y="87.400082"/>
     <use style="fill-opacity:0;stroke:#496aaf;stroke-width:0.75;" x="217.537116" xlink:href="#mf03860d885" y="79.854331"/>
     <use style="fill-opacity:0;stroke:#496aaf;stroke-width:0.75;" x="227.033997" xlink:href="#mf03860d885" y="58.477028"/>
    </g>
   </g>
   <g id="patch_5">
    <path d="M 27.599496 120.796701 
L 27.599496 0.72 
" style="fill:none;stroke:#000000;stroke-linecap:square;stroke-linejoin:miter;stroke-width:0.5;"/>
   </g>
   <g id="patch_6">
    <path d="M 236.530878 120.796701 
L 236.530878 0.72 
" style="fill:none;stroke:#000000;stroke-linecap:square;stroke-linejoin:miter;stroke-width:0.5;"/>
   </g>
   <g id="patch_7">
    <path d="M 27.599496 120.796701 
L 236.530878 120.796701 
" style="fill:none;stroke:#000000;stroke-linecap:square;stroke-linejoin:miter;stroke-width:0.5;"/>
   </g>
   <g id="patch_8">
    <path d="M 27.599496 0.72 
L 236.530878 0.72 
" style="fill:none;stroke:#000000;stroke-linecap:square;stroke-linejoin:miter;stroke-width:0.5;"/>
   </g>
   <g id="legend_1">
    <g id="line2d_13">
     <path d="M 35.699496 97.506676 
L 36.374496 97.506676 
" style="fill:none;stroke:#aea6d0;stroke-dasharray:2.775,1.2;stroke-dashoffset:0;stroke-width:0.75;"/>
    </g>
    <g id="line2d_14">
     <g>
      <use style="fill-opacity:0;stroke:#5e4fa2;stroke-width:0.75;" x="36.036996" xlink:href="#mbcd4c4421f" y="97.506676"/>
     </g>
    </g>
    <g id="text_13">
     <!-- $N_{\graphene} = 24$ -->
     <g transform="translate(40.874496 100.656676)scale(0.09 -0.09)">
      <defs>
       <path d="M 74 57.53125 
C 75.09375 61.8125 76.703125 64.796875 84.296875 65.09375 
C 84.59375 65.09375 85.796875 65.1875 85.796875 66.890625 
C 85.796875 68 84.90625 68 84.5 68 
C 82.5 68 77.40625 67.796875 75.40625 67.796875 
L 70.59375 67.796875 
C 69.203125 67.796875 67.40625 68 66 68 
C 65.40625 68 64.203125 68 64.203125 66.09375 
C 64.203125 65.09375 65 65.09375 65.703125 65.09375 
C 71.703125 64.890625 72.09375 62.609375 72.09375 60.8125 
C 72.09375 59.921875 72 59.625 71.703125 58.21875 
L 60.40625 13.34375 
L 39 66.296875 
C 38.296875 67.890625 38.203125 68 36 68 
L 23.796875 68 
C 21.796875 68 20.90625 68 20.90625 66.09375 
C 20.90625 65.09375 21.59375 65.09375 23.5 65.09375 
C 24 65.09375 29.90625 65.09375 29.90625 64.203125 
C 29.90625 64 29.703125 63.203125 29.59375 62.90625 
L 16.296875 10.15625 
C 15.09375 5.28125 12.703125 3.1875 6.09375 2.890625 
C 5.59375 2.890625 4.59375 2.796875 4.59375 1 
C 4.59375 0 5.59375 0 5.90625 0 
C 7.90625 0 13 0.1875 15 0.1875 
L 19.796875 0.1875 
C 21.203125 0.1875 22.90625 0 24.296875 0 
C 25 0 26.09375 0 26.09375 1.890625 
C 26.09375 2.796875 25.09375 2.890625 24.703125 2.890625 
C 21.40625 2.984375 18.203125 3.59375 18.203125 7.171875 
C 18.203125 7.96875 18.40625 8.859375 18.59375 9.65625 
L 32.09375 62.90625 
C 32.703125 61.90625 32.703125 61.703125 33.09375 60.8125 
L 56.90625 1.796875 
C 57.40625 0.59375 57.59375 0 58.5 0 
C 59.5 0 59.59375 0.296875 60 2 
z
" id="CMMI12-78"/>
       <path d="M 63.203125 41.328125 
L 63.203125 35 
L 78.90625 35 
L 62.59375 7 
L 29.703125 7 
L 13.203125 35.09375 
L 29.703125 64 
L 62.59375 64 
L 70.5 50 
L 77.203125 50 
L 66.40625 71 
L 25.90625 71 
L 5.5 35.09375 
L 25.90625 0 
L 66.40625 0 
L 86.796875 35 
L 78.703125 41.328125 
z
" id="SVRsymbols-115"/>
       <path d="M 64.296875 32 
C 65.796875 32 67.296875 32 67.296875 33.6875 
C 67.296875 35.5 65.59375 35.5 63.90625 35.5 
L 8 35.5 
C 6.296875 35.5 4.59375 35.5 4.59375 33.6875 
C 4.59375 32 6.09375 32 7.59375 32 
z
M 63.90625 14.484375 
C 65.59375 14.484375 67.296875 14.484375 67.296875 16.296875 
C 67.296875 18 65.796875 18 64.296875 18 
L 7.59375 18 
C 6.09375 18 4.59375 18 4.59375 16.296875 
C 4.59375 14.484375 6.296875 14.484375 8 14.484375 
z
" id="CMR17-61"/>
      </defs>
      <use transform="scale(0.996264)" xlink:href="#CMMI12-78"/>
      <use transform="translate(78.115119 -15.337838)scale(0.697382)" xlink:href="#SVRsymbols-115"/>
      <use transform="translate(170.655619 0)scale(0.996264)" xlink:href="#CMR17-61"/>
      <use transform="translate(270.044417 0)scale(0.996264)" xlink:href="#CMR17-50"/>
      <use transform="translate(315.734894 0)scale(0.996264)" xlink:href="#CMR17-52"/>
     </g>
    </g>
    <g id="line2d_15">
     <path d="M 35.699496 107.803239 
L 36.374496 107.803239 
" style="fill:none;stroke:#a3b4d6;stroke-dasharray:2.775,1.2;stroke-dashoffset:0;stroke-width:0.75;"/>
    </g>
    <g id="line2d_16">
     <g>
      <use style="fill-opacity:0;stroke:#496aaf;stroke-width:0.75;" x="36.036996" xlink:href="#mf03860d885" y="107.803239"/>
     </g>
    </g>
    <g id="text_14">
     <!-- $N_{\graphene} = 48$ -->
     <g transform="translate(40.874496 110.953239)scale(0.09 -0.09)">
      <use transform="scale(0.996264)" xlink:href="#CMMI12-78"/>
      <use transform="translate(78.115119 -15.337838)scale(0.697382)" xlink:href="#SVRsymbols-115"/>
      <use transform="translate(170.655619 0)scale(0.996264)" xlink:href="#CMR17-61"/>
      <use transform="translate(270.044417 0)scale(0.996264)" xlink:href="#CMR17-52"/>
      <use transform="translate(315.734894 0)scale(0.996264)" xlink:href="#CMR17-56"/>
     </g>
    </g>
   </g>
  </g>
  <g id="axes_2">
   <g id="patch_9">
    <path d="M 115.029304 77.746327 
L 190.244602 77.746327 
L 190.244602 2.818466 
L 115.029304 2.818466 
z
" style="fill:none;"/>
   </g>
   <g id="matplotlib.axis_3">
    <g id="xtick_6">
     <g id="line2d_17">
      <g>
       <use style="stroke:#000000;stroke-width:0.5;" x="128.704813" xlink:href="#me95f5135dd" y="77.746327"/>
      </g>
     </g>
     <g id="text_15">
      <!-- $\mathdefault{2}$ -->
      <g transform="translate(126.400967 87.972977)scale(0.09 -0.09)">
       <use transform="scale(0.996264)" xlink:href="#CMR17-50"/>
      </g>
     </g>
    </g>
    <g id="xtick_7">
     <g id="line2d_18">
      <g>
       <use style="stroke:#000000;stroke-width:0.5;" x="183.406847" xlink:href="#me95f5135dd" y="77.746327"/>
      </g>
     </g>
     <g id="text_16">
      <!-- $\mathdefault{4}$ -->
      <g transform="translate(181.103002 87.972977)scale(0.09 -0.09)">
       <use transform="scale(0.996264)" xlink:href="#CMR17-52"/>
      </g>
     </g>
    </g>
    <g id="text_17">
     <!-- $\alabel{z}{\angstrom}$ -->
     <g transform="translate(140.061658 92.749715)scale(0.09 -0.09)">
      <use transform="scale(0.996264)" xlink:href="#CMMI12-122"/>
      <use transform="translate(105.103162 0.003177)scale(0.996264)" xlink:href="#CMR17-40"/>
      <use transform="translate(162.945579 52.703059)scale(0.356961)" xlink:href="#Computer_Modern_Roman-6"/>
      <use transform="translate(140.38393 0)scale(0.996264)" xlink:href="#CMR17-65"/>
      <use transform="translate(209.45636 0.003177)scale(0.996264)" xlink:href="#CMR17-41"/>
     </g>
    </g>
   </g>
   <g id="matplotlib.axis_4">
    <g id="ytick_6">
     <g id="line2d_19">
      <g>
       <use style="stroke:#000000;stroke-width:0.5;" x="115.029304" xlink:href="#m71e6b0a3b9" y="77.746327"/>
      </g>
     </g>
     <g id="text_18">
      <!-- $\mathdefault{0.0}$ -->
      <g transform="translate(99.254095 80.859652)scale(0.09 -0.09)">
       <use transform="scale(0.996264)" xlink:href="#CMR17-48"/>
       <use transform="translate(45.690477 0)scale(0.996264)" xlink:href="#CMMI12-58"/>
       <use transform="translate(72.787654 0)scale(0.996264)" xlink:href="#CMR17-48"/>
      </g>
     </g>
    </g>
    <g id="ytick_7">
     <g id="line2d_20">
      <g>
       <use style="stroke:#000000;stroke-width:0.5;" x="115.029304" xlink:href="#m71e6b0a3b9" y="52.60275"/>
      </g>
     </g>
     <g id="text_19">
      <!-- $\mathdefault{0.5}$ -->
      <g transform="translate(99.254095 55.716075)scale(0.09 -0.09)">
       <use transform="scale(0.996264)" xlink:href="#CMR17-48"/>
       <use transform="translate(45.690477 0)scale(0.996264)" xlink:href="#CMMI12-58"/>
       <use transform="translate(72.787654 0)scale(0.996264)" xlink:href="#CMR17-53"/>
      </g>
     </g>
    </g>
    <g id="ytick_8">
     <g id="line2d_21">
      <g>
       <use style="stroke:#000000;stroke-width:0.5;" x="115.029304" xlink:href="#m71e6b0a3b9" y="27.459172"/>
      </g>
     </g>
     <g id="text_20">
      <!-- $\mathdefault{1.0}$ -->
      <g transform="translate(99.254095 30.572497)scale(0.09 -0.09)">
       <use transform="scale(0.996264)" xlink:href="#CMR17-49"/>
       <use transform="translate(45.690477 0)scale(0.996264)" xlink:href="#CMMI12-58"/>
       <use transform="translate(72.787654 0)scale(0.996264)" xlink:href="#CMR17-48"/>
      </g>
     </g>
    </g>
    <g id="text_21">
     <!-- $\alabel{\rho(z)/N}{\angstrom^{-1}}$ -->
     <g transform="translate(95.012501 69.344214)rotate(-90)scale(0.09 -0.09)">
      <defs>
       <path d="M 3.09375 -16.953125 
C 3 -17.4375 2.796875 -18.03125 2.796875 -18.609375 
C 2.796875 -20.109375 4 -21.109375 5.5 -21.109375 
C 7 -21.109375 8.40625 -20.109375 9 -18.71875 
C 9.40625 -17.828125 12.203125 -6.09375 15.40625 6.078125 
C 17.40625 1.09375 21.09375 -1 25 -1 
C 36.296875 -1 49.09375 12.96875 49.09375 28.03125 
C 49.09375 38.703125 42.59375 44 35.703125 44 
C 26.90625 44 16.203125 34.90625 12.90625 21.640625 
z
M 24.90625 1 
C 18.09375 1 16.40625 8.875 16.40625 10.078125 
C 16.40625 10.671875 18.90625 20.140625 19.203125 21.640625 
C 24.296875 41.5 34.09375 41.984375 35.59375 41.984375 
C 40.09375 41.984375 42.59375 37.90625 42.59375 32.015625 
C 42.59375 26.9375 39.90625 17.046875 38.203125 12.859375 
C 35.203125 5.984375 30 1 24.90625 1 
z
" id="CMMI12-26"/>
       <path d="M 42.90625 71.296875 
C 42.90625 71.390625 43.5 72.890625 43.5 73.09375 
C 43.5 74.296875 42.5 75 41.703125 75 
C 41.203125 75 40.296875 75 39.5 72.796875 
L 6 -21.3125 
C 6 -21.40625 5.40625 -22.90625 5.40625 -23.109375 
C 5.40625 -24.3125 6.40625 -25 7.203125 -25 
C 7.796875 -25 8.703125 -24.90625 9.40625 -22.8125 
z
" id="CMMI12-61"/>
      </defs>
      <use transform="scale(0.996264)" xlink:href="#CMMI12-26"/>
      <use transform="translate(50.314373 0)scale(0.996264)" xlink:href="#CMR17-40"/>
      <use transform="translate(85.595141 0)scale(0.996264)" xlink:href="#CMMI12-122"/>
      <use transform="translate(135.350286 0)scale(0.996264)" xlink:href="#CMR17-41"/>
      <use transform="translate(170.631053 0)scale(0.996264)" xlink:href="#CMMI12-61"/>
      <use transform="translate(213.986537 0)scale(0.996264)" xlink:href="#CMMI12-78"/>
      <use transform="translate(357.856327 0)scale(0.996264)" xlink:href="#CMR17-40"/>
      <use transform="translate(415.698744 52.703059)scale(0.356961)" xlink:href="#Computer_Modern_Roman-6"/>
      <use transform="translate(393.137095 0)scale(0.996264)" xlink:href="#CMR17-65"/>
      <use transform="translate(462.209524 48.338187)scale(0.697382)" xlink:href="#CMSY10-0"/>
      <use transform="translate(516.450518 48.338187)scale(0.697382)" xlink:href="#CMR17-49"/>
      <use transform="translate(548.931832 0)scale(0.996264)" xlink:href="#CMR17-41"/>
     </g>
    </g>
   </g>
   <g id="line2d_22">
    <path clip-path="url(#p3f387c508e)" d="M 74.002778 77.746327 
L 76.710802 77.746327 
L 79.418827 77.746327 
L 82.126851 77.746327 
L 84.834875 77.746327 
L 87.542899 77.746327 
L 90.250896 77.746327 
L 92.95892 77.746327 
L 95.666945 77.746327 
L 98.374969 77.746327 
L 101.082993 77.746327 
L 103.791017 77.746327 
L 106.499042 77.746327 
L 109.207066 77.746327 
L 111.91509 77.746327 
L 114.623114 77.746327 
L 117.331111 77.746327 
L 120.039135 77.746303 
L 122.74716 77.745163 
L 125.455184 77.726156 
L 128.163208 77.539661 
L 130.871232 76.451826 
L 133.579256 72.458837 
L 136.287281 63.004107 
L 138.995305 47.312271 
L 141.703329 28.386641 
L 144.411326 12.529199 
L 147.11935 5.071176 
L 149.827374 7.341721 
L 152.535399 17.063146 
L 155.243423 30.438341 
L 157.951447 43.76555 
L 160.659471 55.002678 
L 163.367495 63.427977 
L 166.07552 69.141253 
L 168.783544 72.829868 
L 171.491541 75.029639 
L 174.199565 76.285345 
L 176.907589 76.977676 
L 179.615613 77.360583 
L 182.323638 77.554129 
L 185.031659 77.653232 
L 187.739681 77.701218 
L 190.447702 77.725367 
L 193.155724 77.736535 
L 195.863745 77.741681 
L 198.571767 77.744288 
L 201.279788 77.745187 
L 203.98781 77.745779 
L 206.695831 77.746193 
L 209.403854 77.746246 
L 212.111875 77.746318 
L 214.819898 77.746327 
L 217.52792 77.746327 
L 220.235941 77.746327 
L 222.943963 77.746327 
L 225.651984 77.746327 
L 228.360006 77.746327 
L 231.068027 77.746327 
L 233.776049 77.746327 
L 236.48407 77.746327 
L 238.250878 77.746327 
" style="fill:none;stroke:#000000;stroke-dasharray:3.7,1.6;stroke-dashoffset:0;"/>
   </g>
   <g id="line2d_23">
    <path clip-path="url(#p3f387c508e)" d="M 74.002778 77.746327 
L 75.370329 77.746327 
L 76.73788 77.746327 
L 78.105431 77.746327 
L 79.472982 77.746327 
L 80.840533 77.746327 
L 82.208083 77.746327 
L 83.575634 77.746327 
L 84.943185 77.746327 
L 86.310736 77.746327 
L 87.678287 77.746327 
L 89.045838 77.746327 
L 90.413389 77.746327 
L 91.780939 77.746327 
L 93.14849 77.746327 
L 94.516041 77.746327 
L 95.883592 77.746327 
L 97.251143 77.746327 
L 98.618694 77.746327 
L 99.986245 77.746327 
L 101.353796 77.746327 
L 102.721346 77.746327 
L 104.088897 77.746327 
L 105.456448 77.746327 
L 106.823999 77.746327 
L 108.19155 77.746327 
L 109.559101 77.746327 
L 110.926652 77.746327 
L 112.294202 77.746327 
L 113.661753 77.746327 
L 115.029304 77.746327 
L 116.396855 77.746327 
L 117.764406 77.746327 
L 119.131957 77.746327 
L 120.499508 77.746327 
L 121.867058 77.739016 
L 123.234609 77.726466 
L 124.60216 77.634906 
L 125.969711 77.443273 
L 127.337262 76.668668 
L 128.704813 75.06009 
L 130.072364 72.056612 
L 131.439915 67.903885 
L 132.807465 61.361099 
L 134.175016 54.114534 
L 135.542567 46.225192 
L 136.910118 37.71119 
L 138.277669 29.988381 
L 139.64522 23.378263 
L 141.012771 19.246488 
L 142.380321 17.382219 
L 143.747872 15.913328 
L 145.115423 16.687388 
L 146.482974 18.504076 
L 147.850525 20.976637 
L 149.218076 22.266554 
L 150.585627 24.955192 
L 151.953177 26.98152 
L 153.320728 30.842652 
L 154.688279 34.300002 
L 156.05583 37.771867 
L 157.423381 42.535613 
L 158.790932 48.499354 
L 160.158483 53.411518 
L 161.526034 60.278965 
L 162.893584 66.451691 
L 164.261135 71.938861 
L 165.628686 76.096062 
L 166.996237 77.581323 
L 168.363788 77.745673 
L 169.731339 77.746327 
L 171.09889 77.746327 
L 172.46644 77.746327 
L 173.833991 77.746327 
L 175.201542 77.746327 
L 176.569093 77.746327 
L 177.936644 77.746327 
L 179.304195 77.746327 
L 180.671746 77.746327 
L 182.039296 77.746327 
L 183.406847 77.746327 
L 184.774398 77.746327 
L 186.141949 77.746327 
L 187.5095 77.746327 
L 188.877051 77.746327 
L 190.244602 77.746327 
L 191.612153 77.746327 
L 192.979703 77.746327 
L 194.347254 77.746327 
L 195.714805 77.746327 
L 197.082356 77.746327 
L 198.449907 77.746327 
L 199.817458 77.746327 
L 201.185009 77.746327 
L 202.552559 77.746327 
L 203.92011 77.746327 
L 205.287661 77.746327 
L 206.655212 77.746327 
L 208.022763 77.746327 
L 209.390314 77.746327 
L 210.757865 77.746327 
" style="fill:none;stroke:#fff0a6;stroke-linecap:square;stroke-width:2;"/>
   </g>
   <g id="patch_10">
    <path d="M 115.029304 77.746327 
L 115.029304 2.818466 
" style="fill:none;stroke:#000000;stroke-linecap:square;stroke-linejoin:miter;stroke-width:0.5;"/>
   </g>
   <g id="patch_11">
    <path d="M 190.244602 77.746327 
L 190.244602 2.818466 
" style="fill:none;stroke:#000000;stroke-linecap:square;stroke-linejoin:miter;stroke-width:0.5;"/>
   </g>
   <g id="patch_12">
    <path d="M 115.029304 77.746327 
L 190.244602 77.746327 
" style="fill:none;stroke:#000000;stroke-linecap:square;stroke-linejoin:miter;stroke-width:0.5;"/>
   </g>
   <g id="patch_13">
    <path d="M 115.029304 2.818466 
L 190.244602 2.818466 
" style="fill:none;stroke:#000000;stroke-linecap:square;stroke-linejoin:miter;stroke-width:0.5;"/>
   </g>
   <g id="legend_2">
    <g id="patch_14">
     <path d="M 161.558483 53.394772 
L 216.609859 53.394772 
Q 218.009859 53.394772 218.009859 51.994772 
L 218.009859 17.841089 
Q 218.009859 16.441089 216.609859 16.441089 
L 161.558483 16.441089 
Q 160.158483 16.441089 160.158483 17.841089 
L 160.158483 51.994772 
Q 160.158483 53.394772 161.558483 53.394772 
z
" style="fill:#ffffff;"/>
    </g>
    <g id="line2d_24">
     <path d="M 162.958483 26.814952 
L 169.958483 26.814952 
" style="fill:none;stroke:#000000;stroke-dasharray:3.7,1.6;stroke-dashoffset:0;"/>
    </g>
    <g id="line2d_25"/>
    <g id="text_22">
     <!-- $f=1/3$ -->
     <g transform="translate(173.458483 24.471475)scale(0.07 -0.07)">
      <defs>
       <path d="M 44.59375 40.09375 
C 46.59375 40.09375 47.40625 40.09375 47.40625 41.984375 
C 47.40625 43 46.59375 43 44.796875 43 
L 36.703125 43 
C 38.59375 53.09375 40 60.09375 40.796875 63.296875 
C 41.40625 65.6875 43.5 67.984375 46.09375 67.984375 
C 48.203125 67.984375 50.296875 67.09375 51.296875 66.1875 
C 47.40625 65.796875 46.203125 62.890625 46.203125 61.1875 
C 46.203125 59.1875 47.703125 58 49.59375 58 
C 51.59375 58 54.59375 59.6875 54.59375 63.5 
C 54.59375 67.6875 50.40625 70 46 70 
C 41.703125 70 37.5 66.796875 35.5 62.890625 
C 33.703125 59.390625 32.703125 55.828125 30.40625 43 
L 23.703125 43 
C 21.796875 43 20.796875 43 20.796875 41.1875 
C 20.796875 40.09375 21.40625 40.09375 23.40625 40.09375 
L 29.796875 40.09375 
C 28 30.890625 23.90625 8.515625 21.59375 -2.0625 
C 19.90625 -10.703125 18.40625 -18 13.40625 -18 
C 13.09375 -18 10.203125 -18 8.40625 -16.109375 
C 13.5 -15.703125 13.5 -11.3125 13.5 -11.203125 
C 13.5 -9.203125 12 -8 10.09375 -8 
C 8.09375 -8 5.09375 -9.703125 5.09375 -13.515625 
C 5.09375 -17.8125 9.5 -20 13.40625 -20 
C 23.59375 -20 27.796875 -1.765625 28.90625 3.171875 
C 30.703125 10.796875 35.59375 37.125 36.09375 40.09375 
z
" id="CMMI12-102"/>
       <path d="M 22.09375 34 
C 31 34 34.90625 26.140625 34.90625 17.09375 
C 34.90625 5.03125 28.5 0.390625 22.703125 0.390625 
C 17.40625 0.390625 8.796875 3.015625 6.09375 10.796875 
C 6.59375 10.59375 7.09375 10.59375 7.59375 10.59375 
C 10 10.59375 11.796875 12.1875 11.796875 14.796875 
C 11.796875 17.6875 9.59375 19 7.59375 19 
C 5.90625 19 3.296875 18.1875 3.296875 14.484375 
C 3.296875 5.234375 12.296875 -2 22.90625 -2 
C 34 -2 42.5 6.75 42.5 16.984375 
C 42.5 26.84375 34.5 34 25 35.09375 
C 32.59375 36.671875 39.90625 43.375 39.90625 52.390625 
C 39.90625 60.25 32 66 23 66 
C 13.90625 66 5.90625 60.34375 5.90625 52.296875 
C 5.90625 48.796875 8.5 48.1875 9.796875 48.1875 
C 11.90625 48.1875 13.703125 49.484375 13.703125 52.09375 
C 13.703125 54.6875 11.90625 56 9.796875 56 
C 9.40625 56 8.90625 56 8.5 55.796875 
C 11.40625 62.484375 19.296875 63.6875 22.796875 63.6875 
C 26.296875 63.6875 32.90625 61.96875 32.90625 52.296875 
C 32.90625 49.484375 32.5 44.546875 29.09375 40.21875 
C 26.09375 36.390625 22.703125 36.1875 19.40625 35.890625 
C 18.90625 35.890625 16.59375 35.6875 16.203125 35.6875 
C 15.5 35.59375 15.09375 35.5 15.09375 34.796875 
C 15.09375 34.09375 15.203125 34 17.203125 34 
z
" id="CMR17-51"/>
      </defs>
      <use transform="scale(0.996264)" xlink:href="#CMMI12-102"/>
      <use transform="translate(86.394314 0)scale(0.996264)" xlink:href="#CMR17-61"/>
      <use transform="translate(185.783111 0)scale(0.996264)" xlink:href="#CMR17-49"/>
      <use transform="translate(231.473588 0)scale(0.996264)" xlink:href="#CMMI12-61"/>
      <use transform="translate(280.248507 0)scale(0.996264)" xlink:href="#CMR17-51"/>
     </g>
     <!-- $L_z = 10\, \mathrm{\AA}$ -->
     <g transform="translate(173.458483 33.074364)scale(0.07 -0.07)">
      <defs>
       <path d="M 43.296875 62.1875 
C 43.296875 67.1875 39.296875 71 34.59375 71 
C 29.90625 71 25.90625 67.1875 25.90625 62.1875 
C 25.90625 57.1875 29.90625 53.390625 34.59375 53.390625 
C 39.296875 53.390625 43.296875 57.1875 43.296875 62.1875 
z
M 34.59375 55 
C 30.40625 55 27.703125 57.59375 27.703125 62.1875 
C 27.703125 66.890625 30.5 69.390625 34.59375 69.390625 
C 38.796875 69.390625 41.5 66.796875 41.5 62.1875 
C 41.5 57.5 38.703125 55 34.59375 55 
z
" id="CMR17-23"/>
      </defs>
      <use transform="scale(0.996264)" xlink:href="#CMMI12-76"/>
      <use transform="translate(66.370875 -14.943915)scale(0.697382)" xlink:href="#CMMI12-122"/>
      <use transform="translate(129.37144 0)scale(0.996264)" xlink:href="#CMR17-61"/>
      <use transform="translate(228.760237 0)scale(0.996264)" xlink:href="#CMR17-49"/>
      <use transform="translate(274.450714 0)scale(0.996264)" xlink:href="#CMR17-48"/>
      <use transform="translate(336.745596 17.618744)scale(0.996264)" xlink:href="#CMR17-23"/>
      <use transform="translate(336.745596 0)scale(0.996264)" xlink:href="#CMR17-65"/>
     </g>
    </g>
    <g id="line2d_26">
     <path d="M 162.958483 43.366794 
L 169.958483 43.366794 
" style="fill:none;stroke:#fff0a6;stroke-linecap:square;stroke-width:2;"/>
    </g>
    <g id="line2d_27"/>
    <g id="text_23">
     <!-- $f=1$ -->
     <g transform="translate(173.458483 41.023317)scale(0.07 -0.07)">
      <use transform="scale(0.996264)" xlink:href="#CMMI12-102"/>
      <use transform="translate(86.394314 0)scale(0.996264)" xlink:href="#CMR17-61"/>
      <use transform="translate(185.783111 0)scale(0.996264)" xlink:href="#CMR17-49"/>
     </g>
     <!-- $L_z = 5.05\, \mathrm{\AA}$ -->
     <g transform="translate(173.458483 49.238758)scale(0.07 -0.07)">
      <use transform="scale(0.996264)" xlink:href="#CMMI12-76"/>
      <use transform="translate(66.370875 -14.943915)scale(0.697382)" xlink:href="#CMMI12-122"/>
      <use transform="translate(129.37144 0)scale(0.996264)" xlink:href="#CMR17-61"/>
      <use transform="translate(228.760237 0)scale(0.996264)" xlink:href="#CMR17-53"/>
      <use transform="translate(274.450714 0)scale(0.996264)" xlink:href="#CMMI12-58"/>
      <use transform="translate(301.547891 0)scale(0.996264)" xlink:href="#CMR17-48"/>
      <use transform="translate(347.238368 0)scale(0.996264)" xlink:href="#CMR17-53"/>
      <use transform="translate(409.533251 17.618744)scale(0.996264)" xlink:href="#CMR17-23"/>
      <use transform="translate(409.533251 0)scale(0.996264)" xlink:href="#CMR17-65"/>
     </g>
    </g>
   </g>
  </g>
 </g>
 <defs>
  <clipPath id="p04d07735d2">
   <rect height="120.076701" width="208.931382" x="27.599496" y="0.72"/>
  </clipPath>
  <clipPath id="p3f387c508e">
   <rect height="74.927861" width="75.215298" x="115.029304" y="2.818466"/>
  </clipPath>
 </defs>
</svg>
