<?xml version="1.0" encoding="utf-8" standalone="no"?>
<!DOCTYPE svg PUBLIC "-//W3C//DTD SVG 1.1//EN"
  "http://www.w3.org/Graphics/SVG/1.1/DTD/svg11.dtd">
<svg height="145.761683pt" version="1.1" viewBox="0 0 237.250878 145.761683" width="237.250878pt" xmlns="http://www.w3.org/2000/svg" xmlns:xlink="http://www.w3.org/1999/xlink">
 <metadata>
  <rdf:RDF xmlns:cc="http://creativecommons.org/ns#" xmlns:dc="http://purl.org/dc/elements/1.1/" xmlns:rdf="http://www.w3.org/1999/02/22-rdf-syntax-ns#">
   <cc:Work>
    <dc:type rdf:resource="http://purl.org/dc/dcmitype/StillImage"/>
    <dc:date>2021-07-29T15:09:49.723829</dc:date>
    <dc:format>image/svg+xml</dc:format>
    <dc:creator>
     <cc:Agent>
      <dc:title>Matplotlib v3.4.2, https://matplotlib.org/</dc:title>
     </cc:Agent>
    </dc:creator>
   </cc:Work>
  </rdf:RDF>
 </metadata>
 <defs>
  <style type="text/css">*{stroke-linecap:butt;stroke-linejoin:round;}</style>
 </defs>
 <g id="figure_1">
  <g id="patch_1">
   <path d="M 0 145.761683 
L 237.250878 145.761683 
L 237.250878 0 
L 0 0 
z
" style="fill:none;"/>
  </g>
  <g id="axes_1">
   <g id="patch_2">
    <path d="M 27.599496 120.796701 
L 236.530878 120.796701 
L 236.530878 0.72 
L 27.599496 0.72 
z
" style="fill:none;"/>
   </g>
   <g id="patch_3">
    <path d="M 114.262593 78.701184 
Q 127.316654 96.271202 140.370715 113.84122 
" style="fill:none;opacity:0.5;stroke:#808080;stroke-dasharray:0.5,0.825;stroke-dashoffset:0;stroke-linecap:round;stroke-width:0.5;"/>
   </g>
   <g id="patch_4">
    <path d="M 189.363422 78.326704 
Q 166.251946 96.272889 143.14047 114.219075 
" style="fill:none;opacity:0.5;stroke:#808080;stroke-dasharray:0.5,0.825;stroke-dashoffset:0;stroke-linecap:round;stroke-width:0.5;"/>
   </g>
   <g id="matplotlib.axis_1">
    <g id="xtick_1">
     <g id="line2d_1">
      <defs>
       <path d="M 0 0 
L 0 2 
" id="mbf050cc40e" style="stroke:#000000;stroke-width:0.5;"/>
      </defs>
      <g>
       <use style="stroke:#000000;stroke-width:0.5;" x="56.090139" xlink:href="#mbf050cc40e" y="120.796701"/>
      </g>
     </g>
     <g id="text_1">
      <!-- $\mathdefault{4.6}$ -->
      <g transform="translate(50.202534 131.023351)scale(0.09 -0.09)">
       <defs>
        <path d="M 2150 4147 
C 2150 4281 2144 4288 2029 4288 
L 128 1254 
L 128 1088 
L 1779 1088 
L 1779 460 
C 1779 230 1766 166 1318 166 
L 1197 166 
L 1197 0 
C 1402 12 1747 12 1965 12 
C 2182 12 2528 12 2733 0 
L 2733 166 
L 2611 166 
C 2163 166 2150 230 2150 460 
L 2150 1088 
L 2803 1088 
L 2803 1254 
L 2150 1254 
L 2150 4147 
z
M 1798 3723 
L 1798 1254 
L 256 1254 
L 1798 3723 
z
" id="CMR17-34" transform="scale(0.015625)"/>
        <path d="M 1178 307 
C 1178 492 1024 620 870 620 
C 685 620 557 467 557 313 
C 557 128 710 0 864 0 
C 1050 0 1178 153 1178 307 
z
" id="CMMI12-3a" transform="scale(0.015625)"/>
        <path d="M 678 2198 
C 678 3712 1395 4076 1811 4076 
C 1946 4076 2272 4049 2400 3782 
C 2298 3782 2106 3782 2106 3558 
C 2106 3385 2246 3328 2336 3328 
C 2394 3328 2566 3353 2566 3571 
C 2566 3987 2246 4224 1805 4224 
C 1043 4224 243 3411 243 2011 
C 243 257 966 -128 1478 -128 
C 2099 -128 2688 431 2688 1295 
C 2688 2101 2170 2688 1517 2688 
C 1126 2688 838 2430 678 1979 
L 678 2198 
z
M 1478 25 
C 691 25 691 1212 691 1450 
C 691 1914 909 2585 1504 2585 
C 1613 2585 1926 2585 2138 2140 
C 2253 1889 2253 1624 2253 1302 
C 2253 954 2253 696 2118 438 
C 1978 173 1773 25 1478 25 
z
" id="CMR17-36" transform="scale(0.015625)"/>
       </defs>
       <use transform="scale(0.996264)" xlink:href="#CMR17-34"/>
       <use transform="translate(45.690477 0)scale(0.996264)" xlink:href="#CMMI12-3a"/>
       <use transform="translate(72.787654 0)scale(0.996264)" xlink:href="#CMR17-36"/>
      </g>
     </g>
    </g>
    <g id="xtick_2">
     <g id="line2d_2">
      <g>
       <use style="stroke:#000000;stroke-width:0.5;" x="94.077663" xlink:href="#mbf050cc40e" y="120.796701"/>
      </g>
     </g>
     <g id="text_2">
      <!-- $\mathdefault{4.8}$ -->
      <g transform="translate(88.190058 131.023351)scale(0.09 -0.09)">
       <defs>
        <path d="M 1741 2289 
C 2144 2494 2554 2803 2554 3298 
C 2554 3884 1990 4224 1472 4224 
C 890 4224 378 3800 378 3215 
C 378 3054 416 2777 666 2533 
C 730 2469 998 2276 1171 2154 
C 883 2006 211 1652 211 945 
C 211 282 838 -128 1459 -128 
C 2144 -128 2720 366 2720 1022 
C 2720 1607 2330 1877 2074 2051 
L 1741 2289 
z
M 902 2855 
C 851 2887 595 3086 595 3388 
C 595 3781 998 4076 1459 4076 
C 1965 4076 2336 3716 2336 3298 
C 2336 2700 1670 2359 1638 2359 
C 1632 2359 1626 2359 1574 2398 
L 902 2855 
z
M 2080 1536 
C 2176 1466 2483 1253 2483 861 
C 2483 385 2010 25 1472 25 
C 890 25 448 443 448 951 
C 448 1459 838 1884 1280 2083 
L 2080 1536 
z
" id="CMR17-38" transform="scale(0.015625)"/>
       </defs>
       <use transform="scale(0.996264)" xlink:href="#CMR17-34"/>
       <use transform="translate(45.690477 0)scale(0.996264)" xlink:href="#CMMI12-3a"/>
       <use transform="translate(72.787654 0)scale(0.996264)" xlink:href="#CMR17-38"/>
      </g>
     </g>
    </g>
    <g id="xtick_3">
     <g id="line2d_3">
      <g>
       <use style="stroke:#000000;stroke-width:0.5;" x="132.065187" xlink:href="#mbf050cc40e" y="120.796701"/>
      </g>
     </g>
     <g id="text_3">
      <!-- $\mathdefault{5.0}$ -->
      <g transform="translate(126.177582 131.023351)scale(0.09 -0.09)">
       <defs>
        <path d="M 730 3750 
C 794 3724 1056 3641 1325 3641 
C 1920 3641 2246 3961 2432 4140 
C 2432 4191 2432 4224 2394 4224 
C 2387 4224 2374 4224 2323 4198 
C 2099 4102 1837 4032 1517 4032 
C 1325 4032 1037 4055 723 4191 
C 653 4224 640 4224 634 4224 
C 602 4224 595 4217 595 4090 
L 595 2231 
C 595 2113 595 2080 659 2080 
C 691 2080 704 2093 736 2139 
C 941 2435 1222 2560 1542 2560 
C 1766 2560 2246 2415 2246 1293 
C 2246 1087 2246 716 2054 422 
C 1894 159 1645 25 1370 25 
C 947 25 518 319 403 812 
C 429 806 480 793 506 793 
C 589 793 749 838 749 1036 
C 749 1209 627 1280 506 1280 
C 358 1280 262 1190 262 1011 
C 262 454 704 -128 1382 -128 
C 2042 -128 2669 441 2669 1267 
C 2669 2054 2170 2662 1549 2662 
C 1222 2662 947 2540 730 2304 
L 730 3750 
z
" id="CMR17-35" transform="scale(0.015625)"/>
        <path d="M 2688 2038 
C 2688 2430 2682 3099 2413 3613 
C 2176 4063 1798 4224 1466 4224 
C 1158 4224 768 4082 525 3620 
C 269 3137 243 2539 243 2038 
C 243 1671 250 1112 448 623 
C 723 -39 1216 -128 1466 -128 
C 1760 -128 2208 -7 2470 604 
C 2662 1048 2688 1568 2688 2038 
z
M 1466 -26 
C 1056 -26 813 328 723 816 
C 653 1196 653 1749 653 2109 
C 653 2604 653 3015 736 3407 
C 858 3954 1216 4121 1466 4121 
C 1728 4121 2067 3947 2189 3420 
C 2272 3054 2278 2623 2278 2109 
C 2278 1691 2278 1176 2202 797 
C 2067 96 1690 -26 1466 -26 
z
" id="CMR17-30" transform="scale(0.015625)"/>
       </defs>
       <use transform="scale(0.996264)" xlink:href="#CMR17-35"/>
       <use transform="translate(45.690477 0)scale(0.996264)" xlink:href="#CMMI12-3a"/>
       <use transform="translate(72.787654 0)scale(0.996264)" xlink:href="#CMR17-30"/>
      </g>
     </g>
    </g>
    <g id="xtick_4">
     <g id="line2d_4">
      <g>
       <use style="stroke:#000000;stroke-width:0.5;" x="170.052711" xlink:href="#mbf050cc40e" y="120.796701"/>
      </g>
     </g>
     <g id="text_4">
      <!-- $\mathdefault{5.2}$ -->
      <g transform="translate(164.165106 131.023351)scale(0.09 -0.09)">
       <defs>
        <path d="M 2669 990 
L 2554 990 
C 2490 537 2438 460 2413 422 
C 2381 371 1920 371 1830 371 
L 602 371 
C 832 620 1280 1073 1824 1596 
C 2214 1966 2669 2400 2669 3033 
C 2669 3788 2067 4224 1395 4224 
C 691 4224 262 3603 262 3027 
C 262 2777 448 2745 525 2745 
C 589 2745 781 2783 781 3007 
C 781 3206 614 3264 525 3264 
C 486 3264 448 3257 422 3244 
C 544 3788 915 4057 1306 4057 
C 1862 4057 2227 3616 2227 3033 
C 2227 2477 1901 1998 1536 1583 
L 262 147 
L 262 0 
L 2515 0 
L 2669 990 
z
" id="CMR17-32" transform="scale(0.015625)"/>
       </defs>
       <use transform="scale(0.996264)" xlink:href="#CMR17-35"/>
       <use transform="translate(45.690477 0)scale(0.996264)" xlink:href="#CMMI12-3a"/>
       <use transform="translate(72.787654 0)scale(0.996264)" xlink:href="#CMR17-32"/>
      </g>
     </g>
    </g>
    <g id="xtick_5">
     <g id="line2d_5">
      <g>
       <use style="stroke:#000000;stroke-width:0.5;" x="208.040235" xlink:href="#mbf050cc40e" y="120.796701"/>
      </g>
     </g>
     <g id="text_5">
      <!-- $\mathdefault{5.4}$ -->
      <g transform="translate(202.15263 131.023351)scale(0.09 -0.09)">
       <use transform="scale(0.996264)" xlink:href="#CMR17-35"/>
       <use transform="translate(45.690477 0)scale(0.996264)" xlink:href="#CMMI12-3a"/>
       <use transform="translate(72.787654 0)scale(0.996264)" xlink:href="#CMR17-34"/>
      </g>
     </g>
    </g>
    <g id="text_6">
     <!-- $\alabel{L_z}{\angstrom}$ -->
     <g transform="translate(117.182916 142.800089)scale(0.09 -0.09)">
      <defs>
       <path d="M 2349 3860 
C 2406 4102 2426 4166 2989 4166 
C 3162 4166 3206 4166 3206 4287 
C 3206 4352 3136 4352 3110 4352 
C 2982 4352 2835 4339 2707 4339 
L 1850 4339 
C 1728 4339 1587 4352 1466 4352 
C 1414 4352 1344 4352 1344 4230 
C 1344 4166 1402 4166 1498 4166 
C 1888 4166 1888 4115 1888 4045 
C 1888 4032 1888 3994 1862 3898 
L 998 472 
C 941 249 928 185 480 185 
C 358 185 294 185 294 70 
C 294 0 333 0 461 0 
L 3328 0 
C 3469 0 3475 6 3520 121 
L 4013 1478 
C 4026 1510 4038 1548 4038 1567 
C 4038 1605 4006 1631 3974 1631 
C 3968 1631 3936 1631 3923 1605 
C 3910 1599 3910 1586 3859 1465 
C 3654 905 3366 185 2285 185 
L 1670 185 
C 1581 185 1568 185 1530 191 
C 1459 198 1453 211 1453 262 
C 1453 306 1466 344 1478 402 
L 2349 3860 
z
" id="CMMI12-4c" transform="scale(0.015625)"/>
       <path d="M 813 486 
C 1088 809 1312 1015 1632 1313 
C 2016 1657 2182 1822 2272 1922 
C 2720 2371 2944 2713 2944 2764 
C 2944 2816 2893 2816 2880 2816 
C 2835 2816 2822 2790 2790 2745 
C 2630 2470 2477 2368 2310 2368 
C 2176 2368 2106 2403 1984 2547 
C 1850 2707 1741 2816 1555 2816 
C 1088 2816 806 2265 806 2127 
C 806 2107 813 2067 870 2067 
C 922 2067 928 2094 947 2140 
C 1056 2387 1363 2415 1485 2415 
C 1619 2415 1747 2387 1882 2342 
C 2125 2239 2227 2239 2291 2239 
C 2336 2239 2362 2239 2394 2246 
C 2182 1988 1837 1670 1549 1399 
L 902 783 
C 512 380 275 32 275 -13 
C 275 -52 307 -64 346 -64 
C 384 -64 390 -58 435 19 
C 538 179 742 384 979 384 
C 1114 384 1178 356 1306 211 
C 1427 70 1536 -64 1741 -64 
C 2368 -64 2726 723 2726 876 
C 2726 902 2720 942 2656 942 
C 2605 942 2598 915 2579 849 
C 2438 460 2061 336 1811 336 
C 1677 336 1549 364 1414 409 
C 1158 512 1088 512 1005 512 
C 941 512 870 512 813 486 
z
" id="CMMI12-7a" transform="scale(0.015625)"/>
       <path d="M 1958 -1562 
C 1958 -1556 1958 -1543 1939 -1524 
C 1645 -1223 858 -403 858 1596 
C 858 3595 1632 4408 1946 4729 
C 1946 4735 1958 4748 1958 4767 
C 1958 4787 1939 4800 1914 4800 
C 1843 4800 1299 4325 986 3620 
C 666 2909 576 2218 576 1603 
C 576 1141 621 360 1005 -467 
C 1312 -1133 1837 -1600 1914 -1600 
C 1946 -1600 1958 -1588 1958 -1562 
z
" id="CMR17-28" transform="scale(0.015625)"/>
       <path d="M 2086 4096 
C 1856 4053 1626 3896 1626 3613 
L 1626 3570 
C 1658 3323 1888 3136 2150 3136 
C 2413 3136 2669 3359 2669 3619 
L 2669 3667 
C 2637 3961 2406 4160 2144 4160 
C 2125 4102 2106 4096 2086 4096 
z
M 1709 3570 
L 1709 3613 
C 1709 3904 1920 4057 2157 4057 
C 2394 4057 2554 3897 2586 3680 
L 2586 3635 
C 2586 3353 2374 3200 2138 3200 
C 1901 3200 1741 3360 1709 3577 
L 1709 3570 
z
" id="SFRM3583-6" transform="scale(0.015625)"/>
       <path d="M 2323 4441 
C 2291 4524 2278 4544 2214 4544 
C 2150 4544 2138 4524 2106 4441 
L 749 580 
C 627 236 371 166 147 166 
L 147 0 
C 262 12 518 12 640 12 
C 800 12 1056 12 1210 0 
L 1210 166 
C 909 179 864 382 864 459 
C 864 516 877 548 890 586 
L 1229 1536 
L 2906 1536 
L 3290 453 
C 3322 376 3322 363 3322 338 
C 3322 166 3046 166 2925 166 
L 2925 0 
C 3110 12 3443 12 3642 12 
C 3808 12 4128 12 4282 0 
L 4282 166 
C 3942 166 3827 166 3744 402 
L 2323 4441 
z
M 2067 3924 
L 2848 1702 
L 1286 1702 
L 2067 3924 
z
" id="CMR17-41" transform="scale(0.015625)"/>
       <path d="M 1683 1596 
C 1683 2057 1638 2839 1254 3665 
C 947 4332 422 4800 346 4800 
C 326 4800 301 4793 301 4761 
C 301 4748 307 4742 314 4729 
C 621 4408 1402 3595 1402 1603 
C 1402 -396 627 -1210 314 -1530 
C 307 -1543 301 -1549 301 -1562 
C 301 -1594 326 -1600 346 -1600 
C 416 -1600 960 -1127 1274 -422 
C 1594 289 1683 981 1683 1596 
z
" id="CMR17-29" transform="scale(0.015625)"/>
      </defs>
      <use transform="scale(0.996264)" xlink:href="#CMMI12-4c"/>
      <use transform="translate(66.370875 -14.943915)scale(0.697382)" xlink:href="#CMMI12-7a"/>
      <use transform="translate(157.045448 0)scale(0.996264)" xlink:href="#CMR17-28"/>
      <use transform="translate(214.887866 52.703059)scale(0.356961)" xlink:href="#SFRM3583-6"/>
      <use transform="translate(192.326216 0)scale(0.996264)" xlink:href="#CMR17-41"/>
      <use transform="translate(261.398646 0)scale(0.996264)" xlink:href="#CMR17-29"/>
     </g>
    </g>
   </g>
   <g id="matplotlib.axis_2">
    <g id="ytick_1">
     <g id="line2d_6">
      <defs>
       <path d="M 0 0 
L -2 0 
" id="m9cc1db5977" style="stroke:#000000;stroke-width:0.5;"/>
      </defs>
      <g>
       <use style="stroke:#000000;stroke-width:0.5;" x="27.599496" xlink:href="#m9cc1db5977" y="98.87512"/>
      </g>
     </g>
     <g id="text_7">
      <!-- $\mathdefault{5}$ -->
      <g transform="translate(18.991805 101.988445)scale(0.09 -0.09)">
       <use transform="scale(0.996264)" xlink:href="#CMR17-35"/>
      </g>
     </g>
    </g>
    <g id="ytick_2">
     <g id="line2d_7">
      <g>
       <use style="stroke:#000000;stroke-width:0.5;" x="27.599496" xlink:href="#m9cc1db5977" y="75.204273"/>
      </g>
     </g>
     <g id="text_8">
      <!-- $\mathdefault{10}$ -->
      <g transform="translate(14.384115 78.317598)scale(0.09 -0.09)">
       <defs>
        <path d="M 1702 4083 
C 1702 4217 1696 4224 1606 4224 
C 1357 3927 979 3833 621 3820 
C 602 3820 570 3820 563 3808 
C 557 3795 557 3782 557 3648 
C 755 3648 1088 3686 1344 3839 
L 1344 467 
C 1344 243 1331 166 781 166 
L 589 166 
L 589 0 
C 896 6 1216 12 1523 12 
C 1830 12 2150 6 2458 0 
L 2458 166 
L 2266 166 
C 1715 166 1702 236 1702 467 
L 1702 4083 
z
" id="CMR17-31" transform="scale(0.015625)"/>
       </defs>
       <use transform="scale(0.996264)" xlink:href="#CMR17-31"/>
       <use transform="translate(45.690477 0)scale(0.996264)" xlink:href="#CMR17-30"/>
      </g>
     </g>
    </g>
    <g id="ytick_3">
     <g id="line2d_8">
      <g>
       <use style="stroke:#000000;stroke-width:0.5;" x="27.599496" xlink:href="#m9cc1db5977" y="51.533426"/>
      </g>
     </g>
     <g id="text_9">
      <!-- $\mathdefault{15}$ -->
      <g transform="translate(14.384115 54.646751)scale(0.09 -0.09)">
       <use transform="scale(0.996264)" xlink:href="#CMR17-31"/>
       <use transform="translate(45.690477 0)scale(0.996264)" xlink:href="#CMR17-35"/>
      </g>
     </g>
    </g>
    <g id="ytick_4">
     <g id="line2d_9">
      <g>
       <use style="stroke:#000000;stroke-width:0.5;" x="27.599496" xlink:href="#m9cc1db5977" y="27.86258"/>
      </g>
     </g>
     <g id="text_10">
      <!-- $\mathdefault{20}$ -->
      <g transform="translate(14.384115 30.975905)scale(0.09 -0.09)">
       <use transform="scale(0.996264)" xlink:href="#CMR17-32"/>
       <use transform="translate(45.690477 0)scale(0.996264)" xlink:href="#CMR17-30"/>
      </g>
     </g>
    </g>
    <g id="ytick_5">
     <g id="line2d_10">
      <g>
       <use style="stroke:#000000;stroke-width:0.5;" x="27.599496" xlink:href="#m9cc1db5977" y="4.191733"/>
      </g>
     </g>
     <g id="text_11">
      <!-- $\mathdefault{25}$ -->
      <g transform="translate(14.384115 7.305058)scale(0.09 -0.09)">
       <use transform="scale(0.996264)" xlink:href="#CMR17-32"/>
       <use transform="translate(45.690477 0)scale(0.996264)" xlink:href="#CMR17-35"/>
      </g>
     </g>
    </g>
    <g id="text_12">
     <!-- $\alabel{\chi^2}{\angstrom^{-2}}$ -->
     <g transform="translate(10.142521 80.259007)rotate(-90)scale(0.09 -0.09)">
      <defs>
       <path d="M 2112 1035 
C 1939 1562 1978 1511 1818 1956 
C 1619 2503 1568 2547 1478 2636 
C 1363 2739 1146 2816 922 2816 
C 563 2816 390 2484 390 2401 
C 390 2363 422 2344 461 2344 
C 512 2344 525 2376 531 2401 
C 627 2649 826 2687 883 2687 
C 1069 2687 1248 2230 1363 1925 
C 1517 1537 1594 1270 1766 653 
L 256 -1050 
C 198 -1120 198 -1146 198 -1152 
C 198 -1204 230 -1216 256 -1216 
C 282 -1216 301 -1204 320 -1184 
C 499 -1006 896 -535 1062 -345 
L 1805 494 
C 2118 -479 2118 -491 2214 -727 
C 2317 -968 2451 -1280 2995 -1280 
C 3360 -1280 3526 -955 3526 -866 
C 3526 -822 3488 -809 3456 -809 
C 3405 -809 3398 -835 3379 -886 
C 3309 -1064 3142 -1152 3040 -1152 
C 2957 -1152 2854 -1152 2573 -447 
C 2406 -21 2259 487 2150 882 
L 3667 2598 
C 3718 2655 3725 2662 3725 2687 
C 3725 2732 3693 2752 3661 2752 
C 3642 2752 3622 2752 3558 2681 
L 2112 1035 
z
" id="CMMI12-1f" transform="scale(0.015625)"/>
       <path d="M 4218 1472 
C 4326 1472 4442 1472 4442 1600 
C 4442 1728 4326 1728 4218 1728 
L 755 1728 
C 646 1728 531 1728 531 1600 
C 531 1472 646 1472 755 1472 
L 4218 1472 
z
" id="CMSY10-0" transform="scale(0.015625)"/>
      </defs>
      <use transform="scale(0.996264)" xlink:href="#CMMI12-1f"/>
      <use transform="translate(61.112959 36.153639)scale(0.697382)" xlink:href="#CMR17-32"/>
      <use transform="translate(148.94229 0)scale(0.996264)" xlink:href="#CMR17-28"/>
      <use transform="translate(206.784707 52.703059)scale(0.356961)" xlink:href="#SFRM3583-6"/>
      <use transform="translate(184.223058 0)scale(0.996264)" xlink:href="#CMR17-41"/>
      <use transform="translate(253.295488 48.338187)scale(0.697382)" xlink:href="#CMSY10-0"/>
      <use transform="translate(307.536481 48.338187)scale(0.697382)" xlink:href="#CMR17-32"/>
      <use transform="translate(340.017795 0)scale(0.996264)" xlink:href="#CMR17-29"/>
     </g>
    </g>
   </g>
   <g id="line2d_11">
    <path clip-path="url(#p4ddc000a86)" d="M 37.096377 6.178032 
L 46.593258 28.569083 
L 56.090139 47.24209 
L 65.58702 63.559631 
L 75.083901 77.190468 
L 84.580782 87.698028 
L 94.077663 96.146008 
L 103.574544 102.972766 
L 113.071425 108.100873 
L 122.568306 111.649947 
L 132.065187 113.713684 
L 141.562068 114.546837 
L 151.058949 113.963404 
L 160.55583 112.167918 
L 170.052711 109.13447 
L 179.549592 104.587721 
L 189.046473 97.719594 
L 198.543354 92.048994 
L 208.040235 85.564229 
L 217.537116 78.732565 
L 227.033997 70.226278 
" style="fill:none;stroke:#aea6d0;stroke-dasharray:2.775,1.2;stroke-dashoffset:0;stroke-width:0.75;"/>
    <defs>
     <path d="M 0 2.5 
C 0.663008 2.5 1.29895 2.236584 1.767767 1.767767 
C 2.236584 1.29895 2.5 0.663008 2.5 0 
C 2.5 -0.663008 2.236584 -1.29895 1.767767 -1.767767 
C 1.29895 -2.236584 0.663008 -2.5 0 -2.5 
C -0.663008 -2.5 -1.29895 -2.236584 -1.767767 -1.767767 
C -2.236584 -1.29895 -2.5 -0.663008 -2.5 0 
C -2.5 0.663008 -2.236584 1.29895 -1.767767 1.767767 
C -1.29895 2.236584 -0.663008 2.5 0 2.5 
z
" id="mc82b4268cd" style="stroke:#5e4fa2;stroke-width:0.75;"/>
    </defs>
    <g clip-path="url(#p4ddc000a86)">
     <use style="fill-opacity:0;stroke:#5e4fa2;stroke-width:0.75;" x="37.096377" xlink:href="#mc82b4268cd" y="6.178032"/>
     <use style="fill-opacity:0;stroke:#5e4fa2;stroke-width:0.75;" x="46.593258" xlink:href="#mc82b4268cd" y="28.569083"/>
     <use style="fill-opacity:0;stroke:#5e4fa2;stroke-width:0.75;" x="56.090139" xlink:href="#mc82b4268cd" y="47.24209"/>
     <use style="fill-opacity:0;stroke:#5e4fa2;stroke-width:0.75;" x="65.58702" xlink:href="#mc82b4268cd" y="63.559631"/>
     <use style="fill-opacity:0;stroke:#5e4fa2;stroke-width:0.75;" x="75.083901" xlink:href="#mc82b4268cd" y="77.190468"/>
     <use style="fill-opacity:0;stroke:#5e4fa2;stroke-width:0.75;" x="84.580782" xlink:href="#mc82b4268cd" y="87.698028"/>
     <use style="fill-opacity:0;stroke:#5e4fa2;stroke-width:0.75;" x="94.077663" xlink:href="#mc82b4268cd" y="96.146008"/>
     <use style="fill-opacity:0;stroke:#5e4fa2;stroke-width:0.75;" x="103.574544" xlink:href="#mc82b4268cd" y="102.972766"/>
     <use style="fill-opacity:0;stroke:#5e4fa2;stroke-width:0.75;" x="113.071425" xlink:href="#mc82b4268cd" y="108.100873"/>
     <use style="fill-opacity:0;stroke:#5e4fa2;stroke-width:0.75;" x="122.568306" xlink:href="#mc82b4268cd" y="111.649947"/>
     <use style="fill-opacity:0;stroke:#5e4fa2;stroke-width:0.75;" x="132.065187" xlink:href="#mc82b4268cd" y="113.713684"/>
     <use style="fill-opacity:0;stroke:#5e4fa2;stroke-width:0.75;" x="141.562068" xlink:href="#mc82b4268cd" y="114.546837"/>
     <use style="fill-opacity:0;stroke:#5e4fa2;stroke-width:0.75;" x="151.058949" xlink:href="#mc82b4268cd" y="113.963404"/>
     <use style="fill-opacity:0;stroke:#5e4fa2;stroke-width:0.75;" x="160.55583" xlink:href="#mc82b4268cd" y="112.167918"/>
     <use style="fill-opacity:0;stroke:#5e4fa2;stroke-width:0.75;" x="170.052711" xlink:href="#mc82b4268cd" y="109.13447"/>
     <use style="fill-opacity:0;stroke:#5e4fa2;stroke-width:0.75;" x="179.549592" xlink:href="#mc82b4268cd" y="104.587721"/>
     <use style="fill-opacity:0;stroke:#5e4fa2;stroke-width:0.75;" x="189.046473" xlink:href="#mc82b4268cd" y="97.719594"/>
     <use style="fill-opacity:0;stroke:#5e4fa2;stroke-width:0.75;" x="198.543354" xlink:href="#mc82b4268cd" y="92.048994"/>
     <use style="fill-opacity:0;stroke:#5e4fa2;stroke-width:0.75;" x="208.040235" xlink:href="#mc82b4268cd" y="85.564229"/>
     <use style="fill-opacity:0;stroke:#5e4fa2;stroke-width:0.75;" x="217.537116" xlink:href="#mc82b4268cd" y="78.732565"/>
     <use style="fill-opacity:0;stroke:#5e4fa2;stroke-width:0.75;" x="227.033997" xlink:href="#mc82b4268cd" y="70.226278"/>
    </g>
   </g>
   <g id="line2d_12">
    <path clip-path="url(#p4ddc000a86)" d="M 37.096377 12.25551 
L 46.593258 33.615766 
L 56.090139 51.683243 
L 65.58702 67.702903 
L 75.083901 80.548652 
L 84.580782 91.033896 
L 94.077663 99.070284 
L 103.574544 105.355053 
L 113.071425 110.245597 
L 122.568306 113.314333 
L 132.065187 115.033954 
L 141.562068 115.338669 
L 151.058949 114.554839 
L 160.55583 112.670033 
L 170.052711 109.115528 
L 179.549592 101.766974 
L 189.046473 95.188254 
L 198.543354 90.603108 
L 208.040235 87.400082 
L 217.537116 79.854331 
L 227.033997 58.477028 
" style="fill:none;stroke:#a3b4d6;stroke-dasharray:2.775,1.2;stroke-dashoffset:0;stroke-width:0.75;"/>
    <defs>
     <path d="M 0 2.5 
C 0.663008 2.5 1.29895 2.236584 1.767767 1.767767 
C 2.236584 1.29895 2.5 0.663008 2.5 0 
C 2.5 -0.663008 2.236584 -1.29895 1.767767 -1.767767 
C 1.29895 -2.236584 0.663008 -2.5 0 -2.5 
C -0.663008 -2.5 -1.29895 -2.236584 -1.767767 -1.767767 
C -2.236584 -1.29895 -2.5 -0.663008 -2.5 0 
C -2.5 0.663008 -2.236584 1.29895 -1.767767 1.767767 
C -1.29895 2.236584 -0.663008 2.5 0 2.5 
z
" id="m031fc5dc08" style="stroke:#496aaf;stroke-width:0.75;"/>
    </defs>
    <g clip-path="url(#p4ddc000a86)">
     <use style="fill-opacity:0;stroke:#496aaf;stroke-width:0.75;" x="37.096377" xlink:href="#m031fc5dc08" y="12.25551"/>
     <use style="fill-opacity:0;stroke:#496aaf;stroke-width:0.75;" x="46.593258" xlink:href="#m031fc5dc08" y="33.615766"/>
     <use style="fill-opacity:0;stroke:#496aaf;stroke-width:0.75;" x="56.090139" xlink:href="#m031fc5dc08" y="51.683243"/>
     <use style="fill-opacity:0;stroke:#496aaf;stroke-width:0.75;" x="65.58702" xlink:href="#m031fc5dc08" y="67.702903"/>
     <use style="fill-opacity:0;stroke:#496aaf;stroke-width:0.75;" x="75.083901" xlink:href="#m031fc5dc08" y="80.548652"/>
     <use style="fill-opacity:0;stroke:#496aaf;stroke-width:0.75;" x="84.580782" xlink:href="#m031fc5dc08" y="91.033896"/>
     <use style="fill-opacity:0;stroke:#496aaf;stroke-width:0.75;" x="94.077663" xlink:href="#m031fc5dc08" y="99.070284"/>
     <use style="fill-opacity:0;stroke:#496aaf;stroke-width:0.75;" x="103.574544" xlink:href="#m031fc5dc08" y="105.355053"/>
     <use style="fill-opacity:0;stroke:#496aaf;stroke-width:0.75;" x="113.071425" xlink:href="#m031fc5dc08" y="110.245597"/>
     <use style="fill-opacity:0;stroke:#496aaf;stroke-width:0.75;" x="122.568306" xlink:href="#m031fc5dc08" y="113.314333"/>
     <use style="fill-opacity:0;stroke:#496aaf;stroke-width:0.75;" x="132.065187" xlink:href="#m031fc5dc08" y="115.033954"/>
     <use style="fill-opacity:0;stroke:#496aaf;stroke-width:0.75;" x="141.562068" xlink:href="#m031fc5dc08" y="115.338669"/>
     <use style="fill-opacity:0;stroke:#496aaf;stroke-width:0.75;" x="151.058949" xlink:href="#m031fc5dc08" y="114.554839"/>
     <use style="fill-opacity:0;stroke:#496aaf;stroke-width:0.75;" x="160.55583" xlink:href="#m031fc5dc08" y="112.670033"/>
     <use style="fill-opacity:0;stroke:#496aaf;stroke-width:0.75;" x="170.052711" xlink:href="#m031fc5dc08" y="109.115528"/>
     <use style="fill-opacity:0;stroke:#496aaf;stroke-width:0.75;" x="179.549592" xlink:href="#m031fc5dc08" y="101.766974"/>
     <use style="fill-opacity:0;stroke:#496aaf;stroke-width:0.75;" x="189.046473" xlink:href="#m031fc5dc08" y="95.188254"/>
     <use style="fill-opacity:0;stroke:#496aaf;stroke-width:0.75;" x="198.543354" xlink:href="#m031fc5dc08" y="90.603108"/>
     <use style="fill-opacity:0;stroke:#496aaf;stroke-width:0.75;" x="208.040235" xlink:href="#m031fc5dc08" y="87.400082"/>
     <use style="fill-opacity:0;stroke:#496aaf;stroke-width:0.75;" x="217.537116" xlink:href="#m031fc5dc08" y="79.854331"/>
     <use style="fill-opacity:0;stroke:#496aaf;stroke-width:0.75;" x="227.033997" xlink:href="#m031fc5dc08" y="58.477028"/>
    </g>
   </g>
   <g id="patch_5">
    <path d="M 27.599496 120.796701 
L 27.599496 0.72 
" style="fill:none;stroke:#000000;stroke-linecap:square;stroke-linejoin:miter;stroke-width:0.5;"/>
   </g>
   <g id="patch_6">
    <path d="M 236.530878 120.796701 
L 236.530878 0.72 
" style="fill:none;stroke:#000000;stroke-linecap:square;stroke-linejoin:miter;stroke-width:0.5;"/>
   </g>
   <g id="patch_7">
    <path d="M 27.599496 120.796701 
L 236.530878 120.796701 
" style="fill:none;stroke:#000000;stroke-linecap:square;stroke-linejoin:miter;stroke-width:0.5;"/>
   </g>
   <g id="patch_8">
    <path d="M 27.599496 0.72 
L 236.530878 0.72 
" style="fill:none;stroke:#000000;stroke-linecap:square;stroke-linejoin:miter;stroke-width:0.5;"/>
   </g>
   <g id="legend_1">
    <g id="line2d_13">
     <path d="M 35.699496 97.509777 
L 36.374496 97.509777 
" style="fill:none;stroke:#aea6d0;stroke-dasharray:2.775,1.2;stroke-dashoffset:0;stroke-width:0.75;"/>
    </g>
    <g id="line2d_14">
     <g>
      <use style="fill-opacity:0;stroke:#5e4fa2;stroke-width:0.75;" x="36.036996" xlink:href="#mc82b4268cd" y="97.509777"/>
     </g>
    </g>
    <g id="text_13">
     <!-- $N_{\graphene} = 24$ -->
     <g transform="translate(40.874496 100.659777)scale(0.09 -0.09)">
      <defs>
       <path d="M 4736 3682 
C 4806 3956 4909 4147 5395 4166 
C 5414 4166 5491 4172 5491 4281 
C 5491 4352 5434 4352 5408 4352 
C 5280 4352 4954 4339 4826 4339 
L 4518 4339 
C 4429 4339 4314 4352 4224 4352 
C 4186 4352 4109 4352 4109 4230 
C 4109 4166 4160 4166 4205 4166 
C 4589 4153 4614 4007 4614 3892 
C 4614 3835 4608 3816 4589 3726 
L 3866 854 
L 2496 4243 
C 2451 4345 2445 4352 2304 4352 
L 1523 4352 
C 1395 4352 1338 4352 1338 4230 
C 1338 4166 1382 4166 1504 4166 
C 1536 4166 1914 4166 1914 4109 
C 1914 4096 1901 4045 1894 4026 
L 1043 650 
C 966 338 813 204 390 185 
C 358 185 294 179 294 64 
C 294 0 358 0 378 0 
C 506 0 832 12 960 12 
L 1267 12 
C 1357 12 1466 0 1555 0 
C 1600 0 1670 0 1670 121 
C 1670 179 1606 185 1581 185 
C 1370 191 1165 230 1165 459 
C 1165 510 1178 567 1190 618 
L 2054 4026 
C 2093 3962 2093 3949 2118 3892 
L 3642 115 
C 3674 38 3686 0 3744 0 
C 3808 0 3814 19 3840 128 
L 4736 3682 
z
" id="CMMI12-4e" transform="scale(0.015625)"/>
       <path d="M 4045 2645 
L 4045 2240 
L 5050 2240 
L 4006 448 
L 1901 448 
L 845 2246 
L 1901 4096 
L 4006 4096 
L 4512 3200 
L 4941 3200 
L 4250 4544 
L 1658 4544 
L 352 2246 
L 1658 0 
L 4250 0 
L 5555 2240 
L 5037 2645 
L 4045 2645 
z
" id="SVRsymbols-73" transform="scale(0.015625)"/>
       <path d="M 4115 2048 
C 4211 2048 4307 2048 4307 2156 
C 4307 2272 4198 2272 4090 2272 
L 512 2272 
C 403 2272 294 2272 294 2156 
C 294 2048 390 2048 486 2048 
L 4115 2048 
z
M 4090 927 
C 4198 927 4307 927 4307 1043 
C 4307 1152 4211 1152 4115 1152 
L 486 1152 
C 390 1152 294 1152 294 1043 
C 294 927 403 927 512 927 
L 4090 927 
z
" id="CMR17-3d" transform="scale(0.015625)"/>
      </defs>
      <use transform="scale(0.996264)" xlink:href="#CMMI12-4e"/>
      <use transform="translate(78.115119 -15.337838)scale(0.697382)" xlink:href="#SVRsymbols-73"/>
      <use transform="translate(170.655619 0)scale(0.996264)" xlink:href="#CMR17-3d"/>
      <use transform="translate(270.044417 0)scale(0.996264)" xlink:href="#CMR17-32"/>
      <use transform="translate(315.734894 0)scale(0.996264)" xlink:href="#CMR17-34"/>
     </g>
    </g>
    <g id="line2d_15">
     <path d="M 35.699496 107.803239 
L 36.374496 107.803239 
" style="fill:none;stroke:#a3b4d6;stroke-dasharray:2.775,1.2;stroke-dashoffset:0;stroke-width:0.75;"/>
    </g>
    <g id="line2d_16">
     <g>
      <use style="fill-opacity:0;stroke:#496aaf;stroke-width:0.75;" x="36.036996" xlink:href="#m031fc5dc08" y="107.803239"/>
     </g>
    </g>
    <g id="text_14">
     <!-- $N_{\graphene} = 48$ -->
     <g transform="translate(40.874496 110.953239)scale(0.09 -0.09)">
      <use transform="scale(0.996264)" xlink:href="#CMMI12-4e"/>
      <use transform="translate(78.115119 -15.337838)scale(0.697382)" xlink:href="#SVRsymbols-73"/>
      <use transform="translate(170.655619 0)scale(0.996264)" xlink:href="#CMR17-3d"/>
      <use transform="translate(270.044417 0)scale(0.996264)" xlink:href="#CMR17-34"/>
      <use transform="translate(315.734894 0)scale(0.996264)" xlink:href="#CMR17-38"/>
     </g>
    </g>
   </g>
  </g>
  <g id="axes_2">
   <g id="patch_9">
    <path d="M 115.029304 77.746327 
L 190.244602 77.746327 
L 190.244602 2.818466 
L 115.029304 2.818466 
z
" style="fill:none;"/>
   </g>
   <g id="matplotlib.axis_3">
    <g id="xtick_6">
     <g id="line2d_17">
      <g>
       <use style="stroke:#000000;stroke-width:0.5;" x="128.704813" xlink:href="#mbf050cc40e" y="77.746327"/>
      </g>
     </g>
     <g id="text_15">
      <!-- $\mathdefault{2}$ -->
      <g transform="translate(126.400967 87.972977)scale(0.09 -0.09)">
       <use transform="scale(0.996264)" xlink:href="#CMR17-32"/>
      </g>
     </g>
    </g>
    <g id="xtick_7">
     <g id="line2d_18">
      <g>
       <use style="stroke:#000000;stroke-width:0.5;" x="183.406847" xlink:href="#mbf050cc40e" y="77.746327"/>
      </g>
     </g>
     <g id="text_16">
      <!-- $\mathdefault{4}$ -->
      <g transform="translate(181.103002 87.972977)scale(0.09 -0.09)">
       <use transform="scale(0.996264)" xlink:href="#CMR17-34"/>
      </g>
     </g>
    </g>
    <g id="text_17">
     <!-- $\alabel{z}{\angstrom}$ -->
     <g transform="translate(140.701593 92.749715)scale(0.09 -0.09)">
      <use transform="scale(0.996264)" xlink:href="#CMMI12-7a"/>
      <use transform="translate(105.103162 0)scale(0.996264)" xlink:href="#CMR17-28"/>
      <use transform="translate(162.945579 52.703059)scale(0.356961)" xlink:href="#SFRM3583-6"/>
      <use transform="translate(140.38393 0)scale(0.996264)" xlink:href="#CMR17-41"/>
      <use transform="translate(209.45636 0)scale(0.996264)" xlink:href="#CMR17-29"/>
     </g>
    </g>
   </g>
   <g id="matplotlib.axis_4">
    <g id="ytick_6">
     <g id="line2d_19">
      <g>
       <use style="stroke:#000000;stroke-width:0.5;" x="115.029304" xlink:href="#m9cc1db5977" y="77.746327"/>
      </g>
     </g>
     <g id="text_18">
      <!-- $\mathdefault{0.0}$ -->
      <g transform="translate(99.254095 80.859652)scale(0.09 -0.09)">
       <use transform="scale(0.996264)" xlink:href="#CMR17-30"/>
       <use transform="translate(45.690477 0)scale(0.996264)" xlink:href="#CMMI12-3a"/>
       <use transform="translate(72.787654 0)scale(0.996264)" xlink:href="#CMR17-30"/>
      </g>
     </g>
    </g>
    <g id="ytick_7">
     <g id="line2d_20">
      <g>
       <use style="stroke:#000000;stroke-width:0.5;" x="115.029304" xlink:href="#m9cc1db5977" y="52.60275"/>
      </g>
     </g>
     <g id="text_19">
      <!-- $\mathdefault{0.5}$ -->
      <g transform="translate(99.254095 55.716075)scale(0.09 -0.09)">
       <use transform="scale(0.996264)" xlink:href="#CMR17-30"/>
       <use transform="translate(45.690477 0)scale(0.996264)" xlink:href="#CMMI12-3a"/>
       <use transform="translate(72.787654 0)scale(0.996264)" xlink:href="#CMR17-35"/>
      </g>
     </g>
    </g>
    <g id="ytick_8">
     <g id="line2d_21">
      <g>
       <use style="stroke:#000000;stroke-width:0.5;" x="115.029304" xlink:href="#m9cc1db5977" y="27.459172"/>
      </g>
     </g>
     <g id="text_20">
      <!-- $\mathdefault{1.0}$ -->
      <g transform="translate(99.254095 30.572497)scale(0.09 -0.09)">
       <use transform="scale(0.996264)" xlink:href="#CMR17-31"/>
       <use transform="translate(45.690477 0)scale(0.996264)" xlink:href="#CMMI12-3a"/>
       <use transform="translate(72.787654 0)scale(0.996264)" xlink:href="#CMR17-30"/>
      </g>
     </g>
    </g>
    <g id="text_21">
     <!-- $\alabel{\rho(z)/N}{\angstrom^{-1}}$ -->
     <g transform="translate(95.012501 69.344214)rotate(-90)scale(0.09 -0.09)">
      <defs>
       <path d="M 198 -1085 
C 192 -1116 179 -1154 179 -1191 
C 179 -1287 256 -1351 352 -1351 
C 448 -1351 538 -1287 576 -1198 
C 602 -1141 781 -390 986 389 
C 1114 70 1350 -64 1600 -64 
C 2323 -64 3142 830 3142 1794 
C 3142 2477 2726 2816 2285 2816 
C 1722 2816 1037 2234 826 1385 
L 198 -1085 
z
M 1594 64 
C 1158 64 1050 568 1050 645 
C 1050 683 1210 1289 1229 1385 
C 1555 2656 2182 2687 2278 2687 
C 2566 2687 2726 2426 2726 2049 
C 2726 1724 2554 1091 2445 823 
C 2253 383 1920 64 1594 64 
z
" id="CMMI12-1a" transform="scale(0.015625)"/>
       <path d="M 2746 4563 
C 2746 4569 2784 4665 2784 4678 
C 2784 4755 2720 4800 2669 4800 
C 2637 4800 2579 4800 2528 4659 
L 384 -1364 
C 384 -1370 346 -1466 346 -1479 
C 346 -1556 410 -1600 461 -1600 
C 499 -1600 557 -1594 602 -1460 
L 2746 4563 
z
" id="CMMI12-3d" transform="scale(0.015625)"/>
      </defs>
      <use transform="scale(0.996264)" xlink:href="#CMMI12-1a"/>
      <use transform="translate(50.314373 0)scale(0.996264)" xlink:href="#CMR17-28"/>
      <use transform="translate(85.595141 0)scale(0.996264)" xlink:href="#CMMI12-7a"/>
      <use transform="translate(135.350286 0)scale(0.996264)" xlink:href="#CMR17-29"/>
      <use transform="translate(170.631053 0)scale(0.996264)" xlink:href="#CMMI12-3d"/>
      <use transform="translate(213.986537 0)scale(0.996264)" xlink:href="#CMMI12-4e"/>
      <use transform="translate(357.856327 0)scale(0.996264)" xlink:href="#CMR17-28"/>
      <use transform="translate(415.698744 52.703059)scale(0.356961)" xlink:href="#SFRM3583-6"/>
      <use transform="translate(393.137095 0)scale(0.996264)" xlink:href="#CMR17-41"/>
      <use transform="translate(462.209524 48.338187)scale(0.697382)" xlink:href="#CMSY10-0"/>
      <use transform="translate(516.450518 48.338187)scale(0.697382)" xlink:href="#CMR17-31"/>
      <use transform="translate(548.931832 0)scale(0.996264)" xlink:href="#CMR17-29"/>
     </g>
    </g>
   </g>
   <g id="line2d_22">
    <path clip-path="url(#p89c600c686)" d="M 74.002778 77.746327 
L 76.710802 77.746327 
L 79.418827 77.746327 
L 82.126851 77.746327 
L 84.834875 77.746327 
L 87.542899 77.746327 
L 90.250896 77.746327 
L 92.95892 77.746327 
L 95.666945 77.746327 
L 98.374969 77.746327 
L 101.082993 77.746327 
L 103.791017 77.746327 
L 106.499042 77.746327 
L 109.207066 77.746327 
L 111.91509 77.746327 
L 114.623114 77.746327 
L 117.331111 77.746327 
L 120.039135 77.746303 
L 122.74716 77.745163 
L 125.455184 77.726156 
L 128.163208 77.539661 
L 130.871232 76.451826 
L 133.579256 72.458837 
L 136.287281 63.004107 
L 138.995305 47.312271 
L 141.703329 28.386641 
L 144.411326 12.529199 
L 147.11935 5.071176 
L 149.827374 7.341721 
L 152.535399 17.063146 
L 155.243423 30.438341 
L 157.951447 43.76555 
L 160.659471 55.002678 
L 163.367495 63.427977 
L 166.07552 69.141253 
L 168.783544 72.829868 
L 171.491541 75.029639 
L 174.199565 76.285345 
L 176.907589 76.977676 
L 179.615613 77.360583 
L 182.323638 77.554129 
L 185.031659 77.653232 
L 187.739681 77.701218 
L 190.447702 77.725367 
L 193.155724 77.736535 
L 195.863745 77.741681 
L 198.571767 77.744288 
L 201.279788 77.745187 
L 203.98781 77.745779 
L 206.695831 77.746193 
L 209.403854 77.746246 
L 212.111875 77.746318 
L 214.819898 77.746327 
L 217.52792 77.746327 
L 220.235941 77.746327 
L 222.943963 77.746327 
L 225.651984 77.746327 
L 228.360006 77.746327 
L 231.068027 77.746327 
L 233.776049 77.746327 
L 236.48407 77.746327 
L 238.250878 77.746327 
" style="fill:none;stroke:#000000;stroke-dasharray:3.7,1.6;stroke-dashoffset:0;"/>
   </g>
   <g id="line2d_23">
    <path clip-path="url(#p89c600c686)" d="M 74.002778 77.746327 
L 75.370329 77.746327 
L 76.73788 77.746327 
L 78.105431 77.746327 
L 79.472982 77.746327 
L 80.840533 77.746327 
L 82.208083 77.746327 
L 83.575634 77.746327 
L 84.943185 77.746327 
L 86.310736 77.746327 
L 87.678287 77.746327 
L 89.045838 77.746327 
L 90.413389 77.746327 
L 91.780939 77.746327 
L 93.14849 77.746327 
L 94.516041 77.746327 
L 95.883592 77.746327 
L 97.251143 77.746327 
L 98.618694 77.746327 
L 99.986245 77.746327 
L 101.353796 77.746327 
L 102.721346 77.746327 
L 104.088897 77.746327 
L 105.456448 77.746327 
L 106.823999 77.746327 
L 108.19155 77.746327 
L 109.559101 77.746327 
L 110.926652 77.746327 
L 112.294202 77.746327 
L 113.661753 77.746327 
L 115.029304 77.746327 
L 116.396855 77.746327 
L 117.764406 77.746327 
L 119.131957 77.746327 
L 120.499508 77.746327 
L 121.867058 77.739016 
L 123.234609 77.726466 
L 124.60216 77.634906 
L 125.969711 77.443273 
L 127.337262 76.668668 
L 128.704813 75.06009 
L 130.072364 72.056612 
L 131.439915 67.903885 
L 132.807465 61.361099 
L 134.175016 54.114534 
L 135.542567 46.225192 
L 136.910118 37.71119 
L 138.277669 29.988381 
L 139.64522 23.378263 
L 141.012771 19.246488 
L 142.380321 17.382219 
L 143.747872 15.913328 
L 145.115423 16.687388 
L 146.482974 18.504076 
L 147.850525 20.976637 
L 149.218076 22.266554 
L 150.585627 24.955192 
L 151.953177 26.98152 
L 153.320728 30.842652 
L 154.688279 34.300002 
L 156.05583 37.771867 
L 157.423381 42.535613 
L 158.790932 48.499354 
L 160.158483 53.411518 
L 161.526034 60.278965 
L 162.893584 66.451691 
L 164.261135 71.938861 
L 165.628686 76.096062 
L 166.996237 77.581323 
L 168.363788 77.745673 
L 169.731339 77.746327 
L 171.09889 77.746327 
L 172.46644 77.746327 
L 173.833991 77.746327 
L 175.201542 77.746327 
L 176.569093 77.746327 
L 177.936644 77.746327 
L 179.304195 77.746327 
L 180.671746 77.746327 
L 182.039296 77.746327 
L 183.406847 77.746327 
L 184.774398 77.746327 
L 186.141949 77.746327 
L 187.5095 77.746327 
L 188.877051 77.746327 
L 190.244602 77.746327 
L 191.612153 77.746327 
L 192.979703 77.746327 
L 194.347254 77.746327 
L 195.714805 77.746327 
L 197.082356 77.746327 
L 198.449907 77.746327 
L 199.817458 77.746327 
L 201.185009 77.746327 
L 202.552559 77.746327 
L 203.92011 77.746327 
L 205.287661 77.746327 
L 206.655212 77.746327 
L 208.022763 77.746327 
L 209.390314 77.746327 
L 210.757865 77.746327 
" style="fill:none;stroke:#fff0a6;stroke-linecap:square;stroke-width:2;"/>
   </g>
   <g id="patch_10">
    <path d="M 115.029304 77.746327 
L 115.029304 2.818466 
" style="fill:none;stroke:#000000;stroke-linecap:square;stroke-linejoin:miter;stroke-width:0.5;"/>
   </g>
   <g id="patch_11">
    <path d="M 190.244602 77.746327 
L 190.244602 2.818466 
" style="fill:none;stroke:#000000;stroke-linecap:square;stroke-linejoin:miter;stroke-width:0.5;"/>
   </g>
   <g id="patch_12">
    <path d="M 115.029304 77.746327 
L 190.244602 77.746327 
" style="fill:none;stroke:#000000;stroke-linecap:square;stroke-linejoin:miter;stroke-width:0.5;"/>
   </g>
   <g id="patch_13">
    <path d="M 115.029304 2.818466 
L 190.244602 2.818466 
" style="fill:none;stroke:#000000;stroke-linecap:square;stroke-linejoin:miter;stroke-width:0.5;"/>
   </g>
   <g id="legend_2">
    <g id="patch_14">
     <path d="M 161.558483 53.394772 
L 216.609859 53.394772 
Q 218.009859 53.394772 218.009859 51.994772 
L 218.009859 17.841089 
Q 218.009859 16.441089 216.609859 16.441089 
L 161.558483 16.441089 
Q 160.158483 16.441089 160.158483 17.841089 
L 160.158483 51.994772 
Q 160.158483 53.394772 161.558483 53.394772 
z
" style="fill:#ffffff;"/>
    </g>
    <g id="line2d_24">
     <path d="M 162.958483 26.807203 
L 169.958483 26.807203 
" style="fill:none;stroke:#000000;stroke-dasharray:3.7,1.6;stroke-dashoffset:0;"/>
    </g>
    <g id="line2d_25"/>
    <g id="text_22">
     <!-- $f=1/3$ -->
     <g transform="translate(173.458483 24.471475)scale(0.07 -0.07)">
      <defs>
       <path d="M 2854 2566 
C 2982 2566 3034 2566 3034 2687 
C 3034 2752 2982 2752 2867 2752 
L 2349 2752 
C 2470 3398 2560 3846 2611 4051 
C 2650 4204 2784 4351 2950 4351 
C 3085 4351 3219 4294 3283 4236 
C 3034 4211 2957 4025 2957 3916 
C 2957 3788 3053 3712 3174 3712 
C 3302 3712 3494 3820 3494 4064 
C 3494 4332 3226 4480 2944 4480 
C 2669 4480 2400 4275 2272 4025 
C 2157 3801 2093 3573 1946 2752 
L 1517 2752 
C 1395 2752 1331 2752 1331 2636 
C 1331 2566 1370 2566 1498 2566 
L 1907 2566 
C 1792 1977 1530 545 1382 -132 
C 1274 -685 1178 -1152 858 -1152 
C 838 -1152 653 -1152 538 -1031 
C 864 -1005 864 -724 864 -717 
C 864 -589 768 -512 646 -512 
C 518 -512 326 -621 326 -865 
C 326 -1140 608 -1280 858 -1280 
C 1510 -1280 1779 -113 1850 203 
C 1965 691 2278 2376 2310 2566 
L 2854 2566 
z
" id="CMMI12-66" transform="scale(0.015625)"/>
       <path d="M 1414 2176 
C 1984 2176 2234 1673 2234 1094 
C 2234 322 1824 25 1453 25 
C 1114 25 563 193 390 691 
C 422 678 454 678 486 678 
C 640 678 755 780 755 947 
C 755 1132 614 1216 486 1216 
C 378 1216 211 1164 211 927 
C 211 335 787 -128 1466 -128 
C 2176 -128 2720 432 2720 1087 
C 2720 1718 2208 2176 1600 2246 
C 2086 2347 2554 2776 2554 3353 
C 2554 3856 2048 4224 1472 4224 
C 890 4224 378 3862 378 3347 
C 378 3123 544 3084 627 3084 
C 762 3084 877 3167 877 3334 
C 877 3500 762 3584 627 3584 
C 602 3584 570 3584 544 3571 
C 730 3999 1235 4076 1459 4076 
C 1683 4076 2106 3966 2106 3347 
C 2106 3167 2080 2851 1862 2574 
C 1670 2329 1453 2316 1242 2297 
C 1210 2297 1062 2284 1037 2284 
C 992 2278 966 2272 966 2227 
C 966 2182 973 2176 1101 2176 
L 1414 2176 
z
" id="CMR17-33" transform="scale(0.015625)"/>
      </defs>
      <use transform="scale(0.996264)" xlink:href="#CMMI12-66"/>
      <use transform="translate(86.394314 0)scale(0.996264)" xlink:href="#CMR17-3d"/>
      <use transform="translate(185.783111 0)scale(0.996264)" xlink:href="#CMR17-31"/>
      <use transform="translate(231.473588 0)scale(0.996264)" xlink:href="#CMMI12-3d"/>
      <use transform="translate(280.248507 0)scale(0.996264)" xlink:href="#CMR17-33"/>
     </g>
     <!-- $L_z = 10\, \mathrm{\AA}$ -->
     <g transform="translate(173.458483 33.074364)scale(0.07 -0.07)">
      <defs>
       <path d="M 2771 3980 
C 2771 4300 2515 4544 2214 4544 
C 1914 4544 1658 4300 1658 3980 
C 1658 3660 1914 3417 2214 3417 
C 2515 3417 2771 3660 2771 3980 
z
M 2214 3520 
C 1946 3520 1773 3686 1773 3980 
C 1773 4281 1952 4441 2214 4441 
C 2483 4441 2656 4275 2656 3980 
C 2656 3680 2477 3520 2214 3520 
z
" id="CMR17-17" transform="scale(0.015625)"/>
      </defs>
      <use transform="scale(0.996264)" xlink:href="#CMMI12-4c"/>
      <use transform="translate(66.370875 -14.943915)scale(0.697382)" xlink:href="#CMMI12-7a"/>
      <use transform="translate(129.37144 0)scale(0.996264)" xlink:href="#CMR17-3d"/>
      <use transform="translate(228.760237 0)scale(0.996264)" xlink:href="#CMR17-31"/>
      <use transform="translate(274.450714 0)scale(0.996264)" xlink:href="#CMR17-30"/>
      <use transform="translate(336.745596 17.618744)scale(0.996264)" xlink:href="#CMR17-17"/>
      <use transform="translate(336.745596 0)scale(0.996264)" xlink:href="#CMR17-41"/>
     </g>
    </g>
    <g id="line2d_26">
     <path d="M 162.958483 43.359045 
L 169.958483 43.359045 
" style="fill:none;stroke:#fff0a6;stroke-linecap:square;stroke-width:2;"/>
    </g>
    <g id="line2d_27"/>
    <g id="text_23">
     <!-- $f=1$ -->
     <g transform="translate(173.458483 41.023317)scale(0.07 -0.07)">
      <use transform="scale(0.996264)" xlink:href="#CMMI12-66"/>
      <use transform="translate(86.394314 0)scale(0.996264)" xlink:href="#CMR17-3d"/>
      <use transform="translate(185.783111 0)scale(0.996264)" xlink:href="#CMR17-31"/>
     </g>
     <!-- $L_z = 5.05\, \mathrm{\AA}$ -->
     <g transform="translate(173.458483 49.238758)scale(0.07 -0.07)">
      <use transform="scale(0.996264)" xlink:href="#CMMI12-4c"/>
      <use transform="translate(66.370875 -14.943915)scale(0.697382)" xlink:href="#CMMI12-7a"/>
      <use transform="translate(129.37144 0)scale(0.996264)" xlink:href="#CMR17-3d"/>
      <use transform="translate(228.760237 0)scale(0.996264)" xlink:href="#CMR17-35"/>
      <use transform="translate(274.450714 0)scale(0.996264)" xlink:href="#CMMI12-3a"/>
      <use transform="translate(301.547891 0)scale(0.996264)" xlink:href="#CMR17-30"/>
      <use transform="translate(347.238368 0)scale(0.996264)" xlink:href="#CMR17-35"/>
      <use transform="translate(409.533251 17.618744)scale(0.996264)" xlink:href="#CMR17-17"/>
      <use transform="translate(409.533251 0)scale(0.996264)" xlink:href="#CMR17-41"/>
     </g>
    </g>
   </g>
  </g>
 </g>
 <defs>
  <clipPath id="p4ddc000a86">
   <rect height="120.076701" width="208.931382" x="27.599496" y="0.72"/>
  </clipPath>
  <clipPath id="p89c600c686">
   <rect height="74.927861" width="75.215298" x="115.029304" y="2.818466"/>
  </clipPath>
 </defs>
</svg>
