<?xml version="1.0" encoding="utf-8" standalone="no"?>
<!DOCTYPE svg PUBLIC "-//W3C//DTD SVG 1.1//EN"
  "http://www.w3.org/Graphics/SVG/1.1/DTD/svg11.dtd">
<svg height="146.90808pt" version="1.1" viewBox="0 0 240.52032 146.90808" width="240.52032pt" xmlns="http://www.w3.org/2000/svg" xmlns:xlink="http://www.w3.org/1999/xlink">
 <metadata>
  <rdf:RDF xmlns:cc="http://creativecommons.org/ns#" xmlns:dc="http://purl.org/dc/elements/1.1/" xmlns:rdf="http://www.w3.org/1999/02/22-rdf-syntax-ns#">
   <cc:Work>
    <dc:type rdf:resource="http://purl.org/dc/dcmitype/StillImage"/>
    <dc:date>2021-07-29T14:59:30.300170</dc:date>
    <dc:format>image/svg+xml</dc:format>
    <dc:creator>
     <cc:Agent>
      <dc:title>Matplotlib v3.4.2, https://matplotlib.org/</dc:title>
     </cc:Agent>
    </dc:creator>
   </cc:Work>
  </rdf:RDF>
 </metadata>
 <defs>
  <style type="text/css">*{stroke-linecap:butt;stroke-linejoin:round;}</style>
 </defs>
 <g id="figure_1">
  <g id="patch_1">
   <path d="M 0 146.90808 
L 240.52032 146.90808 
L 240.52032 0 
L 0 0 
z
" style="fill:none;"/>
  </g>
  <g id="axes_1">
   <g id="patch_2">
    <path d="M 29.509448 123.251592 
L 239.80032 123.251592 
L 239.80032 0.72 
L 29.509448 0.72 
z
" style="fill:none;"/>
   </g>
   <g id="patch_3">
    <path d="M 109.976519 74.562761 
Q 103.900151 94.877407 97.823783 115.192053 
" style="fill:none;opacity:0.5;stroke:#808080;stroke-dasharray:0.5,0.825;stroke-dashoffset:0;stroke-linecap:round;stroke-width:0.5;"/>
   </g>
   <g id="patch_4">
    <path d="M 50.200175 74.871094 
Q 72.980546 95.319489 95.760917 115.767883 
" style="fill:none;opacity:0.5;stroke:#808080;stroke-dasharray:0.5,0.825;stroke-dashoffset:0;stroke-linecap:round;stroke-width:0.5;"/>
   </g>
   <g id="patch_5">
    <path d="M 176.264184 74.209671 
Q 202.312328 83.587486 228.360472 92.9653 
" style="fill:none;opacity:0.5;stroke:#808080;stroke-dasharray:0.5,0.825;stroke-dashoffset:0;stroke-linecap:round;stroke-width:0.5;"/>
   </g>
   <g id="patch_6">
    <path d="M 176.386914 7.746803 
Q 202.313378 7.961588 228.239842 8.176373 
" style="fill:none;opacity:0.5;stroke:#808080;stroke-dasharray:0.5,0.825;stroke-dashoffset:0;stroke-linecap:round;stroke-width:0.5;"/>
   </g>
   <g id="matplotlib.axis_1">
    <g id="xtick_1">
     <g id="line2d_1">
      <defs>
       <path d="M 0 0 
L 0 2 
" id="m4c05822ba3" style="stroke:#000000;stroke-width:0.5;"/>
      </defs>
      <g>
       <use style="stroke:#000000;stroke-width:0.5;" x="30.756232" xlink:href="#m4c05822ba3" y="123.251592"/>
      </g>
     </g>
     <g id="text_1">
      <!-- $\mathdefault{0.0}$ -->
      <g transform="translate(24.868627 133.478242)scale(0.09 -0.09)">
       <defs>
        <path d="M 2688 2038 
C 2688 2430 2682 3099 2413 3613 
C 2176 4063 1798 4224 1466 4224 
C 1158 4224 768 4082 525 3620 
C 269 3137 243 2539 243 2038 
C 243 1671 250 1112 448 623 
C 723 -39 1216 -128 1466 -128 
C 1760 -128 2208 -7 2470 604 
C 2662 1048 2688 1568 2688 2038 
z
M 1466 -26 
C 1056 -26 813 328 723 816 
C 653 1196 653 1749 653 2109 
C 653 2604 653 3015 736 3407 
C 858 3954 1216 4121 1466 4121 
C 1728 4121 2067 3947 2189 3420 
C 2272 3054 2278 2623 2278 2109 
C 2278 1691 2278 1176 2202 797 
C 2067 96 1690 -26 1466 -26 
z
" id="CMR17-30" transform="scale(0.015625)"/>
        <path d="M 1178 307 
C 1178 492 1024 620 870 620 
C 685 620 557 467 557 313 
C 557 128 710 0 864 0 
C 1050 0 1178 153 1178 307 
z
" id="CMMI12-3a" transform="scale(0.015625)"/>
       </defs>
       <use transform="scale(0.996264)" xlink:href="#CMR17-30"/>
       <use transform="translate(45.690477 0)scale(0.996264)" xlink:href="#CMMI12-3a"/>
       <use transform="translate(72.787654 0)scale(0.996264)" xlink:href="#CMR17-30"/>
      </g>
     </g>
    </g>
    <g id="xtick_2">
     <g id="line2d_2">
      <g>
       <use style="stroke:#000000;stroke-width:0.5;" x="70.653314" xlink:href="#m4c05822ba3" y="123.251592"/>
      </g>
     </g>
     <g id="text_2">
      <!-- $\mathdefault{0.2}$ -->
      <g transform="translate(64.76571 133.478242)scale(0.09 -0.09)">
       <defs>
        <path d="M 2669 990 
L 2554 990 
C 2490 537 2438 460 2413 422 
C 2381 371 1920 371 1830 371 
L 602 371 
C 832 620 1280 1073 1824 1596 
C 2214 1966 2669 2400 2669 3033 
C 2669 3788 2067 4224 1395 4224 
C 691 4224 262 3603 262 3027 
C 262 2777 448 2745 525 2745 
C 589 2745 781 2783 781 3007 
C 781 3206 614 3264 525 3264 
C 486 3264 448 3257 422 3244 
C 544 3788 915 4057 1306 4057 
C 1862 4057 2227 3616 2227 3033 
C 2227 2477 1901 1998 1536 1583 
L 262 147 
L 262 0 
L 2515 0 
L 2669 990 
z
" id="CMR17-32" transform="scale(0.015625)"/>
       </defs>
       <use transform="scale(0.996264)" xlink:href="#CMR17-30"/>
       <use transform="translate(45.690477 0)scale(0.996264)" xlink:href="#CMMI12-3a"/>
       <use transform="translate(72.787654 0)scale(0.996264)" xlink:href="#CMR17-32"/>
      </g>
     </g>
    </g>
    <g id="xtick_3">
     <g id="line2d_3">
      <g>
       <use style="stroke:#000000;stroke-width:0.5;" x="110.550397" xlink:href="#m4c05822ba3" y="123.251592"/>
      </g>
     </g>
     <g id="text_3">
      <!-- $\mathdefault{0.4}$ -->
      <g transform="translate(104.662792 133.478242)scale(0.09 -0.09)">
       <defs>
        <path d="M 2150 4147 
C 2150 4281 2144 4288 2029 4288 
L 128 1254 
L 128 1088 
L 1779 1088 
L 1779 460 
C 1779 230 1766 166 1318 166 
L 1197 166 
L 1197 0 
C 1402 12 1747 12 1965 12 
C 2182 12 2528 12 2733 0 
L 2733 166 
L 2611 166 
C 2163 166 2150 230 2150 460 
L 2150 1088 
L 2803 1088 
L 2803 1254 
L 2150 1254 
L 2150 4147 
z
M 1798 3723 
L 1798 1254 
L 256 1254 
L 1798 3723 
z
" id="CMR17-34" transform="scale(0.015625)"/>
       </defs>
       <use transform="scale(0.996264)" xlink:href="#CMR17-30"/>
       <use transform="translate(45.690477 0)scale(0.996264)" xlink:href="#CMMI12-3a"/>
       <use transform="translate(72.787654 0)scale(0.996264)" xlink:href="#CMR17-34"/>
      </g>
     </g>
    </g>
    <g id="xtick_4">
     <g id="line2d_4">
      <g>
       <use style="stroke:#000000;stroke-width:0.5;" x="150.447479" xlink:href="#m4c05822ba3" y="123.251592"/>
      </g>
     </g>
     <g id="text_4">
      <!-- $\mathdefault{0.6}$ -->
      <g transform="translate(144.559874 133.478242)scale(0.09 -0.09)">
       <defs>
        <path d="M 678 2198 
C 678 3712 1395 4076 1811 4076 
C 1946 4076 2272 4049 2400 3782 
C 2298 3782 2106 3782 2106 3558 
C 2106 3385 2246 3328 2336 3328 
C 2394 3328 2566 3353 2566 3571 
C 2566 3987 2246 4224 1805 4224 
C 1043 4224 243 3411 243 2011 
C 243 257 966 -128 1478 -128 
C 2099 -128 2688 431 2688 1295 
C 2688 2101 2170 2688 1517 2688 
C 1126 2688 838 2430 678 1979 
L 678 2198 
z
M 1478 25 
C 691 25 691 1212 691 1450 
C 691 1914 909 2585 1504 2585 
C 1613 2585 1926 2585 2138 2140 
C 2253 1889 2253 1624 2253 1302 
C 2253 954 2253 696 2118 438 
C 1978 173 1773 25 1478 25 
z
" id="CMR17-36" transform="scale(0.015625)"/>
       </defs>
       <use transform="scale(0.996264)" xlink:href="#CMR17-30"/>
       <use transform="translate(45.690477 0)scale(0.996264)" xlink:href="#CMMI12-3a"/>
       <use transform="translate(72.787654 0)scale(0.996264)" xlink:href="#CMR17-36"/>
      </g>
     </g>
    </g>
    <g id="xtick_5">
     <g id="line2d_5">
      <g>
       <use style="stroke:#000000;stroke-width:0.5;" x="190.344562" xlink:href="#m4c05822ba3" y="123.251592"/>
      </g>
     </g>
     <g id="text_5">
      <!-- $\mathdefault{0.8}$ -->
      <g transform="translate(184.456957 133.478242)scale(0.09 -0.09)">
       <defs>
        <path d="M 1741 2289 
C 2144 2494 2554 2803 2554 3298 
C 2554 3884 1990 4224 1472 4224 
C 890 4224 378 3800 378 3215 
C 378 3054 416 2777 666 2533 
C 730 2469 998 2276 1171 2154 
C 883 2006 211 1652 211 945 
C 211 282 838 -128 1459 -128 
C 2144 -128 2720 366 2720 1022 
C 2720 1607 2330 1877 2074 2051 
L 1741 2289 
z
M 902 2855 
C 851 2887 595 3086 595 3388 
C 595 3781 998 4076 1459 4076 
C 1965 4076 2336 3716 2336 3298 
C 2336 2700 1670 2359 1638 2359 
C 1632 2359 1626 2359 1574 2398 
L 902 2855 
z
M 2080 1536 
C 2176 1466 2483 1253 2483 861 
C 2483 385 2010 25 1472 25 
C 890 25 448 443 448 951 
C 448 1459 838 1884 1280 2083 
L 2080 1536 
z
" id="CMR17-38" transform="scale(0.015625)"/>
       </defs>
       <use transform="scale(0.996264)" xlink:href="#CMR17-30"/>
       <use transform="translate(45.690477 0)scale(0.996264)" xlink:href="#CMMI12-3a"/>
       <use transform="translate(72.787654 0)scale(0.996264)" xlink:href="#CMR17-38"/>
      </g>
     </g>
    </g>
    <g id="xtick_6">
     <g id="line2d_6">
      <g>
       <use style="stroke:#000000;stroke-width:0.5;" x="230.241644" xlink:href="#m4c05822ba3" y="123.251592"/>
      </g>
     </g>
     <g id="text_6">
      <!-- $\mathdefault{1.0}$ -->
      <g transform="translate(224.354039 133.478242)scale(0.09 -0.09)">
       <defs>
        <path d="M 1702 4083 
C 1702 4217 1696 4224 1606 4224 
C 1357 3927 979 3833 621 3820 
C 602 3820 570 3820 563 3808 
C 557 3795 557 3782 557 3648 
C 755 3648 1088 3686 1344 3839 
L 1344 467 
C 1344 243 1331 166 781 166 
L 589 166 
L 589 0 
C 896 6 1216 12 1523 12 
C 1830 12 2150 6 2458 0 
L 2458 166 
L 2266 166 
C 1715 166 1702 236 1702 467 
L 1702 4083 
z
" id="CMR17-31" transform="scale(0.015625)"/>
       </defs>
       <use transform="scale(0.996264)" xlink:href="#CMR17-31"/>
       <use transform="translate(45.690477 0)scale(0.996264)" xlink:href="#CMMI12-3a"/>
       <use transform="translate(72.787654 0)scale(0.996264)" xlink:href="#CMR17-30"/>
      </g>
     </g>
    </g>
    <g id="text_7">
     <!-- Filling Fraction  $f = N/N_\graphene$ -->
     <g transform="translate(80.738069 143.946486)scale(0.09 -0.09)">
      <defs>
       <path d="M 3482 4339 
L 326 4339 
L 326 4172 
C 768 4172 838 4172 838 3883 
L 838 450 
C 838 166 768 166 326 166 
L 326 0 
C 512 12 870 12 1069 12 
C 1331 12 1638 12 1901 0 
L 1901 166 
L 1760 166 
C 1274 166 1261 229 1261 456 
L 1261 2073 
L 1837 2073 
C 2432 2073 2490 1865 2490 1334 
L 2605 1334 
L 2605 2991 
L 2490 2991 
C 2490 2451 2432 2240 1837 2240 
L 1261 2240 
L 1261 3922 
C 1261 4140 1274 4172 1530 4172 
L 2355 4172 
C 3322 4172 3430 3774 3520 2920 
L 3635 2920 
L 3482 4339 
z
" id="CMR17-46" transform="scale(0.015625)"/>
       <path d="M 992 3961 
C 992 4102 877 4224 730 4224 
C 589 4224 467 4108 467 3961 
C 467 3820 582 3699 730 3699 
C 870 3699 992 3814 992 3961 
z
M 243 2745 
L 243 2579 
C 602 2579 653 2540 653 2231 
L 653 443 
C 653 198 627 166 218 166 
L 218 0 
C 371 12 646 12 806 12 
C 960 12 1222 12 1370 0 
L 1370 166 
C 992 166 979 205 979 436 
L 979 2816 
L 243 2745 
z
" id="CMR17-69" transform="scale(0.015625)"/>
       <path d="M 979 4416 
L 218 4345 
L 218 4179 
C 595 4179 653 4141 653 3835 
L 653 439 
C 653 198 627 166 218 166 
L 218 0 
C 371 12 653 12 813 12 
C 979 12 1261 12 1414 0 
L 1414 166 
C 1005 166 979 191 979 439 
L 979 4416 
z
" id="CMR17-6c" transform="scale(0.015625)"/>
       <path d="M 2656 1954 
C 2656 2282 2592 2816 1837 2816 
C 1331 2816 1069 2424 973 2166 
L 966 2166 
L 966 2816 
L 211 2745 
L 211 2578 
C 589 2578 646 2540 646 2231 
L 646 443 
C 646 198 621 166 211 166 
L 211 0 
C 365 12 646 12 813 12 
C 979 12 1267 12 1421 0 
L 1421 166 
C 1011 166 986 192 986 443 
L 986 1678 
C 986 2269 1344 2713 1792 2713 
C 2266 2713 2317 2289 2317 1980 
L 2317 443 
C 2317 198 2291 166 1882 166 
L 1882 0 
C 2035 12 2317 12 2483 12 
C 2650 12 2938 12 3091 0 
L 3091 166 
C 2682 166 2656 192 2656 443 
L 2656 1954 
z
" id="CMR17-6e" transform="scale(0.015625)"/>
       <path d="M 710 1165 
C 832 1068 1043 960 1299 960 
C 1805 960 2240 1359 2240 1895 
C 2240 2063 2189 2321 1997 2521 
C 2176 2713 2438 2777 2586 2777 
C 2611 2777 2650 2777 2682 2758 
C 2656 2751 2598 2726 2598 2623 
C 2598 2540 2656 2483 2739 2483 
C 2835 2483 2886 2547 2886 2630 
C 2886 2751 2790 2880 2586 2880 
C 2330 2880 2106 2758 1926 2591 
C 1734 2764 1504 2828 1299 2828 
C 794 2828 358 2431 358 1895 
C 358 1527 570 1294 634 1230 
C 442 1004 442 742 442 710 
C 442 544 506 300 723 166 
C 390 82 128 -184 128 -517 
C 128 -996 736 -1344 1466 -1344 
C 2170 -1344 2803 -1009 2803 -510 
C 2803 384 1856 384 1363 384 
C 1216 384 954 384 922 390 
C 723 422 589 601 589 825 
C 589 883 589 1024 710 1165 
z
M 1299 1068 
C 736 1068 736 1766 736 1895 
C 736 2024 736 2719 1299 2719 
C 1862 2719 1862 2024 1862 1895 
C 1862 1766 1862 1068 1299 1068 
z
M 1466 -1236 
C 826 -1236 384 -883 384 -517 
C 384 -311 493 -118 634 -11 
C 794 102 858 102 1293 102 
C 1818 102 2547 102 2547 -517 
C 2547 -883 2106 -1236 1466 -1236 
z
" id="CMR17-67" transform="scale(0.015625)"/>
       <path d="M 960 1517 
C 960 2134 1222 2713 1702 2713 
C 1747 2713 1792 2707 1837 2687 
C 1837 2687 1696 2642 1696 2475 
C 1696 2321 1818 2257 1914 2257 
C 1990 2257 2131 2302 2131 2482 
C 2131 2687 1926 2816 1709 2816 
C 1222 2816 1011 2340 947 2115 
L 941 2115 
L 941 2816 
L 198 2745 
L 198 2578 
C 576 2578 634 2540 634 2231 
L 634 443 
C 634 198 608 166 198 166 
L 198 0 
C 352 12 646 12 813 12 
C 998 12 1325 12 1498 0 
L 1498 166 
C 1037 166 960 166 960 455 
L 960 1517 
z
" id="CMR17-72" transform="scale(0.015625)"/>
       <path d="M 2304 1656 
C 2304 2048 2304 2275 2035 2534 
C 1798 2751 1523 2816 1306 2816 
C 800 2816 435 2408 435 1977 
C 435 1740 627 1728 666 1728 
C 749 1728 896 1779 896 1958 
C 896 2118 774 2188 666 2188 
C 640 2188 608 2182 589 2176 
C 723 2594 1069 2713 1293 2713 
C 1613 2713 1965 2421 1965 1875 
L 1965 1632 
C 1587 1619 1133 1568 774 1373 
C 371 1147 256 822 256 576 
C 256 77 832 -64 1171 -64 
C 1523 -64 1850 135 1990 505 
C 2003 219 2182 -39 2464 -39 
C 2598 -39 2938 51 2938 563 
L 2938 926 
L 2822 926 
L 2822 557 
C 2822 161 2650 109 2566 109 
C 2304 109 2304 446 2304 732 
L 2304 1656 
z
M 1965 887 
C 1965 323 1568 38 1216 38 
C 896 38 646 278 646 576 
C 646 771 730 1114 1101 1322 
C 1408 1497 1760 1523 1965 1536 
L 1965 887 
z
" id="CMR17-61" transform="scale(0.015625)"/>
       <path d="M 2234 2240 
C 2112 2240 1933 2240 1933 2015 
C 1933 1836 2080 1785 2163 1785 
C 2208 1785 2394 1804 2394 2028 
C 2394 2476 1958 2816 1466 2816 
C 787 2816 211 2201 211 1379 
C 211 521 813 -64 1466 -64 
C 2259 -64 2458 676 2458 747 
C 2458 773 2451 792 2406 792 
C 2362 792 2355 786 2330 702 
C 2163 180 1798 51 1523 51 
C 1114 51 621 431 621 1385 
C 621 2358 1094 2700 1472 2700 
C 1722 2700 2093 2582 2234 2240 
z
" id="CMR17-63" transform="scale(0.015625)"/>
       <path d="M 966 2585 
L 1862 2585 
L 1862 2752 
L 966 2752 
L 966 3968 
L 851 3968 
C 838 3292 614 2700 70 2687 
L 70 2585 
L 627 2585 
L 627 778 
C 627 655 627 -64 1370 -64 
C 1747 -64 1965 308 1965 784 
L 1965 1151 
L 1850 1151 
L 1850 790 
C 1850 347 1677 51 1408 51 
C 1222 51 966 179 966 765 
L 966 2585 
z
" id="CMR17-74" transform="scale(0.015625)"/>
       <path d="M 2758 1356 
C 2758 2176 2163 2816 1466 2816 
C 768 2816 173 2176 173 1356 
C 173 550 768 -64 1466 -64 
C 2163 -64 2758 550 2758 1356 
z
M 1466 51 
C 1165 51 909 230 762 480 
C 602 768 582 1126 582 1408 
C 582 1676 595 2009 762 2297 
C 890 2508 1139 2713 1466 2713 
C 1754 2713 1997 2553 2150 2329 
C 2349 2028 2349 1606 2349 1408 
C 2349 1158 2336 774 2163 467 
C 1984 172 1709 51 1466 51 
z
" id="CMR17-6f" transform="scale(0.015625)"/>
       <path d="M 2854 2566 
C 2982 2566 3034 2566 3034 2687 
C 3034 2752 2982 2752 2867 2752 
L 2349 2752 
C 2470 3398 2560 3846 2611 4051 
C 2650 4204 2784 4351 2950 4351 
C 3085 4351 3219 4294 3283 4236 
C 3034 4211 2957 4025 2957 3916 
C 2957 3788 3053 3712 3174 3712 
C 3302 3712 3494 3820 3494 4064 
C 3494 4332 3226 4480 2944 4480 
C 2669 4480 2400 4275 2272 4025 
C 2157 3801 2093 3573 1946 2752 
L 1517 2752 
C 1395 2752 1331 2752 1331 2636 
C 1331 2566 1370 2566 1498 2566 
L 1907 2566 
C 1792 1977 1530 545 1382 -132 
C 1274 -685 1178 -1152 858 -1152 
C 838 -1152 653 -1152 538 -1031 
C 864 -1005 864 -724 864 -717 
C 864 -589 768 -512 646 -512 
C 518 -512 326 -621 326 -865 
C 326 -1140 608 -1280 858 -1280 
C 1510 -1280 1779 -113 1850 203 
C 1965 691 2278 2376 2310 2566 
L 2854 2566 
z
" id="CMMI12-66" transform="scale(0.015625)"/>
       <path d="M 4115 2048 
C 4211 2048 4307 2048 4307 2156 
C 4307 2272 4198 2272 4090 2272 
L 512 2272 
C 403 2272 294 2272 294 2156 
C 294 2048 390 2048 486 2048 
L 4115 2048 
z
M 4090 927 
C 4198 927 4307 927 4307 1043 
C 4307 1152 4211 1152 4115 1152 
L 486 1152 
C 390 1152 294 1152 294 1043 
C 294 927 403 927 512 927 
L 4090 927 
z
" id="CMR17-3d" transform="scale(0.015625)"/>
       <path d="M 4736 3682 
C 4806 3956 4909 4147 5395 4166 
C 5414 4166 5491 4172 5491 4281 
C 5491 4352 5434 4352 5408 4352 
C 5280 4352 4954 4339 4826 4339 
L 4518 4339 
C 4429 4339 4314 4352 4224 4352 
C 4186 4352 4109 4352 4109 4230 
C 4109 4166 4160 4166 4205 4166 
C 4589 4153 4614 4007 4614 3892 
C 4614 3835 4608 3816 4589 3726 
L 3866 854 
L 2496 4243 
C 2451 4345 2445 4352 2304 4352 
L 1523 4352 
C 1395 4352 1338 4352 1338 4230 
C 1338 4166 1382 4166 1504 4166 
C 1536 4166 1914 4166 1914 4109 
C 1914 4096 1901 4045 1894 4026 
L 1043 650 
C 966 338 813 204 390 185 
C 358 185 294 179 294 64 
C 294 0 358 0 378 0 
C 506 0 832 12 960 12 
L 1267 12 
C 1357 12 1466 0 1555 0 
C 1600 0 1670 0 1670 121 
C 1670 179 1606 185 1581 185 
C 1370 191 1165 230 1165 459 
C 1165 510 1178 567 1190 618 
L 2054 4026 
C 2093 3962 2093 3949 2118 3892 
L 3642 115 
C 3674 38 3686 0 3744 0 
C 3808 0 3814 19 3840 128 
L 4736 3682 
z
" id="CMMI12-4e" transform="scale(0.015625)"/>
       <path d="M 2746 4563 
C 2746 4569 2784 4665 2784 4678 
C 2784 4755 2720 4800 2669 4800 
C 2637 4800 2579 4800 2528 4659 
L 384 -1364 
C 384 -1370 346 -1466 346 -1479 
C 346 -1556 410 -1600 461 -1600 
C 499 -1600 557 -1594 602 -1460 
L 2746 4563 
z
" id="CMMI12-3d" transform="scale(0.015625)"/>
       <path d="M 4045 2645 
L 4045 2240 
L 5050 2240 
L 4006 448 
L 1901 448 
L 845 2246 
L 1901 4096 
L 4006 4096 
L 4512 3200 
L 4941 3200 
L 4250 4544 
L 1658 4544 
L 352 2246 
L 1658 0 
L 4250 0 
L 5555 2240 
L 5037 2645 
L 4045 2645 
z
" id="SVRsymbols-73" transform="scale(0.015625)"/>
      </defs>
      <use transform="scale(0.996264)" xlink:href="#CMR17-46"/>
      <use transform="translate(59.983847 0)scale(0.996264)" xlink:href="#CMR17-69"/>
      <use transform="translate(84.854905 0)scale(0.996264)" xlink:href="#CMR17-6c"/>
      <use transform="translate(109.725964 0)scale(0.996264)" xlink:href="#CMR17-6c"/>
      <use transform="translate(134.597022 0)scale(0.996264)" xlink:href="#CMR17-69"/>
      <use transform="translate(159.468081 0)scale(0.996264)" xlink:href="#CMR17-6e"/>
      <use transform="translate(210.36345 0)scale(0.996264)" xlink:href="#CMR17-67"/>
      <use transform="translate(286.129894 0)scale(0.996264)" xlink:href="#CMR17-46"/>
      <use transform="translate(338.306485 0)scale(0.996264)" xlink:href="#CMR17-72"/>
      <use transform="translate(373.587253 0)scale(0.996264)" xlink:href="#CMR17-61"/>
      <use transform="translate(419.27773 0)scale(0.996264)" xlink:href="#CMR17-63"/>
      <use transform="translate(459.76339 0)scale(0.996264)" xlink:href="#CMR17-74"/>
      <use transform="translate(495.044158 0)scale(0.996264)" xlink:href="#CMR17-69"/>
      <use transform="translate(519.915217 0)scale(0.996264)" xlink:href="#CMR17-6f"/>
      <use transform="translate(565.605694 0)scale(0.996264)" xlink:href="#CMR17-6e"/>
      <use transform="translate(646.57703 0)scale(0.996264)" xlink:href="#CMMI12-66"/>
      <use transform="translate(732.971343 0)scale(0.996264)" xlink:href="#CMR17-3d"/>
      <use transform="translate(832.360141 0)scale(0.996264)" xlink:href="#CMMI12-4e"/>
      <use transform="translate(912.75276 0)scale(0.996264)" xlink:href="#CMMI12-3d"/>
      <use transform="translate(956.108243 0)scale(0.996264)" xlink:href="#CMMI12-4e"/>
      <use transform="translate(1034.223362 -15.337838)scale(0.697382)" xlink:href="#SVRsymbols-73"/>
     </g>
    </g>
   </g>
   <g id="matplotlib.axis_2">
    <g id="ytick_1">
     <g id="line2d_7">
      <defs>
       <path d="M 0 0 
L -2 0 
" id="m49724f6451" style="stroke:#000000;stroke-width:0.5;"/>
      </defs>
      <g>
       <use style="stroke:#000000;stroke-width:0.5;" x="29.509448" xlink:href="#m49724f6451" y="117.105761"/>
      </g>
     </g>
     <g id="text_8">
      <!-- $\mathdefault{0}$ -->
      <g transform="translate(20.901757 120.219086)scale(0.09 -0.09)">
       <use transform="scale(0.996264)" xlink:href="#CMR17-30"/>
      </g>
     </g>
    </g>
    <g id="ytick_2">
     <g id="line2d_8">
      <g>
       <use style="stroke:#000000;stroke-width:0.5;" x="29.509448" xlink:href="#m49724f6451" y="94.874961"/>
      </g>
     </g>
     <g id="text_9">
      <!-- $\mathdefault{50}$ -->
      <g transform="translate(16.294067 97.988286)scale(0.09 -0.09)">
       <defs>
        <path d="M 730 3750 
C 794 3724 1056 3641 1325 3641 
C 1920 3641 2246 3961 2432 4140 
C 2432 4191 2432 4224 2394 4224 
C 2387 4224 2374 4224 2323 4198 
C 2099 4102 1837 4032 1517 4032 
C 1325 4032 1037 4055 723 4191 
C 653 4224 640 4224 634 4224 
C 602 4224 595 4217 595 4090 
L 595 2231 
C 595 2113 595 2080 659 2080 
C 691 2080 704 2093 736 2139 
C 941 2435 1222 2560 1542 2560 
C 1766 2560 2246 2415 2246 1293 
C 2246 1087 2246 716 2054 422 
C 1894 159 1645 25 1370 25 
C 947 25 518 319 403 812 
C 429 806 480 793 506 793 
C 589 793 749 838 749 1036 
C 749 1209 627 1280 506 1280 
C 358 1280 262 1190 262 1011 
C 262 454 704 -128 1382 -128 
C 2042 -128 2669 441 2669 1267 
C 2669 2054 2170 2662 1549 2662 
C 1222 2662 947 2540 730 2304 
L 730 3750 
z
" id="CMR17-35" transform="scale(0.015625)"/>
       </defs>
       <use transform="scale(0.996264)" xlink:href="#CMR17-35"/>
       <use transform="translate(45.690477 0)scale(0.996264)" xlink:href="#CMR17-30"/>
      </g>
     </g>
    </g>
    <g id="ytick_3">
     <g id="line2d_9">
      <g>
       <use style="stroke:#000000;stroke-width:0.5;" x="29.509448" xlink:href="#m49724f6451" y="72.644161"/>
      </g>
     </g>
     <g id="text_10">
      <!-- $\mathdefault{100}$ -->
      <g transform="translate(11.686376 75.757486)scale(0.09 -0.09)">
       <use transform="scale(0.996264)" xlink:href="#CMR17-31"/>
       <use transform="translate(45.690477 0)scale(0.996264)" xlink:href="#CMR17-30"/>
       <use transform="translate(91.380954 0)scale(0.996264)" xlink:href="#CMR17-30"/>
      </g>
     </g>
    </g>
    <g id="ytick_4">
     <g id="line2d_10">
      <g>
       <use style="stroke:#000000;stroke-width:0.5;" x="29.509448" xlink:href="#m49724f6451" y="50.413361"/>
      </g>
     </g>
     <g id="text_11">
      <!-- $\mathdefault{150}$ -->
      <g transform="translate(11.686376 53.526686)scale(0.09 -0.09)">
       <use transform="scale(0.996264)" xlink:href="#CMR17-31"/>
       <use transform="translate(45.690477 0)scale(0.996264)" xlink:href="#CMR17-35"/>
       <use transform="translate(91.380954 0)scale(0.996264)" xlink:href="#CMR17-30"/>
      </g>
     </g>
    </g>
    <g id="ytick_5">
     <g id="line2d_11">
      <g>
       <use style="stroke:#000000;stroke-width:0.5;" x="29.509448" xlink:href="#m49724f6451" y="28.182561"/>
      </g>
     </g>
     <g id="text_12">
      <!-- $\mathdefault{200}$ -->
      <g transform="translate(11.686376 31.295886)scale(0.09 -0.09)">
       <use transform="scale(0.996264)" xlink:href="#CMR17-32"/>
       <use transform="translate(45.690477 0)scale(0.996264)" xlink:href="#CMR17-30"/>
       <use transform="translate(91.380954 0)scale(0.996264)" xlink:href="#CMR17-30"/>
      </g>
     </g>
    </g>
    <g id="ytick_6">
     <g id="line2d_12">
      <g>
       <use style="stroke:#000000;stroke-width:0.5;" x="29.509448" xlink:href="#m49724f6451" y="5.951761"/>
      </g>
     </g>
     <g id="text_13">
      <!-- $\mathdefault{250}$ -->
      <g transform="translate(11.686376 9.065086)scale(0.09 -0.09)">
       <use transform="scale(0.996264)" xlink:href="#CMR17-32"/>
       <use transform="translate(45.690477 0)scale(0.996264)" xlink:href="#CMR17-35"/>
       <use transform="translate(91.380954 0)scale(0.996264)" xlink:href="#CMR17-30"/>
      </g>
     </g>
    </g>
    <g id="text_14">
     <!-- $\alabel{E/N-E_1}{\kelvin}$ -->
     <g transform="translate(7.444782 92.671886)rotate(-90)scale(0.09 -0.09)">
      <defs>
       <path d="M 4448 1489 
C 4454 1508 4474 1553 4474 1578 
C 4474 1611 4448 1643 4410 1643 
C 4384 1643 4371 1636 4352 1617 
C 4339 1611 4339 1598 4282 1469 
C 3904 570 3629 185 2605 185 
L 1670 185 
C 1581 185 1568 185 1530 192 
C 1459 198 1453 211 1453 262 
C 1453 307 1466 346 1478 403 
L 1920 2176 
L 2554 2176 
C 3053 2176 3091 2066 3091 1874 
C 3091 1810 3091 1752 3046 1559 
C 3034 1534 3027 1508 3027 1489 
C 3027 1444 3059 1424 3098 1424 
C 3155 1424 3162 1469 3187 1559 
L 3552 3036 
C 3552 3068 3526 3099 3488 3099 
C 3430 3099 3424 3074 3398 2986 
C 3270 2500 3142 2361 2573 2361 
L 1965 2361 
L 2362 3913 
C 2419 4134 2432 4153 2694 4153 
L 3610 4153 
C 4397 4153 4557 3945 4557 3465 
C 4557 3459 4557 3282 4531 3074 
C 4525 3049 4518 3011 4518 2998 
C 4518 2948 4550 2929 4589 2929 
C 4634 2929 4659 2954 4672 3068 
L 4806 4172 
C 4806 4191 4819 4255 4819 4268 
C 4819 4339 4762 4339 4646 4339 
L 1523 4339 
C 1402 4339 1338 4339 1338 4223 
C 1338 4153 1382 4153 1491 4153 
C 1888 4153 1888 4109 1888 4039 
C 1888 4008 1882 3983 1862 3913 
L 998 474 
C 941 249 928 185 480 185 
C 358 185 294 185 294 70 
C 294 0 333 0 461 0 
L 3674 0 
C 3814 0 3821 6 3866 108 
L 4448 1489 
z
" id="CMMI12-45" transform="scale(0.015625)"/>
       <path d="M 4218 1472 
C 4326 1472 4442 1472 4442 1600 
C 4442 1728 4326 1728 4218 1728 
L 755 1728 
C 646 1728 531 1728 531 1600 
C 531 1472 646 1472 755 1472 
L 4218 1472 
z
" id="CMSY10-0" transform="scale(0.015625)"/>
       <path d="M 1958 -1562 
C 1958 -1556 1958 -1543 1939 -1524 
C 1645 -1223 858 -403 858 1596 
C 858 3595 1632 4408 1946 4729 
C 1946 4735 1958 4748 1958 4767 
C 1958 4787 1939 4800 1914 4800 
C 1843 4800 1299 4325 986 3620 
C 666 2909 576 2218 576 1603 
C 576 1141 621 360 1005 -467 
C 1312 -1133 1837 -1600 1914 -1600 
C 1946 -1600 1958 -1588 1958 -1562 
z
" id="CMR17-28" transform="scale(0.015625)"/>
       <path d="M 2362 2669 
L 3469 3771 
C 3699 3994 3942 4172 4301 4185 
L 4301 4352 
C 4173 4345 4013 4339 3885 4339 
C 3712 4339 3411 4339 3245 4352 
L 3245 4185 
C 3411 4172 3437 4057 3437 4013 
C 3437 3968 3411 3898 3386 3860 
L 1261 1739 
L 1261 3898 
C 1261 4185 1331 4185 1773 4185 
L 1773 4352 
C 1587 4339 1248 4339 1050 4339 
C 851 4339 512 4339 326 4352 
L 326 4185 
C 768 4185 838 4185 838 3898 
L 838 453 
C 838 166 768 166 326 166 
L 326 0 
C 512 12 851 12 1050 12 
C 1248 12 1587 12 1773 0 
L 1773 166 
C 1331 166 1261 166 1261 453 
L 1261 1580 
L 2080 2389 
L 3290 542 
C 3328 478 3373 395 3373 332 
C 3373 166 3194 166 3110 166 
L 3110 0 
C 3315 12 3610 12 3821 12 
C 3974 12 4237 12 4384 0 
L 4384 166 
C 4077 166 3981 204 3789 497 
L 2362 2669 
z
" id="CMR17-4b" transform="scale(0.015625)"/>
       <path d="M 1683 1596 
C 1683 2057 1638 2839 1254 3665 
C 947 4332 422 4800 346 4800 
C 326 4800 301 4793 301 4761 
C 301 4748 307 4742 314 4729 
C 621 4408 1402 3595 1402 1603 
C 1402 -396 627 -1210 314 -1530 
C 307 -1543 301 -1549 301 -1562 
C 301 -1594 326 -1600 346 -1600 
C 416 -1600 960 -1127 1274 -422 
C 1594 289 1683 981 1683 1596 
z
" id="CMR17-29" transform="scale(0.015625)"/>
      </defs>
      <use transform="scale(0.996264)" xlink:href="#CMMI12-45"/>
      <use transform="translate(78.051636 0)scale(0.996264)" xlink:href="#CMMI12-3d"/>
      <use transform="translate(121.40712 0)scale(0.996264)" xlink:href="#CMMI12-4e"/>
      <use transform="translate(232.068099 0)scale(0.996264)" xlink:href="#CMSY10-0"/>
      <use transform="translate(331.694774 0)scale(0.996264)" xlink:href="#CMMI12-45"/>
      <use transform="translate(403.905992 -14.943915)scale(0.697382)" xlink:href="#CMR17-31"/>
      <use transform="translate(491.735323 0)scale(0.996264)" xlink:href="#CMR17-28"/>
      <use transform="translate(527.016091 0)scale(0.996264)" xlink:href="#CMR17-4b"/>
      <use transform="translate(598.690868 0)scale(0.996264)" xlink:href="#CMR17-29"/>
     </g>
    </g>
   </g>
   <g id="LineCollection_1">
    <path clip-path="url(#p54c128e183)" d="M 39.068124 117.206397 
L 39.068124 117.005125 
" style="fill:none;stroke:#aea6d0;stroke-width:0.5;"/>
    <path clip-path="url(#p54c128e183)" d="M 47.380016 117.260157 
L 47.380016 117.054956 
" style="fill:none;stroke:#aea6d0;stroke-width:0.5;"/>
    <path clip-path="url(#p54c128e183)" d="M 55.691908 117.368959 
L 55.691908 117.163963 
" style="fill:none;stroke:#aea6d0;stroke-width:0.5;"/>
    <path clip-path="url(#p54c128e183)" d="M 64.003801 117.635313 
L 64.003801 117.438535 
" style="fill:none;stroke:#aea6d0;stroke-width:0.5;"/>
    <path clip-path="url(#p54c128e183)" d="M 72.315693 117.496696 
L 72.315693 117.324388 
" style="fill:none;stroke:#aea6d0;stroke-width:0.5;"/>
    <path clip-path="url(#p54c128e183)" d="M 80.627585 117.546912 
L 80.627585 117.38065 
" style="fill:none;stroke:#aea6d0;stroke-width:0.5;"/>
    <path clip-path="url(#p54c128e183)" d="M 88.939477 117.458756 
L 88.939477 117.306447 
" style="fill:none;stroke:#aea6d0;stroke-width:0.5;"/>
    <path clip-path="url(#p54c128e183)" d="M 97.251369 117.506485 
L 97.251369 117.363455 
" style="fill:none;stroke:#aea6d0;stroke-width:0.5;"/>
    <path clip-path="url(#p54c128e183)" d="M 105.563261 117.011488 
L 105.563261 116.884228 
" style="fill:none;stroke:#aea6d0;stroke-width:0.5;"/>
    <path clip-path="url(#p54c128e183)" d="M 113.875154 116.329843 
L 113.875154 116.203647 
" style="fill:none;stroke:#aea6d0;stroke-width:0.5;"/>
    <path clip-path="url(#p54c128e183)" d="M 122.187046 115.864953 
L 122.187046 115.744961 
" style="fill:none;stroke:#aea6d0;stroke-width:0.5;"/>
    <path clip-path="url(#p54c128e183)" d="M 130.498938 114.28636 
L 130.498938 114.166818 
" style="fill:none;stroke:#aea6d0;stroke-width:0.5;"/>
    <path clip-path="url(#p54c128e183)" d="M 138.81083 111.176573 
L 138.81083 111.047181 
" style="fill:none;stroke:#aea6d0;stroke-width:0.5;"/>
    <path clip-path="url(#p54c128e183)" d="M 147.122722 107.655367 
L 147.122722 107.511575 
" style="fill:none;stroke:#aea6d0;stroke-width:0.5;"/>
    <path clip-path="url(#p54c128e183)" d="M 155.434614 105.536482 
L 155.434614 105.397848 
" style="fill:none;stroke:#aea6d0;stroke-width:0.5;"/>
    <path clip-path="url(#p54c128e183)" d="M 163.746507 101.991065 
L 163.746507 101.854574 
" style="fill:none;stroke:#aea6d0;stroke-width:0.5;"/>
    <path clip-path="url(#p54c128e183)" d="M 172.058399 92.101783 
L 172.058399 91.93056 
" style="fill:none;stroke:#aea6d0;stroke-width:0.5;"/>
    <path clip-path="url(#p54c128e183)" d="M 180.370291 87.640536 
L 180.370291 87.473015 
" style="fill:none;stroke:#aea6d0;stroke-width:0.5;"/>
    <path clip-path="url(#p54c128e183)" d="M 188.682183 79.871779 
L 188.682183 79.694318 
" style="fill:none;stroke:#aea6d0;stroke-width:0.5;"/>
    <path clip-path="url(#p54c128e183)" d="M 196.994075 67.27646 
L 196.994075 67.07042 
" style="fill:none;stroke:#aea6d0;stroke-width:0.5;"/>
    <path clip-path="url(#p54c128e183)" d="M 205.305967 44.77615 
L 205.305967 44.557159 
" style="fill:none;stroke:#aea6d0;stroke-width:0.5;"/>
    <path clip-path="url(#p54c128e183)" d="M 213.61786 34.878737 
L 213.61786 34.651351 
" style="fill:none;stroke:#aea6d0;stroke-width:0.5;"/>
    <path clip-path="url(#p54c128e183)" d="M 221.929752 6.553798 
L 221.929752 6.289618 
" style="fill:none;stroke:#aea6d0;stroke-width:0.5;"/>
    <path clip-path="url(#p54c128e183)" d="M 230.241644 8.335636 
L 230.241644 8.050277 
" style="fill:none;stroke:#aea6d0;stroke-width:0.5;"/>
   </g>
   <g id="LineCollection_2">
    <path clip-path="url(#p54c128e183)" d="M 39.068124 117.211551 
L 39.068124 116.99997 
" style="fill:none;stroke:#9dc8db;stroke-width:0.5;"/>
    <path clip-path="url(#p54c128e183)" d="M 47.380016 117.244045 
L 47.380016 117.066799 
" style="fill:none;stroke:#9dc8db;stroke-width:0.5;"/>
    <path clip-path="url(#p54c128e183)" d="M 55.691908 117.413873 
L 55.691908 117.191531 
" style="fill:none;stroke:#9dc8db;stroke-width:0.5;"/>
    <path clip-path="url(#p54c128e183)" d="M 64.003801 117.574519 
L 64.003801 117.392422 
" style="fill:none;stroke:#9dc8db;stroke-width:0.5;"/>
    <path clip-path="url(#p54c128e183)" d="M 72.315693 117.681974 
L 72.315693 117.495227 
" style="fill:none;stroke:#9dc8db;stroke-width:0.5;"/>
    <path clip-path="url(#p54c128e183)" d="M 80.627585 117.545837 
L 80.627585 117.376476 
" style="fill:none;stroke:#9dc8db;stroke-width:0.5;"/>
    <path clip-path="url(#p54c128e183)" d="M 88.939477 117.436755 
L 88.939477 117.282608 
" style="fill:none;stroke:#9dc8db;stroke-width:0.5;"/>
    <path clip-path="url(#p54c128e183)" d="M 97.251369 117.546771 
L 97.251369 117.412334 
" style="fill:none;stroke:#9dc8db;stroke-width:0.5;"/>
    <path clip-path="url(#p54c128e183)" d="M 105.563261 117.019614 
L 105.563261 116.889973 
" style="fill:none;stroke:#9dc8db;stroke-width:0.5;"/>
    <path clip-path="url(#p54c128e183)" d="M 113.875154 116.470345 
L 113.875154 116.347301 
" style="fill:none;stroke:#9dc8db;stroke-width:0.5;"/>
    <path clip-path="url(#p54c128e183)" d="M 122.187046 115.995066 
L 122.187046 115.874345 
" style="fill:none;stroke:#9dc8db;stroke-width:0.5;"/>
    <path clip-path="url(#p54c128e183)" d="M 130.498938 114.549421 
L 130.498938 114.434367 
" style="fill:none;stroke:#9dc8db;stroke-width:0.5;"/>
    <path clip-path="url(#p54c128e183)" d="M 138.81083 111.397803 
L 138.81083 111.275071 
" style="fill:none;stroke:#9dc8db;stroke-width:0.5;"/>
    <path clip-path="url(#p54c128e183)" d="M 147.122722 108.537584 
L 147.122722 108.413062 
" style="fill:none;stroke:#9dc8db;stroke-width:0.5;"/>
    <path clip-path="url(#p54c128e183)" d="M 155.434614 106.127254 
L 155.434614 105.989117 
" style="fill:none;stroke:#9dc8db;stroke-width:0.5;"/>
    <path clip-path="url(#p54c128e183)" d="M 163.746507 104.046223 
L 163.746507 103.902629 
" style="fill:none;stroke:#9dc8db;stroke-width:0.5;"/>
    <path clip-path="url(#p54c128e183)" d="M 172.058399 102.407996 
L 172.058399 102.230008 
" style="fill:none;stroke:#9dc8db;stroke-width:0.5;"/>
    <path clip-path="url(#p54c128e183)" d="M 180.370291 100.686753 
L 180.370291 100.521128 
" style="fill:none;stroke:#9dc8db;stroke-width:0.5;"/>
    <path clip-path="url(#p54c128e183)" d="M 188.682183 99.378254 
L 188.682183 99.215572 
" style="fill:none;stroke:#9dc8db;stroke-width:0.5;"/>
    <path clip-path="url(#p54c128e183)" d="M 196.994075 97.862418 
L 196.994075 97.672382 
" style="fill:none;stroke:#9dc8db;stroke-width:0.5;"/>
    <path clip-path="url(#p54c128e183)" d="M 205.305967 96.756954 
L 205.305967 96.578963 
" style="fill:none;stroke:#9dc8db;stroke-width:0.5;"/>
    <path clip-path="url(#p54c128e183)" d="M 213.61786 95.644587 
L 213.61786 95.454503 
" style="fill:none;stroke:#9dc8db;stroke-width:0.5;"/>
    <path clip-path="url(#p54c128e183)" d="M 221.929752 94.8875 
L 221.929752 94.69981 
" style="fill:none;stroke:#9dc8db;stroke-width:0.5;"/>
    <path clip-path="url(#p54c128e183)" d="M 230.241644 93.748553 
L 230.241644 93.536561 
" style="fill:none;stroke:#9dc8db;stroke-width:0.5;"/>
   </g>
   <g id="line2d_13">
    <path clip-path="url(#p54c128e183)" d="M 39.068124 117.105761 
L 47.380016 117.157556 
L 55.691908 117.266461 
L 64.003801 117.536924 
L 72.315693 117.410542 
L 80.627585 117.463781 
L 88.939477 117.382601 
L 97.251369 117.43497 
L 105.563261 116.947858 
L 113.875154 116.266745 
L 122.187046 115.804957 
L 130.498938 114.226589 
L 138.81083 111.111877 
L 147.122722 107.583471 
L 155.434614 105.467165 
L 163.746507 101.922819 
L 172.058399 92.016171 
L 180.370291 87.556776 
L 188.682183 79.783049 
L 196.994075 67.17344 
L 205.305967 44.666655 
L 213.61786 34.765044 
L 221.929752 6.421708 
L 230.241644 8.192956 
" style="fill:none;stroke:#aea6d0;stroke-dasharray:1.85,0.8;stroke-dashoffset:0;stroke-width:0.5;"/>
    <defs>
     <path d="M 0 2.5 
C 0.663008 2.5 1.29895 2.236584 1.767767 1.767767 
C 2.236584 1.29895 2.5 0.663008 2.5 0 
C 2.5 -0.663008 2.236584 -1.29895 1.767767 -1.767767 
C 1.29895 -2.236584 0.663008 -2.5 0 -2.5 
C -0.663008 -2.5 -1.29895 -2.236584 -1.767767 -1.767767 
C -2.236584 -1.29895 -2.5 -0.663008 -2.5 0 
C -2.5 0.663008 -2.236584 1.29895 -1.767767 1.767767 
C -1.29895 2.236584 -0.663008 2.5 0 2.5 
z
" id="meb2ebfd190" style="stroke:#5e4fa2;stroke-width:0.75;"/>
    </defs>
    <g clip-path="url(#p54c128e183)">
     <use style="fill-opacity:0;stroke:#5e4fa2;stroke-width:0.75;" x="39.068124" xlink:href="#meb2ebfd190" y="117.105761"/>
     <use style="fill-opacity:0;stroke:#5e4fa2;stroke-width:0.75;" x="47.380016" xlink:href="#meb2ebfd190" y="117.157556"/>
     <use style="fill-opacity:0;stroke:#5e4fa2;stroke-width:0.75;" x="55.691908" xlink:href="#meb2ebfd190" y="117.266461"/>
     <use style="fill-opacity:0;stroke:#5e4fa2;stroke-width:0.75;" x="64.003801" xlink:href="#meb2ebfd190" y="117.536924"/>
     <use style="fill-opacity:0;stroke:#5e4fa2;stroke-width:0.75;" x="72.315693" xlink:href="#meb2ebfd190" y="117.410542"/>
     <use style="fill-opacity:0;stroke:#5e4fa2;stroke-width:0.75;" x="80.627585" xlink:href="#meb2ebfd190" y="117.463781"/>
     <use style="fill-opacity:0;stroke:#5e4fa2;stroke-width:0.75;" x="88.939477" xlink:href="#meb2ebfd190" y="117.382601"/>
     <use style="fill-opacity:0;stroke:#5e4fa2;stroke-width:0.75;" x="97.251369" xlink:href="#meb2ebfd190" y="117.43497"/>
     <use style="fill-opacity:0;stroke:#5e4fa2;stroke-width:0.75;" x="105.563261" xlink:href="#meb2ebfd190" y="116.947858"/>
     <use style="fill-opacity:0;stroke:#5e4fa2;stroke-width:0.75;" x="113.875154" xlink:href="#meb2ebfd190" y="116.266745"/>
     <use style="fill-opacity:0;stroke:#5e4fa2;stroke-width:0.75;" x="122.187046" xlink:href="#meb2ebfd190" y="115.804957"/>
     <use style="fill-opacity:0;stroke:#5e4fa2;stroke-width:0.75;" x="130.498938" xlink:href="#meb2ebfd190" y="114.226589"/>
     <use style="fill-opacity:0;stroke:#5e4fa2;stroke-width:0.75;" x="138.81083" xlink:href="#meb2ebfd190" y="111.111877"/>
     <use style="fill-opacity:0;stroke:#5e4fa2;stroke-width:0.75;" x="147.122722" xlink:href="#meb2ebfd190" y="107.583471"/>
     <use style="fill-opacity:0;stroke:#5e4fa2;stroke-width:0.75;" x="155.434614" xlink:href="#meb2ebfd190" y="105.467165"/>
     <use style="fill-opacity:0;stroke:#5e4fa2;stroke-width:0.75;" x="163.746507" xlink:href="#meb2ebfd190" y="101.922819"/>
     <use style="fill-opacity:0;stroke:#5e4fa2;stroke-width:0.75;" x="172.058399" xlink:href="#meb2ebfd190" y="92.016171"/>
     <use style="fill-opacity:0;stroke:#5e4fa2;stroke-width:0.75;" x="180.370291" xlink:href="#meb2ebfd190" y="87.556776"/>
     <use style="fill-opacity:0;stroke:#5e4fa2;stroke-width:0.75;" x="188.682183" xlink:href="#meb2ebfd190" y="79.783049"/>
     <use style="fill-opacity:0;stroke:#5e4fa2;stroke-width:0.75;" x="196.994075" xlink:href="#meb2ebfd190" y="67.17344"/>
     <use style="fill-opacity:0;stroke:#5e4fa2;stroke-width:0.75;" x="205.305967" xlink:href="#meb2ebfd190" y="44.666655"/>
     <use style="fill-opacity:0;stroke:#5e4fa2;stroke-width:0.75;" x="213.61786" xlink:href="#meb2ebfd190" y="34.765044"/>
     <use style="fill-opacity:0;stroke:#5e4fa2;stroke-width:0.75;" x="221.929752" xlink:href="#meb2ebfd190" y="6.421708"/>
     <use style="fill-opacity:0;stroke:#5e4fa2;stroke-width:0.75;" x="230.241644" xlink:href="#meb2ebfd190" y="8.192956"/>
    </g>
   </g>
   <g id="line2d_14">
    <path clip-path="url(#p54c128e183)" d="M 39.068124 117.105761 
L 47.380016 117.155422 
L 55.691908 117.302702 
L 64.003801 117.483471 
L 72.315693 117.5886 
L 80.627585 117.461157 
L 88.939477 117.359681 
L 97.251369 117.479553 
L 105.563261 116.954793 
L 113.875154 116.408823 
L 122.187046 115.934705 
L 130.498938 114.491894 
L 138.81083 111.336437 
L 147.122722 108.475323 
L 155.434614 106.058186 
L 163.746507 103.974426 
L 172.058399 102.319002 
L 180.370291 100.603941 
L 188.682183 99.296913 
L 196.994075 97.7674 
L 205.305967 96.667958 
L 213.61786 95.549545 
L 221.929752 94.793655 
L 230.241644 93.642557 
" style="fill:none;stroke:#9dc8db;stroke-dasharray:1.85,0.8;stroke-dashoffset:0;stroke-width:0.5;"/>
    <defs>
     <path d="M 0 2.5 
C 0.663008 2.5 1.29895 2.236584 1.767767 1.767767 
C 2.236584 1.29895 2.5 0.663008 2.5 0 
C 2.5 -0.663008 2.236584 -1.29895 1.767767 -1.767767 
C 1.29895 -2.236584 0.663008 -2.5 0 -2.5 
C -0.663008 -2.5 -1.29895 -2.236584 -1.767767 -1.767767 
C -2.236584 -1.29895 -2.5 -0.663008 -2.5 0 
C -2.5 0.663008 -2.236584 1.29895 -1.767767 1.767767 
C -1.29895 2.236584 -0.663008 2.5 0 2.5 
z
" id="m0af0593dd6" style="stroke:#3c93b8;stroke-width:0.75;"/>
    </defs>
    <g clip-path="url(#p54c128e183)">
     <use style="fill-opacity:0;stroke:#3c93b8;stroke-width:0.75;" x="39.068124" xlink:href="#m0af0593dd6" y="117.105761"/>
     <use style="fill-opacity:0;stroke:#3c93b8;stroke-width:0.75;" x="47.380016" xlink:href="#m0af0593dd6" y="117.155422"/>
     <use style="fill-opacity:0;stroke:#3c93b8;stroke-width:0.75;" x="55.691908" xlink:href="#m0af0593dd6" y="117.302702"/>
     <use style="fill-opacity:0;stroke:#3c93b8;stroke-width:0.75;" x="64.003801" xlink:href="#m0af0593dd6" y="117.483471"/>
     <use style="fill-opacity:0;stroke:#3c93b8;stroke-width:0.75;" x="72.315693" xlink:href="#m0af0593dd6" y="117.5886"/>
     <use style="fill-opacity:0;stroke:#3c93b8;stroke-width:0.75;" x="80.627585" xlink:href="#m0af0593dd6" y="117.461157"/>
     <use style="fill-opacity:0;stroke:#3c93b8;stroke-width:0.75;" x="88.939477" xlink:href="#m0af0593dd6" y="117.359681"/>
     <use style="fill-opacity:0;stroke:#3c93b8;stroke-width:0.75;" x="97.251369" xlink:href="#m0af0593dd6" y="117.479553"/>
     <use style="fill-opacity:0;stroke:#3c93b8;stroke-width:0.75;" x="105.563261" xlink:href="#m0af0593dd6" y="116.954793"/>
     <use style="fill-opacity:0;stroke:#3c93b8;stroke-width:0.75;" x="113.875154" xlink:href="#m0af0593dd6" y="116.408823"/>
     <use style="fill-opacity:0;stroke:#3c93b8;stroke-width:0.75;" x="122.187046" xlink:href="#m0af0593dd6" y="115.934705"/>
     <use style="fill-opacity:0;stroke:#3c93b8;stroke-width:0.75;" x="130.498938" xlink:href="#m0af0593dd6" y="114.491894"/>
     <use style="fill-opacity:0;stroke:#3c93b8;stroke-width:0.75;" x="138.81083" xlink:href="#m0af0593dd6" y="111.336437"/>
     <use style="fill-opacity:0;stroke:#3c93b8;stroke-width:0.75;" x="147.122722" xlink:href="#m0af0593dd6" y="108.475323"/>
     <use style="fill-opacity:0;stroke:#3c93b8;stroke-width:0.75;" x="155.434614" xlink:href="#m0af0593dd6" y="106.058186"/>
     <use style="fill-opacity:0;stroke:#3c93b8;stroke-width:0.75;" x="163.746507" xlink:href="#m0af0593dd6" y="103.974426"/>
     <use style="fill-opacity:0;stroke:#3c93b8;stroke-width:0.75;" x="172.058399" xlink:href="#m0af0593dd6" y="102.319002"/>
     <use style="fill-opacity:0;stroke:#3c93b8;stroke-width:0.75;" x="180.370291" xlink:href="#m0af0593dd6" y="100.603941"/>
     <use style="fill-opacity:0;stroke:#3c93b8;stroke-width:0.75;" x="188.682183" xlink:href="#m0af0593dd6" y="99.296913"/>
     <use style="fill-opacity:0;stroke:#3c93b8;stroke-width:0.75;" x="196.994075" xlink:href="#m0af0593dd6" y="97.7674"/>
     <use style="fill-opacity:0;stroke:#3c93b8;stroke-width:0.75;" x="205.305967" xlink:href="#m0af0593dd6" y="96.667958"/>
     <use style="fill-opacity:0;stroke:#3c93b8;stroke-width:0.75;" x="213.61786" xlink:href="#m0af0593dd6" y="95.549545"/>
     <use style="fill-opacity:0;stroke:#3c93b8;stroke-width:0.75;" x="221.929752" xlink:href="#m0af0593dd6" y="94.793655"/>
     <use style="fill-opacity:0;stroke:#3c93b8;stroke-width:0.75;" x="230.241644" xlink:href="#m0af0593dd6" y="93.642557"/>
    </g>
   </g>
   <g id="patch_7">
    <path d="M 29.509448 123.251592 
L 29.509448 0.72 
" style="fill:none;stroke:#000000;stroke-linecap:square;stroke-linejoin:miter;stroke-width:0.5;"/>
   </g>
   <g id="patch_8">
    <path d="M 239.80032 123.251592 
L 239.80032 0.72 
" style="fill:none;stroke:#000000;stroke-linecap:square;stroke-linejoin:miter;stroke-width:0.5;"/>
   </g>
   <g id="patch_9">
    <path d="M 29.509448 123.251592 
L 239.80032 123.251592 
" style="fill:none;stroke:#000000;stroke-linecap:square;stroke-linejoin:miter;stroke-width:0.5;"/>
   </g>
   <g id="patch_10">
    <path d="M 29.509448 0.72 
L 239.80032 0.72 
" style="fill:none;stroke:#000000;stroke-linecap:square;stroke-linejoin:miter;stroke-width:0.5;"/>
   </g>
   <g id="text_15">
    <!-- $N_\graphene = 24$ -->
    <g transform="translate(34.579952 109.254971)scale(0.09 -0.09)">
     <use transform="scale(0.996264)" xlink:href="#CMMI12-4e"/>
     <use transform="translate(78.115119 -15.337838)scale(0.697382)" xlink:href="#SVRsymbols-73"/>
     <use transform="translate(170.655619 0)scale(0.996264)" xlink:href="#CMR17-3d"/>
     <use transform="translate(270.044417 0)scale(0.996264)" xlink:href="#CMR17-32"/>
     <use transform="translate(315.734894 0)scale(0.996264)" xlink:href="#CMR17-34"/>
    </g>
   </g>
   <g id="text_16">
    <!-- $L_z = \SI{10}{\angstrom}$ -->
    <g transform="translate(195.078682 109.254971)scale(0.09 -0.09)">
     <defs>
      <path d="M 2349 3860 
C 2406 4102 2426 4166 2989 4166 
C 3162 4166 3206 4166 3206 4287 
C 3206 4352 3136 4352 3110 4352 
C 2982 4352 2835 4339 2707 4339 
L 1850 4339 
C 1728 4339 1587 4352 1466 4352 
C 1414 4352 1344 4352 1344 4230 
C 1344 4166 1402 4166 1498 4166 
C 1888 4166 1888 4115 1888 4045 
C 1888 4032 1888 3994 1862 3898 
L 998 472 
C 941 249 928 185 480 185 
C 358 185 294 185 294 70 
C 294 0 333 0 461 0 
L 3328 0 
C 3469 0 3475 6 3520 121 
L 4013 1478 
C 4026 1510 4038 1548 4038 1567 
C 4038 1605 4006 1631 3974 1631 
C 3968 1631 3936 1631 3923 1605 
C 3910 1599 3910 1586 3859 1465 
C 3654 905 3366 185 2285 185 
L 1670 185 
C 1581 185 1568 185 1530 191 
C 1459 198 1453 211 1453 262 
C 1453 306 1466 344 1478 402 
L 2349 3860 
z
" id="CMMI12-4c" transform="scale(0.015625)"/>
      <path d="M 813 486 
C 1088 809 1312 1015 1632 1313 
C 2016 1657 2182 1822 2272 1922 
C 2720 2371 2944 2713 2944 2764 
C 2944 2816 2893 2816 2880 2816 
C 2835 2816 2822 2790 2790 2745 
C 2630 2470 2477 2368 2310 2368 
C 2176 2368 2106 2403 1984 2547 
C 1850 2707 1741 2816 1555 2816 
C 1088 2816 806 2265 806 2127 
C 806 2107 813 2067 870 2067 
C 922 2067 928 2094 947 2140 
C 1056 2387 1363 2415 1485 2415 
C 1619 2415 1747 2387 1882 2342 
C 2125 2239 2227 2239 2291 2239 
C 2336 2239 2362 2239 2394 2246 
C 2182 1988 1837 1670 1549 1399 
L 902 783 
C 512 380 275 32 275 -13 
C 275 -52 307 -64 346 -64 
C 384 -64 390 -58 435 19 
C 538 179 742 384 979 384 
C 1114 384 1178 356 1306 211 
C 1427 70 1536 -64 1741 -64 
C 2368 -64 2726 723 2726 876 
C 2726 902 2720 942 2656 942 
C 2605 942 2598 915 2579 849 
C 2438 460 2061 336 1811 336 
C 1677 336 1549 364 1414 409 
C 1158 512 1088 512 1005 512 
C 941 512 870 512 813 486 
z
" id="CMMI12-7a" transform="scale(0.015625)"/>
      <path d="M 2086 4096 
C 1856 4053 1626 3896 1626 3613 
L 1626 3570 
C 1658 3323 1888 3136 2150 3136 
C 2413 3136 2669 3359 2669 3619 
L 2669 3667 
C 2637 3961 2406 4160 2144 4160 
C 2125 4102 2106 4096 2086 4096 
z
M 1709 3570 
L 1709 3613 
C 1709 3904 1920 4057 2157 4057 
C 2394 4057 2554 3897 2586 3680 
L 2586 3635 
C 2586 3353 2374 3200 2138 3200 
C 1901 3200 1741 3360 1709 3577 
L 1709 3570 
z
" id="SFRM3583-6" transform="scale(0.015625)"/>
      <path d="M 2323 4441 
C 2291 4524 2278 4544 2214 4544 
C 2150 4544 2138 4524 2106 4441 
L 749 580 
C 627 236 371 166 147 166 
L 147 0 
C 262 12 518 12 640 12 
C 800 12 1056 12 1210 0 
L 1210 166 
C 909 179 864 382 864 459 
C 864 516 877 548 890 586 
L 1229 1536 
L 2906 1536 
L 3290 453 
C 3322 376 3322 363 3322 338 
C 3322 166 3046 166 2925 166 
L 2925 0 
C 3110 12 3443 12 3642 12 
C 3808 12 4128 12 4282 0 
L 4282 166 
C 3942 166 3827 166 3744 402 
L 2323 4441 
z
M 2067 3924 
L 2848 1702 
L 1286 1702 
L 2067 3924 
z
" id="CMR17-41" transform="scale(0.015625)"/>
     </defs>
     <use transform="scale(0.996264)" xlink:href="#CMMI12-4c"/>
     <use transform="translate(66.370875 -14.943915)scale(0.697382)" xlink:href="#CMMI12-7a"/>
     <use transform="translate(129.37144 0)scale(0.996264)" xlink:href="#CMR17-3d"/>
     <use transform="translate(228.760237 0)scale(0.996264)" xlink:href="#CMR17-31"/>
     <use transform="translate(274.450714 0)scale(0.996264)" xlink:href="#CMR17-30"/>
     <use transform="translate(359.307246 52.703059)scale(0.356961)" xlink:href="#SFRM3583-6"/>
     <use transform="translate(336.745596 0)scale(0.996264)" xlink:href="#CMR17-41"/>
    </g>
   </g>
   <g id="text_17">
    <!-- $L_z = \SI{5.05}{\angstrom}$ -->
    <g transform="translate(187.911163 23.482856)scale(0.09 -0.09)">
     <use transform="scale(0.996264)" xlink:href="#CMMI12-4c"/>
     <use transform="translate(66.370875 -14.943915)scale(0.697382)" xlink:href="#CMMI12-7a"/>
     <use transform="translate(129.37144 0)scale(0.996264)" xlink:href="#CMR17-3d"/>
     <use transform="translate(228.760237 0)scale(0.996264)" xlink:href="#CMR17-35"/>
     <use transform="translate(274.450714 0)scale(0.996264)" xlink:href="#CMMI12-3a"/>
     <use transform="translate(301.547891 0)scale(0.996264)" xlink:href="#CMR17-30"/>
     <use transform="translate(347.238368 0)scale(0.996264)" xlink:href="#CMR17-35"/>
     <use transform="translate(432.0949 52.703059)scale(0.356961)" xlink:href="#SFRM3583-6"/>
     <use transform="translate(409.533251 0)scale(0.996264)" xlink:href="#CMR17-41"/>
    </g>
   </g>
  </g>
  <g id="axes_2">
   <g id="patch_11">
    <path d="M 49.61348 74.572881 
L 110.177251 74.572881 
L 110.177251 7.670632 
L 49.61348 7.670632 
z
" style="fill:none;"/>
   </g>
   <g id="matplotlib.axis_3">
    <g id="xtick_7">
     <g id="line2d_15">
      <g>
       <use style="stroke:#000000;stroke-width:0.5;" x="49.61348" xlink:href="#m4c05822ba3" y="74.572881"/>
      </g>
     </g>
     <g id="text_18">
      <!-- $\mathdefault{0}$ -->
      <g transform="translate(47.309635 84.799531)scale(0.09 -0.09)">
       <use transform="scale(0.996264)" xlink:href="#CMR17-30"/>
      </g>
     </g>
    </g>
    <g id="xtick_8">
     <g id="line2d_16">
      <g>
       <use style="stroke:#000000;stroke-width:0.5;" x="87.465837" xlink:href="#m4c05822ba3" y="74.572881"/>
      </g>
     </g>
     <g id="text_19">
      <!-- $\mathdefault{5}$ -->
      <g transform="translate(85.161992 84.799531)scale(0.09 -0.09)">
       <use transform="scale(0.996264)" xlink:href="#CMR17-35"/>
      </g>
     </g>
    </g>
    <g id="text_20">
     <!-- $\alabel{z}{\angstrom}$ -->
     <g transform="translate(67.960005 96.576269)scale(0.09 -0.09)">
      <use transform="scale(0.996264)" xlink:href="#CMMI12-7a"/>
      <use transform="translate(105.103162 0)scale(0.996264)" xlink:href="#CMR17-28"/>
      <use transform="translate(162.945579 52.703059)scale(0.356961)" xlink:href="#SFRM3583-6"/>
      <use transform="translate(140.38393 0)scale(0.996264)" xlink:href="#CMR17-41"/>
      <use transform="translate(209.45636 0)scale(0.996264)" xlink:href="#CMR17-29"/>
     </g>
    </g>
   </g>
   <g id="matplotlib.axis_4">
    <g id="ytick_7">
     <g id="line2d_17">
      <g>
       <use style="stroke:#000000;stroke-width:0.5;" x="49.61348" xlink:href="#m49724f6451" y="71.53187"/>
      </g>
     </g>
    </g>
    <g id="ytick_8">
     <g id="line2d_18">
      <g>
       <use style="stroke:#000000;stroke-width:0.5;" x="49.61348" xlink:href="#m49724f6451" y="49.078834"/>
      </g>
     </g>
    </g>
    <g id="ytick_9">
     <g id="line2d_19">
      <g>
       <use style="stroke:#000000;stroke-width:0.5;" x="49.61348" xlink:href="#m49724f6451" y="26.625799"/>
      </g>
     </g>
    </g>
    <g id="text_21">
     <!-- $\alabel{\rho(z)/N}{\angstrom^{-1}}$ -->
     <g transform="translate(41.371886 70.183574)rotate(-90)scale(0.09 -0.09)">
      <defs>
       <path d="M 198 -1085 
C 192 -1116 179 -1154 179 -1191 
C 179 -1287 256 -1351 352 -1351 
C 448 -1351 538 -1287 576 -1198 
C 602 -1141 781 -390 986 389 
C 1114 70 1350 -64 1600 -64 
C 2323 -64 3142 830 3142 1794 
C 3142 2477 2726 2816 2285 2816 
C 1722 2816 1037 2234 826 1385 
L 198 -1085 
z
M 1594 64 
C 1158 64 1050 568 1050 645 
C 1050 683 1210 1289 1229 1385 
C 1555 2656 2182 2687 2278 2687 
C 2566 2687 2726 2426 2726 2049 
C 2726 1724 2554 1091 2445 823 
C 2253 383 1920 64 1594 64 
z
" id="CMMI12-1a" transform="scale(0.015625)"/>
      </defs>
      <use transform="scale(0.996264)" xlink:href="#CMMI12-1a"/>
      <use transform="translate(50.314373 0)scale(0.996264)" xlink:href="#CMR17-28"/>
      <use transform="translate(85.595141 0)scale(0.996264)" xlink:href="#CMMI12-7a"/>
      <use transform="translate(135.350286 0)scale(0.996264)" xlink:href="#CMR17-29"/>
      <use transform="translate(170.631053 0)scale(0.996264)" xlink:href="#CMMI12-3d"/>
      <use transform="translate(213.986537 0)scale(0.996264)" xlink:href="#CMMI12-4e"/>
      <use transform="translate(357.856327 0)scale(0.996264)" xlink:href="#CMR17-28"/>
      <use transform="translate(415.698744 52.703059)scale(0.356961)" xlink:href="#SFRM3583-6"/>
      <use transform="translate(393.137095 0)scale(0.996264)" xlink:href="#CMR17-41"/>
      <use transform="translate(462.209524 48.338187)scale(0.697382)" xlink:href="#CMSY10-0"/>
      <use transform="translate(516.450518 48.338187)scale(0.697382)" xlink:href="#CMR17-31"/>
      <use transform="translate(548.931832 0)scale(0.996264)" xlink:href="#CMR17-29"/>
     </g>
    </g>
   </g>
   <g id="line2d_20">
    <path clip-path="url(#p9fa3e97474)" d="M 49.61348 71.53187 
L 49.992004 71.53187 
L 50.370527 71.53187 
L 50.749051 71.53187 
L 51.127574 71.53187 
L 51.506098 71.53187 
L 51.884621 71.53187 
L 52.263145 71.53187 
L 52.641669 71.53187 
L 53.020192 71.53187 
L 53.398716 71.53187 
L 53.777239 71.53187 
L 54.155763 71.53187 
L 54.534286 71.53187 
L 54.91281 71.53187 
L 55.291334 71.53187 
L 55.669857 71.53187 
L 56.048381 71.53187 
L 56.426904 71.53187 
L 56.805428 71.53187 
L 57.183951 71.53187 
L 57.562475 71.53187 
L 57.940999 71.53187 
L 58.319522 71.53187 
L 58.698046 71.53187 
L 59.076569 71.53187 
L 59.455093 71.53187 
L 59.833616 71.53187 
L 60.21214 71.53187 
L 60.590664 71.53187 
L 60.969187 71.53187 
L 61.347711 71.53187 
L 61.726234 71.53187 
L 62.104758 71.53187 
L 62.483281 71.53187 
L 62.861805 71.531801 
L 63.240329 71.531351 
L 63.618852 71.529086 
L 63.997376 71.520094 
L 64.375899 71.488398 
L 64.754423 71.390852 
L 65.132946 71.137553 
L 65.51147 70.568204 
L 65.889994 69.398381 
L 66.268517 67.27312 
L 66.647041 63.887135 
L 67.025564 58.98927 
L 67.404088 52.479456 
L 67.782611 44.742006 
L 68.161135 36.361989 
L 68.539659 27.986352 
L 68.918182 20.357009 
L 69.296706 14.855505 
L 69.675229 11.59048 
L 70.053753 10.711643 
L 70.432276 12.368484 
L 70.8108 16.274547 
L 71.189324 21.779585 
L 71.567847 28.615984 
L 71.946371 35.714633 
L 72.324894 42.931281 
L 72.703418 49.692348 
L 73.081941 55.615866 
L 73.460465 60.620759 
L 73.838988 64.633674 
L 74.217512 67.688817 
L 74.596036 69.879927 
L 74.974559 71.115613 
L 75.353083 71.498563 
L 75.731606 71.531706 
L 76.11013 71.53187 
L 76.488653 71.53187 
L 76.867177 71.53187 
L 77.245701 71.53187 
L 77.624224 71.53187 
L 78.002748 71.53187 
L 78.381271 71.53187 
L 78.759795 71.53187 
L 79.138318 71.53187 
L 79.516842 71.53187 
L 79.895366 71.53187 
L 80.273889 71.53187 
L 80.652413 71.53187 
L 81.030936 71.53187 
L 81.40946 71.53187 
L 81.787983 71.53187 
L 82.166507 71.53187 
L 82.545031 71.53187 
L 82.923554 71.53187 
L 83.302078 71.53187 
L 83.680601 71.53187 
L 84.059125 71.53187 
L 84.437648 71.53187 
L 84.816172 71.53187 
L 85.194696 71.53187 
L 85.573219 71.53187 
L 85.951743 71.53187 
L 86.330266 71.53187 
L 86.70879 71.53187 
L 87.087313 71.53187 
L 87.465837 71.53187 
" style="fill:none;stroke:#5e4fa2;stroke-linecap:square;stroke-width:0.75;"/>
   </g>
   <g id="line2d_21">
    <path clip-path="url(#p9fa3e97474)" d="M 49.61348 71.53187 
L 50.363032 71.53187 
L 51.112585 71.53187 
L 51.862137 71.53187 
L 52.61169 71.53187 
L 53.361242 71.53187 
L 54.110787 71.53187 
L 54.860339 71.53187 
L 55.609891 71.53187 
L 56.359444 71.53187 
L 57.108996 71.53187 
L 57.858549 71.53187 
L 58.608101 71.53187 
L 59.357653 71.53187 
L 60.107206 71.53187 
L 60.856758 71.53187 
L 61.606303 71.53187 
L 62.355855 71.531856 
L 63.105408 71.531436 
L 63.85496 71.521382 
L 64.604512 71.409976 
L 65.354065 70.757387 
L 66.103617 68.292881 
L 66.853169 62.077696 
L 67.602722 51.354278 
L 68.352274 37.974053 
L 69.101819 26.323196 
L 69.851371 20.311026 
L 70.600924 21.153037 
L 71.350476 27.585991 
L 72.100029 36.919263 
L 72.849581 46.399944 
L 73.599133 54.496564 
L 74.348686 60.653084 
L 75.098238 64.967672 
L 75.84779 67.693191 
L 76.597335 69.375434 
L 77.346888 70.357839 
L 78.09644 70.916289 
L 78.845992 71.212073 
L 79.595545 71.367792 
L 80.345096 71.453028 
L 81.094648 71.494578 
L 81.8442 71.514209 
L 82.593751 71.523015 
L 83.343303 71.527653 
L 84.092854 71.528948 
L 84.842406 71.530464 
L 85.591958 71.531284 
L 86.341509 71.531635 
L 87.091061 71.531815 
L 87.840613 71.53187 
L 88.590165 71.53187 
L 89.339716 71.53187 
L 90.089268 71.53187 
L 90.83882 71.53187 
L 91.588371 71.53187 
L 92.337923 71.53187 
L 93.087474 71.53187 
L 93.837026 71.53187 
L 94.586578 71.53187 
L 95.336129 71.53187 
L 96.085682 71.53187 
L 96.835234 71.53187 
L 97.584786 71.53187 
L 98.334339 71.53187 
L 99.083884 71.53187 
L 99.833436 71.53187 
L 100.582988 71.53187 
L 101.332541 71.53187 
L 102.082093 71.53187 
L 102.831645 71.53187 
L 103.581198 71.53187 
L 104.33075 71.53187 
L 105.080303 71.53187 
L 105.829855 71.53187 
L 106.5794 71.53187 
L 107.328952 71.53187 
L 108.078505 71.53187 
L 108.828057 71.53187 
L 109.577609 71.53187 
L 110.327162 71.53187 
L 111.076714 71.53187 
L 111.826266 71.53187 
L 112.575819 71.53187 
L 113.325371 71.53187 
L 114.074916 71.53187 
L 114.824468 71.53187 
L 115.574021 71.53187 
L 116.323573 71.53187 
L 117.073125 71.53187 
L 117.822678 71.53187 
L 118.57223 71.53187 
L 119.321783 71.53187 
L 120.071335 71.53187 
L 120.820887 71.53187 
L 121.570432 71.53187 
L 122.319984 71.53187 
L 123.069537 71.53187 
L 123.819089 71.53187 
L 124.568642 71.53187 
" style="fill:none;stroke:#3c93b8;stroke-linecap:square;stroke-width:0.75;"/>
   </g>
   <g id="patch_12">
    <path d="M 49.61348 74.572881 
L 49.61348 7.670632 
" style="fill:none;stroke:#000000;stroke-linecap:square;stroke-linejoin:miter;stroke-width:0.5;"/>
   </g>
   <g id="patch_13">
    <path d="M 110.177251 74.572881 
L 110.177251 7.670632 
" style="fill:none;stroke:#000000;stroke-linecap:square;stroke-linejoin:miter;stroke-width:0.5;"/>
   </g>
   <g id="patch_14">
    <path d="M 49.61348 74.572881 
L 110.177251 74.572881 
" style="fill:none;stroke:#000000;stroke-linecap:square;stroke-linejoin:miter;stroke-width:0.5;"/>
   </g>
   <g id="patch_15">
    <path d="M 49.61348 7.670632 
L 110.177251 7.670632 
" style="fill:none;stroke:#000000;stroke-linecap:square;stroke-linejoin:miter;stroke-width:0.5;"/>
   </g>
   <g id="text_22">
    <!-- $f = 1/3$ -->
    <g transform="translate(75.590512 15.464375)scale(0.09 -0.09)">
     <defs>
      <path d="M 1414 2176 
C 1984 2176 2234 1673 2234 1094 
C 2234 322 1824 25 1453 25 
C 1114 25 563 193 390 691 
C 422 678 454 678 486 678 
C 640 678 755 780 755 947 
C 755 1132 614 1216 486 1216 
C 378 1216 211 1164 211 927 
C 211 335 787 -128 1466 -128 
C 2176 -128 2720 432 2720 1087 
C 2720 1718 2208 2176 1600 2246 
C 2086 2347 2554 2776 2554 3353 
C 2554 3856 2048 4224 1472 4224 
C 890 4224 378 3862 378 3347 
C 378 3123 544 3084 627 3084 
C 762 3084 877 3167 877 3334 
C 877 3500 762 3584 627 3584 
C 602 3584 570 3584 544 3571 
C 730 3999 1235 4076 1459 4076 
C 1683 4076 2106 3966 2106 3347 
C 2106 3167 2080 2851 1862 2574 
C 1670 2329 1453 2316 1242 2297 
C 1210 2297 1062 2284 1037 2284 
C 992 2278 966 2272 966 2227 
C 966 2182 973 2176 1101 2176 
L 1414 2176 
z
" id="CMR17-33" transform="scale(0.015625)"/>
     </defs>
     <use transform="scale(0.996264)" xlink:href="#CMMI12-66"/>
     <use transform="translate(86.394314 0)scale(0.996264)" xlink:href="#CMR17-3d"/>
     <use transform="translate(185.783111 0)scale(0.996264)" xlink:href="#CMR17-31"/>
     <use transform="translate(231.473588 0)scale(0.996264)" xlink:href="#CMMI12-3d"/>
     <use transform="translate(280.248507 0)scale(0.996264)" xlink:href="#CMR17-33"/>
    </g>
   </g>
   <g id="text_23">
    <!-- $f = 1/3$ -->
    <g transform="translate(75.590512 15.464375)scale(0.09 -0.09)">
     <use transform="scale(0.996264)" xlink:href="#CMMI12-66"/>
     <use transform="translate(86.394314 0)scale(0.996264)" xlink:href="#CMR17-3d"/>
     <use transform="translate(185.783111 0)scale(0.996264)" xlink:href="#CMR17-31"/>
     <use transform="translate(231.473588 0)scale(0.996264)" xlink:href="#CMMI12-3d"/>
     <use transform="translate(280.248507 0)scale(0.996264)" xlink:href="#CMR17-33"/>
    </g>
   </g>
  </g>
  <g id="axes_3">
   <g id="patch_16">
    <path d="M 114.80365 74.572881 
L 175.367421 74.572881 
L 175.367421 7.670632 
L 114.80365 7.670632 
z
" style="fill:none;"/>
   </g>
   <g id="matplotlib.axis_5">
    <g id="xtick_9">
     <g id="line2d_22">
      <g>
       <use style="stroke:#000000;stroke-width:0.5;" x="114.80365" xlink:href="#m4c05822ba3" y="74.572881"/>
      </g>
     </g>
     <g id="text_24">
      <!-- $\mathdefault{0}$ -->
      <g transform="translate(112.499805 84.799531)scale(0.09 -0.09)">
       <use transform="scale(0.996264)" xlink:href="#CMR17-30"/>
      </g>
     </g>
    </g>
    <g id="xtick_10">
     <g id="line2d_23">
      <g>
       <use style="stroke:#000000;stroke-width:0.5;" x="152.656007" xlink:href="#m4c05822ba3" y="74.572881"/>
      </g>
     </g>
     <g id="text_25">
      <!-- $\mathdefault{5}$ -->
      <g transform="translate(150.352162 84.799531)scale(0.09 -0.09)">
       <use transform="scale(0.996264)" xlink:href="#CMR17-35"/>
      </g>
     </g>
    </g>
    <g id="text_26">
     <!-- $\alabel{z}{\angstrom}$ -->
     <g transform="translate(133.150176 96.576269)scale(0.09 -0.09)">
      <use transform="scale(0.996264)" xlink:href="#CMMI12-7a"/>
      <use transform="translate(105.103162 0)scale(0.996264)" xlink:href="#CMR17-28"/>
      <use transform="translate(162.945579 52.703059)scale(0.356961)" xlink:href="#SFRM3583-6"/>
      <use transform="translate(140.38393 0)scale(0.996264)" xlink:href="#CMR17-41"/>
      <use transform="translate(209.45636 0)scale(0.996264)" xlink:href="#CMR17-29"/>
     </g>
    </g>
   </g>
   <g id="matplotlib.axis_6">
    <g id="ytick_10">
     <g id="line2d_24">
      <g>
       <use style="stroke:#000000;stroke-width:0.5;" x="114.80365" xlink:href="#m49724f6451" y="71.53187"/>
      </g>
     </g>
    </g>
    <g id="ytick_11">
     <g id="line2d_25">
      <g>
       <use style="stroke:#000000;stroke-width:0.5;" x="114.80365" xlink:href="#m49724f6451" y="40.175463"/>
      </g>
     </g>
    </g>
    <g id="ytick_12">
     <g id="line2d_26">
      <g>
       <use style="stroke:#000000;stroke-width:0.5;" x="114.80365" xlink:href="#m49724f6451" y="8.819056"/>
      </g>
     </g>
    </g>
   </g>
   <g id="line2d_27">
    <path clip-path="url(#pab4ba08d5d)" d="M 114.80365 71.53187 
L 115.182174 71.53187 
L 115.560697 71.53187 
L 115.939221 71.53187 
L 116.317745 71.53187 
L 116.696268 71.53187 
L 117.074792 71.53187 
L 117.453315 71.53187 
L 117.831839 71.53187 
L 118.210362 71.53187 
L 118.588886 71.53187 
L 118.96741 71.53187 
L 119.345933 71.53187 
L 119.724457 71.53187 
L 120.10298 71.53187 
L 120.481504 71.53187 
L 120.860027 71.53187 
L 121.238551 71.53187 
L 121.617075 71.53187 
L 121.995598 71.53187 
L 122.374122 71.53187 
L 122.752645 71.53187 
L 123.131169 71.53187 
L 123.509692 71.53187 
L 123.888216 71.53187 
L 124.26674 71.53187 
L 124.645263 71.53187 
L 125.023787 71.53187 
L 125.40231 71.53187 
L 125.780834 71.53187 
L 126.159357 71.53187 
L 126.537881 71.53187 
L 126.916405 71.53187 
L 127.294928 71.53187 
L 127.673452 71.531692 
L 128.051975 71.528184 
L 128.430499 71.503804 
L 128.809022 71.406018 
L 129.187546 71.135708 
L 129.56607 70.462663 
L 129.944593 68.949778 
L 130.323117 66.170692 
L 130.70164 61.967671 
L 131.080164 55.917684 
L 131.458687 48.530445 
L 131.837211 40.01427 
L 132.215735 31.524918 
L 132.594258 24.273344 
L 132.972782 18.291923 
L 133.351305 14.099604 
L 133.729829 11.459515 
L 134.108352 10.711643 
L 134.486876 10.886655 
L 134.8654 12.096368 
L 135.243923 14.306056 
L 135.622447 16.449354 
L 136.00097 18.241609 
L 136.379494 21.373648 
L 136.758017 24.259889 
L 137.136541 27.933258 
L 137.515065 32.197652 
L 137.893588 36.88725 
L 138.272112 42.035891 
L 138.650635 47.986582 
L 139.029159 54.431266 
L 139.407682 60.342523 
L 139.786206 65.880043 
L 140.16473 69.865999 
L 140.543253 71.385679 
L 140.921777 71.530981 
L 141.3003 71.53187 
L 141.678824 71.53187 
L 142.057347 71.53187 
L 142.435871 71.53187 
L 142.814395 71.53187 
L 143.192918 71.53187 
L 143.571442 71.53187 
L 143.949965 71.53187 
L 144.328489 71.53187 
L 144.707012 71.53187 
L 145.085536 71.53187 
L 145.464059 71.53187 
L 145.842583 71.53187 
L 146.221107 71.53187 
L 146.59963 71.53187 
L 146.978154 71.53187 
L 147.356677 71.53187 
L 147.735201 71.53187 
L 148.113724 71.53187 
L 148.492248 71.53187 
L 148.870772 71.53187 
L 149.249295 71.53187 
L 149.627819 71.53187 
L 150.006342 71.53187 
L 150.384866 71.53187 
L 150.763389 71.53187 
L 151.141913 71.53187 
L 151.520437 71.53187 
L 151.89896 71.53187 
L 152.277484 71.53187 
L 152.656007 71.53187 
" style="fill:none;stroke:#5e4fa2;stroke-linecap:square;stroke-width:0.75;"/>
   </g>
   <g id="line2d_28">
    <path clip-path="url(#pab4ba08d5d)" d="M 114.80365 71.53187 
L 115.553203 71.53187 
L 116.302755 71.53187 
L 117.052307 71.53187 
L 117.80186 71.53187 
L 118.551412 71.53187 
L 119.300957 71.53187 
L 120.050509 71.53187 
L 120.800062 71.53187 
L 121.549614 71.53187 
L 122.299167 71.53187 
L 123.048719 71.53187 
L 123.798271 71.53187 
L 124.547824 71.53187 
L 125.297376 71.53187 
L 126.046928 71.53187 
L 126.796473 71.53187 
L 127.546026 71.53187 
L 128.295578 71.531679 
L 129.04513 71.523736 
L 129.794683 71.420977 
L 130.544235 70.842445 
L 131.293787 68.660249 
L 132.04334 63.284296 
L 132.792892 54.00317 
L 133.542445 42.745055 
L 134.291989 32.718378 
L 135.041542 27.734498 
L 135.791094 28.380438 
L 136.540646 33.844886 
L 137.290199 41.573656 
L 138.039751 49.563521 
L 138.789304 56.24352 
L 139.538856 61.526493 
L 140.288408 65.236191 
L 141.037961 67.725448 
L 141.787505 69.263635 
L 142.537058 70.203636 
L 143.28661 70.750229 
L 144.036163 71.064851 
L 144.785715 71.253958 
L 145.535267 71.357408 
L 146.284818 71.414584 
L 147.03437 71.4309 
L 147.783921 71.40199 
L 148.533473 71.321939 
L 149.283025 71.127179 
L 150.032576 70.758983 
L 150.782128 70.099303 
L 151.53168 69.045738 
L 152.281232 67.555948 
L 153.030783 65.701469 
L 153.780335 63.649629 
L 154.529887 61.545695 
L 155.279438 59.615268 
L 156.02899 58.098929 
L 156.778542 57.170616 
L 157.528093 56.881088 
L 158.277645 57.179895 
L 159.027196 57.985365 
L 159.776748 59.141761 
L 160.5263 60.558775 
L 161.275852 61.901773 
L 162.025404 63.348198 
L 162.774957 64.727429 
L 163.524509 65.92032 
L 164.274054 66.974172 
L 165.023606 67.907995 
L 165.773159 68.605578 
L 166.522711 69.218505 
L 167.272263 69.787902 
L 168.021816 70.183838 
L 168.771368 70.49555 
L 169.520921 70.734438 
L 170.270473 70.942675 
L 171.020025 71.091829 
L 171.76957 71.203222 
L 172.519122 71.309774 
L 173.268675 71.377111 
L 174.018227 71.437984 
L 174.76778 71.474909 
L 175.517332 71.500956 
L 176.266884 71.518202 
L 177.016437 71.527576 
L 177.765989 71.531512 
L 178.515541 71.53187 
L 179.265086 71.53187 
L 180.014639 71.53187 
L 180.764191 71.53187 
L 181.513743 71.53187 
L 182.263296 71.53187 
L 183.012848 71.53187 
L 183.7624 71.53187 
L 184.511953 71.53187 
L 185.261505 71.53187 
L 186.011058 71.53187 
L 186.760602 71.53187 
L 187.510155 71.53187 
L 188.259707 71.53187 
L 189.00926 71.53187 
L 189.758812 71.53187 
" style="fill:none;stroke:#3c93b8;stroke-linecap:square;stroke-width:0.75;"/>
   </g>
   <g id="patch_17">
    <path d="M 114.80365 74.572881 
L 114.80365 7.670632 
" style="fill:none;stroke:#000000;stroke-linecap:square;stroke-linejoin:miter;stroke-width:0.5;"/>
   </g>
   <g id="patch_18">
    <path d="M 175.367421 74.572881 
L 175.367421 7.670632 
" style="fill:none;stroke:#000000;stroke-linecap:square;stroke-linejoin:miter;stroke-width:0.5;"/>
   </g>
   <g id="patch_19">
    <path d="M 114.80365 74.572881 
L 175.367421 74.572881 
" style="fill:none;stroke:#000000;stroke-linecap:square;stroke-linejoin:miter;stroke-width:0.5;"/>
   </g>
   <g id="patch_20">
    <path d="M 114.80365 7.670632 
L 175.367421 7.670632 
" style="fill:none;stroke:#000000;stroke-linecap:square;stroke-linejoin:miter;stroke-width:0.5;"/>
   </g>
   <g id="text_27">
    <!-- $f = 1$ -->
    <g transform="translate(149.996064 15.962507)scale(0.09 -0.09)">
     <use transform="scale(0.996264)" xlink:href="#CMMI12-66"/>
     <use transform="translate(86.394314 0)scale(0.996264)" xlink:href="#CMR17-3d"/>
     <use transform="translate(185.783111 0)scale(0.996264)" xlink:href="#CMR17-31"/>
    </g>
   </g>
   <g id="text_28">
    <!-- $f = 1$ -->
    <g transform="translate(149.996064 15.962507)scale(0.09 -0.09)">
     <use transform="scale(0.996264)" xlink:href="#CMMI12-66"/>
     <use transform="translate(86.394314 0)scale(0.996264)" xlink:href="#CMR17-3d"/>
     <use transform="translate(185.783111 0)scale(0.996264)" xlink:href="#CMR17-31"/>
    </g>
   </g>
  </g>
 </g>
 <defs>
  <clipPath id="p54c128e183">
   <rect height="122.531592" width="210.290872" x="29.509448" y="0.72"/>
  </clipPath>
  <clipPath id="p9fa3e97474">
   <rect height="66.902249" width="60.563771" x="49.61348" y="7.670632"/>
  </clipPath>
  <clipPath id="pab4ba08d5d">
   <rect height="66.902249" width="60.563771" x="114.80365" y="7.670632"/>
  </clipPath>
 </defs>
</svg>
