<?xml version="1.0" encoding="utf-8" standalone="no"?>
<!DOCTYPE svg PUBLIC "-//W3C//DTD SVG 1.1//EN"
  "http://www.w3.org/Graphics/SVG/1.1/DTD/svg11.dtd">
<!-- Created with matplotlib (https://matplotlib.org/) -->
<svg height="146.90808pt" version="1.1" viewBox="0 0 240.52032 146.90808" width="240.52032pt" xmlns="http://www.w3.org/2000/svg" xmlns:xlink="http://www.w3.org/1999/xlink">
 <metadata>
  <rdf:RDF xmlns:cc="http://creativecommons.org/ns#" xmlns:dc="http://purl.org/dc/elements/1.1/" xmlns:rdf="http://www.w3.org/1999/02/22-rdf-syntax-ns#">
   <cc:Work>
    <dc:type rdf:resource="http://purl.org/dc/dcmitype/StillImage"/>
    <dc:date>2021-05-19T22:00:41.770547</dc:date>
    <dc:format>image/svg+xml</dc:format>
    <dc:creator>
     <cc:Agent>
      <dc:title>Matplotlib v3.3.4, https://matplotlib.org/</dc:title>
     </cc:Agent>
    </dc:creator>
   </cc:Work>
  </rdf:RDF>
 </metadata>
 <defs>
  <style type="text/css">*{stroke-linecap:butt;stroke-linejoin:round;}</style>
 </defs>
 <g id="figure_1">
  <g id="patch_1">
   <path d="M 0 146.90808 
L 240.52032 146.90808 
L 240.52032 0 
L 0 0 
z
" style="fill:none;"/>
  </g>
  <g id="axes_1">
   <g id="patch_2">
    <path d="M 29.509448 123.251592 
L 239.80032 123.251592 
L 239.80032 0.72 
L 29.509448 0.72 
z
" style="fill:none;"/>
   </g>
   <g id="patch_3">
    <path d="M 109.976519 74.562761 
Q 103.900151 94.877407 97.823783 115.192053 
" style="fill:none;opacity:0.5;stroke:#808080;stroke-dasharray:0.5,0.825;stroke-dashoffset:0;stroke-linecap:round;stroke-width:0.5;"/>
   </g>
   <g id="patch_4">
    <path d="M 50.200175 74.871094 
Q 72.980546 95.319489 95.760917 115.767883 
" style="fill:none;opacity:0.5;stroke:#808080;stroke-dasharray:0.5,0.825;stroke-dashoffset:0;stroke-linecap:round;stroke-width:0.5;"/>
   </g>
   <g id="patch_5">
    <path d="M 176.264184 74.209671 
Q 202.312328 83.587486 228.360472 92.9653 
" style="fill:none;opacity:0.5;stroke:#808080;stroke-dasharray:0.5,0.825;stroke-dashoffset:0;stroke-linecap:round;stroke-width:0.5;"/>
   </g>
   <g id="patch_6">
    <path d="M 176.386914 7.746803 
Q 202.313378 7.961588 228.239842 8.176373 
" style="fill:none;opacity:0.5;stroke:#808080;stroke-dasharray:0.5,0.825;stroke-dashoffset:0;stroke-linecap:round;stroke-width:0.5;"/>
   </g>
   <g id="matplotlib.axis_1">
    <g id="xtick_1">
     <g id="line2d_1">
      <defs>
       <path d="M 0 0 
L 0 2 
" id="me91b5c18cf" style="stroke:#000000;stroke-width:0.5;"/>
      </defs>
      <g>
       <use style="stroke:#000000;stroke-width:0.5;" x="30.756232" xlink:href="#me91b5c18cf" y="123.251592"/>
      </g>
     </g>
     <g id="text_1">
      <!-- $\mathdefault{0.0}$ -->
      <g transform="translate(24.868627 133.478242)scale(0.09 -0.09)">
       <defs>
        <path d="M 42 31.84375 
C 42 37.96875 41.90625 48.421875 37.703125 56.453125 
C 34 63.484375 28.09375 66 22.90625 66 
C 18.09375 66 12 63.78125 8.203125 56.5625 
C 4.203125 49.015625 3.796875 39.671875 3.796875 31.84375 
C 3.796875 26.109375 3.90625 17.375 7 9.734375 
C 11.296875 -0.609375 19 -2 22.90625 -2 
C 27.5 -2 34.5 -0.109375 38.59375 9.4375 
C 41.59375 16.375 42 24.5 42 31.84375 
z
M 22.90625 -0.40625 
C 16.5 -0.40625 12.703125 5.125 11.296875 12.75 
C 10.203125 18.6875 10.203125 27.328125 10.203125 32.953125 
C 10.203125 40.6875 10.203125 47.109375 11.5 53.234375 
C 13.40625 61.78125 19 64.390625 22.90625 64.390625 
C 27 64.390625 32.296875 61.671875 34.203125 53.4375 
C 35.5 47.71875 35.59375 40.984375 35.59375 32.953125 
C 35.59375 26.421875 35.59375 18.375 34.40625 12.453125 
C 32.296875 1.5 26.40625 -0.40625 22.90625 -0.40625 
z
" id="CMR17-48"/>
        <path d="M 18.40625 4.796875 
C 18.40625 7.6875 16 9.6875 13.59375 9.6875 
C 10.703125 9.6875 8.703125 7.296875 8.703125 4.890625 
C 8.703125 2 11.09375 0 13.5 0 
C 16.40625 0 18.40625 2.390625 18.40625 4.796875 
z
" id="CMMI12-58"/>
       </defs>
       <use transform="scale(0.996264)" xlink:href="#CMR17-48"/>
       <use transform="translate(45.690477 0)scale(0.996264)" xlink:href="#CMMI12-58"/>
       <use transform="translate(72.787654 0)scale(0.996264)" xlink:href="#CMR17-48"/>
      </g>
     </g>
    </g>
    <g id="xtick_2">
     <g id="line2d_2">
      <g>
       <use style="stroke:#000000;stroke-width:0.5;" x="70.653314" xlink:href="#me91b5c18cf" y="123.251592"/>
      </g>
     </g>
     <g id="text_2">
      <!-- $\mathdefault{0.2}$ -->
      <g transform="translate(64.76571 133.478242)scale(0.09 -0.09)">
       <defs>
        <path d="M 41.703125 15.46875 
L 39.90625 15.46875 
C 38.90625 8.390625 38.09375 7.1875 37.703125 6.59375 
C 37.203125 5.796875 30 5.796875 28.59375 5.796875 
L 9.40625 5.796875 
C 13 9.6875 20 16.765625 28.5 24.9375 
C 34.59375 30.71875 41.703125 37.5 41.703125 47.390625 
C 41.703125 59.1875 32.296875 66 21.796875 66 
C 10.796875 66 4.09375 56.296875 4.09375 47.296875 
C 4.09375 43.390625 7 42.890625 8.203125 42.890625 
C 9.203125 42.890625 12.203125 43.484375 12.203125 46.984375 
C 12.203125 50.09375 9.59375 51 8.203125 51 
C 7.59375 51 7 50.890625 6.59375 50.6875 
C 8.5 59.1875 14.296875 63.390625 20.40625 63.390625 
C 29.09375 63.390625 34.796875 56.5 34.796875 47.390625 
C 34.796875 38.703125 29.703125 31.21875 24 24.734375 
L 4.09375 2.296875 
L 4.09375 0 
L 39.296875 0 
z
" id="CMR17-50"/>
       </defs>
       <use transform="scale(0.996264)" xlink:href="#CMR17-48"/>
       <use transform="translate(45.690477 0)scale(0.996264)" xlink:href="#CMMI12-58"/>
       <use transform="translate(72.787654 0)scale(0.996264)" xlink:href="#CMR17-50"/>
      </g>
     </g>
    </g>
    <g id="xtick_3">
     <g id="line2d_3">
      <g>
       <use style="stroke:#000000;stroke-width:0.5;" x="110.550397" xlink:href="#me91b5c18cf" y="123.251592"/>
      </g>
     </g>
     <g id="text_3">
      <!-- $\mathdefault{0.4}$ -->
      <g transform="translate(104.662792 133.478242)scale(0.09 -0.09)">
       <defs>
        <path d="M 33.59375 64.796875 
C 33.59375 66.890625 33.5 67 31.703125 67 
L 2 19.59375 
L 2 17 
L 27.796875 17 
L 27.796875 7.1875 
C 27.796875 3.59375 27.59375 2.59375 20.59375 2.59375 
L 18.703125 2.59375 
L 18.703125 0 
C 21.90625 0.1875 27.296875 0.1875 30.703125 0.1875 
C 34.09375 0.1875 39.5 0.1875 42.703125 0 
L 42.703125 2.59375 
L 40.796875 2.59375 
C 33.796875 2.59375 33.59375 3.59375 33.59375 7.1875 
L 33.59375 17 
L 43.796875 17 
L 43.796875 19.59375 
L 33.59375 19.59375 
z
M 28.09375 58.171875 
L 28.09375 19.59375 
L 4 19.59375 
z
" id="CMR17-52"/>
       </defs>
       <use transform="scale(0.996264)" xlink:href="#CMR17-48"/>
       <use transform="translate(45.690477 0)scale(0.996264)" xlink:href="#CMMI12-58"/>
       <use transform="translate(72.787654 0)scale(0.996264)" xlink:href="#CMR17-52"/>
      </g>
     </g>
    </g>
    <g id="xtick_4">
     <g id="line2d_4">
      <g>
       <use style="stroke:#000000;stroke-width:0.5;" x="150.447479" xlink:href="#me91b5c18cf" y="123.251592"/>
      </g>
     </g>
     <g id="text_4">
      <!-- $\mathdefault{0.6}$ -->
      <g transform="translate(144.559874 133.478242)scale(0.09 -0.09)">
       <defs>
        <path d="M 10.59375 34.34375 
C 10.59375 58 21.796875 63.6875 28.296875 63.6875 
C 30.40625 63.6875 35.5 63.265625 37.5 59.09375 
C 35.90625 59.09375 32.90625 59.09375 32.90625 55.59375 
C 32.90625 52.890625 35.09375 52 36.5 52 
C 37.40625 52 40.09375 52.390625 40.09375 55.796875 
C 40.09375 62.296875 35.09375 66 28.203125 66 
C 16.296875 66 3.796875 53.296875 3.796875 31.421875 
C 3.796875 4.015625 15.09375 -2 23.09375 -2 
C 32.796875 -2 42 6.734375 42 20.234375 
C 42 32.828125 33.90625 42 23.703125 42 
C 17.59375 42 13.09375 37.96875 10.59375 30.921875 
z
M 23.09375 0.390625 
C 10.796875 0.390625 10.796875 18.9375 10.796875 22.65625 
C 10.796875 29.90625 14.203125 40.390625 23.5 40.390625 
C 25.203125 40.390625 30.09375 40.390625 33.40625 33.4375 
C 35.203125 29.515625 35.203125 25.375 35.203125 20.34375 
C 35.203125 14.90625 35.203125 10.875 33.09375 6.84375 
C 30.90625 2.703125 27.703125 0.390625 23.09375 0.390625 
z
" id="CMR17-54"/>
       </defs>
       <use transform="scale(0.996264)" xlink:href="#CMR17-48"/>
       <use transform="translate(45.690477 0)scale(0.996264)" xlink:href="#CMMI12-58"/>
       <use transform="translate(72.787654 0)scale(0.996264)" xlink:href="#CMR17-54"/>
      </g>
     </g>
    </g>
    <g id="xtick_5">
     <g id="line2d_5">
      <g>
       <use style="stroke:#000000;stroke-width:0.5;" x="190.344562" xlink:href="#me91b5c18cf" y="123.251592"/>
      </g>
     </g>
     <g id="text_5">
      <!-- $\mathdefault{0.8}$ -->
      <g transform="translate(184.456957 133.478242)scale(0.09 -0.09)">
       <defs>
        <path d="M 27.203125 35.765625 
C 33.5 38.96875 39.90625 43.796875 39.90625 51.53125 
C 39.90625 60.6875 31.09375 66 23 66 
C 13.90625 66 5.90625 59.375 5.90625 50.234375 
C 5.90625 47.71875 6.5 43.390625 10.40625 39.578125 
C 11.40625 38.578125 15.59375 35.5625 18.296875 33.65625 
C 13.796875 31.34375 3.296875 25.8125 3.296875 14.765625 
C 3.296875 4.40625 13.09375 -2 22.796875 -2 
C 33.5 -2 42.5 5.71875 42.5 15.96875 
C 42.5 25.109375 36.40625 29.328125 32.40625 32.046875 
z
M 14.09375 44.609375 
C 13.296875 45.109375 9.296875 48.21875 9.296875 52.9375 
C 9.296875 59.078125 15.59375 63.6875 22.796875 63.6875 
C 30.703125 63.6875 36.5 58.0625 36.5 51.53125 
C 36.5 42.1875 26.09375 36.859375 25.59375 36.859375 
C 25.5 36.859375 25.40625 36.859375 24.59375 37.46875 
z
M 32.5 24 
C 34 22.90625 38.796875 19.578125 38.796875 13.453125 
C 38.796875 6.015625 31.40625 0.390625 23 0.390625 
C 13.90625 0.390625 7 6.921875 7 14.859375 
C 7 22.796875 13.09375 29.4375 20 32.546875 
z
" id="CMR17-56"/>
       </defs>
       <use transform="scale(0.996264)" xlink:href="#CMR17-48"/>
       <use transform="translate(45.690477 0)scale(0.996264)" xlink:href="#CMMI12-58"/>
       <use transform="translate(72.787654 0)scale(0.996264)" xlink:href="#CMR17-56"/>
      </g>
     </g>
    </g>
    <g id="xtick_6">
     <g id="line2d_6">
      <g>
       <use style="stroke:#000000;stroke-width:0.5;" x="230.241644" xlink:href="#me91b5c18cf" y="123.251592"/>
      </g>
     </g>
     <g id="text_6">
      <!-- $\mathdefault{1.0}$ -->
      <g transform="translate(224.354039 133.478242)scale(0.09 -0.09)">
       <defs>
        <path d="M 26.59375 63.796875 
C 26.59375 65.890625 26.5 66 25.09375 66 
C 21.203125 61.359375 15.296875 59.890625 9.703125 59.6875 
C 9.40625 59.6875 8.90625 59.6875 8.796875 59.5 
C 8.703125 59.296875 8.703125 59.09375 8.703125 57 
C 11.796875 57 17 57.59375 21 59.984375 
L 21 7.296875 
C 21 3.796875 20.796875 2.59375 12.203125 2.59375 
L 9.203125 2.59375 
L 9.203125 0 
C 14 0.09375 19 0.1875 23.796875 0.1875 
C 28.59375 0.1875 33.59375 0.09375 38.40625 0 
L 38.40625 2.59375 
L 35.40625 2.59375 
C 26.796875 2.59375 26.59375 3.6875 26.59375 7.296875 
z
" id="CMR17-49"/>
       </defs>
       <use transform="scale(0.996264)" xlink:href="#CMR17-49"/>
       <use transform="translate(45.690477 0)scale(0.996264)" xlink:href="#CMMI12-58"/>
       <use transform="translate(72.787654 0)scale(0.996264)" xlink:href="#CMR17-48"/>
      </g>
     </g>
    </g>
    <g id="text_7">
     <!-- Filling Fraction  $f = N/N_\graphene$ -->
     <g transform="translate(80.738069 143.946486)scale(0.09 -0.09)">
      <defs>
       <path d="M 54.40625 67.796875 
L 5.09375 67.796875 
L 5.09375 65.1875 
C 12 65.1875 13.09375 65.1875 13.09375 60.671875 
L 13.09375 7.03125 
C 13.09375 2.59375 12 2.59375 5.09375 2.59375 
L 5.09375 0 
C 8 0.1875 13.59375 0.1875 16.703125 0.1875 
C 20.796875 0.1875 25.59375 0.1875 29.703125 0 
L 29.703125 2.59375 
L 27.5 2.59375 
C 19.90625 2.59375 19.703125 3.578125 19.703125 7.125 
L 19.703125 32.390625 
L 28.703125 32.390625 
C 38 32.390625 38.90625 29.140625 38.90625 20.84375 
L 40.703125 20.84375 
L 40.703125 46.734375 
L 38.90625 46.734375 
C 38.90625 38.296875 38 35 28.703125 35 
L 19.703125 35 
L 19.703125 61.28125 
C 19.703125 64.6875 19.90625 65.1875 23.90625 65.1875 
L 36.796875 65.1875 
C 51.90625 65.1875 53.59375 58.96875 55 45.625 
L 56.796875 45.625 
z
" id="CMR17-70"/>
       <path d="M 15.5 61.890625 
C 15.5 64.09375 13.703125 66 11.40625 66 
C 9.203125 66 7.296875 64.1875 7.296875 61.890625 
C 7.296875 59.6875 9.09375 57.796875 11.40625 57.796875 
C 13.59375 57.796875 15.5 59.59375 15.5 61.890625 
z
M 3.796875 42.890625 
L 3.796875 40.296875 
C 9.40625 40.296875 10.203125 39.6875 10.203125 34.859375 
L 10.203125 6.921875 
C 10.203125 3.09375 9.796875 2.59375 3.40625 2.59375 
L 3.40625 0 
C 5.796875 0.1875 10.09375 0.1875 12.59375 0.1875 
C 15 0.1875 19.09375 0.1875 21.40625 0 
L 21.40625 2.59375 
C 15.5 2.59375 15.296875 3.203125 15.296875 6.8125 
L 15.296875 44 
z
" id="CMR17-105"/>
       <path d="M 15.296875 69 
L 3.40625 67.890625 
L 3.40625 65.296875 
C 9.296875 65.296875 10.203125 64.703125 10.203125 59.921875 
L 10.203125 6.859375 
C 10.203125 3.09375 9.796875 2.59375 3.40625 2.59375 
L 3.40625 0 
C 5.796875 0.1875 10.203125 0.1875 12.703125 0.1875 
C 15.296875 0.1875 19.703125 0.1875 22.09375 0 
L 22.09375 2.59375 
C 15.703125 2.59375 15.296875 2.984375 15.296875 6.859375 
z
" id="CMR17-108"/>
       <path d="M 41.5 30.53125 
C 41.5 35.65625 40.5 44 28.703125 44 
C 20.796875 44 16.703125 37.875 15.203125 33.84375 
L 15.09375 33.84375 
L 15.09375 44 
L 3.296875 42.890625 
L 3.296875 40.28125 
C 9.203125 40.28125 10.09375 39.6875 10.09375 34.859375 
L 10.09375 6.921875 
C 10.09375 3.09375 9.703125 2.59375 3.296875 2.59375 
L 3.296875 0 
C 5.703125 0.1875 10.09375 0.1875 12.703125 0.1875 
C 15.296875 0.1875 19.796875 0.1875 22.203125 0 
L 22.203125 2.59375 
C 15.796875 2.59375 15.40625 3 15.40625 6.921875 
L 15.40625 26.21875 
C 15.40625 35.453125 21 42.390625 28 42.390625 
C 35.40625 42.390625 36.203125 35.765625 36.203125 30.9375 
L 36.203125 6.921875 
C 36.203125 3.09375 35.796875 2.59375 29.40625 2.59375 
L 29.40625 0 
C 31.796875 0.1875 36.203125 0.1875 38.796875 0.1875 
C 41.40625 0.1875 45.90625 0.1875 48.296875 0 
L 48.296875 2.59375 
C 41.90625 2.59375 41.5 3 41.5 6.921875 
z
" id="CMR17-110"/>
       <path d="M 11.09375 18.203125 
C 13 16.6875 16.296875 15 20.296875 15 
C 28.203125 15 35 21.234375 35 29.609375 
C 35 32.234375 34.203125 36.265625 31.203125 39.390625 
C 34 42.390625 38.09375 43.390625 40.40625 43.390625 
C 40.796875 43.390625 41.40625 43.390625 41.90625 43.09375 
C 41.5 42.984375 40.59375 42.59375 40.59375 40.984375 
C 40.59375 39.6875 41.5 38.796875 42.796875 38.796875 
C 44.296875 38.796875 45.09375 39.796875 45.09375 41.09375 
C 45.09375 42.984375 43.59375 45 40.40625 45 
C 36.40625 45 32.90625 43.09375 30.09375 40.484375 
C 27.09375 43.1875 23.5 44.1875 20.296875 44.1875 
C 12.40625 44.1875 5.59375 37.984375 5.59375 29.609375 
C 5.59375 23.859375 8.90625 20.21875 9.90625 19.21875 
C 6.90625 15.6875 6.90625 11.59375 6.90625 11.09375 
C 6.90625 8.5 7.90625 4.6875 11.296875 2.59375 
C 6.09375 1.28125 2 -2.875 2 -8.078125 
C 2 -15.5625 11.5 -21 22.90625 -21 
C 33.90625 -21 43.796875 -15.765625 43.796875 -7.96875 
C 43.796875 6 29 6 21.296875 6 
C 19 6 14.90625 6 14.40625 6.09375 
C 11.296875 6.59375 9.203125 9.390625 9.203125 12.890625 
C 9.203125 13.796875 9.203125 16 11.09375 18.203125 
z
M 20.296875 16.6875 
C 11.5 16.6875 11.5 27.59375 11.5 29.609375 
C 11.5 31.625 11.5 42.484375 20.296875 42.484375 
C 29.09375 42.484375 29.09375 31.625 29.09375 29.609375 
C 29.09375 27.59375 29.09375 16.6875 20.296875 16.6875 
z
M 22.90625 -19.3125 
C 12.90625 -19.3125 6 -13.796875 6 -8.078125 
C 6 -4.859375 7.703125 -1.84375 9.90625 -0.171875 
C 12.40625 1.59375 13.40625 1.59375 20.203125 1.59375 
C 28.40625 1.59375 39.796875 1.59375 39.796875 -8.078125 
C 39.796875 -13.796875 32.90625 -19.3125 22.90625 -19.3125 
z
" id="CMR17-103"/>
       <path d="M 15 23.703125 
C 15 33.34375 19.09375 42.390625 26.59375 42.390625 
C 27.296875 42.390625 28 42.296875 28.703125 41.984375 
C 28.703125 41.984375 26.5 41.28125 26.5 38.671875 
C 26.5 36.265625 28.40625 35.265625 29.90625 35.265625 
C 31.09375 35.265625 33.296875 35.96875 33.296875 38.78125 
C 33.296875 41.984375 30.09375 44 26.703125 44 
C 19.09375 44 15.796875 36.5625 14.796875 33.046875 
L 14.703125 33.046875 
L 14.703125 44 
L 3.09375 42.890625 
L 3.09375 40.28125 
C 9 40.28125 9.90625 39.6875 9.90625 34.859375 
L 9.90625 6.921875 
C 9.90625 3.09375 9.5 2.59375 3.09375 2.59375 
L 3.09375 0 
C 5.5 0.1875 10.09375 0.1875 12.703125 0.1875 
C 15.59375 0.1875 20.703125 0.1875 23.40625 0 
L 23.40625 2.59375 
C 16.203125 2.59375 15 2.59375 15 7.109375 
z
" id="CMR17-114"/>
       <path d="M 36 25.875 
C 36 32 36 35.546875 31.796875 39.59375 
C 28.09375 42.984375 23.796875 44 20.40625 44 
C 12.5 44 6.796875 37.625 6.796875 30.890625 
C 6.796875 27.1875 9.796875 27 10.40625 27 
C 11.703125 27 14 27.796875 14 30.59375 
C 14 33.09375 12.09375 34.1875 10.40625 34.1875 
C 10 34.1875 9.5 34.09375 9.203125 34 
C 11.296875 40.53125 16.703125 42.390625 20.203125 42.390625 
C 25.203125 42.390625 30.703125 37.828125 30.703125 29.296875 
L 30.703125 25.5 
C 24.796875 25.296875 17.703125 24.5 12.09375 21.453125 
C 5.796875 17.921875 4 12.84375 4 9 
C 4 1.203125 13 -1 18.296875 -1 
C 23.796875 -1 28.90625 2.109375 31.09375 7.890625 
C 31.296875 3.421875 34.09375 -0.609375 38.5 -0.609375 
C 40.59375 -0.609375 45.90625 0.796875 45.90625 8.796875 
L 45.90625 14.46875 
L 44.09375 14.46875 
L 44.09375 8.703125 
C 44.09375 2.515625 41.40625 1.703125 40.09375 1.703125 
C 36 1.703125 36 6.96875 36 11.4375 
z
M 30.703125 13.859375 
C 30.703125 5.046875 24.5 0.59375 19 0.59375 
C 14 0.59375 10.09375 4.34375 10.09375 9 
C 10.09375 12.046875 11.40625 17.40625 17.203125 20.65625 
C 22 23.390625 27.5 23.796875 30.703125 24 
z
" id="CMR17-97"/>
       <path d="M 34.90625 35 
C 33 35 30.203125 35 30.203125 31.484375 
C 30.203125 28.6875 32.5 27.890625 33.796875 27.890625 
C 34.5 27.890625 37.40625 28.1875 37.40625 31.6875 
C 37.40625 38.6875 30.59375 44 22.90625 44 
C 12.296875 44 3.296875 34.390625 3.296875 21.546875 
C 3.296875 8.140625 12.703125 -1 22.90625 -1 
C 35.296875 -1 38.40625 10.5625 38.40625 11.671875 
C 38.40625 12.078125 38.296875 12.375 37.59375 12.375 
C 36.90625 12.375 36.796875 12.28125 36.40625 10.96875 
C 33.796875 2.8125 28.09375 0.796875 23.796875 0.796875 
C 17.40625 0.796875 9.703125 6.734375 9.703125 21.640625 
C 9.703125 36.84375 17.09375 42.1875 23 42.1875 
C 26.90625 42.1875 32.703125 40.34375 34.90625 35 
z
" id="CMR17-99"/>
       <path d="M 15.09375 40.390625 
L 29.09375 40.390625 
L 29.09375 43 
L 15.09375 43 
L 15.09375 62 
L 13.296875 62 
C 13.09375 51.4375 9.59375 42.1875 1.09375 41.984375 
L 1.09375 40.390625 
L 9.796875 40.390625 
L 9.796875 12.15625 
C 9.796875 10.234375 9.796875 -1 21.40625 -1 
C 27.296875 -1 30.703125 4.8125 30.703125 12.25 
L 30.703125 17.984375 
L 28.90625 17.984375 
L 28.90625 12.34375 
C 28.90625 5.421875 26.203125 0.796875 22 0.796875 
C 19.09375 0.796875 15.09375 2.796875 15.09375 11.953125 
z
" id="CMR17-116"/>
       <path d="M 43.09375 21.1875 
C 43.09375 34 33.796875 44 22.90625 44 
C 12 44 2.703125 34 2.703125 21.1875 
C 2.703125 8.59375 12 -1 22.90625 -1 
C 33.796875 -1 43.09375 8.59375 43.09375 21.1875 
z
M 22.90625 0.796875 
C 18.203125 0.796875 14.203125 3.59375 11.90625 7.5 
C 9.40625 12 9.09375 17.59375 9.09375 22 
C 9.09375 26.1875 9.296875 31.390625 11.90625 35.890625 
C 13.90625 39.1875 17.796875 42.390625 22.90625 42.390625 
C 27.40625 42.390625 31.203125 39.890625 33.59375 36.390625 
C 36.703125 31.6875 36.703125 25.09375 36.703125 22 
C 36.703125 18.09375 36.5 12.09375 33.796875 7.296875 
C 31 2.6875 26.703125 0.796875 22.90625 0.796875 
z
" id="CMR17-111"/>
       <path d="M 44.59375 40.09375 
C 46.59375 40.09375 47.40625 40.09375 47.40625 41.984375 
C 47.40625 43 46.59375 43 44.796875 43 
L 36.703125 43 
C 38.59375 53.09375 40 60.09375 40.796875 63.296875 
C 41.40625 65.6875 43.5 67.984375 46.09375 67.984375 
C 48.203125 67.984375 50.296875 67.09375 51.296875 66.1875 
C 47.40625 65.796875 46.203125 62.890625 46.203125 61.1875 
C 46.203125 59.1875 47.703125 58 49.59375 58 
C 51.59375 58 54.59375 59.6875 54.59375 63.5 
C 54.59375 67.6875 50.40625 70 46 70 
C 41.703125 70 37.5 66.796875 35.5 62.890625 
C 33.703125 59.390625 32.703125 55.828125 30.40625 43 
L 23.703125 43 
C 21.796875 43 20.796875 43 20.796875 41.1875 
C 20.796875 40.09375 21.40625 40.09375 23.40625 40.09375 
L 29.796875 40.09375 
C 28 30.890625 23.90625 8.515625 21.59375 -2.0625 
C 19.90625 -10.703125 18.40625 -18 13.40625 -18 
C 13.09375 -18 10.203125 -18 8.40625 -16.109375 
C 13.5 -15.703125 13.5 -11.3125 13.5 -11.203125 
C 13.5 -9.203125 12 -8 10.09375 -8 
C 8.09375 -8 5.09375 -9.703125 5.09375 -13.515625 
C 5.09375 -17.8125 9.5 -20 13.40625 -20 
C 23.59375 -20 27.796875 -1.765625 28.90625 3.171875 
C 30.703125 10.796875 35.59375 37.125 36.09375 40.09375 
z
" id="CMMI12-102"/>
       <path d="M 64.296875 32 
C 65.796875 32 67.296875 32 67.296875 33.6875 
C 67.296875 35.5 65.59375 35.5 63.90625 35.5 
L 8 35.5 
C 6.296875 35.5 4.59375 35.5 4.59375 33.6875 
C 4.59375 32 6.09375 32 7.59375 32 
z
M 63.90625 14.484375 
C 65.59375 14.484375 67.296875 14.484375 67.296875 16.296875 
C 67.296875 18 65.796875 18 64.296875 18 
L 7.59375 18 
C 6.09375 18 4.59375 18 4.59375 16.296875 
C 4.59375 14.484375 6.296875 14.484375 8 14.484375 
z
" id="CMR17-61"/>
       <path d="M 74 57.53125 
C 75.09375 61.8125 76.703125 64.796875 84.296875 65.09375 
C 84.59375 65.09375 85.796875 65.1875 85.796875 66.890625 
C 85.796875 68 84.90625 68 84.5 68 
C 82.5 68 77.40625 67.796875 75.40625 67.796875 
L 70.59375 67.796875 
C 69.203125 67.796875 67.40625 68 66 68 
C 65.40625 68 64.203125 68 64.203125 66.09375 
C 64.203125 65.09375 65 65.09375 65.703125 65.09375 
C 71.703125 64.890625 72.09375 62.609375 72.09375 60.8125 
C 72.09375 59.921875 72 59.625 71.703125 58.21875 
L 60.40625 13.34375 
L 39 66.296875 
C 38.296875 67.890625 38.203125 68 36 68 
L 23.796875 68 
C 21.796875 68 20.90625 68 20.90625 66.09375 
C 20.90625 65.09375 21.59375 65.09375 23.5 65.09375 
C 24 65.09375 29.90625 65.09375 29.90625 64.203125 
C 29.90625 64 29.703125 63.203125 29.59375 62.90625 
L 16.296875 10.15625 
C 15.09375 5.28125 12.703125 3.1875 6.09375 2.890625 
C 5.59375 2.890625 4.59375 2.796875 4.59375 1 
C 4.59375 0 5.59375 0 5.90625 0 
C 7.90625 0 13 0.1875 15 0.1875 
L 19.796875 0.1875 
C 21.203125 0.1875 22.90625 0 24.296875 0 
C 25 0 26.09375 0 26.09375 1.890625 
C 26.09375 2.796875 25.09375 2.890625 24.703125 2.890625 
C 21.40625 2.984375 18.203125 3.59375 18.203125 7.171875 
C 18.203125 7.96875 18.40625 8.859375 18.59375 9.65625 
L 32.09375 62.90625 
C 32.703125 61.90625 32.703125 61.703125 33.09375 60.8125 
L 56.90625 1.796875 
C 57.40625 0.59375 57.59375 0 58.5 0 
C 59.5 0 59.59375 0.296875 60 2 
z
" id="CMMI12-78"/>
       <path d="M 42.90625 71.296875 
C 42.90625 71.390625 43.5 72.890625 43.5 73.09375 
C 43.5 74.296875 42.5 75 41.703125 75 
C 41.203125 75 40.296875 75 39.5 72.796875 
L 6 -21.3125 
C 6 -21.40625 5.40625 -22.90625 5.40625 -23.109375 
C 5.40625 -24.3125 6.40625 -25 7.203125 -25 
C 7.796875 -25 8.703125 -24.90625 9.40625 -22.8125 
z
" id="CMMI12-61"/>
       <path d="M 63.203125 41.328125 
L 63.203125 35 
L 78.90625 35 
L 62.59375 7 
L 29.703125 7 
L 13.203125 35.09375 
L 29.703125 64 
L 62.59375 64 
L 70.5 50 
L 77.203125 50 
L 66.40625 71 
L 25.90625 71 
L 5.5 35.09375 
L 25.90625 0 
L 66.40625 0 
L 86.796875 35 
L 78.703125 41.328125 
z
" id="SVRsymbols-115"/>
      </defs>
      <use transform="scale(0.996264)" xlink:href="#CMR17-70"/>
      <use transform="translate(59.983847 0)scale(0.996264)" xlink:href="#CMR17-105"/>
      <use transform="translate(84.854905 0)scale(0.996264)" xlink:href="#CMR17-108"/>
      <use transform="translate(109.725964 0)scale(0.996264)" xlink:href="#CMR17-108"/>
      <use transform="translate(134.597022 0)scale(0.996264)" xlink:href="#CMR17-105"/>
      <use transform="translate(159.468081 0)scale(0.996264)" xlink:href="#CMR17-110"/>
      <use transform="translate(210.36345 0)scale(0.996264)" xlink:href="#CMR17-103"/>
      <use transform="translate(286.129894 0)scale(0.996264)" xlink:href="#CMR17-70"/>
      <use transform="translate(338.306485 0)scale(0.996264)" xlink:href="#CMR17-114"/>
      <use transform="translate(373.587253 0)scale(0.996264)" xlink:href="#CMR17-97"/>
      <use transform="translate(419.27773 0)scale(0.996264)" xlink:href="#CMR17-99"/>
      <use transform="translate(459.76339 0)scale(0.996264)" xlink:href="#CMR17-116"/>
      <use transform="translate(495.044158 0)scale(0.996264)" xlink:href="#CMR17-105"/>
      <use transform="translate(519.915217 0)scale(0.996264)" xlink:href="#CMR17-111"/>
      <use transform="translate(565.605694 0)scale(0.996264)" xlink:href="#CMR17-110"/>
      <use transform="translate(646.57703 0)scale(0.996264)" xlink:href="#CMMI12-102"/>
      <use transform="translate(732.971343 0)scale(0.996264)" xlink:href="#CMR17-61"/>
      <use transform="translate(832.360141 0)scale(0.996264)" xlink:href="#CMMI12-78"/>
      <use transform="translate(912.75276 0)scale(0.996264)" xlink:href="#CMMI12-61"/>
      <use transform="translate(956.108243 0)scale(0.996264)" xlink:href="#CMMI12-78"/>
      <use transform="translate(1034.223362 -15.337838)scale(0.697382)" xlink:href="#SVRsymbols-115"/>
     </g>
    </g>
   </g>
   <g id="matplotlib.axis_2">
    <g id="ytick_1">
     <g id="line2d_7">
      <defs>
       <path d="M 0 0 
L -2 0 
" id="m2c3cd37678" style="stroke:#000000;stroke-width:0.5;"/>
      </defs>
      <g>
       <use style="stroke:#000000;stroke-width:0.5;" x="29.509448" xlink:href="#m2c3cd37678" y="117.105761"/>
      </g>
     </g>
     <g id="text_8">
      <!-- $\mathdefault{0}$ -->
      <g transform="translate(20.901757 120.219086)scale(0.09 -0.09)">
       <use transform="scale(0.996264)" xlink:href="#CMR17-48"/>
      </g>
     </g>
    </g>
    <g id="ytick_2">
     <g id="line2d_8">
      <g>
       <use style="stroke:#000000;stroke-width:0.5;" x="29.509448" xlink:href="#m2c3cd37678" y="94.874961"/>
      </g>
     </g>
     <g id="text_9">
      <!-- $\mathdefault{50}$ -->
      <g transform="translate(16.294067 97.988286)scale(0.09 -0.09)">
       <defs>
        <path d="M 11.40625 58.59375 
C 12.40625 58.1875 16.5 56.890625 20.703125 56.890625 
C 30 56.890625 35.09375 61.890625 38 64.6875 
C 38 65.484375 38 66 37.40625 66 
C 37.296875 66 37.09375 66 36.296875 65.59375 
C 32.796875 64.09375 28.703125 63 23.703125 63 
C 20.703125 63 16.203125 63.359375 11.296875 65.484375 
C 10.203125 66 10 66 9.90625 66 
C 9.40625 66 9.296875 65.890625 9.296875 63.90625 
L 9.296875 34.859375 
C 9.296875 33.015625 9.296875 32.5 10.296875 32.5 
C 10.796875 32.5 11 32.703125 11.5 33.421875 
C 14.703125 38.046875 19.09375 40 24.09375 40 
C 27.59375 40 35.09375 37.734375 35.09375 20.203125 
C 35.09375 16.984375 35.09375 11.1875 32.09375 6.59375 
C 29.59375 2.484375 25.703125 0.390625 21.40625 0.390625 
C 14.796875 0.390625 8.09375 4.984375 6.296875 12.6875 
C 6.703125 12.59375 7.5 12.390625 7.90625 12.390625 
C 9.203125 12.390625 11.703125 13.09375 11.703125 16.1875 
C 11.703125 18.890625 9.796875 20 7.90625 20 
C 5.59375 20 4.09375 18.59375 4.09375 15.796875 
C 4.09375 7.09375 11 -2 21.59375 -2 
C 31.90625 -2 41.703125 6.890625 41.703125 19.796875 
C 41.703125 32.09375 33.90625 41.59375 24.203125 41.59375 
C 19.09375 41.59375 14.796875 39.6875 11.40625 36 
z
" id="CMR17-53"/>
       </defs>
       <use transform="scale(0.996264)" xlink:href="#CMR17-53"/>
       <use transform="translate(45.690477 0)scale(0.996264)" xlink:href="#CMR17-48"/>
      </g>
     </g>
    </g>
    <g id="ytick_3">
     <g id="line2d_9">
      <g>
       <use style="stroke:#000000;stroke-width:0.5;" x="29.509448" xlink:href="#m2c3cd37678" y="72.644161"/>
      </g>
     </g>
     <g id="text_10">
      <!-- $\mathdefault{100}$ -->
      <g transform="translate(11.686376 75.757486)scale(0.09 -0.09)">
       <use transform="scale(0.996264)" xlink:href="#CMR17-49"/>
       <use transform="translate(45.690477 0)scale(0.996264)" xlink:href="#CMR17-48"/>
       <use transform="translate(91.380954 0)scale(0.996264)" xlink:href="#CMR17-48"/>
      </g>
     </g>
    </g>
    <g id="ytick_4">
     <g id="line2d_10">
      <g>
       <use style="stroke:#000000;stroke-width:0.5;" x="29.509448" xlink:href="#m2c3cd37678" y="50.413361"/>
      </g>
     </g>
     <g id="text_11">
      <!-- $\mathdefault{150}$ -->
      <g transform="translate(11.686376 53.526686)scale(0.09 -0.09)">
       <use transform="scale(0.996264)" xlink:href="#CMR17-49"/>
       <use transform="translate(45.690477 0)scale(0.996264)" xlink:href="#CMR17-53"/>
       <use transform="translate(91.380954 0)scale(0.996264)" xlink:href="#CMR17-48"/>
      </g>
     </g>
    </g>
    <g id="ytick_5">
     <g id="line2d_11">
      <g>
       <use style="stroke:#000000;stroke-width:0.5;" x="29.509448" xlink:href="#m2c3cd37678" y="28.182561"/>
      </g>
     </g>
     <g id="text_12">
      <!-- $\mathdefault{200}$ -->
      <g transform="translate(11.686376 31.295886)scale(0.09 -0.09)">
       <use transform="scale(0.996264)" xlink:href="#CMR17-50"/>
       <use transform="translate(45.690477 0)scale(0.996264)" xlink:href="#CMR17-48"/>
       <use transform="translate(91.380954 0)scale(0.996264)" xlink:href="#CMR17-48"/>
      </g>
     </g>
    </g>
    <g id="ytick_6">
     <g id="line2d_12">
      <g>
       <use style="stroke:#000000;stroke-width:0.5;" x="29.509448" xlink:href="#m2c3cd37678" y="5.951761"/>
      </g>
     </g>
     <g id="text_13">
      <!-- $\mathdefault{250}$ -->
      <g transform="translate(11.686376 9.065086)scale(0.09 -0.09)">
       <use transform="scale(0.996264)" xlink:href="#CMR17-50"/>
       <use transform="translate(45.690477 0)scale(0.996264)" xlink:href="#CMR17-53"/>
       <use transform="translate(91.380954 0)scale(0.996264)" xlink:href="#CMR17-48"/>
      </g>
     </g>
    </g>
    <g id="text_14">
     <!-- $\alabel{E/N-E_1}{\kelvin}$ -->
     <g transform="translate(7.444782 92.671886)rotate(-90)scale(0.09 -0.09)">
      <defs>
       <path d="M 69.5 23.265625 
C 69.59375 23.5625 69.90625 24.265625 69.90625 24.65625 
C 69.90625 25.171875 69.5 25.671875 68.90625 25.671875 
C 68.5 25.671875 68.296875 25.5625 68 25.265625 
C 67.796875 25.171875 67.796875 24.96875 66.90625 22.953125 
C 61 8.90625 56.703125 2.890625 40.703125 2.890625 
L 26.09375 2.890625 
C 24.703125 2.890625 24.5 2.890625 23.90625 3 
C 22.796875 3.09375 22.703125 3.296875 22.703125 4.09375 
C 22.703125 4.796875 22.90625 5.40625 23.09375 6.296875 
L 30 34 
L 39.90625 34 
C 47.703125 34 48.296875 32.28125 48.296875 29.28125 
C 48.296875 28.28125 48.296875 27.375 47.59375 24.359375 
C 47.40625 23.96875 47.296875 23.5625 47.296875 23.265625 
C 47.296875 22.5625 47.796875 22.25 48.40625 22.25 
C 49.296875 22.25 49.40625 22.953125 49.796875 24.359375 
L 55.5 47.4375 
C 55.5 47.9375 55.09375 48.421875 54.5 48.421875 
C 53.59375 48.421875 53.5 48.03125 53.09375 46.65625 
C 51.09375 39.0625 49.09375 36.890625 40.203125 36.890625 
L 30.703125 36.890625 
L 36.90625 61.140625 
C 37.796875 64.59375 38 64.890625 42.09375 64.890625 
L 56.40625 64.890625 
C 68.703125 64.890625 71.203125 61.640625 71.203125 54.140625 
C 71.203125 54.046875 71.203125 51.28125 70.796875 48.03125 
C 70.703125 47.640625 70.59375 47.046875 70.59375 46.84375 
C 70.59375 46.0625 71.09375 45.765625 71.703125 45.765625 
C 72.40625 45.765625 72.796875 46.15625 73 47.9375 
L 75.09375 65.1875 
C 75.09375 65.484375 75.296875 66.484375 75.296875 66.6875 
C 75.296875 67.796875 74.40625 67.796875 72.59375 67.796875 
L 23.796875 67.796875 
C 21.90625 67.796875 20.90625 67.796875 20.90625 65.984375 
C 20.90625 64.890625 21.59375 64.890625 23.296875 64.890625 
C 29.5 64.890625 29.5 64.203125 29.5 63.109375 
C 29.5 62.625 29.40625 62.234375 29.09375 61.140625 
L 15.59375 7.40625 
C 14.703125 3.890625 14.5 2.890625 7.5 2.890625 
C 5.59375 2.890625 4.59375 2.890625 4.59375 1.09375 
C 4.59375 0 5.203125 0 7.203125 0 
L 57.40625 0 
C 59.59375 0 59.703125 0.09375 60.40625 1.6875 
z
" id="CMMI12-69"/>
       <path d="M 65.90625 23 
C 67.59375 23 69.40625 23 69.40625 25 
C 69.40625 27 67.59375 27 65.90625 27 
L 11.796875 27 
C 10.09375 27 8.296875 27 8.296875 25 
C 8.296875 23 10.09375 23 11.796875 23 
z
" id="CMSY10-0"/>
       <path d="M 30.59375 -24.40625 
C 30.59375 -24.3125 30.59375 -24.109375 30.296875 -23.8125 
C 25.703125 -19.109375 13.40625 -6.296875 13.40625 24.9375 
C 13.40625 56.171875 25.5 68.875 30.40625 73.890625 
C 30.40625 73.984375 30.59375 74.1875 30.59375 74.484375 
C 30.59375 74.796875 30.296875 75 29.90625 75 
C 28.796875 75 20.296875 67.578125 15.40625 56.5625 
C 10.40625 45.453125 9 34.65625 9 25.046875 
C 9 17.828125 9.703125 5.625 15.703125 -7.296875 
C 20.5 -17.703125 28.703125 -25 29.90625 -25 
C 30.40625 -25 30.59375 -24.8125 30.59375 -24.40625 
z
" id="CMR17-40"/>
       <path d="M 36.90625 41.703125 
L 54.203125 58.921875 
C 57.796875 62.40625 61.59375 65.1875 67.203125 65.390625 
L 67.203125 68 
C 65.203125 67.890625 62.703125 67.796875 60.703125 67.796875 
C 58 67.796875 53.296875 67.796875 50.703125 68 
L 50.703125 65.390625 
C 53.296875 65.1875 53.703125 63.390625 53.703125 62.703125 
C 53.703125 62 53.296875 60.90625 52.90625 60.3125 
L 19.703125 27.171875 
L 19.703125 60.90625 
C 19.703125 65.390625 20.796875 65.390625 27.703125 65.390625 
L 27.703125 68 
C 24.796875 67.796875 19.5 67.796875 16.40625 67.796875 
C 13.296875 67.796875 8 67.796875 5.09375 68 
L 5.09375 65.390625 
C 12 65.390625 13.09375 65.390625 13.09375 60.90625 
L 13.09375 7.078125 
C 13.09375 2.59375 12 2.59375 5.09375 2.59375 
L 5.09375 0 
C 8 0.1875 13.296875 0.1875 16.40625 0.1875 
C 19.5 0.1875 24.796875 0.1875 27.703125 0 
L 27.703125 2.59375 
C 20.796875 2.59375 19.703125 2.59375 19.703125 7.078125 
L 19.703125 24.6875 
L 32.5 37.328125 
L 51.40625 8.46875 
C 52 7.46875 52.703125 6.171875 52.703125 5.1875 
C 52.703125 2.59375 49.90625 2.59375 48.59375 2.59375 
L 48.59375 0 
C 51.796875 0.1875 56.40625 0.1875 59.703125 0.1875 
C 62.09375 0.1875 66.203125 0.1875 68.5 0 
L 68.5 2.59375 
C 63.703125 2.59375 62.203125 3.1875 59.203125 7.765625 
z
" id="CMR17-75"/>
       <path d="M 26.296875 24.9375 
C 26.296875 32.140625 25.59375 44.359375 19.59375 57.265625 
C 14.796875 67.6875 6.59375 75 5.40625 75 
C 5.09375 75 4.703125 74.890625 4.703125 74.390625 
C 4.703125 74.1875 4.796875 74.09375 4.90625 73.890625 
C 9.703125 68.875 21.90625 56.171875 21.90625 25.046875 
C 21.90625 -6.1875 9.796875 -18.90625 4.90625 -23.90625 
C 4.796875 -24.109375 4.703125 -24.203125 4.703125 -24.40625 
C 4.703125 -24.90625 5.09375 -25 5.40625 -25 
C 6.5 -25 15 -17.609375 19.90625 -6.59375 
C 24.90625 4.515625 26.296875 15.328125 26.296875 24.9375 
z
" id="CMR17-41"/>
      </defs>
      <use transform="scale(0.996264)" xlink:href="#CMMI12-69"/>
      <use transform="translate(78.051636 0)scale(0.996264)" xlink:href="#CMMI12-61"/>
      <use transform="translate(121.40712 0)scale(0.996264)" xlink:href="#CMMI12-78"/>
      <use transform="translate(232.068099 0)scale(0.996264)" xlink:href="#CMSY10-0"/>
      <use transform="translate(331.694774 0)scale(0.996264)" xlink:href="#CMMI12-69"/>
      <use transform="translate(403.905992 -14.943915)scale(0.697382)" xlink:href="#CMR17-49"/>
      <use transform="translate(491.735323 0)scale(0.996264)" xlink:href="#CMR17-40"/>
      <use transform="translate(527.016091 0)scale(0.996264)" xlink:href="#CMR17-75"/>
      <use transform="translate(598.690868 0)scale(0.996264)" xlink:href="#CMR17-41"/>
     </g>
    </g>
   </g>
   <g id="LineCollection_1">
    <path clip-path="url(#pb32bd70c0e)" d="M 39.068124 117.206397 
L 39.068124 117.005125 
" style="fill:none;stroke:#aea6d0;stroke-width:0.5;"/>
    <path clip-path="url(#pb32bd70c0e)" d="M 47.380016 117.260157 
L 47.380016 117.054956 
" style="fill:none;stroke:#aea6d0;stroke-width:0.5;"/>
    <path clip-path="url(#pb32bd70c0e)" d="M 55.691908 117.368959 
L 55.691908 117.163963 
" style="fill:none;stroke:#aea6d0;stroke-width:0.5;"/>
    <path clip-path="url(#pb32bd70c0e)" d="M 64.003801 117.635313 
L 64.003801 117.438535 
" style="fill:none;stroke:#aea6d0;stroke-width:0.5;"/>
    <path clip-path="url(#pb32bd70c0e)" d="M 72.315693 117.496696 
L 72.315693 117.324388 
" style="fill:none;stroke:#aea6d0;stroke-width:0.5;"/>
    <path clip-path="url(#pb32bd70c0e)" d="M 80.627585 117.546912 
L 80.627585 117.38065 
" style="fill:none;stroke:#aea6d0;stroke-width:0.5;"/>
    <path clip-path="url(#pb32bd70c0e)" d="M 88.939477 117.458756 
L 88.939477 117.306447 
" style="fill:none;stroke:#aea6d0;stroke-width:0.5;"/>
    <path clip-path="url(#pb32bd70c0e)" d="M 97.251369 117.506485 
L 97.251369 117.363455 
" style="fill:none;stroke:#aea6d0;stroke-width:0.5;"/>
    <path clip-path="url(#pb32bd70c0e)" d="M 105.563261 117.011488 
L 105.563261 116.884228 
" style="fill:none;stroke:#aea6d0;stroke-width:0.5;"/>
    <path clip-path="url(#pb32bd70c0e)" d="M 113.875154 116.329843 
L 113.875154 116.203647 
" style="fill:none;stroke:#aea6d0;stroke-width:0.5;"/>
    <path clip-path="url(#pb32bd70c0e)" d="M 122.187046 115.864953 
L 122.187046 115.744961 
" style="fill:none;stroke:#aea6d0;stroke-width:0.5;"/>
    <path clip-path="url(#pb32bd70c0e)" d="M 130.498938 114.28636 
L 130.498938 114.166818 
" style="fill:none;stroke:#aea6d0;stroke-width:0.5;"/>
    <path clip-path="url(#pb32bd70c0e)" d="M 138.81083 111.176573 
L 138.81083 111.047181 
" style="fill:none;stroke:#aea6d0;stroke-width:0.5;"/>
    <path clip-path="url(#pb32bd70c0e)" d="M 147.122722 107.655367 
L 147.122722 107.511575 
" style="fill:none;stroke:#aea6d0;stroke-width:0.5;"/>
    <path clip-path="url(#pb32bd70c0e)" d="M 155.434614 105.536482 
L 155.434614 105.397848 
" style="fill:none;stroke:#aea6d0;stroke-width:0.5;"/>
    <path clip-path="url(#pb32bd70c0e)" d="M 163.746507 101.991065 
L 163.746507 101.854574 
" style="fill:none;stroke:#aea6d0;stroke-width:0.5;"/>
    <path clip-path="url(#pb32bd70c0e)" d="M 172.058399 92.101783 
L 172.058399 91.93056 
" style="fill:none;stroke:#aea6d0;stroke-width:0.5;"/>
    <path clip-path="url(#pb32bd70c0e)" d="M 180.370291 87.640536 
L 180.370291 87.473015 
" style="fill:none;stroke:#aea6d0;stroke-width:0.5;"/>
    <path clip-path="url(#pb32bd70c0e)" d="M 188.682183 79.871779 
L 188.682183 79.694318 
" style="fill:none;stroke:#aea6d0;stroke-width:0.5;"/>
    <path clip-path="url(#pb32bd70c0e)" d="M 196.994075 67.27646 
L 196.994075 67.07042 
" style="fill:none;stroke:#aea6d0;stroke-width:0.5;"/>
    <path clip-path="url(#pb32bd70c0e)" d="M 205.305967 44.77615 
L 205.305967 44.557159 
" style="fill:none;stroke:#aea6d0;stroke-width:0.5;"/>
    <path clip-path="url(#pb32bd70c0e)" d="M 213.61786 34.878737 
L 213.61786 34.651351 
" style="fill:none;stroke:#aea6d0;stroke-width:0.5;"/>
    <path clip-path="url(#pb32bd70c0e)" d="M 221.929752 6.553798 
L 221.929752 6.289618 
" style="fill:none;stroke:#aea6d0;stroke-width:0.5;"/>
    <path clip-path="url(#pb32bd70c0e)" d="M 230.241644 8.335636 
L 230.241644 8.050277 
" style="fill:none;stroke:#aea6d0;stroke-width:0.5;"/>
   </g>
   <g id="LineCollection_2">
    <path clip-path="url(#pb32bd70c0e)" d="M 39.068124 117.211551 
L 39.068124 116.99997 
" style="fill:none;stroke:#9dc8db;stroke-width:0.5;"/>
    <path clip-path="url(#pb32bd70c0e)" d="M 47.380016 117.244045 
L 47.380016 117.066799 
" style="fill:none;stroke:#9dc8db;stroke-width:0.5;"/>
    <path clip-path="url(#pb32bd70c0e)" d="M 55.691908 117.413873 
L 55.691908 117.191531 
" style="fill:none;stroke:#9dc8db;stroke-width:0.5;"/>
    <path clip-path="url(#pb32bd70c0e)" d="M 64.003801 117.574519 
L 64.003801 117.392422 
" style="fill:none;stroke:#9dc8db;stroke-width:0.5;"/>
    <path clip-path="url(#pb32bd70c0e)" d="M 72.315693 117.681974 
L 72.315693 117.495227 
" style="fill:none;stroke:#9dc8db;stroke-width:0.5;"/>
    <path clip-path="url(#pb32bd70c0e)" d="M 80.627585 117.545837 
L 80.627585 117.376476 
" style="fill:none;stroke:#9dc8db;stroke-width:0.5;"/>
    <path clip-path="url(#pb32bd70c0e)" d="M 88.939477 117.436755 
L 88.939477 117.282608 
" style="fill:none;stroke:#9dc8db;stroke-width:0.5;"/>
    <path clip-path="url(#pb32bd70c0e)" d="M 97.251369 117.546771 
L 97.251369 117.412334 
" style="fill:none;stroke:#9dc8db;stroke-width:0.5;"/>
    <path clip-path="url(#pb32bd70c0e)" d="M 105.563261 117.019614 
L 105.563261 116.889973 
" style="fill:none;stroke:#9dc8db;stroke-width:0.5;"/>
    <path clip-path="url(#pb32bd70c0e)" d="M 113.875154 116.470345 
L 113.875154 116.347301 
" style="fill:none;stroke:#9dc8db;stroke-width:0.5;"/>
    <path clip-path="url(#pb32bd70c0e)" d="M 122.187046 115.995066 
L 122.187046 115.874345 
" style="fill:none;stroke:#9dc8db;stroke-width:0.5;"/>
    <path clip-path="url(#pb32bd70c0e)" d="M 130.498938 114.549421 
L 130.498938 114.434367 
" style="fill:none;stroke:#9dc8db;stroke-width:0.5;"/>
    <path clip-path="url(#pb32bd70c0e)" d="M 138.81083 111.397803 
L 138.81083 111.275071 
" style="fill:none;stroke:#9dc8db;stroke-width:0.5;"/>
    <path clip-path="url(#pb32bd70c0e)" d="M 147.122722 108.537584 
L 147.122722 108.413062 
" style="fill:none;stroke:#9dc8db;stroke-width:0.5;"/>
    <path clip-path="url(#pb32bd70c0e)" d="M 155.434614 106.127254 
L 155.434614 105.989117 
" style="fill:none;stroke:#9dc8db;stroke-width:0.5;"/>
    <path clip-path="url(#pb32bd70c0e)" d="M 163.746507 104.046223 
L 163.746507 103.902629 
" style="fill:none;stroke:#9dc8db;stroke-width:0.5;"/>
    <path clip-path="url(#pb32bd70c0e)" d="M 172.058399 102.407996 
L 172.058399 102.230008 
" style="fill:none;stroke:#9dc8db;stroke-width:0.5;"/>
    <path clip-path="url(#pb32bd70c0e)" d="M 180.370291 100.686753 
L 180.370291 100.521128 
" style="fill:none;stroke:#9dc8db;stroke-width:0.5;"/>
    <path clip-path="url(#pb32bd70c0e)" d="M 188.682183 99.378254 
L 188.682183 99.215572 
" style="fill:none;stroke:#9dc8db;stroke-width:0.5;"/>
    <path clip-path="url(#pb32bd70c0e)" d="M 196.994075 97.862418 
L 196.994075 97.672382 
" style="fill:none;stroke:#9dc8db;stroke-width:0.5;"/>
    <path clip-path="url(#pb32bd70c0e)" d="M 205.305967 96.756954 
L 205.305967 96.578963 
" style="fill:none;stroke:#9dc8db;stroke-width:0.5;"/>
    <path clip-path="url(#pb32bd70c0e)" d="M 213.61786 95.644587 
L 213.61786 95.454503 
" style="fill:none;stroke:#9dc8db;stroke-width:0.5;"/>
    <path clip-path="url(#pb32bd70c0e)" d="M 221.929752 94.8875 
L 221.929752 94.69981 
" style="fill:none;stroke:#9dc8db;stroke-width:0.5;"/>
    <path clip-path="url(#pb32bd70c0e)" d="M 230.241644 93.748553 
L 230.241644 93.536561 
" style="fill:none;stroke:#9dc8db;stroke-width:0.5;"/>
   </g>
   <g id="line2d_13">
    <path clip-path="url(#pb32bd70c0e)" d="M 39.068124 117.105761 
L 47.380016 117.157556 
L 55.691908 117.266461 
L 64.003801 117.536924 
L 72.315693 117.410542 
L 80.627585 117.463781 
L 88.939477 117.382601 
L 97.251369 117.43497 
L 105.563261 116.947858 
L 113.875154 116.266745 
L 122.187046 115.804957 
L 130.498938 114.226589 
L 138.81083 111.111877 
L 147.122722 107.583471 
L 155.434614 105.467165 
L 163.746507 101.922819 
L 172.058399 92.016171 
L 180.370291 87.556776 
L 188.682183 79.783049 
L 196.994075 67.17344 
L 205.305967 44.666655 
L 213.61786 34.765044 
L 221.929752 6.421708 
L 230.241644 8.192956 
" style="fill:none;stroke:#aea6d0;stroke-dasharray:1.85,0.8;stroke-dashoffset:0;stroke-width:0.5;"/>
    <defs>
     <path d="M 0 2.5 
C 0.663008 2.5 1.29895 2.236584 1.767767 1.767767 
C 2.236584 1.29895 2.5 0.663008 2.5 0 
C 2.5 -0.663008 2.236584 -1.29895 1.767767 -1.767767 
C 1.29895 -2.236584 0.663008 -2.5 0 -2.5 
C -0.663008 -2.5 -1.29895 -2.236584 -1.767767 -1.767767 
C -2.236584 -1.29895 -2.5 -0.663008 -2.5 0 
C -2.5 0.663008 -2.236584 1.29895 -1.767767 1.767767 
C -1.29895 2.236584 -0.663008 2.5 0 2.5 
z
" id="m14fbd5ded6" style="stroke:#5e4fa2;stroke-width:0.75;"/>
    </defs>
    <g clip-path="url(#pb32bd70c0e)">
     <use style="fill-opacity:0;stroke:#5e4fa2;stroke-width:0.75;" x="39.068124" xlink:href="#m14fbd5ded6" y="117.105761"/>
     <use style="fill-opacity:0;stroke:#5e4fa2;stroke-width:0.75;" x="47.380016" xlink:href="#m14fbd5ded6" y="117.157556"/>
     <use style="fill-opacity:0;stroke:#5e4fa2;stroke-width:0.75;" x="55.691908" xlink:href="#m14fbd5ded6" y="117.266461"/>
     <use style="fill-opacity:0;stroke:#5e4fa2;stroke-width:0.75;" x="64.003801" xlink:href="#m14fbd5ded6" y="117.536924"/>
     <use style="fill-opacity:0;stroke:#5e4fa2;stroke-width:0.75;" x="72.315693" xlink:href="#m14fbd5ded6" y="117.410542"/>
     <use style="fill-opacity:0;stroke:#5e4fa2;stroke-width:0.75;" x="80.627585" xlink:href="#m14fbd5ded6" y="117.463781"/>
     <use style="fill-opacity:0;stroke:#5e4fa2;stroke-width:0.75;" x="88.939477" xlink:href="#m14fbd5ded6" y="117.382601"/>
     <use style="fill-opacity:0;stroke:#5e4fa2;stroke-width:0.75;" x="97.251369" xlink:href="#m14fbd5ded6" y="117.43497"/>
     <use style="fill-opacity:0;stroke:#5e4fa2;stroke-width:0.75;" x="105.563261" xlink:href="#m14fbd5ded6" y="116.947858"/>
     <use style="fill-opacity:0;stroke:#5e4fa2;stroke-width:0.75;" x="113.875154" xlink:href="#m14fbd5ded6" y="116.266745"/>
     <use style="fill-opacity:0;stroke:#5e4fa2;stroke-width:0.75;" x="122.187046" xlink:href="#m14fbd5ded6" y="115.804957"/>
     <use style="fill-opacity:0;stroke:#5e4fa2;stroke-width:0.75;" x="130.498938" xlink:href="#m14fbd5ded6" y="114.226589"/>
     <use style="fill-opacity:0;stroke:#5e4fa2;stroke-width:0.75;" x="138.81083" xlink:href="#m14fbd5ded6" y="111.111877"/>
     <use style="fill-opacity:0;stroke:#5e4fa2;stroke-width:0.75;" x="147.122722" xlink:href="#m14fbd5ded6" y="107.583471"/>
     <use style="fill-opacity:0;stroke:#5e4fa2;stroke-width:0.75;" x="155.434614" xlink:href="#m14fbd5ded6" y="105.467165"/>
     <use style="fill-opacity:0;stroke:#5e4fa2;stroke-width:0.75;" x="163.746507" xlink:href="#m14fbd5ded6" y="101.922819"/>
     <use style="fill-opacity:0;stroke:#5e4fa2;stroke-width:0.75;" x="172.058399" xlink:href="#m14fbd5ded6" y="92.016171"/>
     <use style="fill-opacity:0;stroke:#5e4fa2;stroke-width:0.75;" x="180.370291" xlink:href="#m14fbd5ded6" y="87.556776"/>
     <use style="fill-opacity:0;stroke:#5e4fa2;stroke-width:0.75;" x="188.682183" xlink:href="#m14fbd5ded6" y="79.783049"/>
     <use style="fill-opacity:0;stroke:#5e4fa2;stroke-width:0.75;" x="196.994075" xlink:href="#m14fbd5ded6" y="67.17344"/>
     <use style="fill-opacity:0;stroke:#5e4fa2;stroke-width:0.75;" x="205.305967" xlink:href="#m14fbd5ded6" y="44.666655"/>
     <use style="fill-opacity:0;stroke:#5e4fa2;stroke-width:0.75;" x="213.61786" xlink:href="#m14fbd5ded6" y="34.765044"/>
     <use style="fill-opacity:0;stroke:#5e4fa2;stroke-width:0.75;" x="221.929752" xlink:href="#m14fbd5ded6" y="6.421708"/>
     <use style="fill-opacity:0;stroke:#5e4fa2;stroke-width:0.75;" x="230.241644" xlink:href="#m14fbd5ded6" y="8.192956"/>
    </g>
   </g>
   <g id="line2d_14">
    <path clip-path="url(#pb32bd70c0e)" d="M 39.068124 117.105761 
L 47.380016 117.155422 
L 55.691908 117.302702 
L 64.003801 117.483471 
L 72.315693 117.5886 
L 80.627585 117.461157 
L 88.939477 117.359681 
L 97.251369 117.479553 
L 105.563261 116.954793 
L 113.875154 116.408823 
L 122.187046 115.934705 
L 130.498938 114.491894 
L 138.81083 111.336437 
L 147.122722 108.475323 
L 155.434614 106.058186 
L 163.746507 103.974426 
L 172.058399 102.319002 
L 180.370291 100.603941 
L 188.682183 99.296913 
L 196.994075 97.7674 
L 205.305967 96.667958 
L 213.61786 95.549545 
L 221.929752 94.793655 
L 230.241644 93.642557 
" style="fill:none;stroke:#9dc8db;stroke-dasharray:1.85,0.8;stroke-dashoffset:0;stroke-width:0.5;"/>
    <defs>
     <path d="M 0 2.5 
C 0.663008 2.5 1.29895 2.236584 1.767767 1.767767 
C 2.236584 1.29895 2.5 0.663008 2.5 0 
C 2.5 -0.663008 2.236584 -1.29895 1.767767 -1.767767 
C 1.29895 -2.236584 0.663008 -2.5 0 -2.5 
C -0.663008 -2.5 -1.29895 -2.236584 -1.767767 -1.767767 
C -2.236584 -1.29895 -2.5 -0.663008 -2.5 0 
C -2.5 0.663008 -2.236584 1.29895 -1.767767 1.767767 
C -1.29895 2.236584 -0.663008 2.5 0 2.5 
z
" id="me8744b07bb" style="stroke:#3c93b8;stroke-width:0.75;"/>
    </defs>
    <g clip-path="url(#pb32bd70c0e)">
     <use style="fill-opacity:0;stroke:#3c93b8;stroke-width:0.75;" x="39.068124" xlink:href="#me8744b07bb" y="117.105761"/>
     <use style="fill-opacity:0;stroke:#3c93b8;stroke-width:0.75;" x="47.380016" xlink:href="#me8744b07bb" y="117.155422"/>
     <use style="fill-opacity:0;stroke:#3c93b8;stroke-width:0.75;" x="55.691908" xlink:href="#me8744b07bb" y="117.302702"/>
     <use style="fill-opacity:0;stroke:#3c93b8;stroke-width:0.75;" x="64.003801" xlink:href="#me8744b07bb" y="117.483471"/>
     <use style="fill-opacity:0;stroke:#3c93b8;stroke-width:0.75;" x="72.315693" xlink:href="#me8744b07bb" y="117.5886"/>
     <use style="fill-opacity:0;stroke:#3c93b8;stroke-width:0.75;" x="80.627585" xlink:href="#me8744b07bb" y="117.461157"/>
     <use style="fill-opacity:0;stroke:#3c93b8;stroke-width:0.75;" x="88.939477" xlink:href="#me8744b07bb" y="117.359681"/>
     <use style="fill-opacity:0;stroke:#3c93b8;stroke-width:0.75;" x="97.251369" xlink:href="#me8744b07bb" y="117.479553"/>
     <use style="fill-opacity:0;stroke:#3c93b8;stroke-width:0.75;" x="105.563261" xlink:href="#me8744b07bb" y="116.954793"/>
     <use style="fill-opacity:0;stroke:#3c93b8;stroke-width:0.75;" x="113.875154" xlink:href="#me8744b07bb" y="116.408823"/>
     <use style="fill-opacity:0;stroke:#3c93b8;stroke-width:0.75;" x="122.187046" xlink:href="#me8744b07bb" y="115.934705"/>
     <use style="fill-opacity:0;stroke:#3c93b8;stroke-width:0.75;" x="130.498938" xlink:href="#me8744b07bb" y="114.491894"/>
     <use style="fill-opacity:0;stroke:#3c93b8;stroke-width:0.75;" x="138.81083" xlink:href="#me8744b07bb" y="111.336437"/>
     <use style="fill-opacity:0;stroke:#3c93b8;stroke-width:0.75;" x="147.122722" xlink:href="#me8744b07bb" y="108.475323"/>
     <use style="fill-opacity:0;stroke:#3c93b8;stroke-width:0.75;" x="155.434614" xlink:href="#me8744b07bb" y="106.058186"/>
     <use style="fill-opacity:0;stroke:#3c93b8;stroke-width:0.75;" x="163.746507" xlink:href="#me8744b07bb" y="103.974426"/>
     <use style="fill-opacity:0;stroke:#3c93b8;stroke-width:0.75;" x="172.058399" xlink:href="#me8744b07bb" y="102.319002"/>
     <use style="fill-opacity:0;stroke:#3c93b8;stroke-width:0.75;" x="180.370291" xlink:href="#me8744b07bb" y="100.603941"/>
     <use style="fill-opacity:0;stroke:#3c93b8;stroke-width:0.75;" x="188.682183" xlink:href="#me8744b07bb" y="99.296913"/>
     <use style="fill-opacity:0;stroke:#3c93b8;stroke-width:0.75;" x="196.994075" xlink:href="#me8744b07bb" y="97.7674"/>
     <use style="fill-opacity:0;stroke:#3c93b8;stroke-width:0.75;" x="205.305967" xlink:href="#me8744b07bb" y="96.667958"/>
     <use style="fill-opacity:0;stroke:#3c93b8;stroke-width:0.75;" x="213.61786" xlink:href="#me8744b07bb" y="95.549545"/>
     <use style="fill-opacity:0;stroke:#3c93b8;stroke-width:0.75;" x="221.929752" xlink:href="#me8744b07bb" y="94.793655"/>
     <use style="fill-opacity:0;stroke:#3c93b8;stroke-width:0.75;" x="230.241644" xlink:href="#me8744b07bb" y="93.642557"/>
    </g>
   </g>
   <g id="patch_7">
    <path d="M 29.509448 123.251592 
L 29.509448 0.72 
" style="fill:none;stroke:#000000;stroke-linecap:square;stroke-linejoin:miter;stroke-width:0.5;"/>
   </g>
   <g id="patch_8">
    <path d="M 239.80032 123.251592 
L 239.80032 0.72 
" style="fill:none;stroke:#000000;stroke-linecap:square;stroke-linejoin:miter;stroke-width:0.5;"/>
   </g>
   <g id="patch_9">
    <path d="M 29.509448 123.251592 
L 239.80032 123.251592 
" style="fill:none;stroke:#000000;stroke-linecap:square;stroke-linejoin:miter;stroke-width:0.5;"/>
   </g>
   <g id="patch_10">
    <path d="M 29.509448 0.72 
L 239.80032 0.72 
" style="fill:none;stroke:#000000;stroke-linecap:square;stroke-linejoin:miter;stroke-width:0.5;"/>
   </g>
   <g id="text_15">
    <!-- $N_\graphene = 24$ -->
    <g transform="translate(34.579952 109.254971)scale(0.09 -0.09)">
     <use transform="scale(0.996264)" xlink:href="#CMMI12-78"/>
     <use transform="translate(78.115119 -15.337838)scale(0.697382)" xlink:href="#SVRsymbols-115"/>
     <use transform="translate(170.655619 0)scale(0.996264)" xlink:href="#CMR17-61"/>
     <use transform="translate(270.044417 0)scale(0.996264)" xlink:href="#CMR17-50"/>
     <use transform="translate(315.734894 0)scale(0.996264)" xlink:href="#CMR17-52"/>
    </g>
   </g>
   <g id="text_16">
    <!-- $L_z = \SI{10}{\angstrom}$ -->
    <g transform="translate(195.078682 109.254971)scale(0.09 -0.09)">
     <defs>
      <path d="M 36.703125 60.3125 
C 37.59375 64.09375 37.90625 65.09375 46.703125 65.09375 
C 49.40625 65.09375 50.09375 65.09375 50.09375 66.984375 
C 50.09375 68 49 68 48.59375 68 
C 46.59375 68 44.296875 67.796875 42.296875 67.796875 
L 28.90625 67.796875 
C 27 67.796875 24.796875 68 22.90625 68 
C 22.09375 68 21 68 21 66.09375 
C 21 65.09375 21.90625 65.09375 23.40625 65.09375 
C 29.5 65.09375 29.5 64.296875 29.5 63.203125 
C 29.5 63 29.5 62.40625 29.09375 60.90625 
L 15.59375 7.375 
C 14.703125 3.890625 14.5 2.890625 7.5 2.890625 
C 5.59375 2.890625 4.59375 2.890625 4.59375 1.09375 
C 4.59375 0 5.203125 0 7.203125 0 
L 52 0 
C 54.203125 0 54.296875 0.09375 55 1.890625 
L 62.703125 23.09375 
C 62.90625 23.59375 63.09375 24.1875 63.09375 24.484375 
C 63.09375 25.078125 62.59375 25.484375 62.09375 25.484375 
C 62 25.484375 61.5 25.484375 61.296875 25.078125 
C 61.09375 24.984375 61.09375 24.78125 60.296875 22.890625 
C 57.09375 14.140625 52.59375 2.890625 35.703125 2.890625 
L 26.09375 2.890625 
C 24.703125 2.890625 24.5 2.890625 23.90625 2.984375 
C 22.796875 3.09375 22.703125 3.296875 22.703125 4.09375 
C 22.703125 4.78125 22.90625 5.375 23.09375 6.28125 
z
" id="CMMI12-76"/>
      <path d="M 12.703125 7.59375 
C 17 12.640625 20.5 15.859375 25.5 20.515625 
C 31.5 25.890625 34.09375 28.46875 35.5 30.03125 
C 42.5 37.046875 46 42.390625 46 43.1875 
C 46 44 45.203125 44 45 44 
C 44.296875 44 44.09375 43.59375 43.59375 42.890625 
C 41.09375 38.59375 38.703125 37 36.09375 37 
C 34 37 32.90625 37.546875 31 39.796875 
C 28.90625 42.296875 27.203125 44 24.296875 44 
C 17 44 12.59375 35.390625 12.59375 33.234375 
C 12.59375 32.921875 12.703125 32.296875 13.59375 32.296875 
C 14.40625 32.296875 14.5 32.71875 14.796875 33.4375 
C 16.5 37.296875 21.296875 37.734375 23.203125 37.734375 
C 25.296875 37.734375 27.296875 37.296875 29.40625 36.59375 
C 33.203125 34.984375 34.796875 34.984375 35.796875 34.984375 
C 36.5 34.984375 36.90625 34.984375 37.40625 35.09375 
C 34.09375 31.0625 28.703125 26.09375 24.203125 21.859375 
L 14.09375 12.234375 
C 8 5.9375 4.296875 0.5 4.296875 -0.203125 
C 4.296875 -0.8125 4.796875 -1 5.40625 -1 
C 6 -1 6.09375 -0.90625 6.796875 0.296875 
C 8.40625 2.796875 11.59375 6 15.296875 6 
C 17.40625 6 18.40625 5.5625 20.40625 3.296875 
C 22.296875 1.09375 24 -1 27.203125 -1 
C 37 -1 42.59375 11.296875 42.59375 13.6875 
C 42.59375 14.09375 42.5 14.71875 41.5 14.71875 
C 40.703125 14.71875 40.59375 14.296875 40.296875 13.265625 
C 38.09375 7.1875 32.203125 5.25 28.296875 5.25 
C 26.203125 5.25 24.203125 5.6875 22.09375 6.390625 
C 18.09375 8 17 8 15.703125 8 
C 14.703125 8 13.59375 8 12.703125 7.59375 
z
" id="CMMI12-122"/>
      <path d="M 32.59375 64 
C 29 63.328125 25.40625 60.875 25.40625 56.453125 
L 25.40625 55.78125 
C 25.90625 51.921875 29.5 49 33.59375 49 
C 37.703125 49 41.703125 52.484375 41.703125 56.546875 
L 41.703125 57.296875 
C 41.203125 61.890625 37.59375 65 33.5 65 
C 33.203125 64.09375 32.90625 64 32.59375 64 
z
M 26.703125 55.78125 
L 26.703125 56.453125 
C 26.703125 61 30 63.390625 33.703125 63.390625 
C 37.40625 63.390625 39.90625 60.890625 40.40625 57.5 
L 40.40625 56.796875 
C 40.40625 52.390625 37.09375 50 33.40625 50 
C 29.703125 50 27.203125 52.5 26.703125 55.890625 
z
" id="Computer_Modern_Roman-6"/>
      <path d="M 36.296875 69.390625 
C 35.796875 70.6875 35.59375 71 34.59375 71 
C 33.59375 71 33.40625 70.6875 32.90625 69.390625 
L 11.703125 9.0625 
C 9.796875 3.6875 5.796875 2.59375 2.296875 2.59375 
L 2.296875 0 
C 4.09375 0.1875 8.09375 0.1875 10 0.1875 
C 12.5 0.1875 16.5 0.1875 18.90625 0 
L 18.90625 2.59375 
C 14.203125 2.796875 13.5 5.96875 13.5 7.171875 
C 13.5 8.0625 13.703125 8.5625 13.90625 9.15625 
L 19.203125 24 
L 45.40625 24 
L 51.40625 7.078125 
C 51.90625 5.875 51.90625 5.671875 51.90625 5.28125 
C 51.90625 2.59375 47.59375 2.59375 45.703125 2.59375 
L 45.703125 0 
C 48.59375 0.1875 53.796875 0.1875 56.90625 0.1875 
C 59.5 0.1875 64.5 0.1875 66.90625 0 
L 66.90625 2.59375 
C 61.59375 2.59375 59.796875 2.59375 58.5 6.28125 
z
M 32.296875 61.3125 
L 44.5 26.59375 
L 20.09375 26.59375 
z
" id="CMR17-65"/>
     </defs>
     <use transform="scale(0.996264)" xlink:href="#CMMI12-76"/>
     <use transform="translate(66.370875 -14.943915)scale(0.697382)" xlink:href="#CMMI12-122"/>
     <use transform="translate(129.37144 0)scale(0.996264)" xlink:href="#CMR17-61"/>
     <use transform="translate(228.760237 0)scale(0.996264)" xlink:href="#CMR17-49"/>
     <use transform="translate(274.450714 0)scale(0.996264)" xlink:href="#CMR17-48"/>
     <use transform="translate(359.307246 52.703059)scale(0.356961)" xlink:href="#Computer_Modern_Roman-6"/>
     <use transform="translate(336.745596 0)scale(0.996264)" xlink:href="#CMR17-65"/>
    </g>
   </g>
   <g id="text_17">
    <!-- $L_z = \SI{5.05}{\angstrom}$ -->
    <g transform="translate(187.911163 23.482856)scale(0.09 -0.09)">
     <use transform="scale(0.996264)" xlink:href="#CMMI12-76"/>
     <use transform="translate(66.370875 -14.943915)scale(0.697382)" xlink:href="#CMMI12-122"/>
     <use transform="translate(129.37144 0)scale(0.996264)" xlink:href="#CMR17-61"/>
     <use transform="translate(228.760237 0)scale(0.996264)" xlink:href="#CMR17-53"/>
     <use transform="translate(274.450714 0)scale(0.996264)" xlink:href="#CMMI12-58"/>
     <use transform="translate(301.547891 0)scale(0.996264)" xlink:href="#CMR17-48"/>
     <use transform="translate(347.238368 0)scale(0.996264)" xlink:href="#CMR17-53"/>
     <use transform="translate(432.0949 52.703059)scale(0.356961)" xlink:href="#Computer_Modern_Roman-6"/>
     <use transform="translate(409.533251 0)scale(0.996264)" xlink:href="#CMR17-65"/>
    </g>
   </g>
  </g>
  <g id="axes_2">
   <g id="patch_11">
    <path d="M 49.61348 74.572881 
L 110.177251 74.572881 
L 110.177251 7.670632 
L 49.61348 7.670632 
z
" style="fill:none;"/>
   </g>
   <g id="matplotlib.axis_3">
    <g id="xtick_7">
     <g id="line2d_15">
      <g>
       <use style="stroke:#000000;stroke-width:0.5;" x="49.61348" xlink:href="#me91b5c18cf" y="74.572881"/>
      </g>
     </g>
     <g id="text_18">
      <!-- $\mathdefault{0}$ -->
      <g transform="translate(47.309635 84.799531)scale(0.09 -0.09)">
       <use transform="scale(0.996264)" xlink:href="#CMR17-48"/>
      </g>
     </g>
    </g>
    <g id="xtick_8">
     <g id="line2d_16">
      <g>
       <use style="stroke:#000000;stroke-width:0.5;" x="87.465837" xlink:href="#me91b5c18cf" y="74.572881"/>
      </g>
     </g>
     <g id="text_19">
      <!-- $\mathdefault{5}$ -->
      <g transform="translate(85.161992 84.799531)scale(0.09 -0.09)">
       <use transform="scale(0.996264)" xlink:href="#CMR17-53"/>
      </g>
     </g>
    </g>
    <g id="text_20">
     <!-- $\alabel{z}{\angstrom}$ -->
     <g transform="translate(67.320071 96.576269)scale(0.09 -0.09)">
      <use transform="scale(0.996264)" xlink:href="#CMMI12-122"/>
      <use transform="translate(105.103162 0.003177)scale(0.996264)" xlink:href="#CMR17-40"/>
      <use transform="translate(162.945579 52.703059)scale(0.356961)" xlink:href="#Computer_Modern_Roman-6"/>
      <use transform="translate(140.38393 0)scale(0.996264)" xlink:href="#CMR17-65"/>
      <use transform="translate(209.45636 0.003177)scale(0.996264)" xlink:href="#CMR17-41"/>
     </g>
    </g>
   </g>
   <g id="matplotlib.axis_4">
    <g id="ytick_7">
     <g id="line2d_17">
      <g>
       <use style="stroke:#000000;stroke-width:0.5;" x="49.61348" xlink:href="#m2c3cd37678" y="71.53187"/>
      </g>
     </g>
    </g>
    <g id="ytick_8">
     <g id="line2d_18">
      <g>
       <use style="stroke:#000000;stroke-width:0.5;" x="49.61348" xlink:href="#m2c3cd37678" y="49.078834"/>
      </g>
     </g>
    </g>
    <g id="ytick_9">
     <g id="line2d_19">
      <g>
       <use style="stroke:#000000;stroke-width:0.5;" x="49.61348" xlink:href="#m2c3cd37678" y="26.625799"/>
      </g>
     </g>
    </g>
    <g id="text_21">
     <!-- $\alabel{\rho(z)/N}{\angstrom^{-1}}$ -->
     <g transform="translate(41.371886 70.183574)rotate(-90)scale(0.09 -0.09)">
      <defs>
       <path d="M 3.09375 -16.953125 
C 3 -17.4375 2.796875 -18.03125 2.796875 -18.609375 
C 2.796875 -20.109375 4 -21.109375 5.5 -21.109375 
C 7 -21.109375 8.40625 -20.109375 9 -18.71875 
C 9.40625 -17.828125 12.203125 -6.09375 15.40625 6.078125 
C 17.40625 1.09375 21.09375 -1 25 -1 
C 36.296875 -1 49.09375 12.96875 49.09375 28.03125 
C 49.09375 38.703125 42.59375 44 35.703125 44 
C 26.90625 44 16.203125 34.90625 12.90625 21.640625 
z
M 24.90625 1 
C 18.09375 1 16.40625 8.875 16.40625 10.078125 
C 16.40625 10.671875 18.90625 20.140625 19.203125 21.640625 
C 24.296875 41.5 34.09375 41.984375 35.59375 41.984375 
C 40.09375 41.984375 42.59375 37.90625 42.59375 32.015625 
C 42.59375 26.9375 39.90625 17.046875 38.203125 12.859375 
C 35.203125 5.984375 30 1 24.90625 1 
z
" id="CMMI12-26"/>
      </defs>
      <use transform="scale(0.996264)" xlink:href="#CMMI12-26"/>
      <use transform="translate(50.314373 0)scale(0.996264)" xlink:href="#CMR17-40"/>
      <use transform="translate(85.595141 0)scale(0.996264)" xlink:href="#CMMI12-122"/>
      <use transform="translate(135.350286 0)scale(0.996264)" xlink:href="#CMR17-41"/>
      <use transform="translate(170.631053 0)scale(0.996264)" xlink:href="#CMMI12-61"/>
      <use transform="translate(213.986537 0)scale(0.996264)" xlink:href="#CMMI12-78"/>
      <use transform="translate(357.856327 0)scale(0.996264)" xlink:href="#CMR17-40"/>
      <use transform="translate(415.698744 52.703059)scale(0.356961)" xlink:href="#Computer_Modern_Roman-6"/>
      <use transform="translate(393.137095 0)scale(0.996264)" xlink:href="#CMR17-65"/>
      <use transform="translate(462.209524 48.338187)scale(0.697382)" xlink:href="#CMSY10-0"/>
      <use transform="translate(516.450518 48.338187)scale(0.697382)" xlink:href="#CMR17-49"/>
      <use transform="translate(548.931832 0)scale(0.996264)" xlink:href="#CMR17-41"/>
     </g>
    </g>
   </g>
   <g id="line2d_20">
    <path clip-path="url(#p6d4e4e43ba)" d="M 49.61348 71.53187 
L 49.992004 71.53187 
L 50.370527 71.53187 
L 50.749051 71.53187 
L 51.127574 71.53187 
L 51.506098 71.53187 
L 51.884621 71.53187 
L 52.263145 71.53187 
L 52.641669 71.53187 
L 53.020192 71.53187 
L 53.398716 71.53187 
L 53.777239 71.53187 
L 54.155763 71.53187 
L 54.534286 71.53187 
L 54.91281 71.53187 
L 55.291334 71.53187 
L 55.669857 71.53187 
L 56.048381 71.53187 
L 56.426904 71.53187 
L 56.805428 71.53187 
L 57.183951 71.53187 
L 57.562475 71.53187 
L 57.940999 71.53187 
L 58.319522 71.53187 
L 58.698046 71.53187 
L 59.076569 71.53187 
L 59.455093 71.53187 
L 59.833616 71.53187 
L 60.21214 71.53187 
L 60.590664 71.53187 
L 60.969187 71.53187 
L 61.347711 71.53187 
L 61.726234 71.53187 
L 62.104758 71.53187 
L 62.483281 71.53187 
L 62.861805 71.531801 
L 63.240329 71.531351 
L 63.618852 71.529086 
L 63.997376 71.520094 
L 64.375899 71.488398 
L 64.754423 71.390852 
L 65.132946 71.137553 
L 65.51147 70.568204 
L 65.889994 69.398381 
L 66.268517 67.27312 
L 66.647041 63.887135 
L 67.025564 58.98927 
L 67.404088 52.479456 
L 67.782611 44.742006 
L 68.161135 36.361989 
L 68.539659 27.986352 
L 68.918182 20.357009 
L 69.296706 14.855505 
L 69.675229 11.59048 
L 70.053753 10.711643 
L 70.432276 12.368484 
L 70.8108 16.274547 
L 71.189324 21.779585 
L 71.567847 28.615984 
L 71.946371 35.714633 
L 72.324894 42.931281 
L 72.703418 49.692348 
L 73.081941 55.615866 
L 73.460465 60.620759 
L 73.838988 64.633674 
L 74.217512 67.688817 
L 74.596036 69.879927 
L 74.974559 71.115613 
L 75.353083 71.498563 
L 75.731606 71.531706 
L 76.11013 71.53187 
L 76.488653 71.53187 
L 76.867177 71.53187 
L 77.245701 71.53187 
L 77.624224 71.53187 
L 78.002748 71.53187 
L 78.381271 71.53187 
L 78.759795 71.53187 
L 79.138318 71.53187 
L 79.516842 71.53187 
L 79.895366 71.53187 
L 80.273889 71.53187 
L 80.652413 71.53187 
L 81.030936 71.53187 
L 81.40946 71.53187 
L 81.787983 71.53187 
L 82.166507 71.53187 
L 82.545031 71.53187 
L 82.923554 71.53187 
L 83.302078 71.53187 
L 83.680601 71.53187 
L 84.059125 71.53187 
L 84.437648 71.53187 
L 84.816172 71.53187 
L 85.194696 71.53187 
L 85.573219 71.53187 
L 85.951743 71.53187 
L 86.330266 71.53187 
L 86.70879 71.53187 
L 87.087313 71.53187 
L 87.465837 71.53187 
" style="fill:none;stroke:#5e4fa2;stroke-linecap:square;stroke-width:0.75;"/>
   </g>
   <g id="line2d_21">
    <path clip-path="url(#p6d4e4e43ba)" d="M 49.61348 71.53187 
L 50.363032 71.53187 
L 51.112585 71.53187 
L 51.862137 71.53187 
L 52.61169 71.53187 
L 53.361242 71.53187 
L 54.110787 71.53187 
L 54.860339 71.53187 
L 55.609891 71.53187 
L 56.359444 71.53187 
L 57.108996 71.53187 
L 57.858549 71.53187 
L 58.608101 71.53187 
L 59.357653 71.53187 
L 60.107206 71.53187 
L 60.856758 71.53187 
L 61.606303 71.53187 
L 62.355855 71.531856 
L 63.105408 71.531436 
L 63.85496 71.521382 
L 64.604512 71.409976 
L 65.354065 70.757387 
L 66.103617 68.292881 
L 66.853169 62.077696 
L 67.602722 51.354278 
L 68.352274 37.974053 
L 69.101819 26.323196 
L 69.851371 20.311026 
L 70.600924 21.153037 
L 71.350476 27.585991 
L 72.100029 36.919263 
L 72.849581 46.399944 
L 73.599133 54.496564 
L 74.348686 60.653084 
L 75.098238 64.967672 
L 75.84779 67.693191 
L 76.597335 69.375434 
L 77.346888 70.357839 
L 78.09644 70.916289 
L 78.845992 71.212073 
L 79.595545 71.367792 
L 80.345096 71.453028 
L 81.094648 71.494578 
L 81.8442 71.514209 
L 82.593751 71.523015 
L 83.343303 71.527653 
L 84.092854 71.528948 
L 84.842406 71.530464 
L 85.591958 71.531284 
L 86.341509 71.531635 
L 87.091061 71.531815 
L 87.840613 71.53187 
L 88.590165 71.53187 
L 89.339716 71.53187 
L 90.089268 71.53187 
L 90.83882 71.53187 
L 91.588371 71.53187 
L 92.337923 71.53187 
L 93.087474 71.53187 
L 93.837026 71.53187 
L 94.586578 71.53187 
L 95.336129 71.53187 
L 96.085682 71.53187 
L 96.835234 71.53187 
L 97.584786 71.53187 
L 98.334339 71.53187 
L 99.083884 71.53187 
L 99.833436 71.53187 
L 100.582988 71.53187 
L 101.332541 71.53187 
L 102.082093 71.53187 
L 102.831645 71.53187 
L 103.581198 71.53187 
L 104.33075 71.53187 
L 105.080303 71.53187 
L 105.829855 71.53187 
L 106.5794 71.53187 
L 107.328952 71.53187 
L 108.078505 71.53187 
L 108.828057 71.53187 
L 109.577609 71.53187 
L 110.327162 71.53187 
L 111.076714 71.53187 
L 111.826266 71.53187 
L 112.575819 71.53187 
L 113.325371 71.53187 
L 114.074916 71.53187 
L 114.824468 71.53187 
L 115.574021 71.53187 
L 116.323573 71.53187 
L 117.073125 71.53187 
L 117.822678 71.53187 
L 118.57223 71.53187 
L 119.321783 71.53187 
L 120.071335 71.53187 
L 120.820887 71.53187 
L 121.570432 71.53187 
L 122.319984 71.53187 
L 123.069537 71.53187 
L 123.819089 71.53187 
L 124.568642 71.53187 
" style="fill:none;stroke:#3c93b8;stroke-linecap:square;stroke-width:0.75;"/>
   </g>
   <g id="patch_12">
    <path d="M 49.61348 74.572881 
L 49.61348 7.670632 
" style="fill:none;stroke:#000000;stroke-linecap:square;stroke-linejoin:miter;stroke-width:0.5;"/>
   </g>
   <g id="patch_13">
    <path d="M 110.177251 74.572881 
L 110.177251 7.670632 
" style="fill:none;stroke:#000000;stroke-linecap:square;stroke-linejoin:miter;stroke-width:0.5;"/>
   </g>
   <g id="patch_14">
    <path d="M 49.61348 74.572881 
L 110.177251 74.572881 
" style="fill:none;stroke:#000000;stroke-linecap:square;stroke-linejoin:miter;stroke-width:0.5;"/>
   </g>
   <g id="patch_15">
    <path d="M 49.61348 7.670632 
L 110.177251 7.670632 
" style="fill:none;stroke:#000000;stroke-linecap:square;stroke-linejoin:miter;stroke-width:0.5;"/>
   </g>
   <g id="text_22">
    <!-- $f = 1/3$ -->
    <g transform="translate(75.590512 15.464375)scale(0.09 -0.09)">
     <defs>
      <path d="M 22.09375 34 
C 31 34 34.90625 26.140625 34.90625 17.09375 
C 34.90625 5.03125 28.5 0.390625 22.703125 0.390625 
C 17.40625 0.390625 8.796875 3.015625 6.09375 10.796875 
C 6.59375 10.59375 7.09375 10.59375 7.59375 10.59375 
C 10 10.59375 11.796875 12.1875 11.796875 14.796875 
C 11.796875 17.6875 9.59375 19 7.59375 19 
C 5.90625 19 3.296875 18.1875 3.296875 14.484375 
C 3.296875 5.234375 12.296875 -2 22.90625 -2 
C 34 -2 42.5 6.75 42.5 16.984375 
C 42.5 26.84375 34.5 34 25 35.09375 
C 32.59375 36.671875 39.90625 43.375 39.90625 52.390625 
C 39.90625 60.25 32 66 23 66 
C 13.90625 66 5.90625 60.34375 5.90625 52.296875 
C 5.90625 48.796875 8.5 48.1875 9.796875 48.1875 
C 11.90625 48.1875 13.703125 49.484375 13.703125 52.09375 
C 13.703125 54.6875 11.90625 56 9.796875 56 
C 9.40625 56 8.90625 56 8.5 55.796875 
C 11.40625 62.484375 19.296875 63.6875 22.796875 63.6875 
C 26.296875 63.6875 32.90625 61.96875 32.90625 52.296875 
C 32.90625 49.484375 32.5 44.546875 29.09375 40.21875 
C 26.09375 36.390625 22.703125 36.1875 19.40625 35.890625 
C 18.90625 35.890625 16.59375 35.6875 16.203125 35.6875 
C 15.5 35.59375 15.09375 35.5 15.09375 34.796875 
C 15.09375 34.09375 15.203125 34 17.203125 34 
z
" id="CMR17-51"/>
     </defs>
     <use transform="scale(0.996264)" xlink:href="#CMMI12-102"/>
     <use transform="translate(86.394314 0)scale(0.996264)" xlink:href="#CMR17-61"/>
     <use transform="translate(185.783111 0)scale(0.996264)" xlink:href="#CMR17-49"/>
     <use transform="translate(231.473588 0)scale(0.996264)" xlink:href="#CMMI12-61"/>
     <use transform="translate(280.248507 0)scale(0.996264)" xlink:href="#CMR17-51"/>
    </g>
   </g>
   <g id="text_23">
    <!-- $f = 1/3$ -->
    <g transform="translate(75.590512 15.464375)scale(0.09 -0.09)">
     <use transform="scale(0.996264)" xlink:href="#CMMI12-102"/>
     <use transform="translate(86.394314 0)scale(0.996264)" xlink:href="#CMR17-61"/>
     <use transform="translate(185.783111 0)scale(0.996264)" xlink:href="#CMR17-49"/>
     <use transform="translate(231.473588 0)scale(0.996264)" xlink:href="#CMMI12-61"/>
     <use transform="translate(280.248507 0)scale(0.996264)" xlink:href="#CMR17-51"/>
    </g>
   </g>
  </g>
  <g id="axes_3">
   <g id="patch_16">
    <path d="M 114.80365 74.572881 
L 175.367421 74.572881 
L 175.367421 7.670632 
L 114.80365 7.670632 
z
" style="fill:none;"/>
   </g>
   <g id="matplotlib.axis_5">
    <g id="xtick_9">
     <g id="line2d_22">
      <g>
       <use style="stroke:#000000;stroke-width:0.5;" x="114.80365" xlink:href="#me91b5c18cf" y="74.572881"/>
      </g>
     </g>
     <g id="text_24">
      <!-- $\mathdefault{0}$ -->
      <g transform="translate(112.499805 84.799531)scale(0.09 -0.09)">
       <use transform="scale(0.996264)" xlink:href="#CMR17-48"/>
      </g>
     </g>
    </g>
    <g id="xtick_10">
     <g id="line2d_23">
      <g>
       <use style="stroke:#000000;stroke-width:0.5;" x="152.656007" xlink:href="#me91b5c18cf" y="74.572881"/>
      </g>
     </g>
     <g id="text_25">
      <!-- $\mathdefault{5}$ -->
      <g transform="translate(150.352162 84.799531)scale(0.09 -0.09)">
       <use transform="scale(0.996264)" xlink:href="#CMR17-53"/>
      </g>
     </g>
    </g>
    <g id="text_26">
     <!-- $\alabel{z}{\angstrom}$ -->
     <g transform="translate(132.510241 96.576269)scale(0.09 -0.09)">
      <use transform="scale(0.996264)" xlink:href="#CMMI12-122"/>
      <use transform="translate(105.103162 0.003177)scale(0.996264)" xlink:href="#CMR17-40"/>
      <use transform="translate(162.945579 52.703059)scale(0.356961)" xlink:href="#Computer_Modern_Roman-6"/>
      <use transform="translate(140.38393 0)scale(0.996264)" xlink:href="#CMR17-65"/>
      <use transform="translate(209.45636 0.003177)scale(0.996264)" xlink:href="#CMR17-41"/>
     </g>
    </g>
   </g>
   <g id="matplotlib.axis_6">
    <g id="ytick_10">
     <g id="line2d_24">
      <g>
       <use style="stroke:#000000;stroke-width:0.5;" x="114.80365" xlink:href="#m2c3cd37678" y="71.53187"/>
      </g>
     </g>
    </g>
    <g id="ytick_11">
     <g id="line2d_25">
      <g>
       <use style="stroke:#000000;stroke-width:0.5;" x="114.80365" xlink:href="#m2c3cd37678" y="40.175463"/>
      </g>
     </g>
    </g>
    <g id="ytick_12">
     <g id="line2d_26">
      <g>
       <use style="stroke:#000000;stroke-width:0.5;" x="114.80365" xlink:href="#m2c3cd37678" y="8.819056"/>
      </g>
     </g>
    </g>
   </g>
   <g id="line2d_27">
    <path clip-path="url(#pede73752e5)" d="M 114.80365 71.53187 
L 115.182174 71.53187 
L 115.560697 71.53187 
L 115.939221 71.53187 
L 116.317745 71.53187 
L 116.696268 71.53187 
L 117.074792 71.53187 
L 117.453315 71.53187 
L 117.831839 71.53187 
L 118.210362 71.53187 
L 118.588886 71.53187 
L 118.96741 71.53187 
L 119.345933 71.53187 
L 119.724457 71.53187 
L 120.10298 71.53187 
L 120.481504 71.53187 
L 120.860027 71.53187 
L 121.238551 71.53187 
L 121.617075 71.53187 
L 121.995598 71.53187 
L 122.374122 71.53187 
L 122.752645 71.53187 
L 123.131169 71.53187 
L 123.509692 71.53187 
L 123.888216 71.53187 
L 124.26674 71.53187 
L 124.645263 71.53187 
L 125.023787 71.53187 
L 125.40231 71.53187 
L 125.780834 71.53187 
L 126.159357 71.53187 
L 126.537881 71.53187 
L 126.916405 71.53187 
L 127.294928 71.53187 
L 127.673452 71.531692 
L 128.051975 71.528184 
L 128.430499 71.503804 
L 128.809022 71.406018 
L 129.187546 71.135708 
L 129.56607 70.462663 
L 129.944593 68.949778 
L 130.323117 66.170692 
L 130.70164 61.967671 
L 131.080164 55.917684 
L 131.458687 48.530445 
L 131.837211 40.01427 
L 132.215735 31.524918 
L 132.594258 24.273344 
L 132.972782 18.291923 
L 133.351305 14.099604 
L 133.729829 11.459515 
L 134.108352 10.711643 
L 134.486876 10.886655 
L 134.8654 12.096368 
L 135.243923 14.306056 
L 135.622447 16.449354 
L 136.00097 18.241609 
L 136.379494 21.373648 
L 136.758017 24.259889 
L 137.136541 27.933258 
L 137.515065 32.197652 
L 137.893588 36.88725 
L 138.272112 42.035891 
L 138.650635 47.986582 
L 139.029159 54.431266 
L 139.407682 60.342523 
L 139.786206 65.880043 
L 140.16473 69.865999 
L 140.543253 71.385679 
L 140.921777 71.530981 
L 141.3003 71.53187 
L 141.678824 71.53187 
L 142.057347 71.53187 
L 142.435871 71.53187 
L 142.814395 71.53187 
L 143.192918 71.53187 
L 143.571442 71.53187 
L 143.949965 71.53187 
L 144.328489 71.53187 
L 144.707012 71.53187 
L 145.085536 71.53187 
L 145.464059 71.53187 
L 145.842583 71.53187 
L 146.221107 71.53187 
L 146.59963 71.53187 
L 146.978154 71.53187 
L 147.356677 71.53187 
L 147.735201 71.53187 
L 148.113724 71.53187 
L 148.492248 71.53187 
L 148.870772 71.53187 
L 149.249295 71.53187 
L 149.627819 71.53187 
L 150.006342 71.53187 
L 150.384866 71.53187 
L 150.763389 71.53187 
L 151.141913 71.53187 
L 151.520437 71.53187 
L 151.89896 71.53187 
L 152.277484 71.53187 
L 152.656007 71.53187 
" style="fill:none;stroke:#5e4fa2;stroke-linecap:square;stroke-width:0.75;"/>
   </g>
   <g id="line2d_28">
    <path clip-path="url(#pede73752e5)" d="M 114.80365 71.53187 
L 115.553203 71.53187 
L 116.302755 71.53187 
L 117.052307 71.53187 
L 117.80186 71.53187 
L 118.551412 71.53187 
L 119.300957 71.53187 
L 120.050509 71.53187 
L 120.800062 71.53187 
L 121.549614 71.53187 
L 122.299167 71.53187 
L 123.048719 71.53187 
L 123.798271 71.53187 
L 124.547824 71.53187 
L 125.297376 71.53187 
L 126.046928 71.53187 
L 126.796473 71.53187 
L 127.546026 71.53187 
L 128.295578 71.531679 
L 129.04513 71.523736 
L 129.794683 71.420977 
L 130.544235 70.842445 
L 131.293787 68.660249 
L 132.04334 63.284296 
L 132.792892 54.00317 
L 133.542445 42.745055 
L 134.291989 32.718378 
L 135.041542 27.734498 
L 135.791094 28.380438 
L 136.540646 33.844886 
L 137.290199 41.573656 
L 138.039751 49.563521 
L 138.789304 56.24352 
L 139.538856 61.526493 
L 140.288408 65.236191 
L 141.037961 67.725448 
L 141.787505 69.263635 
L 142.537058 70.203636 
L 143.28661 70.750229 
L 144.036163 71.064851 
L 144.785715 71.253958 
L 145.535267 71.357408 
L 146.284818 71.414584 
L 147.03437 71.4309 
L 147.783921 71.40199 
L 148.533473 71.321939 
L 149.283025 71.127179 
L 150.032576 70.758983 
L 150.782128 70.099303 
L 151.53168 69.045738 
L 152.281232 67.555948 
L 153.030783 65.701469 
L 153.780335 63.649629 
L 154.529887 61.545695 
L 155.279438 59.615268 
L 156.02899 58.098929 
L 156.778542 57.170616 
L 157.528093 56.881088 
L 158.277645 57.179895 
L 159.027196 57.985365 
L 159.776748 59.141761 
L 160.5263 60.558775 
L 161.275852 61.901773 
L 162.025404 63.348198 
L 162.774957 64.727429 
L 163.524509 65.92032 
L 164.274054 66.974172 
L 165.023606 67.907995 
L 165.773159 68.605578 
L 166.522711 69.218505 
L 167.272263 69.787902 
L 168.021816 70.183838 
L 168.771368 70.49555 
L 169.520921 70.734438 
L 170.270473 70.942675 
L 171.020025 71.091829 
L 171.76957 71.203222 
L 172.519122 71.309774 
L 173.268675 71.377111 
L 174.018227 71.437984 
L 174.76778 71.474909 
L 175.517332 71.500956 
L 176.266884 71.518202 
L 177.016437 71.527576 
L 177.765989 71.531512 
L 178.515541 71.53187 
L 179.265086 71.53187 
L 180.014639 71.53187 
L 180.764191 71.53187 
L 181.513743 71.53187 
L 182.263296 71.53187 
L 183.012848 71.53187 
L 183.7624 71.53187 
L 184.511953 71.53187 
L 185.261505 71.53187 
L 186.011058 71.53187 
L 186.760602 71.53187 
L 187.510155 71.53187 
L 188.259707 71.53187 
L 189.00926 71.53187 
L 189.758812 71.53187 
" style="fill:none;stroke:#3c93b8;stroke-linecap:square;stroke-width:0.75;"/>
   </g>
   <g id="patch_17">
    <path d="M 114.80365 74.572881 
L 114.80365 7.670632 
" style="fill:none;stroke:#000000;stroke-linecap:square;stroke-linejoin:miter;stroke-width:0.5;"/>
   </g>
   <g id="patch_18">
    <path d="M 175.367421 74.572881 
L 175.367421 7.670632 
" style="fill:none;stroke:#000000;stroke-linecap:square;stroke-linejoin:miter;stroke-width:0.5;"/>
   </g>
   <g id="patch_19">
    <path d="M 114.80365 74.572881 
L 175.367421 74.572881 
" style="fill:none;stroke:#000000;stroke-linecap:square;stroke-linejoin:miter;stroke-width:0.5;"/>
   </g>
   <g id="patch_20">
    <path d="M 114.80365 7.670632 
L 175.367421 7.670632 
" style="fill:none;stroke:#000000;stroke-linecap:square;stroke-linejoin:miter;stroke-width:0.5;"/>
   </g>
   <g id="text_27">
    <!-- $f = 1$ -->
    <g transform="translate(149.996064 15.962507)scale(0.09 -0.09)">
     <use transform="scale(0.996264)" xlink:href="#CMMI12-102"/>
     <use transform="translate(86.394314 0)scale(0.996264)" xlink:href="#CMR17-61"/>
     <use transform="translate(185.783111 0)scale(0.996264)" xlink:href="#CMR17-49"/>
    </g>
   </g>
   <g id="text_28">
    <!-- $f = 1$ -->
    <g transform="translate(149.996064 15.962507)scale(0.09 -0.09)">
     <use transform="scale(0.996264)" xlink:href="#CMMI12-102"/>
     <use transform="translate(86.394314 0)scale(0.996264)" xlink:href="#CMR17-61"/>
     <use transform="translate(185.783111 0)scale(0.996264)" xlink:href="#CMR17-49"/>
    </g>
   </g>
  </g>
 </g>
 <defs>
  <clipPath id="pb32bd70c0e">
   <rect height="122.531592" width="210.290872" x="29.509448" y="0.72"/>
  </clipPath>
  <clipPath id="p6d4e4e43ba">
   <rect height="66.902249" width="60.563771" x="49.61348" y="7.670632"/>
  </clipPath>
  <clipPath id="pede73752e5">
   <rect height="66.902249" width="60.563771" x="114.80365" y="7.670632"/>
  </clipPath>
 </defs>
</svg>
