<?xml version="1.0" encoding="utf-8" standalone="no"?>
<!DOCTYPE svg PUBLIC "-//W3C//DTD SVG 1.1//EN"
  "http://www.w3.org/Graphics/SVG/1.1/DTD/svg11.dtd">
<!-- Created with matplotlib (https://matplotlib.org/) -->
<svg height="138.735251pt" version="1.1" viewBox="0 0 210.951687 138.735251" width="210.951687pt" xmlns="http://www.w3.org/2000/svg" xmlns:xlink="http://www.w3.org/1999/xlink">
 <metadata>
  <rdf:RDF xmlns:cc="http://creativecommons.org/ns#" xmlns:dc="http://purl.org/dc/elements/1.1/" xmlns:rdf="http://www.w3.org/1999/02/22-rdf-syntax-ns#">
   <cc:Work>
    <dc:type rdf:resource="http://purl.org/dc/dcmitype/StillImage"/>
    <dc:date>2021-02-28T13:43:57.874648</dc:date>
    <dc:format>image/svg+xml</dc:format>
    <dc:creator>
     <cc:Agent>
      <dc:title>Matplotlib v3.3.2, https://matplotlib.org/</dc:title>
     </cc:Agent>
    </dc:creator>
   </cc:Work>
  </rdf:RDF>
 </metadata>
 <defs>
  <style type="text/css">*{stroke-linecap:butt;stroke-linejoin:round;}</style>
 </defs>
 <g id="figure_1">
  <g id="patch_1">
   <path d="M 0 138.735251 
L 210.951687 138.735251 
L 210.951687 0 
L 0 0 
z
" style="fill:none;"/>
  </g>
  <g id="axes_1">
   <g id="patch_2">
    <path d="M 20.294067 115.078763 
L 210.231687 115.078763 
L 210.231687 0.72 
L 20.294067 0.72 
z
" style="fill:none;"/>
   </g>
   <g id="PolyCollection_1">
    <defs>
     <path d="M 20.294067 -52.250945 
L 20.294067 -23.656488 
L 52.798879 -24.133062 
L 65.613918 -24.609637 
L 75.15141 -25.086211 
L 82.977225 -25.562785 
L 89.699637 -26.03936 
L 95.631468 -26.515934 
L 100.959 -26.992508 
L 105.803945 -27.469082 
L 110.251029 -27.945657 
L 114.362095 -28.422231 
L 118.183943 -28.898805 
L 121.752992 -29.375379 
L 125.098291 -29.851954 
L 128.243425 -30.328528 
L 131.20789 -30.805102 
L 134.007975 -31.281677 
L 136.657515 -31.758251 
L 139.168349 -32.234825 
L 141.550712 -32.711399 
L 143.813503 -33.187974 
L 145.964562 -33.664548 
L 148.010789 -34.141122 
L 149.958337 -34.617696 
L 151.812676 -35.094271 
L 153.57875 -35.570845 
L 155.260983 -36.047419 
L 156.863416 -36.523994 
L 158.389688 -37.000568 
L 159.843128 -37.477142 
L 161.226792 -37.953716 
L 162.543485 -38.430291 
L 163.795786 -38.906865 
L 164.986021 -39.383439 
L 166.116427 -39.860013 
L 167.189031 -40.336588 
L 168.205714 -40.813162 
L 169.168232 -41.289736 
L 170.07824 -41.766311 
L 170.937203 -42.242885 
L 171.746626 -42.719459 
L 172.507795 -43.196033 
L 173.221951 -43.672608 
L 173.890345 -44.149182 
L 174.51397 -44.625756 
L 175.093968 -45.102331 
L 175.631221 -45.578905 
L 176.126768 -46.055479 
L 176.581335 -46.532053 
L 176.995873 -47.008628 
L 177.371051 -47.485202 
L 177.707819 -47.961776 
L 178.006398 -48.43835 
L 178.267959 -48.914925 
L 178.49267 -49.391499 
L 178.681427 -49.868073 
L 178.834763 -50.344648 
L 178.952402 -50.821222 
L 179.037424 -51.297796 
L 179.072234 -51.77437 
L 179.104786 -52.250945 
L 179.104786 -52.250945 
L 179.104786 -52.250945 
L 179.072234 -52.250945 
L 179.037424 -52.250945 
L 178.952402 -52.250945 
L 178.834763 -52.250945 
L 178.681427 -52.250945 
L 178.49267 -52.250945 
L 178.267959 -52.250945 
L 178.006398 -52.250945 
L 177.707819 -52.250945 
L 177.371051 -52.250945 
L 176.995873 -52.250945 
L 176.581335 -52.250945 
L 176.126768 -52.250945 
L 175.631221 -52.250945 
L 175.093968 -52.250945 
L 174.51397 -52.250945 
L 173.890345 -52.250945 
L 173.221951 -52.250945 
L 172.507795 -52.250945 
L 171.746626 -52.250945 
L 170.937203 -52.250945 
L 170.07824 -52.250945 
L 169.168232 -52.250945 
L 168.205714 -52.250945 
L 167.189031 -52.250945 
L 166.116427 -52.250945 
L 164.986021 -52.250945 
L 163.795786 -52.250945 
L 162.543485 -52.250945 
L 161.226792 -52.250945 
L 159.843128 -52.250945 
L 158.389688 -52.250945 
L 156.863416 -52.250945 
L 155.260983 -52.250945 
L 153.57875 -52.250945 
L 151.812676 -52.250945 
L 149.958337 -52.250945 
L 148.010789 -52.250945 
L 145.964562 -52.250945 
L 143.813503 -52.250945 
L 141.550712 -52.250945 
L 139.168349 -52.250945 
L 136.657515 -52.250945 
L 134.007975 -52.250945 
L 131.20789 -52.250945 
L 128.243425 -52.250945 
L 125.098291 -52.250945 
L 121.752992 -52.250945 
L 118.183943 -52.250945 
L 114.362095 -52.250945 
L 110.251029 -52.250945 
L 105.803945 -52.250945 
L 100.959 -52.250945 
L 95.631468 -52.250945 
L 89.699637 -52.250945 
L 82.977225 -52.250945 
L 75.15141 -52.250945 
L 65.613918 -52.250945 
L 52.798879 -52.250945 
L 20.294067 -52.250945 
z
" id="m038d02c63c" style="stroke:#f2f2f2;"/>
    </defs>
    <g clip-path="url(#p710403b633)">
     <use style="fill:#f2f2f2;stroke:#f2f2f2;" x="0" xlink:href="#m038d02c63c" y="138.735251"/>
    </g>
   </g>
   <g id="PolyCollection_2">
    <defs>
     <path d="M 179.16831 -52.250945 
L 179.16831 -52.250945 
L 178.215446 -52.250945 
L 177.262581 -52.250945 
L 176.246193 -52.250945 
L 175.16628 -52.250945 
L 174.086367 -52.250945 
L 172.879406 -52.250945 
L 171.672444 -52.250945 
L 170.401958 -52.250945 
L 169.131473 -52.250945 
L 167.733938 -52.250945 
L 166.336404 -52.250945 
L 164.811821 -52.250945 
L 163.287238 -52.250945 
L 161.762655 -52.250945 
L 160.111024 -52.250945 
L 158.459392 -52.250945 
L 156.680712 -52.250945 
L 154.902032 -52.250945 
L 153.059828 -52.250945 
L 151.217624 -52.250945 
L 149.248371 -52.250945 
L 147.279118 -52.250945 
L 145.182816 -52.250945 
L 143.086515 -52.250945 
L 140.926689 -52.250945 
L 138.703339 -52.250945 
L 136.479989 -52.250945 
L 134.12959 -52.250945 
L 131.715667 -52.250945 
L 129.301744 -52.250945 
L 126.760773 -52.250945 
L 124.219801 -52.250945 
L 121.615305 -52.250945 
L 118.883761 -52.250945 
L 116.152217 -52.250945 
L 113.357148 -52.250945 
L 110.435031 -52.250945 
L 107.512914 -52.250945 
L 104.463748 -52.250945 
L 101.351058 -52.250945 
L 98.238368 -52.250945 
L 94.998629 -52.250945 
L 91.631842 -52.250945 
L 88.265054 -52.250945 
L 84.771219 -52.250945 
L 81.213859 -52.250945 
L 77.592974 -52.250945 
L 73.845041 -52.250945 
L 70.033584 -52.250945 
L 66.095078 -52.250945 
L 62.029524 -52.250945 
L 57.900445 -52.250945 
L 53.644318 -52.250945 
L 49.324666 -52.250945 
L 44.814442 -52.250945 
L 40.240693 -52.250945 
L 35.476371 -52.250945 
L 30.585001 -52.250945 
L 25.503058 -52.250945 
L 20.357591 -52.250945 
L 20.357591 -80.845401 
L 20.357591 -80.845401 
L 25.503058 -80.368827 
L 30.585001 -79.892253 
L 35.476371 -79.415678 
L 40.240693 -78.939104 
L 44.814442 -78.46253 
L 49.324666 -77.985955 
L 53.644318 -77.509381 
L 57.900445 -77.032807 
L 62.029524 -76.556233 
L 66.095078 -76.079658 
L 70.033584 -75.603084 
L 73.845041 -75.12651 
L 77.592974 -74.649935 
L 81.213859 -74.173361 
L 84.771219 -73.696787 
L 88.265054 -73.220213 
L 91.631842 -72.743638 
L 94.998629 -72.267064 
L 98.238368 -71.79049 
L 101.351058 -71.313916 
L 104.463748 -70.837341 
L 107.512914 -70.360767 
L 110.435031 -69.884193 
L 113.357148 -69.407618 
L 116.152217 -68.931044 
L 118.883761 -68.45447 
L 121.615305 -67.977896 
L 124.219801 -67.501321 
L 126.760773 -67.024747 
L 129.301744 -66.548173 
L 131.715667 -66.071599 
L 134.12959 -65.595024 
L 136.479989 -65.11845 
L 138.703339 -64.641876 
L 140.926689 -64.165301 
L 143.086515 -63.688727 
L 145.182816 -63.212153 
L 147.279118 -62.735579 
L 149.248371 -62.259004 
L 151.217624 -61.78243 
L 153.059828 -61.305856 
L 154.902032 -60.829282 
L 156.680712 -60.352707 
L 158.459392 -59.876133 
L 160.111024 -59.399559 
L 161.762655 -58.922984 
L 163.287238 -58.44641 
L 164.811821 -57.969836 
L 166.336404 -57.493262 
L 167.733938 -57.016687 
L 169.131473 -56.540113 
L 170.401958 -56.063539 
L 171.672444 -55.586965 
L 172.879406 -55.11039 
L 174.086367 -54.633816 
L 175.16628 -54.157242 
L 176.246193 -53.680667 
L 177.262581 -53.204093 
L 178.215446 -52.727519 
L 179.16831 -52.250945 
z
" id="m36795d2dd7" style="stroke:#f2f2f2;"/>
    </defs>
    <g clip-path="url(#p710403b633)">
     <use style="fill:#f2f2f2;stroke:#f2f2f2;" x="0" xlink:href="#m36795d2dd7" y="138.735251"/>
    </g>
   </g>
   <g id="PolyCollection_3">
    <defs>
     <path d="M 179.16831 -109.439857 
L 179.16831 -52.250945 
L 178.215446 -52.727519 
L 177.262581 -53.204093 
L 176.246193 -53.680667 
L 175.16628 -54.157242 
L 174.086367 -54.633816 
L 172.879406 -55.11039 
L 171.672444 -55.586965 
L 170.401958 -56.063539 
L 169.131473 -56.540113 
L 167.733938 -57.016687 
L 166.336404 -57.493262 
L 164.811821 -57.969836 
L 163.287238 -58.44641 
L 161.762655 -58.922984 
L 160.111024 -59.399559 
L 158.459392 -59.876133 
L 156.680712 -60.352707 
L 154.902032 -60.829282 
L 153.059828 -61.305856 
L 151.217624 -61.78243 
L 149.248371 -62.259004 
L 147.279118 -62.735579 
L 145.182816 -63.212153 
L 143.086515 -63.688727 
L 140.926689 -64.165301 
L 138.703339 -64.641876 
L 136.479989 -65.11845 
L 134.12959 -65.595024 
L 131.715667 -66.071599 
L 129.301744 -66.548173 
L 126.760773 -67.024747 
L 124.219801 -67.501321 
L 121.615305 -67.977896 
L 118.883761 -68.45447 
L 116.152217 -68.931044 
L 113.357148 -69.407618 
L 110.435031 -69.884193 
L 107.512914 -70.360767 
L 104.463748 -70.837341 
L 101.351058 -71.313916 
L 98.238368 -71.79049 
L 94.998629 -72.267064 
L 91.631842 -72.743638 
L 88.265054 -73.220213 
L 84.771219 -73.696787 
L 81.213859 -74.173361 
L 77.592974 -74.649935 
L 73.845041 -75.12651 
L 70.033584 -75.603084 
L 66.095078 -76.079658 
L 62.029524 -76.556233 
L 57.900445 -77.032807 
L 53.644318 -77.509381 
L 49.324666 -77.985955 
L 44.814442 -78.46253 
L 40.240693 -78.939104 
L 35.476371 -79.415678 
L 30.585001 -79.892253 
L 25.503058 -80.368827 
L 20.357591 -80.845401 
L 20.357591 -80.845401 
L 20.357591 -80.845401 
L 25.503058 -81.321975 
L 30.585001 -81.79855 
L 35.476371 -82.275124 
L 40.240693 -82.751698 
L 44.814442 -83.228272 
L 49.324666 -83.704847 
L 53.644318 -84.181421 
L 57.900445 -84.657995 
L 62.029524 -85.13457 
L 66.095078 -85.611144 
L 70.033584 -86.087718 
L 73.845041 -86.564292 
L 77.592974 -87.040867 
L 81.213859 -87.517441 
L 84.771219 -87.994015 
L 88.265054 -88.470589 
L 91.631842 -88.947164 
L 94.998629 -89.423738 
L 98.238368 -89.900312 
L 101.351058 -90.376887 
L 104.463748 -90.853461 
L 107.512914 -91.330035 
L 110.435031 -91.806609 
L 113.357148 -92.283184 
L 116.152217 -92.759758 
L 118.883761 -93.236332 
L 121.615305 -93.712906 
L 124.219801 -94.189481 
L 126.760773 -94.666055 
L 129.301744 -95.142629 
L 131.715667 -95.619204 
L 134.12959 -96.095778 
L 136.479989 -96.572352 
L 138.703339 -97.048926 
L 140.926689 -97.525501 
L 143.086515 -98.002075 
L 145.182816 -98.478649 
L 147.279118 -98.955223 
L 149.248371 -99.431798 
L 151.217624 -99.908372 
L 153.059828 -100.384946 
L 154.902032 -100.861521 
L 156.680712 -101.338095 
L 158.459392 -101.814669 
L 160.111024 -102.291243 
L 161.762655 -102.767818 
L 163.287238 -103.244392 
L 164.811821 -103.720966 
L 166.336404 -104.19754 
L 167.733938 -104.674115 
L 169.131473 -105.150689 
L 170.401958 -105.627263 
L 171.672444 -106.103838 
L 172.879406 -106.580412 
L 174.086367 -107.056986 
L 175.16628 -107.53356 
L 176.246193 -108.010135 
L 177.262581 -108.486709 
L 178.215446 -108.963283 
L 179.16831 -109.439857 
z
" id="mf2b81bd6ee" style="stroke:#d9d9d9;"/>
    </defs>
    <g clip-path="url(#p710403b633)">
     <use style="fill:#d9d9d9;stroke:#d9d9d9;" x="0" xlink:href="#mf2b81bd6ee" y="138.735251"/>
    </g>
   </g>
   <g id="PolyCollection_4">
    <defs>
     <path d="M 179.16831 -109.439857 
L 179.16831 -109.439857 
L 178.215446 -108.963283 
L 177.262581 -108.486709 
L 176.246193 -108.010135 
L 175.16628 -107.53356 
L 174.086367 -107.056986 
L 172.879406 -106.580412 
L 171.672444 -106.103838 
L 170.401958 -105.627263 
L 169.131473 -105.150689 
L 167.733938 -104.674115 
L 166.336404 -104.19754 
L 164.811821 -103.720966 
L 163.287238 -103.244392 
L 161.762655 -102.767818 
L 160.111024 -102.291243 
L 158.459392 -101.814669 
L 156.680712 -101.338095 
L 154.902032 -100.861521 
L 153.059828 -100.384946 
L 151.217624 -99.908372 
L 149.248371 -99.431798 
L 147.279118 -98.955223 
L 145.182816 -98.478649 
L 143.086515 -98.002075 
L 140.926689 -97.525501 
L 138.703339 -97.048926 
L 136.479989 -96.572352 
L 134.12959 -96.095778 
L 131.715667 -95.619204 
L 129.301744 -95.142629 
L 126.760773 -94.666055 
L 124.219801 -94.189481 
L 121.615305 -93.712906 
L 118.883761 -93.236332 
L 116.152217 -92.759758 
L 113.357148 -92.283184 
L 110.435031 -91.806609 
L 107.512914 -91.330035 
L 104.463748 -90.853461 
L 101.351058 -90.376887 
L 98.238368 -89.900312 
L 94.998629 -89.423738 
L 91.631842 -88.947164 
L 88.265054 -88.470589 
L 84.771219 -87.994015 
L 81.213859 -87.517441 
L 77.592974 -87.040867 
L 73.845041 -86.564292 
L 70.033584 -86.087718 
L 66.095078 -85.611144 
L 62.029524 -85.13457 
L 57.900445 -84.657995 
L 53.644318 -84.181421 
L 49.324666 -83.704847 
L 44.814442 -83.228272 
L 40.240693 -82.751698 
L 35.476371 -82.275124 
L 30.585001 -81.79855 
L 25.503058 -81.321975 
L 20.357591 -80.845401 
L 20.357591 -109.439857 
L 20.357591 -109.439857 
L 25.503058 -109.439857 
L 30.585001 -109.439857 
L 35.476371 -109.439857 
L 40.240693 -109.439857 
L 44.814442 -109.439857 
L 49.324666 -109.439857 
L 53.644318 -109.439857 
L 57.900445 -109.439857 
L 62.029524 -109.439857 
L 66.095078 -109.439857 
L 70.033584 -109.439857 
L 73.845041 -109.439857 
L 77.592974 -109.439857 
L 81.213859 -109.439857 
L 84.771219 -109.439857 
L 88.265054 -109.439857 
L 91.631842 -109.439857 
L 94.998629 -109.439857 
L 98.238368 -109.439857 
L 101.351058 -109.439857 
L 104.463748 -109.439857 
L 107.512914 -109.439857 
L 110.435031 -109.439857 
L 113.357148 -109.439857 
L 116.152217 -109.439857 
L 118.883761 -109.439857 
L 121.615305 -109.439857 
L 124.219801 -109.439857 
L 126.760773 -109.439857 
L 129.301744 -109.439857 
L 131.715667 -109.439857 
L 134.12959 -109.439857 
L 136.479989 -109.439857 
L 138.703339 -109.439857 
L 140.926689 -109.439857 
L 143.086515 -109.439857 
L 145.182816 -109.439857 
L 147.279118 -109.439857 
L 149.248371 -109.439857 
L 151.217624 -109.439857 
L 153.059828 -109.439857 
L 154.902032 -109.439857 
L 156.680712 -109.439857 
L 158.459392 -109.439857 
L 160.111024 -109.439857 
L 161.762655 -109.439857 
L 163.287238 -109.439857 
L 164.811821 -109.439857 
L 166.336404 -109.439857 
L 167.733938 -109.439857 
L 169.131473 -109.439857 
L 170.401958 -109.439857 
L 171.672444 -109.439857 
L 172.879406 -109.439857 
L 174.086367 -109.439857 
L 175.16628 -109.439857 
L 176.246193 -109.439857 
L 177.262581 -109.439857 
L 178.215446 -109.439857 
L 179.16831 -109.439857 
z
" id="m3faf45e811" style="stroke:#f2f2f2;"/>
    </defs>
    <g clip-path="url(#p710403b633)">
     <use style="fill:#f2f2f2;stroke:#f2f2f2;" x="0" xlink:href="#m3faf45e811" y="138.735251"/>
    </g>
   </g>
   <g id="PolyCollection_5">
    <defs>
     <path d="M 20.294067 -138.034314 
L 20.294067 -109.439857 
L 52.798879 -109.439857 
L 65.613918 -109.439857 
L 75.15141 -109.439857 
L 82.977225 -109.439857 
L 89.699637 -109.439857 
L 95.631468 -109.439857 
L 100.959 -109.439857 
L 105.803945 -109.439857 
L 110.251029 -109.439857 
L 114.362095 -109.439857 
L 118.183943 -109.439857 
L 121.752992 -109.439857 
L 125.098291 -109.439857 
L 128.243425 -109.439857 
L 131.20789 -109.439857 
L 134.007975 -109.439857 
L 136.657515 -109.439857 
L 139.168349 -109.439857 
L 141.550712 -109.439857 
L 143.813503 -109.439857 
L 145.964562 -109.439857 
L 148.010789 -109.439857 
L 149.958337 -109.439857 
L 151.812676 -109.439857 
L 153.57875 -109.439857 
L 155.260983 -109.439857 
L 156.863416 -109.439857 
L 158.389688 -109.439857 
L 159.843128 -109.439857 
L 161.226792 -109.439857 
L 162.543485 -109.439857 
L 163.795786 -109.439857 
L 164.986021 -109.439857 
L 166.116427 -109.439857 
L 167.189031 -109.439857 
L 168.205714 -109.439857 
L 169.168232 -109.439857 
L 170.07824 -109.439857 
L 170.937203 -109.439857 
L 171.746626 -109.439857 
L 172.507795 -109.439857 
L 173.221951 -109.439857 
L 173.890345 -109.439857 
L 174.51397 -109.439857 
L 175.093968 -109.439857 
L 175.631221 -109.439857 
L 176.126768 -109.439857 
L 176.581335 -109.439857 
L 176.995873 -109.439857 
L 177.371051 -109.439857 
L 177.707819 -109.439857 
L 178.006398 -109.439857 
L 178.267959 -109.439857 
L 178.49267 -109.439857 
L 178.681427 -109.439857 
L 178.834763 -109.439857 
L 178.952402 -109.439857 
L 179.037424 -109.439857 
L 179.072234 -109.439857 
L 179.104786 -109.439857 
L 179.104786 -109.439857 
L 179.104786 -109.439857 
L 179.072234 -109.916432 
L 179.037424 -110.393006 
L 178.952402 -110.86958 
L 178.834763 -111.346155 
L 178.681427 -111.822729 
L 178.49267 -112.299303 
L 178.267959 -112.775877 
L 178.006398 -113.252452 
L 177.707819 -113.729026 
L 177.371051 -114.2056 
L 176.995873 -114.682175 
L 176.581335 -115.158749 
L 176.126768 -115.635323 
L 175.631221 -116.111897 
L 175.093968 -116.588472 
L 174.51397 -117.065046 
L 173.890345 -117.54162 
L 173.221951 -118.018194 
L 172.507795 -118.494769 
L 171.746626 -118.971343 
L 170.937203 -119.447917 
L 170.07824 -119.924492 
L 169.168232 -120.401066 
L 168.205714 -120.87764 
L 167.189031 -121.354214 
L 166.116427 -121.830789 
L 164.986021 -122.307363 
L 163.795786 -122.783937 
L 162.543485 -123.260511 
L 161.226792 -123.737086 
L 159.843128 -124.21366 
L 158.389688 -124.690234 
L 156.863416 -125.166809 
L 155.260983 -125.643383 
L 153.57875 -126.119957 
L 151.812676 -126.596531 
L 149.958337 -127.073106 
L 148.010789 -127.54968 
L 145.964562 -128.026254 
L 143.813503 -128.502828 
L 141.550712 -128.979403 
L 139.168349 -129.455977 
L 136.657515 -129.932551 
L 134.007975 -130.409126 
L 131.20789 -130.8857 
L 128.243425 -131.362274 
L 125.098291 -131.838848 
L 121.752992 -132.315423 
L 118.183943 -132.791997 
L 114.362095 -133.268571 
L 110.251029 -133.745145 
L 105.803945 -134.22172 
L 100.959 -134.698294 
L 95.631468 -135.174868 
L 89.699637 -135.651443 
L 82.977225 -136.128017 
L 75.15141 -136.604591 
L 65.613918 -137.081165 
L 52.798879 -137.55774 
L 20.294067 -138.034314 
z
" id="m8d05265adc" style="stroke:#f2f2f2;"/>
    </defs>
    <g clip-path="url(#p710403b633)">
     <use style="fill:#f2f2f2;stroke:#f2f2f2;" x="0" xlink:href="#m8d05265adc" y="138.735251"/>
    </g>
   </g>
   <g id="PathCollection_1">
    <defs>
     <path d="M 0 -1.581139 
L -1.581139 1.581139 
L 1.581139 1.581139 
z
" id="m197d57438d" style="stroke:#355f8d;"/>
    </defs>
    <g clip-path="url(#p710403b633)">
     <use style="fill:#355f8d;stroke:#355f8d;" x="33.634167" xlink:href="#m197d57438d" y="86.484306"/>
    </g>
   </g>
   <g id="PathCollection_2">
    <defs>
     <path d="M 0 1.581139 
C 0.419323 1.581139 0.821528 1.41454 1.118034 1.118034 
C 1.41454 0.821528 1.581139 0.419323 1.581139 0 
C 1.581139 -0.419323 1.41454 -0.821528 1.118034 -1.118034 
C 0.821528 -1.41454 0.419323 -1.581139 0 -1.581139 
C -0.419323 -1.581139 -0.821528 -1.41454 -1.118034 -1.118034 
C -1.41454 -0.821528 -1.581139 -0.419323 -1.581139 0 
C -1.581139 0.419323 -1.41454 0.821528 -1.118034 1.118034 
C -0.821528 1.41454 -0.419323 1.581139 0 1.581139 
z
" id="mf5061ed53f" style="stroke:#d43e4e;"/>
    </defs>
    <g clip-path="url(#p710403b633)">
     <use style="fill:#d43e4e;stroke:#d43e4e;" x="36.175139" xlink:href="#mf5061ed53f" y="86.484306"/>
    </g>
   </g>
   <g id="PathCollection_3">
    <defs>
     <path d="M -1.581139 1.581139 
L 1.581139 1.581139 
L 1.581139 -1.581139 
L -1.581139 -1.581139 
z
" id="m97279e4be6" style="stroke:#3288bc;"/>
    </defs>
    <g clip-path="url(#p710403b633)">
     <use style="fill:#3288bc;stroke:#3288bc;" x="52.691453" xlink:href="#m97279e4be6" y="86.484306"/>
    </g>
   </g>
   <g id="PathCollection_4">
    <defs>
     <path d="M -0 2.236068 
L 1.341641 0 
L 0 -2.236068 
L -1.341641 -0 
z
" id="m35e6cbc952" style="stroke:#abdda4;"/>
    </defs>
    <g clip-path="url(#p710403b633)">
     <use style="fill:#abdda4;stroke:#abdda4;" x="27.281738" xlink:href="#m35e6cbc952" y="86.484306"/>
    </g>
   </g>
   <g id="matplotlib.axis_1">
    <g id="xtick_1">
     <g id="line2d_1">
      <defs>
       <path d="M 0 0 
L 0 2 
" id="m6b7c56c22e" style="stroke:#000000;stroke-width:0.5;"/>
      </defs>
      <g>
       <use style="stroke:#000000;stroke-width:0.5;" x="20.294067" xlink:href="#m6b7c56c22e" y="115.078763"/>
      </g>
     </g>
     <g id="text_1">
      <!-- $\mathdefault{0.00}$ -->
      <g transform="translate(12.102617 125.305413)scale(0.09 -0.09)">
       <defs>
        <path d="M 42 31.84375 
C 42 37.96875 41.90625 48.421875 37.703125 56.453125 
C 34 63.484375 28.09375 66 22.90625 66 
C 18.09375 66 12 63.78125 8.203125 56.5625 
C 4.203125 49.015625 3.796875 39.671875 3.796875 31.84375 
C 3.796875 26.109375 3.90625 17.375 7 9.734375 
C 11.296875 -0.609375 19 -2 22.90625 -2 
C 27.5 -2 34.5 -0.109375 38.59375 9.4375 
C 41.59375 16.375 42 24.5 42 31.84375 
z
M 22.90625 -0.40625 
C 16.5 -0.40625 12.703125 5.125 11.296875 12.75 
C 10.203125 18.6875 10.203125 27.328125 10.203125 32.953125 
C 10.203125 40.6875 10.203125 47.109375 11.5 53.234375 
C 13.40625 61.78125 19 64.390625 22.90625 64.390625 
C 27 64.390625 32.296875 61.671875 34.203125 53.4375 
C 35.5 47.71875 35.59375 40.984375 35.59375 32.953125 
C 35.59375 26.421875 35.59375 18.375 34.40625 12.453125 
C 32.296875 1.5 26.40625 -0.40625 22.90625 -0.40625 
z
" id="CMR17-48"/>
        <path d="M 18.40625 4.796875 
C 18.40625 7.6875 16 9.6875 13.59375 9.6875 
C 10.703125 9.6875 8.703125 7.296875 8.703125 4.890625 
C 8.703125 2 11.09375 0 13.5 0 
C 16.40625 0 18.40625 2.390625 18.40625 4.796875 
z
" id="CMMI12-58"/>
       </defs>
       <use transform="scale(0.996264)" xlink:href="#CMR17-48"/>
       <use transform="translate(45.690477 0)scale(0.996264)" xlink:href="#CMMI12-58"/>
       <use transform="translate(72.787654 0)scale(0.996264)" xlink:href="#CMR17-48"/>
       <use transform="translate(118.478131 0)scale(0.996264)" xlink:href="#CMR17-48"/>
      </g>
     </g>
    </g>
    <g id="xtick_2">
     <g id="line2d_2">
      <g>
       <use style="stroke:#000000;stroke-width:0.5;" x="52.056211" xlink:href="#m6b7c56c22e" y="115.078763"/>
      </g>
     </g>
     <g id="text_2">
      <!-- $\mathdefault{0.05}$ -->
      <g transform="translate(43.864761 125.305413)scale(0.09 -0.09)">
       <defs>
        <path d="M 11.40625 58.59375 
C 12.40625 58.1875 16.5 56.890625 20.703125 56.890625 
C 30 56.890625 35.09375 61.890625 38 64.6875 
C 38 65.484375 38 66 37.40625 66 
C 37.296875 66 37.09375 66 36.296875 65.59375 
C 32.796875 64.09375 28.703125 63 23.703125 63 
C 20.703125 63 16.203125 63.359375 11.296875 65.484375 
C 10.203125 66 10 66 9.90625 66 
C 9.40625 66 9.296875 65.890625 9.296875 63.90625 
L 9.296875 34.859375 
C 9.296875 33.015625 9.296875 32.5 10.296875 32.5 
C 10.796875 32.5 11 32.703125 11.5 33.421875 
C 14.703125 38.046875 19.09375 40 24.09375 40 
C 27.59375 40 35.09375 37.734375 35.09375 20.203125 
C 35.09375 16.984375 35.09375 11.1875 32.09375 6.59375 
C 29.59375 2.484375 25.703125 0.390625 21.40625 0.390625 
C 14.796875 0.390625 8.09375 4.984375 6.296875 12.6875 
C 6.703125 12.59375 7.5 12.390625 7.90625 12.390625 
C 9.203125 12.390625 11.703125 13.09375 11.703125 16.1875 
C 11.703125 18.890625 9.796875 20 7.90625 20 
C 5.59375 20 4.09375 18.59375 4.09375 15.796875 
C 4.09375 7.09375 11 -2 21.59375 -2 
C 31.90625 -2 41.703125 6.890625 41.703125 19.796875 
C 41.703125 32.09375 33.90625 41.59375 24.203125 41.59375 
C 19.09375 41.59375 14.796875 39.6875 11.40625 36 
z
" id="CMR17-53"/>
       </defs>
       <use transform="scale(0.996264)" xlink:href="#CMR17-48"/>
       <use transform="translate(45.690477 0)scale(0.996264)" xlink:href="#CMMI12-58"/>
       <use transform="translate(72.787654 0)scale(0.996264)" xlink:href="#CMR17-48"/>
       <use transform="translate(118.478131 0)scale(0.996264)" xlink:href="#CMR17-53"/>
      </g>
     </g>
    </g>
    <g id="xtick_3">
     <g id="line2d_3">
      <g>
       <use style="stroke:#000000;stroke-width:0.5;" x="83.818354" xlink:href="#m6b7c56c22e" y="115.078763"/>
      </g>
     </g>
     <g id="text_3">
      <!-- $\mathdefault{0.10}$ -->
      <g transform="translate(75.626904 125.305413)scale(0.09 -0.09)">
       <defs>
        <path d="M 26.59375 63.796875 
C 26.59375 65.890625 26.5 66 25.09375 66 
C 21.203125 61.359375 15.296875 59.890625 9.703125 59.6875 
C 9.40625 59.6875 8.90625 59.6875 8.796875 59.5 
C 8.703125 59.296875 8.703125 59.09375 8.703125 57 
C 11.796875 57 17 57.59375 21 59.984375 
L 21 7.296875 
C 21 3.796875 20.796875 2.59375 12.203125 2.59375 
L 9.203125 2.59375 
L 9.203125 0 
C 14 0.09375 19 0.1875 23.796875 0.1875 
C 28.59375 0.1875 33.59375 0.09375 38.40625 0 
L 38.40625 2.59375 
L 35.40625 2.59375 
C 26.796875 2.59375 26.59375 3.6875 26.59375 7.296875 
z
" id="CMR17-49"/>
       </defs>
       <use transform="scale(0.996264)" xlink:href="#CMR17-48"/>
       <use transform="translate(45.690477 0)scale(0.996264)" xlink:href="#CMMI12-58"/>
       <use transform="translate(72.787654 0)scale(0.996264)" xlink:href="#CMR17-49"/>
       <use transform="translate(118.478131 0)scale(0.996264)" xlink:href="#CMR17-48"/>
      </g>
     </g>
    </g>
    <g id="xtick_4">
     <g id="line2d_4">
      <g>
       <use style="stroke:#000000;stroke-width:0.5;" x="115.580498" xlink:href="#m6b7c56c22e" y="115.078763"/>
      </g>
     </g>
     <g id="text_4">
      <!-- $\mathdefault{0.15}$ -->
      <g transform="translate(107.389048 125.305413)scale(0.09 -0.09)">
       <use transform="scale(0.996264)" xlink:href="#CMR17-48"/>
       <use transform="translate(45.690477 0)scale(0.996264)" xlink:href="#CMMI12-58"/>
       <use transform="translate(72.787654 0)scale(0.996264)" xlink:href="#CMR17-49"/>
       <use transform="translate(118.478131 0)scale(0.996264)" xlink:href="#CMR17-53"/>
      </g>
     </g>
    </g>
    <g id="xtick_5">
     <g id="line2d_5">
      <g>
       <use style="stroke:#000000;stroke-width:0.5;" x="147.342642" xlink:href="#m6b7c56c22e" y="115.078763"/>
      </g>
     </g>
     <g id="text_5">
      <!-- $\mathdefault{0.20}$ -->
      <g transform="translate(139.151192 125.305413)scale(0.09 -0.09)">
       <defs>
        <path d="M 41.703125 15.46875 
L 39.90625 15.46875 
C 38.90625 8.390625 38.09375 7.1875 37.703125 6.59375 
C 37.203125 5.796875 30 5.796875 28.59375 5.796875 
L 9.40625 5.796875 
C 13 9.6875 20 16.765625 28.5 24.9375 
C 34.59375 30.71875 41.703125 37.5 41.703125 47.390625 
C 41.703125 59.1875 32.296875 66 21.796875 66 
C 10.796875 66 4.09375 56.296875 4.09375 47.296875 
C 4.09375 43.390625 7 42.890625 8.203125 42.890625 
C 9.203125 42.890625 12.203125 43.484375 12.203125 46.984375 
C 12.203125 50.09375 9.59375 51 8.203125 51 
C 7.59375 51 7 50.890625 6.59375 50.6875 
C 8.5 59.1875 14.296875 63.390625 20.40625 63.390625 
C 29.09375 63.390625 34.796875 56.5 34.796875 47.390625 
C 34.796875 38.703125 29.703125 31.21875 24 24.734375 
L 4.09375 2.296875 
L 4.09375 0 
L 39.296875 0 
z
" id="CMR17-50"/>
       </defs>
       <use transform="scale(0.996264)" xlink:href="#CMR17-48"/>
       <use transform="translate(45.690477 0)scale(0.996264)" xlink:href="#CMMI12-58"/>
       <use transform="translate(72.787654 0)scale(0.996264)" xlink:href="#CMR17-50"/>
       <use transform="translate(118.478131 0)scale(0.996264)" xlink:href="#CMR17-48"/>
      </g>
     </g>
    </g>
    <g id="xtick_6">
     <g id="line2d_6">
      <g>
       <use style="stroke:#000000;stroke-width:0.5;" x="179.104786" xlink:href="#m6b7c56c22e" y="115.078763"/>
      </g>
     </g>
     <g id="text_6">
      <!-- $\mathdefault{0.25}$ -->
      <g transform="translate(170.913336 125.305413)scale(0.09 -0.09)">
       <use transform="scale(0.996264)" xlink:href="#CMR17-48"/>
       <use transform="translate(45.690477 0)scale(0.996264)" xlink:href="#CMMI12-58"/>
       <use transform="translate(72.787654 0)scale(0.996264)" xlink:href="#CMR17-50"/>
       <use transform="translate(118.478131 0)scale(0.996264)" xlink:href="#CMR17-53"/>
      </g>
     </g>
    </g>
    <g id="text_7">
     <!-- $t/V$ -->
     <g transform="translate(108.608008 135.773657)scale(0.09 -0.09)">
      <defs>
       <path d="M 20.09375 40.09375 
L 29.296875 40.09375 
C 31.203125 40.09375 32.203125 40.09375 32.203125 41.890625 
C 32.203125 43 31.59375 43 29.59375 43 
L 20.796875 43 
L 24.5 57.25 
C 24.90625 58.625 24.90625 58.8125 24.90625 59.5 
C 24.90625 61.09375 23.59375 62 22.296875 62 
C 21.5 62 19.203125 61.6875 18.40625 58.53125 
L 14.5 43 
L 5.09375 43 
C 3.09375 43 2.203125 43 2.203125 41.09375 
C 2.203125 40.09375 2.90625 40.09375 4.796875 40.09375 
L 13.703125 40.09375 
L 7.09375 13.765625 
C 6.296875 10.265625 6 9.265625 6 7.96875 
C 6 3.28125 9.296875 -1 14.90625 -1 
C 25 -1 30.40625 13.5625 30.40625 14.265625 
C 30.40625 14.859375 30 15.15625 29.40625 15.15625 
C 29.203125 15.15625 28.796875 15.15625 28.59375 14.75 
C 28.5 14.65625 28.40625 14.5625 27.703125 12.96875 
C 25.59375 7.96875 21 1 15.203125 1 
C 12.203125 1 12 3.484375 12 5.6875 
C 12 5.78125 12 7.671875 12.296875 8.875 
z
" id="CMMI12-116"/>
       <path d="M 42.90625 71.296875 
C 42.90625 71.390625 43.5 72.890625 43.5 73.09375 
C 43.5 74.296875 42.5 75 41.703125 75 
C 41.203125 75 40.296875 75 39.5 72.796875 
L 6 -21.3125 
C 6 -21.40625 5.40625 -22.90625 5.40625 -23.109375 
C 5.40625 -24.3125 6.40625 -25 7.203125 -25 
C 7.796875 -25 8.703125 -24.90625 9.40625 -22.8125 
z
" id="CMMI12-61"/>
       <path d="M 61.90625 56.9375 
C 65.296875 62.296875 68.40625 64.6875 73.5 65.09375 
C 74.5 65.1875 75.296875 65.1875 75.296875 66.984375 
C 75.296875 67.390625 75.09375 68 74.203125 68 
C 72.40625 68 68.09375 67.796875 66.296875 67.796875 
C 63.40625 67.796875 60.40625 68 57.59375 68 
C 56.796875 68 55.796875 68 55.796875 66.09375 
C 55.796875 65.1875 56.703125 65.09375 57.09375 65.09375 
C 60.796875 64.78125 61.203125 63 61.203125 61.8125 
C 61.203125 60.3125 59.796875 58.03125 59.703125 57.9375 
L 28.296875 8.4375 
L 21.296875 62 
C 21.296875 64.890625 26.5 65.09375 27.59375 65.09375 
C 29.09375 65.09375 30 65.09375 30 66.984375 
C 30 68 28.90625 68 28.59375 68 
C 26.90625 68 24.90625 67.796875 23.203125 67.796875 
L 17.59375 67.796875 
C 10.296875 67.796875 7.296875 68 7.203125 68 
C 6.59375 68 5.40625 68 5.40625 66.1875 
C 5.40625 65.09375 6.09375 65.09375 7.703125 65.09375 
C 12.796875 65.09375 13.09375 64.1875 13.40625 61.703125 
L 21.40625 0.390625 
C 21.703125 -1.703125 21.703125 -2 23.09375 -2 
C 24.296875 -2 24.796875 -1.703125 25.796875 -0.109375 
z
" id="CMMI12-86"/>
      </defs>
      <use transform="scale(0.996264)" xlink:href="#CMMI12-116"/>
      <use transform="translate(35.22633 0)scale(0.996264)" xlink:href="#CMMI12-61"/>
      <use transform="translate(84.001249 0)scale(0.996264)" xlink:href="#CMMI12-86"/>
     </g>
    </g>
   </g>
   <g id="matplotlib.axis_2">
    <g id="ytick_1">
     <g id="line2d_7">
      <defs>
       <path d="M 0 0 
L -2 0 
" id="m53c99a0d9e" style="stroke:#000000;stroke-width:0.5;"/>
      </defs>
      <g>
       <use style="stroke:#000000;stroke-width:0.5;" x="20.294067" xlink:href="#m53c99a0d9e" y="115.078763"/>
      </g>
     </g>
     <g id="text_8">
      <!-- $\mathdefault{0}$ -->
      <g transform="translate(11.686376 118.192088)scale(0.09 -0.09)">
       <use transform="scale(0.996264)" xlink:href="#CMR17-48"/>
      </g>
     </g>
    </g>
    <g id="ytick_2">
     <g id="line2d_8">
      <g>
       <use style="stroke:#000000;stroke-width:0.5;" x="20.294067" xlink:href="#m53c99a0d9e" y="96.015792"/>
      </g>
     </g>
     <g id="text_9">
      <!-- $\mathdefault{1}$ -->
      <g transform="translate(11.686376 99.129117)scale(0.09 -0.09)">
       <use transform="scale(0.996264)" xlink:href="#CMR17-49"/>
      </g>
     </g>
    </g>
    <g id="ytick_3">
     <g id="line2d_9">
      <g>
       <use style="stroke:#000000;stroke-width:0.5;" x="20.294067" xlink:href="#m53c99a0d9e" y="76.952821"/>
      </g>
     </g>
     <g id="text_10">
      <!-- $\mathdefault{2}$ -->
      <g transform="translate(11.686376 80.066146)scale(0.09 -0.09)">
       <use transform="scale(0.996264)" xlink:href="#CMR17-50"/>
      </g>
     </g>
    </g>
    <g id="ytick_4">
     <g id="line2d_10">
      <g>
       <use style="stroke:#000000;stroke-width:0.5;" x="20.294067" xlink:href="#m53c99a0d9e" y="57.88985"/>
      </g>
     </g>
     <g id="text_11">
      <!-- $\mathdefault{3}$ -->
      <g transform="translate(11.686376 61.003175)scale(0.09 -0.09)">
       <defs>
        <path d="M 22.09375 34 
C 31 34 34.90625 26.140625 34.90625 17.09375 
C 34.90625 5.03125 28.5 0.390625 22.703125 0.390625 
C 17.40625 0.390625 8.796875 3.015625 6.09375 10.796875 
C 6.59375 10.59375 7.09375 10.59375 7.59375 10.59375 
C 10 10.59375 11.796875 12.1875 11.796875 14.796875 
C 11.796875 17.6875 9.59375 19 7.59375 19 
C 5.90625 19 3.296875 18.1875 3.296875 14.484375 
C 3.296875 5.234375 12.296875 -2 22.90625 -2 
C 34 -2 42.5 6.75 42.5 16.984375 
C 42.5 26.84375 34.5 34 25 35.09375 
C 32.59375 36.671875 39.90625 43.375 39.90625 52.390625 
C 39.90625 60.25 32 66 23 66 
C 13.90625 66 5.90625 60.34375 5.90625 52.296875 
C 5.90625 48.796875 8.5 48.1875 9.796875 48.1875 
C 11.90625 48.1875 13.703125 49.484375 13.703125 52.09375 
C 13.703125 54.6875 11.90625 56 9.796875 56 
C 9.40625 56 8.90625 56 8.5 55.796875 
C 11.40625 62.484375 19.296875 63.6875 22.796875 63.6875 
C 26.296875 63.6875 32.90625 61.96875 32.90625 52.296875 
C 32.90625 49.484375 32.5 44.546875 29.09375 40.21875 
C 26.09375 36.390625 22.703125 36.1875 19.40625 35.890625 
C 18.90625 35.890625 16.59375 35.6875 16.203125 35.6875 
C 15.5 35.59375 15.09375 35.5 15.09375 34.796875 
C 15.09375 34.09375 15.203125 34 17.203125 34 
z
" id="CMR17-51"/>
       </defs>
       <use transform="scale(0.996264)" xlink:href="#CMR17-51"/>
      </g>
     </g>
    </g>
    <g id="ytick_5">
     <g id="line2d_11">
      <g>
       <use style="stroke:#000000;stroke-width:0.5;" x="20.294067" xlink:href="#m53c99a0d9e" y="38.826879"/>
      </g>
     </g>
     <g id="text_12">
      <!-- $\mathdefault{4}$ -->
      <g transform="translate(11.686376 41.940204)scale(0.09 -0.09)">
       <defs>
        <path d="M 33.59375 64.796875 
C 33.59375 66.890625 33.5 67 31.703125 67 
L 2 19.59375 
L 2 17 
L 27.796875 17 
L 27.796875 7.1875 
C 27.796875 3.59375 27.59375 2.59375 20.59375 2.59375 
L 18.703125 2.59375 
L 18.703125 0 
C 21.90625 0.1875 27.296875 0.1875 30.703125 0.1875 
C 34.09375 0.1875 39.5 0.1875 42.703125 0 
L 42.703125 2.59375 
L 40.796875 2.59375 
C 33.796875 2.59375 33.59375 3.59375 33.59375 7.1875 
L 33.59375 17 
L 43.796875 17 
L 43.796875 19.59375 
L 33.59375 19.59375 
z
M 28.09375 58.171875 
L 28.09375 19.59375 
L 4 19.59375 
z
" id="CMR17-52"/>
       </defs>
       <use transform="scale(0.996264)" xlink:href="#CMR17-52"/>
      </g>
     </g>
    </g>
    <g id="ytick_6">
     <g id="line2d_12">
      <g>
       <use style="stroke:#000000;stroke-width:0.5;" x="20.294067" xlink:href="#m53c99a0d9e" y="19.763908"/>
      </g>
     </g>
     <g id="text_13">
      <!-- $\mathdefault{5}$ -->
      <g transform="translate(11.686376 22.877233)scale(0.09 -0.09)">
       <use transform="scale(0.996264)" xlink:href="#CMR17-53"/>
      </g>
     </g>
    </g>
    <g id="text_14">
     <!-- $\mu/V$ -->
     <g transform="translate(7.444782 65.666398)rotate(-90)scale(0.09 -0.09)">
      <defs>
       <path d="M 14.40625 2.1875 
C 16.90625 -0.109375 20.59375 -1 24 -1 
C 30.40625 -1 34.796875 3.28125 37.09375 6.375 
C 38.09375 1.09375 42.296875 -1 45.796875 -1 
C 48.796875 -1 51.203125 0.796875 53 4.390625 
C 54.59375 7.78125 56 13.859375 56 14.265625 
C 56 14.75 55.59375 15.15625 55 15.15625 
C 54.09375 15.15625 54 14.65625 53.59375 13.15625 
C 52.09375 7.28125 50.203125 1 46.09375 1 
C 43.203125 1 43 3.578125 43 5.578125 
C 43 7.875 43.90625 11.46875 44.59375 14.453125 
L 47.40625 25.234375 
C 47.796875 27.125 48.90625 31.609375 49.40625 33.40625 
C 50 35.796875 51.09375 40.09375 51.09375 40.484375 
C 51.09375 41.984375 49.90625 43 48.40625 43 
C 47.5 43 45.40625 42.59375 44.59375 39.59375 
L 37.59375 11.859375 
C 37.09375 9.875 37.09375 9.671875 35.796875 8.078125 
C 34.59375 6.375 30.703125 1 24.40625 1 
C 18.796875 1 17 5.078125 17 9.765625 
C 17 12.671875 17.90625 16.15625 18.296875 17.859375 
L 22.796875 35.8125 
C 23.296875 37.703125 24.09375 40.890625 24.09375 41.5 
C 24.09375 43.09375 22.796875 44 21.5 44 
C 20.59375 44 18.40625 43.6875 17.59375 40.5 
L 3.09375 -16.953125 
C 3 -17.4375 2.796875 -18.03125 2.796875 -18.609375 
C 2.796875 -20.109375 4 -21.109375 5.5 -21.109375 
C 8.40625 -21.109375 9 -18.8125 9.703125 -16.078125 
z
" id="CMMI12-22"/>
      </defs>
      <use transform="scale(0.996264)" xlink:href="#CMMI12-22"/>
      <use transform="translate(58.691421 0)scale(0.996264)" xlink:href="#CMMI12-61"/>
      <use transform="translate(107.46634 0)scale(0.996264)" xlink:href="#CMMI12-86"/>
     </g>
    </g>
   </g>
   <g id="line2d_13">
    <path clip-path="url(#p710403b633)" d="M 179.104786 86.484306 
L 179.104786 86.007732 
L 179.104786 85.531158 
L 179.104786 85.054584 
L 179.104786 84.578009 
L 179.104786 84.101435 
L 179.104786 83.624861 
L 179.104786 83.148286 
L 179.104786 82.671712 
L 179.104786 82.195138 
L 179.104786 81.718564 
L 179.104786 81.241989 
L 179.104786 80.765415 
L 179.104786 80.288841 
L 179.104786 79.812267 
L 179.104786 79.335692 
L 179.104786 78.859118 
L 179.104786 78.382544 
L 179.104786 77.905969 
L 179.104786 77.429395 
L 179.104786 76.952821 
L 179.104786 76.476247 
L 179.104786 75.999672 
L 179.104786 75.523098 
L 179.104786 75.046524 
L 179.104786 74.56995 
L 179.104786 74.093375 
L 179.104786 73.616801 
L 179.104786 73.140227 
L 179.104786 72.663652 
L 179.104786 72.187078 
L 179.104786 71.710504 
L 179.104786 71.23393 
L 179.104786 70.757355 
L 179.104786 70.280781 
L 179.104786 69.804207 
L 179.104786 69.327632 
L 179.104786 68.851058 
L 179.104786 68.374484 
L 179.104786 67.89791 
L 179.104786 67.421335 
L 179.104786 66.944761 
L 179.104786 66.468187 
L 179.104786 65.991613 
L 179.104786 65.515038 
L 179.104786 65.038464 
L 179.104786 64.56189 
L 179.104786 64.085315 
L 179.104786 63.608741 
L 179.104786 63.132167 
L 179.104786 62.655593 
L 179.104786 62.179018 
L 179.104786 61.702444 
L 179.104786 61.22587 
L 179.104786 60.749296 
L 179.104786 60.272721 
L 179.104786 59.796147 
L 179.104786 59.319573 
L 179.104786 58.842998 
L 179.104786 58.366424 
L 179.104786 57.88985 
" style="fill:none;stroke:#000000;stroke-linecap:square;stroke-width:0.8;"/>
   </g>
   <g id="line2d_14">
    <path clip-path="url(#p710403b633)" d="M 179.16831 86.484306 
L 178.215446 86.007732 
L 177.262581 85.531158 
L 176.246193 85.054584 
L 175.16628 84.578009 
L 174.086367 84.101435 
L 172.879406 83.624861 
L 171.672444 83.148286 
L 170.401958 82.671712 
L 169.131473 82.195138 
L 167.733938 81.718564 
L 166.336404 81.241989 
L 164.811821 80.765415 
L 163.287238 80.288841 
L 161.762655 79.812267 
L 160.111024 79.335692 
L 158.459392 78.859118 
L 156.680712 78.382544 
L 154.902032 77.905969 
L 153.059828 77.429395 
L 151.217624 76.952821 
L 149.248371 76.476247 
L 147.279118 75.999672 
L 145.182816 75.523098 
L 143.086515 75.046524 
L 140.926689 74.56995 
L 138.703339 74.093375 
L 136.479989 73.616801 
L 134.12959 73.140227 
L 131.715667 72.663652 
L 129.301744 72.187078 
L 126.760773 71.710504 
L 124.219801 71.23393 
L 121.615305 70.757355 
L 118.883761 70.280781 
L 116.152217 69.804207 
L 113.357148 69.327632 
L 110.435031 68.851058 
L 107.512914 68.374484 
L 104.463748 67.89791 
L 101.351058 67.421335 
L 98.238368 66.944761 
L 94.998629 66.468187 
L 91.631842 65.991613 
L 88.265054 65.515038 
L 84.771219 65.038464 
L 81.213859 64.56189 
L 77.592974 64.085315 
L 73.845041 63.608741 
L 70.033584 63.132167 
L 66.095078 62.655593 
L 62.029524 62.179018 
L 57.900445 61.702444 
L 53.644318 61.22587 
L 49.324666 60.749296 
L 44.814442 60.272721 
L 40.240693 59.796147 
L 35.476371 59.319573 
L 30.585001 58.842998 
L 25.503058 58.366424 
L 20.357591 57.88985 
" style="fill:none;stroke:#000000;stroke-dasharray:2.96,1.28;stroke-dashoffset:0;stroke-width:0.8;"/>
   </g>
   <g id="line2d_15">
    <path clip-path="url(#p710403b633)" d="M 20.294067 115.078763 
L 52.798879 114.602189 
L 65.613918 114.125614 
L 75.15141 113.64904 
L 82.977225 113.172466 
L 89.699637 112.695891 
L 95.631468 112.219317 
L 100.959 111.742743 
L 105.803945 111.266169 
L 110.251029 110.789594 
L 114.362095 110.31302 
L 118.183943 109.836446 
L 121.752992 109.359872 
L 125.098291 108.883297 
L 128.243425 108.406723 
L 131.20789 107.930149 
L 134.007975 107.453574 
L 136.657515 106.977 
L 139.168349 106.500426 
L 141.550712 106.023852 
L 143.813503 105.547277 
L 145.964562 105.070703 
L 148.010789 104.594129 
L 149.958337 104.117554 
L 151.812676 103.64098 
L 153.57875 103.164406 
L 155.260983 102.687832 
L 156.863416 102.211257 
L 158.389688 101.734683 
L 159.843128 101.258109 
L 161.226792 100.781535 
L 162.543485 100.30496 
L 163.795786 99.828386 
L 164.986021 99.351812 
L 166.116427 98.875237 
L 167.189031 98.398663 
L 168.205714 97.922089 
L 169.168232 97.445515 
L 170.07824 96.96894 
L 170.937203 96.492366 
L 171.746626 96.015792 
L 172.507795 95.539218 
L 173.221951 95.062643 
L 173.890345 94.586069 
L 174.51397 94.109495 
L 175.093968 93.63292 
L 175.631221 93.156346 
L 176.126768 92.679772 
L 176.581335 92.203198 
L 176.995873 91.726623 
L 177.371051 91.250049 
L 177.707819 90.773475 
L 178.006398 90.296901 
L 178.267959 89.820326 
L 178.49267 89.343752 
L 178.681427 88.867178 
L 178.834763 88.390603 
L 178.952402 87.914029 
L 179.037424 87.437455 
L 179.072234 86.960881 
L 179.104786 86.484306 
" style="fill:none;stroke:#000000;stroke-linecap:square;stroke-width:0.8;"/>
   </g>
   <g id="line2d_16">
    <path clip-path="url(#p710403b633)" d="M 179.104786 29.295393 
L 179.104786 29.771968 
L 179.104786 30.248542 
L 179.104786 30.725116 
L 179.104786 31.201691 
L 179.104786 31.678265 
L 179.104786 32.154839 
L 179.104786 32.631413 
L 179.104786 33.107988 
L 179.104786 33.584562 
L 179.104786 34.061136 
L 179.104786 34.53771 
L 179.104786 35.014285 
L 179.104786 35.490859 
L 179.104786 35.967433 
L 179.104786 36.444008 
L 179.104786 36.920582 
L 179.104786 37.397156 
L 179.104786 37.87373 
L 179.104786 38.350305 
L 179.104786 38.826879 
L 179.104786 39.303453 
L 179.104786 39.780028 
L 179.104786 40.256602 
L 179.104786 40.733176 
L 179.104786 41.20975 
L 179.104786 41.686325 
L 179.104786 42.162899 
L 179.104786 42.639473 
L 179.104786 43.116047 
L 179.104786 43.592622 
L 179.104786 44.069196 
L 179.104786 44.54577 
L 179.104786 45.022345 
L 179.104786 45.498919 
L 179.104786 45.975493 
L 179.104786 46.452067 
L 179.104786 46.928642 
L 179.104786 47.405216 
L 179.104786 47.88179 
L 179.104786 48.358364 
L 179.104786 48.834939 
L 179.104786 49.311513 
L 179.104786 49.788087 
L 179.104786 50.264662 
L 179.104786 50.741236 
L 179.104786 51.21781 
L 179.104786 51.694384 
L 179.104786 52.170959 
L 179.104786 52.647533 
L 179.104786 53.124107 
L 179.104786 53.600681 
L 179.104786 54.077256 
L 179.104786 54.55383 
L 179.104786 55.030404 
L 179.104786 55.506979 
L 179.104786 55.983553 
L 179.104786 56.460127 
L 179.104786 56.936701 
L 179.104786 57.413276 
L 179.104786 57.88985 
" style="fill:none;stroke:#000000;stroke-linecap:square;stroke-width:0.8;"/>
   </g>
   <g id="line2d_17">
    <path clip-path="url(#p710403b633)" d="M 179.16831 29.295393 
L 178.215446 29.771968 
L 177.262581 30.248542 
L 176.246193 30.725116 
L 175.16628 31.201691 
L 174.086367 31.678265 
L 172.879406 32.154839 
L 171.672444 32.631413 
L 170.401958 33.107988 
L 169.131473 33.584562 
L 167.733938 34.061136 
L 166.336404 34.53771 
L 164.811821 35.014285 
L 163.287238 35.490859 
L 161.762655 35.967433 
L 160.111024 36.444008 
L 158.459392 36.920582 
L 156.680712 37.397156 
L 154.902032 37.87373 
L 153.059828 38.350305 
L 151.217624 38.826879 
L 149.248371 39.303453 
L 147.279118 39.780028 
L 145.182816 40.256602 
L 143.086515 40.733176 
L 140.926689 41.20975 
L 138.703339 41.686325 
L 136.479989 42.162899 
L 134.12959 42.639473 
L 131.715667 43.116047 
L 129.301744 43.592622 
L 126.760773 44.069196 
L 124.219801 44.54577 
L 121.615305 45.022345 
L 118.883761 45.498919 
L 116.152217 45.975493 
L 113.357148 46.452067 
L 110.435031 46.928642 
L 107.512914 47.405216 
L 104.463748 47.88179 
L 101.351058 48.358364 
L 98.238368 48.834939 
L 94.998629 49.311513 
L 91.631842 49.788087 
L 88.265054 50.264662 
L 84.771219 50.741236 
L 81.213859 51.21781 
L 77.592974 51.694384 
L 73.845041 52.170959 
L 70.033584 52.647533 
L 66.095078 53.124107 
L 62.029524 53.600681 
L 57.900445 54.077256 
L 53.644318 54.55383 
L 49.324666 55.030404 
L 44.814442 55.506979 
L 40.240693 55.983553 
L 35.476371 56.460127 
L 30.585001 56.936701 
L 25.503058 57.413276 
L 20.357591 57.88985 
" style="fill:none;stroke:#000000;stroke-dasharray:2.96,1.28;stroke-dashoffset:0;stroke-width:0.8;"/>
   </g>
   <g id="line2d_18">
    <path clip-path="url(#p710403b633)" d="M 20.294067 0.700937 
L 52.798879 1.177511 
L 65.613918 1.654086 
L 75.15141 2.13066 
L 82.977225 2.607234 
L 89.699637 3.083808 
L 95.631468 3.560383 
L 100.959 4.036957 
L 105.803945 4.513531 
L 110.251029 4.990105 
L 114.362095 5.46668 
L 118.183943 5.943254 
L 121.752992 6.419828 
L 125.098291 6.896403 
L 128.243425 7.372977 
L 131.20789 7.849551 
L 134.007975 8.326125 
L 136.657515 8.8027 
L 139.168349 9.279274 
L 141.550712 9.755848 
L 143.813503 10.232423 
L 145.964562 10.708997 
L 148.010789 11.185571 
L 149.958337 11.662145 
L 151.812676 12.13872 
L 153.57875 12.615294 
L 155.260983 13.091868 
L 156.863416 13.568442 
L 158.389688 14.045017 
L 159.843128 14.521591 
L 161.226792 14.998165 
L 162.543485 15.47474 
L 163.795786 15.951314 
L 164.986021 16.427888 
L 166.116427 16.904462 
L 167.189031 17.381037 
L 168.205714 17.857611 
L 169.168232 18.334185 
L 170.07824 18.810759 
L 170.937203 19.287334 
L 171.746626 19.763908 
L 172.507795 20.240482 
L 173.221951 20.717057 
L 173.890345 21.193631 
L 174.51397 21.670205 
L 175.093968 22.146779 
L 175.631221 22.623354 
L 176.126768 23.099928 
L 176.581335 23.576502 
L 176.995873 24.053076 
L 177.371051 24.529651 
L 177.707819 25.006225 
L 178.006398 25.482799 
L 178.267959 25.959374 
L 178.49267 26.435948 
L 178.681427 26.912522 
L 178.834763 27.389096 
L 178.952402 27.865671 
L 179.037424 28.342245 
L 179.072234 28.818819 
L 179.104786 29.295393 
" style="fill:none;stroke:#000000;stroke-linecap:square;stroke-width:0.8;"/>
   </g>
   <g id="patch_3">
    <path d="M 20.294067 115.078763 
L 20.294067 0.72 
" style="fill:none;stroke:#000000;stroke-linecap:square;stroke-linejoin:miter;stroke-width:0.5;"/>
   </g>
   <g id="patch_4">
    <path d="M 210.231687 115.078763 
L 210.231687 0.72 
" style="fill:none;stroke:#000000;stroke-linecap:square;stroke-linejoin:miter;stroke-width:0.5;"/>
   </g>
   <g id="patch_5">
    <path d="M 20.294067 115.078763 
L 210.231687 115.078763 
" style="fill:none;stroke:#000000;stroke-linecap:square;stroke-linejoin:miter;stroke-width:0.5;"/>
   </g>
   <g id="patch_6">
    <path d="M 20.294067 0.72 
L 210.231687 0.72 
" style="fill:none;stroke:#000000;stroke-linecap:square;stroke-linejoin:miter;stroke-width:0.5;"/>
   </g>
   <g id="text_15">
    <!-- superfluid -->
    <g transform="translate(166.399928 107.453574)scale(0.09 -0.09)">
     <defs>
      <path d="M 30.90625 42 
C 30.90625 43.796875 30.796875 43.890625 30.203125 43.890625 
C 29.796875 43.890625 29.703125 43.796875 28.5 42.296875 
C 28.203125 41.890625 27.296875 40.890625 27 40.5 
C 23.796875 43.890625 19.296875 44 17.59375 44 
C 6.5 44 2.5 38.1875 2.5 32.390625 
C 2.5 23.390625 12.703125 21.296875 15.59375 20.6875 
C 21.90625 19.390625 24.09375 19 26.203125 17.1875 
C 27.5 16 29.703125 13.796875 29.703125 10.1875 
C 29.703125 6 27.296875 0.59375 18.09375 0.59375 
C 9.40625 0.59375 6.296875 7.1875 4.5 16 
C 4.203125 17.390625 4.203125 17.5 3.40625 17.5 
C 2.59375 17.5 2.5 17.390625 2.5 15.390625 
L 2.5 1 
C 2.5 -0.8125 2.59375 -0.90625 3.203125 -0.90625 
C 3.703125 -0.90625 3.796875 -0.8125 4.296875 0 
C 4.90625 0.890625 6.40625 3.296875 7 4.296875 
C 9 1.59375 12.5 -1 18.09375 -1 
C 28 -1 33.296875 4.390625 33.296875 12.1875 
C 33.296875 17.296875 30.59375 20 29.296875 21.1875 
C 26.296875 24.296875 22.796875 25 18.59375 25.796875 
C 13.09375 27 6.09375 28.390625 6.09375 34.5 
C 6.09375 37.09375 7.5 42.59375 17.59375 42.59375 
C 28.296875 42.59375 28.90625 32.59375 29.09375 29.390625 
C 29.203125 28.890625 29.703125 28.796875 30 28.796875 
C 30.90625 28.796875 30.90625 29.09375 30.90625 30.796875 
z
" id="CMR17-115"/>
      <path d="M 29.40625 42.890625 
L 29.40625 40.296875 
C 35.296875 40.296875 36.203125 39.6875 36.203125 34.828125 
L 36.203125 16.453125 
C 36.203125 7.96875 31.703125 0.59375 24.296875 0.59375 
C 16.09375 0.59375 15.40625 5.546875 15.40625 10.796875 
L 15.40625 44 
L 3.296875 42.890625 
L 3.296875 40.296875 
C 7.296875 40.296875 10 40.296875 10.09375 36.25 
L 10.09375 16.859375 
C 10.09375 10.09375 10.09375 5.75 12.703125 2.921875 
C 14 1.609375 16.5 -1 23.703125 -1 
C 32.203125 -1 35.5 6.25 36.296875 8.375 
L 36.40625 8.375 
L 36.40625 -1 
L 48.296875 -0.203125 
L 48.296875 2.40625 
C 42.40625 2.40625 41.5 3.015625 41.5 7.859375 
L 41.5 44 
z
" id="CMR17-117"/>
      <path d="M 22 -17.40625 
C 15.59375 -17.40625 15.203125 -17 15.203125 -13.03125 
L 15.203125 5.9375 
C 18.09375 1.703125 22.296875 -1 27.59375 -1 
C 37.59375 -1 47.703125 7.859375 47.703125 21.59375 
C 47.703125 34.3125 39 44 28.703125 44 
C 22.703125 44 17.796875 40.671875 15 36.640625 
L 15 44 
L 3.09375 42.890625 
L 3.09375 40.265625 
C 9 40.265625 9.90625 39.671875 9.90625 34.8125 
L 9.90625 -13.03125 
C 9.90625 -16.890625 9.5 -17.40625 3.09375 -17.40625 
L 3.09375 -20 
C 5.5 -19.8125 9.90625 -19.8125 12.5 -19.8125 
C 15.09375 -19.8125 19.59375 -19.8125 22 -20 
z
M 15.203125 31.484375 
C 15.203125 32.90625 15.203125 35.015625 19.09375 38.765625 
C 19.59375 39.15625 23 42.1875 28 42.1875 
C 35.296875 42.1875 41.296875 33 41.296875 21.5 
C 41.296875 9.984375 34.90625 0.59375 27 0.59375 
C 23.40625 0.59375 19.5 2.3125 16.5 7.046875 
C 15.203125 9.28125 15.203125 9.875 15.203125 11.5 
z
" id="CMR17-112"/>
      <path d="M 38.09375 23.484375 
C 38.5 23.890625 38.5 24.09375 38.5 25.09375 
C 38.5 35.171875 33.09375 44 21.703125 44 
C 11.09375 44 2.703125 33.984375 2.703125 21.78125 
C 2.703125 8.65625 12.203125 -1 22.796875 -1 
C 34 -1 38.40625 9.671875 38.40625 11.796875 
C 38.40625 12.5 37.796875 12.5 37.59375 12.5 
C 36.90625 12.5 36.796875 12.296875 36.40625 11.078125 
C 34.203125 4.21875 28.703125 0.796875 23.5 0.796875 
C 19.203125 0.796875 14.90625 3.21875 12.203125 7.65625 
C 9.09375 12.796875 9.09375 18.75 9.09375 23.484375 
z
M 9.203125 25 
C 9.90625 39.234375 17.59375 42.390625 21.59375 42.390625 
C 28.40625 42.390625 33 36.0625 33.09375 25 
z
" id="CMR17-101"/>
      <path d="M 15 23.703125 
C 15 33.34375 19.09375 42.390625 26.59375 42.390625 
C 27.296875 42.390625 28 42.296875 28.703125 41.984375 
C 28.703125 41.984375 26.5 41.28125 26.5 38.671875 
C 26.5 36.265625 28.40625 35.265625 29.90625 35.265625 
C 31.09375 35.265625 33.296875 35.96875 33.296875 38.78125 
C 33.296875 41.984375 30.09375 44 26.703125 44 
C 19.09375 44 15.796875 36.5625 14.796875 33.046875 
L 14.703125 33.046875 
L 14.703125 44 
L 3.09375 42.890625 
L 3.09375 40.28125 
C 9 40.28125 9.90625 39.6875 9.90625 34.859375 
L 9.90625 6.921875 
C 9.90625 3.09375 9.5 2.59375 3.09375 2.59375 
L 3.09375 0 
C 5.5 0.1875 10.09375 0.1875 12.703125 0.1875 
C 15.59375 0.1875 20.703125 0.1875 23.40625 0 
L 23.40625 2.59375 
C 16.203125 2.59375 15 2.59375 15 7.109375 
z
" id="CMR17-114"/>
      <path d="M 39.90625 69.1875 
C 38.796875 68.984375 37.90625 68.796875 36.59375 68.484375 
C 33.703125 70 29.90625 70 28.90625 70 
C 20.40625 70 9.90625 65.21875 9.90625 54.59375 
L 9.90625 43 
L 1.90625 43 
L 1.90625 40.390625 
L 9.90625 40.390625 
L 9.90625 6.890625 
C 9.90625 3.09375 9.5 2.59375 3.09375 2.59375 
L 3.09375 0 
C 5.5 0.1875 9.90625 0.1875 12.40625 0.1875 
C 15 0.1875 19.40625 0.1875 21.796875 0 
L 21.796875 2.59375 
C 15.40625 2.59375 15 3 15 6.890625 
L 15 40.390625 
L 34.796875 40.390625 
L 34.796875 6.890625 
C 34.796875 3.09375 34.40625 2.59375 28 2.59375 
L 28 0 
C 30.40625 0.1875 34.796875 0.1875 37.296875 0.1875 
C 39.90625 0.1875 44.296875 0.1875 46.703125 0 
L 46.703125 2.59375 
C 40.296875 2.59375 39.90625 3 39.90625 6.890625 
z
M 14.796875 43 
L 14.796875 54.59375 
C 14.796875 63.328125 21.40625 68.390625 28.703125 68.390625 
C 29.203125 68.390625 34.703125 68.1875 34.703125 67.203125 
C 34.703125 67.09375 34.59375 67 34.09375 66.5 
C 33.203125 65.90625 32.796875 64.921875 32.796875 63.921875 
C 32.796875 62.53125 33.5 61.34375 34.796875 60.84375 
L 34.796875 43 
z
" id="CMR17-13"/>
      <path d="M 15.5 61.890625 
C 15.5 64.09375 13.703125 66 11.40625 66 
C 9.203125 66 7.296875 64.1875 7.296875 61.890625 
C 7.296875 59.6875 9.09375 57.796875 11.40625 57.796875 
C 13.59375 57.796875 15.5 59.59375 15.5 61.890625 
z
M 3.796875 42.890625 
L 3.796875 40.296875 
C 9.40625 40.296875 10.203125 39.6875 10.203125 34.859375 
L 10.203125 6.921875 
C 10.203125 3.09375 9.796875 2.59375 3.40625 2.59375 
L 3.40625 0 
C 5.796875 0.1875 10.09375 0.1875 12.59375 0.1875 
C 15 0.1875 19.09375 0.1875 21.40625 0 
L 21.40625 2.59375 
C 15.5 2.59375 15.296875 3.203125 15.296875 6.8125 
L 15.296875 44 
z
" id="CMR17-105"/>
      <path d="M 29.203125 67.890625 
L 29.203125 65.296875 
C 35.09375 65.296875 36 64.703125 36 60.046875 
L 36 37.046875 
C 35.59375 37.546875 31.5 44 23.40625 44 
C 13.203125 44 3.296875 34.8125 3.296875 21.5 
C 3.296875 8.265625 12.59375 -1 22.40625 -1 
C 30.90625 -1 35.296875 5.640625 35.796875 6.34375 
L 35.796875 -1 
L 47.90625 -0.203125 
L 47.90625 2.40625 
C 42 2.40625 41.09375 3.015625 41.09375 7.859375 
L 41.09375 69 
z
M 35.796875 11.90625 
C 35.796875 8.875 34 6.140625 31.703125 4.125 
C 28.296875 1.09375 24.90625 0.59375 23 0.59375 
C 20.09375 0.59375 9.703125 2.109375 9.703125 21.390625 
C 9.703125 41.1875 21.296875 42.390625 23.90625 42.390625 
C 28.5 42.390625 32.203125 39.765625 34.5 36.140625 
C 35.796875 34.015625 35.796875 33.703125 35.796875 31.890625 
z
" id="CMR17-100"/>
     </defs>
     <use transform="scale(0.996264)" xlink:href="#CMR17-115"/>
     <use transform="translate(35.801338 0)scale(0.996264)" xlink:href="#CMR17-117"/>
     <use transform="translate(86.696707 0)scale(0.996264)" xlink:href="#CMR17-112"/>
     <use transform="translate(140.194516 0)scale(0.996264)" xlink:href="#CMR17-101"/>
     <use transform="translate(180.680176 0)scale(0.996264)" xlink:href="#CMR17-114"/>
     <use transform="translate(215.960944 0)scale(0.996264)" xlink:href="#CMR17-13"/>
     <use transform="translate(265.703168 0)scale(0.996264)" xlink:href="#CMR17-117"/>
     <use transform="translate(316.598537 0)scale(0.996264)" xlink:href="#CMR17-105"/>
     <use transform="translate(341.469596 0)scale(0.996264)" xlink:href="#CMR17-100"/>
    </g>
   </g>
   <g id="text_16">
    <!-- supersolid -->
    <g transform="translate(115.580498 57.88985)scale(0.09 -0.09)">
     <defs>
      <path d="M 43.09375 21.1875 
C 43.09375 34 33.796875 44 22.90625 44 
C 12 44 2.703125 34 2.703125 21.1875 
C 2.703125 8.59375 12 -1 22.90625 -1 
C 33.796875 -1 43.09375 8.59375 43.09375 21.1875 
z
M 22.90625 0.796875 
C 18.203125 0.796875 14.203125 3.59375 11.90625 7.5 
C 9.40625 12 9.09375 17.59375 9.09375 22 
C 9.09375 26.1875 9.296875 31.390625 11.90625 35.890625 
C 13.90625 39.1875 17.796875 42.390625 22.90625 42.390625 
C 27.40625 42.390625 31.203125 39.890625 33.59375 36.390625 
C 36.703125 31.6875 36.703125 25.09375 36.703125 22 
C 36.703125 18.09375 36.5 12.09375 33.796875 7.296875 
C 31 2.6875 26.703125 0.796875 22.90625 0.796875 
z
" id="CMR17-111"/>
      <path d="M 15.296875 69 
L 3.40625 67.890625 
L 3.40625 65.296875 
C 9.296875 65.296875 10.203125 64.703125 10.203125 59.921875 
L 10.203125 6.859375 
C 10.203125 3.09375 9.796875 2.59375 3.40625 2.59375 
L 3.40625 0 
C 5.796875 0.1875 10.203125 0.1875 12.703125 0.1875 
C 15.296875 0.1875 19.703125 0.1875 22.09375 0 
L 22.09375 2.59375 
C 15.703125 2.59375 15.296875 2.984375 15.296875 6.859375 
z
" id="CMR17-108"/>
     </defs>
     <use transform="scale(0.996264)" xlink:href="#CMR17-115"/>
     <use transform="translate(35.801338 0)scale(0.996264)" xlink:href="#CMR17-117"/>
     <use transform="translate(86.696707 0)scale(0.996264)" xlink:href="#CMR17-112"/>
     <use transform="translate(140.194516 0)scale(0.996264)" xlink:href="#CMR17-101"/>
     <use transform="translate(180.680176 0)scale(0.996264)" xlink:href="#CMR17-114"/>
     <use transform="translate(215.960944 0)scale(0.996264)" xlink:href="#CMR17-115"/>
     <use transform="translate(251.762282 0)scale(0.996264)" xlink:href="#CMR17-111"/>
     <use transform="translate(297.452759 0)scale(0.996264)" xlink:href="#CMR17-108"/>
     <use transform="translate(322.323817 0)scale(0.996264)" xlink:href="#CMR17-105"/>
     <use transform="translate(347.194876 0)scale(0.996264)" xlink:href="#CMR17-100"/>
    </g>
   </g>
   <g id="text_17">
    <!-- solid $f = 1/3$ -->
    <g transform="translate(83.818354 96.015792)scale(0.09 -0.09)">
     <defs>
      <path d="M 44.59375 40.09375 
C 46.59375 40.09375 47.40625 40.09375 47.40625 41.984375 
C 47.40625 43 46.59375 43 44.796875 43 
L 36.703125 43 
C 38.59375 53.09375 40 60.09375 40.796875 63.296875 
C 41.40625 65.6875 43.5 67.984375 46.09375 67.984375 
C 48.203125 67.984375 50.296875 67.09375 51.296875 66.1875 
C 47.40625 65.796875 46.203125 62.890625 46.203125 61.1875 
C 46.203125 59.1875 47.703125 58 49.59375 58 
C 51.59375 58 54.59375 59.6875 54.59375 63.5 
C 54.59375 67.6875 50.40625 70 46 70 
C 41.703125 70 37.5 66.796875 35.5 62.890625 
C 33.703125 59.390625 32.703125 55.828125 30.40625 43 
L 23.703125 43 
C 21.796875 43 20.796875 43 20.796875 41.1875 
C 20.796875 40.09375 21.40625 40.09375 23.40625 40.09375 
L 29.796875 40.09375 
C 28 30.890625 23.90625 8.515625 21.59375 -2.0625 
C 19.90625 -10.703125 18.40625 -18 13.40625 -18 
C 13.09375 -18 10.203125 -18 8.40625 -16.109375 
C 13.5 -15.703125 13.5 -11.3125 13.5 -11.203125 
C 13.5 -9.203125 12 -8 10.09375 -8 
C 8.09375 -8 5.09375 -9.703125 5.09375 -13.515625 
C 5.09375 -17.8125 9.5 -20 13.40625 -20 
C 23.59375 -20 27.796875 -1.765625 28.90625 3.171875 
C 30.703125 10.796875 35.59375 37.125 36.09375 40.09375 
z
" id="CMMI12-102"/>
      <path d="M 64.296875 32 
C 65.796875 32 67.296875 32 67.296875 33.6875 
C 67.296875 35.5 65.59375 35.5 63.90625 35.5 
L 8 35.5 
C 6.296875 35.5 4.59375 35.5 4.59375 33.6875 
C 4.59375 32 6.09375 32 7.59375 32 
z
M 63.90625 14.484375 
C 65.59375 14.484375 67.296875 14.484375 67.296875 16.296875 
C 67.296875 18 65.796875 18 64.296875 18 
L 7.59375 18 
C 6.09375 18 4.59375 18 4.59375 16.296875 
C 4.59375 14.484375 6.296875 14.484375 8 14.484375 
z
" id="CMR17-61"/>
     </defs>
     <use transform="scale(0.996264)" xlink:href="#CMR17-115"/>
     <use transform="translate(35.801338 0)scale(0.996264)" xlink:href="#CMR17-111"/>
     <use transform="translate(81.491815 0)scale(0.996264)" xlink:href="#CMR17-108"/>
     <use transform="translate(106.362873 0)scale(0.996264)" xlink:href="#CMR17-105"/>
     <use transform="translate(131.233932 0)scale(0.996264)" xlink:href="#CMR17-100"/>
     <use transform="translate(212.205268 0)scale(0.996264)" xlink:href="#CMMI12-102"/>
     <use transform="translate(298.599581 0)scale(0.996264)" xlink:href="#CMR17-61"/>
     <use transform="translate(397.988379 0)scale(0.996264)" xlink:href="#CMR17-49"/>
     <use transform="translate(443.678856 0)scale(0.996264)" xlink:href="#CMMI12-61"/>
     <use transform="translate(492.453774 0)scale(0.996264)" xlink:href="#CMR17-51"/>
    </g>
   </g>
   <g id="text_18">
    <!-- solid $f = 2/3$ -->
    <g transform="translate(83.818354 29.295393)scale(0.09 -0.09)">
     <use transform="scale(0.996264)" xlink:href="#CMR17-115"/>
     <use transform="translate(35.801338 0)scale(0.996264)" xlink:href="#CMR17-111"/>
     <use transform="translate(81.491815 0)scale(0.996264)" xlink:href="#CMR17-108"/>
     <use transform="translate(106.362873 0)scale(0.996264)" xlink:href="#CMR17-105"/>
     <use transform="translate(131.233932 0)scale(0.996264)" xlink:href="#CMR17-100"/>
     <use transform="translate(212.205268 0)scale(0.996264)" xlink:href="#CMMI12-102"/>
     <use transform="translate(298.599581 0)scale(0.996264)" xlink:href="#CMR17-61"/>
     <use transform="translate(397.988379 0)scale(0.996264)" xlink:href="#CMR17-50"/>
     <use transform="translate(443.678856 0)scale(0.996264)" xlink:href="#CMMI12-61"/>
     <use transform="translate(492.453774 0)scale(0.996264)" xlink:href="#CMR17-51"/>
    </g>
   </g>
   <g id="legend_1">
    <g id="PathCollection_5">
     <g>
      <use style="fill:#355f8d;stroke:#355f8d;" x="28.731567" xlink:href="#m197d57438d" y="12.7575"/>
     </g>
    </g>
    <g id="text_19">
     <!-- HF -->
     <g transform="translate(33.569067 15.12)scale(0.09 -0.09)">
      <defs>
       <path d="M 56.09375 60.90625 
C 56.09375 65.390625 57.203125 65.390625 64.09375 65.390625 
L 64.09375 68 
C 61.203125 67.796875 55.90625 67.796875 52.796875 67.796875 
C 49.703125 67.796875 44.40625 67.796875 41.5 68 
L 41.5 65.390625 
C 48.40625 65.390625 49.5 65.390625 49.5 60.90625 
L 49.5 36.59375 
L 19.703125 36.59375 
L 19.703125 60.90625 
C 19.703125 65.390625 20.796875 65.390625 27.703125 65.390625 
L 27.703125 68 
C 24.796875 67.796875 19.5 67.796875 16.40625 67.796875 
C 13.296875 67.796875 8 67.796875 5.09375 68 
L 5.09375 65.390625 
C 12 65.390625 13.09375 65.390625 13.09375 60.90625 
L 13.09375 7.0625 
C 13.09375 2.59375 12 2.59375 5.09375 2.59375 
L 5.09375 0 
C 8 0.1875 13.296875 0.1875 16.40625 0.1875 
C 19.5 0.1875 24.796875 0.1875 27.703125 0 
L 27.703125 2.59375 
C 20.796875 2.59375 19.703125 2.59375 19.703125 7.0625 
L 19.703125 34 
L 49.5 34 
L 49.5 7.0625 
C 49.5 2.59375 48.40625 2.59375 41.5 2.59375 
L 41.5 0 
C 44.40625 0.1875 49.703125 0.1875 52.796875 0.1875 
C 55.90625 0.1875 61.203125 0.1875 64.09375 0 
L 64.09375 2.59375 
C 57.203125 2.59375 56.09375 2.59375 56.09375 7.0625 
z
" id="CMR17-72"/>
       <path d="M 54.40625 67.796875 
L 5.09375 67.796875 
L 5.09375 65.1875 
C 12 65.1875 13.09375 65.1875 13.09375 60.671875 
L 13.09375 7.03125 
C 13.09375 2.59375 12 2.59375 5.09375 2.59375 
L 5.09375 0 
C 8 0.1875 13.59375 0.1875 16.703125 0.1875 
C 20.796875 0.1875 25.59375 0.1875 29.703125 0 
L 29.703125 2.59375 
L 27.5 2.59375 
C 19.90625 2.59375 19.703125 3.578125 19.703125 7.125 
L 19.703125 32.390625 
L 28.703125 32.390625 
C 38 32.390625 38.90625 29.140625 38.90625 20.84375 
L 40.703125 20.84375 
L 40.703125 46.734375 
L 38.90625 46.734375 
C 38.90625 38.296875 38 35 28.703125 35 
L 19.703125 35 
L 19.703125 61.28125 
C 19.703125 64.6875 19.90625 65.1875 23.90625 65.1875 
L 36.796875 65.1875 
C 51.90625 65.1875 53.59375 58.96875 55 45.625 
L 56.796875 45.625 
z
" id="CMR17-70"/>
      </defs>
      <use transform="scale(0.996264)" xlink:href="#CMR17-72"/>
      <use transform="translate(69.07243 0)scale(0.996264)" xlink:href="#CMR17-70"/>
     </g>
    </g>
    <g id="PathCollection_6">
     <g>
      <use style="fill:#d43e4e;stroke:#d43e4e;" x="28.731567" xlink:href="#mf5061ed53f" y="23.054062"/>
     </g>
    </g>
    <g id="text_20">
     <!-- QMC -->
     <g transform="translate(33.569067 25.416562)scale(0.09 -0.09)">
      <defs>
       <path d="M 47.296875 0.484375 
C 59.203125 5.546875 67.296875 18.546875 67.296875 33.703125 
C 67.296875 54.4375 52.59375 70 36 70 
C 19 70 4.59375 54.234375 4.59375 33.703125 
C 4.59375 13.484375 19 -2 36 -2 
C 38.296875 -2 41.5 -1.703125 45.296875 -0.40625 
C 47 -12.703125 48.09375 -20 56.703125 -20 
C 67.296875 -20 67.796875 -4.328125 67.796875 -1.5 
C 67.796875 -0.5 67.796875 0.1875 67.09375 0.1875 
C 66.59375 0.1875 66.5 -0.5 66.5 -0.703125 
C 65.796875 -10.390625 60.40625 -12.40625 57.203125 -12.40625 
C 51.296875 -12.40625 49.203125 -7.0625 47.296875 0.484375 
z
M 30.59375 0.59375 
C 20.203125 3.859375 12 14.90625 12 33.703125 
C 12 57.78125 25.09375 68.1875 35.90625 68.1875 
C 47.09375 68.1875 59.90625 57.375 59.90625 33.703125 
C 59.90625 16.625 53.203125 7.234375 46.5 2.96875 
C 45 8.03125 42.59375 14 36.09375 14 
C 31.296875 14 28.59375 9.8125 28.59375 6.046875 
C 28.59375 3.765625 29.5 1.875 30.59375 0.59375 
z
M 44.90625 2.078125 
C 40.90625 -0.015625 37.703125 -0.203125 36 -0.203125 
C 31.5 -0.203125 30.203125 3.859375 30.203125 6.046875 
C 30.203125 9.125 32.296875 12.390625 36.09375 12.390625 
C 42.5 12.390625 44.09375 6.734375 44.90625 2.078125 
z
" id="CMR17-81"/>
       <path d="M 20.90625 66.390625 
C 20.296875 67.890625 20.203125 68 18.09375 68 
L 5.296875 68 
L 5.296875 65.390625 
C 12.203125 65.390625 13.296875 65.390625 13.296875 60.90625 
L 13.296875 9.75 
C 13.296875 7.265625 13.296875 2.59375 5.296875 2.59375 
L 5.296875 0 
C 7.59375 0.1875 11.796875 0.1875 14.296875 0.1875 
C 16.796875 0.1875 21 0.1875 23.296875 0 
L 23.296875 2.59375 
C 15.296875 2.59375 15.296875 7.265625 15.296875 9.75 
L 15.296875 64.984375 
L 15.40625 64.984375 
L 38.90625 1.59375 
C 39.296875 0.59375 39.5 0 40.296875 0 
C 41.09375 0 41.296875 0.59375 41.703125 1.59375 
L 65.40625 65.484375 
L 65.5 65.484375 
L 65.5 7.078125 
C 65.5 2.59375 64.40625 2.59375 57.5 2.59375 
L 57.5 0 
C 60.203125 0.1875 65.59375 0.1875 68.5 0.1875 
C 71.40625 0.1875 76.90625 0.1875 79.59375 0 
L 79.59375 2.59375 
C 72.703125 2.59375 71.59375 2.59375 71.59375 7.078125 
L 71.59375 60.90625 
C 71.59375 65.390625 72.703125 65.390625 79.59375 65.390625 
L 79.59375 68 
L 66.90625 68 
C 64.796875 68 64.703125 67.890625 64.09375 66.390625 
L 42.5 8.0625 
z
" id="CMR17-77"/>
       <path d="M 62.09375 67.984375 
C 62.09375 69.796875 62 69.890625 61.40625 69.890625 
C 61 69.890625 60.90625 69.796875 60.203125 68.59375 
L 55.796875 60.140625 
C 50.90625 66.390625 44.90625 70 37.203125 70 
C 20.09375 70 4.59375 54.796875 4.59375 34.046875 
C 4.59375 13.078125 20.09375 -2 37.296875 -2 
C 52.59375 -2 62.09375 11.578125 62.09375 23.15625 
C 62.09375 24.171875 62.09375 24.578125 61.203125 24.578125 
C 60.40625 24.578125 60.40625 24.265625 60.296875 23.359375 
C 59.5 9.25 49.5 0.59375 38.703125 0.59375 
C 28.5 0.59375 12.203125 7.84375 12.203125 34.046875 
C 12.203125 60.34375 28.796875 67.390625 38.5 67.390625 
C 49.796875 67.390625 58 57.515625 59.90625 43.515625 
C 60.09375 42.296875 60.09375 42.109375 61 42.109375 
C 62.09375 42.109375 62.09375 42.296875 62.09375 44.125 
z
" id="CMR17-67"/>
      </defs>
      <use transform="scale(0.996264)" xlink:href="#CMR17-81"/>
      <use transform="translate(71.714788 0)scale(0.996264)" xlink:href="#CMR17-77"/>
      <use transform="translate(156.401729 0)scale(0.996264)" xlink:href="#CMR17-67"/>
     </g>
    </g>
    <g id="PathCollection_7">
     <g>
      <use style="fill:#3288bc;stroke:#3288bc;" x="28.731567" xlink:href="#m97279e4be6" y="33.350625"/>
     </g>
    </g>
    <g id="text_21">
     <!-- DFT -->
     <g transform="translate(33.569067 35.713125)scale(0.09 -0.09)">
      <defs>
       <path d="M 5.203125 68 
L 5.203125 65.390625 
C 12.09375 65.390625 13.203125 65.390625 13.203125 60.90625 
L 13.203125 7.078125 
C 13.203125 2.59375 12.09375 2.59375 5.203125 2.59375 
L 5.203125 0 
L 37 0 
C 53.09375 0 66 14.734375 66 33.4375 
C 66 52.25 53.296875 68 37 68 
z
M 23.796875 2.59375 
C 19.796875 2.59375 19.59375 3.09375 19.59375 6.46875 
L 19.59375 61.5 
C 19.59375 64.890625 19.796875 65.390625 23.796875 65.390625 
L 35 65.390625 
C 43.296875 65.390625 58.59375 60.515625 58.59375 33.4375 
C 58.59375 19.40625 54.5 13.734375 52.59375 11.046875 
C 50.203125 7.96875 44.5 2.59375 35 2.59375 
z
" id="CMR17-68"/>
       <path d="M 62.203125 67.6875 
L 4.5 67.6875 
L 2.796875 45.6875 
L 4.59375 45.6875 
C 5.90625 62.203125 7.296875 65.09375 22.703125 65.09375 
C 24.5 65.09375 27.40625 65.09375 28.203125 64.984375 
C 30.09375 64.6875 30.09375 63.5 30.09375 61.203125 
L 30.09375 7.265625 
C 30.09375 3.6875 29.796875 2.59375 21.5 2.59375 
L 18.703125 2.59375 
L 18.703125 0 
C 23.5 0.09375 28.5 0.1875 33.40625 0.1875 
C 38.296875 0.1875 43.296875 0.09375 48.09375 0 
L 48.09375 2.59375 
L 45.296875 2.59375 
C 37 2.59375 36.703125 3.6875 36.703125 7.265625 
L 36.703125 61.203125 
C 36.703125 63.390625 36.703125 64.59375 38.5 64.984375 
C 39.296875 65.09375 42.203125 65.09375 44 65.09375 
C 59.296875 65.09375 60.796875 62.203125 62.09375 45.6875 
L 63.90625 45.6875 
z
" id="CMR17-84"/>
      </defs>
      <use transform="scale(0.996264)" xlink:href="#CMR17-68"/>
      <use transform="translate(70.393556 0)scale(0.996264)" xlink:href="#CMR17-70"/>
      <use transform="translate(130.377402 0)scale(0.996264)" xlink:href="#CMR17-84"/>
     </g>
    </g>
    <g id="PathCollection_8">
     <g>
      <use style="fill:#abdda4;stroke:#abdda4;" x="28.731567" xlink:href="#m35e6cbc952" y="43.647188"/>
     </g>
    </g>
    <g id="text_22">
     <!-- MP2 -->
     <g transform="translate(33.569067 46.009688)scale(0.09 -0.09)">
      <defs>
       <path d="M 19.796875 32 
L 35.796875 32 
C 48.703125 32 58.09375 40.359375 58.09375 49.796875 
C 58.09375 59.234375 48.90625 68 35.796875 68 
L 5.203125 68 
L 5.203125 65.390625 
C 12.09375 65.390625 13.203125 65.390625 13.203125 60.921875 
L 13.203125 7.078125 
C 13.203125 2.59375 12.09375 2.59375 5.203125 2.59375 
L 5.203125 0 
C 8.09375 0.1875 13.40625 0.1875 16.5 0.1875 
C 19.59375 0.1875 24.90625 0.1875 27.796875 0 
L 27.796875 2.59375 
C 20.90625 2.59375 19.796875 2.59375 19.796875 7.078125 
z
M 19.59375 34.09375 
L 19.59375 61.515625 
C 19.59375 64.890625 19.796875 65.390625 23.796875 65.390625 
L 33.90625 65.390625 
C 46.796875 65.390625 50.5 58.046875 50.5 49.796875 
C 50.5 40.75 46.09375 34.09375 33.90625 34.09375 
z
" id="CMR17-80"/>
      </defs>
      <use transform="scale(0.996264)" xlink:href="#CMR17-77"/>
      <use transform="translate(84.686941 0)scale(0.996264)" xlink:href="#CMR17-80"/>
      <use transform="translate(147.273241 0)scale(0.996264)" xlink:href="#CMR17-50"/>
     </g>
    </g>
   </g>
  </g>
 </g>
 <defs>
  <clipPath id="p710403b633">
   <rect height="114.358763" width="189.93762" x="20.294067" y="0.72"/>
  </clipPath>
 </defs>
</svg>
