<?xml version="1.0" encoding="utf-8" standalone="no"?>
<!DOCTYPE svg PUBLIC "-//W3C//DTD SVG 1.1//EN"
  "http://www.w3.org/Graphics/SVG/1.1/DTD/svg11.dtd">
<!-- Created with matplotlib (https://matplotlib.org/) -->
<svg height="140.940437pt" version="1.1" viewBox="0 0 225.292455 140.940437" width="225.292455pt" xmlns="http://www.w3.org/2000/svg" xmlns:xlink="http://www.w3.org/1999/xlink">
 <metadata>
  <rdf:RDF xmlns:cc="http://creativecommons.org/ns#" xmlns:dc="http://purl.org/dc/elements/1.1/" xmlns:rdf="http://www.w3.org/1999/02/22-rdf-syntax-ns#">
   <cc:Work>
    <dc:type rdf:resource="http://purl.org/dc/dcmitype/StillImage"/>
    <dc:date>2021-05-19T20:46:44.400765</dc:date>
    <dc:format>image/svg+xml</dc:format>
    <dc:creator>
     <cc:Agent>
      <dc:title>Matplotlib v3.3.4, https://matplotlib.org/</dc:title>
     </cc:Agent>
    </dc:creator>
   </cc:Work>
  </rdf:RDF>
 </metadata>
 <defs>
  <style type="text/css">*{stroke-linecap:butt;stroke-linejoin:round;}</style>
 </defs>
 <g id="figure_1">
  <g id="patch_1">
   <path d="M 0 140.940437 
L 225.292455 140.940437 
L 225.292455 0 
L 0 0 
z
" style="fill:none;"/>
  </g>
  <g id="axes_1">
   <g id="patch_2">
    <path d="M 34.634835 115.078763 
L 224.572455 115.078763 
L 224.572455 0.72 
L 34.634835 0.72 
z
" style="fill:none;"/>
   </g>
   <g id="matplotlib.axis_1">
    <g id="xtick_1">
     <g id="line2d_1">
      <defs>
       <path d="M 0 0 
L 0 2 
" id="m9eafd8542d" style="stroke:#000000;stroke-width:0.5;"/>
      </defs>
      <g>
       <use style="stroke:#000000;stroke-width:0.5;" x="77.3708" xlink:href="#m9eafd8542d" y="115.078763"/>
      </g>
     </g>
     <g id="text_1">
      <!-- $\mathdefault{3}$ -->
      <g transform="translate(75.066955 125.305413)scale(0.09 -0.09)">
       <defs>
        <path d="M 22.09375 34 
C 31 34 34.90625 26.140625 34.90625 17.09375 
C 34.90625 5.03125 28.5 0.390625 22.703125 0.390625 
C 17.40625 0.390625 8.796875 3.015625 6.09375 10.796875 
C 6.59375 10.59375 7.09375 10.59375 7.59375 10.59375 
C 10 10.59375 11.796875 12.1875 11.796875 14.796875 
C 11.796875 17.6875 9.59375 19 7.59375 19 
C 5.90625 19 3.296875 18.1875 3.296875 14.484375 
C 3.296875 5.234375 12.296875 -2 22.90625 -2 
C 34 -2 42.5 6.75 42.5 16.984375 
C 42.5 26.84375 34.5 34 25 35.09375 
C 32.59375 36.671875 39.90625 43.375 39.90625 52.390625 
C 39.90625 60.25 32 66 23 66 
C 13.90625 66 5.90625 60.34375 5.90625 52.296875 
C 5.90625 48.796875 8.5 48.1875 9.796875 48.1875 
C 11.90625 48.1875 13.703125 49.484375 13.703125 52.09375 
C 13.703125 54.6875 11.90625 56 9.796875 56 
C 9.40625 56 8.90625 56 8.5 55.796875 
C 11.40625 62.484375 19.296875 63.6875 22.796875 63.6875 
C 26.296875 63.6875 32.90625 61.96875 32.90625 52.296875 
C 32.90625 49.484375 32.5 44.546875 29.09375 40.21875 
C 26.09375 36.390625 22.703125 36.1875 19.40625 35.890625 
C 18.90625 35.890625 16.59375 35.6875 16.203125 35.6875 
C 15.5 35.59375 15.09375 35.5 15.09375 34.796875 
C 15.09375 34.09375 15.203125 34 17.203125 34 
z
" id="CMR17-51"/>
       </defs>
       <use transform="scale(0.996264)" xlink:href="#CMR17-51"/>
      </g>
     </g>
    </g>
    <g id="xtick_2">
     <g id="line2d_2">
      <g>
       <use style="stroke:#000000;stroke-width:0.5;" x="124.855205" xlink:href="#m9eafd8542d" y="115.078763"/>
      </g>
     </g>
     <g id="text_2">
      <!-- $\mathdefault{4}$ -->
      <g transform="translate(122.55136 125.305413)scale(0.09 -0.09)">
       <defs>
        <path d="M 33.59375 64.796875 
C 33.59375 66.890625 33.5 67 31.703125 67 
L 2 19.59375 
L 2 17 
L 27.796875 17 
L 27.796875 7.1875 
C 27.796875 3.59375 27.59375 2.59375 20.59375 2.59375 
L 18.703125 2.59375 
L 18.703125 0 
C 21.90625 0.1875 27.296875 0.1875 30.703125 0.1875 
C 34.09375 0.1875 39.5 0.1875 42.703125 0 
L 42.703125 2.59375 
L 40.796875 2.59375 
C 33.796875 2.59375 33.59375 3.59375 33.59375 7.1875 
L 33.59375 17 
L 43.796875 17 
L 43.796875 19.59375 
L 33.59375 19.59375 
z
M 28.09375 58.171875 
L 28.09375 19.59375 
L 4 19.59375 
z
" id="CMR17-52"/>
       </defs>
       <use transform="scale(0.996264)" xlink:href="#CMR17-52"/>
      </g>
     </g>
    </g>
    <g id="xtick_3">
     <g id="line2d_3">
      <g>
       <use style="stroke:#000000;stroke-width:0.5;" x="172.33961" xlink:href="#m9eafd8542d" y="115.078763"/>
      </g>
     </g>
     <g id="text_3">
      <!-- $\mathdefault{5}$ -->
      <g transform="translate(170.035765 125.305413)scale(0.09 -0.09)">
       <defs>
        <path d="M 11.40625 58.59375 
C 12.40625 58.1875 16.5 56.890625 20.703125 56.890625 
C 30 56.890625 35.09375 61.890625 38 64.6875 
C 38 65.484375 38 66 37.40625 66 
C 37.296875 66 37.09375 66 36.296875 65.59375 
C 32.796875 64.09375 28.703125 63 23.703125 63 
C 20.703125 63 16.203125 63.359375 11.296875 65.484375 
C 10.203125 66 10 66 9.90625 66 
C 9.40625 66 9.296875 65.890625 9.296875 63.90625 
L 9.296875 34.859375 
C 9.296875 33.015625 9.296875 32.5 10.296875 32.5 
C 10.796875 32.5 11 32.703125 11.5 33.421875 
C 14.703125 38.046875 19.09375 40 24.09375 40 
C 27.59375 40 35.09375 37.734375 35.09375 20.203125 
C 35.09375 16.984375 35.09375 11.1875 32.09375 6.59375 
C 29.59375 2.484375 25.703125 0.390625 21.40625 0.390625 
C 14.796875 0.390625 8.09375 4.984375 6.296875 12.6875 
C 6.703125 12.59375 7.5 12.390625 7.90625 12.390625 
C 9.203125 12.390625 11.703125 13.09375 11.703125 16.1875 
C 11.703125 18.890625 9.796875 20 7.90625 20 
C 5.59375 20 4.09375 18.59375 4.09375 15.796875 
C 4.09375 7.09375 11 -2 21.59375 -2 
C 31.90625 -2 41.703125 6.890625 41.703125 19.796875 
C 41.703125 32.09375 33.90625 41.59375 24.203125 41.59375 
C 19.09375 41.59375 14.796875 39.6875 11.40625 36 
z
" id="CMR17-53"/>
       </defs>
       <use transform="scale(0.996264)" xlink:href="#CMR17-53"/>
      </g>
     </g>
    </g>
    <g id="xtick_4">
     <g id="line2d_4">
      <g>
       <use style="stroke:#000000;stroke-width:0.5;" x="219.824015" xlink:href="#m9eafd8542d" y="115.078763"/>
      </g>
     </g>
     <g id="text_4">
      <!-- $\mathdefault{6}$ -->
      <g transform="translate(217.52017 125.305413)scale(0.09 -0.09)">
       <defs>
        <path d="M 10.59375 34.34375 
C 10.59375 58 21.796875 63.6875 28.296875 63.6875 
C 30.40625 63.6875 35.5 63.265625 37.5 59.09375 
C 35.90625 59.09375 32.90625 59.09375 32.90625 55.59375 
C 32.90625 52.890625 35.09375 52 36.5 52 
C 37.40625 52 40.09375 52.390625 40.09375 55.796875 
C 40.09375 62.296875 35.09375 66 28.203125 66 
C 16.296875 66 3.796875 53.296875 3.796875 31.421875 
C 3.796875 4.015625 15.09375 -2 23.09375 -2 
C 32.796875 -2 42 6.734375 42 20.234375 
C 42 32.828125 33.90625 42 23.703125 42 
C 17.59375 42 13.09375 37.96875 10.59375 30.921875 
z
M 23.09375 0.390625 
C 10.796875 0.390625 10.796875 18.9375 10.796875 22.65625 
C 10.796875 29.90625 14.203125 40.390625 23.5 40.390625 
C 25.203125 40.390625 30.09375 40.390625 33.40625 33.4375 
C 35.203125 29.515625 35.203125 25.375 35.203125 20.34375 
C 35.203125 14.90625 35.203125 10.875 33.09375 6.84375 
C 30.90625 2.703125 27.703125 0.390625 23.09375 0.390625 
z
" id="CMR17-54"/>
       </defs>
       <use transform="scale(0.996264)" xlink:href="#CMR17-54"/>
      </g>
     </g>
    </g>
    <g id="text_5">
     <!-- $\alabel{z}{\angstrom}$ -->
     <g transform="translate(117.028351 137.08215)scale(0.09 -0.09)">
      <defs>
       <path d="M 12.703125 7.59375 
C 17 12.640625 20.5 15.859375 25.5 20.515625 
C 31.5 25.890625 34.09375 28.46875 35.5 30.03125 
C 42.5 37.046875 46 42.390625 46 43.1875 
C 46 44 45.203125 44 45 44 
C 44.296875 44 44.09375 43.59375 43.59375 42.890625 
C 41.09375 38.59375 38.703125 37 36.09375 37 
C 34 37 32.90625 37.546875 31 39.796875 
C 28.90625 42.296875 27.203125 44 24.296875 44 
C 17 44 12.59375 35.390625 12.59375 33.234375 
C 12.59375 32.921875 12.703125 32.296875 13.59375 32.296875 
C 14.40625 32.296875 14.5 32.71875 14.796875 33.4375 
C 16.5 37.296875 21.296875 37.734375 23.203125 37.734375 
C 25.296875 37.734375 27.296875 37.296875 29.40625 36.59375 
C 33.203125 34.984375 34.796875 34.984375 35.796875 34.984375 
C 36.5 34.984375 36.90625 34.984375 37.40625 35.09375 
C 34.09375 31.0625 28.703125 26.09375 24.203125 21.859375 
L 14.09375 12.234375 
C 8 5.9375 4.296875 0.5 4.296875 -0.203125 
C 4.296875 -0.8125 4.796875 -1 5.40625 -1 
C 6 -1 6.09375 -0.90625 6.796875 0.296875 
C 8.40625 2.796875 11.59375 6 15.296875 6 
C 17.40625 6 18.40625 5.5625 20.40625 3.296875 
C 22.296875 1.09375 24 -1 27.203125 -1 
C 37 -1 42.59375 11.296875 42.59375 13.6875 
C 42.59375 14.09375 42.5 14.71875 41.5 14.71875 
C 40.703125 14.71875 40.59375 14.296875 40.296875 13.265625 
C 38.09375 7.1875 32.203125 5.25 28.296875 5.25 
C 26.203125 5.25 24.203125 5.6875 22.09375 6.390625 
C 18.09375 8 17 8 15.703125 8 
C 14.703125 8 13.59375 8 12.703125 7.59375 
z
" id="CMMI12-122"/>
       <path d="M 30.59375 -24.40625 
C 30.59375 -24.3125 30.59375 -24.109375 30.296875 -23.8125 
C 25.703125 -19.109375 13.40625 -6.296875 13.40625 24.9375 
C 13.40625 56.171875 25.5 68.875 30.40625 73.890625 
C 30.40625 73.984375 30.59375 74.1875 30.59375 74.484375 
C 30.59375 74.796875 30.296875 75 29.90625 75 
C 28.796875 75 20.296875 67.578125 15.40625 56.5625 
C 10.40625 45.453125 9 34.65625 9 25.046875 
C 9 17.828125 9.703125 5.625 15.703125 -7.296875 
C 20.5 -17.703125 28.703125 -25 29.90625 -25 
C 30.40625 -25 30.59375 -24.8125 30.59375 -24.40625 
z
" id="CMR17-40"/>
       <path d="M 32.59375 64 
C 29 63.328125 25.40625 60.875 25.40625 56.453125 
L 25.40625 55.78125 
C 25.90625 51.921875 29.5 49 33.59375 49 
C 37.703125 49 41.703125 52.484375 41.703125 56.546875 
L 41.703125 57.296875 
C 41.203125 61.890625 37.59375 65 33.5 65 
C 33.203125 64.09375 32.90625 64 32.59375 64 
z
M 26.703125 55.78125 
L 26.703125 56.453125 
C 26.703125 61 30 63.390625 33.703125 63.390625 
C 37.40625 63.390625 39.90625 60.890625 40.40625 57.5 
L 40.40625 56.796875 
C 40.40625 52.390625 37.09375 50 33.40625 50 
C 29.703125 50 27.203125 52.5 26.703125 55.890625 
z
" id="Computer_Modern_Roman-6"/>
       <path d="M 36.296875 69.390625 
C 35.796875 70.6875 35.59375 71 34.59375 71 
C 33.59375 71 33.40625 70.6875 32.90625 69.390625 
L 11.703125 9.0625 
C 9.796875 3.6875 5.796875 2.59375 2.296875 2.59375 
L 2.296875 0 
C 4.09375 0.1875 8.09375 0.1875 10 0.1875 
C 12.5 0.1875 16.5 0.1875 18.90625 0 
L 18.90625 2.59375 
C 14.203125 2.796875 13.5 5.96875 13.5 7.171875 
C 13.5 8.0625 13.703125 8.5625 13.90625 9.15625 
L 19.203125 24 
L 45.40625 24 
L 51.40625 7.078125 
C 51.90625 5.875 51.90625 5.671875 51.90625 5.28125 
C 51.90625 2.59375 47.59375 2.59375 45.703125 2.59375 
L 45.703125 0 
C 48.59375 0.1875 53.796875 0.1875 56.90625 0.1875 
C 59.5 0.1875 64.5 0.1875 66.90625 0 
L 66.90625 2.59375 
C 61.59375 2.59375 59.796875 2.59375 58.5 6.28125 
z
M 32.296875 61.3125 
L 44.5 26.59375 
L 20.09375 26.59375 
z
" id="CMR17-65"/>
       <path d="M 26.296875 24.9375 
C 26.296875 32.140625 25.59375 44.359375 19.59375 57.265625 
C 14.796875 67.6875 6.59375 75 5.40625 75 
C 5.09375 75 4.703125 74.890625 4.703125 74.390625 
C 4.703125 74.1875 4.796875 74.09375 4.90625 73.890625 
C 9.703125 68.875 21.90625 56.171875 21.90625 25.046875 
C 21.90625 -6.1875 9.796875 -18.90625 4.90625 -23.90625 
C 4.796875 -24.109375 4.703125 -24.203125 4.703125 -24.40625 
C 4.703125 -24.90625 5.09375 -25 5.40625 -25 
C 6.5 -25 15 -17.609375 19.90625 -6.59375 
C 24.90625 4.515625 26.296875 15.328125 26.296875 24.9375 
z
" id="CMR17-41"/>
      </defs>
      <use transform="scale(0.996264)" xlink:href="#CMMI12-122"/>
      <use transform="translate(105.103162 0.003177)scale(0.996264)" xlink:href="#CMR17-40"/>
      <use transform="translate(162.945579 52.703059)scale(0.356961)" xlink:href="#Computer_Modern_Roman-6"/>
      <use transform="translate(140.38393 0)scale(0.996264)" xlink:href="#CMR17-65"/>
      <use transform="translate(209.45636 0.003177)scale(0.996264)" xlink:href="#CMR17-41"/>
     </g>
    </g>
   </g>
   <g id="matplotlib.axis_2">
    <g id="ytick_1">
     <g id="line2d_5">
      <defs>
       <path d="M 0 0 
L -2 0 
" id="m920f23c3af" style="stroke:#000000;stroke-width:0.5;"/>
      </defs>
      <g>
       <use style="stroke:#000000;stroke-width:0.5;" x="34.634835" xlink:href="#m920f23c3af" y="115.078763"/>
      </g>
     </g>
     <g id="text_6">
      <!-- $\mathdefault{0.0}$ -->
      <g transform="translate(18.859626 118.192088)scale(0.09 -0.09)">
       <defs>
        <path d="M 42 31.84375 
C 42 37.96875 41.90625 48.421875 37.703125 56.453125 
C 34 63.484375 28.09375 66 22.90625 66 
C 18.09375 66 12 63.78125 8.203125 56.5625 
C 4.203125 49.015625 3.796875 39.671875 3.796875 31.84375 
C 3.796875 26.109375 3.90625 17.375 7 9.734375 
C 11.296875 -0.609375 19 -2 22.90625 -2 
C 27.5 -2 34.5 -0.109375 38.59375 9.4375 
C 41.59375 16.375 42 24.5 42 31.84375 
z
M 22.90625 -0.40625 
C 16.5 -0.40625 12.703125 5.125 11.296875 12.75 
C 10.203125 18.6875 10.203125 27.328125 10.203125 32.953125 
C 10.203125 40.6875 10.203125 47.109375 11.5 53.234375 
C 13.40625 61.78125 19 64.390625 22.90625 64.390625 
C 27 64.390625 32.296875 61.671875 34.203125 53.4375 
C 35.5 47.71875 35.59375 40.984375 35.59375 32.953125 
C 35.59375 26.421875 35.59375 18.375 34.40625 12.453125 
C 32.296875 1.5 26.40625 -0.40625 22.90625 -0.40625 
z
" id="CMR17-48"/>
        <path d="M 18.40625 4.796875 
C 18.40625 7.6875 16 9.6875 13.59375 9.6875 
C 10.703125 9.6875 8.703125 7.296875 8.703125 4.890625 
C 8.703125 2 11.09375 0 13.5 0 
C 16.40625 0 18.40625 2.390625 18.40625 4.796875 
z
" id="CMMI12-58"/>
       </defs>
       <use transform="scale(0.996264)" xlink:href="#CMR17-48"/>
       <use transform="translate(45.690477 0)scale(0.996264)" xlink:href="#CMMI12-58"/>
       <use transform="translate(72.787654 0)scale(0.996264)" xlink:href="#CMR17-48"/>
      </g>
     </g>
    </g>
    <g id="ytick_2">
     <g id="line2d_6">
      <g>
       <use style="stroke:#000000;stroke-width:0.5;" x="34.634835" xlink:href="#m920f23c3af" y="95.955224"/>
      </g>
     </g>
     <g id="text_7">
      <!-- $\mathdefault{0.5}$ -->
      <g transform="translate(18.859626 99.068549)scale(0.09 -0.09)">
       <use transform="scale(0.996264)" xlink:href="#CMR17-48"/>
       <use transform="translate(45.690477 0)scale(0.996264)" xlink:href="#CMMI12-58"/>
       <use transform="translate(72.787654 0)scale(0.996264)" xlink:href="#CMR17-53"/>
      </g>
     </g>
    </g>
    <g id="ytick_3">
     <g id="line2d_7">
      <g>
       <use style="stroke:#000000;stroke-width:0.5;" x="34.634835" xlink:href="#m920f23c3af" y="76.831685"/>
      </g>
     </g>
     <g id="text_8">
      <!-- $\mathdefault{1.0}$ -->
      <g transform="translate(18.859626 79.94501)scale(0.09 -0.09)">
       <defs>
        <path d="M 26.59375 63.796875 
C 26.59375 65.890625 26.5 66 25.09375 66 
C 21.203125 61.359375 15.296875 59.890625 9.703125 59.6875 
C 9.40625 59.6875 8.90625 59.6875 8.796875 59.5 
C 8.703125 59.296875 8.703125 59.09375 8.703125 57 
C 11.796875 57 17 57.59375 21 59.984375 
L 21 7.296875 
C 21 3.796875 20.796875 2.59375 12.203125 2.59375 
L 9.203125 2.59375 
L 9.203125 0 
C 14 0.09375 19 0.1875 23.796875 0.1875 
C 28.59375 0.1875 33.59375 0.09375 38.40625 0 
L 38.40625 2.59375 
L 35.40625 2.59375 
C 26.796875 2.59375 26.59375 3.6875 26.59375 7.296875 
z
" id="CMR17-49"/>
       </defs>
       <use transform="scale(0.996264)" xlink:href="#CMR17-49"/>
       <use transform="translate(45.690477 0)scale(0.996264)" xlink:href="#CMMI12-58"/>
       <use transform="translate(72.787654 0)scale(0.996264)" xlink:href="#CMR17-48"/>
      </g>
     </g>
    </g>
    <g id="ytick_4">
     <g id="line2d_8">
      <g>
       <use style="stroke:#000000;stroke-width:0.5;" x="34.634835" xlink:href="#m920f23c3af" y="57.708146"/>
      </g>
     </g>
     <g id="text_9">
      <!-- $\mathdefault{1.5}$ -->
      <g transform="translate(18.859626 60.821471)scale(0.09 -0.09)">
       <use transform="scale(0.996264)" xlink:href="#CMR17-49"/>
       <use transform="translate(45.690477 0)scale(0.996264)" xlink:href="#CMMI12-58"/>
       <use transform="translate(72.787654 0)scale(0.996264)" xlink:href="#CMR17-53"/>
      </g>
     </g>
    </g>
    <g id="ytick_5">
     <g id="line2d_9">
      <g>
       <use style="stroke:#000000;stroke-width:0.5;" x="34.634835" xlink:href="#m920f23c3af" y="38.584607"/>
      </g>
     </g>
     <g id="text_10">
      <!-- $\mathdefault{2.0}$ -->
      <g transform="translate(18.859626 41.697932)scale(0.09 -0.09)">
       <defs>
        <path d="M 41.703125 15.46875 
L 39.90625 15.46875 
C 38.90625 8.390625 38.09375 7.1875 37.703125 6.59375 
C 37.203125 5.796875 30 5.796875 28.59375 5.796875 
L 9.40625 5.796875 
C 13 9.6875 20 16.765625 28.5 24.9375 
C 34.59375 30.71875 41.703125 37.5 41.703125 47.390625 
C 41.703125 59.1875 32.296875 66 21.796875 66 
C 10.796875 66 4.09375 56.296875 4.09375 47.296875 
C 4.09375 43.390625 7 42.890625 8.203125 42.890625 
C 9.203125 42.890625 12.203125 43.484375 12.203125 46.984375 
C 12.203125 50.09375 9.59375 51 8.203125 51 
C 7.59375 51 7 50.890625 6.59375 50.6875 
C 8.5 59.1875 14.296875 63.390625 20.40625 63.390625 
C 29.09375 63.390625 34.796875 56.5 34.796875 47.390625 
C 34.796875 38.703125 29.703125 31.21875 24 24.734375 
L 4.09375 2.296875 
L 4.09375 0 
L 39.296875 0 
z
" id="CMR17-50"/>
       </defs>
       <use transform="scale(0.996264)" xlink:href="#CMR17-50"/>
       <use transform="translate(45.690477 0)scale(0.996264)" xlink:href="#CMMI12-58"/>
       <use transform="translate(72.787654 0)scale(0.996264)" xlink:href="#CMR17-48"/>
      </g>
     </g>
    </g>
    <g id="ytick_6">
     <g id="line2d_10">
      <g>
       <use style="stroke:#000000;stroke-width:0.5;" x="34.634835" xlink:href="#m920f23c3af" y="19.461068"/>
      </g>
     </g>
     <g id="text_11">
      <!-- $\mathdefault{2.5}$ -->
      <g transform="translate(18.859626 22.574393)scale(0.09 -0.09)">
       <use transform="scale(0.996264)" xlink:href="#CMR17-50"/>
       <use transform="translate(45.690477 0)scale(0.996264)" xlink:href="#CMMI12-58"/>
       <use transform="translate(72.787654 0)scale(0.996264)" xlink:href="#CMR17-53"/>
      </g>
     </g>
    </g>
    <g id="text_12">
     <!-- $\alabel{\rho(z)}{\angstrom^{-1}}$ -->
     <g transform="translate(11.031399 82.665502)rotate(-90)scale(0.09 -0.09)">
      <defs>
       <path d="M 3.09375 -16.953125 
C 3 -17.4375 2.796875 -18.03125 2.796875 -18.609375 
C 2.796875 -20.109375 4 -21.109375 5.5 -21.109375 
C 7 -21.109375 8.40625 -20.109375 9 -18.71875 
C 9.40625 -17.828125 12.203125 -6.09375 15.40625 6.078125 
C 17.40625 1.09375 21.09375 -1 25 -1 
C 36.296875 -1 49.09375 12.96875 49.09375 28.03125 
C 49.09375 38.703125 42.59375 44 35.703125 44 
C 26.90625 44 16.203125 34.90625 12.90625 21.640625 
z
M 24.90625 1 
C 18.09375 1 16.40625 8.875 16.40625 10.078125 
C 16.40625 10.671875 18.90625 20.140625 19.203125 21.640625 
C 24.296875 41.5 34.09375 41.984375 35.59375 41.984375 
C 40.09375 41.984375 42.59375 37.90625 42.59375 32.015625 
C 42.59375 26.9375 39.90625 17.046875 38.203125 12.859375 
C 35.203125 5.984375 30 1 24.90625 1 
z
" id="CMMI12-26"/>
       <path d="M 37.40625 -177 
C 39.59375 -177 40.203125 -177 40.203125 -175.609375 
C 40.40625 -105.46875 48.5 -47.234375 83.5 1.6875 
C 84.203125 2.59375 84.203125 2.796875 84.203125 2.984375 
C 84.203125 4 83.5 4 81.90625 4 
C 80.296875 4 80.09375 4 79.90625 3.796875 
C 79.5 3.484375 66.796875 -11.125 56.703125 -31.234375 
C 43.5 -57.640625 35.203125 -87.96875 31.5 -124.375 
C 31.203125 -127.484375 29.09375 -148.296875 29.09375 -172 
L 29.09375 -175.90625 
C 29.203125 -177 29.796875 -177 31.90625 -177 
z
" id="CMEX10-48"/>
       <path d="M 40.203125 -1.703125 
C 40.203125 0.890625 40.09375 1 37.40625 1 
L 31.90625 1 
C 29.203125 1 29.09375 0.890625 29.09375 -1.703125 
L 29.09375 -58.3125 
C 29.09375 -60.90625 29.203125 -61.015625 31.90625 -61.015625 
L 37.40625 -61.015625 
C 40.09375 -61.015625 40.203125 -60.90625 40.203125 -58.3125 
z
" id="CMEX10-66"/>
       <path d="M 31.90625 5 
C 29.796875 5 29.203125 5 29.09375 3.890625 
L 29.09375 -0.015625 
C 29.09375 -61.15625 40 -96.96875 43.09375 -107.078125 
C 49.90625 -129.28125 61 -152.703125 77.703125 -173.3125 
C 79.203125 -175.109375 79.59375 -175.609375 80 -175.8125 
C 80.203125 -175.90625 80.296875 -176 81.90625 -176 
C 83.5 -176 84.203125 -176 84.203125 -175 
C 84.203125 -174.8125 84.203125 -174.609375 83.59375 -173.703125 
C 50.296875 -127.484375 40.296875 -71.859375 40.203125 3.59375 
C 40.203125 5 39.59375 5 37.40625 5 
z
" id="CMEX10-64"/>
       <path d="M 65.90625 23 
C 67.59375 23 69.40625 23 69.40625 25 
C 69.40625 27 67.59375 27 65.90625 27 
L 11.796875 27 
C 10.09375 27 8.296875 27 8.296875 25 
C 8.296875 23 10.09375 23 11.796875 23 
z
" id="CMSY10-0"/>
       <path d="M 58.296875 -172 
C 58.296875 -110.875 47.40625 -75.0625 44.296875 -64.953125 
C 37.5 -42.734375 26.40625 -19.328125 9.703125 1.28125 
C 8.203125 3.09375 7.796875 3.59375 7.40625 3.796875 
C 7.203125 3.890625 7.09375 4 5.5 4 
C 4 4 3.203125 4 3.203125 2.984375 
C 3.203125 2.796875 3.203125 2.59375 4.5 0.78125 
C 39.296875 -47.84375 47.09375 -107.875 47.203125 -175.609375 
C 47.203125 -177 47.796875 -177 50 -177 
L 55.5 -177 
C 57.59375 -177 58.203125 -177 58.296875 -175.90625 
z
" id="CMEX10-49"/>
       <path d="M 58.296875 -1.703125 
C 58.296875 0.890625 58.203125 1 55.5 1 
L 50 1 
C 47.296875 1 47.203125 0.890625 47.203125 -1.703125 
L 47.203125 -58.3125 
C 47.203125 -60.90625 47.296875 -61.015625 50 -61.015625 
L 55.5 -61.015625 
C 58.203125 -61.015625 58.296875 -60.90625 58.296875 -58.3125 
z
" id="CMEX10-67"/>
       <path d="M 58.296875 3.890625 
C 58.203125 5 57.59375 5 55.5 5 
L 50 5 
C 47.796875 5 47.203125 5 47.203125 3.59375 
C 47.203125 -6.71875 47.09375 -30.53125 44.5 -55.453125 
C 39.09375 -107.171875 25.796875 -142.984375 3.90625 -173.703125 
C 3.203125 -174.609375 3.203125 -174.8125 3.203125 -175 
C 3.203125 -176 4 -176 5.5 -176 
C 7.09375 -176 7.296875 -176 7.5 -175.8125 
C 7.90625 -175.5 20.59375 -160.90625 30.703125 -140.796875 
C 43.90625 -114.375 52.203125 -84.0625 55.90625 -47.640625 
C 56.203125 -44.546875 58.296875 -23.734375 58.296875 -0.015625 
z
" id="CMEX10-65"/>
      </defs>
      <use transform="scale(0.996264)" xlink:href="#CMMI12-26"/>
      <use transform="translate(50.314373 0)scale(0.996264)" xlink:href="#CMR17-40"/>
      <use transform="translate(85.595141 0)scale(0.996264)" xlink:href="#CMMI12-122"/>
      <use transform="translate(135.350286 0)scale(0.996264)" xlink:href="#CMR17-41"/>
      <use transform="translate(225.979071 90.840835)scale(0.247871)" xlink:href="#CMEX10-48"/>
      <use transform="translate(225.979071 47.215155)scale(0.247871)" xlink:href="#CMEX10-66"/>
      <use transform="translate(225.979071 32.34278)scale(0.247871)" xlink:href="#CMEX10-66"/>
      <use transform="translate(225.979071 17.470405)scale(0.247871)" xlink:href="#CMEX10-66"/>
      <use transform="translate(225.979071 1.606585)scale(0.247871)" xlink:href="#CMEX10-64"/>
      <use transform="translate(270.229453 52.703059)scale(0.356961)" xlink:href="#Computer_Modern_Roman-6"/>
      <use transform="translate(247.667803 0)scale(0.996264)" xlink:href="#CMR17-65"/>
      <use transform="translate(316.740233 48.338187)scale(0.697382)" xlink:href="#CMSY10-0"/>
      <use transform="translate(370.981226 48.338187)scale(0.697382)" xlink:href="#CMR17-49"/>
      <use transform="translate(403.46254 90.840835)scale(0.247871)" xlink:href="#CMEX10-49"/>
      <use transform="translate(403.46254 47.215155)scale(0.247871)" xlink:href="#CMEX10-67"/>
      <use transform="translate(403.46254 32.34278)scale(0.247871)" xlink:href="#CMEX10-67"/>
      <use transform="translate(403.46254 17.470405)scale(0.247871)" xlink:href="#CMEX10-67"/>
      <use transform="translate(403.46254 1.606585)scale(0.247871)" xlink:href="#CMEX10-65"/>
     </g>
    </g>
   </g>
   <g id="line2d_11">
    <path clip-path="url(#p59bd6686d9)" d="M -1 115.078763 
L 39.85812 114.985427 
L 41.757496 114.731587 
L 42.707184 114.453457 
L 43.656872 113.999461 
L 44.60656 113.289753 
L 45.556249 112.225378 
L 46.505937 110.691485 
L 47.455625 108.564285 
L 48.405313 105.721839 
L 49.355001 102.058063 
L 50.304689 97.498553 
L 51.254377 92.0162 
L 52.678909 82.153713 
L 54.578285 66.661917 
L 57.902194 38.821672 
L 59.326726 29.336601 
L 60.276414 24.532378 
L 61.226102 21.163257 
L 61.700946 20.052467 
L 62.17579 19.333253 
L 62.650634 19.006216 
L 63.125478 19.067173 
L 63.600322 19.507406 
L 64.075166 20.313985 
L 64.550011 21.470165 
L 65.499699 24.747958 
L 66.449387 29.148218 
L 67.873919 37.362635 
L 69.773295 50.09462 
L 73.097203 72.633477 
L 74.99658 83.6945 
L 76.421112 90.684984 
L 77.845644 96.504509 
L 79.270176 101.208342 
L 80.694708 104.910103 
L 82.11924 107.752968 
L 83.543773 109.88769 
L 84.968305 111.457661 
L 86.392837 112.590176 
L 87.817369 113.392525 
L 89.241901 113.951449 
L 91.141277 114.432677 
L 93.515498 114.766027 
L 96.839406 114.97114 
L 103.012379 115.065835 
L 131.977866 115.078763 
L 219.824015 115.078763 
L 219.824015 115.078763 
" style="fill:none;stroke:#d43e4e;stroke-linecap:square;"/>
   </g>
   <g id="line2d_12">
    <path clip-path="url(#p59bd6686d9)" d="M -1 115.078763 
L 57.42735 114.970303 
L 59.326726 114.719938 
L 60.751258 114.273262 
L 61.700946 113.752728 
L 62.650634 112.963496 
L 63.600322 111.806446 
L 64.550011 110.165428 
L 65.499699 107.912824 
L 66.449387 104.918977 
L 67.399075 101.065346 
L 68.348763 96.260549 
L 69.298451 90.457708 
L 70.722983 79.932706 
L 72.147515 67.576661 
L 76.421112 28.753959 
L 77.3708 22.116815 
L 78.320488 16.967038 
L 79.270176 13.545825 
L 79.74502 12.532367 
L 80.219864 11.996504 
L 80.694708 11.939341 
L 81.169552 12.355279 
L 81.644396 13.232288 
L 82.11924 14.552321 
L 83.068928 18.422522 
L 84.018617 23.724034 
L 85.443149 33.706654 
L 87.817369 53.078226 
L 90.191589 72.022725 
L 91.616121 81.901057 
L 93.040654 90.264571 
L 94.465186 97.044581 
L 95.414874 100.72364 
L 96.364562 103.787934 
L 97.31425 106.300935 
L 98.263938 108.33154 
L 99.213626 109.949261 
L 100.163314 111.22066 
L 101.113002 112.20694 
L 102.06269 112.962535 
L 103.487223 113.764292 
L 104.911755 114.279258 
L 106.811131 114.679345 
L 109.185351 114.918731 
L 112.984104 115.045283 
L 123.905517 115.078555 
L 219.824015 115.078763 
L 219.824015 115.078763 
" style="fill:none;stroke:#3288bc;stroke-linecap:square;"/>
   </g>
   <g id="line2d_13">
    <path clip-path="url(#p59bd6686d9)" d="M -1 115.078763 
L 51.729221 114.96932 
L 53.628597 114.69946 
L 54.578285 114.410234 
L 55.527974 113.94122 
L 56.477662 113.208372 
L 57.42735 112.104288 
L 58.377038 110.499509 
L 59.326726 108.247886 
L 60.276414 105.196831 
L 61.226102 101.202528 
L 62.17579 96.149322 
L 63.125478 89.971472 
L 64.550011 78.632376 
L 65.974543 65.20221 
L 69.773295 27.261755 
L 70.722983 19.627712 
L 71.672671 13.587181 
L 72.622359 9.45025 
L 73.097203 8.161922 
L 73.572047 7.413165 
L 74.046892 7.208115 
L 74.521736 7.54267 
L 74.99658 8.404873 
L 75.471424 9.77526 
L 75.946268 11.627464 
L 76.895956 16.64239 
L 77.845644 23.133711 
L 79.270176 34.829134 
L 84.018617 76.328662 
L 85.443149 86.241017 
L 86.867681 94.320198 
L 87.817369 98.70118 
L 88.767057 102.336158 
L 89.716745 105.298158 
L 90.666433 107.670582 
L 91.616121 109.539761 
L 92.565809 110.989377 
L 93.515498 112.096672 
L 94.465186 112.930206 
L 95.889718 113.793362 
L 97.31425 114.329144 
L 99.213626 114.727182 
L 101.587846 114.950021 
L 105.861443 115.060617 
L 122.006141 115.07876 
L 219.824015 115.078763 
L 219.824015 115.078763 
" style="fill:none;stroke:#abdda4;stroke-linecap:square;"/>
   </g>
   <g id="patch_3">
    <path d="M 34.634835 115.078763 
L 34.634835 0.72 
" style="fill:none;stroke:#000000;stroke-linecap:square;stroke-linejoin:miter;stroke-width:0.5;"/>
   </g>
   <g id="patch_4">
    <path d="M 224.572455 115.078763 
L 224.572455 0.72 
" style="fill:none;stroke:#000000;stroke-linecap:square;stroke-linejoin:miter;stroke-width:0.5;"/>
   </g>
   <g id="patch_5">
    <path d="M 34.634835 115.078763 
L 224.572455 115.078763 
" style="fill:none;stroke:#000000;stroke-linecap:square;stroke-linejoin:miter;stroke-width:0.5;"/>
   </g>
   <g id="patch_6">
    <path d="M 34.634835 0.72 
L 224.572455 0.72 
" style="fill:none;stroke:#000000;stroke-linecap:square;stroke-linejoin:miter;stroke-width:0.5;"/>
   </g>
   <g id="text_13">
    <!-- \renewcommand{\arraystretch}{1.25}\begin{tabular}{   m{25pt}  m{20pt}  m{20pt}  m{16pt} } \\\hline Method &amp; $\rm{max} \: z$  $ \: (\si{\angstrom})$ &amp; $\Delta z_{\rm{rms}}$ $ \: (\si{\angstrom})$ &amp; $\Delta$E $ \: (\si{\kelvin})$ \\\hline empirical &amp; 2.69 &amp; 0.161 &amp; 21.2 \\ DFT &amp; 3.07 &amp; 0.149 &amp; 23.5 \\  MP2 &amp; 2.93 &amp; 0.142 &amp; 25.5 \\\hline \end{tabular} -->
    <g transform="translate(92.803231 27.110484)scale(0.07 -0.07)">
     <defs>
      <path d="M 20.90625 66.390625 
C 20.296875 67.890625 20.203125 68 18.09375 68 
L 5.296875 68 
L 5.296875 65.390625 
C 12.203125 65.390625 13.296875 65.390625 13.296875 60.90625 
L 13.296875 9.75 
C 13.296875 7.265625 13.296875 2.59375 5.296875 2.59375 
L 5.296875 0 
C 7.59375 0.1875 11.796875 0.1875 14.296875 0.1875 
C 16.796875 0.1875 21 0.1875 23.296875 0 
L 23.296875 2.59375 
C 15.296875 2.59375 15.296875 7.265625 15.296875 9.75 
L 15.296875 64.984375 
L 15.40625 64.984375 
L 38.90625 1.59375 
C 39.296875 0.59375 39.5 0 40.296875 0 
C 41.09375 0 41.296875 0.59375 41.703125 1.59375 
L 65.40625 65.484375 
L 65.5 65.484375 
L 65.5 7.078125 
C 65.5 2.59375 64.40625 2.59375 57.5 2.59375 
L 57.5 0 
C 60.203125 0.1875 65.59375 0.1875 68.5 0.1875 
C 71.40625 0.1875 76.90625 0.1875 79.59375 0 
L 79.59375 2.59375 
C 72.703125 2.59375 71.59375 2.59375 71.59375 7.078125 
L 71.59375 60.90625 
C 71.59375 65.390625 72.703125 65.390625 79.59375 65.390625 
L 79.59375 68 
L 66.90625 68 
C 64.796875 68 64.703125 67.890625 64.09375 66.390625 
L 42.5 8.0625 
z
" id="CMR17-77"/>
      <path d="M 38.09375 23.484375 
C 38.5 23.890625 38.5 24.09375 38.5 25.09375 
C 38.5 35.171875 33.09375 44 21.703125 44 
C 11.09375 44 2.703125 33.984375 2.703125 21.78125 
C 2.703125 8.65625 12.203125 -1 22.796875 -1 
C 34 -1 38.40625 9.671875 38.40625 11.796875 
C 38.40625 12.5 37.796875 12.5 37.59375 12.5 
C 36.90625 12.5 36.796875 12.296875 36.40625 11.078125 
C 34.203125 4.21875 28.703125 0.796875 23.5 0.796875 
C 19.203125 0.796875 14.90625 3.21875 12.203125 7.65625 
C 9.09375 12.796875 9.09375 18.75 9.09375 23.484375 
z
M 9.203125 25 
C 9.90625 39.234375 17.59375 42.390625 21.59375 42.390625 
C 28.40625 42.390625 33 36.0625 33.09375 25 
z
" id="CMR17-101"/>
      <path d="M 15.09375 40.390625 
L 29.09375 40.390625 
L 29.09375 43 
L 15.09375 43 
L 15.09375 62 
L 13.296875 62 
C 13.09375 51.4375 9.59375 42.1875 1.09375 41.984375 
L 1.09375 40.390625 
L 9.796875 40.390625 
L 9.796875 12.15625 
C 9.796875 10.234375 9.796875 -1 21.40625 -1 
C 27.296875 -1 30.703125 4.8125 30.703125 12.25 
L 30.703125 17.984375 
L 28.90625 17.984375 
L 28.90625 12.34375 
C 28.90625 5.421875 26.203125 0.796875 22 0.796875 
C 19.09375 0.796875 15.09375 2.796875 15.09375 11.953125 
z
" id="CMR17-116"/>
      <path d="M 41.5 30.53125 
C 41.5 35.65625 40.5 44 28.703125 44 
C 20.5 44 16.5 37.375 15.296875 34.046875 
L 15.203125 34.046875 
L 15.203125 69 
L 3.296875 67.890625 
L 3.296875 65.296875 
C 9.203125 65.296875 10.09375 64.703125 10.09375 60.046875 
L 10.09375 6.921875 
C 10.09375 3.09375 9.703125 2.59375 3.296875 2.59375 
L 3.296875 0 
C 5.703125 0.1875 10.09375 0.1875 12.703125 0.1875 
C 15.296875 0.1875 19.796875 0.1875 22.203125 0 
L 22.203125 2.59375 
C 15.796875 2.59375 15.40625 3 15.40625 6.921875 
L 15.40625 26.21875 
C 15.40625 35.453125 21 42.390625 28 42.390625 
C 35.40625 42.390625 36.203125 35.765625 36.203125 30.9375 
L 36.203125 6.921875 
C 36.203125 3.09375 35.796875 2.59375 29.40625 2.59375 
L 29.40625 0 
C 31.796875 0.1875 36.203125 0.1875 38.796875 0.1875 
C 41.40625 0.1875 45.90625 0.1875 48.296875 0 
L 48.296875 2.59375 
C 41.90625 2.59375 41.5 3 41.5 6.921875 
z
" id="CMR17-104"/>
      <path d="M 43.09375 21.1875 
C 43.09375 34 33.796875 44 22.90625 44 
C 12 44 2.703125 34 2.703125 21.1875 
C 2.703125 8.59375 12 -1 22.90625 -1 
C 33.796875 -1 43.09375 8.59375 43.09375 21.1875 
z
M 22.90625 0.796875 
C 18.203125 0.796875 14.203125 3.59375 11.90625 7.5 
C 9.40625 12 9.09375 17.59375 9.09375 22 
C 9.09375 26.1875 9.296875 31.390625 11.90625 35.890625 
C 13.90625 39.1875 17.796875 42.390625 22.90625 42.390625 
C 27.40625 42.390625 31.203125 39.890625 33.59375 36.390625 
C 36.703125 31.6875 36.703125 25.09375 36.703125 22 
C 36.703125 18.09375 36.5 12.09375 33.796875 7.296875 
C 31 2.6875 26.703125 0.796875 22.90625 0.796875 
z
" id="CMR17-111"/>
      <path d="M 29.203125 67.890625 
L 29.203125 65.296875 
C 35.09375 65.296875 36 64.703125 36 60.046875 
L 36 37.046875 
C 35.59375 37.546875 31.5 44 23.40625 44 
C 13.203125 44 3.296875 34.8125 3.296875 21.5 
C 3.296875 8.265625 12.59375 -1 22.40625 -1 
C 30.90625 -1 35.296875 5.640625 35.796875 6.34375 
L 35.796875 -1 
L 47.90625 -0.203125 
L 47.90625 2.40625 
C 42 2.40625 41.09375 3.015625 41.09375 7.859375 
L 41.09375 69 
z
M 35.796875 11.90625 
C 35.796875 8.875 34 6.140625 31.703125 4.125 
C 28.296875 1.09375 24.90625 0.59375 23 0.59375 
C 20.09375 0.59375 9.703125 2.109375 9.703125 21.390625 
C 9.703125 41.1875 21.296875 42.390625 23.90625 42.390625 
C 28.5 42.390625 32.203125 39.765625 34.5 36.140625 
C 35.796875 34.015625 35.796875 33.703125 35.796875 31.890625 
z
" id="CMR17-100"/>
      <path d="M 67.59375 30.53125 
C 67.59375 35.5625 66.703125 44 54.796875 44 
C 48 44 43.296875 39.375 41.5 33.953125 
L 41.40625 33.953125 
C 40.203125 42.1875 34.296875 44 28.703125 44 
C 20.796875 44 16.703125 37.875 15.203125 33.84375 
L 15.09375 33.84375 
L 15.09375 44 
L 3.296875 42.890625 
L 3.296875 40.28125 
C 9.203125 40.28125 10.09375 39.6875 10.09375 34.859375 
L 10.09375 6.921875 
C 10.09375 3.09375 9.703125 2.59375 3.296875 2.59375 
L 3.296875 0 
C 5.703125 0.1875 10.09375 0.1875 12.703125 0.1875 
C 15.296875 0.1875 19.796875 0.1875 22.203125 0 
L 22.203125 2.59375 
C 15.796875 2.59375 15.40625 3 15.40625 6.921875 
L 15.40625 26.21875 
C 15.40625 35.453125 21 42.390625 28 42.390625 
C 35.40625 42.390625 36.203125 35.765625 36.203125 30.9375 
L 36.203125 6.921875 
C 36.203125 3.09375 35.796875 2.59375 29.40625 2.59375 
L 29.40625 0 
C 31.796875 0.1875 36.203125 0.1875 38.796875 0.1875 
C 41.40625 0.1875 45.90625 0.1875 48.296875 0 
L 48.296875 2.59375 
C 41.90625 2.59375 41.5 3 41.5 6.921875 
L 41.5 26.21875 
C 41.5 35.453125 47.09375 42.390625 54.09375 42.390625 
C 61.5 42.390625 62.296875 35.765625 62.296875 30.9375 
L 62.296875 6.921875 
C 62.296875 3.09375 61.90625 2.59375 55.5 2.59375 
L 55.5 0 
C 57.90625 0.1875 62.296875 0.1875 64.90625 0.1875 
C 67.5 0.1875 72 0.1875 74.40625 0 
L 74.40625 2.59375 
C 68 2.59375 67.59375 3 67.59375 6.921875 
z
" id="CMR17-109"/>
      <path d="M 36 25.875 
C 36 32 36 35.546875 31.796875 39.59375 
C 28.09375 42.984375 23.796875 44 20.40625 44 
C 12.5 44 6.796875 37.625 6.796875 30.890625 
C 6.796875 27.1875 9.796875 27 10.40625 27 
C 11.703125 27 14 27.796875 14 30.59375 
C 14 33.09375 12.09375 34.1875 10.40625 34.1875 
C 10 34.1875 9.5 34.09375 9.203125 34 
C 11.296875 40.53125 16.703125 42.390625 20.203125 42.390625 
C 25.203125 42.390625 30.703125 37.828125 30.703125 29.296875 
L 30.703125 25.5 
C 24.796875 25.296875 17.703125 24.5 12.09375 21.453125 
C 5.796875 17.921875 4 12.84375 4 9 
C 4 1.203125 13 -1 18.296875 -1 
C 23.796875 -1 28.90625 2.109375 31.09375 7.890625 
C 31.296875 3.421875 34.09375 -0.609375 38.5 -0.609375 
C 40.59375 -0.609375 45.90625 0.796875 45.90625 8.796875 
L 45.90625 14.46875 
L 44.09375 14.46875 
L 44.09375 8.703125 
C 44.09375 2.515625 41.40625 1.703125 40.09375 1.703125 
C 36 1.703125 36 6.96875 36 11.4375 
z
M 30.703125 13.859375 
C 30.703125 5.046875 24.5 0.59375 19 0.59375 
C 14 0.59375 10.09375 4.34375 10.09375 9 
C 10.09375 12.046875 11.40625 17.40625 17.203125 20.65625 
C 22 23.390625 27.5 23.796875 30.703125 24 
z
" id="CMR17-97"/>
      <path d="M 26 23.296875 
C 29 27.1875 32.40625 31.59375 35.203125 34.890625 
C 38.5 38.6875 42.296875 40.296875 46.703125 40.390625 
L 46.703125 43 
C 45 42.890625 41.5 42.796875 39.703125 42.796875 
C 37 42.796875 33.90625 42.796875 31.59375 43 
L 31.59375 40.390625 
C 33 40.1875 33.796875 39.1875 33.796875 37.796875 
C 33.796875 36 32.796875 34.890625 32.296875 34.1875 
L 24.90625 24.796875 
L 16.09375 36.296875 
C 15.203125 37.390625 15.203125 37.59375 15.203125 38.09375 
C 15.203125 39.296875 16.203125 40.296875 17.90625 40.390625 
L 17.90625 43 
C 15.5 42.796875 11.203125 42.796875 8.703125 42.796875 
C 6 42.796875 2.796875 42.796875 0.59375 43 
L 0.59375 40.390625 
C 6 40.390625 7.203125 40 9.59375 37 
L 21.09375 22.09375 
C 21.296875 21.890625 21.796875 21.296875 21.796875 21 
C 21.796875 20.59375 13.09375 9.890625 12 8.5 
C 7.5 3.09375 2.796875 2.6875 0.09375 2.59375 
L 0.09375 0 
C 1.796875 0.09375 5.296875 0.1875 7.09375 0.1875 
C 9.09375 0.1875 13.5 0.1875 15.296875 0 
L 15.296875 2.59375 
C 14.703125 2.6875 13.09375 2.890625 13.09375 5.1875 
C 13.09375 7 13.90625 8.09375 14.796875 9.296875 
L 23.09375 19.5 
L 31.796875 8.1875 
C 32.59375 7.09375 33.796875 5.59375 33.796875 4.890625 
C 33.796875 3.5 32.59375 2.6875 31 2.59375 
L 31 0 
C 33.40625 0.1875 37.703125 0.1875 40.203125 0.1875 
C 42.90625 0.1875 46.09375 0.1875 48.296875 0 
L 48.296875 2.59375 
C 43.296875 2.59375 41.796875 2.796875 39.40625 5.890625 
z
" id="CMR17-120"/>
      <path d="M 36.09375 40.6875 
C 36.90625 41.6875 36.90625 41.890625 36.90625 42.09375 
C 36.90625 43 36.5 43 34.703125 43 
L 4.296875 43 
L 3.296875 27.5 
L 5.09375 27.5 
C 5.796875 37.1875 6.90625 41.390625 18.40625 41.390625 
L 30.59375 41.390625 
L 2 1.5 
C 2 0.09375 2.09375 0 4.203125 0 
L 35.796875 0 
L 37.203125 18 
L 35.40625 18 
C 34.59375 6.890625 33.296875 1.796875 21.09375 1.796875 
L 8.296875 1.796875 
z
" id="CMR17-122"/>
      <path d="M 40.59375 69.296875 
C 39.796875 71 39.40625 71 38.59375 71 
C 37.40625 71 37.296875 70.796875 36.59375 69.390625 
L 4.203125 1.6875 
C 4.09375 1.5 3.703125 0.59375 3.703125 0.5 
C 3.703125 0.09375 3.796875 0 5.59375 0 
L 71.5 0 
C 73.296875 0 73.40625 0.09375 73.40625 0.5 
C 73.40625 0.59375 73 1.5 72.90625 1.6875 
z
M 36.09375 63.375 
L 63.796875 5.59375 
L 8.296875 5.59375 
z
" id="CMR17-1"/>
      <path d="M 15 23.703125 
C 15 33.34375 19.09375 42.390625 26.59375 42.390625 
C 27.296875 42.390625 28 42.296875 28.703125 41.984375 
C 28.703125 41.984375 26.5 41.28125 26.5 38.671875 
C 26.5 36.265625 28.40625 35.265625 29.90625 35.265625 
C 31.09375 35.265625 33.296875 35.96875 33.296875 38.78125 
C 33.296875 41.984375 30.09375 44 26.703125 44 
C 19.09375 44 15.796875 36.5625 14.796875 33.046875 
L 14.703125 33.046875 
L 14.703125 44 
L 3.09375 42.890625 
L 3.09375 40.28125 
C 9 40.28125 9.90625 39.6875 9.90625 34.859375 
L 9.90625 6.921875 
C 9.90625 3.09375 9.5 2.59375 3.09375 2.59375 
L 3.09375 0 
C 5.5 0.1875 10.09375 0.1875 12.703125 0.1875 
C 15.59375 0.1875 20.703125 0.1875 23.40625 0 
L 23.40625 2.59375 
C 16.203125 2.59375 15 2.59375 15 7.109375 
z
" id="CMR17-114"/>
      <path d="M 30.90625 42 
C 30.90625 43.796875 30.796875 43.890625 30.203125 43.890625 
C 29.796875 43.890625 29.703125 43.796875 28.5 42.296875 
C 28.203125 41.890625 27.296875 40.890625 27 40.5 
C 23.796875 43.890625 19.296875 44 17.59375 44 
C 6.5 44 2.5 38.1875 2.5 32.390625 
C 2.5 23.390625 12.703125 21.296875 15.59375 20.6875 
C 21.90625 19.390625 24.09375 19 26.203125 17.1875 
C 27.5 16 29.703125 13.796875 29.703125 10.1875 
C 29.703125 6 27.296875 0.59375 18.09375 0.59375 
C 9.40625 0.59375 6.296875 7.1875 4.5 16 
C 4.203125 17.390625 4.203125 17.5 3.40625 17.5 
C 2.59375 17.5 2.5 17.390625 2.5 15.390625 
L 2.5 1 
C 2.5 -0.8125 2.59375 -0.90625 3.203125 -0.90625 
C 3.703125 -0.90625 3.796875 -0.8125 4.296875 0 
C 4.90625 0.890625 6.40625 3.296875 7 4.296875 
C 9 1.59375 12.5 -1 18.09375 -1 
C 28 -1 33.296875 4.390625 33.296875 12.1875 
C 33.296875 17.296875 30.59375 20 29.296875 21.1875 
C 26.296875 24.296875 22.796875 25 18.59375 25.796875 
C 13.09375 27 6.09375 28.390625 6.09375 34.5 
C 6.09375 37.09375 7.5 42.59375 17.59375 42.59375 
C 28.296875 42.59375 28.90625 32.59375 29.09375 29.390625 
C 29.203125 28.890625 29.703125 28.796875 30 28.796875 
C 30.90625 28.796875 30.90625 29.09375 30.90625 30.796875 
z
" id="CMR17-115"/>
      <path d="M 60.703125 25.21875 
L 58.90625 25.21875 
C 56.703125 10.5625 55.40625 2.59375 37.796875 2.59375 
L 23.90625 2.59375 
C 19.90625 2.59375 19.703125 3.09375 19.703125 6.484375 
L 19.703125 34 
L 29.09375 34 
C 38.5 34 39.40625 30.609375 39.40625 22.328125 
L 41.203125 22.328125 
L 41.203125 48.21875 
L 39.40625 48.21875 
C 39.40625 39.96875 38.5 36.59375 29.09375 36.59375 
L 19.703125 36.59375 
L 19.703125 61.3125 
C 19.703125 64.703125 19.90625 65.1875 23.90625 65.1875 
L 37.59375 65.1875 
C 53.09375 65.1875 54.90625 59.03125 56.296875 45.828125 
L 58.09375 45.828125 
L 55.703125 67.796875 
L 5.09375 67.796875 
L 5.09375 65.1875 
C 12 65.1875 13.09375 65.1875 13.09375 60.71875 
L 13.09375 7.078125 
C 13.09375 2.59375 12 2.59375 5.09375 2.59375 
L 5.09375 0 
L 57.09375 0 
z
" id="CMR17-69"/>
      <path d="M 36.90625 41.703125 
L 54.203125 58.921875 
C 57.796875 62.40625 61.59375 65.1875 67.203125 65.390625 
L 67.203125 68 
C 65.203125 67.890625 62.703125 67.796875 60.703125 67.796875 
C 58 67.796875 53.296875 67.796875 50.703125 68 
L 50.703125 65.390625 
C 53.296875 65.1875 53.703125 63.390625 53.703125 62.703125 
C 53.703125 62 53.296875 60.90625 52.90625 60.3125 
L 19.703125 27.171875 
L 19.703125 60.90625 
C 19.703125 65.390625 20.796875 65.390625 27.703125 65.390625 
L 27.703125 68 
C 24.796875 67.796875 19.5 67.796875 16.40625 67.796875 
C 13.296875 67.796875 8 67.796875 5.09375 68 
L 5.09375 65.390625 
C 12 65.390625 13.09375 65.390625 13.09375 60.90625 
L 13.09375 7.078125 
C 13.09375 2.59375 12 2.59375 5.09375 2.59375 
L 5.09375 0 
C 8 0.1875 13.296875 0.1875 16.40625 0.1875 
C 19.5 0.1875 24.796875 0.1875 27.703125 0 
L 27.703125 2.59375 
C 20.796875 2.59375 19.703125 2.59375 19.703125 7.078125 
L 19.703125 24.6875 
L 32.5 37.328125 
L 51.40625 8.46875 
C 52 7.46875 52.703125 6.171875 52.703125 5.1875 
C 52.703125 2.59375 49.90625 2.59375 48.59375 2.59375 
L 48.59375 0 
C 51.796875 0.1875 56.40625 0.1875 59.703125 0.1875 
C 62.09375 0.1875 66.203125 0.1875 68.5 0 
L 68.5 2.59375 
C 63.703125 2.59375 62.203125 3.1875 59.203125 7.765625 
z
" id="CMR17-75"/>
      <path d="M 22 -17.40625 
C 15.59375 -17.40625 15.203125 -17 15.203125 -13.03125 
L 15.203125 5.9375 
C 18.09375 1.703125 22.296875 -1 27.59375 -1 
C 37.59375 -1 47.703125 7.859375 47.703125 21.59375 
C 47.703125 34.3125 39 44 28.703125 44 
C 22.703125 44 17.796875 40.671875 15 36.640625 
L 15 44 
L 3.09375 42.890625 
L 3.09375 40.265625 
C 9 40.265625 9.90625 39.671875 9.90625 34.8125 
L 9.90625 -13.03125 
C 9.90625 -16.890625 9.5 -17.40625 3.09375 -17.40625 
L 3.09375 -20 
C 5.5 -19.8125 9.90625 -19.8125 12.5 -19.8125 
C 15.09375 -19.8125 19.59375 -19.8125 22 -20 
z
M 15.203125 31.484375 
C 15.203125 32.90625 15.203125 35.015625 19.09375 38.765625 
C 19.59375 39.15625 23 42.1875 28 42.1875 
C 35.296875 42.1875 41.296875 33 41.296875 21.5 
C 41.296875 9.984375 34.90625 0.59375 27 0.59375 
C 23.40625 0.59375 19.5 2.3125 16.5 7.046875 
C 15.203125 9.28125 15.203125 9.875 15.203125 11.5 
z
" id="CMR17-112"/>
      <path d="M 15.5 61.890625 
C 15.5 64.09375 13.703125 66 11.40625 66 
C 9.203125 66 7.296875 64.1875 7.296875 61.890625 
C 7.296875 59.6875 9.09375 57.796875 11.40625 57.796875 
C 13.59375 57.796875 15.5 59.59375 15.5 61.890625 
z
M 3.796875 42.890625 
L 3.796875 40.296875 
C 9.40625 40.296875 10.203125 39.6875 10.203125 34.859375 
L 10.203125 6.921875 
C 10.203125 3.09375 9.796875 2.59375 3.40625 2.59375 
L 3.40625 0 
C 5.796875 0.1875 10.09375 0.1875 12.59375 0.1875 
C 15 0.1875 19.09375 0.1875 21.40625 0 
L 21.40625 2.59375 
C 15.5 2.59375 15.296875 3.203125 15.296875 6.8125 
L 15.296875 44 
z
" id="CMR17-105"/>
      <path d="M 34.90625 35 
C 33 35 30.203125 35 30.203125 31.484375 
C 30.203125 28.6875 32.5 27.890625 33.796875 27.890625 
C 34.5 27.890625 37.40625 28.1875 37.40625 31.6875 
C 37.40625 38.6875 30.59375 44 22.90625 44 
C 12.296875 44 3.296875 34.390625 3.296875 21.546875 
C 3.296875 8.140625 12.703125 -1 22.90625 -1 
C 35.296875 -1 38.40625 10.5625 38.40625 11.671875 
C 38.40625 12.078125 38.296875 12.375 37.59375 12.375 
C 36.90625 12.375 36.796875 12.28125 36.40625 10.96875 
C 33.796875 2.8125 28.09375 0.796875 23.796875 0.796875 
C 17.40625 0.796875 9.703125 6.734375 9.703125 21.640625 
C 9.703125 36.84375 17.09375 42.1875 23 42.1875 
C 26.90625 42.1875 32.703125 40.34375 34.90625 35 
z
" id="CMR17-99"/>
      <path d="M 15.296875 69 
L 3.40625 67.890625 
L 3.40625 65.296875 
C 9.296875 65.296875 10.203125 64.703125 10.203125 59.921875 
L 10.203125 6.859375 
C 10.203125 3.09375 9.796875 2.59375 3.40625 2.59375 
L 3.40625 0 
C 5.796875 0.1875 10.203125 0.1875 12.703125 0.1875 
C 15.296875 0.1875 19.703125 0.1875 22.09375 0 
L 22.09375 2.59375 
C 15.703125 2.59375 15.296875 2.984375 15.296875 6.859375 
z
" id="CMR17-108"/>
      <path d="M 16.59375 4.09375 
C 16.59375 6.59375 14.59375 8.1875 12.5 8.1875 
C 10.5 8.1875 8.40625 6.59375 8.40625 4.09375 
C 8.40625 1.59375 10.40625 0 12.5 0 
C 14.5 0 16.59375 1.59375 16.59375 4.09375 
z
" id="CMR17-46"/>
      <path d="M 35.203125 29.234375 
C 35.203125 7 26.09375 0.390625 18.59375 0.390625 
C 16.296875 0.390625 10.703125 0.671875 8.40625 4.390625 
C 11 4 12.90625 5.390625 12.90625 7.890625 
C 12.90625 10.59375 10.703125 11.5 9.296875 11.5 
C 8.40625 11.5 5.703125 11.09375 5.703125 7.6875 
C 5.703125 1.0625 11.59375 -2 18.796875 -2 
C 30.296875 -2 42 10.390625 42 32.65625 
C 42 60.265625 30.796875 66 23.203125 66 
C 13.296875 66 3.796875 57.25 3.796875 43.75 
C 3.796875 31.25 11.90625 22 22.09375 22 
C 30.5 22 34.203125 29.84375 35.203125 33.15625 
z
M 22.296875 23.59375 
C 19.59375 23.59375 15.796875 24.09375 12.703125 30.140625 
C 10.59375 34.078125 10.59375 38.703125 10.59375 43.640625 
C 10.59375 49.59375 10.59375 53.71875 13.40625 58.15625 
C 14.796875 60.265625 17.40625 63.6875 23.203125 63.6875 
C 35 63.6875 35 45.453125 35 41.421875 
C 35 34.265625 31.796875 23.59375 22.296875 23.59375 
z
" id="CMR17-57"/>
      <path d="M 5.203125 68 
L 5.203125 65.390625 
C 12.09375 65.390625 13.203125 65.390625 13.203125 60.90625 
L 13.203125 7.078125 
C 13.203125 2.59375 12.09375 2.59375 5.203125 2.59375 
L 5.203125 0 
L 37 0 
C 53.09375 0 66 14.734375 66 33.4375 
C 66 52.25 53.296875 68 37 68 
z
M 23.796875 2.59375 
C 19.796875 2.59375 19.59375 3.09375 19.59375 6.46875 
L 19.59375 61.5 
C 19.59375 64.890625 19.796875 65.390625 23.796875 65.390625 
L 35 65.390625 
C 43.296875 65.390625 58.59375 60.515625 58.59375 33.4375 
C 58.59375 19.40625 54.5 13.734375 52.59375 11.046875 
C 50.203125 7.96875 44.5 2.59375 35 2.59375 
z
" id="CMR17-68"/>
      <path d="M 54.40625 67.796875 
L 5.09375 67.796875 
L 5.09375 65.1875 
C 12 65.1875 13.09375 65.1875 13.09375 60.671875 
L 13.09375 7.03125 
C 13.09375 2.59375 12 2.59375 5.09375 2.59375 
L 5.09375 0 
C 8 0.1875 13.59375 0.1875 16.703125 0.1875 
C 20.796875 0.1875 25.59375 0.1875 29.703125 0 
L 29.703125 2.59375 
L 27.5 2.59375 
C 19.90625 2.59375 19.703125 3.578125 19.703125 7.125 
L 19.703125 32.390625 
L 28.703125 32.390625 
C 38 32.390625 38.90625 29.140625 38.90625 20.84375 
L 40.703125 20.84375 
L 40.703125 46.734375 
L 38.90625 46.734375 
C 38.90625 38.296875 38 35 28.703125 35 
L 19.703125 35 
L 19.703125 61.28125 
C 19.703125 64.6875 19.90625 65.1875 23.90625 65.1875 
L 36.796875 65.1875 
C 51.90625 65.1875 53.59375 58.96875 55 45.625 
L 56.796875 45.625 
z
" id="CMR17-70"/>
      <path d="M 62.203125 67.6875 
L 4.5 67.6875 
L 2.796875 45.6875 
L 4.59375 45.6875 
C 5.90625 62.203125 7.296875 65.09375 22.703125 65.09375 
C 24.5 65.09375 27.40625 65.09375 28.203125 64.984375 
C 30.09375 64.6875 30.09375 63.5 30.09375 61.203125 
L 30.09375 7.265625 
C 30.09375 3.6875 29.796875 2.59375 21.5 2.59375 
L 18.703125 2.59375 
L 18.703125 0 
C 23.5 0.09375 28.5 0.1875 33.40625 0.1875 
C 38.296875 0.1875 43.296875 0.09375 48.09375 0 
L 48.09375 2.59375 
L 45.296875 2.59375 
C 37 2.59375 36.703125 3.6875 36.703125 7.265625 
L 36.703125 61.203125 
C 36.703125 63.390625 36.703125 64.59375 38.5 64.984375 
C 39.296875 65.09375 42.203125 65.09375 44 65.09375 
C 59.296875 65.09375 60.796875 62.203125 62.09375 45.6875 
L 63.90625 45.6875 
z
" id="CMR17-84"/>
      <path d="M 45.09375 61.796875 
L 45.09375 64 
L 21.59375 64 
C 9.90625 64 9.703125 65.09375 9.296875 67 
L 7.5 67 
L 4.59375 48.5 
L 6.40625 48.5 
C 6.703125 50.40625 7.40625 55.5 8.59375 57.390625 
C 9.203125 58.1875 16.59375 58.1875 18.296875 58.1875 
L 40.296875 58.1875 
L 29.203125 41.71875 
C 21.796875 30.640625 16.703125 15.671875 16.703125 2.59375 
C 16.703125 1.390625 16.703125 -2 20.296875 -2 
C 23.90625 -2 23.90625 1.390625 23.90625 2.6875 
L 23.90625 7.28125 
C 23.90625 23.65625 26.703125 34.4375 31.296875 41.3125 
z
" id="CMR17-55"/>
      <path d="M 19.796875 32 
L 35.796875 32 
C 48.703125 32 58.09375 40.359375 58.09375 49.796875 
C 58.09375 59.234375 48.90625 68 35.796875 68 
L 5.203125 68 
L 5.203125 65.390625 
C 12.09375 65.390625 13.203125 65.390625 13.203125 60.921875 
L 13.203125 7.078125 
C 13.203125 2.59375 12.09375 2.59375 5.203125 2.59375 
L 5.203125 0 
C 8.09375 0.1875 13.40625 0.1875 16.5 0.1875 
C 19.59375 0.1875 24.90625 0.1875 27.796875 0 
L 27.796875 2.59375 
C 20.90625 2.59375 19.796875 2.59375 19.796875 7.078125 
z
M 19.59375 34.09375 
L 19.59375 61.515625 
C 19.59375 64.890625 19.796875 65.390625 23.796875 65.390625 
L 33.90625 65.390625 
C 46.796875 65.390625 50.5 58.046875 50.5 49.796875 
C 50.5 40.75 46.09375 34.09375 33.90625 34.09375 
z
" id="CMR17-80"/>
     </defs>
     <use transform="translate(5.977584 149.639323)scale(0.996264)" xlink:href="#CMR17-77"/>
     <use transform="translate(90.664525 149.639323)scale(0.996264)" xlink:href="#CMR17-101"/>
     <use transform="translate(131.150185 149.639323)scale(0.996264)" xlink:href="#CMR17-116"/>
     <use transform="translate(166.430953 149.639323)scale(0.996264)" xlink:href="#CMR17-104"/>
     <use transform="translate(217.326323 149.639323)scale(0.996264)" xlink:href="#CMR17-111"/>
     <use transform="translate(265.619239 149.639323)scale(0.996264)" xlink:href="#CMR17-100"/>
     <use transform="translate(42.839352 211.905823)scale(0.996264)" xlink:href="#CMR17-109"/>
     <use transform="translate(119.758942 211.905823)scale(0.996264)" xlink:href="#CMR17-97"/>
     <use transform="translate(165.449419 211.905823)scale(0.996264)" xlink:href="#CMR17-120"/>
     <use transform="translate(213.742335 211.905823)scale(0.996264)" xlink:href="#CMR17-122"/>
     <use transform="translate(42.839352 87.372822)scale(0.996264)" xlink:href="#CMR17-40"/>
     <use transform="translate(100.68177 140.075881)scale(0.356961)" xlink:href="#Computer_Modern_Roman-6"/>
     <use transform="translate(78.12012 87.372822)scale(0.996264)" xlink:href="#CMR17-65"/>
     <use transform="translate(147.19255 87.372822)scale(0.996264)" xlink:href="#CMR17-41"/>
     <use transform="translate(74.719801 211.905823)scale(0.996264)" xlink:href="#CMR17-1"/>
     <use transform="translate(151.639391 211.905823)scale(0.996264)" xlink:href="#CMMI12-122"/>
     <use transform="translate(196.955144 196.961909)scale(0.697382)" xlink:href="#CMR17-114"/>
     <use transform="translate(221.651564 196.961909)scale(0.697382)" xlink:href="#CMR17-109"/>
     <use transform="translate(275.495031 196.961909)scale(0.697382)" xlink:href="#CMR17-115"/>
     <use transform="translate(74.719801 87.372822)scale(0.996264)" xlink:href="#CMR17-40"/>
     <use transform="translate(132.562218 140.075881)scale(0.356961)" xlink:href="#Computer_Modern_Roman-6"/>
     <use transform="translate(110.000569 87.372822)scale(0.996264)" xlink:href="#CMR17-65"/>
     <use transform="translate(179.072998 87.372822)scale(0.996264)" xlink:href="#CMR17-41"/>
     <use transform="translate(106.600249 211.905823)scale(0.996264)" xlink:href="#CMR17-1"/>
     <use transform="translate(183.519839 211.905823)scale(0.996264)" xlink:href="#CMR17-69"/>
     <use transform="translate(106.600249 87.372822)scale(0.996264)" xlink:href="#CMR17-40"/>
     <use transform="translate(141.881017 87.372822)scale(0.996264)" xlink:href="#CMR17-75"/>
     <use transform="translate(213.555794 87.372822)scale(0.996264)" xlink:href="#CMR17-41"/>
     <use transform="translate(5.977584 -68.691914)scale(0.996264)" xlink:href="#CMR17-101"/>
     <use transform="translate(46.463245 -68.691914)scale(0.996264)" xlink:href="#CMR17-109"/>
     <use transform="translate(123.382834 -68.691914)scale(0.996264)" xlink:href="#CMR17-112"/>
     <use transform="translate(174.278204 -68.691914)scale(0.996264)" xlink:href="#CMR17-105"/>
     <use transform="translate(199.149263 -68.691914)scale(0.996264)" xlink:href="#CMR17-114"/>
     <use transform="translate(234.43003 -68.691914)scale(0.996264)" xlink:href="#CMR17-105"/>
     <use transform="translate(259.301089 -68.691914)scale(0.996264)" xlink:href="#CMR17-99"/>
     <use transform="translate(299.786749 -68.691914)scale(0.996264)" xlink:href="#CMR17-97"/>
     <use transform="translate(345.477227 -68.691914)scale(0.996264)" xlink:href="#CMR17-108"/>
     <use transform="translate(42.839352 -68.691914)scale(0.996264)" xlink:href="#CMR17-50"/>
     <use transform="translate(88.52983 -68.691914)scale(0.996264)" xlink:href="#CMR17-46"/>
     <use transform="translate(113.400888 -68.691914)scale(0.996264)" xlink:href="#CMR17-54"/>
     <use transform="translate(159.091365 -68.691914)scale(0.996264)" xlink:href="#CMR17-57"/>
     <use transform="translate(74.719801 -68.691914)scale(0.996264)" xlink:href="#CMR17-48"/>
     <use transform="translate(120.410278 -68.691914)scale(0.996264)" xlink:href="#CMR17-46"/>
     <use transform="translate(145.281336 -68.691914)scale(0.996264)" xlink:href="#CMR17-49"/>
     <use transform="translate(190.971813 -68.691914)scale(0.996264)" xlink:href="#CMR17-54"/>
     <use transform="translate(236.662291 -68.691914)scale(0.996264)" xlink:href="#CMR17-49"/>
     <use transform="translate(106.600249 -68.691914)scale(0.996264)" xlink:href="#CMR17-50"/>
     <use transform="translate(152.290726 -68.691914)scale(0.996264)" xlink:href="#CMR17-49"/>
     <use transform="translate(197.981203 -68.691914)scale(0.996264)" xlink:href="#CMR17-46"/>
     <use transform="translate(222.852262 -68.691914)scale(0.996264)" xlink:href="#CMR17-50"/>
     <use transform="translate(5.977584 -224.35815)scale(0.996264)" xlink:href="#CMR17-68"/>
     <use transform="translate(76.37114 -224.35815)scale(0.996264)" xlink:href="#CMR17-70"/>
     <use transform="translate(136.354987 -224.35815)scale(0.996264)" xlink:href="#CMR17-84"/>
     <use transform="translate(42.839352 -224.35815)scale(0.996264)" xlink:href="#CMR17-51"/>
     <use transform="translate(88.52983 -224.35815)scale(0.996264)" xlink:href="#CMR17-46"/>
     <use transform="translate(113.400888 -224.35815)scale(0.996264)" xlink:href="#CMR17-48"/>
     <use transform="translate(159.091365 -224.35815)scale(0.996264)" xlink:href="#CMR17-55"/>
     <use transform="translate(74.719801 -224.35815)scale(0.996264)" xlink:href="#CMR17-48"/>
     <use transform="translate(120.410278 -224.35815)scale(0.996264)" xlink:href="#CMR17-46"/>
     <use transform="translate(145.281336 -224.35815)scale(0.996264)" xlink:href="#CMR17-49"/>
     <use transform="translate(190.971813 -224.35815)scale(0.996264)" xlink:href="#CMR17-52"/>
     <use transform="translate(236.662291 -224.35815)scale(0.996264)" xlink:href="#CMR17-57"/>
     <use transform="translate(106.600249 -224.35815)scale(0.996264)" xlink:href="#CMR17-50"/>
     <use transform="translate(152.290726 -224.35815)scale(0.996264)" xlink:href="#CMR17-51"/>
     <use transform="translate(197.981203 -224.35815)scale(0.996264)" xlink:href="#CMR17-46"/>
     <use transform="translate(222.852262 -224.35815)scale(0.996264)" xlink:href="#CMR17-53"/>
     <use transform="translate(5.977584 -380.024387)scale(0.996264)" xlink:href="#CMR17-77"/>
     <use transform="translate(90.664525 -380.024387)scale(0.996264)" xlink:href="#CMR17-80"/>
     <use transform="translate(153.250825 -380.024387)scale(0.996264)" xlink:href="#CMR17-50"/>
     <use transform="translate(42.839352 -380.024387)scale(0.996264)" xlink:href="#CMR17-50"/>
     <use transform="translate(88.52983 -380.024387)scale(0.996264)" xlink:href="#CMR17-46"/>
     <use transform="translate(113.400888 -380.024387)scale(0.996264)" xlink:href="#CMR17-57"/>
     <use transform="translate(159.091365 -380.024387)scale(0.996264)" xlink:href="#CMR17-51"/>
     <use transform="translate(74.719801 -380.024387)scale(0.996264)" xlink:href="#CMR17-48"/>
     <use transform="translate(120.410278 -380.024387)scale(0.996264)" xlink:href="#CMR17-46"/>
     <use transform="translate(145.281336 -380.024387)scale(0.996264)" xlink:href="#CMR17-49"/>
     <use transform="translate(190.971813 -380.024387)scale(0.996264)" xlink:href="#CMR17-52"/>
     <use transform="translate(236.662291 -380.024387)scale(0.996264)" xlink:href="#CMR17-50"/>
     <use transform="translate(106.600249 -380.024387)scale(0.996264)" xlink:href="#CMR17-50"/>
     <use transform="translate(152.290726 -380.024387)scale(0.996264)" xlink:href="#CMR17-53"/>
     <use transform="translate(197.981203 -380.024387)scale(0.996264)" xlink:href="#CMR17-46"/>
     <use transform="translate(222.852262 -380.024387)scale(0.996264)" xlink:href="#CMR17-53"/>
     <path d="M 0 320.871713 
L 128.518057 320.871713 
L 128.518057 321.270212 
L 0 321.270212 
L 0 320.871713 
z
"/>
     <path d="M 0 40.273976 
L 128.518057 40.273976 
L 128.518057 40.672475 
L 0 40.672475 
L 0 40.273976 
z
"/>
     <path d="M 0 -427.123233 
L 128.518057 -427.123233 
L 128.518057 -426.724733 
L 0 -426.724733 
L 0 -427.123233 
z
"/>
    </g>
   </g>
   <g id="legend_1">
    <g id="line2d_14">
     <path d="M 166.086729 81.492176 
L 175.086729 81.492176 
" style="fill:none;stroke:#d43e4e;stroke-linecap:square;"/>
    </g>
    <g id="line2d_15"/>
    <g id="text_14">
     <!-- empirical -->
     <g transform="translate(179.586729 84.642176)scale(0.09 -0.09)">
      <use transform="scale(0.996264)" xlink:href="#CMR17-101"/>
      <use transform="translate(40.48566 0)scale(0.996264)" xlink:href="#CMR17-109"/>
      <use transform="translate(117.40525 0)scale(0.996264)" xlink:href="#CMR17-112"/>
      <use transform="translate(168.30062 0)scale(0.996264)" xlink:href="#CMR17-105"/>
      <use transform="translate(193.171679 0)scale(0.996264)" xlink:href="#CMR17-114"/>
      <use transform="translate(228.452446 0)scale(0.996264)" xlink:href="#CMR17-105"/>
      <use transform="translate(253.323505 0)scale(0.996264)" xlink:href="#CMR17-99"/>
      <use transform="translate(293.809165 0)scale(0.996264)" xlink:href="#CMR17-97"/>
      <use transform="translate(339.499642 0)scale(0.996264)" xlink:href="#CMR17-108"/>
     </g>
    </g>
    <g id="line2d_16">
     <path d="M 166.086729 91.788738 
L 175.086729 91.788738 
" style="fill:none;stroke:#3288bc;stroke-linecap:square;"/>
    </g>
    <g id="line2d_17"/>
    <g id="text_15">
     <!-- DFT -->
     <g transform="translate(179.586729 94.938738)scale(0.09 -0.09)">
      <use transform="scale(0.996264)" xlink:href="#CMR17-68"/>
      <use transform="translate(70.393556 0)scale(0.996264)" xlink:href="#CMR17-70"/>
      <use transform="translate(130.377402 0)scale(0.996264)" xlink:href="#CMR17-84"/>
     </g>
    </g>
    <g id="line2d_18">
     <path d="M 166.086729 102.085301 
L 175.086729 102.085301 
" style="fill:none;stroke:#abdda4;stroke-linecap:square;"/>
    </g>
    <g id="line2d_19"/>
    <g id="text_16">
     <!-- MP2 -->
     <g transform="translate(179.586729 105.235301)scale(0.09 -0.09)">
      <use transform="scale(0.996264)" xlink:href="#CMR17-77"/>
      <use transform="translate(84.686941 0)scale(0.996264)" xlink:href="#CMR17-80"/>
      <use transform="translate(147.273241 0)scale(0.996264)" xlink:href="#CMR17-50"/>
     </g>
    </g>
   </g>
  </g>
 </g>
 <defs>
  <clipPath id="p59bd6686d9">
   <rect height="114.358763" width="189.93762" x="34.634835" y="0.72"/>
  </clipPath>
 </defs>
</svg>
