<?xml version="1.0" encoding="utf-8" standalone="no"?>
<!DOCTYPE svg PUBLIC "-//W3C//DTD SVG 1.1//EN"
  "http://www.w3.org/Graphics/SVG/1.1/DTD/svg11.dtd">
<!-- Created with matplotlib (https://matplotlib.org/) -->
<svg height="156.148982pt" version="1.1" viewBox="0 0 204.181757 156.148982" width="204.181757pt" xmlns="http://www.w3.org/2000/svg" xmlns:xlink="http://www.w3.org/1999/xlink">
 <metadata>
  <rdf:RDF xmlns:cc="http://creativecommons.org/ns#" xmlns:dc="http://purl.org/dc/elements/1.1/" xmlns:rdf="http://www.w3.org/1999/02/22-rdf-syntax-ns#">
   <cc:Work>
    <dc:type rdf:resource="http://purl.org/dc/dcmitype/StillImage"/>
    <dc:date>2021-02-21T14:08:38.205320</dc:date>
    <dc:format>image/svg+xml</dc:format>
    <dc:creator>
     <cc:Agent>
      <dc:title>Matplotlib v3.3.2, https://matplotlib.org/</dc:title>
     </cc:Agent>
    </dc:creator>
   </cc:Work>
  </rdf:RDF>
 </metadata>
 <defs>
  <style type="text/css">*{stroke-linecap:butt;stroke-linejoin:round;}</style>
 </defs>
 <g id="figure_1">
  <g id="patch_1">
   <path d="M 0 156.148982 
L 204.181757 156.148982 
L 204.181757 0 
L 0 0 
z
" style="fill:none;"/>
  </g>
  <g id="axes_1">
   <g id="patch_2">
    <path d="M 24.901757 131.184 
L 203.461757 131.184 
L 203.461757 0.72 
L 24.901757 0.72 
z
" style="fill:none;"/>
   </g>
   <g id="matplotlib.axis_1">
    <g id="xtick_1">
     <g id="line2d_1">
      <defs>
       <path d="M 0 0 
L 0 2 
" id="mbab701431e" style="stroke:#000000;stroke-width:0.5;"/>
      </defs>
      <g>
       <use style="stroke:#000000;stroke-width:0.5;" x="48.195061" xlink:href="#mbab701431e" y="131.184"/>
      </g>
     </g>
     <g id="text_1">
      <!-- $\mathdefault{−2}$ -->
      <g transform="translate(42.307456 141.41065)scale(0.09 -0.09)">
       <defs>
        <path d="M 65.90625 23 
C 67.59375 23 69.40625 23 69.40625 25 
C 69.40625 27 67.59375 27 65.90625 27 
L 11.796875 27 
C 10.09375 27 8.296875 27 8.296875 25 
C 8.296875 23 10.09375 23 11.796875 23 
z
" id="CMSY10-0"/>
        <path d="M 41.703125 15.46875 
L 39.90625 15.46875 
C 38.90625 8.390625 38.09375 7.1875 37.703125 6.59375 
C 37.203125 5.796875 30 5.796875 28.59375 5.796875 
L 9.40625 5.796875 
C 13 9.6875 20 16.765625 28.5 24.9375 
C 34.59375 30.71875 41.703125 37.5 41.703125 47.390625 
C 41.703125 59.1875 32.296875 66 21.796875 66 
C 10.796875 66 4.09375 56.296875 4.09375 47.296875 
C 4.09375 43.390625 7 42.890625 8.203125 42.890625 
C 9.203125 42.890625 12.203125 43.484375 12.203125 46.984375 
C 12.203125 50.09375 9.59375 51 8.203125 51 
C 7.59375 51 7 50.890625 6.59375 50.6875 
C 8.5 59.1875 14.296875 63.390625 20.40625 63.390625 
C 29.09375 63.390625 34.796875 56.5 34.796875 47.390625 
C 34.796875 38.703125 29.703125 31.21875 24 24.734375 
L 4.09375 2.296875 
L 4.09375 0 
L 39.296875 0 
z
" id="CMR17-50"/>
       </defs>
       <use transform="scale(0.996264)" xlink:href="#CMSY10-0"/>
       <use transform="translate(77.487468 0)scale(0.996264)" xlink:href="#CMR17-50"/>
      </g>
     </g>
    </g>
    <g id="xtick_2">
     <g id="line2d_2">
      <g>
       <use style="stroke:#000000;stroke-width:0.5;" x="81.188409" xlink:href="#mbab701431e" y="131.184"/>
      </g>
     </g>
     <g id="text_2">
      <!-- $\mathdefault{−1}$ -->
      <g transform="translate(75.300805 141.41065)scale(0.09 -0.09)">
       <defs>
        <path d="M 26.59375 63.796875 
C 26.59375 65.890625 26.5 66 25.09375 66 
C 21.203125 61.359375 15.296875 59.890625 9.703125 59.6875 
C 9.40625 59.6875 8.90625 59.6875 8.796875 59.5 
C 8.703125 59.296875 8.703125 59.09375 8.703125 57 
C 11.796875 57 17 57.59375 21 59.984375 
L 21 7.296875 
C 21 3.796875 20.796875 2.59375 12.203125 2.59375 
L 9.203125 2.59375 
L 9.203125 0 
C 14 0.09375 19 0.1875 23.796875 0.1875 
C 28.59375 0.1875 33.59375 0.09375 38.40625 0 
L 38.40625 2.59375 
L 35.40625 2.59375 
C 26.796875 2.59375 26.59375 3.6875 26.59375 7.296875 
z
" id="CMR17-49"/>
       </defs>
       <use transform="scale(0.996264)" xlink:href="#CMSY10-0"/>
       <use transform="translate(77.487468 0)scale(0.996264)" xlink:href="#CMR17-49"/>
      </g>
     </g>
    </g>
    <g id="xtick_3">
     <g id="line2d_3">
      <g>
       <use style="stroke:#000000;stroke-width:0.5;" x="114.181757" xlink:href="#mbab701431e" y="131.184"/>
      </g>
     </g>
     <g id="text_3">
      <!-- $\mathdefault{0}$ -->
      <g transform="translate(111.877912 141.41065)scale(0.09 -0.09)">
       <defs>
        <path d="M 42 31.84375 
C 42 37.96875 41.90625 48.421875 37.703125 56.453125 
C 34 63.484375 28.09375 66 22.90625 66 
C 18.09375 66 12 63.78125 8.203125 56.5625 
C 4.203125 49.015625 3.796875 39.671875 3.796875 31.84375 
C 3.796875 26.109375 3.90625 17.375 7 9.734375 
C 11.296875 -0.609375 19 -2 22.90625 -2 
C 27.5 -2 34.5 -0.109375 38.59375 9.4375 
C 41.59375 16.375 42 24.5 42 31.84375 
z
M 22.90625 -0.40625 
C 16.5 -0.40625 12.703125 5.125 11.296875 12.75 
C 10.203125 18.6875 10.203125 27.328125 10.203125 32.953125 
C 10.203125 40.6875 10.203125 47.109375 11.5 53.234375 
C 13.40625 61.78125 19 64.390625 22.90625 64.390625 
C 27 64.390625 32.296875 61.671875 34.203125 53.4375 
C 35.5 47.71875 35.59375 40.984375 35.59375 32.953125 
C 35.59375 26.421875 35.59375 18.375 34.40625 12.453125 
C 32.296875 1.5 26.40625 -0.40625 22.90625 -0.40625 
z
" id="CMR17-48"/>
       </defs>
       <use transform="scale(0.996264)" xlink:href="#CMR17-48"/>
      </g>
     </g>
    </g>
    <g id="xtick_4">
     <g id="line2d_4">
      <g>
       <use style="stroke:#000000;stroke-width:0.5;" x="147.175105" xlink:href="#mbab701431e" y="131.184"/>
      </g>
     </g>
     <g id="text_4">
      <!-- $\mathdefault{1}$ -->
      <g transform="translate(144.87126 141.41065)scale(0.09 -0.09)">
       <use transform="scale(0.996264)" xlink:href="#CMR17-49"/>
      </g>
     </g>
    </g>
    <g id="xtick_5">
     <g id="line2d_5">
      <g>
       <use style="stroke:#000000;stroke-width:0.5;" x="180.168454" xlink:href="#mbab701431e" y="131.184"/>
      </g>
     </g>
     <g id="text_5">
      <!-- $\mathdefault{2}$ -->
      <g transform="translate(177.864608 141.41065)scale(0.09 -0.09)">
       <use transform="scale(0.996264)" xlink:href="#CMR17-50"/>
      </g>
     </g>
    </g>
    <g id="text_6">
     <!-- $\alabel{x}{\angstrom}$ -->
     <g transform="translate(100.69146 153.187388)scale(0.09 -0.09)">
      <defs>
       <path d="M 47.40625 41 
C 44.203125 40.390625 43 37.984375 43 36.09375 
C 43 33.6875 44.90625 32.890625 46.296875 32.890625 
C 49.296875 32.890625 51.40625 35.484375 51.40625 38.1875 
C 51.40625 42.09375 46.59375 44 42.40625 44 
C 36.296875 44 32.90625 38.296875 32 36.390625 
C 29.703125 43.59375 23.5 44 21.703125 44 
C 11.5 44 6.09375 31.140625 6.09375 28.890625 
C 6.09375 28.484375 6.5 27.96875 7.203125 27.96875 
C 8 27.96875 8.203125 28.578125 8.40625 28.984375 
C 11.796875 40.1875 18.5 41.984375 21.40625 41.984375 
C 25.90625 41.984375 26.796875 38.09375 26.796875 35.6875 
C 26.796875 33.484375 26.203125 31.140625 25 26.21875 
L 21.59375 12.15625 
C 20.09375 6.09375 17.203125 1 11.90625 1 
C 11.40625 1 8.90625 1 6.796875 1.96875 
C 10.40625 2.59375 11.203125 5.59375 11.203125 6.796875 
C 11.203125 8.796875 9.703125 10 7.796875 10 
C 5.40625 10 2.796875 7.890625 2.796875 4.6875 
C 2.796875 0.890625 7.5 -1 11.796875 -1 
C 16.59375 -1 20 2.390625 22.09375 6.484375 
C 23.703125 1 28.703125 -1 32.40625 -1 
C 42.59375 -1 48 11.734375 48 14 
C 48 14.515625 47.59375 14.921875 47 14.921875 
C 46.09375 14.921875 46 14.40625 45.703125 13.59375 
C 43 4.6875 37.203125 1 32.703125 1 
C 29.203125 1 27.296875 3.1875 27.296875 7.296875 
C 27.296875 9.484375 27.703125 11.125 29.296875 17.90625 
L 32.796875 31.859375 
C 34.296875 37.890625 37.703125 41.984375 42.296875 41.984375 
C 42.5 41.984375 45.296875 41.984375 47.40625 41 
z
" id="CMMI12-120"/>
       <path d="M 42.90625 71.296875 
C 42.90625 71.390625 43.5 72.890625 43.5 73.09375 
C 43.5 74.296875 42.5 75 41.703125 75 
C 41.203125 75 40.296875 75 39.5 72.796875 
L 6 -21.3125 
C 6 -21.40625 5.40625 -22.90625 5.40625 -23.109375 
C 5.40625 -24.3125 6.40625 -25 7.203125 -25 
C 7.796875 -25 8.703125 -24.90625 9.40625 -22.8125 
z
" id="CMMI12-61"/>
       <path d="M 32.59375 64 
C 29 63.328125 25.40625 60.875 25.40625 56.453125 
L 25.40625 55.78125 
C 25.90625 51.921875 29.5 49 33.59375 49 
C 37.703125 49 41.703125 52.484375 41.703125 56.546875 
L 41.703125 57.296875 
C 41.203125 61.890625 37.59375 65 33.5 65 
C 33.203125 64.09375 32.90625 64 32.59375 64 
z
M 26.703125 55.78125 
L 26.703125 56.453125 
C 26.703125 61 30 63.390625 33.703125 63.390625 
C 37.40625 63.390625 39.90625 60.890625 40.40625 57.5 
L 40.40625 56.796875 
C 40.40625 52.390625 37.09375 50 33.40625 50 
C 29.703125 50 27.203125 52.5 26.703125 55.890625 
z
" id="Computer_Modern_Roman-6"/>
       <path d="M 36.296875 69.390625 
C 35.796875 70.6875 35.59375 71 34.59375 71 
C 33.59375 71 33.40625 70.6875 32.90625 69.390625 
L 11.703125 9.0625 
C 9.796875 3.6875 5.796875 2.59375 2.296875 2.59375 
L 2.296875 0 
C 4.09375 0.1875 8.09375 0.1875 10 0.1875 
C 12.5 0.1875 16.5 0.1875 18.90625 0 
L 18.90625 2.59375 
C 14.203125 2.796875 13.5 5.96875 13.5 7.171875 
C 13.5 8.0625 13.703125 8.5625 13.90625 9.15625 
L 19.203125 24 
L 45.40625 24 
L 51.40625 7.078125 
C 51.90625 5.875 51.90625 5.671875 51.90625 5.28125 
C 51.90625 2.59375 47.59375 2.59375 45.703125 2.59375 
L 45.703125 0 
C 48.59375 0.1875 53.796875 0.1875 56.90625 0.1875 
C 59.5 0.1875 64.5 0.1875 66.90625 0 
L 66.90625 2.59375 
C 61.59375 2.59375 59.796875 2.59375 58.5 6.28125 
z
M 32.296875 61.3125 
L 44.5 26.59375 
L 20.09375 26.59375 
z
" id="CMR17-65"/>
      </defs>
      <use transform="scale(0.996264)" xlink:href="#CMMI12-120"/>
      <use transform="translate(110.782077 0)scale(0.996264)" xlink:href="#CMMI12-61"/>
      <use transform="translate(216.020733 25.192287)scale(0.996264)" xlink:href="#Computer_Modern_Roman-6"/>
      <use transform="translate(214.905013 0)scale(0.996264)" xlink:href="#CMR17-65"/>
     </g>
    </g>
   </g>
   <g id="matplotlib.axis_2">
    <g id="ytick_1">
     <g id="line2d_6">
      <defs>
       <path d="M 0 0 
L -2 0 
" id="m74e597525b" style="stroke:#000000;stroke-width:0.5;"/>
      </defs>
      <g>
       <use style="stroke:#000000;stroke-width:0.5;" x="24.901757" xlink:href="#m74e597525b" y="131.184"/>
      </g>
     </g>
     <g id="text_7">
      <!-- $\mathdefault{0}$ -->
      <g transform="translate(16.294067 134.297325)scale(0.09 -0.09)">
       <use transform="scale(0.996264)" xlink:href="#CMR17-48"/>
      </g>
     </g>
    </g>
    <g id="ytick_2">
     <g id="line2d_7">
      <g>
       <use style="stroke:#000000;stroke-width:0.5;" x="24.901757" xlink:href="#m74e597525b" y="96.3936"/>
      </g>
     </g>
     <g id="text_8">
      <!-- $\mathdefault{20}$ -->
      <g transform="translate(11.686376 99.506925)scale(0.09 -0.09)">
       <use transform="scale(0.996264)" xlink:href="#CMR17-50"/>
       <use transform="translate(45.690477 0)scale(0.996264)" xlink:href="#CMR17-48"/>
      </g>
     </g>
    </g>
    <g id="ytick_3">
     <g id="line2d_8">
      <g>
       <use style="stroke:#000000;stroke-width:0.5;" x="24.901757" xlink:href="#m74e597525b" y="61.6032"/>
      </g>
     </g>
     <g id="text_9">
      <!-- $\mathdefault{40}$ -->
      <g transform="translate(11.686376 64.716525)scale(0.09 -0.09)">
       <defs>
        <path d="M 33.59375 64.796875 
C 33.59375 66.890625 33.5 67 31.703125 67 
L 2 19.59375 
L 2 17 
L 27.796875 17 
L 27.796875 7.1875 
C 27.796875 3.59375 27.59375 2.59375 20.59375 2.59375 
L 18.703125 2.59375 
L 18.703125 0 
C 21.90625 0.1875 27.296875 0.1875 30.703125 0.1875 
C 34.09375 0.1875 39.5 0.1875 42.703125 0 
L 42.703125 2.59375 
L 40.796875 2.59375 
C 33.796875 2.59375 33.59375 3.59375 33.59375 7.1875 
L 33.59375 17 
L 43.796875 17 
L 43.796875 19.59375 
L 33.59375 19.59375 
z
M 28.09375 58.171875 
L 28.09375 19.59375 
L 4 19.59375 
z
" id="CMR17-52"/>
       </defs>
       <use transform="scale(0.996264)" xlink:href="#CMR17-52"/>
       <use transform="translate(45.690477 0)scale(0.996264)" xlink:href="#CMR17-48"/>
      </g>
     </g>
    </g>
    <g id="ytick_4">
     <g id="line2d_9">
      <g>
       <use style="stroke:#000000;stroke-width:0.5;" x="24.901757" xlink:href="#m74e597525b" y="26.8128"/>
      </g>
     </g>
     <g id="text_10">
      <!-- $\mathdefault{60}$ -->
      <g transform="translate(11.686376 29.926125)scale(0.09 -0.09)">
       <defs>
        <path d="M 10.59375 34.34375 
C 10.59375 58 21.796875 63.6875 28.296875 63.6875 
C 30.40625 63.6875 35.5 63.265625 37.5 59.09375 
C 35.90625 59.09375 32.90625 59.09375 32.90625 55.59375 
C 32.90625 52.890625 35.09375 52 36.5 52 
C 37.40625 52 40.09375 52.390625 40.09375 55.796875 
C 40.09375 62.296875 35.09375 66 28.203125 66 
C 16.296875 66 3.796875 53.296875 3.796875 31.421875 
C 3.796875 4.015625 15.09375 -2 23.09375 -2 
C 32.796875 -2 42 6.734375 42 20.234375 
C 42 32.828125 33.90625 42 23.703125 42 
C 17.59375 42 13.09375 37.96875 10.59375 30.921875 
z
M 23.09375 0.390625 
C 10.796875 0.390625 10.796875 18.9375 10.796875 22.65625 
C 10.796875 29.90625 14.203125 40.390625 23.5 40.390625 
C 25.203125 40.390625 30.09375 40.390625 33.40625 33.4375 
C 35.203125 29.515625 35.203125 25.375 35.203125 20.34375 
C 35.203125 14.90625 35.203125 10.875 33.09375 6.84375 
C 30.90625 2.703125 27.703125 0.390625 23.09375 0.390625 
z
" id="CMR17-54"/>
       </defs>
       <use transform="scale(0.996264)" xlink:href="#CMR17-54"/>
       <use transform="translate(45.690477 0)scale(0.996264)" xlink:href="#CMR17-48"/>
      </g>
     </g>
    </g>
    <g id="text_11">
     <!-- $\alabel{\mathcal{V}_{\rm He-\graphene}}{\kelvin}$ -->
     <g transform="translate(7.444782 89.989575)rotate(-90)scale(0.09 -0.09)">
      <defs>
       <path d="M 27 8.875 
C 28.5 21.046875 28.5 29.953125 28.5 31.4375 
C 28.5 38.453125 28.5 68 10.296875 68 
C 6.90625 68 3.40625 65.1875 3.40625 63.796875 
C 3.40625 63.09375 3.90625 63.09375 5.296875 63 
C 19.90625 61.703125 21.09375 39.046875 21.09375 27.875 
C 21.09375 17.875 19.796875 6 18.59375 -0.625 
C 18.40625 -1.8125 18.40625 -2 18.40625 -2.40625 
C 18.40625 -2.90625 18.40625 -4.109375 19.09375 -4.109375 
C 20.203125 -4.109375 44.40625 14.21875 57.09375 33.3125 
C 62.203125 41.03125 66 49.828125 66 56.46875 
C 66 64.890625 60.40625 68 56.296875 68 
C 53.40625 68 52 61.703125 52 60.421875 
C 52 58.9375 52.5 58.9375 53.703125 58.84375 
C 60.40625 58.046875 61.59375 52.796875 61.59375 50.421875 
C 61.59375 42.421875 44.203125 22.140625 27 8.875 
z
" id="CMSY10-86"/>
       <path d="M 56.09375 60.90625 
C 56.09375 65.390625 57.203125 65.390625 64.09375 65.390625 
L 64.09375 68 
C 61.203125 67.796875 55.90625 67.796875 52.796875 67.796875 
C 49.703125 67.796875 44.40625 67.796875 41.5 68 
L 41.5 65.390625 
C 48.40625 65.390625 49.5 65.390625 49.5 60.90625 
L 49.5 36.59375 
L 19.703125 36.59375 
L 19.703125 60.90625 
C 19.703125 65.390625 20.796875 65.390625 27.703125 65.390625 
L 27.703125 68 
C 24.796875 67.796875 19.5 67.796875 16.40625 67.796875 
C 13.296875 67.796875 8 67.796875 5.09375 68 
L 5.09375 65.390625 
C 12 65.390625 13.09375 65.390625 13.09375 60.90625 
L 13.09375 7.0625 
C 13.09375 2.59375 12 2.59375 5.09375 2.59375 
L 5.09375 0 
C 8 0.1875 13.296875 0.1875 16.40625 0.1875 
C 19.5 0.1875 24.796875 0.1875 27.703125 0 
L 27.703125 2.59375 
C 20.796875 2.59375 19.703125 2.59375 19.703125 7.0625 
L 19.703125 34 
L 49.5 34 
L 49.5 7.0625 
C 49.5 2.59375 48.40625 2.59375 41.5 2.59375 
L 41.5 0 
C 44.40625 0.1875 49.703125 0.1875 52.796875 0.1875 
C 55.90625 0.1875 61.203125 0.1875 64.09375 0 
L 64.09375 2.59375 
C 57.203125 2.59375 56.09375 2.59375 56.09375 7.0625 
z
" id="CMR17-72"/>
       <path d="M 38.09375 23.484375 
C 38.5 23.890625 38.5 24.09375 38.5 25.09375 
C 38.5 35.171875 33.09375 44 21.703125 44 
C 11.09375 44 2.703125 33.984375 2.703125 21.78125 
C 2.703125 8.65625 12.203125 -1 22.796875 -1 
C 34 -1 38.40625 9.671875 38.40625 11.796875 
C 38.40625 12.5 37.796875 12.5 37.59375 12.5 
C 36.90625 12.5 36.796875 12.296875 36.40625 11.078125 
C 34.203125 4.21875 28.703125 0.796875 23.5 0.796875 
C 19.203125 0.796875 14.90625 3.21875 12.203125 7.65625 
C 9.09375 12.796875 9.09375 18.75 9.09375 23.484375 
z
M 9.203125 25 
C 9.90625 39.234375 17.59375 42.390625 21.59375 42.390625 
C 28.40625 42.390625 33 36.0625 33.09375 25 
z
" id="CMR17-101"/>
       <path d="M 63.203125 41.328125 
L 63.203125 35 
L 78.90625 35 
L 62.59375 7 
L 29.703125 7 
L 13.203125 35.09375 
L 29.703125 64 
L 62.59375 64 
L 70.5 50 
L 77.203125 50 
L 66.40625 71 
L 25.90625 71 
L 5.5 35.09375 
L 25.90625 0 
L 66.40625 0 
L 86.796875 35 
L 78.703125 41.328125 
z
" id="SVRsymbols-115"/>
       <path d="M 36.90625 41.703125 
L 54.203125 58.921875 
C 57.796875 62.40625 61.59375 65.1875 67.203125 65.390625 
L 67.203125 68 
C 65.203125 67.890625 62.703125 67.796875 60.703125 67.796875 
C 58 67.796875 53.296875 67.796875 50.703125 68 
L 50.703125 65.390625 
C 53.296875 65.1875 53.703125 63.390625 53.703125 62.703125 
C 53.703125 62 53.296875 60.90625 52.90625 60.3125 
L 19.703125 27.171875 
L 19.703125 60.90625 
C 19.703125 65.390625 20.796875 65.390625 27.703125 65.390625 
L 27.703125 68 
C 24.796875 67.796875 19.5 67.796875 16.40625 67.796875 
C 13.296875 67.796875 8 67.796875 5.09375 68 
L 5.09375 65.390625 
C 12 65.390625 13.09375 65.390625 13.09375 60.90625 
L 13.09375 7.078125 
C 13.09375 2.59375 12 2.59375 5.09375 2.59375 
L 5.09375 0 
C 8 0.1875 13.296875 0.1875 16.40625 0.1875 
C 19.5 0.1875 24.796875 0.1875 27.703125 0 
L 27.703125 2.59375 
C 20.796875 2.59375 19.703125 2.59375 19.703125 7.078125 
L 19.703125 24.6875 
L 32.5 37.328125 
L 51.40625 8.46875 
C 52 7.46875 52.703125 6.171875 52.703125 5.1875 
C 52.703125 2.59375 49.90625 2.59375 48.59375 2.59375 
L 48.59375 0 
C 51.796875 0.1875 56.40625 0.1875 59.703125 0.1875 
C 62.09375 0.1875 66.203125 0.1875 68.5 0 
L 68.5 2.59375 
C 63.703125 2.59375 62.203125 3.1875 59.203125 7.765625 
z
" id="CMR17-75"/>
      </defs>
      <use transform="scale(0.996264)" xlink:href="#CMSY10-86"/>
      <use transform="translate(61.049309 -15.337838)scale(0.697382)" xlink:href="#CMR17-72"/>
      <use transform="translate(109.399794 -15.337838)scale(0.697382)" xlink:href="#CMR17-101"/>
      <use transform="translate(137.739626 -15.337838)scale(0.697382)" xlink:href="#CMSY10-0"/>
      <use transform="translate(191.980619 -15.337838)scale(0.697382)" xlink:href="#SVRsymbols-115"/>
      <use transform="translate(312.195128 0)scale(0.996264)" xlink:href="#CMMI12-61"/>
      <use transform="translate(416.318064 0)scale(0.996264)" xlink:href="#CMR17-75"/>
     </g>
    </g>
   </g>
   <g id="line2d_10">
    <path clip-path="url(#pa65ddd0404)" d="M 33.034288 131.184 
L 33.684117 131.089174 
L 34.333947 130.760284 
L 34.983777 130.206614 
L 35.796063 129.21257 
L 36.770808 127.60078 
L 37.745552 125.561557 
L 38.882754 122.68403 
L 40.182413 118.799073 
L 41.806987 113.15729 
L 43.594019 106.113033 
L 45.868422 96.203091 
L 49.280027 80.220917 
L 54.478664 55.95247 
L 57.077982 44.926495 
L 59.189929 36.881921 
L 61.139417 30.324072 
L 62.763991 25.566992 
L 64.388565 21.489222 
L 65.850682 18.418698 
L 67.150341 16.173112 
L 68.45 14.375432 
L 69.587202 13.162979 
L 70.724404 12.280954 
L 71.699148 11.78385 
L 72.673893 11.522234 
L 73.648637 11.492781 
L 74.623381 11.693545 
L 75.598126 12.127463 
L 76.57287 12.798547 
L 77.710072 13.886582 
L 78.847274 15.308543 
L 79.984475 17.067549 
L 81.284135 19.493828 
L 82.746251 22.756791 
L 84.208368 26.57241 
L 85.832942 31.434142 
L 87.619973 37.496143 
L 89.731919 45.520138 
L 92.16878 55.746669 
L 95.417928 70.481352 
L 102.078681 100.996921 
L 104.353085 110.236048 
L 106.140116 116.646792 
L 107.76469 121.653479 
L 109.064349 125.000601 
L 110.201551 127.390167 
L 111.176296 129.002302 
L 112.15104 130.18702 
L 112.963327 130.831546 
L 113.613156 131.11345 
L 114.262986 131.180386 
L 114.912816 131.028369 
L 115.562645 130.660821 
L 116.374932 129.905445 
L 117.187219 128.829797 
L 118.161964 127.129161 
L 119.299165 124.604228 
L 120.598825 121.068227 
L 122.060941 116.361878 
L 123.685515 110.367908 
L 125.635004 102.325798 
L 128.234322 90.597168 
L 137.331936 48.593578 
L 139.60634 39.563204 
L 141.555829 32.679978 
L 143.34286 27.156827 
L 144.967434 22.838575 
L 146.429551 19.544897 
L 147.72921 17.100483 
L 149.028869 15.107812 
L 150.166071 13.727898 
L 151.303273 12.681261 
L 152.278017 12.045172 
L 153.252761 11.646512 
L 154.227506 11.481956 
L 155.20225 11.548293 
L 156.176994 11.845638 
L 157.151739 12.377807 
L 158.126483 13.148813 
L 159.263685 14.355497 
L 160.400887 15.897443 
L 161.700546 18.073638 
L 163.000205 20.695051 
L 164.462322 24.175281 
L 166.086896 28.679793 
L 167.873927 34.374765 
L 169.823416 41.398343 
L 172.097819 50.518541 
L 174.859595 62.627677 
L 179.733317 85.292759 
L 183.144922 100.647554 
L 185.419326 109.925376 
L 187.206357 116.374661 
L 188.830931 121.42083 
L 190.13059 124.805983 
L 191.267792 127.236585 
L 192.242536 128.89016 
L 193.217281 130.117739 
L 194.029568 130.795306 
L 194.679397 131.09972 
L 195.329227 131.184 
L 195.329227 131.184 
" style="fill:none;stroke:#abdda4;stroke-linecap:square;"/>
   </g>
   <g id="line2d_11">
    <path clip-path="url(#pa65ddd0404)" d="M 33.018121 131.184 
L 33.83057 131.135434 
L 34.643019 130.890952 
L 35.617957 130.355897 
L 36.592896 129.57682 
L 37.730324 128.387204 
L 39.030242 126.697906 
L 40.49265 124.434909 
L 42.117548 121.520473 
L 43.904935 117.860169 
L 46.342282 112.289484 
L 51.216974 100.43447 
L 55.279218 90.744136 
L 57.554075 85.840738 
L 59.828932 81.486647 
L 61.941299 77.903371 
L 63.728686 75.26312 
L 65.353584 73.218578 
L 66.978481 71.523423 
L 68.440889 70.301528 
L 69.903297 69.372787 
L 71.203215 68.797852 
L 72.503133 68.464279 
L 73.803051 68.37809 
L 75.102969 68.542229 
L 76.402888 68.951874 
L 77.702806 69.601056 
L 79.002724 70.484964 
L 80.465132 71.755196 
L 81.92754 73.312555 
L 83.552437 75.374415 
L 85.339825 78.032463 
L 87.289702 81.340654 
L 89.402069 85.348601 
L 91.514436 89.829924 
L 94.276761 96.27842 
L 103.538678 118.3858 
L 105.488555 122.284874 
L 107.275942 125.356263 
L 108.90084 127.697398 
L 110.200758 129.192682 
L 111.338187 130.171756 
L 112.313125 130.748475 
L 113.288064 131.084747 
L 114.263002 131.183182 
L 115.237941 131.045288 
L 116.212879 130.669124 
L 117.187818 130.052076 
L 118.325246 129.026611 
L 119.462675 127.697398 
L 120.925083 125.610795 
L 122.54998 122.879828 
L 124.337368 119.412324 
L 126.449734 114.762846 
L 130.024509 106.215979 
L 136.849079 89.829924 
L 139.123936 85.024047 
L 141.398793 80.762895 
L 143.51116 77.269264 
L 145.298547 74.719545 
L 146.923445 72.761809 
L 148.548342 71.154911 
L 150.01075 70.013909 
L 151.473158 69.167554 
L 152.773076 68.6674 
L 154.072994 68.410489 
L 155.372912 68.402646 
L 156.67283 68.644154 
L 157.972748 69.129282 
L 159.272666 69.852243 
L 160.735074 70.94451 
L 162.197482 72.326967 
L 163.82238 74.197536 
L 165.447277 76.414368 
L 167.234665 79.227086 
L 169.347032 82.981603 
L 171.459399 87.184875 
L 173.734255 92.235335 
L 177.14654 100.43447 
L 183.321151 115.322058 
L 185.596008 120.242499 
L 187.383395 123.603605 
L 189.008293 126.226076 
L 190.470701 128.194379 
L 191.770619 129.57682 
L 192.908047 130.46258 
L 193.882986 130.954944 
L 194.857924 131.179044 
L 195.345394 131.184 
L 195.345394 131.184 
" style="fill:none;stroke:#3288bc;stroke-linecap:square;"/>
   </g>
   <g id="line2d_12">
    <path clip-path="url(#pa65ddd0404)" d="M 33.348054 131.184 
L 34.480859 130.901512 
L 35.775493 130.334286 
L 37.070127 129.510008 
L 38.52659 128.304357 
L 40.468541 126.374642 
L 42.248662 124.331239 
L 44.028784 121.941485 
L 49.692807 113.789218 
L 53.091221 108.827031 
L 55.033172 106.260524 
L 59.240732 101.228607 
L 63.286463 97.518314 
L 64.419268 96.563041 
L 65.390243 95.799347 
L 66.199389 95.491018 
L 67.332194 95.100563 
L 69.112315 94.307654 
L 72.510729 93.623356 
L 75.099997 93.827868 
L 76.394631 94.275332 
L 79.145728 95.447935 
L 81.249508 96.7299 
L 83.353288 98.298662 
L 84.809751 99.59956 
L 88.855482 103.926169 
L 91.768408 107.687247 
L 96.461456 114.40665 
L 102.287309 122.763551 
L 104.876576 125.863267 
L 106.818527 127.895872 
L 108.43682 129.30761 
L 109.731453 130.170206 
L 111.026087 130.771248 
L 112.48255 131.19243 
L 113.615355 131.317834 
L 114.74816 131.224572 
L 116.204623 130.867344 
L 117.337427 130.374454 
L 118.632061 129.562017 
L 120.088524 128.370095 
L 122.030475 126.451047 
L 123.810597 124.420647 
L 125.590718 122.042902 
L 131.416571 113.653169 
L 134.653156 108.929484 
L 136.595106 106.349272 
L 140.964496 101.143046 
L 145.010227 97.452735 
L 146.143031 96.481195 
L 147.114007 95.751322 
L 147.923153 95.467067 
L 149.055958 95.055188 
L 150.67425 94.325446 
L 154.072664 93.620966 
L 156.661932 93.811289 
L 157.794736 94.183787 
L 160.869492 95.497429 
L 162.973272 96.790973 
L 165.077052 98.370712 
L 166.533515 99.691541 
L 170.579246 104.037179 
L 173.492172 107.81211 
L 178.18522 114.538426 
L 183.849243 122.671905 
L 186.438511 125.781522 
L 188.380462 127.826474 
L 189.998754 129.251983 
L 191.293388 130.128267 
L 192.588022 130.747087 
L 193.882656 131.133991 
L 195.01546 131.310842 
L 195.01546 131.310842 
" style="fill:none;stroke:#d43e4e;stroke-linecap:square;"/>
   </g>
   <g id="line2d_13">
    <path clip-path="url(#pa65ddd0404)" d="M 24.901757 83.723998 
L 203.461757 83.723998 
" style="fill:none;stroke:#abdda4;stroke-dasharray:2.59,1.12;stroke-dashoffset:0;stroke-width:0.7;"/>
   </g>
   <g id="line2d_14">
    <path clip-path="url(#pa65ddd0404)" d="M 24.901757 97.166691 
L 203.461757 97.166691 
" style="fill:none;stroke:#3288bc;stroke-dasharray:2.59,1.12;stroke-dashoffset:0;stroke-width:0.7;"/>
   </g>
   <g id="line2d_15">
    <path clip-path="url(#pa65ddd0404)" d="M 24.901757 104.864616 
L 203.461757 104.864616 
" style="fill:none;stroke:#d43e4e;stroke-dasharray:2.59,1.12;stroke-dashoffset:0;stroke-width:0.7;"/>
   </g>
   <g id="patch_3">
    <path d="M 24.901757 131.184 
L 24.901757 0.72 
" style="fill:none;stroke:#000000;stroke-linecap:square;stroke-linejoin:miter;stroke-width:0.5;"/>
   </g>
   <g id="patch_4">
    <path d="M 203.461757 131.184 
L 203.461757 0.72 
" style="fill:none;stroke:#000000;stroke-linecap:square;stroke-linejoin:miter;stroke-width:0.5;"/>
   </g>
   <g id="patch_5">
    <path d="M 24.901757 131.184 
L 203.461757 131.184 
" style="fill:none;stroke:#000000;stroke-linecap:square;stroke-linejoin:miter;stroke-width:0.5;"/>
   </g>
   <g id="patch_6">
    <path d="M 24.901757 0.72 
L 203.461757 0.72 
" style="fill:none;stroke:#000000;stroke-linecap:square;stroke-linejoin:miter;stroke-width:0.5;"/>
   </g>
   <g id="legend_1">
    <g id="line2d_16">
     <path d="M 96.525999 10.09125 
L 107.771499 10.09125 
" style="fill:none;stroke:#abdda4;stroke-linecap:square;"/>
    </g>
    <g id="line2d_17"/>
    <g id="text_12">
     <!-- MP2 -->
     <g transform="translate(111.519999 12.7152)scale(0.07497 -0.07497)">
      <defs>
       <path d="M 20.90625 66.390625 
C 20.296875 67.890625 20.203125 68 18.09375 68 
L 5.296875 68 
L 5.296875 65.390625 
C 12.203125 65.390625 13.296875 65.390625 13.296875 60.90625 
L 13.296875 9.75 
C 13.296875 7.265625 13.296875 2.59375 5.296875 2.59375 
L 5.296875 0 
C 7.59375 0.1875 11.796875 0.1875 14.296875 0.1875 
C 16.796875 0.1875 21 0.1875 23.296875 0 
L 23.296875 2.59375 
C 15.296875 2.59375 15.296875 7.265625 15.296875 9.75 
L 15.296875 64.984375 
L 15.40625 64.984375 
L 38.90625 1.59375 
C 39.296875 0.59375 39.5 0 40.296875 0 
C 41.09375 0 41.296875 0.59375 41.703125 1.59375 
L 65.40625 65.484375 
L 65.5 65.484375 
L 65.5 7.078125 
C 65.5 2.59375 64.40625 2.59375 57.5 2.59375 
L 57.5 0 
C 60.203125 0.1875 65.59375 0.1875 68.5 0.1875 
C 71.40625 0.1875 76.90625 0.1875 79.59375 0 
L 79.59375 2.59375 
C 72.703125 2.59375 71.59375 2.59375 71.59375 7.078125 
L 71.59375 60.90625 
C 71.59375 65.390625 72.703125 65.390625 79.59375 65.390625 
L 79.59375 68 
L 66.90625 68 
C 64.796875 68 64.703125 67.890625 64.09375 66.390625 
L 42.5 8.0625 
z
" id="CMR17-77"/>
       <path d="M 19.796875 32 
L 35.796875 32 
C 48.703125 32 58.09375 40.359375 58.09375 49.796875 
C 58.09375 59.234375 48.90625 68 35.796875 68 
L 5.203125 68 
L 5.203125 65.390625 
C 12.09375 65.390625 13.203125 65.390625 13.203125 60.921875 
L 13.203125 7.078125 
C 13.203125 2.59375 12.09375 2.59375 5.203125 2.59375 
L 5.203125 0 
C 8.09375 0.1875 13.40625 0.1875 16.5 0.1875 
C 19.59375 0.1875 24.90625 0.1875 27.796875 0 
L 27.796875 2.59375 
C 20.90625 2.59375 19.796875 2.59375 19.796875 7.078125 
z
M 19.59375 34.09375 
L 19.59375 61.515625 
C 19.59375 64.890625 19.796875 65.390625 23.796875 65.390625 
L 33.90625 65.390625 
C 46.796875 65.390625 50.5 58.046875 50.5 49.796875 
C 50.5 40.75 46.09375 34.09375 33.90625 34.09375 
z
" id="CMR17-80"/>
      </defs>
      <use transform="scale(0.996264)" xlink:href="#CMR17-77"/>
      <use transform="translate(84.686941 0)scale(0.996264)" xlink:href="#CMR17-80"/>
      <use transform="translate(147.273241 0)scale(0.996264)" xlink:href="#CMR17-50"/>
     </g>
    </g>
    <g id="line2d_18">
     <path d="M 96.525999 18.668287 
L 107.771499 18.668287 
" style="fill:none;stroke:#3288bc;stroke-linecap:square;"/>
    </g>
    <g id="line2d_19"/>
    <g id="text_13">
     <!-- DFT -->
     <g transform="translate(111.519999 21.292237)scale(0.07497 -0.07497)">
      <defs>
       <path d="M 5.203125 68 
L 5.203125 65.390625 
C 12.09375 65.390625 13.203125 65.390625 13.203125 60.90625 
L 13.203125 7.078125 
C 13.203125 2.59375 12.09375 2.59375 5.203125 2.59375 
L 5.203125 0 
L 37 0 
C 53.09375 0 66 14.734375 66 33.4375 
C 66 52.25 53.296875 68 37 68 
z
M 23.796875 2.59375 
C 19.796875 2.59375 19.59375 3.09375 19.59375 6.46875 
L 19.59375 61.5 
C 19.59375 64.890625 19.796875 65.390625 23.796875 65.390625 
L 35 65.390625 
C 43.296875 65.390625 58.59375 60.515625 58.59375 33.4375 
C 58.59375 19.40625 54.5 13.734375 52.59375 11.046875 
C 50.203125 7.96875 44.5 2.59375 35 2.59375 
z
" id="CMR17-68"/>
       <path d="M 54.40625 67.796875 
L 5.09375 67.796875 
L 5.09375 65.1875 
C 12 65.1875 13.09375 65.1875 13.09375 60.671875 
L 13.09375 7.03125 
C 13.09375 2.59375 12 2.59375 5.09375 2.59375 
L 5.09375 0 
C 8 0.1875 13.59375 0.1875 16.703125 0.1875 
C 20.796875 0.1875 25.59375 0.1875 29.703125 0 
L 29.703125 2.59375 
L 27.5 2.59375 
C 19.90625 2.59375 19.703125 3.578125 19.703125 7.125 
L 19.703125 32.390625 
L 28.703125 32.390625 
C 38 32.390625 38.90625 29.140625 38.90625 20.84375 
L 40.703125 20.84375 
L 40.703125 46.734375 
L 38.90625 46.734375 
C 38.90625 38.296875 38 35 28.703125 35 
L 19.703125 35 
L 19.703125 61.28125 
C 19.703125 64.6875 19.90625 65.1875 23.90625 65.1875 
L 36.796875 65.1875 
C 51.90625 65.1875 53.59375 58.96875 55 45.625 
L 56.796875 45.625 
z
" id="CMR17-70"/>
       <path d="M 62.203125 67.6875 
L 4.5 67.6875 
L 2.796875 45.6875 
L 4.59375 45.6875 
C 5.90625 62.203125 7.296875 65.09375 22.703125 65.09375 
C 24.5 65.09375 27.40625 65.09375 28.203125 64.984375 
C 30.09375 64.6875 30.09375 63.5 30.09375 61.203125 
L 30.09375 7.265625 
C 30.09375 3.6875 29.796875 2.59375 21.5 2.59375 
L 18.703125 2.59375 
L 18.703125 0 
C 23.5 0.09375 28.5 0.1875 33.40625 0.1875 
C 38.296875 0.1875 43.296875 0.09375 48.09375 0 
L 48.09375 2.59375 
L 45.296875 2.59375 
C 37 2.59375 36.703125 3.6875 36.703125 7.265625 
L 36.703125 61.203125 
C 36.703125 63.390625 36.703125 64.59375 38.5 64.984375 
C 39.296875 65.09375 42.203125 65.09375 44 65.09375 
C 59.296875 65.09375 60.796875 62.203125 62.09375 45.6875 
L 63.90625 45.6875 
z
" id="CMR17-84"/>
      </defs>
      <use transform="scale(0.996264)" xlink:href="#CMR17-68"/>
      <use transform="translate(70.393556 0)scale(0.996264)" xlink:href="#CMR17-70"/>
      <use transform="translate(130.377402 0)scale(0.996264)" xlink:href="#CMR17-84"/>
     </g>
    </g>
    <g id="line2d_20">
     <path d="M 96.525999 27.245323 
L 107.771499 27.245323 
" style="fill:none;stroke:#d43e4e;stroke-linecap:square;"/>
    </g>
    <g id="line2d_21"/>
    <g id="text_14">
     <!-- QMC -->
     <g transform="translate(111.519999 29.869273)scale(0.07497 -0.07497)">
      <defs>
       <path d="M 47.296875 0.484375 
C 59.203125 5.546875 67.296875 18.546875 67.296875 33.703125 
C 67.296875 54.4375 52.59375 70 36 70 
C 19 70 4.59375 54.234375 4.59375 33.703125 
C 4.59375 13.484375 19 -2 36 -2 
C 38.296875 -2 41.5 -1.703125 45.296875 -0.40625 
C 47 -12.703125 48.09375 -20 56.703125 -20 
C 67.296875 -20 67.796875 -4.328125 67.796875 -1.5 
C 67.796875 -0.5 67.796875 0.1875 67.09375 0.1875 
C 66.59375 0.1875 66.5 -0.5 66.5 -0.703125 
C 65.796875 -10.390625 60.40625 -12.40625 57.203125 -12.40625 
C 51.296875 -12.40625 49.203125 -7.0625 47.296875 0.484375 
z
M 30.59375 0.59375 
C 20.203125 3.859375 12 14.90625 12 33.703125 
C 12 57.78125 25.09375 68.1875 35.90625 68.1875 
C 47.09375 68.1875 59.90625 57.375 59.90625 33.703125 
C 59.90625 16.625 53.203125 7.234375 46.5 2.96875 
C 45 8.03125 42.59375 14 36.09375 14 
C 31.296875 14 28.59375 9.8125 28.59375 6.046875 
C 28.59375 3.765625 29.5 1.875 30.59375 0.59375 
z
M 44.90625 2.078125 
C 40.90625 -0.015625 37.703125 -0.203125 36 -0.203125 
C 31.5 -0.203125 30.203125 3.859375 30.203125 6.046875 
C 30.203125 9.125 32.296875 12.390625 36.09375 12.390625 
C 42.5 12.390625 44.09375 6.734375 44.90625 2.078125 
z
" id="CMR17-81"/>
       <path d="M 62.09375 67.984375 
C 62.09375 69.796875 62 69.890625 61.40625 69.890625 
C 61 69.890625 60.90625 69.796875 60.203125 68.59375 
L 55.796875 60.140625 
C 50.90625 66.390625 44.90625 70 37.203125 70 
C 20.09375 70 4.59375 54.796875 4.59375 34.046875 
C 4.59375 13.078125 20.09375 -2 37.296875 -2 
C 52.59375 -2 62.09375 11.578125 62.09375 23.15625 
C 62.09375 24.171875 62.09375 24.578125 61.203125 24.578125 
C 60.40625 24.578125 60.40625 24.265625 60.296875 23.359375 
C 59.5 9.25 49.5 0.59375 38.703125 0.59375 
C 28.5 0.59375 12.203125 7.84375 12.203125 34.046875 
C 12.203125 60.34375 28.796875 67.390625 38.5 67.390625 
C 49.796875 67.390625 58 57.515625 59.90625 43.515625 
C 60.09375 42.296875 60.09375 42.109375 61 42.109375 
C 62.09375 42.109375 62.09375 42.296875 62.09375 44.125 
z
" id="CMR17-67"/>
      </defs>
      <use transform="scale(0.996264)" xlink:href="#CMR17-81"/>
      <use transform="translate(71.714788 0)scale(0.996264)" xlink:href="#CMR17-77"/>
      <use transform="translate(156.401729 0)scale(0.996264)" xlink:href="#CMR17-67"/>
     </g>
    </g>
   </g>
  </g>
 </g>
 <defs>
  <clipPath id="pa65ddd0404">
   <rect height="130.464" width="178.56" x="24.901757" y="0.72"/>
  </clipPath>
 </defs>
</svg>
