<?xml version="1.0" encoding="utf-8" standalone="no"?>
<!DOCTYPE svg PUBLIC "-//W3C//DTD SVG 1.1//EN"
  "http://www.w3.org/Graphics/SVG/1.1/DTD/svg11.dtd">
<!-- Created with matplotlib (https://matplotlib.org/) -->
<svg height="140.043744pt" version="1.1" viewBox="0 0 215.559377 140.043744" width="215.559377pt" xmlns="http://www.w3.org/2000/svg" xmlns:xlink="http://www.w3.org/1999/xlink">
 <metadata>
  <rdf:RDF xmlns:cc="http://creativecommons.org/ns#" xmlns:dc="http://purl.org/dc/elements/1.1/" xmlns:rdf="http://www.w3.org/1999/02/22-rdf-syntax-ns#">
   <cc:Work>
    <dc:type rdf:resource="http://purl.org/dc/dcmitype/StillImage"/>
    <dc:date>2021-02-21T15:31:20.175708</dc:date>
    <dc:format>image/svg+xml</dc:format>
    <dc:creator>
     <cc:Agent>
      <dc:title>Matplotlib v3.3.2, https://matplotlib.org/</dc:title>
     </cc:Agent>
    </dc:creator>
   </cc:Work>
  </rdf:RDF>
 </metadata>
 <defs>
  <style type="text/css">*{stroke-linecap:butt;stroke-linejoin:round;}</style>
 </defs>
 <g id="figure_1">
  <g id="patch_1">
   <path d="M 0 140.043744 
L 215.559377 140.043744 
L 215.559377 0 
L 0 0 
z
" style="fill:none;"/>
  </g>
  <g id="axes_1">
   <g id="patch_2">
    <path d="M 24.901757 115.078763 
L 214.839377 115.078763 
L 214.839377 0.72 
L 24.901757 0.72 
z
" style="fill:none;"/>
   </g>
   <g id="matplotlib.axis_1">
    <g id="xtick_1">
     <g id="line2d_1">
      <defs>
       <path d="M 0 0 
L 0 2 
" id="mc1e1f0e7eb" style="stroke:#000000;stroke-width:0.5;"/>
      </defs>
      <g>
       <use style="stroke:#000000;stroke-width:0.5;" x="49.679281" xlink:href="#mc1e1f0e7eb" y="115.078763"/>
      </g>
     </g>
     <g id="text_1">
      <!-- $\mathdefault{−2}$ -->
      <g transform="translate(43.791677 125.305413)scale(0.09 -0.09)">
       <defs>
        <path d="M 65.90625 23 
C 67.59375 23 69.40625 23 69.40625 25 
C 69.40625 27 67.59375 27 65.90625 27 
L 11.796875 27 
C 10.09375 27 8.296875 27 8.296875 25 
C 8.296875 23 10.09375 23 11.796875 23 
z
" id="CMSY10-0"/>
        <path d="M 41.703125 15.46875 
L 39.90625 15.46875 
C 38.90625 8.390625 38.09375 7.1875 37.703125 6.59375 
C 37.203125 5.796875 30 5.796875 28.59375 5.796875 
L 9.40625 5.796875 
C 13 9.6875 20 16.765625 28.5 24.9375 
C 34.59375 30.71875 41.703125 37.5 41.703125 47.390625 
C 41.703125 59.1875 32.296875 66 21.796875 66 
C 10.796875 66 4.09375 56.296875 4.09375 47.296875 
C 4.09375 43.390625 7 42.890625 8.203125 42.890625 
C 9.203125 42.890625 12.203125 43.484375 12.203125 46.984375 
C 12.203125 50.09375 9.59375 51 8.203125 51 
C 7.59375 51 7 50.890625 6.59375 50.6875 
C 8.5 59.1875 14.296875 63.390625 20.40625 63.390625 
C 29.09375 63.390625 34.796875 56.5 34.796875 47.390625 
C 34.796875 38.703125 29.703125 31.21875 24 24.734375 
L 4.09375 2.296875 
L 4.09375 0 
L 39.296875 0 
z
" id="CMR17-50"/>
       </defs>
       <use transform="scale(0.996264)" xlink:href="#CMSY10-0"/>
       <use transform="translate(77.487468 0)scale(0.996264)" xlink:href="#CMR17-50"/>
      </g>
     </g>
    </g>
    <g id="xtick_2">
     <g id="line2d_2">
      <g>
       <use style="stroke:#000000;stroke-width:0.5;" x="84.774924" xlink:href="#mc1e1f0e7eb" y="115.078763"/>
      </g>
     </g>
     <g id="text_2">
      <!-- $\mathdefault{−1}$ -->
      <g transform="translate(78.88732 125.305413)scale(0.09 -0.09)">
       <defs>
        <path d="M 26.59375 63.796875 
C 26.59375 65.890625 26.5 66 25.09375 66 
C 21.203125 61.359375 15.296875 59.890625 9.703125 59.6875 
C 9.40625 59.6875 8.90625 59.6875 8.796875 59.5 
C 8.703125 59.296875 8.703125 59.09375 8.703125 57 
C 11.796875 57 17 57.59375 21 59.984375 
L 21 7.296875 
C 21 3.796875 20.796875 2.59375 12.203125 2.59375 
L 9.203125 2.59375 
L 9.203125 0 
C 14 0.09375 19 0.1875 23.796875 0.1875 
C 28.59375 0.1875 33.59375 0.09375 38.40625 0 
L 38.40625 2.59375 
L 35.40625 2.59375 
C 26.796875 2.59375 26.59375 3.6875 26.59375 7.296875 
z
" id="CMR17-49"/>
       </defs>
       <use transform="scale(0.996264)" xlink:href="#CMSY10-0"/>
       <use transform="translate(77.487468 0)scale(0.996264)" xlink:href="#CMR17-49"/>
      </g>
     </g>
    </g>
    <g id="xtick_3">
     <g id="line2d_3">
      <g>
       <use style="stroke:#000000;stroke-width:0.5;" x="119.870567" xlink:href="#mc1e1f0e7eb" y="115.078763"/>
      </g>
     </g>
     <g id="text_3">
      <!-- $\mathdefault{0}$ -->
      <g transform="translate(117.566722 125.305413)scale(0.09 -0.09)">
       <defs>
        <path d="M 42 31.84375 
C 42 37.96875 41.90625 48.421875 37.703125 56.453125 
C 34 63.484375 28.09375 66 22.90625 66 
C 18.09375 66 12 63.78125 8.203125 56.5625 
C 4.203125 49.015625 3.796875 39.671875 3.796875 31.84375 
C 3.796875 26.109375 3.90625 17.375 7 9.734375 
C 11.296875 -0.609375 19 -2 22.90625 -2 
C 27.5 -2 34.5 -0.109375 38.59375 9.4375 
C 41.59375 16.375 42 24.5 42 31.84375 
z
M 22.90625 -0.40625 
C 16.5 -0.40625 12.703125 5.125 11.296875 12.75 
C 10.203125 18.6875 10.203125 27.328125 10.203125 32.953125 
C 10.203125 40.6875 10.203125 47.109375 11.5 53.234375 
C 13.40625 61.78125 19 64.390625 22.90625 64.390625 
C 27 64.390625 32.296875 61.671875 34.203125 53.4375 
C 35.5 47.71875 35.59375 40.984375 35.59375 32.953125 
C 35.59375 26.421875 35.59375 18.375 34.40625 12.453125 
C 32.296875 1.5 26.40625 -0.40625 22.90625 -0.40625 
z
" id="CMR17-48"/>
       </defs>
       <use transform="scale(0.996264)" xlink:href="#CMR17-48"/>
      </g>
     </g>
    </g>
    <g id="xtick_4">
     <g id="line2d_4">
      <g>
       <use style="stroke:#000000;stroke-width:0.5;" x="154.96621" xlink:href="#mc1e1f0e7eb" y="115.078763"/>
      </g>
     </g>
     <g id="text_4">
      <!-- $\mathdefault{1}$ -->
      <g transform="translate(152.662365 125.305413)scale(0.09 -0.09)">
       <use transform="scale(0.996264)" xlink:href="#CMR17-49"/>
      </g>
     </g>
    </g>
    <g id="xtick_5">
     <g id="line2d_5">
      <g>
       <use style="stroke:#000000;stroke-width:0.5;" x="190.061853" xlink:href="#mc1e1f0e7eb" y="115.078763"/>
      </g>
     </g>
     <g id="text_5">
      <!-- $\mathdefault{2}$ -->
      <g transform="translate(187.758008 125.305413)scale(0.09 -0.09)">
       <use transform="scale(0.996264)" xlink:href="#CMR17-50"/>
      </g>
     </g>
    </g>
    <g id="text_6">
     <!-- $\alabel{x}{\angstrom}$ -->
     <g transform="translate(106.38027 137.08215)scale(0.09 -0.09)">
      <defs>
       <path d="M 47.40625 41 
C 44.203125 40.390625 43 37.984375 43 36.09375 
C 43 33.6875 44.90625 32.890625 46.296875 32.890625 
C 49.296875 32.890625 51.40625 35.484375 51.40625 38.1875 
C 51.40625 42.09375 46.59375 44 42.40625 44 
C 36.296875 44 32.90625 38.296875 32 36.390625 
C 29.703125 43.59375 23.5 44 21.703125 44 
C 11.5 44 6.09375 31.140625 6.09375 28.890625 
C 6.09375 28.484375 6.5 27.96875 7.203125 27.96875 
C 8 27.96875 8.203125 28.578125 8.40625 28.984375 
C 11.796875 40.1875 18.5 41.984375 21.40625 41.984375 
C 25.90625 41.984375 26.796875 38.09375 26.796875 35.6875 
C 26.796875 33.484375 26.203125 31.140625 25 26.21875 
L 21.59375 12.15625 
C 20.09375 6.09375 17.203125 1 11.90625 1 
C 11.40625 1 8.90625 1 6.796875 1.96875 
C 10.40625 2.59375 11.203125 5.59375 11.203125 6.796875 
C 11.203125 8.796875 9.703125 10 7.796875 10 
C 5.40625 10 2.796875 7.890625 2.796875 4.6875 
C 2.796875 0.890625 7.5 -1 11.796875 -1 
C 16.59375 -1 20 2.390625 22.09375 6.484375 
C 23.703125 1 28.703125 -1 32.40625 -1 
C 42.59375 -1 48 11.734375 48 14 
C 48 14.515625 47.59375 14.921875 47 14.921875 
C 46.09375 14.921875 46 14.40625 45.703125 13.59375 
C 43 4.6875 37.203125 1 32.703125 1 
C 29.203125 1 27.296875 3.1875 27.296875 7.296875 
C 27.296875 9.484375 27.703125 11.125 29.296875 17.90625 
L 32.796875 31.859375 
C 34.296875 37.890625 37.703125 41.984375 42.296875 41.984375 
C 42.5 41.984375 45.296875 41.984375 47.40625 41 
z
" id="CMMI12-120"/>
       <path d="M 42.90625 71.296875 
C 42.90625 71.390625 43.5 72.890625 43.5 73.09375 
C 43.5 74.296875 42.5 75 41.703125 75 
C 41.203125 75 40.296875 75 39.5 72.796875 
L 6 -21.3125 
C 6 -21.40625 5.40625 -22.90625 5.40625 -23.109375 
C 5.40625 -24.3125 6.40625 -25 7.203125 -25 
C 7.796875 -25 8.703125 -24.90625 9.40625 -22.8125 
z
" id="CMMI12-61"/>
       <path d="M 32.59375 64 
C 29 63.328125 25.40625 60.875 25.40625 56.453125 
L 25.40625 55.78125 
C 25.90625 51.921875 29.5 49 33.59375 49 
C 37.703125 49 41.703125 52.484375 41.703125 56.546875 
L 41.703125 57.296875 
C 41.203125 61.890625 37.59375 65 33.5 65 
C 33.203125 64.09375 32.90625 64 32.59375 64 
z
M 26.703125 55.78125 
L 26.703125 56.453125 
C 26.703125 61 30 63.390625 33.703125 63.390625 
C 37.40625 63.390625 39.90625 60.890625 40.40625 57.5 
L 40.40625 56.796875 
C 40.40625 52.390625 37.09375 50 33.40625 50 
C 29.703125 50 27.203125 52.5 26.703125 55.890625 
z
" id="Computer_Modern_Roman-6"/>
       <path d="M 36.296875 69.390625 
C 35.796875 70.6875 35.59375 71 34.59375 71 
C 33.59375 71 33.40625 70.6875 32.90625 69.390625 
L 11.703125 9.0625 
C 9.796875 3.6875 5.796875 2.59375 2.296875 2.59375 
L 2.296875 0 
C 4.09375 0.1875 8.09375 0.1875 10 0.1875 
C 12.5 0.1875 16.5 0.1875 18.90625 0 
L 18.90625 2.59375 
C 14.203125 2.796875 13.5 5.96875 13.5 7.171875 
C 13.5 8.0625 13.703125 8.5625 13.90625 9.15625 
L 19.203125 24 
L 45.40625 24 
L 51.40625 7.078125 
C 51.90625 5.875 51.90625 5.671875 51.90625 5.28125 
C 51.90625 2.59375 47.59375 2.59375 45.703125 2.59375 
L 45.703125 0 
C 48.59375 0.1875 53.796875 0.1875 56.90625 0.1875 
C 59.5 0.1875 64.5 0.1875 66.90625 0 
L 66.90625 2.59375 
C 61.59375 2.59375 59.796875 2.59375 58.5 6.28125 
z
M 32.296875 61.3125 
L 44.5 26.59375 
L 20.09375 26.59375 
z
" id="CMR17-65"/>
      </defs>
      <use transform="scale(0.996264)" xlink:href="#CMMI12-120"/>
      <use transform="translate(110.782077 0)scale(0.996264)" xlink:href="#CMMI12-61"/>
      <use transform="translate(216.020733 25.192287)scale(0.996264)" xlink:href="#Computer_Modern_Roman-6"/>
      <use transform="translate(214.905013 0)scale(0.996264)" xlink:href="#CMR17-65"/>
     </g>
    </g>
   </g>
   <g id="matplotlib.axis_2">
    <g id="ytick_1">
     <g id="line2d_6">
      <defs>
       <path d="M 0 0 
L -2 0 
" id="m1a7c55fd41" style="stroke:#000000;stroke-width:0.5;"/>
      </defs>
      <g>
       <use style="stroke:#000000;stroke-width:0.5;" x="24.901757" xlink:href="#m1a7c55fd41" y="115.078763"/>
      </g>
     </g>
     <g id="text_7">
      <!-- $\mathdefault{0}$ -->
      <g transform="translate(16.294067 118.192088)scale(0.09 -0.09)">
       <use transform="scale(0.996264)" xlink:href="#CMR17-48"/>
      </g>
     </g>
    </g>
    <g id="ytick_2">
     <g id="line2d_7">
      <g>
       <use style="stroke:#000000;stroke-width:0.5;" x="24.901757" xlink:href="#m1a7c55fd41" y="84.583093"/>
      </g>
     </g>
     <g id="text_8">
      <!-- $\mathdefault{20}$ -->
      <g transform="translate(11.686376 87.696418)scale(0.09 -0.09)">
       <use transform="scale(0.996264)" xlink:href="#CMR17-50"/>
       <use transform="translate(45.690477 0)scale(0.996264)" xlink:href="#CMR17-48"/>
      </g>
     </g>
    </g>
    <g id="ytick_3">
     <g id="line2d_8">
      <g>
       <use style="stroke:#000000;stroke-width:0.5;" x="24.901757" xlink:href="#m1a7c55fd41" y="54.087423"/>
      </g>
     </g>
     <g id="text_9">
      <!-- $\mathdefault{40}$ -->
      <g transform="translate(11.686376 57.200748)scale(0.09 -0.09)">
       <defs>
        <path d="M 33.59375 64.796875 
C 33.59375 66.890625 33.5 67 31.703125 67 
L 2 19.59375 
L 2 17 
L 27.796875 17 
L 27.796875 7.1875 
C 27.796875 3.59375 27.59375 2.59375 20.59375 2.59375 
L 18.703125 2.59375 
L 18.703125 0 
C 21.90625 0.1875 27.296875 0.1875 30.703125 0.1875 
C 34.09375 0.1875 39.5 0.1875 42.703125 0 
L 42.703125 2.59375 
L 40.796875 2.59375 
C 33.796875 2.59375 33.59375 3.59375 33.59375 7.1875 
L 33.59375 17 
L 43.796875 17 
L 43.796875 19.59375 
L 33.59375 19.59375 
z
M 28.09375 58.171875 
L 28.09375 19.59375 
L 4 19.59375 
z
" id="CMR17-52"/>
       </defs>
       <use transform="scale(0.996264)" xlink:href="#CMR17-52"/>
       <use transform="translate(45.690477 0)scale(0.996264)" xlink:href="#CMR17-48"/>
      </g>
     </g>
    </g>
    <g id="ytick_4">
     <g id="line2d_9">
      <g>
       <use style="stroke:#000000;stroke-width:0.5;" x="24.901757" xlink:href="#m1a7c55fd41" y="23.591753"/>
      </g>
     </g>
     <g id="text_10">
      <!-- $\mathdefault{60}$ -->
      <g transform="translate(11.686376 26.705078)scale(0.09 -0.09)">
       <defs>
        <path d="M 10.59375 34.34375 
C 10.59375 58 21.796875 63.6875 28.296875 63.6875 
C 30.40625 63.6875 35.5 63.265625 37.5 59.09375 
C 35.90625 59.09375 32.90625 59.09375 32.90625 55.59375 
C 32.90625 52.890625 35.09375 52 36.5 52 
C 37.40625 52 40.09375 52.390625 40.09375 55.796875 
C 40.09375 62.296875 35.09375 66 28.203125 66 
C 16.296875 66 3.796875 53.296875 3.796875 31.421875 
C 3.796875 4.015625 15.09375 -2 23.09375 -2 
C 32.796875 -2 42 6.734375 42 20.234375 
C 42 32.828125 33.90625 42 23.703125 42 
C 17.59375 42 13.09375 37.96875 10.59375 30.921875 
z
M 23.09375 0.390625 
C 10.796875 0.390625 10.796875 18.9375 10.796875 22.65625 
C 10.796875 29.90625 14.203125 40.390625 23.5 40.390625 
C 25.203125 40.390625 30.09375 40.390625 33.40625 33.4375 
C 35.203125 29.515625 35.203125 25.375 35.203125 20.34375 
C 35.203125 14.90625 35.203125 10.875 33.09375 6.84375 
C 30.90625 2.703125 27.703125 0.390625 23.09375 0.390625 
z
" id="CMR17-54"/>
       </defs>
       <use transform="scale(0.996264)" xlink:href="#CMR17-54"/>
       <use transform="translate(45.690477 0)scale(0.996264)" xlink:href="#CMR17-48"/>
      </g>
     </g>
    </g>
    <g id="text_11">
     <!-- $\alabel{\mathcal{V}_{\rm He-\graphene}}{\kelvin}$ -->
     <g transform="translate(7.444782 81.936957)rotate(-90)scale(0.09 -0.09)">
      <defs>
       <path d="M 27 8.875 
C 28.5 21.046875 28.5 29.953125 28.5 31.4375 
C 28.5 38.453125 28.5 68 10.296875 68 
C 6.90625 68 3.40625 65.1875 3.40625 63.796875 
C 3.40625 63.09375 3.90625 63.09375 5.296875 63 
C 19.90625 61.703125 21.09375 39.046875 21.09375 27.875 
C 21.09375 17.875 19.796875 6 18.59375 -0.625 
C 18.40625 -1.8125 18.40625 -2 18.40625 -2.40625 
C 18.40625 -2.90625 18.40625 -4.109375 19.09375 -4.109375 
C 20.203125 -4.109375 44.40625 14.21875 57.09375 33.3125 
C 62.203125 41.03125 66 49.828125 66 56.46875 
C 66 64.890625 60.40625 68 56.296875 68 
C 53.40625 68 52 61.703125 52 60.421875 
C 52 58.9375 52.5 58.9375 53.703125 58.84375 
C 60.40625 58.046875 61.59375 52.796875 61.59375 50.421875 
C 61.59375 42.421875 44.203125 22.140625 27 8.875 
z
" id="CMSY10-86"/>
       <path d="M 56.09375 60.90625 
C 56.09375 65.390625 57.203125 65.390625 64.09375 65.390625 
L 64.09375 68 
C 61.203125 67.796875 55.90625 67.796875 52.796875 67.796875 
C 49.703125 67.796875 44.40625 67.796875 41.5 68 
L 41.5 65.390625 
C 48.40625 65.390625 49.5 65.390625 49.5 60.90625 
L 49.5 36.59375 
L 19.703125 36.59375 
L 19.703125 60.90625 
C 19.703125 65.390625 20.796875 65.390625 27.703125 65.390625 
L 27.703125 68 
C 24.796875 67.796875 19.5 67.796875 16.40625 67.796875 
C 13.296875 67.796875 8 67.796875 5.09375 68 
L 5.09375 65.390625 
C 12 65.390625 13.09375 65.390625 13.09375 60.90625 
L 13.09375 7.0625 
C 13.09375 2.59375 12 2.59375 5.09375 2.59375 
L 5.09375 0 
C 8 0.1875 13.296875 0.1875 16.40625 0.1875 
C 19.5 0.1875 24.796875 0.1875 27.703125 0 
L 27.703125 2.59375 
C 20.796875 2.59375 19.703125 2.59375 19.703125 7.0625 
L 19.703125 34 
L 49.5 34 
L 49.5 7.0625 
C 49.5 2.59375 48.40625 2.59375 41.5 2.59375 
L 41.5 0 
C 44.40625 0.1875 49.703125 0.1875 52.796875 0.1875 
C 55.90625 0.1875 61.203125 0.1875 64.09375 0 
L 64.09375 2.59375 
C 57.203125 2.59375 56.09375 2.59375 56.09375 7.0625 
z
" id="CMR17-72"/>
       <path d="M 38.09375 23.484375 
C 38.5 23.890625 38.5 24.09375 38.5 25.09375 
C 38.5 35.171875 33.09375 44 21.703125 44 
C 11.09375 44 2.703125 33.984375 2.703125 21.78125 
C 2.703125 8.65625 12.203125 -1 22.796875 -1 
C 34 -1 38.40625 9.671875 38.40625 11.796875 
C 38.40625 12.5 37.796875 12.5 37.59375 12.5 
C 36.90625 12.5 36.796875 12.296875 36.40625 11.078125 
C 34.203125 4.21875 28.703125 0.796875 23.5 0.796875 
C 19.203125 0.796875 14.90625 3.21875 12.203125 7.65625 
C 9.09375 12.796875 9.09375 18.75 9.09375 23.484375 
z
M 9.203125 25 
C 9.90625 39.234375 17.59375 42.390625 21.59375 42.390625 
C 28.40625 42.390625 33 36.0625 33.09375 25 
z
" id="CMR17-101"/>
       <path d="M 63.203125 41.328125 
L 63.203125 35 
L 78.90625 35 
L 62.59375 7 
L 29.703125 7 
L 13.203125 35.09375 
L 29.703125 64 
L 62.59375 64 
L 70.5 50 
L 77.203125 50 
L 66.40625 71 
L 25.90625 71 
L 5.5 35.09375 
L 25.90625 0 
L 66.40625 0 
L 86.796875 35 
L 78.703125 41.328125 
z
" id="SVRsymbols-115"/>
       <path d="M 36.90625 41.703125 
L 54.203125 58.921875 
C 57.796875 62.40625 61.59375 65.1875 67.203125 65.390625 
L 67.203125 68 
C 65.203125 67.890625 62.703125 67.796875 60.703125 67.796875 
C 58 67.796875 53.296875 67.796875 50.703125 68 
L 50.703125 65.390625 
C 53.296875 65.1875 53.703125 63.390625 53.703125 62.703125 
C 53.703125 62 53.296875 60.90625 52.90625 60.3125 
L 19.703125 27.171875 
L 19.703125 60.90625 
C 19.703125 65.390625 20.796875 65.390625 27.703125 65.390625 
L 27.703125 68 
C 24.796875 67.796875 19.5 67.796875 16.40625 67.796875 
C 13.296875 67.796875 8 67.796875 5.09375 68 
L 5.09375 65.390625 
C 12 65.390625 13.09375 65.390625 13.09375 60.90625 
L 13.09375 7.078125 
C 13.09375 2.59375 12 2.59375 5.09375 2.59375 
L 5.09375 0 
C 8 0.1875 13.296875 0.1875 16.40625 0.1875 
C 19.5 0.1875 24.796875 0.1875 27.703125 0 
L 27.703125 2.59375 
C 20.796875 2.59375 19.703125 2.59375 19.703125 7.078125 
L 19.703125 24.6875 
L 32.5 37.328125 
L 51.40625 8.46875 
C 52 7.46875 52.703125 6.171875 52.703125 5.1875 
C 52.703125 2.59375 49.90625 2.59375 48.59375 2.59375 
L 48.59375 0 
C 51.796875 0.1875 56.40625 0.1875 59.703125 0.1875 
C 62.09375 0.1875 66.203125 0.1875 68.5 0 
L 68.5 2.59375 
C 63.703125 2.59375 62.203125 3.1875 59.203125 7.765625 
z
" id="CMR17-75"/>
      </defs>
      <use transform="scale(0.996264)" xlink:href="#CMSY10-86"/>
      <use transform="translate(61.049309 -15.337838)scale(0.697382)" xlink:href="#CMR17-72"/>
      <use transform="translate(109.399794 -15.337838)scale(0.697382)" xlink:href="#CMR17-101"/>
      <use transform="translate(137.739626 -15.337838)scale(0.697382)" xlink:href="#CMSY10-0"/>
      <use transform="translate(191.980619 -15.337838)scale(0.697382)" xlink:href="#SVRsymbols-115"/>
      <use transform="translate(312.195128 0)scale(0.996264)" xlink:href="#CMMI12-61"/>
      <use transform="translate(416.318064 0)scale(0.996264)" xlink:href="#CMR17-75"/>
     </g>
    </g>
   </g>
   <g id="line2d_10">
    <path clip-path="url(#p9a6d85db9e)" d="M 33.552482 115.078763 
L 34.243718 114.995642 
L 34.934954 114.707353 
L 35.798999 114.070868 
L 36.663044 113.142411 
L 37.699898 111.665238 
L 38.909561 109.476043 
L 40.119224 106.82672 
L 41.501695 103.291441 
L 43.229785 98.206956 
L 45.303493 91.308567 
L 47.895628 81.81185 
L 52.388661 64.295854 
L 56.363268 49.134252 
L 58.955402 40.044142 
L 61.201919 32.9312 
L 63.275627 27.118463 
L 65.003717 22.890252 
L 66.731806 19.255425 
L 68.287087 16.507904 
L 69.669559 14.489908 
L 71.052031 12.865489 
L 72.261694 11.760924 
L 73.471357 10.946699 
L 74.681019 10.418064 
L 75.717873 10.188743 
L 76.754727 10.162926 
L 77.791581 10.338907 
L 78.828435 10.719259 
L 80.038098 11.426 
L 81.247761 12.42128 
L 82.457423 13.709774 
L 83.839895 15.544622 
L 85.222367 17.76911 
L 86.777648 20.738475 
L 88.332929 24.188186 
L 90.061019 28.561575 
L 91.961917 33.987864 
L 94.208434 41.137037 
L 96.800569 50.204599 
L 100.256748 63.196992 
L 106.65068 87.392651 
L 109.070006 95.618223 
L 110.970905 101.371718 
L 112.698995 105.907963 
L 114.081467 108.977072 
L 115.291129 111.20239 
L 116.500792 112.956351 
L 117.537646 114.058632 
L 118.401691 114.679283 
L 119.265736 115.016922 
L 119.956972 115.075595 
L 120.648208 114.942343 
L 121.512253 114.510587 
L 122.376298 113.791669 
L 123.240342 112.793622 
L 124.277196 111.238825 
L 125.486859 108.955705 
L 126.869331 105.785014 
L 128.424612 101.590602 
L 130.152702 96.273184 
L 132.226409 89.165605 
L 134.991353 78.837072 
L 144.150229 43.882334 
L 146.569555 35.844187 
L 148.643262 29.687901 
L 150.544161 24.721602 
L 152.272251 20.817133 
L 153.827532 17.819291 
L 155.210004 15.576624 
L 156.592475 13.731664 
L 157.974947 12.276918 
L 159.18461 11.31806 
L 160.394273 10.647127 
L 161.431127 10.29768 
L 162.467981 10.153437 
L 163.504835 10.211586 
L 164.541688 10.472224 
L 165.578542 10.9387 
L 166.788205 11.747767 
L 167.997868 12.847285 
L 169.207531 14.241067 
L 170.590003 16.19722 
L 171.972475 18.544019 
L 173.527755 21.648583 
L 175.255845 25.654527 
L 176.983935 30.220224 
L 179.057643 36.376771 
L 181.304159 43.774529 
L 184.069103 53.697082 
L 188.389328 70.198035 
L 192.709552 86.462863 
L 195.128878 94.780352 
L 197.202585 101.126727 
L 198.930675 105.696648 
L 200.313147 108.797478 
L 201.52281 111.05671 
L 202.732473 112.851788 
L 203.769327 113.99175 
L 204.633372 114.642037 
L 205.497416 115.004887 
L 206.188652 115.078763 
L 206.188652 115.078763 
" style="fill:none;stroke:#abdda4;stroke-linecap:square;"/>
   </g>
   <g id="line2d_11">
    <path clip-path="url(#p9a6d85db9e)" d="M 33.535286 115.078763 
L 34.572346 115.006733 
L 35.609406 114.690446 
L 36.646467 114.148118 
L 37.856371 113.254011 
L 39.239118 111.922903 
L 40.794709 110.082693 
L 42.523143 107.672866 
L 44.42442 104.612195 
L 46.671384 100.519794 
L 50.473939 93.019046 
L 57.560519 78.988915 
L 59.980327 74.758997 
L 62.227291 71.260945 
L 64.474255 68.151068 
L 66.375533 65.86823 
L 68.103967 64.106476 
L 69.832401 62.651486 
L 71.387992 61.608748 
L 72.943582 60.823499 
L 74.499173 60.300786 
L 75.88192 60.062108 
L 77.264668 60.041486 
L 78.647415 60.239658 
L 80.030162 60.651708 
L 81.585753 61.364593 
L 83.141343 62.336279 
L 84.696934 63.562076 
L 86.425368 65.217038 
L 88.153802 67.175153 
L 90.05508 69.655164 
L 92.302044 72.960925 
L 94.549008 76.661321 
L 96.968816 81.103482 
L 100.598527 88.299943 
L 107.166577 101.338069 
L 109.413541 105.343687 
L 111.314819 108.307126 
L 113.043253 110.628591 
L 114.598843 112.38046 
L 115.981591 113.607649 
L 117.191495 114.383544 
L 118.401398 114.870584 
L 119.438459 115.060821 
L 120.475519 115.043574 
L 121.51258 114.81856 
L 122.54964 114.383544 
L 123.759544 113.607649 
L 124.969448 112.552126 
L 126.352195 111.048027 
L 128.080629 108.800339 
L 129.809063 106.19339 
L 131.710341 102.933708 
L 134.302992 98.009164 
L 139.833981 86.904158 
L 143.809379 79.148667 
L 146.229187 74.901553 
L 148.476151 71.38837 
L 150.723116 68.262905 
L 152.624393 65.964279 
L 154.352827 64.18732 
L 156.081261 62.716871 
L 157.636852 61.659966 
L 159.192442 60.860289 
L 160.748033 60.322826 
L 162.13078 60.070689 
L 163.513528 60.036322 
L 164.896275 60.220952 
L 166.279022 60.619789 
L 167.834613 61.318156 
L 169.390203 62.275587 
L 170.945794 63.487385 
L 172.674228 65.12704 
L 174.402662 67.070213 
L 176.30394 69.535714 
L 178.550904 72.826751 
L 180.797868 76.511147 
L 183.217676 80.938148 
L 186.847388 88.125134 
L 193.415437 101.174911 
L 195.835245 105.487944 
L 197.736522 108.434136 
L 199.464956 110.732874 
L 201.020547 112.458198 
L 202.403294 113.669982 
L 203.613198 114.446399 
L 204.650259 114.877983 
L 205.687319 115.074418 
L 206.205849 115.078763 
L 206.205849 115.078763 
" style="fill:none;stroke:#3288bc;stroke-linecap:square;"/>
   </g>
   <g id="line2d_12">
    <path clip-path="url(#p9a6d85db9e)" d="M 33.886242 115.078763 
L 35.263368 114.78144 
L 36.640495 114.255861 
L 38.017621 113.505848 
L 39.739029 112.290702 
L 41.976859 110.402046 
L 43.870408 108.530115 
L 46.624661 105.390794 
L 50.411758 100.888949 
L 56.264545 93.938296 
L 60.912346 89.239095 
L 65.043725 85.974288 
L 66.937274 84.731617 
L 67.970119 84.062198 
L 68.830823 83.791931 
L 70.035808 83.449676 
L 71.929357 82.754648 
L 75.544314 82.154824 
L 78.470707 82.370896 
L 80.364256 82.939732 
L 82.429945 83.677356 
L 84.667775 84.782771 
L 86.905606 86.140355 
L 88.627014 87.39329 
L 92.930533 91.185798 
L 96.201209 94.680135 
L 101.365432 100.788762 
L 107.218219 107.697783 
L 109.972472 110.414852 
L 112.038161 112.19654 
L 113.93171 113.541193 
L 115.308836 114.268296 
L 116.685963 114.768317 
L 118.23523 115.113317 
L 119.440215 115.19518 
L 120.817342 115.063772 
L 122.366609 114.696751 
L 123.743735 114.128216 
L 125.293002 113.221759 
L 127.01441 111.941611 
L 129.252241 109.994373 
L 131.145789 108.048651 
L 135.277168 103.256557 
L 143.367785 93.66078 
L 148.187728 88.88189 
L 152.491247 85.614509 
L 153.696233 84.789649 
L 154.901218 84.020101 
L 155.934063 83.733518 
L 156.966908 83.409902 
L 158.688316 82.770243 
L 162.303272 82.152729 
L 165.229666 82.353815 
L 166.951074 82.864242 
L 169.188904 83.643776 
L 171.426734 84.740973 
L 173.664565 86.090613 
L 175.385973 87.329306 
L 179.517352 90.934319 
L 182.615886 94.198639 
L 187.263687 99.651931 
L 193.632897 107.252233 
L 196.215008 109.85297 
L 198.452839 111.857715 
L 200.346387 113.273128 
L 201.895655 114.153356 
L 203.272781 114.695785 
L 204.822048 115.064607 
L 205.854893 115.189947 
L 205.854893 115.189947 
" style="fill:none;stroke:#d43e4e;stroke-linecap:square;"/>
   </g>
   <g id="line2d_13">
    <path clip-path="url(#p9a6d85db9e)" d="M 24.901757 73.477501 
L 214.839377 73.477501 
" style="fill:none;stroke:#abdda4;stroke-dasharray:2.59,1.12;stroke-dashoffset:0;stroke-width:0.7;"/>
   </g>
   <g id="line2d_14">
    <path clip-path="url(#p9a6d85db9e)" d="M 24.901757 85.260749 
L 214.839377 85.260749 
" style="fill:none;stroke:#3288bc;stroke-dasharray:2.59,1.12;stroke-dashoffset:0;stroke-width:0.7;"/>
   </g>
   <g id="line2d_15">
    <path clip-path="url(#p9a6d85db9e)" d="M 24.901757 92.008397 
L 214.839377 92.008397 
" style="fill:none;stroke:#d43e4e;stroke-dasharray:2.59,1.12;stroke-dashoffset:0;stroke-width:0.7;"/>
   </g>
   <g id="patch_3">
    <path d="M 24.901757 115.078763 
L 24.901757 0.72 
" style="fill:none;stroke:#000000;stroke-linecap:square;stroke-linejoin:miter;stroke-width:0.5;"/>
   </g>
   <g id="patch_4">
    <path d="M 214.839377 115.078763 
L 214.839377 0.72 
" style="fill:none;stroke:#000000;stroke-linecap:square;stroke-linejoin:miter;stroke-width:0.5;"/>
   </g>
   <g id="patch_5">
    <path d="M 24.901757 115.078763 
L 214.839377 115.078763 
" style="fill:none;stroke:#000000;stroke-linecap:square;stroke-linejoin:miter;stroke-width:0.5;"/>
   </g>
   <g id="patch_6">
    <path d="M 24.901757 0.72 
L 214.839377 0.72 
" style="fill:none;stroke:#000000;stroke-linecap:square;stroke-linejoin:miter;stroke-width:0.5;"/>
   </g>
   <g id="legend_1">
    <g id="line2d_16">
     <path d="M 102.214809 10.09125 
L 113.460309 10.09125 
" style="fill:none;stroke:#abdda4;stroke-linecap:square;"/>
    </g>
    <g id="line2d_17"/>
    <g id="text_12">
     <!-- MP2 -->
     <g transform="translate(117.208809 12.7152)scale(0.07497 -0.07497)">
      <defs>
       <path d="M 20.90625 66.390625 
C 20.296875 67.890625 20.203125 68 18.09375 68 
L 5.296875 68 
L 5.296875 65.390625 
C 12.203125 65.390625 13.296875 65.390625 13.296875 60.90625 
L 13.296875 9.75 
C 13.296875 7.265625 13.296875 2.59375 5.296875 2.59375 
L 5.296875 0 
C 7.59375 0.1875 11.796875 0.1875 14.296875 0.1875 
C 16.796875 0.1875 21 0.1875 23.296875 0 
L 23.296875 2.59375 
C 15.296875 2.59375 15.296875 7.265625 15.296875 9.75 
L 15.296875 64.984375 
L 15.40625 64.984375 
L 38.90625 1.59375 
C 39.296875 0.59375 39.5 0 40.296875 0 
C 41.09375 0 41.296875 0.59375 41.703125 1.59375 
L 65.40625 65.484375 
L 65.5 65.484375 
L 65.5 7.078125 
C 65.5 2.59375 64.40625 2.59375 57.5 2.59375 
L 57.5 0 
C 60.203125 0.1875 65.59375 0.1875 68.5 0.1875 
C 71.40625 0.1875 76.90625 0.1875 79.59375 0 
L 79.59375 2.59375 
C 72.703125 2.59375 71.59375 2.59375 71.59375 7.078125 
L 71.59375 60.90625 
C 71.59375 65.390625 72.703125 65.390625 79.59375 65.390625 
L 79.59375 68 
L 66.90625 68 
C 64.796875 68 64.703125 67.890625 64.09375 66.390625 
L 42.5 8.0625 
z
" id="CMR17-77"/>
       <path d="M 19.796875 32 
L 35.796875 32 
C 48.703125 32 58.09375 40.359375 58.09375 49.796875 
C 58.09375 59.234375 48.90625 68 35.796875 68 
L 5.203125 68 
L 5.203125 65.390625 
C 12.09375 65.390625 13.203125 65.390625 13.203125 60.921875 
L 13.203125 7.078125 
C 13.203125 2.59375 12.09375 2.59375 5.203125 2.59375 
L 5.203125 0 
C 8.09375 0.1875 13.40625 0.1875 16.5 0.1875 
C 19.59375 0.1875 24.90625 0.1875 27.796875 0 
L 27.796875 2.59375 
C 20.90625 2.59375 19.796875 2.59375 19.796875 7.078125 
z
M 19.59375 34.09375 
L 19.59375 61.515625 
C 19.59375 64.890625 19.796875 65.390625 23.796875 65.390625 
L 33.90625 65.390625 
C 46.796875 65.390625 50.5 58.046875 50.5 49.796875 
C 50.5 40.75 46.09375 34.09375 33.90625 34.09375 
z
" id="CMR17-80"/>
      </defs>
      <use transform="scale(0.996264)" xlink:href="#CMR17-77"/>
      <use transform="translate(84.686941 0)scale(0.996264)" xlink:href="#CMR17-80"/>
      <use transform="translate(147.273241 0)scale(0.996264)" xlink:href="#CMR17-50"/>
     </g>
    </g>
    <g id="line2d_18">
     <path d="M 102.214809 18.668287 
L 113.460309 18.668287 
" style="fill:none;stroke:#3288bc;stroke-linecap:square;"/>
    </g>
    <g id="line2d_19"/>
    <g id="text_13">
     <!-- DFT -->
     <g transform="translate(117.208809 21.292237)scale(0.07497 -0.07497)">
      <defs>
       <path d="M 5.203125 68 
L 5.203125 65.390625 
C 12.09375 65.390625 13.203125 65.390625 13.203125 60.90625 
L 13.203125 7.078125 
C 13.203125 2.59375 12.09375 2.59375 5.203125 2.59375 
L 5.203125 0 
L 37 0 
C 53.09375 0 66 14.734375 66 33.4375 
C 66 52.25 53.296875 68 37 68 
z
M 23.796875 2.59375 
C 19.796875 2.59375 19.59375 3.09375 19.59375 6.46875 
L 19.59375 61.5 
C 19.59375 64.890625 19.796875 65.390625 23.796875 65.390625 
L 35 65.390625 
C 43.296875 65.390625 58.59375 60.515625 58.59375 33.4375 
C 58.59375 19.40625 54.5 13.734375 52.59375 11.046875 
C 50.203125 7.96875 44.5 2.59375 35 2.59375 
z
" id="CMR17-68"/>
       <path d="M 54.40625 67.796875 
L 5.09375 67.796875 
L 5.09375 65.1875 
C 12 65.1875 13.09375 65.1875 13.09375 60.671875 
L 13.09375 7.03125 
C 13.09375 2.59375 12 2.59375 5.09375 2.59375 
L 5.09375 0 
C 8 0.1875 13.59375 0.1875 16.703125 0.1875 
C 20.796875 0.1875 25.59375 0.1875 29.703125 0 
L 29.703125 2.59375 
L 27.5 2.59375 
C 19.90625 2.59375 19.703125 3.578125 19.703125 7.125 
L 19.703125 32.390625 
L 28.703125 32.390625 
C 38 32.390625 38.90625 29.140625 38.90625 20.84375 
L 40.703125 20.84375 
L 40.703125 46.734375 
L 38.90625 46.734375 
C 38.90625 38.296875 38 35 28.703125 35 
L 19.703125 35 
L 19.703125 61.28125 
C 19.703125 64.6875 19.90625 65.1875 23.90625 65.1875 
L 36.796875 65.1875 
C 51.90625 65.1875 53.59375 58.96875 55 45.625 
L 56.796875 45.625 
z
" id="CMR17-70"/>
       <path d="M 62.203125 67.6875 
L 4.5 67.6875 
L 2.796875 45.6875 
L 4.59375 45.6875 
C 5.90625 62.203125 7.296875 65.09375 22.703125 65.09375 
C 24.5 65.09375 27.40625 65.09375 28.203125 64.984375 
C 30.09375 64.6875 30.09375 63.5 30.09375 61.203125 
L 30.09375 7.265625 
C 30.09375 3.6875 29.796875 2.59375 21.5 2.59375 
L 18.703125 2.59375 
L 18.703125 0 
C 23.5 0.09375 28.5 0.1875 33.40625 0.1875 
C 38.296875 0.1875 43.296875 0.09375 48.09375 0 
L 48.09375 2.59375 
L 45.296875 2.59375 
C 37 2.59375 36.703125 3.6875 36.703125 7.265625 
L 36.703125 61.203125 
C 36.703125 63.390625 36.703125 64.59375 38.5 64.984375 
C 39.296875 65.09375 42.203125 65.09375 44 65.09375 
C 59.296875 65.09375 60.796875 62.203125 62.09375 45.6875 
L 63.90625 45.6875 
z
" id="CMR17-84"/>
      </defs>
      <use transform="scale(0.996264)" xlink:href="#CMR17-68"/>
      <use transform="translate(70.393556 0)scale(0.996264)" xlink:href="#CMR17-70"/>
      <use transform="translate(130.377402 0)scale(0.996264)" xlink:href="#CMR17-84"/>
     </g>
    </g>
    <g id="line2d_20">
     <path d="M 102.214809 27.245323 
L 113.460309 27.245323 
" style="fill:none;stroke:#d43e4e;stroke-linecap:square;"/>
    </g>
    <g id="line2d_21"/>
    <g id="text_14">
     <!-- QMC -->
     <g transform="translate(117.208809 29.869273)scale(0.07497 -0.07497)">
      <defs>
       <path d="M 47.296875 0.484375 
C 59.203125 5.546875 67.296875 18.546875 67.296875 33.703125 
C 67.296875 54.4375 52.59375 70 36 70 
C 19 70 4.59375 54.234375 4.59375 33.703125 
C 4.59375 13.484375 19 -2 36 -2 
C 38.296875 -2 41.5 -1.703125 45.296875 -0.40625 
C 47 -12.703125 48.09375 -20 56.703125 -20 
C 67.296875 -20 67.796875 -4.328125 67.796875 -1.5 
C 67.796875 -0.5 67.796875 0.1875 67.09375 0.1875 
C 66.59375 0.1875 66.5 -0.5 66.5 -0.703125 
C 65.796875 -10.390625 60.40625 -12.40625 57.203125 -12.40625 
C 51.296875 -12.40625 49.203125 -7.0625 47.296875 0.484375 
z
M 30.59375 0.59375 
C 20.203125 3.859375 12 14.90625 12 33.703125 
C 12 57.78125 25.09375 68.1875 35.90625 68.1875 
C 47.09375 68.1875 59.90625 57.375 59.90625 33.703125 
C 59.90625 16.625 53.203125 7.234375 46.5 2.96875 
C 45 8.03125 42.59375 14 36.09375 14 
C 31.296875 14 28.59375 9.8125 28.59375 6.046875 
C 28.59375 3.765625 29.5 1.875 30.59375 0.59375 
z
M 44.90625 2.078125 
C 40.90625 -0.015625 37.703125 -0.203125 36 -0.203125 
C 31.5 -0.203125 30.203125 3.859375 30.203125 6.046875 
C 30.203125 9.125 32.296875 12.390625 36.09375 12.390625 
C 42.5 12.390625 44.09375 6.734375 44.90625 2.078125 
z
" id="CMR17-81"/>
       <path d="M 62.09375 67.984375 
C 62.09375 69.796875 62 69.890625 61.40625 69.890625 
C 61 69.890625 60.90625 69.796875 60.203125 68.59375 
L 55.796875 60.140625 
C 50.90625 66.390625 44.90625 70 37.203125 70 
C 20.09375 70 4.59375 54.796875 4.59375 34.046875 
C 4.59375 13.078125 20.09375 -2 37.296875 -2 
C 52.59375 -2 62.09375 11.578125 62.09375 23.15625 
C 62.09375 24.171875 62.09375 24.578125 61.203125 24.578125 
C 60.40625 24.578125 60.40625 24.265625 60.296875 23.359375 
C 59.5 9.25 49.5 0.59375 38.703125 0.59375 
C 28.5 0.59375 12.203125 7.84375 12.203125 34.046875 
C 12.203125 60.34375 28.796875 67.390625 38.5 67.390625 
C 49.796875 67.390625 58 57.515625 59.90625 43.515625 
C 60.09375 42.296875 60.09375 42.109375 61 42.109375 
C 62.09375 42.109375 62.09375 42.296875 62.09375 44.125 
z
" id="CMR17-67"/>
      </defs>
      <use transform="scale(0.996264)" xlink:href="#CMR17-81"/>
      <use transform="translate(71.714788 0)scale(0.996264)" xlink:href="#CMR17-77"/>
      <use transform="translate(156.401729 0)scale(0.996264)" xlink:href="#CMR17-67"/>
     </g>
    </g>
   </g>
  </g>
 </g>
 <defs>
  <clipPath id="p9a6d85db9e">
   <rect height="114.358763" width="189.93762" x="24.901757" y="0.72"/>
  </clipPath>
 </defs>
</svg>
