<?xml version="1.0" encoding="utf-8" standalone="no"?>
<!DOCTYPE svg PUBLIC "-//W3C//DTD SVG 1.1//EN"
  "http://www.w3.org/Graphics/SVG/1.1/DTD/svg11.dtd">
<svg height="145.761683pt" version="1.1" viewBox="0 0 234.553139 145.761683" width="234.553139pt" xmlns="http://www.w3.org/2000/svg" xmlns:xlink="http://www.w3.org/1999/xlink">
 <metadata>
  <rdf:RDF xmlns:cc="http://creativecommons.org/ns#" xmlns:dc="http://purl.org/dc/elements/1.1/" xmlns:rdf="http://www.w3.org/1999/02/22-rdf-syntax-ns#">
   <cc:Work>
    <dc:type rdf:resource="http://purl.org/dc/dcmitype/StillImage"/>
    <dc:date>2021-07-29T15:10:28.293508</dc:date>
    <dc:format>image/svg+xml</dc:format>
    <dc:creator>
     <cc:Agent>
      <dc:title>Matplotlib v3.4.2, https://matplotlib.org/</dc:title>
     </cc:Agent>
    </dc:creator>
   </cc:Work>
  </rdf:RDF>
 </metadata>
 <defs>
  <style type="text/css">*{stroke-linecap:butt;stroke-linejoin:round;}</style>
 </defs>
 <g id="figure_1">
  <g id="patch_1">
   <path d="M 0 145.761683 
L 234.553139 145.761683 
L 234.553139 0 
L 0 0 
z
" style="fill:none;"/>
  </g>
  <g id="axes_1">
   <g id="patch_2">
    <path d="M 24.901757 120.796701 
L 233.833139 120.796701 
L 233.833139 0.72 
L 24.901757 0.72 
z
" style="fill:none;"/>
   </g>
   <g id="line2d_1">
    <path clip-path="url(#p83505cc78d)" d="M 138.864329 120.796701 
L 138.864329 0.72 
" style="fill:none;stroke:#808080;stroke-dasharray:0.5,0.825;stroke-dashoffset:0;stroke-opacity:0.5;stroke-width:0.5;"/>
   </g>
   <g id="line2d_2">
    <path clip-path="url(#p83505cc78d)" d="M 24.901757 30.994323 
L 233.833139 30.994323 
" style="fill:none;stroke:#808080;stroke-dasharray:0.5,0.825;stroke-dashoffset:0;stroke-opacity:0.5;stroke-width:0.5;"/>
   </g>
   <g id="matplotlib.axis_1">
    <g id="xtick_1">
     <g id="line2d_3">
      <defs>
       <path d="M 0 0 
L 0 2 
" id="m1f30f22c29" style="stroke:#000000;stroke-width:0.5;"/>
      </defs>
      <g>
       <use style="stroke:#000000;stroke-width:0.5;" x="53.3924" xlink:href="#m1f30f22c29" y="120.796701"/>
      </g>
     </g>
     <g id="text_1">
      <!-- $\mathdefault{4.6}$ -->
      <g transform="translate(47.504796 131.023351)scale(0.09 -0.09)">
       <defs>
        <path d="M 2150 4147 
C 2150 4281 2144 4288 2029 4288 
L 128 1254 
L 128 1088 
L 1779 1088 
L 1779 460 
C 1779 230 1766 166 1318 166 
L 1197 166 
L 1197 0 
C 1402 12 1747 12 1965 12 
C 2182 12 2528 12 2733 0 
L 2733 166 
L 2611 166 
C 2163 166 2150 230 2150 460 
L 2150 1088 
L 2803 1088 
L 2803 1254 
L 2150 1254 
L 2150 4147 
z
M 1798 3723 
L 1798 1254 
L 256 1254 
L 1798 3723 
z
" id="CMR17-34" transform="scale(0.015625)"/>
        <path d="M 1178 307 
C 1178 492 1024 620 870 620 
C 685 620 557 467 557 313 
C 557 128 710 0 864 0 
C 1050 0 1178 153 1178 307 
z
" id="CMMI12-3a" transform="scale(0.015625)"/>
        <path d="M 678 2198 
C 678 3712 1395 4076 1811 4076 
C 1946 4076 2272 4049 2400 3782 
C 2298 3782 2106 3782 2106 3558 
C 2106 3385 2246 3328 2336 3328 
C 2394 3328 2566 3353 2566 3571 
C 2566 3987 2246 4224 1805 4224 
C 1043 4224 243 3411 243 2011 
C 243 257 966 -128 1478 -128 
C 2099 -128 2688 431 2688 1295 
C 2688 2101 2170 2688 1517 2688 
C 1126 2688 838 2430 678 1979 
L 678 2198 
z
M 1478 25 
C 691 25 691 1212 691 1450 
C 691 1914 909 2585 1504 2585 
C 1613 2585 1926 2585 2138 2140 
C 2253 1889 2253 1624 2253 1302 
C 2253 954 2253 696 2118 438 
C 1978 173 1773 25 1478 25 
z
" id="CMR17-36" transform="scale(0.015625)"/>
       </defs>
       <use transform="scale(0.996264)" xlink:href="#CMR17-34"/>
       <use transform="translate(45.690477 0)scale(0.996264)" xlink:href="#CMMI12-3a"/>
       <use transform="translate(72.787654 0)scale(0.996264)" xlink:href="#CMR17-36"/>
      </g>
     </g>
    </g>
    <g id="xtick_2">
     <g id="line2d_4">
      <g>
       <use style="stroke:#000000;stroke-width:0.5;" x="91.379924" xlink:href="#m1f30f22c29" y="120.796701"/>
      </g>
     </g>
     <g id="text_2">
      <!-- $\mathdefault{4.8}$ -->
      <g transform="translate(85.49232 131.023351)scale(0.09 -0.09)">
       <defs>
        <path d="M 1741 2289 
C 2144 2494 2554 2803 2554 3298 
C 2554 3884 1990 4224 1472 4224 
C 890 4224 378 3800 378 3215 
C 378 3054 416 2777 666 2533 
C 730 2469 998 2276 1171 2154 
C 883 2006 211 1652 211 945 
C 211 282 838 -128 1459 -128 
C 2144 -128 2720 366 2720 1022 
C 2720 1607 2330 1877 2074 2051 
L 1741 2289 
z
M 902 2855 
C 851 2887 595 3086 595 3388 
C 595 3781 998 4076 1459 4076 
C 1965 4076 2336 3716 2336 3298 
C 2336 2700 1670 2359 1638 2359 
C 1632 2359 1626 2359 1574 2398 
L 902 2855 
z
M 2080 1536 
C 2176 1466 2483 1253 2483 861 
C 2483 385 2010 25 1472 25 
C 890 25 448 443 448 951 
C 448 1459 838 1884 1280 2083 
L 2080 1536 
z
" id="CMR17-38" transform="scale(0.015625)"/>
       </defs>
       <use transform="scale(0.996264)" xlink:href="#CMR17-34"/>
       <use transform="translate(45.690477 0)scale(0.996264)" xlink:href="#CMMI12-3a"/>
       <use transform="translate(72.787654 0)scale(0.996264)" xlink:href="#CMR17-38"/>
      </g>
     </g>
    </g>
    <g id="xtick_3">
     <g id="line2d_5">
      <g>
       <use style="stroke:#000000;stroke-width:0.5;" x="129.367448" xlink:href="#m1f30f22c29" y="120.796701"/>
      </g>
     </g>
     <g id="text_3">
      <!-- $\mathdefault{5.0}$ -->
      <g transform="translate(123.479844 131.023351)scale(0.09 -0.09)">
       <defs>
        <path d="M 730 3750 
C 794 3724 1056 3641 1325 3641 
C 1920 3641 2246 3961 2432 4140 
C 2432 4191 2432 4224 2394 4224 
C 2387 4224 2374 4224 2323 4198 
C 2099 4102 1837 4032 1517 4032 
C 1325 4032 1037 4055 723 4191 
C 653 4224 640 4224 634 4224 
C 602 4224 595 4217 595 4090 
L 595 2231 
C 595 2113 595 2080 659 2080 
C 691 2080 704 2093 736 2139 
C 941 2435 1222 2560 1542 2560 
C 1766 2560 2246 2415 2246 1293 
C 2246 1087 2246 716 2054 422 
C 1894 159 1645 25 1370 25 
C 947 25 518 319 403 812 
C 429 806 480 793 506 793 
C 589 793 749 838 749 1036 
C 749 1209 627 1280 506 1280 
C 358 1280 262 1190 262 1011 
C 262 454 704 -128 1382 -128 
C 2042 -128 2669 441 2669 1267 
C 2669 2054 2170 2662 1549 2662 
C 1222 2662 947 2540 730 2304 
L 730 3750 
z
" id="CMR17-35" transform="scale(0.015625)"/>
        <path d="M 2688 2038 
C 2688 2430 2682 3099 2413 3613 
C 2176 4063 1798 4224 1466 4224 
C 1158 4224 768 4082 525 3620 
C 269 3137 243 2539 243 2038 
C 243 1671 250 1112 448 623 
C 723 -39 1216 -128 1466 -128 
C 1760 -128 2208 -7 2470 604 
C 2662 1048 2688 1568 2688 2038 
z
M 1466 -26 
C 1056 -26 813 328 723 816 
C 653 1196 653 1749 653 2109 
C 653 2604 653 3015 736 3407 
C 858 3954 1216 4121 1466 4121 
C 1728 4121 2067 3947 2189 3420 
C 2272 3054 2278 2623 2278 2109 
C 2278 1691 2278 1176 2202 797 
C 2067 96 1690 -26 1466 -26 
z
" id="CMR17-30" transform="scale(0.015625)"/>
       </defs>
       <use transform="scale(0.996264)" xlink:href="#CMR17-35"/>
       <use transform="translate(45.690477 0)scale(0.996264)" xlink:href="#CMMI12-3a"/>
       <use transform="translate(72.787654 0)scale(0.996264)" xlink:href="#CMR17-30"/>
      </g>
     </g>
    </g>
    <g id="xtick_4">
     <g id="line2d_6">
      <g>
       <use style="stroke:#000000;stroke-width:0.5;" x="167.354972" xlink:href="#m1f30f22c29" y="120.796701"/>
      </g>
     </g>
     <g id="text_4">
      <!-- $\mathdefault{5.2}$ -->
      <g transform="translate(161.467368 131.023351)scale(0.09 -0.09)">
       <defs>
        <path d="M 2669 990 
L 2554 990 
C 2490 537 2438 460 2413 422 
C 2381 371 1920 371 1830 371 
L 602 371 
C 832 620 1280 1073 1824 1596 
C 2214 1966 2669 2400 2669 3033 
C 2669 3788 2067 4224 1395 4224 
C 691 4224 262 3603 262 3027 
C 262 2777 448 2745 525 2745 
C 589 2745 781 2783 781 3007 
C 781 3206 614 3264 525 3264 
C 486 3264 448 3257 422 3244 
C 544 3788 915 4057 1306 4057 
C 1862 4057 2227 3616 2227 3033 
C 2227 2477 1901 1998 1536 1583 
L 262 147 
L 262 0 
L 2515 0 
L 2669 990 
z
" id="CMR17-32" transform="scale(0.015625)"/>
       </defs>
       <use transform="scale(0.996264)" xlink:href="#CMR17-35"/>
       <use transform="translate(45.690477 0)scale(0.996264)" xlink:href="#CMMI12-3a"/>
       <use transform="translate(72.787654 0)scale(0.996264)" xlink:href="#CMR17-32"/>
      </g>
     </g>
    </g>
    <g id="xtick_5">
     <g id="line2d_7">
      <g>
       <use style="stroke:#000000;stroke-width:0.5;" x="205.342496" xlink:href="#m1f30f22c29" y="120.796701"/>
      </g>
     </g>
     <g id="text_5">
      <!-- $\mathdefault{5.4}$ -->
      <g transform="translate(199.454892 131.023351)scale(0.09 -0.09)">
       <use transform="scale(0.996264)" xlink:href="#CMR17-35"/>
       <use transform="translate(45.690477 0)scale(0.996264)" xlink:href="#CMMI12-3a"/>
       <use transform="translate(72.787654 0)scale(0.996264)" xlink:href="#CMR17-34"/>
      </g>
     </g>
    </g>
    <g id="text_6">
     <!-- $\alabel{L_z}{\angstrom}$ -->
     <g transform="translate(114.485177 142.800089)scale(0.09 -0.09)">
      <defs>
       <path d="M 2349 3860 
C 2406 4102 2426 4166 2989 4166 
C 3162 4166 3206 4166 3206 4287 
C 3206 4352 3136 4352 3110 4352 
C 2982 4352 2835 4339 2707 4339 
L 1850 4339 
C 1728 4339 1587 4352 1466 4352 
C 1414 4352 1344 4352 1344 4230 
C 1344 4166 1402 4166 1498 4166 
C 1888 4166 1888 4115 1888 4045 
C 1888 4032 1888 3994 1862 3898 
L 998 472 
C 941 249 928 185 480 185 
C 358 185 294 185 294 70 
C 294 0 333 0 461 0 
L 3328 0 
C 3469 0 3475 6 3520 121 
L 4013 1478 
C 4026 1510 4038 1548 4038 1567 
C 4038 1605 4006 1631 3974 1631 
C 3968 1631 3936 1631 3923 1605 
C 3910 1599 3910 1586 3859 1465 
C 3654 905 3366 185 2285 185 
L 1670 185 
C 1581 185 1568 185 1530 191 
C 1459 198 1453 211 1453 262 
C 1453 306 1466 344 1478 402 
L 2349 3860 
z
" id="CMMI12-4c" transform="scale(0.015625)"/>
       <path d="M 813 486 
C 1088 809 1312 1015 1632 1313 
C 2016 1657 2182 1822 2272 1922 
C 2720 2371 2944 2713 2944 2764 
C 2944 2816 2893 2816 2880 2816 
C 2835 2816 2822 2790 2790 2745 
C 2630 2470 2477 2368 2310 2368 
C 2176 2368 2106 2403 1984 2547 
C 1850 2707 1741 2816 1555 2816 
C 1088 2816 806 2265 806 2127 
C 806 2107 813 2067 870 2067 
C 922 2067 928 2094 947 2140 
C 1056 2387 1363 2415 1485 2415 
C 1619 2415 1747 2387 1882 2342 
C 2125 2239 2227 2239 2291 2239 
C 2336 2239 2362 2239 2394 2246 
C 2182 1988 1837 1670 1549 1399 
L 902 783 
C 512 380 275 32 275 -13 
C 275 -52 307 -64 346 -64 
C 384 -64 390 -58 435 19 
C 538 179 742 384 979 384 
C 1114 384 1178 356 1306 211 
C 1427 70 1536 -64 1741 -64 
C 2368 -64 2726 723 2726 876 
C 2726 902 2720 942 2656 942 
C 2605 942 2598 915 2579 849 
C 2438 460 2061 336 1811 336 
C 1677 336 1549 364 1414 409 
C 1158 512 1088 512 1005 512 
C 941 512 870 512 813 486 
z
" id="CMMI12-7a" transform="scale(0.015625)"/>
       <path d="M 1958 -1562 
C 1958 -1556 1958 -1543 1939 -1524 
C 1645 -1223 858 -403 858 1596 
C 858 3595 1632 4408 1946 4729 
C 1946 4735 1958 4748 1958 4767 
C 1958 4787 1939 4800 1914 4800 
C 1843 4800 1299 4325 986 3620 
C 666 2909 576 2218 576 1603 
C 576 1141 621 360 1005 -467 
C 1312 -1133 1837 -1600 1914 -1600 
C 1946 -1600 1958 -1588 1958 -1562 
z
" id="CMR17-28" transform="scale(0.015625)"/>
       <path d="M 2086 4096 
C 1856 4053 1626 3896 1626 3613 
L 1626 3570 
C 1658 3323 1888 3136 2150 3136 
C 2413 3136 2669 3359 2669 3619 
L 2669 3667 
C 2637 3961 2406 4160 2144 4160 
C 2125 4102 2106 4096 2086 4096 
z
M 1709 3570 
L 1709 3613 
C 1709 3904 1920 4057 2157 4057 
C 2394 4057 2554 3897 2586 3680 
L 2586 3635 
C 2586 3353 2374 3200 2138 3200 
C 1901 3200 1741 3360 1709 3577 
L 1709 3570 
z
" id="SFRM3583-6" transform="scale(0.015625)"/>
       <path d="M 2323 4441 
C 2291 4524 2278 4544 2214 4544 
C 2150 4544 2138 4524 2106 4441 
L 749 580 
C 627 236 371 166 147 166 
L 147 0 
C 262 12 518 12 640 12 
C 800 12 1056 12 1210 0 
L 1210 166 
C 909 179 864 382 864 459 
C 864 516 877 548 890 586 
L 1229 1536 
L 2906 1536 
L 3290 453 
C 3322 376 3322 363 3322 338 
C 3322 166 3046 166 2925 166 
L 2925 0 
C 3110 12 3443 12 3642 12 
C 3808 12 4128 12 4282 0 
L 4282 166 
C 3942 166 3827 166 3744 402 
L 2323 4441 
z
M 2067 3924 
L 2848 1702 
L 1286 1702 
L 2067 3924 
z
" id="CMR17-41" transform="scale(0.015625)"/>
       <path d="M 1683 1596 
C 1683 2057 1638 2839 1254 3665 
C 947 4332 422 4800 346 4800 
C 326 4800 301 4793 301 4761 
C 301 4748 307 4742 314 4729 
C 621 4408 1402 3595 1402 1603 
C 1402 -396 627 -1210 314 -1530 
C 307 -1543 301 -1549 301 -1562 
C 301 -1594 326 -1600 346 -1600 
C 416 -1600 960 -1127 1274 -422 
C 1594 289 1683 981 1683 1596 
z
" id="CMR17-29" transform="scale(0.015625)"/>
      </defs>
      <use transform="scale(0.996264)" xlink:href="#CMMI12-4c"/>
      <use transform="translate(66.370875 -14.943915)scale(0.697382)" xlink:href="#CMMI12-7a"/>
      <use transform="translate(157.045448 0)scale(0.996264)" xlink:href="#CMR17-28"/>
      <use transform="translate(214.887866 52.703059)scale(0.356961)" xlink:href="#SFRM3583-6"/>
      <use transform="translate(192.326216 0)scale(0.996264)" xlink:href="#CMR17-41"/>
      <use transform="translate(261.398646 0)scale(0.996264)" xlink:href="#CMR17-29"/>
     </g>
    </g>
   </g>
   <g id="matplotlib.axis_2">
    <g id="ytick_1">
     <g id="line2d_8">
      <defs>
       <path d="M 0 0 
L -2 0 
" id="m569645ede4" style="stroke:#000000;stroke-width:0.5;"/>
      </defs>
      <g>
       <use style="stroke:#000000;stroke-width:0.5;" x="24.901757" xlink:href="#m569645ede4" y="112.335064"/>
      </g>
     </g>
     <g id="text_7">
      <!-- $\mathdefault{30}$ -->
      <g transform="translate(11.686376 115.448389)scale(0.09 -0.09)">
       <defs>
        <path d="M 1414 2176 
C 1984 2176 2234 1673 2234 1094 
C 2234 322 1824 25 1453 25 
C 1114 25 563 193 390 691 
C 422 678 454 678 486 678 
C 640 678 755 780 755 947 
C 755 1132 614 1216 486 1216 
C 378 1216 211 1164 211 927 
C 211 335 787 -128 1466 -128 
C 2176 -128 2720 432 2720 1087 
C 2720 1718 2208 2176 1600 2246 
C 2086 2347 2554 2776 2554 3353 
C 2554 3856 2048 4224 1472 4224 
C 890 4224 378 3862 378 3347 
C 378 3123 544 3084 627 3084 
C 762 3084 877 3167 877 3334 
C 877 3500 762 3584 627 3584 
C 602 3584 570 3584 544 3571 
C 730 3999 1235 4076 1459 4076 
C 1683 4076 2106 3966 2106 3347 
C 2106 3167 2080 2851 1862 2574 
C 1670 2329 1453 2316 1242 2297 
C 1210 2297 1062 2284 1037 2284 
C 992 2278 966 2272 966 2227 
C 966 2182 973 2176 1101 2176 
L 1414 2176 
z
" id="CMR17-33" transform="scale(0.015625)"/>
       </defs>
       <use transform="scale(0.996264)" xlink:href="#CMR17-33"/>
       <use transform="translate(45.690477 0)scale(0.996264)" xlink:href="#CMR17-30"/>
      </g>
     </g>
    </g>
    <g id="ytick_2">
     <g id="line2d_9">
      <g>
       <use style="stroke:#000000;stroke-width:0.5;" x="24.901757" xlink:href="#m569645ede4" y="78.915512"/>
      </g>
     </g>
     <g id="text_8">
      <!-- $\mathdefault{40}$ -->
      <g transform="translate(11.686376 82.028837)scale(0.09 -0.09)">
       <use transform="scale(0.996264)" xlink:href="#CMR17-34"/>
       <use transform="translate(45.690477 0)scale(0.996264)" xlink:href="#CMR17-30"/>
      </g>
     </g>
    </g>
    <g id="ytick_3">
     <g id="line2d_10">
      <g>
       <use style="stroke:#000000;stroke-width:0.5;" x="24.901757" xlink:href="#m569645ede4" y="45.49596"/>
      </g>
     </g>
     <g id="text_9">
      <!-- $\mathdefault{50}$ -->
      <g transform="translate(11.686376 48.609285)scale(0.09 -0.09)">
       <use transform="scale(0.996264)" xlink:href="#CMR17-35"/>
       <use transform="translate(45.690477 0)scale(0.996264)" xlink:href="#CMR17-30"/>
      </g>
     </g>
    </g>
    <g id="ytick_4">
     <g id="line2d_11">
      <g>
       <use style="stroke:#000000;stroke-width:0.5;" x="24.901757" xlink:href="#m569645ede4" y="12.076407"/>
      </g>
     </g>
     <g id="text_10">
      <!-- $\mathdefault{60}$ -->
      <g transform="translate(11.686376 15.189733)scale(0.09 -0.09)">
       <use transform="scale(0.996264)" xlink:href="#CMR17-36"/>
       <use transform="translate(45.690477 0)scale(0.996264)" xlink:href="#CMR17-30"/>
      </g>
     </g>
    </g>
    <g id="text_11">
     <!-- $\alabel{V_{\rm QMC}}{\kelvin}$ -->
     <g transform="translate(7.444782 82.077535)rotate(-90)scale(0.09 -0.09)">
      <defs>
       <path d="M 3962 3644 
C 4179 3987 4378 4140 4704 4166 
C 4768 4172 4819 4172 4819 4287 
C 4819 4313 4806 4352 4749 4352 
C 4634 4352 4358 4339 4243 4339 
C 4058 4339 3866 4352 3686 4352 
C 3635 4352 3571 4352 3571 4230 
C 3571 4172 3629 4166 3654 4166 
C 3891 4146 3917 4032 3917 3956 
C 3917 3860 3827 3714 3821 3708 
L 1811 540 
L 1363 3968 
C 1363 4153 1696 4166 1766 4166 
C 1862 4166 1920 4166 1920 4287 
C 1920 4352 1850 4352 1830 4352 
C 1722 4352 1594 4339 1485 4339 
L 1126 4339 
C 659 4339 467 4352 461 4352 
C 422 4352 346 4352 346 4236 
C 346 4166 390 4166 493 4166 
C 819 4166 838 4108 858 3949 
L 1370 25 
C 1389 -109 1389 -128 1478 -128 
C 1555 -128 1587 -109 1651 -7 
L 3962 3644 
z
" id="CMMI12-56" transform="scale(0.015625)"/>
       <path d="M 3027 31 
C 3789 355 4307 1187 4307 2157 
C 4307 3484 3366 4480 2304 4480 
C 1216 4480 294 3471 294 2157 
C 294 863 1216 -128 2304 -128 
C 2451 -128 2656 -109 2899 -26 
C 3008 -813 3078 -1280 3629 -1280 
C 4307 -1280 4339 -277 4339 -96 
C 4339 -32 4339 12 4294 12 
C 4262 12 4256 -32 4256 -45 
C 4211 -665 3866 -794 3661 -794 
C 3283 -794 3149 -452 3027 31 
z
M 1958 38 
C 1293 247 768 954 768 2157 
C 768 3698 1606 4364 2298 4364 
C 3014 4364 3834 3672 3834 2157 
C 3834 1064 3405 463 2976 190 
C 2880 514 2726 896 2310 896 
C 2003 896 1830 628 1830 387 
C 1830 241 1888 120 1958 38 
z
M 2874 133 
C 2618 -1 2413 -13 2304 -13 
C 2016 -13 1933 247 1933 387 
C 1933 584 2067 793 2310 793 
C 2720 793 2822 431 2874 133 
z
" id="CMR17-51" transform="scale(0.015625)"/>
       <path d="M 1338 4249 
C 1299 4345 1293 4352 1158 4352 
L 339 4352 
L 339 4185 
C 781 4185 851 4185 851 3898 
L 851 624 
C 851 465 851 166 339 166 
L 339 0 
C 486 12 755 12 915 12 
C 1075 12 1344 12 1491 0 
L 1491 166 
C 979 166 979 465 979 624 
L 979 4159 
L 986 4159 
L 2490 102 
C 2515 38 2528 0 2579 0 
C 2630 0 2643 38 2669 102 
L 4186 4191 
L 4192 4191 
L 4192 453 
C 4192 166 4122 166 3680 166 
L 3680 0 
C 3853 12 4198 12 4384 12 
C 4570 12 4922 12 5094 0 
L 5094 166 
C 4653 166 4582 166 4582 453 
L 4582 3898 
C 4582 4185 4653 4185 5094 4185 
L 5094 4352 
L 4282 4352 
C 4147 4352 4141 4345 4102 4249 
L 2720 516 
L 1338 4249 
z
" id="CMR17-4d" transform="scale(0.015625)"/>
       <path d="M 3974 4351 
C 3974 4467 3968 4473 3930 4473 
C 3904 4473 3898 4467 3853 4390 
L 3571 3849 
C 3258 4249 2874 4480 2381 4480 
C 1286 4480 294 3507 294 2179 
C 294 837 1286 -128 2387 -128 
C 3366 -128 3974 741 3974 1482 
C 3974 1547 3974 1573 3917 1573 
C 3866 1573 3866 1553 3859 1495 
C 3808 592 3168 38 2477 38 
C 1824 38 781 502 781 2179 
C 781 3862 1843 4313 2464 4313 
C 3187 4313 3712 3681 3834 2785 
C 3846 2707 3846 2695 3904 2695 
C 3974 2695 3974 2707 3974 2824 
L 3974 4351 
z
" id="CMR17-43" transform="scale(0.015625)"/>
       <path d="M 2362 2669 
L 3469 3771 
C 3699 3994 3942 4172 4301 4185 
L 4301 4352 
C 4173 4345 4013 4339 3885 4339 
C 3712 4339 3411 4339 3245 4352 
L 3245 4185 
C 3411 4172 3437 4057 3437 4013 
C 3437 3968 3411 3898 3386 3860 
L 1261 1739 
L 1261 3898 
C 1261 4185 1331 4185 1773 4185 
L 1773 4352 
C 1587 4339 1248 4339 1050 4339 
C 851 4339 512 4339 326 4352 
L 326 4185 
C 768 4185 838 4185 838 3898 
L 838 453 
C 838 166 768 166 326 166 
L 326 0 
C 512 12 851 12 1050 12 
C 1248 12 1587 12 1773 0 
L 1773 166 
C 1331 166 1261 166 1261 453 
L 1261 1580 
L 2080 2389 
L 3290 542 
C 3328 478 3373 395 3373 332 
C 3373 166 3194 166 3110 166 
L 3110 0 
C 3315 12 3610 12 3821 12 
C 3974 12 4237 12 4384 0 
L 4384 166 
C 4077 166 3981 204 3789 497 
L 2362 2669 
z
" id="CMR17-4b" transform="scale(0.015625)"/>
      </defs>
      <use transform="scale(0.996264)" xlink:href="#CMMI12-56"/>
      <use transform="translate(56.869579 -14.943915)scale(0.697382)" xlink:href="#CMR17-51"/>
      <use transform="translate(107.069711 -14.943915)scale(0.697382)" xlink:href="#CMR17-4d"/>
      <use transform="translate(166.350307 -14.943915)scale(0.697382)" xlink:href="#CMR17-43"/>
      <use transform="translate(268.753162 0)scale(0.996264)" xlink:href="#CMR17-28"/>
      <use transform="translate(304.03393 0)scale(0.996264)" xlink:href="#CMR17-4b"/>
      <use transform="translate(375.708707 0)scale(0.996264)" xlink:href="#CMR17-29"/>
     </g>
    </g>
   </g>
   <g id="LineCollection_1">
    <path clip-path="url(#p83505cc78d)" d="M 34.398638 6.662248 
L 34.398638 6.178032 
" style="fill:none;stroke:#5e4fa2;stroke-width:0.5;"/>
    <path clip-path="url(#p83505cc78d)" d="M 43.895519 7.451885 
L 43.895519 6.954039 
" style="fill:none;stroke:#5e4fa2;stroke-width:0.5;"/>
    <path clip-path="url(#p83505cc78d)" d="M 53.3924 8.854693 
L 53.3924 8.425677 
" style="fill:none;stroke:#5e4fa2;stroke-width:0.5;"/>
    <path clip-path="url(#p83505cc78d)" d="M 62.889281 9.414903 
L 62.889281 8.990329 
" style="fill:none;stroke:#5e4fa2;stroke-width:0.5;"/>
    <path clip-path="url(#p83505cc78d)" d="M 72.386162 11.28166 
L 72.386162 10.814142 
" style="fill:none;stroke:#5e4fa2;stroke-width:0.5;"/>
    <path clip-path="url(#p83505cc78d)" d="M 81.883043 13.011978 
L 81.883043 12.583001 
" style="fill:none;stroke:#5e4fa2;stroke-width:0.5;"/>
    <path clip-path="url(#p83505cc78d)" d="M 91.379924 14.849009 
L 91.379924 14.336167 
" style="fill:none;stroke:#5e4fa2;stroke-width:0.5;"/>
    <path clip-path="url(#p83505cc78d)" d="M 100.876805 17.778295 
L 100.876805 17.282794 
" style="fill:none;stroke:#5e4fa2;stroke-width:0.5;"/>
    <path clip-path="url(#p83505cc78d)" d="M 110.373686 19.918157 
L 110.373686 19.492043 
" style="fill:none;stroke:#5e4fa2;stroke-width:0.5;"/>
    <path clip-path="url(#p83505cc78d)" d="M 119.870567 23.448986 
L 119.870567 23.06079 
" style="fill:none;stroke:#5e4fa2;stroke-width:0.5;"/>
    <path clip-path="url(#p83505cc78d)" d="M 129.367448 26.772807 
L 129.367448 26.333203 
" style="fill:none;stroke:#5e4fa2;stroke-width:0.5;"/>
    <path clip-path="url(#p83505cc78d)" d="M 138.864329 30.656825 
L 138.864329 30.224356 
" style="fill:none;stroke:#5e4fa2;stroke-width:0.5;"/>
    <path clip-path="url(#p83505cc78d)" d="M 148.36121 35.288282 
L 148.36121 34.691385 
" style="fill:none;stroke:#5e4fa2;stroke-width:0.5;"/>
    <path clip-path="url(#p83505cc78d)" d="M 157.858091 40.814066 
L 157.858091 40.242894 
" style="fill:none;stroke:#5e4fa2;stroke-width:0.5;"/>
    <path clip-path="url(#p83505cc78d)" d="M 167.354972 47.348256 
L 167.354972 46.758993 
" style="fill:none;stroke:#5e4fa2;stroke-width:0.5;"/>
   </g>
   <g id="LineCollection_2">
    <path clip-path="url(#p83505cc78d)" d="M 176.851853 55.233138 
L 176.851853 54.643405 
" style="fill:none;stroke:#5e4fa2;stroke-opacity:0.5;stroke-width:0.5;"/>
    <path clip-path="url(#p83505cc78d)" d="M 186.348734 65.077826 
L 186.348734 64.397873 
" style="fill:none;stroke:#5e4fa2;stroke-opacity:0.5;stroke-width:0.5;"/>
    <path clip-path="url(#p83505cc78d)" d="M 195.845615 73.396887 
L 195.845615 72.75815 
" style="fill:none;stroke:#5e4fa2;stroke-opacity:0.5;stroke-width:0.5;"/>
    <path clip-path="url(#p83505cc78d)" d="M 205.342496 82.773389 
L 205.342496 82.203618 
" style="fill:none;stroke:#5e4fa2;stroke-opacity:0.5;stroke-width:0.5;"/>
    <path clip-path="url(#p83505cc78d)" d="M 214.839377 92.678979 
L 214.839377 91.96815 
" style="fill:none;stroke:#5e4fa2;stroke-opacity:0.5;stroke-width:0.5;"/>
    <path clip-path="url(#p83505cc78d)" d="M 224.336258 104.415864 
L 224.336258 103.812316 
" style="fill:none;stroke:#5e4fa2;stroke-opacity:0.5;stroke-width:0.5;"/>
   </g>
   <g id="LineCollection_3">
    <path clip-path="url(#p83505cc78d)" d="M 34.398638 7.093894 
L 34.398638 6.558349 
" style="fill:none;stroke:#496aaf;stroke-width:0.5;"/>
    <path clip-path="url(#p83505cc78d)" d="M 43.895519 8.200947 
L 43.895519 7.641775 
" style="fill:none;stroke:#496aaf;stroke-width:0.5;"/>
    <path clip-path="url(#p83505cc78d)" d="M 53.3924 9.17552 
L 53.3924 8.7003 
" style="fill:none;stroke:#496aaf;stroke-width:0.5;"/>
    <path clip-path="url(#p83505cc78d)" d="M 62.889281 10.224683 
L 62.889281 9.742241 
" style="fill:none;stroke:#496aaf;stroke-width:0.5;"/>
    <path clip-path="url(#p83505cc78d)" d="M 72.386162 12.222347 
L 72.386162 11.732366 
" style="fill:none;stroke:#496aaf;stroke-width:0.5;"/>
    <path clip-path="url(#p83505cc78d)" d="M 81.883043 13.545957 
L 81.883043 13.045268 
" style="fill:none;stroke:#496aaf;stroke-width:0.5;"/>
    <path clip-path="url(#p83505cc78d)" d="M 91.379924 15.374919 
L 91.379924 14.891069 
" style="fill:none;stroke:#496aaf;stroke-width:0.5;"/>
    <path clip-path="url(#p83505cc78d)" d="M 100.876805 18.514495 
L 100.876805 17.995789 
" style="fill:none;stroke:#496aaf;stroke-width:0.5;"/>
    <path clip-path="url(#p83505cc78d)" d="M 110.373686 20.775307 
L 110.373686 20.279159 
" style="fill:none;stroke:#496aaf;stroke-width:0.5;"/>
    <path clip-path="url(#p83505cc78d)" d="M 119.870567 24.181171 
L 119.870567 23.707884 
" style="fill:none;stroke:#496aaf;stroke-width:0.5;"/>
    <path clip-path="url(#p83505cc78d)" d="M 129.367448 27.156043 
L 129.367448 26.578778 
" style="fill:none;stroke:#496aaf;stroke-width:0.5;"/>
    <path clip-path="url(#p83505cc78d)" d="M 138.864329 31.296749 
L 138.864329 30.691897 
" style="fill:none;stroke:#496aaf;stroke-width:0.5;"/>
    <path clip-path="url(#p83505cc78d)" d="M 148.36121 36.286695 
L 148.36121 35.751037 
" style="fill:none;stroke:#496aaf;stroke-width:0.5;"/>
    <path clip-path="url(#p83505cc78d)" d="M 157.858091 41.736122 
L 157.858091 41.073994 
" style="fill:none;stroke:#496aaf;stroke-width:0.5;"/>
    <path clip-path="url(#p83505cc78d)" d="M 167.354972 49.170899 
L 167.354972 48.183126 
" style="fill:none;stroke:#496aaf;stroke-width:0.5;"/>
   </g>
   <g id="LineCollection_4">
    <path clip-path="url(#p83505cc78d)" d="M 176.851853 60.175071 
L 176.851853 59.314452 
" style="fill:none;stroke:#496aaf;stroke-opacity:0.5;stroke-width:0.5;"/>
    <path clip-path="url(#p83505cc78d)" d="M 186.348734 69.968534 
L 186.348734 69.30077 
" style="fill:none;stroke:#496aaf;stroke-opacity:0.5;stroke-width:0.5;"/>
    <path clip-path="url(#p83505cc78d)" d="M 195.845615 77.232587 
L 195.845615 76.591354 
" style="fill:none;stroke:#496aaf;stroke-opacity:0.5;stroke-width:0.5;"/>
    <path clip-path="url(#p83505cc78d)" d="M 205.342496 83.291455 
L 205.342496 82.572887 
" style="fill:none;stroke:#496aaf;stroke-opacity:0.5;stroke-width:0.5;"/>
    <path clip-path="url(#p83505cc78d)" d="M 214.839377 93.275533 
L 214.839377 92.449789 
" style="fill:none;stroke:#496aaf;stroke-opacity:0.5;stroke-width:0.5;"/>
    <path clip-path="url(#p83505cc78d)" d="M 224.336258 115.338669 
L 224.336258 114.664228 
" style="fill:none;stroke:#496aaf;stroke-opacity:0.5;stroke-width:0.5;"/>
   </g>
   <g id="line2d_12">
    <path clip-path="url(#p83505cc78d)" d="M 34.398638 6.42014 
L 43.895519 7.202962 
L 53.3924 8.640185 
L 62.889281 9.202616 
L 72.386162 11.047901 
L 81.883043 12.79749 
L 91.379924 14.592588 
L 100.876805 17.530545 
L 110.373686 19.7051 
L 119.870567 23.254888 
L 129.367448 26.553005 
L 138.864329 30.440591 
L 148.36121 34.989834 
L 157.858091 40.52848 
L 167.354972 47.053624 
" style="fill:none;stroke:#aea6d0;stroke-dasharray:1.85,0.8;stroke-dashoffset:0;stroke-width:0.5;"/>
    <defs>
     <path d="M 0 2.5 
C 0.663008 2.5 1.29895 2.236584 1.767767 1.767767 
C 2.236584 1.29895 2.5 0.663008 2.5 0 
C 2.5 -0.663008 2.236584 -1.29895 1.767767 -1.767767 
C 1.29895 -2.236584 0.663008 -2.5 0 -2.5 
C -0.663008 -2.5 -1.29895 -2.236584 -1.767767 -1.767767 
C -2.236584 -1.29895 -2.5 -0.663008 -2.5 0 
C -2.5 0.663008 -2.236584 1.29895 -1.767767 1.767767 
C -1.29895 2.236584 -0.663008 2.5 0 2.5 
z
" id="m02c225c0b8" style="stroke:#5e4fa2;stroke-width:0.75;"/>
    </defs>
    <g clip-path="url(#p83505cc78d)">
     <use style="fill-opacity:0;stroke:#5e4fa2;stroke-width:0.75;" x="34.398638" xlink:href="#m02c225c0b8" y="6.42014"/>
     <use style="fill-opacity:0;stroke:#5e4fa2;stroke-width:0.75;" x="43.895519" xlink:href="#m02c225c0b8" y="7.202962"/>
     <use style="fill-opacity:0;stroke:#5e4fa2;stroke-width:0.75;" x="53.3924" xlink:href="#m02c225c0b8" y="8.640185"/>
     <use style="fill-opacity:0;stroke:#5e4fa2;stroke-width:0.75;" x="62.889281" xlink:href="#m02c225c0b8" y="9.202616"/>
     <use style="fill-opacity:0;stroke:#5e4fa2;stroke-width:0.75;" x="72.386162" xlink:href="#m02c225c0b8" y="11.047901"/>
     <use style="fill-opacity:0;stroke:#5e4fa2;stroke-width:0.75;" x="81.883043" xlink:href="#m02c225c0b8" y="12.79749"/>
     <use style="fill-opacity:0;stroke:#5e4fa2;stroke-width:0.75;" x="91.379924" xlink:href="#m02c225c0b8" y="14.592588"/>
     <use style="fill-opacity:0;stroke:#5e4fa2;stroke-width:0.75;" x="100.876805" xlink:href="#m02c225c0b8" y="17.530545"/>
     <use style="fill-opacity:0;stroke:#5e4fa2;stroke-width:0.75;" x="110.373686" xlink:href="#m02c225c0b8" y="19.7051"/>
     <use style="fill-opacity:0;stroke:#5e4fa2;stroke-width:0.75;" x="119.870567" xlink:href="#m02c225c0b8" y="23.254888"/>
     <use style="fill-opacity:0;stroke:#5e4fa2;stroke-width:0.75;" x="129.367448" xlink:href="#m02c225c0b8" y="26.553005"/>
     <use style="fill-opacity:0;stroke:#5e4fa2;stroke-width:0.75;" x="138.864329" xlink:href="#m02c225c0b8" y="30.440591"/>
     <use style="fill-opacity:0;stroke:#5e4fa2;stroke-width:0.75;" x="148.36121" xlink:href="#m02c225c0b8" y="34.989834"/>
     <use style="fill-opacity:0;stroke:#5e4fa2;stroke-width:0.75;" x="157.858091" xlink:href="#m02c225c0b8" y="40.52848"/>
     <use style="fill-opacity:0;stroke:#5e4fa2;stroke-width:0.75;" x="167.354972" xlink:href="#m02c225c0b8" y="47.053624"/>
    </g>
   </g>
   <g id="line2d_13">
    <path clip-path="url(#p83505cc78d)" d="M 176.851853 54.938272 
L 186.348734 64.737849 
L 195.845615 73.077518 
L 205.342496 82.488504 
L 214.839377 92.323565 
L 224.336258 104.11409 
" style="fill:none;stroke:#5e4fa2;stroke-dasharray:1.85,0.8;stroke-dashoffset:0;stroke-opacity:0.5;stroke-width:0.5;"/>
    <defs>
     <path d="M 0 2.5 
C 0.663008 2.5 1.29895 2.236584 1.767767 1.767767 
C 2.236584 1.29895 2.5 0.663008 2.5 0 
C 2.5 -0.663008 2.236584 -1.29895 1.767767 -1.767767 
C 1.29895 -2.236584 0.663008 -2.5 0 -2.5 
C -0.663008 -2.5 -1.29895 -2.236584 -1.767767 -1.767767 
C -2.236584 -1.29895 -2.5 -0.663008 -2.5 0 
C -2.5 0.663008 -2.236584 1.29895 -1.767767 1.767767 
C -1.29895 2.236584 -0.663008 2.5 0 2.5 
z
" id="m34f4131c65" style="stroke:#5e4fa2;stroke-opacity:0.5;stroke-width:0.75;"/>
    </defs>
    <g clip-path="url(#p83505cc78d)">
     <use style="fill-opacity:0;stroke:#5e4fa2;stroke-opacity:0.5;stroke-width:0.75;" x="176.851853" xlink:href="#m34f4131c65" y="54.938272"/>
     <use style="fill-opacity:0;stroke:#5e4fa2;stroke-opacity:0.5;stroke-width:0.75;" x="186.348734" xlink:href="#m34f4131c65" y="64.737849"/>
     <use style="fill-opacity:0;stroke:#5e4fa2;stroke-opacity:0.5;stroke-width:0.75;" x="195.845615" xlink:href="#m34f4131c65" y="73.077518"/>
     <use style="fill-opacity:0;stroke:#5e4fa2;stroke-opacity:0.5;stroke-width:0.75;" x="205.342496" xlink:href="#m34f4131c65" y="82.488504"/>
     <use style="fill-opacity:0;stroke:#5e4fa2;stroke-opacity:0.5;stroke-width:0.75;" x="214.839377" xlink:href="#m34f4131c65" y="92.323565"/>
     <use style="fill-opacity:0;stroke:#5e4fa2;stroke-opacity:0.5;stroke-width:0.75;" x="224.336258" xlink:href="#m34f4131c65" y="104.11409"/>
    </g>
   </g>
   <g id="line2d_14">
    <path clip-path="url(#p83505cc78d)" d="M 34.398638 6.826122 
L 43.895519 7.921361 
L 53.3924 8.93791 
L 62.889281 9.983462 
L 72.386162 11.977356 
L 81.883043 13.295613 
L 91.379924 15.132994 
L 100.876805 18.255142 
L 110.373686 20.527233 
L 119.870567 23.944527 
L 129.367448 26.867411 
L 138.864329 30.994323 
L 148.36121 36.018866 
L 157.858091 41.405058 
L 167.354972 48.677012 
" style="fill:none;stroke:#a3b4d6;stroke-dasharray:1.85,0.8;stroke-dashoffset:0;stroke-width:0.5;"/>
    <defs>
     <path d="M 0 2.5 
C 0.663008 2.5 1.29895 2.236584 1.767767 1.767767 
C 2.236584 1.29895 2.5 0.663008 2.5 0 
C 2.5 -0.663008 2.236584 -1.29895 1.767767 -1.767767 
C 1.29895 -2.236584 0.663008 -2.5 0 -2.5 
C -0.663008 -2.5 -1.29895 -2.236584 -1.767767 -1.767767 
C -2.236584 -1.29895 -2.5 -0.663008 -2.5 0 
C -2.5 0.663008 -2.236584 1.29895 -1.767767 1.767767 
C -1.29895 2.236584 -0.663008 2.5 0 2.5 
z
" id="me0d4895c26" style="stroke:#496aaf;stroke-width:0.75;"/>
    </defs>
    <g clip-path="url(#p83505cc78d)">
     <use style="fill-opacity:0;stroke:#496aaf;stroke-width:0.75;" x="34.398638" xlink:href="#me0d4895c26" y="6.826122"/>
     <use style="fill-opacity:0;stroke:#496aaf;stroke-width:0.75;" x="43.895519" xlink:href="#me0d4895c26" y="7.921361"/>
     <use style="fill-opacity:0;stroke:#496aaf;stroke-width:0.75;" x="53.3924" xlink:href="#me0d4895c26" y="8.93791"/>
     <use style="fill-opacity:0;stroke:#496aaf;stroke-width:0.75;" x="62.889281" xlink:href="#me0d4895c26" y="9.983462"/>
     <use style="fill-opacity:0;stroke:#496aaf;stroke-width:0.75;" x="72.386162" xlink:href="#me0d4895c26" y="11.977356"/>
     <use style="fill-opacity:0;stroke:#496aaf;stroke-width:0.75;" x="81.883043" xlink:href="#me0d4895c26" y="13.295613"/>
     <use style="fill-opacity:0;stroke:#496aaf;stroke-width:0.75;" x="91.379924" xlink:href="#me0d4895c26" y="15.132994"/>
     <use style="fill-opacity:0;stroke:#496aaf;stroke-width:0.75;" x="100.876805" xlink:href="#me0d4895c26" y="18.255142"/>
     <use style="fill-opacity:0;stroke:#496aaf;stroke-width:0.75;" x="110.373686" xlink:href="#me0d4895c26" y="20.527233"/>
     <use style="fill-opacity:0;stroke:#496aaf;stroke-width:0.75;" x="119.870567" xlink:href="#me0d4895c26" y="23.944527"/>
     <use style="fill-opacity:0;stroke:#496aaf;stroke-width:0.75;" x="129.367448" xlink:href="#me0d4895c26" y="26.867411"/>
     <use style="fill-opacity:0;stroke:#496aaf;stroke-width:0.75;" x="138.864329" xlink:href="#me0d4895c26" y="30.994323"/>
     <use style="fill-opacity:0;stroke:#496aaf;stroke-width:0.75;" x="148.36121" xlink:href="#me0d4895c26" y="36.018866"/>
     <use style="fill-opacity:0;stroke:#496aaf;stroke-width:0.75;" x="157.858091" xlink:href="#me0d4895c26" y="41.405058"/>
     <use style="fill-opacity:0;stroke:#496aaf;stroke-width:0.75;" x="167.354972" xlink:href="#me0d4895c26" y="48.677012"/>
    </g>
   </g>
   <g id="line2d_15">
    <path clip-path="url(#p83505cc78d)" d="M 176.851853 59.744761 
L 186.348734 69.634652 
L 195.845615 76.911971 
L 205.342496 82.932171 
L 214.839377 92.862661 
L 224.336258 115.001448 
" style="fill:none;stroke:#496aaf;stroke-dasharray:1.85,0.8;stroke-dashoffset:0;stroke-opacity:0.5;stroke-width:0.5;"/>
    <defs>
     <path d="M 0 2.5 
C 0.663008 2.5 1.29895 2.236584 1.767767 1.767767 
C 2.236584 1.29895 2.5 0.663008 2.5 0 
C 2.5 -0.663008 2.236584 -1.29895 1.767767 -1.767767 
C 1.29895 -2.236584 0.663008 -2.5 0 -2.5 
C -0.663008 -2.5 -1.29895 -2.236584 -1.767767 -1.767767 
C -2.236584 -1.29895 -2.5 -0.663008 -2.5 0 
C -2.5 0.663008 -2.236584 1.29895 -1.767767 1.767767 
C -1.29895 2.236584 -0.663008 2.5 0 2.5 
z
" id="mc7f51d8bd3" style="stroke:#496aaf;stroke-opacity:0.5;stroke-width:0.75;"/>
    </defs>
    <g clip-path="url(#p83505cc78d)">
     <use style="fill-opacity:0;stroke:#496aaf;stroke-opacity:0.5;stroke-width:0.75;" x="176.851853" xlink:href="#mc7f51d8bd3" y="59.744761"/>
     <use style="fill-opacity:0;stroke:#496aaf;stroke-opacity:0.5;stroke-width:0.75;" x="186.348734" xlink:href="#mc7f51d8bd3" y="69.634652"/>
     <use style="fill-opacity:0;stroke:#496aaf;stroke-opacity:0.5;stroke-width:0.75;" x="195.845615" xlink:href="#mc7f51d8bd3" y="76.911971"/>
     <use style="fill-opacity:0;stroke:#496aaf;stroke-opacity:0.5;stroke-width:0.75;" x="205.342496" xlink:href="#mc7f51d8bd3" y="82.932171"/>
     <use style="fill-opacity:0;stroke:#496aaf;stroke-opacity:0.5;stroke-width:0.75;" x="214.839377" xlink:href="#mc7f51d8bd3" y="92.862661"/>
     <use style="fill-opacity:0;stroke:#496aaf;stroke-opacity:0.5;stroke-width:0.75;" x="224.336258" xlink:href="#mc7f51d8bd3" y="115.001448"/>
    </g>
   </g>
   <g id="patch_3">
    <path d="M 24.901757 120.796701 
L 24.901757 0.72 
" style="fill:none;stroke:#000000;stroke-linecap:square;stroke-linejoin:miter;stroke-width:0.5;"/>
   </g>
   <g id="patch_4">
    <path d="M 233.833139 120.796701 
L 233.833139 0.72 
" style="fill:none;stroke:#000000;stroke-linecap:square;stroke-linejoin:miter;stroke-width:0.5;"/>
   </g>
   <g id="patch_5">
    <path d="M 24.901757 120.796701 
L 233.833139 120.796701 
" style="fill:none;stroke:#000000;stroke-linecap:square;stroke-linejoin:miter;stroke-width:0.5;"/>
   </g>
   <g id="patch_6">
    <path d="M 24.901757 0.72 
L 233.833139 0.72 
" style="fill:none;stroke:#000000;stroke-linecap:square;stroke-linejoin:miter;stroke-width:0.5;"/>
   </g>
   <g id="text_12">
    <!-- $V_{\rm QMC} = 54.3(1)\ \mathrm{K}$ -->
    <g transform="translate(61.197304 41.06106)scale(0.09 -0.09)">
     <defs>
      <path d="M 4115 2048 
C 4211 2048 4307 2048 4307 2156 
C 4307 2272 4198 2272 4090 2272 
L 512 2272 
C 403 2272 294 2272 294 2156 
C 294 2048 390 2048 486 2048 
L 4115 2048 
z
M 4090 927 
C 4198 927 4307 927 4307 1043 
C 4307 1152 4211 1152 4115 1152 
L 486 1152 
C 390 1152 294 1152 294 1043 
C 294 927 403 927 512 927 
L 4090 927 
z
" id="CMR17-3d" transform="scale(0.015625)"/>
      <path d="M 1702 4083 
C 1702 4217 1696 4224 1606 4224 
C 1357 3927 979 3833 621 3820 
C 602 3820 570 3820 563 3808 
C 557 3795 557 3782 557 3648 
C 755 3648 1088 3686 1344 3839 
L 1344 467 
C 1344 243 1331 166 781 166 
L 589 166 
L 589 0 
C 896 6 1216 12 1523 12 
C 1830 12 2150 6 2458 0 
L 2458 166 
L 2266 166 
C 1715 166 1702 236 1702 467 
L 1702 4083 
z
" id="CMR17-31" transform="scale(0.015625)"/>
     </defs>
     <use transform="scale(0.996264)" xlink:href="#CMMI12-56"/>
     <use transform="translate(56.869579 -14.943915)scale(0.697382)" xlink:href="#CMR17-51"/>
     <use transform="translate(107.069711 -14.943915)scale(0.697382)" xlink:href="#CMR17-4d"/>
     <use transform="translate(166.350307 -14.943915)scale(0.697382)" xlink:href="#CMR17-43"/>
     <use transform="translate(241.079153 0)scale(0.996264)" xlink:href="#CMR17-3d"/>
     <use transform="translate(340.46795 0)scale(0.996264)" xlink:href="#CMR17-35"/>
     <use transform="translate(386.158428 0)scale(0.996264)" xlink:href="#CMR17-34"/>
     <use transform="translate(431.848905 0)scale(0.996264)" xlink:href="#CMMI12-3a"/>
     <use transform="translate(458.946082 0)scale(0.996264)" xlink:href="#CMR17-33"/>
     <use transform="translate(504.636559 0)scale(0.996264)" xlink:href="#CMR17-28"/>
     <use transform="translate(539.917327 0)scale(0.996264)" xlink:href="#CMR17-31"/>
     <use transform="translate(585.607804 0)scale(0.996264)" xlink:href="#CMR17-29"/>
     <use transform="translate(650.964538 0)scale(0.996264)" xlink:href="#CMR17-4b"/>
    </g>
   </g>
   <g id="legend_1">
    <g id="LineCollection_5">
     <path d="M 186.010878 16.47 
L 186.010878 7.47 
" style="fill:none;stroke:#5e4fa2;stroke-width:0.5;"/>
    </g>
    <g id="line2d_16">
     <path d="M 185.673378 11.97 
L 186.348378 11.97 
" style="fill:none;stroke:#aea6d0;stroke-dasharray:1.85,0.8;stroke-dashoffset:0;stroke-width:0.5;"/>
    </g>
    <g id="line2d_17">
     <g>
      <use style="fill-opacity:0;stroke:#5e4fa2;stroke-width:0.75;" x="186.010878" xlink:href="#m02c225c0b8" y="11.97"/>
     </g>
    </g>
    <g id="text_13">
     <!-- $N_\graphene = 24$ -->
     <g transform="translate(190.848378 15.12)scale(0.09 -0.09)">
      <defs>
       <path d="M 4736 3682 
C 4806 3956 4909 4147 5395 4166 
C 5414 4166 5491 4172 5491 4281 
C 5491 4352 5434 4352 5408 4352 
C 5280 4352 4954 4339 4826 4339 
L 4518 4339 
C 4429 4339 4314 4352 4224 4352 
C 4186 4352 4109 4352 4109 4230 
C 4109 4166 4160 4166 4205 4166 
C 4589 4153 4614 4007 4614 3892 
C 4614 3835 4608 3816 4589 3726 
L 3866 854 
L 2496 4243 
C 2451 4345 2445 4352 2304 4352 
L 1523 4352 
C 1395 4352 1338 4352 1338 4230 
C 1338 4166 1382 4166 1504 4166 
C 1536 4166 1914 4166 1914 4109 
C 1914 4096 1901 4045 1894 4026 
L 1043 650 
C 966 338 813 204 390 185 
C 358 185 294 179 294 64 
C 294 0 358 0 378 0 
C 506 0 832 12 960 12 
L 1267 12 
C 1357 12 1466 0 1555 0 
C 1600 0 1670 0 1670 121 
C 1670 179 1606 185 1581 185 
C 1370 191 1165 230 1165 459 
C 1165 510 1178 567 1190 618 
L 2054 4026 
C 2093 3962 2093 3949 2118 3892 
L 3642 115 
C 3674 38 3686 0 3744 0 
C 3808 0 3814 19 3840 128 
L 4736 3682 
z
" id="CMMI12-4e" transform="scale(0.015625)"/>
       <path d="M 4045 2645 
L 4045 2240 
L 5050 2240 
L 4006 448 
L 1901 448 
L 845 2246 
L 1901 4096 
L 4006 4096 
L 4512 3200 
L 4941 3200 
L 4250 4544 
L 1658 4544 
L 352 2246 
L 1658 0 
L 4250 0 
L 5555 2240 
L 5037 2645 
L 4045 2645 
z
" id="SVRsymbols-73" transform="scale(0.015625)"/>
      </defs>
      <use transform="scale(0.996264)" xlink:href="#CMMI12-4e"/>
      <use transform="translate(78.115119 -15.337838)scale(0.697382)" xlink:href="#SVRsymbols-73"/>
      <use transform="translate(170.655619 0)scale(0.996264)" xlink:href="#CMR17-3d"/>
      <use transform="translate(270.044417 0)scale(0.996264)" xlink:href="#CMR17-32"/>
      <use transform="translate(315.734894 0)scale(0.996264)" xlink:href="#CMR17-34"/>
     </g>
    </g>
    <g id="LineCollection_6">
     <path d="M 186.010878 26.763462 
L 186.010878 17.763462 
" style="fill:none;stroke:#496aaf;stroke-width:0.5;"/>
    </g>
    <g id="line2d_18">
     <path d="M 185.673378 22.263462 
L 186.348378 22.263462 
" style="fill:none;stroke:#a3b4d6;stroke-dasharray:1.85,0.8;stroke-dashoffset:0;stroke-width:0.5;"/>
    </g>
    <g id="line2d_19">
     <g>
      <use style="fill-opacity:0;stroke:#496aaf;stroke-width:0.75;" x="186.010878" xlink:href="#me0d4895c26" y="22.263462"/>
     </g>
    </g>
    <g id="text_14">
     <!-- $N_\graphene = 48$ -->
     <g transform="translate(190.848378 25.413462)scale(0.09 -0.09)">
      <use transform="scale(0.996264)" xlink:href="#CMMI12-4e"/>
      <use transform="translate(78.115119 -15.337838)scale(0.697382)" xlink:href="#SVRsymbols-73"/>
      <use transform="translate(170.655619 0)scale(0.996264)" xlink:href="#CMR17-3d"/>
      <use transform="translate(270.044417 0)scale(0.996264)" xlink:href="#CMR17-34"/>
      <use transform="translate(315.734894 0)scale(0.996264)" xlink:href="#CMR17-38"/>
     </g>
    </g>
   </g>
  </g>
 </g>
 <defs>
  <clipPath id="p83505cc78d">
   <rect height="120.076701" width="208.931382" x="24.901757" y="0.72"/>
  </clipPath>
 </defs>
</svg>
