<?xml version="1.0" encoding="utf-8" standalone="no"?>
<!DOCTYPE svg PUBLIC "-//W3C//DTD SVG 1.1//EN"
  "http://www.w3.org/Graphics/SVG/1.1/DTD/svg11.dtd">
<!-- Created with matplotlib (https://matplotlib.org/) -->
<svg height="145.761683pt" version="1.1" viewBox="0 0 234.553139 145.761683" width="234.553139pt" xmlns="http://www.w3.org/2000/svg" xmlns:xlink="http://www.w3.org/1999/xlink">
 <metadata>
  <rdf:RDF xmlns:cc="http://creativecommons.org/ns#" xmlns:dc="http://purl.org/dc/elements/1.1/" xmlns:rdf="http://www.w3.org/1999/02/22-rdf-syntax-ns#">
   <cc:Work>
    <dc:type rdf:resource="http://purl.org/dc/dcmitype/StillImage"/>
    <dc:date>2021-05-19T21:39:48.984588</dc:date>
    <dc:format>image/svg+xml</dc:format>
    <dc:creator>
     <cc:Agent>
      <dc:title>Matplotlib v3.3.4, https://matplotlib.org/</dc:title>
     </cc:Agent>
    </dc:creator>
   </cc:Work>
  </rdf:RDF>
 </metadata>
 <defs>
  <style type="text/css">*{stroke-linecap:butt;stroke-linejoin:round;}</style>
 </defs>
 <g id="figure_1">
  <g id="patch_1">
   <path d="M 0 145.761683 
L 234.553139 145.761683 
L 234.553139 0 
L 0 0 
z
" style="fill:none;"/>
  </g>
  <g id="axes_1">
   <g id="patch_2">
    <path d="M 24.901757 120.796701 
L 233.833139 120.796701 
L 233.833139 0.72 
L 24.901757 0.72 
z
" style="fill:none;"/>
   </g>
   <g id="line2d_1">
    <path clip-path="url(#pa57f7f7536)" d="M 138.864329 120.796701 
L 138.864329 0.72 
" style="fill:none;stroke:#808080;stroke-dasharray:0.5,0.825;stroke-dashoffset:0;stroke-opacity:0.5;stroke-width:0.5;"/>
   </g>
   <g id="line2d_2">
    <path clip-path="url(#pa57f7f7536)" d="M 24.901757 30.994323 
L 233.833139 30.994323 
" style="fill:none;stroke:#808080;stroke-dasharray:0.5,0.825;stroke-dashoffset:0;stroke-opacity:0.5;stroke-width:0.5;"/>
   </g>
   <g id="matplotlib.axis_1">
    <g id="xtick_1">
     <g id="line2d_3">
      <defs>
       <path d="M 0 0 
L 0 2 
" id="m6dfb1a4e6f" style="stroke:#000000;stroke-width:0.5;"/>
      </defs>
      <g>
       <use style="stroke:#000000;stroke-width:0.5;" x="53.3924" xlink:href="#m6dfb1a4e6f" y="120.796701"/>
      </g>
     </g>
     <g id="text_1">
      <!-- $\mathdefault{4.6}$ -->
      <g transform="translate(47.504796 131.023351)scale(0.09 -0.09)">
       <defs>
        <path d="M 33.59375 64.796875 
C 33.59375 66.890625 33.5 67 31.703125 67 
L 2 19.59375 
L 2 17 
L 27.796875 17 
L 27.796875 7.1875 
C 27.796875 3.59375 27.59375 2.59375 20.59375 2.59375 
L 18.703125 2.59375 
L 18.703125 0 
C 21.90625 0.1875 27.296875 0.1875 30.703125 0.1875 
C 34.09375 0.1875 39.5 0.1875 42.703125 0 
L 42.703125 2.59375 
L 40.796875 2.59375 
C 33.796875 2.59375 33.59375 3.59375 33.59375 7.1875 
L 33.59375 17 
L 43.796875 17 
L 43.796875 19.59375 
L 33.59375 19.59375 
z
M 28.09375 58.171875 
L 28.09375 19.59375 
L 4 19.59375 
z
" id="CMR17-52"/>
        <path d="M 18.40625 4.796875 
C 18.40625 7.6875 16 9.6875 13.59375 9.6875 
C 10.703125 9.6875 8.703125 7.296875 8.703125 4.890625 
C 8.703125 2 11.09375 0 13.5 0 
C 16.40625 0 18.40625 2.390625 18.40625 4.796875 
z
" id="CMMI12-58"/>
        <path d="M 10.59375 34.34375 
C 10.59375 58 21.796875 63.6875 28.296875 63.6875 
C 30.40625 63.6875 35.5 63.265625 37.5 59.09375 
C 35.90625 59.09375 32.90625 59.09375 32.90625 55.59375 
C 32.90625 52.890625 35.09375 52 36.5 52 
C 37.40625 52 40.09375 52.390625 40.09375 55.796875 
C 40.09375 62.296875 35.09375 66 28.203125 66 
C 16.296875 66 3.796875 53.296875 3.796875 31.421875 
C 3.796875 4.015625 15.09375 -2 23.09375 -2 
C 32.796875 -2 42 6.734375 42 20.234375 
C 42 32.828125 33.90625 42 23.703125 42 
C 17.59375 42 13.09375 37.96875 10.59375 30.921875 
z
M 23.09375 0.390625 
C 10.796875 0.390625 10.796875 18.9375 10.796875 22.65625 
C 10.796875 29.90625 14.203125 40.390625 23.5 40.390625 
C 25.203125 40.390625 30.09375 40.390625 33.40625 33.4375 
C 35.203125 29.515625 35.203125 25.375 35.203125 20.34375 
C 35.203125 14.90625 35.203125 10.875 33.09375 6.84375 
C 30.90625 2.703125 27.703125 0.390625 23.09375 0.390625 
z
" id="CMR17-54"/>
       </defs>
       <use transform="scale(0.996264)" xlink:href="#CMR17-52"/>
       <use transform="translate(45.690477 0)scale(0.996264)" xlink:href="#CMMI12-58"/>
       <use transform="translate(72.787654 0)scale(0.996264)" xlink:href="#CMR17-54"/>
      </g>
     </g>
    </g>
    <g id="xtick_2">
     <g id="line2d_4">
      <g>
       <use style="stroke:#000000;stroke-width:0.5;" x="91.379924" xlink:href="#m6dfb1a4e6f" y="120.796701"/>
      </g>
     </g>
     <g id="text_2">
      <!-- $\mathdefault{4.8}$ -->
      <g transform="translate(85.49232 131.023351)scale(0.09 -0.09)">
       <defs>
        <path d="M 27.203125 35.765625 
C 33.5 38.96875 39.90625 43.796875 39.90625 51.53125 
C 39.90625 60.6875 31.09375 66 23 66 
C 13.90625 66 5.90625 59.375 5.90625 50.234375 
C 5.90625 47.71875 6.5 43.390625 10.40625 39.578125 
C 11.40625 38.578125 15.59375 35.5625 18.296875 33.65625 
C 13.796875 31.34375 3.296875 25.8125 3.296875 14.765625 
C 3.296875 4.40625 13.09375 -2 22.796875 -2 
C 33.5 -2 42.5 5.71875 42.5 15.96875 
C 42.5 25.109375 36.40625 29.328125 32.40625 32.046875 
z
M 14.09375 44.609375 
C 13.296875 45.109375 9.296875 48.21875 9.296875 52.9375 
C 9.296875 59.078125 15.59375 63.6875 22.796875 63.6875 
C 30.703125 63.6875 36.5 58.0625 36.5 51.53125 
C 36.5 42.1875 26.09375 36.859375 25.59375 36.859375 
C 25.5 36.859375 25.40625 36.859375 24.59375 37.46875 
z
M 32.5 24 
C 34 22.90625 38.796875 19.578125 38.796875 13.453125 
C 38.796875 6.015625 31.40625 0.390625 23 0.390625 
C 13.90625 0.390625 7 6.921875 7 14.859375 
C 7 22.796875 13.09375 29.4375 20 32.546875 
z
" id="CMR17-56"/>
       </defs>
       <use transform="scale(0.996264)" xlink:href="#CMR17-52"/>
       <use transform="translate(45.690477 0)scale(0.996264)" xlink:href="#CMMI12-58"/>
       <use transform="translate(72.787654 0)scale(0.996264)" xlink:href="#CMR17-56"/>
      </g>
     </g>
    </g>
    <g id="xtick_3">
     <g id="line2d_5">
      <g>
       <use style="stroke:#000000;stroke-width:0.5;" x="129.367448" xlink:href="#m6dfb1a4e6f" y="120.796701"/>
      </g>
     </g>
     <g id="text_3">
      <!-- $\mathdefault{5.0}$ -->
      <g transform="translate(123.479844 131.023351)scale(0.09 -0.09)">
       <defs>
        <path d="M 11.40625 58.59375 
C 12.40625 58.1875 16.5 56.890625 20.703125 56.890625 
C 30 56.890625 35.09375 61.890625 38 64.6875 
C 38 65.484375 38 66 37.40625 66 
C 37.296875 66 37.09375 66 36.296875 65.59375 
C 32.796875 64.09375 28.703125 63 23.703125 63 
C 20.703125 63 16.203125 63.359375 11.296875 65.484375 
C 10.203125 66 10 66 9.90625 66 
C 9.40625 66 9.296875 65.890625 9.296875 63.90625 
L 9.296875 34.859375 
C 9.296875 33.015625 9.296875 32.5 10.296875 32.5 
C 10.796875 32.5 11 32.703125 11.5 33.421875 
C 14.703125 38.046875 19.09375 40 24.09375 40 
C 27.59375 40 35.09375 37.734375 35.09375 20.203125 
C 35.09375 16.984375 35.09375 11.1875 32.09375 6.59375 
C 29.59375 2.484375 25.703125 0.390625 21.40625 0.390625 
C 14.796875 0.390625 8.09375 4.984375 6.296875 12.6875 
C 6.703125 12.59375 7.5 12.390625 7.90625 12.390625 
C 9.203125 12.390625 11.703125 13.09375 11.703125 16.1875 
C 11.703125 18.890625 9.796875 20 7.90625 20 
C 5.59375 20 4.09375 18.59375 4.09375 15.796875 
C 4.09375 7.09375 11 -2 21.59375 -2 
C 31.90625 -2 41.703125 6.890625 41.703125 19.796875 
C 41.703125 32.09375 33.90625 41.59375 24.203125 41.59375 
C 19.09375 41.59375 14.796875 39.6875 11.40625 36 
z
" id="CMR17-53"/>
        <path d="M 42 31.84375 
C 42 37.96875 41.90625 48.421875 37.703125 56.453125 
C 34 63.484375 28.09375 66 22.90625 66 
C 18.09375 66 12 63.78125 8.203125 56.5625 
C 4.203125 49.015625 3.796875 39.671875 3.796875 31.84375 
C 3.796875 26.109375 3.90625 17.375 7 9.734375 
C 11.296875 -0.609375 19 -2 22.90625 -2 
C 27.5 -2 34.5 -0.109375 38.59375 9.4375 
C 41.59375 16.375 42 24.5 42 31.84375 
z
M 22.90625 -0.40625 
C 16.5 -0.40625 12.703125 5.125 11.296875 12.75 
C 10.203125 18.6875 10.203125 27.328125 10.203125 32.953125 
C 10.203125 40.6875 10.203125 47.109375 11.5 53.234375 
C 13.40625 61.78125 19 64.390625 22.90625 64.390625 
C 27 64.390625 32.296875 61.671875 34.203125 53.4375 
C 35.5 47.71875 35.59375 40.984375 35.59375 32.953125 
C 35.59375 26.421875 35.59375 18.375 34.40625 12.453125 
C 32.296875 1.5 26.40625 -0.40625 22.90625 -0.40625 
z
" id="CMR17-48"/>
       </defs>
       <use transform="scale(0.996264)" xlink:href="#CMR17-53"/>
       <use transform="translate(45.690477 0)scale(0.996264)" xlink:href="#CMMI12-58"/>
       <use transform="translate(72.787654 0)scale(0.996264)" xlink:href="#CMR17-48"/>
      </g>
     </g>
    </g>
    <g id="xtick_4">
     <g id="line2d_6">
      <g>
       <use style="stroke:#000000;stroke-width:0.5;" x="167.354972" xlink:href="#m6dfb1a4e6f" y="120.796701"/>
      </g>
     </g>
     <g id="text_4">
      <!-- $\mathdefault{5.2}$ -->
      <g transform="translate(161.467368 131.023351)scale(0.09 -0.09)">
       <defs>
        <path d="M 41.703125 15.46875 
L 39.90625 15.46875 
C 38.90625 8.390625 38.09375 7.1875 37.703125 6.59375 
C 37.203125 5.796875 30 5.796875 28.59375 5.796875 
L 9.40625 5.796875 
C 13 9.6875 20 16.765625 28.5 24.9375 
C 34.59375 30.71875 41.703125 37.5 41.703125 47.390625 
C 41.703125 59.1875 32.296875 66 21.796875 66 
C 10.796875 66 4.09375 56.296875 4.09375 47.296875 
C 4.09375 43.390625 7 42.890625 8.203125 42.890625 
C 9.203125 42.890625 12.203125 43.484375 12.203125 46.984375 
C 12.203125 50.09375 9.59375 51 8.203125 51 
C 7.59375 51 7 50.890625 6.59375 50.6875 
C 8.5 59.1875 14.296875 63.390625 20.40625 63.390625 
C 29.09375 63.390625 34.796875 56.5 34.796875 47.390625 
C 34.796875 38.703125 29.703125 31.21875 24 24.734375 
L 4.09375 2.296875 
L 4.09375 0 
L 39.296875 0 
z
" id="CMR17-50"/>
       </defs>
       <use transform="scale(0.996264)" xlink:href="#CMR17-53"/>
       <use transform="translate(45.690477 0)scale(0.996264)" xlink:href="#CMMI12-58"/>
       <use transform="translate(72.787654 0)scale(0.996264)" xlink:href="#CMR17-50"/>
      </g>
     </g>
    </g>
    <g id="xtick_5">
     <g id="line2d_7">
      <g>
       <use style="stroke:#000000;stroke-width:0.5;" x="205.342496" xlink:href="#m6dfb1a4e6f" y="120.796701"/>
      </g>
     </g>
     <g id="text_5">
      <!-- $\mathdefault{5.4}$ -->
      <g transform="translate(199.454892 131.023351)scale(0.09 -0.09)">
       <use transform="scale(0.996264)" xlink:href="#CMR17-53"/>
       <use transform="translate(45.690477 0)scale(0.996264)" xlink:href="#CMMI12-58"/>
       <use transform="translate(72.787654 0)scale(0.996264)" xlink:href="#CMR17-52"/>
      </g>
     </g>
    </g>
    <g id="text_6">
     <!-- $\alabel{L_z}{\angstrom}$ -->
     <g transform="translate(114.485177 142.800089)scale(0.09 -0.09)">
      <defs>
       <path d="M 36.703125 60.3125 
C 37.59375 64.09375 37.90625 65.09375 46.703125 65.09375 
C 49.40625 65.09375 50.09375 65.09375 50.09375 66.984375 
C 50.09375 68 49 68 48.59375 68 
C 46.59375 68 44.296875 67.796875 42.296875 67.796875 
L 28.90625 67.796875 
C 27 67.796875 24.796875 68 22.90625 68 
C 22.09375 68 21 68 21 66.09375 
C 21 65.09375 21.90625 65.09375 23.40625 65.09375 
C 29.5 65.09375 29.5 64.296875 29.5 63.203125 
C 29.5 63 29.5 62.40625 29.09375 60.90625 
L 15.59375 7.375 
C 14.703125 3.890625 14.5 2.890625 7.5 2.890625 
C 5.59375 2.890625 4.59375 2.890625 4.59375 1.09375 
C 4.59375 0 5.203125 0 7.203125 0 
L 52 0 
C 54.203125 0 54.296875 0.09375 55 1.890625 
L 62.703125 23.09375 
C 62.90625 23.59375 63.09375 24.1875 63.09375 24.484375 
C 63.09375 25.078125 62.59375 25.484375 62.09375 25.484375 
C 62 25.484375 61.5 25.484375 61.296875 25.078125 
C 61.09375 24.984375 61.09375 24.78125 60.296875 22.890625 
C 57.09375 14.140625 52.59375 2.890625 35.703125 2.890625 
L 26.09375 2.890625 
C 24.703125 2.890625 24.5 2.890625 23.90625 2.984375 
C 22.796875 3.09375 22.703125 3.296875 22.703125 4.09375 
C 22.703125 4.78125 22.90625 5.375 23.09375 6.28125 
z
" id="CMMI12-76"/>
       <path d="M 12.703125 7.59375 
C 17 12.640625 20.5 15.859375 25.5 20.515625 
C 31.5 25.890625 34.09375 28.46875 35.5 30.03125 
C 42.5 37.046875 46 42.390625 46 43.1875 
C 46 44 45.203125 44 45 44 
C 44.296875 44 44.09375 43.59375 43.59375 42.890625 
C 41.09375 38.59375 38.703125 37 36.09375 37 
C 34 37 32.90625 37.546875 31 39.796875 
C 28.90625 42.296875 27.203125 44 24.296875 44 
C 17 44 12.59375 35.390625 12.59375 33.234375 
C 12.59375 32.921875 12.703125 32.296875 13.59375 32.296875 
C 14.40625 32.296875 14.5 32.71875 14.796875 33.4375 
C 16.5 37.296875 21.296875 37.734375 23.203125 37.734375 
C 25.296875 37.734375 27.296875 37.296875 29.40625 36.59375 
C 33.203125 34.984375 34.796875 34.984375 35.796875 34.984375 
C 36.5 34.984375 36.90625 34.984375 37.40625 35.09375 
C 34.09375 31.0625 28.703125 26.09375 24.203125 21.859375 
L 14.09375 12.234375 
C 8 5.9375 4.296875 0.5 4.296875 -0.203125 
C 4.296875 -0.8125 4.796875 -1 5.40625 -1 
C 6 -1 6.09375 -0.90625 6.796875 0.296875 
C 8.40625 2.796875 11.59375 6 15.296875 6 
C 17.40625 6 18.40625 5.5625 20.40625 3.296875 
C 22.296875 1.09375 24 -1 27.203125 -1 
C 37 -1 42.59375 11.296875 42.59375 13.6875 
C 42.59375 14.09375 42.5 14.71875 41.5 14.71875 
C 40.703125 14.71875 40.59375 14.296875 40.296875 13.265625 
C 38.09375 7.1875 32.203125 5.25 28.296875 5.25 
C 26.203125 5.25 24.203125 5.6875 22.09375 6.390625 
C 18.09375 8 17 8 15.703125 8 
C 14.703125 8 13.59375 8 12.703125 7.59375 
z
" id="CMMI12-122"/>
       <path d="M 30.59375 -24.40625 
C 30.59375 -24.3125 30.59375 -24.109375 30.296875 -23.8125 
C 25.703125 -19.109375 13.40625 -6.296875 13.40625 24.9375 
C 13.40625 56.171875 25.5 68.875 30.40625 73.890625 
C 30.40625 73.984375 30.59375 74.1875 30.59375 74.484375 
C 30.59375 74.796875 30.296875 75 29.90625 75 
C 28.796875 75 20.296875 67.578125 15.40625 56.5625 
C 10.40625 45.453125 9 34.65625 9 25.046875 
C 9 17.828125 9.703125 5.625 15.703125 -7.296875 
C 20.5 -17.703125 28.703125 -25 29.90625 -25 
C 30.40625 -25 30.59375 -24.8125 30.59375 -24.40625 
z
" id="CMR17-40"/>
       <path d="M 32.59375 64 
C 29 63.328125 25.40625 60.875 25.40625 56.453125 
L 25.40625 55.78125 
C 25.90625 51.921875 29.5 49 33.59375 49 
C 37.703125 49 41.703125 52.484375 41.703125 56.546875 
L 41.703125 57.296875 
C 41.203125 61.890625 37.59375 65 33.5 65 
C 33.203125 64.09375 32.90625 64 32.59375 64 
z
M 26.703125 55.78125 
L 26.703125 56.453125 
C 26.703125 61 30 63.390625 33.703125 63.390625 
C 37.40625 63.390625 39.90625 60.890625 40.40625 57.5 
L 40.40625 56.796875 
C 40.40625 52.390625 37.09375 50 33.40625 50 
C 29.703125 50 27.203125 52.5 26.703125 55.890625 
z
" id="Computer_Modern_Roman-6"/>
       <path d="M 36.296875 69.390625 
C 35.796875 70.6875 35.59375 71 34.59375 71 
C 33.59375 71 33.40625 70.6875 32.90625 69.390625 
L 11.703125 9.0625 
C 9.796875 3.6875 5.796875 2.59375 2.296875 2.59375 
L 2.296875 0 
C 4.09375 0.1875 8.09375 0.1875 10 0.1875 
C 12.5 0.1875 16.5 0.1875 18.90625 0 
L 18.90625 2.59375 
C 14.203125 2.796875 13.5 5.96875 13.5 7.171875 
C 13.5 8.0625 13.703125 8.5625 13.90625 9.15625 
L 19.203125 24 
L 45.40625 24 
L 51.40625 7.078125 
C 51.90625 5.875 51.90625 5.671875 51.90625 5.28125 
C 51.90625 2.59375 47.59375 2.59375 45.703125 2.59375 
L 45.703125 0 
C 48.59375 0.1875 53.796875 0.1875 56.90625 0.1875 
C 59.5 0.1875 64.5 0.1875 66.90625 0 
L 66.90625 2.59375 
C 61.59375 2.59375 59.796875 2.59375 58.5 6.28125 
z
M 32.296875 61.3125 
L 44.5 26.59375 
L 20.09375 26.59375 
z
" id="CMR17-65"/>
       <path d="M 26.296875 24.9375 
C 26.296875 32.140625 25.59375 44.359375 19.59375 57.265625 
C 14.796875 67.6875 6.59375 75 5.40625 75 
C 5.09375 75 4.703125 74.890625 4.703125 74.390625 
C 4.703125 74.1875 4.796875 74.09375 4.90625 73.890625 
C 9.703125 68.875 21.90625 56.171875 21.90625 25.046875 
C 21.90625 -6.1875 9.796875 -18.90625 4.90625 -23.90625 
C 4.796875 -24.109375 4.703125 -24.203125 4.703125 -24.40625 
C 4.703125 -24.90625 5.09375 -25 5.40625 -25 
C 6.5 -25 15 -17.609375 19.90625 -6.59375 
C 24.90625 4.515625 26.296875 15.328125 26.296875 24.9375 
z
" id="CMR17-41"/>
      </defs>
      <use transform="scale(0.996264)" xlink:href="#CMMI12-76"/>
      <use transform="translate(66.370875 -14.943915)scale(0.697382)" xlink:href="#CMMI12-122"/>
      <use transform="translate(157.045448 0)scale(0.996264)" xlink:href="#CMR17-40"/>
      <use transform="translate(214.887866 52.703059)scale(0.356961)" xlink:href="#Computer_Modern_Roman-6"/>
      <use transform="translate(192.326216 0)scale(0.996264)" xlink:href="#CMR17-65"/>
      <use transform="translate(261.398646 0)scale(0.996264)" xlink:href="#CMR17-41"/>
     </g>
    </g>
   </g>
   <g id="matplotlib.axis_2">
    <g id="ytick_1">
     <g id="line2d_8">
      <defs>
       <path d="M 0 0 
L -2 0 
" id="m0447c4ce1b" style="stroke:#000000;stroke-width:0.5;"/>
      </defs>
      <g>
       <use style="stroke:#000000;stroke-width:0.5;" x="24.901757" xlink:href="#m0447c4ce1b" y="112.335064"/>
      </g>
     </g>
     <g id="text_7">
      <!-- $\mathdefault{30}$ -->
      <g transform="translate(11.686376 115.448389)scale(0.09 -0.09)">
       <defs>
        <path d="M 22.09375 34 
C 31 34 34.90625 26.140625 34.90625 17.09375 
C 34.90625 5.03125 28.5 0.390625 22.703125 0.390625 
C 17.40625 0.390625 8.796875 3.015625 6.09375 10.796875 
C 6.59375 10.59375 7.09375 10.59375 7.59375 10.59375 
C 10 10.59375 11.796875 12.1875 11.796875 14.796875 
C 11.796875 17.6875 9.59375 19 7.59375 19 
C 5.90625 19 3.296875 18.1875 3.296875 14.484375 
C 3.296875 5.234375 12.296875 -2 22.90625 -2 
C 34 -2 42.5 6.75 42.5 16.984375 
C 42.5 26.84375 34.5 34 25 35.09375 
C 32.59375 36.671875 39.90625 43.375 39.90625 52.390625 
C 39.90625 60.25 32 66 23 66 
C 13.90625 66 5.90625 60.34375 5.90625 52.296875 
C 5.90625 48.796875 8.5 48.1875 9.796875 48.1875 
C 11.90625 48.1875 13.703125 49.484375 13.703125 52.09375 
C 13.703125 54.6875 11.90625 56 9.796875 56 
C 9.40625 56 8.90625 56 8.5 55.796875 
C 11.40625 62.484375 19.296875 63.6875 22.796875 63.6875 
C 26.296875 63.6875 32.90625 61.96875 32.90625 52.296875 
C 32.90625 49.484375 32.5 44.546875 29.09375 40.21875 
C 26.09375 36.390625 22.703125 36.1875 19.40625 35.890625 
C 18.90625 35.890625 16.59375 35.6875 16.203125 35.6875 
C 15.5 35.59375 15.09375 35.5 15.09375 34.796875 
C 15.09375 34.09375 15.203125 34 17.203125 34 
z
" id="CMR17-51"/>
       </defs>
       <use transform="scale(0.996264)" xlink:href="#CMR17-51"/>
       <use transform="translate(45.690477 0)scale(0.996264)" xlink:href="#CMR17-48"/>
      </g>
     </g>
    </g>
    <g id="ytick_2">
     <g id="line2d_9">
      <g>
       <use style="stroke:#000000;stroke-width:0.5;" x="24.901757" xlink:href="#m0447c4ce1b" y="78.915512"/>
      </g>
     </g>
     <g id="text_8">
      <!-- $\mathdefault{40}$ -->
      <g transform="translate(11.686376 82.028837)scale(0.09 -0.09)">
       <use transform="scale(0.996264)" xlink:href="#CMR17-52"/>
       <use transform="translate(45.690477 0)scale(0.996264)" xlink:href="#CMR17-48"/>
      </g>
     </g>
    </g>
    <g id="ytick_3">
     <g id="line2d_10">
      <g>
       <use style="stroke:#000000;stroke-width:0.5;" x="24.901757" xlink:href="#m0447c4ce1b" y="45.49596"/>
      </g>
     </g>
     <g id="text_9">
      <!-- $\mathdefault{50}$ -->
      <g transform="translate(11.686376 48.609285)scale(0.09 -0.09)">
       <use transform="scale(0.996264)" xlink:href="#CMR17-53"/>
       <use transform="translate(45.690477 0)scale(0.996264)" xlink:href="#CMR17-48"/>
      </g>
     </g>
    </g>
    <g id="ytick_4">
     <g id="line2d_11">
      <g>
       <use style="stroke:#000000;stroke-width:0.5;" x="24.901757" xlink:href="#m0447c4ce1b" y="12.076407"/>
      </g>
     </g>
     <g id="text_10">
      <!-- $\mathdefault{60}$ -->
      <g transform="translate(11.686376 15.189733)scale(0.09 -0.09)">
       <use transform="scale(0.996264)" xlink:href="#CMR17-54"/>
       <use transform="translate(45.690477 0)scale(0.996264)" xlink:href="#CMR17-48"/>
      </g>
     </g>
    </g>
    <g id="text_11">
     <!-- $\alabel{V_{\rm QMC}}{\kelvin}$ -->
     <g transform="translate(7.444782 82.077535)rotate(-90)scale(0.09 -0.09)">
      <defs>
       <path d="M 61.90625 56.9375 
C 65.296875 62.296875 68.40625 64.6875 73.5 65.09375 
C 74.5 65.1875 75.296875 65.1875 75.296875 66.984375 
C 75.296875 67.390625 75.09375 68 74.203125 68 
C 72.40625 68 68.09375 67.796875 66.296875 67.796875 
C 63.40625 67.796875 60.40625 68 57.59375 68 
C 56.796875 68 55.796875 68 55.796875 66.09375 
C 55.796875 65.1875 56.703125 65.09375 57.09375 65.09375 
C 60.796875 64.78125 61.203125 63 61.203125 61.8125 
C 61.203125 60.3125 59.796875 58.03125 59.703125 57.9375 
L 28.296875 8.4375 
L 21.296875 62 
C 21.296875 64.890625 26.5 65.09375 27.59375 65.09375 
C 29.09375 65.09375 30 65.09375 30 66.984375 
C 30 68 28.90625 68 28.59375 68 
C 26.90625 68 24.90625 67.796875 23.203125 67.796875 
L 17.59375 67.796875 
C 10.296875 67.796875 7.296875 68 7.203125 68 
C 6.59375 68 5.40625 68 5.40625 66.1875 
C 5.40625 65.09375 6.09375 65.09375 7.703125 65.09375 
C 12.796875 65.09375 13.09375 64.1875 13.40625 61.703125 
L 21.40625 0.390625 
C 21.703125 -1.703125 21.703125 -2 23.09375 -2 
C 24.296875 -2 24.796875 -1.703125 25.796875 -0.109375 
z
" id="CMMI12-86"/>
       <path d="M 47.296875 0.484375 
C 59.203125 5.546875 67.296875 18.546875 67.296875 33.703125 
C 67.296875 54.4375 52.59375 70 36 70 
C 19 70 4.59375 54.234375 4.59375 33.703125 
C 4.59375 13.484375 19 -2 36 -2 
C 38.296875 -2 41.5 -1.703125 45.296875 -0.40625 
C 47 -12.703125 48.09375 -20 56.703125 -20 
C 67.296875 -20 67.796875 -4.328125 67.796875 -1.5 
C 67.796875 -0.5 67.796875 0.1875 67.09375 0.1875 
C 66.59375 0.1875 66.5 -0.5 66.5 -0.703125 
C 65.796875 -10.390625 60.40625 -12.40625 57.203125 -12.40625 
C 51.296875 -12.40625 49.203125 -7.0625 47.296875 0.484375 
z
M 30.59375 0.59375 
C 20.203125 3.859375 12 14.90625 12 33.703125 
C 12 57.78125 25.09375 68.1875 35.90625 68.1875 
C 47.09375 68.1875 59.90625 57.375 59.90625 33.703125 
C 59.90625 16.625 53.203125 7.234375 46.5 2.96875 
C 45 8.03125 42.59375 14 36.09375 14 
C 31.296875 14 28.59375 9.8125 28.59375 6.046875 
C 28.59375 3.765625 29.5 1.875 30.59375 0.59375 
z
M 44.90625 2.078125 
C 40.90625 -0.015625 37.703125 -0.203125 36 -0.203125 
C 31.5 -0.203125 30.203125 3.859375 30.203125 6.046875 
C 30.203125 9.125 32.296875 12.390625 36.09375 12.390625 
C 42.5 12.390625 44.09375 6.734375 44.90625 2.078125 
z
" id="CMR17-81"/>
       <path d="M 20.90625 66.390625 
C 20.296875 67.890625 20.203125 68 18.09375 68 
L 5.296875 68 
L 5.296875 65.390625 
C 12.203125 65.390625 13.296875 65.390625 13.296875 60.90625 
L 13.296875 9.75 
C 13.296875 7.265625 13.296875 2.59375 5.296875 2.59375 
L 5.296875 0 
C 7.59375 0.1875 11.796875 0.1875 14.296875 0.1875 
C 16.796875 0.1875 21 0.1875 23.296875 0 
L 23.296875 2.59375 
C 15.296875 2.59375 15.296875 7.265625 15.296875 9.75 
L 15.296875 64.984375 
L 15.40625 64.984375 
L 38.90625 1.59375 
C 39.296875 0.59375 39.5 0 40.296875 0 
C 41.09375 0 41.296875 0.59375 41.703125 1.59375 
L 65.40625 65.484375 
L 65.5 65.484375 
L 65.5 7.078125 
C 65.5 2.59375 64.40625 2.59375 57.5 2.59375 
L 57.5 0 
C 60.203125 0.1875 65.59375 0.1875 68.5 0.1875 
C 71.40625 0.1875 76.90625 0.1875 79.59375 0 
L 79.59375 2.59375 
C 72.703125 2.59375 71.59375 2.59375 71.59375 7.078125 
L 71.59375 60.90625 
C 71.59375 65.390625 72.703125 65.390625 79.59375 65.390625 
L 79.59375 68 
L 66.90625 68 
C 64.796875 68 64.703125 67.890625 64.09375 66.390625 
L 42.5 8.0625 
z
" id="CMR17-77"/>
       <path d="M 62.09375 67.984375 
C 62.09375 69.796875 62 69.890625 61.40625 69.890625 
C 61 69.890625 60.90625 69.796875 60.203125 68.59375 
L 55.796875 60.140625 
C 50.90625 66.390625 44.90625 70 37.203125 70 
C 20.09375 70 4.59375 54.796875 4.59375 34.046875 
C 4.59375 13.078125 20.09375 -2 37.296875 -2 
C 52.59375 -2 62.09375 11.578125 62.09375 23.15625 
C 62.09375 24.171875 62.09375 24.578125 61.203125 24.578125 
C 60.40625 24.578125 60.40625 24.265625 60.296875 23.359375 
C 59.5 9.25 49.5 0.59375 38.703125 0.59375 
C 28.5 0.59375 12.203125 7.84375 12.203125 34.046875 
C 12.203125 60.34375 28.796875 67.390625 38.5 67.390625 
C 49.796875 67.390625 58 57.515625 59.90625 43.515625 
C 60.09375 42.296875 60.09375 42.109375 61 42.109375 
C 62.09375 42.109375 62.09375 42.296875 62.09375 44.125 
z
" id="CMR17-67"/>
       <path d="M 36.90625 41.703125 
L 54.203125 58.921875 
C 57.796875 62.40625 61.59375 65.1875 67.203125 65.390625 
L 67.203125 68 
C 65.203125 67.890625 62.703125 67.796875 60.703125 67.796875 
C 58 67.796875 53.296875 67.796875 50.703125 68 
L 50.703125 65.390625 
C 53.296875 65.1875 53.703125 63.390625 53.703125 62.703125 
C 53.703125 62 53.296875 60.90625 52.90625 60.3125 
L 19.703125 27.171875 
L 19.703125 60.90625 
C 19.703125 65.390625 20.796875 65.390625 27.703125 65.390625 
L 27.703125 68 
C 24.796875 67.796875 19.5 67.796875 16.40625 67.796875 
C 13.296875 67.796875 8 67.796875 5.09375 68 
L 5.09375 65.390625 
C 12 65.390625 13.09375 65.390625 13.09375 60.90625 
L 13.09375 7.078125 
C 13.09375 2.59375 12 2.59375 5.09375 2.59375 
L 5.09375 0 
C 8 0.1875 13.296875 0.1875 16.40625 0.1875 
C 19.5 0.1875 24.796875 0.1875 27.703125 0 
L 27.703125 2.59375 
C 20.796875 2.59375 19.703125 2.59375 19.703125 7.078125 
L 19.703125 24.6875 
L 32.5 37.328125 
L 51.40625 8.46875 
C 52 7.46875 52.703125 6.171875 52.703125 5.1875 
C 52.703125 2.59375 49.90625 2.59375 48.59375 2.59375 
L 48.59375 0 
C 51.796875 0.1875 56.40625 0.1875 59.703125 0.1875 
C 62.09375 0.1875 66.203125 0.1875 68.5 0 
L 68.5 2.59375 
C 63.703125 2.59375 62.203125 3.1875 59.203125 7.765625 
z
" id="CMR17-75"/>
      </defs>
      <use transform="scale(0.996264)" xlink:href="#CMMI12-86"/>
      <use transform="translate(56.869579 -14.943915)scale(0.697382)" xlink:href="#CMR17-81"/>
      <use transform="translate(107.069711 -14.943915)scale(0.697382)" xlink:href="#CMR17-77"/>
      <use transform="translate(166.350307 -14.943915)scale(0.697382)" xlink:href="#CMR17-67"/>
      <use transform="translate(268.753162 0)scale(0.996264)" xlink:href="#CMR17-40"/>
      <use transform="translate(304.03393 0)scale(0.996264)" xlink:href="#CMR17-75"/>
      <use transform="translate(375.708707 0)scale(0.996264)" xlink:href="#CMR17-41"/>
     </g>
    </g>
   </g>
   <g id="LineCollection_1">
    <path clip-path="url(#pa57f7f7536)" d="M 34.398638 6.662248 
L 34.398638 6.178032 
" style="fill:none;stroke:#5e4fa2;stroke-width:0.5;"/>
    <path clip-path="url(#pa57f7f7536)" d="M 43.895519 7.451885 
L 43.895519 6.954039 
" style="fill:none;stroke:#5e4fa2;stroke-width:0.5;"/>
    <path clip-path="url(#pa57f7f7536)" d="M 53.3924 8.854693 
L 53.3924 8.425677 
" style="fill:none;stroke:#5e4fa2;stroke-width:0.5;"/>
    <path clip-path="url(#pa57f7f7536)" d="M 62.889281 9.414903 
L 62.889281 8.990329 
" style="fill:none;stroke:#5e4fa2;stroke-width:0.5;"/>
    <path clip-path="url(#pa57f7f7536)" d="M 72.386162 11.28166 
L 72.386162 10.814142 
" style="fill:none;stroke:#5e4fa2;stroke-width:0.5;"/>
    <path clip-path="url(#pa57f7f7536)" d="M 81.883043 13.011978 
L 81.883043 12.583001 
" style="fill:none;stroke:#5e4fa2;stroke-width:0.5;"/>
    <path clip-path="url(#pa57f7f7536)" d="M 91.379924 14.849009 
L 91.379924 14.336167 
" style="fill:none;stroke:#5e4fa2;stroke-width:0.5;"/>
    <path clip-path="url(#pa57f7f7536)" d="M 100.876805 17.778295 
L 100.876805 17.282794 
" style="fill:none;stroke:#5e4fa2;stroke-width:0.5;"/>
    <path clip-path="url(#pa57f7f7536)" d="M 110.373686 19.918157 
L 110.373686 19.492043 
" style="fill:none;stroke:#5e4fa2;stroke-width:0.5;"/>
    <path clip-path="url(#pa57f7f7536)" d="M 119.870567 23.448986 
L 119.870567 23.06079 
" style="fill:none;stroke:#5e4fa2;stroke-width:0.5;"/>
    <path clip-path="url(#pa57f7f7536)" d="M 129.367448 26.772807 
L 129.367448 26.333203 
" style="fill:none;stroke:#5e4fa2;stroke-width:0.5;"/>
    <path clip-path="url(#pa57f7f7536)" d="M 138.864329 30.656825 
L 138.864329 30.224356 
" style="fill:none;stroke:#5e4fa2;stroke-width:0.5;"/>
    <path clip-path="url(#pa57f7f7536)" d="M 148.36121 35.288282 
L 148.36121 34.691385 
" style="fill:none;stroke:#5e4fa2;stroke-width:0.5;"/>
    <path clip-path="url(#pa57f7f7536)" d="M 157.858091 40.814066 
L 157.858091 40.242894 
" style="fill:none;stroke:#5e4fa2;stroke-width:0.5;"/>
    <path clip-path="url(#pa57f7f7536)" d="M 167.354972 47.348256 
L 167.354972 46.758993 
" style="fill:none;stroke:#5e4fa2;stroke-width:0.5;"/>
   </g>
   <g id="LineCollection_2">
    <path clip-path="url(#pa57f7f7536)" d="M 176.851853 55.233138 
L 176.851853 54.643405 
" style="fill:none;stroke:#5e4fa2;stroke-opacity:0.5;stroke-width:0.5;"/>
    <path clip-path="url(#pa57f7f7536)" d="M 186.348734 65.077826 
L 186.348734 64.397873 
" style="fill:none;stroke:#5e4fa2;stroke-opacity:0.5;stroke-width:0.5;"/>
    <path clip-path="url(#pa57f7f7536)" d="M 195.845615 73.396887 
L 195.845615 72.75815 
" style="fill:none;stroke:#5e4fa2;stroke-opacity:0.5;stroke-width:0.5;"/>
    <path clip-path="url(#pa57f7f7536)" d="M 205.342496 82.773389 
L 205.342496 82.203618 
" style="fill:none;stroke:#5e4fa2;stroke-opacity:0.5;stroke-width:0.5;"/>
    <path clip-path="url(#pa57f7f7536)" d="M 214.839377 92.678979 
L 214.839377 91.96815 
" style="fill:none;stroke:#5e4fa2;stroke-opacity:0.5;stroke-width:0.5;"/>
    <path clip-path="url(#pa57f7f7536)" d="M 224.336258 104.415864 
L 224.336258 103.812316 
" style="fill:none;stroke:#5e4fa2;stroke-opacity:0.5;stroke-width:0.5;"/>
   </g>
   <g id="LineCollection_3">
    <path clip-path="url(#pa57f7f7536)" d="M 34.398638 7.093894 
L 34.398638 6.558349 
" style="fill:none;stroke:#496aaf;stroke-width:0.5;"/>
    <path clip-path="url(#pa57f7f7536)" d="M 43.895519 8.200947 
L 43.895519 7.641775 
" style="fill:none;stroke:#496aaf;stroke-width:0.5;"/>
    <path clip-path="url(#pa57f7f7536)" d="M 53.3924 9.17552 
L 53.3924 8.7003 
" style="fill:none;stroke:#496aaf;stroke-width:0.5;"/>
    <path clip-path="url(#pa57f7f7536)" d="M 62.889281 10.224683 
L 62.889281 9.742241 
" style="fill:none;stroke:#496aaf;stroke-width:0.5;"/>
    <path clip-path="url(#pa57f7f7536)" d="M 72.386162 12.222347 
L 72.386162 11.732366 
" style="fill:none;stroke:#496aaf;stroke-width:0.5;"/>
    <path clip-path="url(#pa57f7f7536)" d="M 81.883043 13.545957 
L 81.883043 13.045268 
" style="fill:none;stroke:#496aaf;stroke-width:0.5;"/>
    <path clip-path="url(#pa57f7f7536)" d="M 91.379924 15.374919 
L 91.379924 14.891069 
" style="fill:none;stroke:#496aaf;stroke-width:0.5;"/>
    <path clip-path="url(#pa57f7f7536)" d="M 100.876805 18.514495 
L 100.876805 17.995789 
" style="fill:none;stroke:#496aaf;stroke-width:0.5;"/>
    <path clip-path="url(#pa57f7f7536)" d="M 110.373686 20.775307 
L 110.373686 20.279159 
" style="fill:none;stroke:#496aaf;stroke-width:0.5;"/>
    <path clip-path="url(#pa57f7f7536)" d="M 119.870567 24.181171 
L 119.870567 23.707884 
" style="fill:none;stroke:#496aaf;stroke-width:0.5;"/>
    <path clip-path="url(#pa57f7f7536)" d="M 129.367448 27.156043 
L 129.367448 26.578778 
" style="fill:none;stroke:#496aaf;stroke-width:0.5;"/>
    <path clip-path="url(#pa57f7f7536)" d="M 138.864329 31.296749 
L 138.864329 30.691897 
" style="fill:none;stroke:#496aaf;stroke-width:0.5;"/>
    <path clip-path="url(#pa57f7f7536)" d="M 148.36121 36.286695 
L 148.36121 35.751037 
" style="fill:none;stroke:#496aaf;stroke-width:0.5;"/>
    <path clip-path="url(#pa57f7f7536)" d="M 157.858091 41.736122 
L 157.858091 41.073994 
" style="fill:none;stroke:#496aaf;stroke-width:0.5;"/>
    <path clip-path="url(#pa57f7f7536)" d="M 167.354972 49.170899 
L 167.354972 48.183126 
" style="fill:none;stroke:#496aaf;stroke-width:0.5;"/>
   </g>
   <g id="LineCollection_4">
    <path clip-path="url(#pa57f7f7536)" d="M 176.851853 60.175071 
L 176.851853 59.314452 
" style="fill:none;stroke:#496aaf;stroke-opacity:0.5;stroke-width:0.5;"/>
    <path clip-path="url(#pa57f7f7536)" d="M 186.348734 69.968534 
L 186.348734 69.30077 
" style="fill:none;stroke:#496aaf;stroke-opacity:0.5;stroke-width:0.5;"/>
    <path clip-path="url(#pa57f7f7536)" d="M 195.845615 77.232587 
L 195.845615 76.591354 
" style="fill:none;stroke:#496aaf;stroke-opacity:0.5;stroke-width:0.5;"/>
    <path clip-path="url(#pa57f7f7536)" d="M 205.342496 83.291455 
L 205.342496 82.572887 
" style="fill:none;stroke:#496aaf;stroke-opacity:0.5;stroke-width:0.5;"/>
    <path clip-path="url(#pa57f7f7536)" d="M 214.839377 93.275533 
L 214.839377 92.449789 
" style="fill:none;stroke:#496aaf;stroke-opacity:0.5;stroke-width:0.5;"/>
    <path clip-path="url(#pa57f7f7536)" d="M 224.336258 115.338669 
L 224.336258 114.664228 
" style="fill:none;stroke:#496aaf;stroke-opacity:0.5;stroke-width:0.5;"/>
   </g>
   <g id="line2d_12">
    <path clip-path="url(#pa57f7f7536)" d="M 34.398638 6.42014 
L 43.895519 7.202962 
L 53.3924 8.640185 
L 62.889281 9.202616 
L 72.386162 11.047901 
L 81.883043 12.79749 
L 91.379924 14.592588 
L 100.876805 17.530545 
L 110.373686 19.7051 
L 119.870567 23.254888 
L 129.367448 26.553005 
L 138.864329 30.440591 
L 148.36121 34.989834 
L 157.858091 40.52848 
L 167.354972 47.053624 
" style="fill:none;stroke:#aea6d0;stroke-dasharray:1.85,0.8;stroke-dashoffset:0;stroke-width:0.5;"/>
    <defs>
     <path d="M 0 2.5 
C 0.663008 2.5 1.29895 2.236584 1.767767 1.767767 
C 2.236584 1.29895 2.5 0.663008 2.5 0 
C 2.5 -0.663008 2.236584 -1.29895 1.767767 -1.767767 
C 1.29895 -2.236584 0.663008 -2.5 0 -2.5 
C -0.663008 -2.5 -1.29895 -2.236584 -1.767767 -1.767767 
C -2.236584 -1.29895 -2.5 -0.663008 -2.5 0 
C -2.5 0.663008 -2.236584 1.29895 -1.767767 1.767767 
C -1.29895 2.236584 -0.663008 2.5 0 2.5 
z
" id="m6ef0f5e006" style="stroke:#5e4fa2;stroke-width:0.75;"/>
    </defs>
    <g clip-path="url(#pa57f7f7536)">
     <use style="fill-opacity:0;stroke:#5e4fa2;stroke-width:0.75;" x="34.398638" xlink:href="#m6ef0f5e006" y="6.42014"/>
     <use style="fill-opacity:0;stroke:#5e4fa2;stroke-width:0.75;" x="43.895519" xlink:href="#m6ef0f5e006" y="7.202962"/>
     <use style="fill-opacity:0;stroke:#5e4fa2;stroke-width:0.75;" x="53.3924" xlink:href="#m6ef0f5e006" y="8.640185"/>
     <use style="fill-opacity:0;stroke:#5e4fa2;stroke-width:0.75;" x="62.889281" xlink:href="#m6ef0f5e006" y="9.202616"/>
     <use style="fill-opacity:0;stroke:#5e4fa2;stroke-width:0.75;" x="72.386162" xlink:href="#m6ef0f5e006" y="11.047901"/>
     <use style="fill-opacity:0;stroke:#5e4fa2;stroke-width:0.75;" x="81.883043" xlink:href="#m6ef0f5e006" y="12.79749"/>
     <use style="fill-opacity:0;stroke:#5e4fa2;stroke-width:0.75;" x="91.379924" xlink:href="#m6ef0f5e006" y="14.592588"/>
     <use style="fill-opacity:0;stroke:#5e4fa2;stroke-width:0.75;" x="100.876805" xlink:href="#m6ef0f5e006" y="17.530545"/>
     <use style="fill-opacity:0;stroke:#5e4fa2;stroke-width:0.75;" x="110.373686" xlink:href="#m6ef0f5e006" y="19.7051"/>
     <use style="fill-opacity:0;stroke:#5e4fa2;stroke-width:0.75;" x="119.870567" xlink:href="#m6ef0f5e006" y="23.254888"/>
     <use style="fill-opacity:0;stroke:#5e4fa2;stroke-width:0.75;" x="129.367448" xlink:href="#m6ef0f5e006" y="26.553005"/>
     <use style="fill-opacity:0;stroke:#5e4fa2;stroke-width:0.75;" x="138.864329" xlink:href="#m6ef0f5e006" y="30.440591"/>
     <use style="fill-opacity:0;stroke:#5e4fa2;stroke-width:0.75;" x="148.36121" xlink:href="#m6ef0f5e006" y="34.989834"/>
     <use style="fill-opacity:0;stroke:#5e4fa2;stroke-width:0.75;" x="157.858091" xlink:href="#m6ef0f5e006" y="40.52848"/>
     <use style="fill-opacity:0;stroke:#5e4fa2;stroke-width:0.75;" x="167.354972" xlink:href="#m6ef0f5e006" y="47.053624"/>
    </g>
   </g>
   <g id="line2d_13">
    <path clip-path="url(#pa57f7f7536)" d="M 176.851853 54.938272 
L 186.348734 64.737849 
L 195.845615 73.077518 
L 205.342496 82.488504 
L 214.839377 92.323565 
L 224.336258 104.11409 
" style="fill:none;stroke:#5e4fa2;stroke-dasharray:1.85,0.8;stroke-dashoffset:0;stroke-opacity:0.5;stroke-width:0.5;"/>
    <defs>
     <path d="M 0 2.5 
C 0.663008 2.5 1.29895 2.236584 1.767767 1.767767 
C 2.236584 1.29895 2.5 0.663008 2.5 0 
C 2.5 -0.663008 2.236584 -1.29895 1.767767 -1.767767 
C 1.29895 -2.236584 0.663008 -2.5 0 -2.5 
C -0.663008 -2.5 -1.29895 -2.236584 -1.767767 -1.767767 
C -2.236584 -1.29895 -2.5 -0.663008 -2.5 0 
C -2.5 0.663008 -2.236584 1.29895 -1.767767 1.767767 
C -1.29895 2.236584 -0.663008 2.5 0 2.5 
z
" id="mab1fc01769" style="stroke:#5e4fa2;stroke-opacity:0.5;stroke-width:0.75;"/>
    </defs>
    <g clip-path="url(#pa57f7f7536)">
     <use style="fill-opacity:0;stroke:#5e4fa2;stroke-opacity:0.5;stroke-width:0.75;" x="176.851853" xlink:href="#mab1fc01769" y="54.938272"/>
     <use style="fill-opacity:0;stroke:#5e4fa2;stroke-opacity:0.5;stroke-width:0.75;" x="186.348734" xlink:href="#mab1fc01769" y="64.737849"/>
     <use style="fill-opacity:0;stroke:#5e4fa2;stroke-opacity:0.5;stroke-width:0.75;" x="195.845615" xlink:href="#mab1fc01769" y="73.077518"/>
     <use style="fill-opacity:0;stroke:#5e4fa2;stroke-opacity:0.5;stroke-width:0.75;" x="205.342496" xlink:href="#mab1fc01769" y="82.488504"/>
     <use style="fill-opacity:0;stroke:#5e4fa2;stroke-opacity:0.5;stroke-width:0.75;" x="214.839377" xlink:href="#mab1fc01769" y="92.323565"/>
     <use style="fill-opacity:0;stroke:#5e4fa2;stroke-opacity:0.5;stroke-width:0.75;" x="224.336258" xlink:href="#mab1fc01769" y="104.11409"/>
    </g>
   </g>
   <g id="line2d_14">
    <path clip-path="url(#pa57f7f7536)" d="M 34.398638 6.826122 
L 43.895519 7.921361 
L 53.3924 8.93791 
L 62.889281 9.983462 
L 72.386162 11.977356 
L 81.883043 13.295613 
L 91.379924 15.132994 
L 100.876805 18.255142 
L 110.373686 20.527233 
L 119.870567 23.944527 
L 129.367448 26.867411 
L 138.864329 30.994323 
L 148.36121 36.018866 
L 157.858091 41.405058 
L 167.354972 48.677012 
" style="fill:none;stroke:#a3b4d6;stroke-dasharray:1.85,0.8;stroke-dashoffset:0;stroke-width:0.5;"/>
    <defs>
     <path d="M 0 2.5 
C 0.663008 2.5 1.29895 2.236584 1.767767 1.767767 
C 2.236584 1.29895 2.5 0.663008 2.5 0 
C 2.5 -0.663008 2.236584 -1.29895 1.767767 -1.767767 
C 1.29895 -2.236584 0.663008 -2.5 0 -2.5 
C -0.663008 -2.5 -1.29895 -2.236584 -1.767767 -1.767767 
C -2.236584 -1.29895 -2.5 -0.663008 -2.5 0 
C -2.5 0.663008 -2.236584 1.29895 -1.767767 1.767767 
C -1.29895 2.236584 -0.663008 2.5 0 2.5 
z
" id="mc0b63fc404" style="stroke:#496aaf;stroke-width:0.75;"/>
    </defs>
    <g clip-path="url(#pa57f7f7536)">
     <use style="fill-opacity:0;stroke:#496aaf;stroke-width:0.75;" x="34.398638" xlink:href="#mc0b63fc404" y="6.826122"/>
     <use style="fill-opacity:0;stroke:#496aaf;stroke-width:0.75;" x="43.895519" xlink:href="#mc0b63fc404" y="7.921361"/>
     <use style="fill-opacity:0;stroke:#496aaf;stroke-width:0.75;" x="53.3924" xlink:href="#mc0b63fc404" y="8.93791"/>
     <use style="fill-opacity:0;stroke:#496aaf;stroke-width:0.75;" x="62.889281" xlink:href="#mc0b63fc404" y="9.983462"/>
     <use style="fill-opacity:0;stroke:#496aaf;stroke-width:0.75;" x="72.386162" xlink:href="#mc0b63fc404" y="11.977356"/>
     <use style="fill-opacity:0;stroke:#496aaf;stroke-width:0.75;" x="81.883043" xlink:href="#mc0b63fc404" y="13.295613"/>
     <use style="fill-opacity:0;stroke:#496aaf;stroke-width:0.75;" x="91.379924" xlink:href="#mc0b63fc404" y="15.132994"/>
     <use style="fill-opacity:0;stroke:#496aaf;stroke-width:0.75;" x="100.876805" xlink:href="#mc0b63fc404" y="18.255142"/>
     <use style="fill-opacity:0;stroke:#496aaf;stroke-width:0.75;" x="110.373686" xlink:href="#mc0b63fc404" y="20.527233"/>
     <use style="fill-opacity:0;stroke:#496aaf;stroke-width:0.75;" x="119.870567" xlink:href="#mc0b63fc404" y="23.944527"/>
     <use style="fill-opacity:0;stroke:#496aaf;stroke-width:0.75;" x="129.367448" xlink:href="#mc0b63fc404" y="26.867411"/>
     <use style="fill-opacity:0;stroke:#496aaf;stroke-width:0.75;" x="138.864329" xlink:href="#mc0b63fc404" y="30.994323"/>
     <use style="fill-opacity:0;stroke:#496aaf;stroke-width:0.75;" x="148.36121" xlink:href="#mc0b63fc404" y="36.018866"/>
     <use style="fill-opacity:0;stroke:#496aaf;stroke-width:0.75;" x="157.858091" xlink:href="#mc0b63fc404" y="41.405058"/>
     <use style="fill-opacity:0;stroke:#496aaf;stroke-width:0.75;" x="167.354972" xlink:href="#mc0b63fc404" y="48.677012"/>
    </g>
   </g>
   <g id="line2d_15">
    <path clip-path="url(#pa57f7f7536)" d="M 176.851853 59.744761 
L 186.348734 69.634652 
L 195.845615 76.911971 
L 205.342496 82.932171 
L 214.839377 92.862661 
L 224.336258 115.001448 
" style="fill:none;stroke:#496aaf;stroke-dasharray:1.85,0.8;stroke-dashoffset:0;stroke-opacity:0.5;stroke-width:0.5;"/>
    <defs>
     <path d="M 0 2.5 
C 0.663008 2.5 1.29895 2.236584 1.767767 1.767767 
C 2.236584 1.29895 2.5 0.663008 2.5 0 
C 2.5 -0.663008 2.236584 -1.29895 1.767767 -1.767767 
C 1.29895 -2.236584 0.663008 -2.5 0 -2.5 
C -0.663008 -2.5 -1.29895 -2.236584 -1.767767 -1.767767 
C -2.236584 -1.29895 -2.5 -0.663008 -2.5 0 
C -2.5 0.663008 -2.236584 1.29895 -1.767767 1.767767 
C -1.29895 2.236584 -0.663008 2.5 0 2.5 
z
" id="m6a7085106e" style="stroke:#496aaf;stroke-opacity:0.5;stroke-width:0.75;"/>
    </defs>
    <g clip-path="url(#pa57f7f7536)">
     <use style="fill-opacity:0;stroke:#496aaf;stroke-opacity:0.5;stroke-width:0.75;" x="176.851853" xlink:href="#m6a7085106e" y="59.744761"/>
     <use style="fill-opacity:0;stroke:#496aaf;stroke-opacity:0.5;stroke-width:0.75;" x="186.348734" xlink:href="#m6a7085106e" y="69.634652"/>
     <use style="fill-opacity:0;stroke:#496aaf;stroke-opacity:0.5;stroke-width:0.75;" x="195.845615" xlink:href="#m6a7085106e" y="76.911971"/>
     <use style="fill-opacity:0;stroke:#496aaf;stroke-opacity:0.5;stroke-width:0.75;" x="205.342496" xlink:href="#m6a7085106e" y="82.932171"/>
     <use style="fill-opacity:0;stroke:#496aaf;stroke-opacity:0.5;stroke-width:0.75;" x="214.839377" xlink:href="#m6a7085106e" y="92.862661"/>
     <use style="fill-opacity:0;stroke:#496aaf;stroke-opacity:0.5;stroke-width:0.75;" x="224.336258" xlink:href="#m6a7085106e" y="115.001448"/>
    </g>
   </g>
   <g id="patch_3">
    <path d="M 24.901757 120.796701 
L 24.901757 0.72 
" style="fill:none;stroke:#000000;stroke-linecap:square;stroke-linejoin:miter;stroke-width:0.5;"/>
   </g>
   <g id="patch_4">
    <path d="M 233.833139 120.796701 
L 233.833139 0.72 
" style="fill:none;stroke:#000000;stroke-linecap:square;stroke-linejoin:miter;stroke-width:0.5;"/>
   </g>
   <g id="patch_5">
    <path d="M 24.901757 120.796701 
L 233.833139 120.796701 
" style="fill:none;stroke:#000000;stroke-linecap:square;stroke-linejoin:miter;stroke-width:0.5;"/>
   </g>
   <g id="patch_6">
    <path d="M 24.901757 0.72 
L 233.833139 0.72 
" style="fill:none;stroke:#000000;stroke-linecap:square;stroke-linejoin:miter;stroke-width:0.5;"/>
   </g>
   <g id="text_12">
    <!-- $V_{\rm QMC} = 54.3(1)\ \mathrm{K}$ -->
    <g transform="translate(61.197304 41.06106)scale(0.09 -0.09)">
     <defs>
      <path d="M 64.296875 32 
C 65.796875 32 67.296875 32 67.296875 33.6875 
C 67.296875 35.5 65.59375 35.5 63.90625 35.5 
L 8 35.5 
C 6.296875 35.5 4.59375 35.5 4.59375 33.6875 
C 4.59375 32 6.09375 32 7.59375 32 
z
M 63.90625 14.484375 
C 65.59375 14.484375 67.296875 14.484375 67.296875 16.296875 
C 67.296875 18 65.796875 18 64.296875 18 
L 7.59375 18 
C 6.09375 18 4.59375 18 4.59375 16.296875 
C 4.59375 14.484375 6.296875 14.484375 8 14.484375 
z
" id="CMR17-61"/>
      <path d="M 26.59375 63.796875 
C 26.59375 65.890625 26.5 66 25.09375 66 
C 21.203125 61.359375 15.296875 59.890625 9.703125 59.6875 
C 9.40625 59.6875 8.90625 59.6875 8.796875 59.5 
C 8.703125 59.296875 8.703125 59.09375 8.703125 57 
C 11.796875 57 17 57.59375 21 59.984375 
L 21 7.296875 
C 21 3.796875 20.796875 2.59375 12.203125 2.59375 
L 9.203125 2.59375 
L 9.203125 0 
C 14 0.09375 19 0.1875 23.796875 0.1875 
C 28.59375 0.1875 33.59375 0.09375 38.40625 0 
L 38.40625 2.59375 
L 35.40625 2.59375 
C 26.796875 2.59375 26.59375 3.6875 26.59375 7.296875 
z
" id="CMR17-49"/>
     </defs>
     <use transform="scale(0.996264)" xlink:href="#CMMI12-86"/>
     <use transform="translate(56.869579 -14.943915)scale(0.697382)" xlink:href="#CMR17-81"/>
     <use transform="translate(107.069711 -14.943915)scale(0.697382)" xlink:href="#CMR17-77"/>
     <use transform="translate(166.350307 -14.943915)scale(0.697382)" xlink:href="#CMR17-67"/>
     <use transform="translate(241.079153 0)scale(0.996264)" xlink:href="#CMR17-61"/>
     <use transform="translate(340.46795 0)scale(0.996264)" xlink:href="#CMR17-53"/>
     <use transform="translate(386.158428 0)scale(0.996264)" xlink:href="#CMR17-52"/>
     <use transform="translate(431.848905 0)scale(0.996264)" xlink:href="#CMMI12-58"/>
     <use transform="translate(458.946082 0)scale(0.996264)" xlink:href="#CMR17-51"/>
     <use transform="translate(504.636559 0)scale(0.996264)" xlink:href="#CMR17-40"/>
     <use transform="translate(539.917327 0)scale(0.996264)" xlink:href="#CMR17-49"/>
     <use transform="translate(585.607804 0)scale(0.996264)" xlink:href="#CMR17-41"/>
     <use transform="translate(650.964538 0)scale(0.996264)" xlink:href="#CMR17-75"/>
    </g>
   </g>
   <g id="legend_1">
    <g id="LineCollection_5">
     <path d="M 186.010878 16.47 
L 186.010878 7.47 
" style="fill:none;stroke:#5e4fa2;stroke-width:0.5;"/>
    </g>
    <g id="line2d_16">
     <path d="M 185.673378 11.97 
L 186.348378 11.97 
" style="fill:none;stroke:#aea6d0;stroke-dasharray:1.85,0.8;stroke-dashoffset:0;stroke-width:0.5;"/>
    </g>
    <g id="line2d_17">
     <g>
      <use style="fill-opacity:0;stroke:#5e4fa2;stroke-width:0.75;" x="186.010878" xlink:href="#m6ef0f5e006" y="11.97"/>
     </g>
    </g>
    <g id="text_13">
     <!-- $N_\graphene = 24$ -->
     <g transform="translate(190.848378 15.12)scale(0.09 -0.09)">
      <defs>
       <path d="M 74 57.53125 
C 75.09375 61.8125 76.703125 64.796875 84.296875 65.09375 
C 84.59375 65.09375 85.796875 65.1875 85.796875 66.890625 
C 85.796875 68 84.90625 68 84.5 68 
C 82.5 68 77.40625 67.796875 75.40625 67.796875 
L 70.59375 67.796875 
C 69.203125 67.796875 67.40625 68 66 68 
C 65.40625 68 64.203125 68 64.203125 66.09375 
C 64.203125 65.09375 65 65.09375 65.703125 65.09375 
C 71.703125 64.890625 72.09375 62.609375 72.09375 60.8125 
C 72.09375 59.921875 72 59.625 71.703125 58.21875 
L 60.40625 13.34375 
L 39 66.296875 
C 38.296875 67.890625 38.203125 68 36 68 
L 23.796875 68 
C 21.796875 68 20.90625 68 20.90625 66.09375 
C 20.90625 65.09375 21.59375 65.09375 23.5 65.09375 
C 24 65.09375 29.90625 65.09375 29.90625 64.203125 
C 29.90625 64 29.703125 63.203125 29.59375 62.90625 
L 16.296875 10.15625 
C 15.09375 5.28125 12.703125 3.1875 6.09375 2.890625 
C 5.59375 2.890625 4.59375 2.796875 4.59375 1 
C 4.59375 0 5.59375 0 5.90625 0 
C 7.90625 0 13 0.1875 15 0.1875 
L 19.796875 0.1875 
C 21.203125 0.1875 22.90625 0 24.296875 0 
C 25 0 26.09375 0 26.09375 1.890625 
C 26.09375 2.796875 25.09375 2.890625 24.703125 2.890625 
C 21.40625 2.984375 18.203125 3.59375 18.203125 7.171875 
C 18.203125 7.96875 18.40625 8.859375 18.59375 9.65625 
L 32.09375 62.90625 
C 32.703125 61.90625 32.703125 61.703125 33.09375 60.8125 
L 56.90625 1.796875 
C 57.40625 0.59375 57.59375 0 58.5 0 
C 59.5 0 59.59375 0.296875 60 2 
z
" id="CMMI12-78"/>
       <path d="M 63.203125 41.328125 
L 63.203125 35 
L 78.90625 35 
L 62.59375 7 
L 29.703125 7 
L 13.203125 35.09375 
L 29.703125 64 
L 62.59375 64 
L 70.5 50 
L 77.203125 50 
L 66.40625 71 
L 25.90625 71 
L 5.5 35.09375 
L 25.90625 0 
L 66.40625 0 
L 86.796875 35 
L 78.703125 41.328125 
z
" id="SVRsymbols-115"/>
      </defs>
      <use transform="scale(0.996264)" xlink:href="#CMMI12-78"/>
      <use transform="translate(78.115119 -15.337838)scale(0.697382)" xlink:href="#SVRsymbols-115"/>
      <use transform="translate(170.655619 0)scale(0.996264)" xlink:href="#CMR17-61"/>
      <use transform="translate(270.044417 0)scale(0.996264)" xlink:href="#CMR17-50"/>
      <use transform="translate(315.734894 0)scale(0.996264)" xlink:href="#CMR17-52"/>
     </g>
    </g>
    <g id="LineCollection_6">
     <path d="M 186.010878 26.766562 
L 186.010878 17.766562 
" style="fill:none;stroke:#496aaf;stroke-width:0.5;"/>
    </g>
    <g id="line2d_18">
     <path d="M 185.673378 22.266562 
L 186.348378 22.266562 
" style="fill:none;stroke:#a3b4d6;stroke-dasharray:1.85,0.8;stroke-dashoffset:0;stroke-width:0.5;"/>
    </g>
    <g id="line2d_19">
     <g>
      <use style="fill-opacity:0;stroke:#496aaf;stroke-width:0.75;" x="186.010878" xlink:href="#mc0b63fc404" y="22.266562"/>
     </g>
    </g>
    <g id="text_14">
     <!-- $N_\graphene = 48$ -->
     <g transform="translate(190.848378 25.416562)scale(0.09 -0.09)">
      <use transform="scale(0.996264)" xlink:href="#CMMI12-78"/>
      <use transform="translate(78.115119 -15.337838)scale(0.697382)" xlink:href="#SVRsymbols-115"/>
      <use transform="translate(170.655619 0)scale(0.996264)" xlink:href="#CMR17-61"/>
      <use transform="translate(270.044417 0)scale(0.996264)" xlink:href="#CMR17-52"/>
      <use transform="translate(315.734894 0)scale(0.996264)" xlink:href="#CMR17-56"/>
     </g>
    </g>
   </g>
  </g>
 </g>
 <defs>
  <clipPath id="pa57f7f7536">
   <rect height="120.076701" width="208.931382" x="24.901757" y="0.72"/>
  </clipPath>
 </defs>
</svg>
