<?xml version="1.0" encoding="utf-8" standalone="no"?>
<!DOCTYPE svg PUBLIC "-//W3C//DTD SVG 1.1//EN"
  "http://www.w3.org/Graphics/SVG/1.1/DTD/svg11.dtd">
<!-- Created with matplotlib (https://matplotlib.org/) -->
<svg height="255.2992pt" version="1.1" viewBox="0 0 232.141679 255.2992" width="232.141679pt" xmlns="http://www.w3.org/2000/svg" xmlns:xlink="http://www.w3.org/1999/xlink">
 <metadata>
  <rdf:RDF xmlns:cc="http://creativecommons.org/ns#" xmlns:dc="http://purl.org/dc/elements/1.1/" xmlns:rdf="http://www.w3.org/1999/02/22-rdf-syntax-ns#">
   <cc:Work>
    <dc:type rdf:resource="http://purl.org/dc/dcmitype/StillImage"/>
    <dc:date>2021-05-19T17:27:00.470441</dc:date>
    <dc:format>image/svg+xml</dc:format>
    <dc:creator>
     <cc:Agent>
      <dc:title>Matplotlib v3.3.4, https://matplotlib.org/</dc:title>
     </cc:Agent>
    </dc:creator>
   </cc:Work>
  </rdf:RDF>
 </metadata>
 <defs>
  <style type="text/css">*{stroke-linecap:butt;stroke-linejoin:round;}</style>
 </defs>
 <g id="figure_1">
  <g id="patch_1">
   <path d="M 0 255.2992 
L 232.141679 255.2992 
L 232.141679 0 
L 0 0 
z
" style="fill:none;"/>
  </g>
  <g id="axes_1">
   <g id="patch_2">
    <path d="M 41.484059 112.289525 
L 231.421679 112.289525 
L 231.421679 0.72 
L 41.484059 0.72 
z
" style="fill:none;"/>
   </g>
   <g id="matplotlib.axis_1">
    <g id="xtick_1">
     <g id="line2d_1">
      <defs>
       <path d="M 0 0 
L 0 2 
" id="mf55e9710ff" style="stroke:#000000;stroke-width:0.5;"/>
      </defs>
      <g>
       <use style="stroke:#000000;stroke-width:0.5;" x="72.067235" xlink:href="#mf55e9710ff" y="112.289525"/>
      </g>
     </g>
    </g>
    <g id="xtick_2">
     <g id="line2d_2">
      <g>
       <use style="stroke:#000000;stroke-width:0.5;" x="104.260052" xlink:href="#mf55e9710ff" y="112.289525"/>
      </g>
     </g>
    </g>
    <g id="xtick_3">
     <g id="line2d_3">
      <g>
       <use style="stroke:#000000;stroke-width:0.5;" x="136.452869" xlink:href="#mf55e9710ff" y="112.289525"/>
      </g>
     </g>
    </g>
    <g id="xtick_4">
     <g id="line2d_4">
      <g>
       <use style="stroke:#000000;stroke-width:0.5;" x="168.645686" xlink:href="#mf55e9710ff" y="112.289525"/>
      </g>
     </g>
    </g>
    <g id="xtick_5">
     <g id="line2d_5">
      <g>
       <use style="stroke:#000000;stroke-width:0.5;" x="200.838503" xlink:href="#mf55e9710ff" y="112.289525"/>
      </g>
     </g>
    </g>
   </g>
   <g id="matplotlib.axis_2">
    <g id="ytick_1">
     <g id="line2d_6">
      <defs>
       <path d="M 0 0 
L -2 0 
" id="mec5e9ba599" style="stroke:#000000;stroke-width:0.5;"/>
      </defs>
      <g>
       <use style="stroke:#000000;stroke-width:0.5;" x="41.484059" xlink:href="#mec5e9ba599" y="112.289525"/>
      </g>
     </g>
     <g id="text_1">
      <!-- $\mathdefault{10^{-7}}$ -->
      <g transform="translate(18.859626 115.40285)scale(0.09 -0.09)">
       <defs>
        <path d="M 26.59375 63.796875 
C 26.59375 65.890625 26.5 66 25.09375 66 
C 21.203125 61.359375 15.296875 59.890625 9.703125 59.6875 
C 9.40625 59.6875 8.90625 59.6875 8.796875 59.5 
C 8.703125 59.296875 8.703125 59.09375 8.703125 57 
C 11.796875 57 17 57.59375 21 59.984375 
L 21 7.296875 
C 21 3.796875 20.796875 2.59375 12.203125 2.59375 
L 9.203125 2.59375 
L 9.203125 0 
C 14 0.09375 19 0.1875 23.796875 0.1875 
C 28.59375 0.1875 33.59375 0.09375 38.40625 0 
L 38.40625 2.59375 
L 35.40625 2.59375 
C 26.796875 2.59375 26.59375 3.6875 26.59375 7.296875 
z
" id="CMR17-49"/>
        <path d="M 42 31.84375 
C 42 37.96875 41.90625 48.421875 37.703125 56.453125 
C 34 63.484375 28.09375 66 22.90625 66 
C 18.09375 66 12 63.78125 8.203125 56.5625 
C 4.203125 49.015625 3.796875 39.671875 3.796875 31.84375 
C 3.796875 26.109375 3.90625 17.375 7 9.734375 
C 11.296875 -0.609375 19 -2 22.90625 -2 
C 27.5 -2 34.5 -0.109375 38.59375 9.4375 
C 41.59375 16.375 42 24.5 42 31.84375 
z
M 22.90625 -0.40625 
C 16.5 -0.40625 12.703125 5.125 11.296875 12.75 
C 10.203125 18.6875 10.203125 27.328125 10.203125 32.953125 
C 10.203125 40.6875 10.203125 47.109375 11.5 53.234375 
C 13.40625 61.78125 19 64.390625 22.90625 64.390625 
C 27 64.390625 32.296875 61.671875 34.203125 53.4375 
C 35.5 47.71875 35.59375 40.984375 35.59375 32.953125 
C 35.59375 26.421875 35.59375 18.375 34.40625 12.453125 
C 32.296875 1.5 26.40625 -0.40625 22.90625 -0.40625 
z
" id="CMR17-48"/>
        <path d="M 65.90625 23 
C 67.59375 23 69.40625 23 69.40625 25 
C 69.40625 27 67.59375 27 65.90625 27 
L 11.796875 27 
C 10.09375 27 8.296875 27 8.296875 25 
C 8.296875 23 10.09375 23 11.796875 23 
z
" id="CMSY10-0"/>
        <path d="M 45.09375 61.796875 
L 45.09375 64 
L 21.59375 64 
C 9.90625 64 9.703125 65.09375 9.296875 67 
L 7.5 67 
L 4.59375 48.5 
L 6.40625 48.5 
C 6.703125 50.40625 7.40625 55.5 8.59375 57.390625 
C 9.203125 58.1875 16.59375 58.1875 18.296875 58.1875 
L 40.296875 58.1875 
L 29.203125 41.71875 
C 21.796875 30.640625 16.703125 15.671875 16.703125 2.59375 
C 16.703125 1.390625 16.703125 -2 20.296875 -2 
C 23.90625 -2 23.90625 1.390625 23.90625 2.6875 
L 23.90625 7.28125 
C 23.90625 23.65625 26.703125 34.4375 31.296875 41.3125 
z
" id="CMR17-55"/>
       </defs>
       <use transform="scale(0.996264)" xlink:href="#CMR17-49"/>
       <use transform="translate(45.690477 0)scale(0.996264)" xlink:href="#CMR17-48"/>
       <use transform="translate(91.380954 36.153639)scale(0.697382)" xlink:href="#CMSY10-0"/>
       <use transform="translate(145.621947 36.153639)scale(0.697382)" xlink:href="#CMR17-55"/>
      </g>
     </g>
    </g>
    <g id="ytick_2">
     <g id="line2d_7">
      <g>
       <use style="stroke:#000000;stroke-width:0.5;" x="41.484059" xlink:href="#mec5e9ba599" y="80.412518"/>
      </g>
     </g>
     <g id="text_2">
      <!-- $\mathdefault{10^{-5}}$ -->
      <g transform="translate(18.859626 83.525843)scale(0.09 -0.09)">
       <defs>
        <path d="M 11.40625 58.59375 
C 12.40625 58.1875 16.5 56.890625 20.703125 56.890625 
C 30 56.890625 35.09375 61.890625 38 64.6875 
C 38 65.484375 38 66 37.40625 66 
C 37.296875 66 37.09375 66 36.296875 65.59375 
C 32.796875 64.09375 28.703125 63 23.703125 63 
C 20.703125 63 16.203125 63.359375 11.296875 65.484375 
C 10.203125 66 10 66 9.90625 66 
C 9.40625 66 9.296875 65.890625 9.296875 63.90625 
L 9.296875 34.859375 
C 9.296875 33.015625 9.296875 32.5 10.296875 32.5 
C 10.796875 32.5 11 32.703125 11.5 33.421875 
C 14.703125 38.046875 19.09375 40 24.09375 40 
C 27.59375 40 35.09375 37.734375 35.09375 20.203125 
C 35.09375 16.984375 35.09375 11.1875 32.09375 6.59375 
C 29.59375 2.484375 25.703125 0.390625 21.40625 0.390625 
C 14.796875 0.390625 8.09375 4.984375 6.296875 12.6875 
C 6.703125 12.59375 7.5 12.390625 7.90625 12.390625 
C 9.203125 12.390625 11.703125 13.09375 11.703125 16.1875 
C 11.703125 18.890625 9.796875 20 7.90625 20 
C 5.59375 20 4.09375 18.59375 4.09375 15.796875 
C 4.09375 7.09375 11 -2 21.59375 -2 
C 31.90625 -2 41.703125 6.890625 41.703125 19.796875 
C 41.703125 32.09375 33.90625 41.59375 24.203125 41.59375 
C 19.09375 41.59375 14.796875 39.6875 11.40625 36 
z
" id="CMR17-53"/>
       </defs>
       <use transform="scale(0.996264)" xlink:href="#CMR17-49"/>
       <use transform="translate(45.690477 0)scale(0.996264)" xlink:href="#CMR17-48"/>
       <use transform="translate(91.380954 36.153639)scale(0.697382)" xlink:href="#CMSY10-0"/>
       <use transform="translate(145.621947 36.153639)scale(0.697382)" xlink:href="#CMR17-53"/>
      </g>
     </g>
    </g>
    <g id="ytick_3">
     <g id="line2d_8">
      <g>
       <use style="stroke:#000000;stroke-width:0.5;" x="41.484059" xlink:href="#mec5e9ba599" y="48.535511"/>
      </g>
     </g>
     <g id="text_3">
      <!-- $\mathdefault{10^{-3}}$ -->
      <g transform="translate(18.859626 51.648836)scale(0.09 -0.09)">
       <defs>
        <path d="M 22.09375 34 
C 31 34 34.90625 26.140625 34.90625 17.09375 
C 34.90625 5.03125 28.5 0.390625 22.703125 0.390625 
C 17.40625 0.390625 8.796875 3.015625 6.09375 10.796875 
C 6.59375 10.59375 7.09375 10.59375 7.59375 10.59375 
C 10 10.59375 11.796875 12.1875 11.796875 14.796875 
C 11.796875 17.6875 9.59375 19 7.59375 19 
C 5.90625 19 3.296875 18.1875 3.296875 14.484375 
C 3.296875 5.234375 12.296875 -2 22.90625 -2 
C 34 -2 42.5 6.75 42.5 16.984375 
C 42.5 26.84375 34.5 34 25 35.09375 
C 32.59375 36.671875 39.90625 43.375 39.90625 52.390625 
C 39.90625 60.25 32 66 23 66 
C 13.90625 66 5.90625 60.34375 5.90625 52.296875 
C 5.90625 48.796875 8.5 48.1875 9.796875 48.1875 
C 11.90625 48.1875 13.703125 49.484375 13.703125 52.09375 
C 13.703125 54.6875 11.90625 56 9.796875 56 
C 9.40625 56 8.90625 56 8.5 55.796875 
C 11.40625 62.484375 19.296875 63.6875 22.796875 63.6875 
C 26.296875 63.6875 32.90625 61.96875 32.90625 52.296875 
C 32.90625 49.484375 32.5 44.546875 29.09375 40.21875 
C 26.09375 36.390625 22.703125 36.1875 19.40625 35.890625 
C 18.90625 35.890625 16.59375 35.6875 16.203125 35.6875 
C 15.5 35.59375 15.09375 35.5 15.09375 34.796875 
C 15.09375 34.09375 15.203125 34 17.203125 34 
z
" id="CMR17-51"/>
       </defs>
       <use transform="scale(0.996264)" xlink:href="#CMR17-49"/>
       <use transform="translate(45.690477 0)scale(0.996264)" xlink:href="#CMR17-48"/>
       <use transform="translate(91.380954 36.153639)scale(0.697382)" xlink:href="#CMSY10-0"/>
       <use transform="translate(145.621947 36.153639)scale(0.697382)" xlink:href="#CMR17-51"/>
      </g>
     </g>
    </g>
    <g id="ytick_4">
     <g id="line2d_9">
      <g>
       <use style="stroke:#000000;stroke-width:0.5;" x="41.484059" xlink:href="#mec5e9ba599" y="16.658504"/>
      </g>
     </g>
     <g id="text_4">
      <!-- $\mathdefault{10^{-1}}$ -->
      <g transform="translate(18.859626 19.771829)scale(0.09 -0.09)">
       <use transform="scale(0.996264)" xlink:href="#CMR17-49"/>
       <use transform="translate(45.690477 0)scale(0.996264)" xlink:href="#CMR17-48"/>
       <use transform="translate(91.380954 36.153639)scale(0.697382)" xlink:href="#CMSY10-0"/>
       <use transform="translate(145.621947 36.153639)scale(0.697382)" xlink:href="#CMR17-49"/>
      </g>
     </g>
    </g>
    <g id="text_5">
     <!-- $\alabel{\rho(x,0)}{\angstrom^{-2}}$ -->
     <g transform="translate(11.031399 85.897614)rotate(-90)scale(0.09 -0.09)">
      <defs>
       <path d="M 3.09375 -16.953125 
C 3 -17.4375 2.796875 -18.03125 2.796875 -18.609375 
C 2.796875 -20.109375 4 -21.109375 5.5 -21.109375 
C 7 -21.109375 8.40625 -20.109375 9 -18.71875 
C 9.40625 -17.828125 12.203125 -6.09375 15.40625 6.078125 
C 17.40625 1.09375 21.09375 -1 25 -1 
C 36.296875 -1 49.09375 12.96875 49.09375 28.03125 
C 49.09375 38.703125 42.59375 44 35.703125 44 
C 26.90625 44 16.203125 34.90625 12.90625 21.640625 
z
M 24.90625 1 
C 18.09375 1 16.40625 8.875 16.40625 10.078125 
C 16.40625 10.671875 18.90625 20.140625 19.203125 21.640625 
C 24.296875 41.5 34.09375 41.984375 35.59375 41.984375 
C 40.09375 41.984375 42.59375 37.90625 42.59375 32.015625 
C 42.59375 26.9375 39.90625 17.046875 38.203125 12.859375 
C 35.203125 5.984375 30 1 24.90625 1 
z
" id="CMMI12-26"/>
       <path d="M 30.59375 -24.40625 
C 30.59375 -24.3125 30.59375 -24.109375 30.296875 -23.8125 
C 25.703125 -19.109375 13.40625 -6.296875 13.40625 24.9375 
C 13.40625 56.171875 25.5 68.875 30.40625 73.890625 
C 30.40625 73.984375 30.59375 74.1875 30.59375 74.484375 
C 30.59375 74.796875 30.296875 75 29.90625 75 
C 28.796875 75 20.296875 67.578125 15.40625 56.5625 
C 10.40625 45.453125 9 34.65625 9 25.046875 
C 9 17.828125 9.703125 5.625 15.703125 -7.296875 
C 20.5 -17.703125 28.703125 -25 29.90625 -25 
C 30.40625 -25 30.59375 -24.8125 30.59375 -24.40625 
z
" id="CMR17-40"/>
       <path d="M 47.40625 41 
C 44.203125 40.390625 43 37.984375 43 36.09375 
C 43 33.6875 44.90625 32.890625 46.296875 32.890625 
C 49.296875 32.890625 51.40625 35.484375 51.40625 38.1875 
C 51.40625 42.09375 46.59375 44 42.40625 44 
C 36.296875 44 32.90625 38.296875 32 36.390625 
C 29.703125 43.59375 23.5 44 21.703125 44 
C 11.5 44 6.09375 31.140625 6.09375 28.890625 
C 6.09375 28.484375 6.5 27.96875 7.203125 27.96875 
C 8 27.96875 8.203125 28.578125 8.40625 28.984375 
C 11.796875 40.1875 18.5 41.984375 21.40625 41.984375 
C 25.90625 41.984375 26.796875 38.09375 26.796875 35.6875 
C 26.796875 33.484375 26.203125 31.140625 25 26.21875 
L 21.59375 12.15625 
C 20.09375 6.09375 17.203125 1 11.90625 1 
C 11.40625 1 8.90625 1 6.796875 1.96875 
C 10.40625 2.59375 11.203125 5.59375 11.203125 6.796875 
C 11.203125 8.796875 9.703125 10 7.796875 10 
C 5.40625 10 2.796875 7.890625 2.796875 4.6875 
C 2.796875 0.890625 7.5 -1 11.796875 -1 
C 16.59375 -1 20 2.390625 22.09375 6.484375 
C 23.703125 1 28.703125 -1 32.40625 -1 
C 42.59375 -1 48 11.734375 48 14 
C 48 14.515625 47.59375 14.921875 47 14.921875 
C 46.09375 14.921875 46 14.40625 45.703125 13.59375 
C 43 4.6875 37.203125 1 32.703125 1 
C 29.203125 1 27.296875 3.1875 27.296875 7.296875 
C 27.296875 9.484375 27.703125 11.125 29.296875 17.90625 
L 32.796875 31.859375 
C 34.296875 37.890625 37.703125 41.984375 42.296875 41.984375 
C 42.5 41.984375 45.296875 41.984375 47.40625 41 
z
" id="CMMI12-120"/>
       <path d="M 19.5 -0.40625 
C 19.5 5.390625 17.59375 9.6875 13.5 9.6875 
C 10.296875 9.6875 8.703125 7.09375 8.703125 4.890625 
C 8.703125 2.6875 10.203125 0 13.59375 0 
C 14.90625 0 16 0.390625 16.90625 1.296875 
C 17.09375 1.5 17.203125 1.5 17.296875 1.5 
C 17.5 1.5 17.5 0.09375 17.5 -0.40625 
C 17.5 -3.640625 16.90625 -10.03125 11.09375 -16.421875 
C 10 -17.609375 10 -17.8125 10 -18 
C 10 -18.5 10.5 -19 11 -19 
C 11.796875 -19 19.5 -11.703125 19.5 -0.40625 
z
" id="CMMI12-59"/>
       <path d="M 26.296875 24.9375 
C 26.296875 32.140625 25.59375 44.359375 19.59375 57.265625 
C 14.796875 67.6875 6.59375 75 5.40625 75 
C 5.09375 75 4.703125 74.890625 4.703125 74.390625 
C 4.703125 74.1875 4.796875 74.09375 4.90625 73.890625 
C 9.703125 68.875 21.90625 56.171875 21.90625 25.046875 
C 21.90625 -6.1875 9.796875 -18.90625 4.90625 -23.90625 
C 4.796875 -24.109375 4.703125 -24.203125 4.703125 -24.40625 
C 4.703125 -24.90625 5.09375 -25 5.40625 -25 
C 6.5 -25 15 -17.609375 19.90625 -6.59375 
C 24.90625 4.515625 26.296875 15.328125 26.296875 24.9375 
z
" id="CMR17-41"/>
       <path d="M 37.40625 -177 
C 39.59375 -177 40.203125 -177 40.203125 -175.609375 
C 40.40625 -105.46875 48.5 -47.234375 83.5 1.6875 
C 84.203125 2.59375 84.203125 2.796875 84.203125 2.984375 
C 84.203125 4 83.5 4 81.90625 4 
C 80.296875 4 80.09375 4 79.90625 3.796875 
C 79.5 3.484375 66.796875 -11.125 56.703125 -31.234375 
C 43.5 -57.640625 35.203125 -87.96875 31.5 -124.375 
C 31.203125 -127.484375 29.09375 -148.296875 29.09375 -172 
L 29.09375 -175.90625 
C 29.203125 -177 29.796875 -177 31.90625 -177 
z
" id="CMEX10-48"/>
       <path d="M 40.203125 -1.703125 
C 40.203125 0.890625 40.09375 1 37.40625 1 
L 31.90625 1 
C 29.203125 1 29.09375 0.890625 29.09375 -1.703125 
L 29.09375 -58.3125 
C 29.09375 -60.90625 29.203125 -61.015625 31.90625 -61.015625 
L 37.40625 -61.015625 
C 40.09375 -61.015625 40.203125 -60.90625 40.203125 -58.3125 
z
" id="CMEX10-66"/>
       <path d="M 31.90625 5 
C 29.796875 5 29.203125 5 29.09375 3.890625 
L 29.09375 -0.015625 
C 29.09375 -61.15625 40 -96.96875 43.09375 -107.078125 
C 49.90625 -129.28125 61 -152.703125 77.703125 -173.3125 
C 79.203125 -175.109375 79.59375 -175.609375 80 -175.8125 
C 80.203125 -175.90625 80.296875 -176 81.90625 -176 
C 83.5 -176 84.203125 -176 84.203125 -175 
C 84.203125 -174.8125 84.203125 -174.609375 83.59375 -173.703125 
C 50.296875 -127.484375 40.296875 -71.859375 40.203125 3.59375 
C 40.203125 5 39.59375 5 37.40625 5 
z
" id="CMEX10-64"/>
       <path d="M 32.59375 64 
C 29 63.328125 25.40625 60.875 25.40625 56.453125 
L 25.40625 55.78125 
C 25.90625 51.921875 29.5 49 33.59375 49 
C 37.703125 49 41.703125 52.484375 41.703125 56.546875 
L 41.703125 57.296875 
C 41.203125 61.890625 37.59375 65 33.5 65 
C 33.203125 64.09375 32.90625 64 32.59375 64 
z
M 26.703125 55.78125 
L 26.703125 56.453125 
C 26.703125 61 30 63.390625 33.703125 63.390625 
C 37.40625 63.390625 39.90625 60.890625 40.40625 57.5 
L 40.40625 56.796875 
C 40.40625 52.390625 37.09375 50 33.40625 50 
C 29.703125 50 27.203125 52.5 26.703125 55.890625 
z
" id="Computer_Modern_Roman-6"/>
       <path d="M 36.296875 69.390625 
C 35.796875 70.6875 35.59375 71 34.59375 71 
C 33.59375 71 33.40625 70.6875 32.90625 69.390625 
L 11.703125 9.0625 
C 9.796875 3.6875 5.796875 2.59375 2.296875 2.59375 
L 2.296875 0 
C 4.09375 0.1875 8.09375 0.1875 10 0.1875 
C 12.5 0.1875 16.5 0.1875 18.90625 0 
L 18.90625 2.59375 
C 14.203125 2.796875 13.5 5.96875 13.5 7.171875 
C 13.5 8.0625 13.703125 8.5625 13.90625 9.15625 
L 19.203125 24 
L 45.40625 24 
L 51.40625 7.078125 
C 51.90625 5.875 51.90625 5.671875 51.90625 5.28125 
C 51.90625 2.59375 47.59375 2.59375 45.703125 2.59375 
L 45.703125 0 
C 48.59375 0.1875 53.796875 0.1875 56.90625 0.1875 
C 59.5 0.1875 64.5 0.1875 66.90625 0 
L 66.90625 2.59375 
C 61.59375 2.59375 59.796875 2.59375 58.5 6.28125 
z
M 32.296875 61.3125 
L 44.5 26.59375 
L 20.09375 26.59375 
z
" id="CMR17-65"/>
       <path d="M 41.703125 15.46875 
L 39.90625 15.46875 
C 38.90625 8.390625 38.09375 7.1875 37.703125 6.59375 
C 37.203125 5.796875 30 5.796875 28.59375 5.796875 
L 9.40625 5.796875 
C 13 9.6875 20 16.765625 28.5 24.9375 
C 34.59375 30.71875 41.703125 37.5 41.703125 47.390625 
C 41.703125 59.1875 32.296875 66 21.796875 66 
C 10.796875 66 4.09375 56.296875 4.09375 47.296875 
C 4.09375 43.390625 7 42.890625 8.203125 42.890625 
C 9.203125 42.890625 12.203125 43.484375 12.203125 46.984375 
C 12.203125 50.09375 9.59375 51 8.203125 51 
C 7.59375 51 7 50.890625 6.59375 50.6875 
C 8.5 59.1875 14.296875 63.390625 20.40625 63.390625 
C 29.09375 63.390625 34.796875 56.5 34.796875 47.390625 
C 34.796875 38.703125 29.703125 31.21875 24 24.734375 
L 4.09375 2.296875 
L 4.09375 0 
L 39.296875 0 
z
" id="CMR17-50"/>
       <path d="M 58.296875 -172 
C 58.296875 -110.875 47.40625 -75.0625 44.296875 -64.953125 
C 37.5 -42.734375 26.40625 -19.328125 9.703125 1.28125 
C 8.203125 3.09375 7.796875 3.59375 7.40625 3.796875 
C 7.203125 3.890625 7.09375 4 5.5 4 
C 4 4 3.203125 4 3.203125 2.984375 
C 3.203125 2.796875 3.203125 2.59375 4.5 0.78125 
C 39.296875 -47.84375 47.09375 -107.875 47.203125 -175.609375 
C 47.203125 -177 47.796875 -177 50 -177 
L 55.5 -177 
C 57.59375 -177 58.203125 -177 58.296875 -175.90625 
z
" id="CMEX10-49"/>
       <path d="M 58.296875 -1.703125 
C 58.296875 0.890625 58.203125 1 55.5 1 
L 50 1 
C 47.296875 1 47.203125 0.890625 47.203125 -1.703125 
L 47.203125 -58.3125 
C 47.203125 -60.90625 47.296875 -61.015625 50 -61.015625 
L 55.5 -61.015625 
C 58.203125 -61.015625 58.296875 -60.90625 58.296875 -58.3125 
z
" id="CMEX10-67"/>
       <path d="M 58.296875 3.890625 
C 58.203125 5 57.59375 5 55.5 5 
L 50 5 
C 47.796875 5 47.203125 5 47.203125 3.59375 
C 47.203125 -6.71875 47.09375 -30.53125 44.5 -55.453125 
C 39.09375 -107.171875 25.796875 -142.984375 3.90625 -173.703125 
C 3.203125 -174.609375 3.203125 -174.8125 3.203125 -175 
C 3.203125 -176 4 -176 5.5 -176 
C 7.09375 -176 7.296875 -176 7.5 -175.8125 
C 7.90625 -175.5 20.59375 -160.90625 30.703125 -140.796875 
C 43.90625 -114.375 52.203125 -84.0625 55.90625 -47.640625 
C 56.203125 -44.546875 58.296875 -23.734375 58.296875 -0.015625 
z
" id="CMEX10-65"/>
      </defs>
      <use transform="scale(0.996264)" xlink:href="#CMMI12-26"/>
      <use transform="translate(50.314373 0)scale(0.996264)" xlink:href="#CMR17-40"/>
      <use transform="translate(85.595141 0)scale(0.996264)" xlink:href="#CMMI12-120"/>
      <use transform="translate(141.0292 0)scale(0.996264)" xlink:href="#CMMI12-59"/>
      <use transform="translate(184.730783 0)scale(0.996264)" xlink:href="#CMR17-48"/>
      <use transform="translate(230.42126 0)scale(0.996264)" xlink:href="#CMR17-41"/>
      <use transform="translate(321.050045 90.840835)scale(0.247871)" xlink:href="#CMEX10-48"/>
      <use transform="translate(321.050045 47.215155)scale(0.247871)" xlink:href="#CMEX10-66"/>
      <use transform="translate(321.050045 32.34278)scale(0.247871)" xlink:href="#CMEX10-66"/>
      <use transform="translate(321.050045 17.470405)scale(0.247871)" xlink:href="#CMEX10-66"/>
      <use transform="translate(321.050045 1.606585)scale(0.247871)" xlink:href="#CMEX10-64"/>
      <use transform="translate(365.300427 52.703059)scale(0.356961)" xlink:href="#Computer_Modern_Roman-6"/>
      <use transform="translate(342.738777 0)scale(0.996264)" xlink:href="#CMR17-65"/>
      <use transform="translate(411.811207 48.338187)scale(0.697382)" xlink:href="#CMSY10-0"/>
      <use transform="translate(466.0522 48.338187)scale(0.697382)" xlink:href="#CMR17-50"/>
      <use transform="translate(498.533514 90.840835)scale(0.247871)" xlink:href="#CMEX10-49"/>
      <use transform="translate(498.533514 47.215155)scale(0.247871)" xlink:href="#CMEX10-67"/>
      <use transform="translate(498.533514 32.34278)scale(0.247871)" xlink:href="#CMEX10-67"/>
      <use transform="translate(498.533514 17.470405)scale(0.247871)" xlink:href="#CMEX10-67"/>
      <use transform="translate(498.533514 1.606585)scale(0.247871)" xlink:href="#CMEX10-65"/>
     </g>
    </g>
   </g>
   <g id="line2d_10">
    <path clip-path="url(#pbe86c9ee35)" d="M 21.166149 256.2992 
L 21.17813 93.25527 
L 22.342521 100.834995 
L 23.506912 91.18281 
L 24.671304 91.164363 
L 25.835695 91.274117 
L 27.000086 93.224172 
L 28.164478 93.295426 
L 29.328869 100.834995 
L 30.49326 89.612496 
L 31.657652 84.837054 
L 32.822043 89.632033 
L 33.986434 79.39689 
L 35.150826 84.230213 
L 36.315217 77.731575 
L 37.479608 76.180411 
L 38.643999 76.639655 
L 39.808391 75.848877 
L 40.972782 73.113683 
L 42.137173 73.889201 
L 43.301565 72.284986 
L 44.465956 73.492553 
L 45.630347 70.100691 
L 46.794739 69.940216 
L 47.95913 67.884622 
L 49.123521 68.627215 
L 50.287913 67.599053 
L 51.452304 65.667892 
L 52.616695 64.830923 
L 53.781086 62.686529 
L 54.945478 60.830711 
L 56.109869 60.896328 
L 57.27426 59.359162 
L 58.438652 58.65907 
L 59.603043 57.109181 
L 60.767434 56.146129 
L 63.096217 52.73207 
L 64.260608 51.581691 
L 65.424999 49.42934 
L 66.589391 48.421174 
L 68.918173 45.658315 
L 70.082565 44.153364 
L 72.411347 41.777298 
L 74.74013 39.791179 
L 75.904521 39.037713 
L 78.233304 37.997955 
L 81.726478 37.177526 
L 82.890869 36.915416 
L 85.219652 36.711011 
L 86.384043 36.476259 
L 87.548434 36.361623 
L 91.041608 35.311542 
L 92.206 35.190473 
L 99.192347 31.800337 
L 100.356739 30.973733 
L 106.178695 28.295977 
L 109.671869 27.301865 
L 114.329434 26.407355 
L 117.822608 25.341805 
L 121.315782 23.813998 
L 122.480174 23.194627 
L 129.466521 18.66156 
L 130.630913 18.005812 
L 132.959695 17.023139 
L 134.124087 16.688035 
L 135.288478 16.470882 
L 136.452869 16.392234 
L 137.617261 16.438951 
L 138.781652 16.669385 
L 141.110434 17.481883 
L 143.439217 18.729553 
L 145.768 20.116766 
L 148.096782 21.725573 
L 151.589956 23.848264 
L 155.08313 25.392106 
L 159.740695 26.675564 
L 160.905087 26.930975 
L 162.069478 27.059851 
L 164.398261 27.650319 
L 165.562652 28.033702 
L 166.727043 28.257546 
L 170.220217 29.807113 
L 172.549 30.792199 
L 174.877782 32.168319 
L 177.206565 33.524104 
L 183.028521 35.858806 
L 184.192913 36.235389 
L 185.357304 36.27141 
L 186.521695 36.724463 
L 187.686087 36.703048 
L 188.850478 36.87448 
L 193.508043 37.982979 
L 194.672435 38.020488 
L 198.165608 40.216533 
L 201.658782 43.022699 
L 202.823174 44.291624 
L 203.987565 45.107845 
L 209.809522 53.002938 
L 210.973913 54.031072 
L 213.302695 57.462384 
L 214.467087 57.880203 
L 215.631478 60.928528 
L 216.795869 61.222565 
L 217.960261 62.78987 
L 219.124652 63.830779 
L 220.289043 65.490589 
L 222.617826 66.739573 
L 223.782217 68.01342 
L 224.946609 67.143015 
L 226.111 69.765164 
L 227.275391 69.84761 
L 228.439782 74.332963 
L 229.604174 74.03801 
L 230.768565 75.121889 
L 233.097348 75.827558 
L 233.141679 76.03362 
L 233.141679 76.03362 
" style="fill:none;stroke:#d43e4e;stroke-linecap:square;"/>
   </g>
   <g id="line2d_11">
    <path clip-path="url(#pbe86c9ee35)" d="M -1 112.936325 
L -0.460169 113.418054 
L 1.189386 115.788971 
L 2.838941 119.416818 
L 4.488495 125.172347 
L 6.13805 136.075119 
L 7.787605 160.331028 
L 9.437159 133.406289 
L 11.086714 126.542862 
L 12.736269 124.124144 
L 14.385823 125.064819 
L 16.035378 131.447367 
L 17.684933 159.196819 
L 19.334487 122.773429 
L 20.984042 111.460613 
L 22.633597 104.055435 
L 24.283151 98.451518 
L 25.932706 93.927589 
L 27.582261 90.136139 
L 29.231815 86.875887 
L 30.88137 84.016598 
L 32.530925 81.468836 
L 34.180479 79.170441 
L 35.830034 77.080047 
L 37.479589 75.173698 
L 39.129143 73.442682 
L 40.778698 71.891755 
L 42.428253 70.537498 
L 44.077808 69.40691 
L 45.727362 68.536621 
L 47.376917 67.973289 
L 49.026472 67.776152 
L 50.676026 68.023444 
L 52.325581 68.826487 
L 53.975136 70.36107 
L 55.62469 72.945339 
L 57.274245 77.277913 
L 58.9238 85.525283 
L 60.573354 125.604716 
L 62.222909 85.562319 
L 63.872464 75.035477 
L 65.522018 68.872874 
L 67.171573 64.498792 
L 68.821128 61.113948 
L 70.470682 58.355126 
L 72.120237 56.022733 
L 73.769792 53.995782 
L 75.419346 52.198989 
L 77.068901 50.588107 
L 78.718456 49.1424 
L 80.36801 47.860065 
L 82.017565 46.75494 
L 83.66712 45.85405 
L 85.316674 45.196169 
L 86.966229 44.831937 
L 88.615784 44.826643 
L 90.265338 45.267752 
L 91.914893 46.281974 
L 93.564448 48.074618 
L 95.214002 51.032237 
L 96.863557 56.063713 
L 98.513112 66.475662 
L 100.162666 83.434523 
L 101.812221 58.840631 
L 103.461776 49.938963 
L 105.11133 44.273466 
L 106.760885 40.075421 
L 108.41044 36.712049 
L 110.059994 33.87377 
L 111.709549 31.381476 
L 115.008658 27.022433 
L 118.307768 23.143317 
L 121.606877 19.611068 
L 124.905987 16.496487 
L 126.555541 15.145031 
L 128.205096 13.959991 
L 129.854651 12.961473 
L 131.504205 12.166662 
L 133.15376 11.589175 
L 134.803315 11.238782 
L 136.452869 11.121336 
L 138.102424 11.238782 
L 139.751979 11.589175 
L 141.401533 12.166662 
L 143.051088 12.961473 
L 144.700643 13.959991 
L 146.350197 15.145031 
L 147.999752 16.496487 
L 151.298861 19.611068 
L 154.597971 23.143317 
L 157.89708 27.022433 
L 161.196189 31.381476 
L 162.845744 33.87377 
L 164.495299 36.712049 
L 166.144853 40.075421 
L 167.794408 44.273466 
L 169.443963 49.938963 
L 171.093517 58.840631 
L 172.743072 83.434523 
L 174.392627 66.475662 
L 176.042181 56.063713 
L 177.691736 51.032237 
L 179.341291 48.074618 
L 180.990845 46.281974 
L 182.6404 45.267752 
L 184.289955 44.826643 
L 185.939509 44.831937 
L 187.589064 45.196169 
L 189.238619 45.85405 
L 190.888173 46.75494 
L 192.537728 47.860065 
L 194.187283 49.1424 
L 195.836837 50.588107 
L 197.486392 52.198989 
L 199.135947 53.995782 
L 200.785501 56.022733 
L 202.435056 58.355126 
L 204.084611 61.113948 
L 205.734166 64.498792 
L 207.38372 68.872874 
L 209.033275 75.035477 
L 210.68283 85.562319 
L 212.332384 125.604716 
L 213.981939 85.525283 
L 215.631494 77.277913 
L 217.281048 72.945339 
L 218.930603 70.36107 
L 220.580158 68.826487 
L 222.229712 68.023444 
L 223.879267 67.776152 
L 225.528822 67.973289 
L 227.178376 68.536621 
L 228.827931 69.40691 
L 230.477486 70.537498 
L 233.141679 72.845728 
L 233.141679 72.845728 
" style="fill:none;stroke:#bddf26;stroke-linecap:square;stroke-width:1.5;"/>
   </g>
   <g id="patch_3">
    <path d="M 41.484059 112.289525 
L 41.484059 0.72 
" style="fill:none;stroke:#000000;stroke-linecap:square;stroke-linejoin:miter;stroke-width:0.5;"/>
   </g>
   <g id="patch_4">
    <path d="M 231.421679 112.289525 
L 231.421679 0.72 
" style="fill:none;stroke:#000000;stroke-linecap:square;stroke-linejoin:miter;stroke-width:0.5;"/>
   </g>
   <g id="patch_5">
    <path d="M 41.484059 112.289525 
L 231.421679 112.289525 
" style="fill:none;stroke:#000000;stroke-linecap:square;stroke-linejoin:miter;stroke-width:0.5;"/>
   </g>
   <g id="patch_6">
    <path d="M 41.484059 0.72 
L 231.421679 0.72 
" style="fill:none;stroke:#000000;stroke-linecap:square;stroke-linejoin:miter;stroke-width:0.5;"/>
   </g>
   <g id="text_6">
    <!-- $f = 1/ \rm{N_\graphene}$ -->
    <g transform="translate(55.970827 16.658504)scale(0.09 -0.09)">
     <defs>
      <path d="M 44.59375 40.09375 
C 46.59375 40.09375 47.40625 40.09375 47.40625 41.984375 
C 47.40625 43 46.59375 43 44.796875 43 
L 36.703125 43 
C 38.59375 53.09375 40 60.09375 40.796875 63.296875 
C 41.40625 65.6875 43.5 67.984375 46.09375 67.984375 
C 48.203125 67.984375 50.296875 67.09375 51.296875 66.1875 
C 47.40625 65.796875 46.203125 62.890625 46.203125 61.1875 
C 46.203125 59.1875 47.703125 58 49.59375 58 
C 51.59375 58 54.59375 59.6875 54.59375 63.5 
C 54.59375 67.6875 50.40625 70 46 70 
C 41.703125 70 37.5 66.796875 35.5 62.890625 
C 33.703125 59.390625 32.703125 55.828125 30.40625 43 
L 23.703125 43 
C 21.796875 43 20.796875 43 20.796875 41.1875 
C 20.796875 40.09375 21.40625 40.09375 23.40625 40.09375 
L 29.796875 40.09375 
C 28 30.890625 23.90625 8.515625 21.59375 -2.0625 
C 19.90625 -10.703125 18.40625 -18 13.40625 -18 
C 13.09375 -18 10.203125 -18 8.40625 -16.109375 
C 13.5 -15.703125 13.5 -11.3125 13.5 -11.203125 
C 13.5 -9.203125 12 -8 10.09375 -8 
C 8.09375 -8 5.09375 -9.703125 5.09375 -13.515625 
C 5.09375 -17.8125 9.5 -20 13.40625 -20 
C 23.59375 -20 27.796875 -1.765625 28.90625 3.171875 
C 30.703125 10.796875 35.59375 37.125 36.09375 40.09375 
z
" id="CMMI12-102"/>
      <path d="M 64.296875 32 
C 65.796875 32 67.296875 32 67.296875 33.6875 
C 67.296875 35.5 65.59375 35.5 63.90625 35.5 
L 8 35.5 
C 6.296875 35.5 4.59375 35.5 4.59375 33.6875 
C 4.59375 32 6.09375 32 7.59375 32 
z
M 63.90625 14.484375 
C 65.59375 14.484375 67.296875 14.484375 67.296875 16.296875 
C 67.296875 18 65.796875 18 64.296875 18 
L 7.59375 18 
C 6.09375 18 4.59375 18 4.59375 16.296875 
C 4.59375 14.484375 6.296875 14.484375 8 14.484375 
z
" id="CMR17-61"/>
      <path d="M 42.90625 71.296875 
C 42.90625 71.390625 43.5 72.890625 43.5 73.09375 
C 43.5 74.296875 42.5 75 41.703125 75 
C 41.203125 75 40.296875 75 39.5 72.796875 
L 6 -21.3125 
C 6 -21.40625 5.40625 -22.90625 5.40625 -23.109375 
C 5.40625 -24.3125 6.40625 -25 7.203125 -25 
C 7.796875 -25 8.703125 -24.90625 9.40625 -22.8125 
z
" id="CMMI12-61"/>
      <path d="M 20.5 66.796875 
C 19.796875 67.890625 19.703125 68 17.796875 68 
L 5.09375 68 
L 5.09375 65.390625 
L 7 65.390625 
C 11 65.390625 12.796875 64.890625 13.09375 64.796875 
L 13.09375 9.75 
C 13.09375 7.265625 13.09375 2.59375 5.09375 2.59375 
L 5.09375 0 
C 7.40625 0.1875 11.59375 0.1875 14.09375 0.1875 
C 16.59375 0.1875 20.796875 0.1875 23.09375 0 
L 23.09375 2.59375 
C 15.09375 2.59375 15.09375 7.265625 15.09375 9.75 
L 15.09375 63.390625 
C 15.796875 62.796875 15.796875 62.609375 16.5 61.609375 
L 53.59375 1.1875 
C 54.296875 0 54.59375 0 55.09375 0 
C 56.09375 0 56.09375 0.296875 56.09375 2.1875 
L 56.09375 58.21875 
C 56.09375 60.703125 56.09375 65.390625 64.09375 65.390625 
L 64.09375 68 
C 61.796875 67.796875 57.59375 67.796875 55.09375 67.796875 
C 52.59375 67.796875 48.40625 67.796875 46.09375 68 
L 46.09375 65.390625 
C 54.09375 65.390625 54.09375 60.703125 54.09375 58.21875 
L 54.09375 12.140625 
z
" id="CMR17-78"/>
      <path d="M 63.203125 41.328125 
L 63.203125 35 
L 78.90625 35 
L 62.59375 7 
L 29.703125 7 
L 13.203125 35.09375 
L 29.703125 64 
L 62.59375 64 
L 70.5 50 
L 77.203125 50 
L 66.40625 71 
L 25.90625 71 
L 5.5 35.09375 
L 25.90625 0 
L 66.40625 0 
L 86.796875 35 
L 78.703125 41.328125 
z
" id="SVRsymbols-115"/>
     </defs>
     <use transform="scale(0.996264)" xlink:href="#CMMI12-102"/>
     <use transform="translate(86.394314 0)scale(0.996264)" xlink:href="#CMR17-61"/>
     <use transform="translate(185.783111 0)scale(0.996264)" xlink:href="#CMR17-49"/>
     <use transform="translate(231.473588 0)scale(0.996264)" xlink:href="#CMMI12-61"/>
     <use transform="translate(280.248507 0)scale(0.996264)" xlink:href="#CMR17-78"/>
     <use transform="translate(349.320936 -15.337838)scale(0.697382)" xlink:href="#SVRsymbols-115"/>
    </g>
   </g>
   <g id="text_7">
    <!-- (a) -->
    <g transform="translate(43.383435 8.181777)scale(0.07 -0.07)">
     <defs>
      <path d="M 36 25.875 
C 36 32 36 35.546875 31.796875 39.59375 
C 28.09375 42.984375 23.796875 44 20.40625 44 
C 12.5 44 6.796875 37.625 6.796875 30.890625 
C 6.796875 27.1875 9.796875 27 10.40625 27 
C 11.703125 27 14 27.796875 14 30.59375 
C 14 33.09375 12.09375 34.1875 10.40625 34.1875 
C 10 34.1875 9.5 34.09375 9.203125 34 
C 11.296875 40.53125 16.703125 42.390625 20.203125 42.390625 
C 25.203125 42.390625 30.703125 37.828125 30.703125 29.296875 
L 30.703125 25.5 
C 24.796875 25.296875 17.703125 24.5 12.09375 21.453125 
C 5.796875 17.921875 4 12.84375 4 9 
C 4 1.203125 13 -1 18.296875 -1 
C 23.796875 -1 28.90625 2.109375 31.09375 7.890625 
C 31.296875 3.421875 34.09375 -0.609375 38.5 -0.609375 
C 40.59375 -0.609375 45.90625 0.796875 45.90625 8.796875 
L 45.90625 14.46875 
L 44.09375 14.46875 
L 44.09375 8.703125 
C 44.09375 2.515625 41.40625 1.703125 40.09375 1.703125 
C 36 1.703125 36 6.96875 36 11.4375 
z
M 30.703125 13.859375 
C 30.703125 5.046875 24.5 0.59375 19 0.59375 
C 14 0.59375 10.09375 4.34375 10.09375 9 
C 10.09375 12.046875 11.40625 17.40625 17.203125 20.65625 
C 22 23.390625 27.5 23.796875 30.703125 24 
z
" id="CMR17-97"/>
     </defs>
     <use transform="scale(0.996264)" xlink:href="#CMR17-40"/>
     <use transform="translate(35.280768 0)scale(0.996264)" xlink:href="#CMR17-97"/>
     <use transform="translate(80.971245 0)scale(0.996264)" xlink:href="#CMR17-41"/>
    </g>
   </g>
   <g id="legend_1">
    <g id="line2d_12">
     <path d="M 171.509145 11.97 
L 185.009145 11.97 
" style="fill:none;stroke:#d43e4e;stroke-linecap:square;"/>
    </g>
    <g id="line2d_13"/>
    <g id="text_8">
     <!-- QMC -->
     <g transform="translate(189.509145 15.12)scale(0.09 -0.09)">
      <defs>
       <path d="M 47.296875 0.484375 
C 59.203125 5.546875 67.296875 18.546875 67.296875 33.703125 
C 67.296875 54.4375 52.59375 70 36 70 
C 19 70 4.59375 54.234375 4.59375 33.703125 
C 4.59375 13.484375 19 -2 36 -2 
C 38.296875 -2 41.5 -1.703125 45.296875 -0.40625 
C 47 -12.703125 48.09375 -20 56.703125 -20 
C 67.296875 -20 67.796875 -4.328125 67.796875 -1.5 
C 67.796875 -0.5 67.796875 0.1875 67.09375 0.1875 
C 66.59375 0.1875 66.5 -0.5 66.5 -0.703125 
C 65.796875 -10.390625 60.40625 -12.40625 57.203125 -12.40625 
C 51.296875 -12.40625 49.203125 -7.0625 47.296875 0.484375 
z
M 30.59375 0.59375 
C 20.203125 3.859375 12 14.90625 12 33.703125 
C 12 57.78125 25.09375 68.1875 35.90625 68.1875 
C 47.09375 68.1875 59.90625 57.375 59.90625 33.703125 
C 59.90625 16.625 53.203125 7.234375 46.5 2.96875 
C 45 8.03125 42.59375 14 36.09375 14 
C 31.296875 14 28.59375 9.8125 28.59375 6.046875 
C 28.59375 3.765625 29.5 1.875 30.59375 0.59375 
z
M 44.90625 2.078125 
C 40.90625 -0.015625 37.703125 -0.203125 36 -0.203125 
C 31.5 -0.203125 30.203125 3.859375 30.203125 6.046875 
C 30.203125 9.125 32.296875 12.390625 36.09375 12.390625 
C 42.5 12.390625 44.09375 6.734375 44.90625 2.078125 
z
" id="CMR17-81"/>
       <path d="M 20.90625 66.390625 
C 20.296875 67.890625 20.203125 68 18.09375 68 
L 5.296875 68 
L 5.296875 65.390625 
C 12.203125 65.390625 13.296875 65.390625 13.296875 60.90625 
L 13.296875 9.75 
C 13.296875 7.265625 13.296875 2.59375 5.296875 2.59375 
L 5.296875 0 
C 7.59375 0.1875 11.796875 0.1875 14.296875 0.1875 
C 16.796875 0.1875 21 0.1875 23.296875 0 
L 23.296875 2.59375 
C 15.296875 2.59375 15.296875 7.265625 15.296875 9.75 
L 15.296875 64.984375 
L 15.40625 64.984375 
L 38.90625 1.59375 
C 39.296875 0.59375 39.5 0 40.296875 0 
C 41.09375 0 41.296875 0.59375 41.703125 1.59375 
L 65.40625 65.484375 
L 65.5 65.484375 
L 65.5 7.078125 
C 65.5 2.59375 64.40625 2.59375 57.5 2.59375 
L 57.5 0 
C 60.203125 0.1875 65.59375 0.1875 68.5 0.1875 
C 71.40625 0.1875 76.90625 0.1875 79.59375 0 
L 79.59375 2.59375 
C 72.703125 2.59375 71.59375 2.59375 71.59375 7.078125 
L 71.59375 60.90625 
C 71.59375 65.390625 72.703125 65.390625 79.59375 65.390625 
L 79.59375 68 
L 66.90625 68 
C 64.796875 68 64.703125 67.890625 64.09375 66.390625 
L 42.5 8.0625 
z
" id="CMR17-77"/>
       <path d="M 62.09375 67.984375 
C 62.09375 69.796875 62 69.890625 61.40625 69.890625 
C 61 69.890625 60.90625 69.796875 60.203125 68.59375 
L 55.796875 60.140625 
C 50.90625 66.390625 44.90625 70 37.203125 70 
C 20.09375 70 4.59375 54.796875 4.59375 34.046875 
C 4.59375 13.078125 20.09375 -2 37.296875 -2 
C 52.59375 -2 62.09375 11.578125 62.09375 23.15625 
C 62.09375 24.171875 62.09375 24.578125 61.203125 24.578125 
C 60.40625 24.578125 60.40625 24.265625 60.296875 23.359375 
C 59.5 9.25 49.5 0.59375 38.703125 0.59375 
C 28.5 0.59375 12.203125 7.84375 12.203125 34.046875 
C 12.203125 60.34375 28.796875 67.390625 38.5 67.390625 
C 49.796875 67.390625 58 57.515625 59.90625 43.515625 
C 60.09375 42.296875 60.09375 42.109375 61 42.109375 
C 62.09375 42.109375 62.09375 42.296875 62.09375 44.125 
z
" id="CMR17-67"/>
      </defs>
      <use transform="scale(0.996264)" xlink:href="#CMR17-81"/>
      <use transform="translate(71.714788 0)scale(0.996264)" xlink:href="#CMR17-77"/>
      <use transform="translate(156.401729 0)scale(0.996264)" xlink:href="#CMR17-67"/>
     </g>
    </g>
    <g id="line2d_14">
     <path d="M 171.509145 22.266562 
L 185.009145 22.266562 
" style="fill:none;stroke:#bddf26;stroke-linecap:square;stroke-width:1.5;"/>
    </g>
    <g id="line2d_15"/>
    <g id="text_9">
     <!-- Wannier -->
     <g transform="translate(189.509145 25.416562)scale(0.09 -0.09)">
      <defs>
       <path d="M 86.296875 58.984375 
C 87.203125 61.6875 88.703125 65.203125 94.5 65.390625 
L 94.5 68 
C 92.796875 67.890625 89.296875 67.796875 87.5 67.796875 
C 85 67.796875 80.59375 67.796875 78.203125 68 
L 78.203125 65.390625 
C 82.703125 65.296875 84.59375 62.796875 84.59375 60.390625 
C 84.59375 59.6875 84.5 59.28125 84.09375 58.1875 
L 68.59375 8.703125 
L 52.296875 60.78125 
C 52 61.796875 51.90625 62.1875 51.90625 62.59375 
C 51.90625 65.390625 56.296875 65.390625 58.203125 65.390625 
L 58.203125 68 
C 55.296875 67.796875 50.296875 67.796875 47.203125 67.796875 
C 44.703125 67.796875 40.203125 67.796875 37.90625 68 
L 37.90625 65.390625 
C 42.5 65.390625 43.703125 65.09375 44.703125 63.296875 
C 45.09375 62.390625 46.703125 57.1875 46.703125 56.875 
C 46.703125 56.484375 46.5 55.875 46.40625 55.578125 
L 31.703125 8.8125 
L 15.40625 60.78125 
C 14.90625 62.1875 14.90625 62.390625 14.90625 62.59375 
C 14.90625 65.390625 19.296875 65.390625 21.296875 65.390625 
L 21.296875 68 
C 18.40625 67.796875 13.40625 67.796875 10.296875 67.796875 
C 7.703125 67.796875 3.296875 67.796875 0.90625 68 
L 0.90625 65.390625 
C 6.90625 65.390625 7.296875 64.796875 8.296875 61.59375 
L 27.796875 -0.3125 
C 28.296875 -1.8125 28.296875 -2 29.203125 -2 
C 30 -2 30.296875 -1.8125 30.703125 -0.40625 
L 47.703125 53.875 
L 64.703125 -0.40625 
C 65.09375 -1.8125 65.40625 -2 66.203125 -2 
C 67.09375 -2 67.09375 -1.8125 67.59375 -0.3125 
z
" id="CMR17-87"/>
       <path d="M 41.5 30.53125 
C 41.5 35.65625 40.5 44 28.703125 44 
C 20.796875 44 16.703125 37.875 15.203125 33.84375 
L 15.09375 33.84375 
L 15.09375 44 
L 3.296875 42.890625 
L 3.296875 40.28125 
C 9.203125 40.28125 10.09375 39.6875 10.09375 34.859375 
L 10.09375 6.921875 
C 10.09375 3.09375 9.703125 2.59375 3.296875 2.59375 
L 3.296875 0 
C 5.703125 0.1875 10.09375 0.1875 12.703125 0.1875 
C 15.296875 0.1875 19.796875 0.1875 22.203125 0 
L 22.203125 2.59375 
C 15.796875 2.59375 15.40625 3 15.40625 6.921875 
L 15.40625 26.21875 
C 15.40625 35.453125 21 42.390625 28 42.390625 
C 35.40625 42.390625 36.203125 35.765625 36.203125 30.9375 
L 36.203125 6.921875 
C 36.203125 3.09375 35.796875 2.59375 29.40625 2.59375 
L 29.40625 0 
C 31.796875 0.1875 36.203125 0.1875 38.796875 0.1875 
C 41.40625 0.1875 45.90625 0.1875 48.296875 0 
L 48.296875 2.59375 
C 41.90625 2.59375 41.5 3 41.5 6.921875 
z
" id="CMR17-110"/>
       <path d="M 15.5 61.890625 
C 15.5 64.09375 13.703125 66 11.40625 66 
C 9.203125 66 7.296875 64.1875 7.296875 61.890625 
C 7.296875 59.6875 9.09375 57.796875 11.40625 57.796875 
C 13.59375 57.796875 15.5 59.59375 15.5 61.890625 
z
M 3.796875 42.890625 
L 3.796875 40.296875 
C 9.40625 40.296875 10.203125 39.6875 10.203125 34.859375 
L 10.203125 6.921875 
C 10.203125 3.09375 9.796875 2.59375 3.40625 2.59375 
L 3.40625 0 
C 5.796875 0.1875 10.09375 0.1875 12.59375 0.1875 
C 15 0.1875 19.09375 0.1875 21.40625 0 
L 21.40625 2.59375 
C 15.5 2.59375 15.296875 3.203125 15.296875 6.8125 
L 15.296875 44 
z
" id="CMR17-105"/>
       <path d="M 38.09375 23.484375 
C 38.5 23.890625 38.5 24.09375 38.5 25.09375 
C 38.5 35.171875 33.09375 44 21.703125 44 
C 11.09375 44 2.703125 33.984375 2.703125 21.78125 
C 2.703125 8.65625 12.203125 -1 22.796875 -1 
C 34 -1 38.40625 9.671875 38.40625 11.796875 
C 38.40625 12.5 37.796875 12.5 37.59375 12.5 
C 36.90625 12.5 36.796875 12.296875 36.40625 11.078125 
C 34.203125 4.21875 28.703125 0.796875 23.5 0.796875 
C 19.203125 0.796875 14.90625 3.21875 12.203125 7.65625 
C 9.09375 12.796875 9.09375 18.75 9.09375 23.484375 
z
M 9.203125 25 
C 9.90625 39.234375 17.59375 42.390625 21.59375 42.390625 
C 28.40625 42.390625 33 36.0625 33.09375 25 
z
" id="CMR17-101"/>
       <path d="M 15 23.703125 
C 15 33.34375 19.09375 42.390625 26.59375 42.390625 
C 27.296875 42.390625 28 42.296875 28.703125 41.984375 
C 28.703125 41.984375 26.5 41.28125 26.5 38.671875 
C 26.5 36.265625 28.40625 35.265625 29.90625 35.265625 
C 31.09375 35.265625 33.296875 35.96875 33.296875 38.78125 
C 33.296875 41.984375 30.09375 44 26.703125 44 
C 19.09375 44 15.796875 36.5625 14.796875 33.046875 
L 14.703125 33.046875 
L 14.703125 44 
L 3.09375 42.890625 
L 3.09375 40.28125 
C 9 40.28125 9.90625 39.6875 9.90625 34.859375 
L 9.90625 6.921875 
C 9.90625 3.09375 9.5 2.59375 3.09375 2.59375 
L 3.09375 0 
C 5.5 0.1875 10.09375 0.1875 12.703125 0.1875 
C 15.59375 0.1875 20.703125 0.1875 23.40625 0 
L 23.40625 2.59375 
C 16.203125 2.59375 15 2.59375 15 7.109375 
z
" id="CMR17-114"/>
      </defs>
      <use transform="scale(0.996264)" xlink:href="#CMR17-87"/>
      <use transform="translate(87.289395 0)scale(0.996264)" xlink:href="#CMR17-97"/>
      <use transform="translate(132.979872 0)scale(0.996264)" xlink:href="#CMR17-110"/>
      <use transform="translate(183.875241 0)scale(0.996264)" xlink:href="#CMR17-110"/>
      <use transform="translate(234.770611 0)scale(0.996264)" xlink:href="#CMR17-105"/>
      <use transform="translate(259.64167 0)scale(0.996264)" xlink:href="#CMR17-101"/>
      <use transform="translate(300.12733 0)scale(0.996264)" xlink:href="#CMR17-114"/>
     </g>
    </g>
   </g>
  </g>
  <g id="axes_2">
   <g id="patch_7">
    <path d="M 41.484059 229.437526 
L 231.421679 229.437526 
L 231.421679 117.868001 
L 41.484059 117.868001 
z
" style="fill:none;"/>
   </g>
   <g id="matplotlib.axis_3">
    <g id="xtick_6">
     <g id="line2d_16">
      <g>
       <use style="stroke:#000000;stroke-width:0.5;" x="72.067235" xlink:href="#mf55e9710ff" y="229.437526"/>
      </g>
     </g>
     <g id="text_10">
      <!-- $\mathdefault{−4}$ -->
      <g transform="translate(66.179631 239.664176)scale(0.09 -0.09)">
       <defs>
        <path d="M 33.59375 64.796875 
C 33.59375 66.890625 33.5 67 31.703125 67 
L 2 19.59375 
L 2 17 
L 27.796875 17 
L 27.796875 7.1875 
C 27.796875 3.59375 27.59375 2.59375 20.59375 2.59375 
L 18.703125 2.59375 
L 18.703125 0 
C 21.90625 0.1875 27.296875 0.1875 30.703125 0.1875 
C 34.09375 0.1875 39.5 0.1875 42.703125 0 
L 42.703125 2.59375 
L 40.796875 2.59375 
C 33.796875 2.59375 33.59375 3.59375 33.59375 7.1875 
L 33.59375 17 
L 43.796875 17 
L 43.796875 19.59375 
L 33.59375 19.59375 
z
M 28.09375 58.171875 
L 28.09375 19.59375 
L 4 19.59375 
z
" id="CMR17-52"/>
       </defs>
       <use transform="scale(0.996264)" xlink:href="#CMSY10-0"/>
       <use transform="translate(77.487468 0)scale(0.996264)" xlink:href="#CMR17-52"/>
      </g>
     </g>
    </g>
    <g id="xtick_7">
     <g id="line2d_17">
      <g>
       <use style="stroke:#000000;stroke-width:0.5;" x="104.260052" xlink:href="#mf55e9710ff" y="229.437526"/>
      </g>
     </g>
     <g id="text_11">
      <!-- $\mathdefault{−2}$ -->
      <g transform="translate(98.372448 239.664176)scale(0.09 -0.09)">
       <use transform="scale(0.996264)" xlink:href="#CMSY10-0"/>
       <use transform="translate(77.487468 0)scale(0.996264)" xlink:href="#CMR17-50"/>
      </g>
     </g>
    </g>
    <g id="xtick_8">
     <g id="line2d_18">
      <g>
       <use style="stroke:#000000;stroke-width:0.5;" x="136.452869" xlink:href="#mf55e9710ff" y="229.437526"/>
      </g>
     </g>
     <g id="text_12">
      <!-- $\mathdefault{0}$ -->
      <g transform="translate(134.149024 239.664176)scale(0.09 -0.09)">
       <use transform="scale(0.996264)" xlink:href="#CMR17-48"/>
      </g>
     </g>
    </g>
    <g id="xtick_9">
     <g id="line2d_19">
      <g>
       <use style="stroke:#000000;stroke-width:0.5;" x="168.645686" xlink:href="#mf55e9710ff" y="229.437526"/>
      </g>
     </g>
     <g id="text_13">
      <!-- $\mathdefault{2}$ -->
      <g transform="translate(166.341841 239.664176)scale(0.09 -0.09)">
       <use transform="scale(0.996264)" xlink:href="#CMR17-50"/>
      </g>
     </g>
    </g>
    <g id="xtick_10">
     <g id="line2d_20">
      <g>
       <use style="stroke:#000000;stroke-width:0.5;" x="200.838503" xlink:href="#mf55e9710ff" y="229.437526"/>
      </g>
     </g>
     <g id="text_14">
      <!-- $\mathdefault{4}$ -->
      <g transform="translate(198.534658 239.664176)scale(0.09 -0.09)">
       <use transform="scale(0.996264)" xlink:href="#CMR17-52"/>
      </g>
     </g>
    </g>
    <g id="text_15">
     <!-- $\alabel{x}{\angstrom}$ -->
     <g transform="translate(123.602552 251.440913)scale(0.09 -0.09)">
      <use transform="scale(0.996264)" xlink:href="#CMMI12-120"/>
      <use transform="translate(110.782077 0.003177)scale(0.996264)" xlink:href="#CMR17-40"/>
      <use transform="translate(168.624494 52.703059)scale(0.356961)" xlink:href="#Computer_Modern_Roman-6"/>
      <use transform="translate(146.062845 0)scale(0.996264)" xlink:href="#CMR17-65"/>
      <use transform="translate(215.135275 0.003177)scale(0.996264)" xlink:href="#CMR17-41"/>
     </g>
    </g>
   </g>
   <g id="matplotlib.axis_4">
    <g id="ytick_5">
     <g id="line2d_21">
      <g>
       <use style="stroke:#000000;stroke-width:0.5;" x="41.484059" xlink:href="#mec5e9ba599" y="229.437526"/>
      </g>
     </g>
     <g id="text_16">
      <!-- $\mathdefault{10^{-23}}$ -->
      <g transform="translate(15.206714 232.550851)scale(0.09 -0.09)">
       <use transform="scale(0.996264)" xlink:href="#CMR17-49"/>
       <use transform="translate(45.690477 0)scale(0.996264)" xlink:href="#CMR17-48"/>
       <use transform="translate(91.380954 36.153639)scale(0.697382)" xlink:href="#CMSY10-0"/>
       <use transform="translate(145.621947 36.153639)scale(0.697382)" xlink:href="#CMR17-50"/>
       <use transform="translate(177.605129 36.153639)scale(0.697382)" xlink:href="#CMR17-51"/>
      </g>
     </g>
    </g>
    <g id="ytick_6">
     <g id="line2d_22">
      <g>
       <use style="stroke:#000000;stroke-width:0.5;" x="41.484059" xlink:href="#mec5e9ba599" y="207.981848"/>
      </g>
     </g>
     <g id="text_17">
      <!-- $\mathdefault{10^{-18}}$ -->
      <g transform="translate(15.206714 211.095173)scale(0.09 -0.09)">
       <defs>
        <path d="M 27.203125 35.765625 
C 33.5 38.96875 39.90625 43.796875 39.90625 51.53125 
C 39.90625 60.6875 31.09375 66 23 66 
C 13.90625 66 5.90625 59.375 5.90625 50.234375 
C 5.90625 47.71875 6.5 43.390625 10.40625 39.578125 
C 11.40625 38.578125 15.59375 35.5625 18.296875 33.65625 
C 13.796875 31.34375 3.296875 25.8125 3.296875 14.765625 
C 3.296875 4.40625 13.09375 -2 22.796875 -2 
C 33.5 -2 42.5 5.71875 42.5 15.96875 
C 42.5 25.109375 36.40625 29.328125 32.40625 32.046875 
z
M 14.09375 44.609375 
C 13.296875 45.109375 9.296875 48.21875 9.296875 52.9375 
C 9.296875 59.078125 15.59375 63.6875 22.796875 63.6875 
C 30.703125 63.6875 36.5 58.0625 36.5 51.53125 
C 36.5 42.1875 26.09375 36.859375 25.59375 36.859375 
C 25.5 36.859375 25.40625 36.859375 24.59375 37.46875 
z
M 32.5 24 
C 34 22.90625 38.796875 19.578125 38.796875 13.453125 
C 38.796875 6.015625 31.40625 0.390625 23 0.390625 
C 13.90625 0.390625 7 6.921875 7 14.859375 
C 7 22.796875 13.09375 29.4375 20 32.546875 
z
" id="CMR17-56"/>
       </defs>
       <use transform="scale(0.996264)" xlink:href="#CMR17-49"/>
       <use transform="translate(45.690477 0)scale(0.996264)" xlink:href="#CMR17-48"/>
       <use transform="translate(91.380954 36.153639)scale(0.697382)" xlink:href="#CMSY10-0"/>
       <use transform="translate(145.621947 36.153639)scale(0.697382)" xlink:href="#CMR17-49"/>
       <use transform="translate(177.605129 36.153639)scale(0.697382)" xlink:href="#CMR17-56"/>
      </g>
     </g>
    </g>
    <g id="ytick_7">
     <g id="line2d_23">
      <g>
       <use style="stroke:#000000;stroke-width:0.5;" x="41.484059" xlink:href="#mec5e9ba599" y="186.52617"/>
      </g>
     </g>
     <g id="text_18">
      <!-- $\mathdefault{10^{-13}}$ -->
      <g transform="translate(15.206714 189.639495)scale(0.09 -0.09)">
       <use transform="scale(0.996264)" xlink:href="#CMR17-49"/>
       <use transform="translate(45.690477 0)scale(0.996264)" xlink:href="#CMR17-48"/>
       <use transform="translate(91.380954 36.153639)scale(0.697382)" xlink:href="#CMSY10-0"/>
       <use transform="translate(145.621947 36.153639)scale(0.697382)" xlink:href="#CMR17-49"/>
       <use transform="translate(177.605129 36.153639)scale(0.697382)" xlink:href="#CMR17-51"/>
      </g>
     </g>
    </g>
    <g id="ytick_8">
     <g id="line2d_24">
      <g>
       <use style="stroke:#000000;stroke-width:0.5;" x="41.484059" xlink:href="#mec5e9ba599" y="165.070492"/>
      </g>
     </g>
     <g id="text_19">
      <!-- $\mathdefault{10^{-8}}$ -->
      <g transform="translate(18.859626 168.183817)scale(0.09 -0.09)">
       <use transform="scale(0.996264)" xlink:href="#CMR17-49"/>
       <use transform="translate(45.690477 0)scale(0.996264)" xlink:href="#CMR17-48"/>
       <use transform="translate(91.380954 36.153639)scale(0.697382)" xlink:href="#CMSY10-0"/>
       <use transform="translate(145.621947 36.153639)scale(0.697382)" xlink:href="#CMR17-56"/>
      </g>
     </g>
    </g>
    <g id="ytick_9">
     <g id="line2d_25">
      <g>
       <use style="stroke:#000000;stroke-width:0.5;" x="41.484059" xlink:href="#mec5e9ba599" y="143.614814"/>
      </g>
     </g>
     <g id="text_20">
      <!-- $\mathdefault{10^{-3}}$ -->
      <g transform="translate(18.859626 146.728139)scale(0.09 -0.09)">
       <use transform="scale(0.996264)" xlink:href="#CMR17-49"/>
       <use transform="translate(45.690477 0)scale(0.996264)" xlink:href="#CMR17-48"/>
       <use transform="translate(91.380954 36.153639)scale(0.697382)" xlink:href="#CMSY10-0"/>
       <use transform="translate(145.621947 36.153639)scale(0.697382)" xlink:href="#CMR17-51"/>
      </g>
     </g>
    </g>
    <g id="ytick_10">
     <g id="line2d_26">
      <g>
       <use style="stroke:#000000;stroke-width:0.5;" x="41.484059" xlink:href="#mec5e9ba599" y="122.159136"/>
      </g>
     </g>
     <g id="text_21">
      <!-- $\mathdefault{10^{2}}$ -->
      <g transform="translate(24.615766 125.272462)scale(0.09 -0.09)">
       <use transform="scale(0.996264)" xlink:href="#CMR17-49"/>
       <use transform="translate(45.690477 0)scale(0.996264)" xlink:href="#CMR17-48"/>
       <use transform="translate(91.380954 36.153639)scale(0.697382)" xlink:href="#CMR17-50"/>
      </g>
     </g>
    </g>
    <g id="text_22">
     <!-- $\alabel{\rho(x,0)/N}{\angstrom^{-2}}$ -->
     <g transform="translate(10.96512 207.341312)rotate(-90)scale(0.09 -0.09)">
      <defs>
       <path d="M 74 57.53125 
C 75.09375 61.8125 76.703125 64.796875 84.296875 65.09375 
C 84.59375 65.09375 85.796875 65.1875 85.796875 66.890625 
C 85.796875 68 84.90625 68 84.5 68 
C 82.5 68 77.40625 67.796875 75.40625 67.796875 
L 70.59375 67.796875 
C 69.203125 67.796875 67.40625 68 66 68 
C 65.40625 68 64.203125 68 64.203125 66.09375 
C 64.203125 65.09375 65 65.09375 65.703125 65.09375 
C 71.703125 64.890625 72.09375 62.609375 72.09375 60.8125 
C 72.09375 59.921875 72 59.625 71.703125 58.21875 
L 60.40625 13.34375 
L 39 66.296875 
C 38.296875 67.890625 38.203125 68 36 68 
L 23.796875 68 
C 21.796875 68 20.90625 68 20.90625 66.09375 
C 20.90625 65.09375 21.59375 65.09375 23.5 65.09375 
C 24 65.09375 29.90625 65.09375 29.90625 64.203125 
C 29.90625 64 29.703125 63.203125 29.59375 62.90625 
L 16.296875 10.15625 
C 15.09375 5.28125 12.703125 3.1875 6.09375 2.890625 
C 5.59375 2.890625 4.59375 2.796875 4.59375 1 
C 4.59375 0 5.59375 0 5.90625 0 
C 7.90625 0 13 0.1875 15 0.1875 
L 19.796875 0.1875 
C 21.203125 0.1875 22.90625 0 24.296875 0 
C 25 0 26.09375 0 26.09375 1.890625 
C 26.09375 2.796875 25.09375 2.890625 24.703125 2.890625 
C 21.40625 2.984375 18.203125 3.59375 18.203125 7.171875 
C 18.203125 7.96875 18.40625 8.859375 18.59375 9.65625 
L 32.09375 62.90625 
C 32.703125 61.90625 32.703125 61.703125 33.09375 60.8125 
L 56.90625 1.796875 
C 57.40625 0.59375 57.59375 0 58.5 0 
C 59.5 0 59.59375 0.296875 60 2 
z
" id="CMMI12-78"/>
      </defs>
      <use transform="scale(0.996264)" xlink:href="#CMMI12-26"/>
      <use transform="translate(50.314373 0)scale(0.996264)" xlink:href="#CMR17-40"/>
      <use transform="translate(85.595141 0)scale(0.996264)" xlink:href="#CMMI12-120"/>
      <use transform="translate(141.0292 0)scale(0.996264)" xlink:href="#CMMI12-59"/>
      <use transform="translate(184.730783 0)scale(0.996264)" xlink:href="#CMR17-48"/>
      <use transform="translate(230.42126 0)scale(0.996264)" xlink:href="#CMR17-41"/>
      <use transform="translate(265.702027 0)scale(0.996264)" xlink:href="#CMMI12-61"/>
      <use transform="translate(309.057511 0)scale(0.996264)" xlink:href="#CMMI12-78"/>
      <use transform="translate(452.927301 0)scale(0.996264)" xlink:href="#CMR17-40"/>
      <use transform="translate(510.769718 52.703059)scale(0.356961)" xlink:href="#Computer_Modern_Roman-6"/>
      <use transform="translate(488.208069 0)scale(0.996264)" xlink:href="#CMR17-65"/>
      <use transform="translate(557.280498 48.338187)scale(0.697382)" xlink:href="#CMSY10-0"/>
      <use transform="translate(611.521492 48.338187)scale(0.697382)" xlink:href="#CMR17-50"/>
      <use transform="translate(644.002806 0)scale(0.996264)" xlink:href="#CMR17-41"/>
     </g>
    </g>
   </g>
   <g id="line2d_27">
    <path clip-path="url(#p2cbbc45f09)" d="M 119.808537 256.2992 
L 119.825358 165.880026 
L 120.617144 159.990932 
L 121.408931 156.62561 
L 122.200717 154.629021 
L 122.992503 152.283393 
L 125.367862 146.856964 
L 127.743221 142.444023 
L 129.326793 140.046713 
L 130.910366 138.094443 
L 132.493938 136.622378 
L 134.07751 135.620085 
L 135.661083 135.097313 
L 136.452869 135.013337 
L 137.244655 135.049159 
L 138.036442 135.208551 
L 139.620014 135.8879 
L 141.203587 137.038835 
L 142.787159 138.667406 
L 144.370732 140.76582 
L 145.954304 143.324045 
L 147.537877 146.310386 
L 149.913235 151.637802 
L 150.705022 153.860927 
L 151.496808 155.68405 
L 152.288594 157.216998 
L 153.08038 159.808183 
L 153.872167 163.106821 
L 153.889493 256.2992 
L 153.889493 256.2992 
" style="fill:none;stroke:#d43e4e;stroke-linecap:square;"/>
   </g>
   <g id="line2d_28">
    <path clip-path="url(#p2cbbc45f09)" d="M 0.868998 256.2992 
L 4.076107 240.699085 
L 5.931856 232.367552 
L 7.787605 225.045244 
L 9.024771 220.885178 
L 10.261937 217.349778 
L 11.499103 214.433509 
L 12.736269 212.108425 
L 13.973435 210.3406 
L 15.210601 209.099937 
L 16.447767 208.364198 
L 17.06635 208.181148 
L 17.684933 208.120013 
L 18.303516 208.180509 
L 18.922099 208.362903 
L 19.540682 208.668014 
L 20.777848 209.652434 
L 22.015014 211.151456 
L 23.25218 213.191327 
L 24.489346 215.804674 
L 25.726512 219.023922 
L 26.963678 222.868013 
L 28.200844 227.324197 
L 30.056593 235.014784 
L 32.530925 246.547377 
L 34.494954 256.2992 
M 37.346913 256.2992 
L 38.716755 249.319079 
L 43.665419 225.012538 
L 45.521168 216.681058 
L 47.376917 209.358764 
L 48.614083 205.198669 
L 49.851249 201.663189 
L 51.088415 198.746757 
L 52.325581 196.421389 
L 53.562747 194.653102 
L 54.799913 193.411724 
L 56.037079 192.674912 
L 56.655662 192.49115 
L 57.274245 192.429157 
L 57.892828 192.488626 
L 58.511411 192.669793 
L 59.129994 192.973444 
L 60.36716 193.95409 
L 61.604326 195.447876 
L 62.841492 197.480581 
L 64.078658 200.084293 
L 65.315824 203.290896 
L 66.55299 207.118914 
L 67.790156 211.555389 
L 69.645905 219.20937 
L 72.120237 230.67934 
L 73.975986 239.969562 
L 74.594569 244.275108 
L 75.213152 247.020989 
L 75.831735 241.137492 
L 77.068901 234.510932 
L 82.636148 206.922411 
L 85.11048 195.664798 
L 86.966229 188.342283 
L 88.203395 184.180242 
L 89.440561 180.6405 
L 90.677727 177.716347 
L 91.914893 175.378165 
L 93.152059 173.589664 
L 94.389225 172.317461 
L 95.626391 171.534778 
L 96.863557 171.22204 
L 97.48214 171.237635 
L 98.719306 171.607577 
L 99.956472 172.426338 
L 101.193638 173.694935 
L 102.430804 175.419042 
L 103.66797 177.608379 
L 104.905136 180.275193 
L 106.142302 183.430103 
L 107.379468 187.073732 
L 109.235217 193.405321 
L 111.090966 200.620763 
L 112.328132 205.884435 
L 112.946715 208.908294 
L 113.565298 213.9883 
L 114.183881 212.343746 
L 114.802464 207.695579 
L 116.658213 198.073334 
L 122.844043 167.559193 
L 124.699792 159.227594 
L 126.555541 151.90525 
L 127.792707 147.745185 
L 129.029873 144.209814 
L 130.267039 141.293607 
L 131.504205 138.968633 
L 132.741371 137.20098 
L 133.978537 135.960576 
L 135.215703 135.225213 
L 135.834286 135.042408 
L 136.452869 134.981565 
L 137.071452 135.042407 
L 137.690035 135.22521 
L 138.308618 135.530802 
L 139.545784 136.516455 
L 140.78295 138.017167 
L 142.020116 140.059328 
L 143.257282 142.675735 
L 144.494448 145.898983 
L 145.731614 149.748154 
L 146.96878 154.210589 
L 148.824529 161.912939 
L 151.298861 173.466914 
L 156.866108 201.163086 
L 158.103274 207.089005 
L 158.721857 209.237996 
L 159.34044 209.607522 
L 159.959023 208.075318 
L 161.814772 200.612884 
L 163.670521 193.405877 
L 165.52627 187.074357 
L 166.763436 183.430703 
L 168.000602 180.275767 
L 169.237768 177.608926 
L 170.474934 175.419562 
L 171.7121 173.695427 
L 172.949266 172.426803 
L 174.186432 171.608016 
L 175.423598 171.23805 
L 176.042181 171.222444 
L 176.660764 171.321012 
L 177.89793 171.866691 
L 179.135096 172.891224 
L 180.372262 174.417762 
L 181.609428 176.476592 
L 182.846594 179.103318 
L 184.08376 182.332541 
L 185.320926 186.184757 
L 186.558092 190.648287 
L 188.413841 198.350021 
L 190.888173 209.900949 
L 195.836837 234.507114 
L 197.074003 241.030535 
L 197.692586 246.047536 
L 198.311169 245.60532 
L 198.929752 240.789543 
L 200.785501 231.252266 
L 203.259833 219.595207 
L 205.115582 211.838045 
L 206.352749 207.346742 
L 207.589915 203.474273 
L 208.827081 200.232781 
L 210.064247 197.602458 
L 211.301413 195.549876 
L 212.538579 194.041454 
L 213.775745 193.050136 
L 215.012911 192.557602 
L 215.631494 192.495134 
L 216.250077 192.554593 
L 216.86866 192.73622 
L 217.487243 193.040813 
L 218.724409 194.0249 
L 219.961575 195.524489 
L 221.198741 197.565852 
L 222.435907 200.181692 
L 223.673073 203.40454 
L 224.910239 207.25343 
L 226.147405 211.715668 
L 228.003154 219.417831 
L 230.477486 230.971678 
L 233.141679 244.129724 
L 233.141679 244.129724 
" style="fill:none;stroke:#355f8d;stroke-linecap:square;stroke-width:1.5;"/>
   </g>
   <g id="line2d_29">
    <path clip-path="url(#p2cbbc45f09)" d="M 104.877122 256.2992 
L 109.8538 232.510533 
L 116.03963 201.727151 
L 122.844043 167.980474 
L 124.699792 159.580411 
L 126.555541 152.170682 
L 127.792707 147.949521 
L 129.029873 144.356872 
L 130.267039 141.390684 
L 131.504205 139.024664 
L 132.741371 137.225332 
L 133.978537 135.962503 
L 135.215703 135.213707 
L 135.834286 135.027485 
L 136.452869 134.965397 
L 137.071452 135.027164 
L 137.690035 135.213065 
L 138.308618 135.523943 
L 139.545784 136.526834 
L 140.78295 138.053883 
L 142.020116 140.131695 
L 143.257282 142.792971 
L 144.494448 146.069376 
L 145.731614 149.97752 
L 146.96878 154.500377 
L 148.824529 162.284313 
L 151.298861 173.914094 
L 156.866108 201.719995 
L 164.289104 238.514983 
L 168.031646 256.2992 
L 168.031646 256.2992 
" style="fill:none;stroke:#22a884;stroke-dasharray:5.55,2.4;stroke-dashoffset:0;stroke-width:1.5;"/>
   </g>
   <g id="patch_8">
    <path d="M 41.484059 229.437526 
L 41.484059 117.868001 
" style="fill:none;stroke:#000000;stroke-linecap:square;stroke-linejoin:miter;stroke-width:0.5;"/>
   </g>
   <g id="patch_9">
    <path d="M 231.421679 229.437526 
L 231.421679 117.868001 
" style="fill:none;stroke:#000000;stroke-linecap:square;stroke-linejoin:miter;stroke-width:0.5;"/>
   </g>
   <g id="patch_10">
    <path d="M 41.484059 229.437526 
L 231.421679 229.437526 
" style="fill:none;stroke:#000000;stroke-linecap:square;stroke-linejoin:miter;stroke-width:0.5;"/>
   </g>
   <g id="patch_11">
    <path d="M 41.484059 117.868001 
L 231.421679 117.868001 
" style="fill:none;stroke:#000000;stroke-linecap:square;stroke-linejoin:miter;stroke-width:0.5;"/>
   </g>
   <g id="text_23">
    <!-- $f = 1$ -->
    <g transform="translate(55.970827 139.323679)scale(0.09 -0.09)">
     <use transform="scale(0.996264)" xlink:href="#CMMI12-102"/>
     <use transform="translate(86.394314 0)scale(0.996264)" xlink:href="#CMR17-61"/>
     <use transform="translate(185.783111 0)scale(0.996264)" xlink:href="#CMR17-49"/>
    </g>
   </g>
   <g id="text_24">
    <!-- (b) -->
    <g transform="translate(43.383435 125.329777)scale(0.07 -0.07)">
     <defs>
      <path d="M 15 69 
L 3.09375 67.890625 
L 3.09375 65.296875 
C 9 65.296875 9.90625 64.703125 9.90625 60.046875 
L 9.90625 -0.203125 
L 11.703125 -0.203125 
L 14.59375 6.953125 
C 17.5 2.203125 21.796875 -1 27.59375 -1 
C 37.59375 -1 47.703125 7.859375 47.703125 21.59375 
C 47.703125 34.515625 38.703125 44 28.59375 44 
C 22.40625 44 18 40.671875 15 36.734375 
z
M 15.203125 31.59375 
C 15.203125 33.40625 15.203125 33.703125 16.59375 35.828125 
C 20.5 41.890625 26.09375 42.390625 28 42.390625 
C 31 42.390625 41.296875 40.78125 41.296875 21.6875 
C 41.296875 1.703125 29.5 0.59375 27.09375 0.59375 
C 24 0.59375 19.5 1.796875 16.296875 7.65625 
C 15.203125 9.578125 15.203125 9.78125 15.203125 11.59375 
z
" id="CMR17-98"/>
     </defs>
     <use transform="scale(0.996264)" xlink:href="#CMR17-40"/>
     <use transform="translate(35.280768 0)scale(0.996264)" xlink:href="#CMR17-98"/>
     <use transform="translate(86.176138 0)scale(0.996264)" xlink:href="#CMR17-41"/>
    </g>
   </g>
   <g id="legend_2">
    <g id="line2d_30">
     <path d="M 152.926897 129.118001 
L 166.426897 129.118001 
" style="fill:none;stroke:#d43e4e;stroke-linecap:square;"/>
    </g>
    <g id="line2d_31"/>
    <g id="text_25">
     <!-- QMC -->
     <g transform="translate(170.926897 132.268001)scale(0.09 -0.09)">
      <use transform="scale(0.996264)" xlink:href="#CMR17-81"/>
      <use transform="translate(71.714788 0)scale(0.996264)" xlink:href="#CMR17-77"/>
      <use transform="translate(156.401729 0)scale(0.996264)" xlink:href="#CMR17-67"/>
     </g>
    </g>
    <g id="line2d_32">
     <path d="M 152.926897 139.414563 
L 166.426897 139.414563 
" style="fill:none;stroke:#355f8d;stroke-linecap:square;stroke-width:1.5;"/>
    </g>
    <g id="line2d_33"/>
    <g id="text_26">
     <!-- Hartree-Fock -->
     <g transform="translate(170.926897 142.564563)scale(0.09 -0.09)">
      <defs>
       <path d="M 56.09375 60.90625 
C 56.09375 65.390625 57.203125 65.390625 64.09375 65.390625 
L 64.09375 68 
C 61.203125 67.796875 55.90625 67.796875 52.796875 67.796875 
C 49.703125 67.796875 44.40625 67.796875 41.5 68 
L 41.5 65.390625 
C 48.40625 65.390625 49.5 65.390625 49.5 60.90625 
L 49.5 36.59375 
L 19.703125 36.59375 
L 19.703125 60.90625 
C 19.703125 65.390625 20.796875 65.390625 27.703125 65.390625 
L 27.703125 68 
C 24.796875 67.796875 19.5 67.796875 16.40625 67.796875 
C 13.296875 67.796875 8 67.796875 5.09375 68 
L 5.09375 65.390625 
C 12 65.390625 13.09375 65.390625 13.09375 60.90625 
L 13.09375 7.0625 
C 13.09375 2.59375 12 2.59375 5.09375 2.59375 
L 5.09375 0 
C 8 0.1875 13.296875 0.1875 16.40625 0.1875 
C 19.5 0.1875 24.796875 0.1875 27.703125 0 
L 27.703125 2.59375 
C 20.796875 2.59375 19.703125 2.59375 19.703125 7.0625 
L 19.703125 34 
L 49.5 34 
L 49.5 7.0625 
C 49.5 2.59375 48.40625 2.59375 41.5 2.59375 
L 41.5 0 
C 44.40625 0.1875 49.703125 0.1875 52.796875 0.1875 
C 55.90625 0.1875 61.203125 0.1875 64.09375 0 
L 64.09375 2.59375 
C 57.203125 2.59375 56.09375 2.59375 56.09375 7.0625 
z
" id="CMR17-72"/>
       <path d="M 15.09375 40.390625 
L 29.09375 40.390625 
L 29.09375 43 
L 15.09375 43 
L 15.09375 62 
L 13.296875 62 
C 13.09375 51.4375 9.59375 42.1875 1.09375 41.984375 
L 1.09375 40.390625 
L 9.796875 40.390625 
L 9.796875 12.15625 
C 9.796875 10.234375 9.796875 -1 21.40625 -1 
C 27.296875 -1 30.703125 4.8125 30.703125 12.25 
L 30.703125 17.984375 
L 28.90625 17.984375 
L 28.90625 12.34375 
C 28.90625 5.421875 26.203125 0.796875 22 0.796875 
C 19.09375 0.796875 15.09375 2.796875 15.09375 11.953125 
z
" id="CMR17-116"/>
       <path d="M 25.5 19.59375 
L 25.5 24 
L 0.40625 24 
L 0.40625 19.59375 
z
" id="CMR17-45"/>
       <path d="M 54.40625 67.796875 
L 5.09375 67.796875 
L 5.09375 65.1875 
C 12 65.1875 13.09375 65.1875 13.09375 60.671875 
L 13.09375 7.03125 
C 13.09375 2.59375 12 2.59375 5.09375 2.59375 
L 5.09375 0 
C 8 0.1875 13.59375 0.1875 16.703125 0.1875 
C 20.796875 0.1875 25.59375 0.1875 29.703125 0 
L 29.703125 2.59375 
L 27.5 2.59375 
C 19.90625 2.59375 19.703125 3.578125 19.703125 7.125 
L 19.703125 32.390625 
L 28.703125 32.390625 
C 38 32.390625 38.90625 29.140625 38.90625 20.84375 
L 40.703125 20.84375 
L 40.703125 46.734375 
L 38.90625 46.734375 
C 38.90625 38.296875 38 35 28.703125 35 
L 19.703125 35 
L 19.703125 61.28125 
C 19.703125 64.6875 19.90625 65.1875 23.90625 65.1875 
L 36.796875 65.1875 
C 51.90625 65.1875 53.59375 58.96875 55 45.625 
L 56.796875 45.625 
z
" id="CMR17-70"/>
       <path d="M 43.09375 21.1875 
C 43.09375 34 33.796875 44 22.90625 44 
C 12 44 2.703125 34 2.703125 21.1875 
C 2.703125 8.59375 12 -1 22.90625 -1 
C 33.796875 -1 43.09375 8.59375 43.09375 21.1875 
z
M 22.90625 0.796875 
C 18.203125 0.796875 14.203125 3.59375 11.90625 7.5 
C 9.40625 12 9.09375 17.59375 9.09375 22 
C 9.09375 26.1875 9.296875 31.390625 11.90625 35.890625 
C 13.90625 39.1875 17.796875 42.390625 22.90625 42.390625 
C 27.40625 42.390625 31.203125 39.890625 33.59375 36.390625 
C 36.703125 31.6875 36.703125 25.09375 36.703125 22 
C 36.703125 18.09375 36.5 12.09375 33.796875 7.296875 
C 31 2.6875 26.703125 0.796875 22.90625 0.796875 
z
" id="CMR17-111"/>
       <path d="M 34.90625 35 
C 33 35 30.203125 35 30.203125 31.484375 
C 30.203125 28.6875 32.5 27.890625 33.796875 27.890625 
C 34.5 27.890625 37.40625 28.1875 37.40625 31.6875 
C 37.40625 38.6875 30.59375 44 22.90625 44 
C 12.296875 44 3.296875 34.390625 3.296875 21.546875 
C 3.296875 8.140625 12.703125 -1 22.90625 -1 
C 35.296875 -1 38.40625 10.5625 38.40625 11.671875 
C 38.40625 12.078125 38.296875 12.375 37.59375 12.375 
C 36.90625 12.375 36.796875 12.28125 36.40625 10.96875 
C 33.796875 2.8125 28.09375 0.796875 23.796875 0.796875 
C 17.40625 0.796875 9.703125 6.734375 9.703125 21.640625 
C 9.703125 36.84375 17.09375 42.1875 23 42.1875 
C 26.90625 42.1875 32.703125 40.34375 34.90625 35 
z
" id="CMR17-99"/>
       <path d="M 26.09375 26.234375 
C 26 26.4375 25.5 27.03125 25.5 27.328125 
C 25.5 27.53125 32.59375 33.984375 33.5 34.78125 
C 39.203125 39.5625 42.796875 40.046875 45.40625 40.15625 
L 45.40625 42.734375 
C 44.796875 42.734375 44.59375 42.734375 44.5 42.640625 
L 39.59375 42.53125 
C 36.796875 42.53125 32.5 42.53125 29.796875 42.734375 
L 29.796875 40.15625 
C 31.203125 40.046875 32.203125 39.265625 32.203125 37.859375 
C 32.203125 35.875 30.203125 33.984375 30.09375 33.984375 
L 15 20.28125 
L 15 69 
L 3.09375 67.890625 
L 3.09375 65.296875 
C 9 65.296875 9.90625 64.703125 9.90625 59.921875 
L 9.90625 6.859375 
C 9.90625 3.09375 9.5 2.59375 3.09375 2.59375 
L 3.09375 0 
C 5.5 0.1875 9.90625 0.1875 12.40625 0.1875 
C 14.90625 0.1875 19.296875 0.1875 21.703125 0 
L 21.703125 2.59375 
C 15.296875 2.59375 14.90625 2.984375 14.90625 6.859375 
L 14.90625 17.796875 
L 21.796875 24.0625 
L 31.90625 9.15625 
C 33.09375 7.359375 34.09375 5.96875 34.09375 4.671875 
C 34.09375 2.890625 32.296875 2.59375 31.09375 2.59375 
L 31.09375 0 
C 33.5 0.1875 37.796875 0.1875 40.296875 0.1875 
C 42.09375 0.1875 45.796875 0.09375 47.5 0 
L 47.5 2.59375 
C 42.796875 2.59375 41.703125 3.484375 38.703125 7.859375 
z
" id="CMR17-107"/>
      </defs>
      <use transform="scale(0.996264)" xlink:href="#CMR17-72"/>
      <use transform="translate(69.07243 0)scale(0.996264)" xlink:href="#CMR17-97"/>
      <use transform="translate(114.762907 0)scale(0.996264)" xlink:href="#CMR17-114"/>
      <use transform="translate(150.043675 0)scale(0.996264)" xlink:href="#CMR17-116"/>
      <use transform="translate(185.324443 0)scale(0.996264)" xlink:href="#CMR17-114"/>
      <use transform="translate(220.60521 0)scale(0.996264)" xlink:href="#CMR17-101"/>
      <use transform="translate(261.090871 0)scale(0.996264)" xlink:href="#CMR17-101"/>
      <use transform="translate(301.576531 0)scale(0.996264)" xlink:href="#CMR17-45"/>
      <use transform="translate(331.652498 0)scale(0.996264)" xlink:href="#CMR17-70"/>
      <use transform="translate(383.829089 0)scale(0.996264)" xlink:href="#CMR17-111"/>
      <use transform="translate(432.122005 0)scale(0.996264)" xlink:href="#CMR17-99"/>
      <use transform="translate(470.005211 0)scale(0.996264)" xlink:href="#CMR17-107"/>
     </g>
    </g>
    <g id="line2d_34">
     <path d="M 152.926897 149.711126 
L 166.426897 149.711126 
" style="fill:none;stroke:#22a884;stroke-dasharray:5.55,2.4;stroke-dashoffset:0;stroke-width:1.5;"/>
    </g>
    <g id="line2d_35"/>
    <g id="text_27">
     <!-- Hartree -->
     <g transform="translate(170.926897 152.861126)scale(0.09 -0.09)">
      <use transform="scale(0.996264)" xlink:href="#CMR17-72"/>
      <use transform="translate(69.07243 0)scale(0.996264)" xlink:href="#CMR17-97"/>
      <use transform="translate(114.762907 0)scale(0.996264)" xlink:href="#CMR17-114"/>
      <use transform="translate(150.043675 0)scale(0.996264)" xlink:href="#CMR17-116"/>
      <use transform="translate(185.324443 0)scale(0.996264)" xlink:href="#CMR17-114"/>
      <use transform="translate(220.60521 0)scale(0.996264)" xlink:href="#CMR17-101"/>
      <use transform="translate(261.090871 0)scale(0.996264)" xlink:href="#CMR17-101"/>
     </g>
    </g>
   </g>
  </g>
 </g>
 <defs>
  <clipPath id="pbe86c9ee35">
   <rect height="111.569525" width="189.93762" x="41.484059" y="0.72"/>
  </clipPath>
  <clipPath id="p2cbbc45f09">
   <rect height="111.569525" width="189.93762" x="41.484059" y="117.868001"/>
  </clipPath>
 </defs>
</svg>
