<?xml version="1.0" encoding="utf-8" standalone="no"?>
<!DOCTYPE svg PUBLIC "-//W3C//DTD SVG 1.1//EN"
  "http://www.w3.org/Graphics/SVG/1.1/DTD/svg11.dtd">
<!-- Created with matplotlib (https://matplotlib.org/) -->
<svg height="254.181184pt" version="1.1" viewBox="0 0 231.097758 254.181184" width="231.097758pt" xmlns="http://www.w3.org/2000/svg" xmlns:xlink="http://www.w3.org/1999/xlink">
 <metadata>
  <rdf:RDF xmlns:cc="http://creativecommons.org/ns#" xmlns:dc="http://purl.org/dc/elements/1.1/" xmlns:rdf="http://www.w3.org/1999/02/22-rdf-syntax-ns#">
   <cc:Work>
    <dc:type rdf:resource="http://purl.org/dc/dcmitype/StillImage"/>
    <dc:date>2021-02-20T11:05:07.504821</dc:date>
    <dc:format>image/svg+xml</dc:format>
    <dc:creator>
     <cc:Agent>
      <dc:title>Matplotlib v3.3.2, https://matplotlib.org/</dc:title>
     </cc:Agent>
    </dc:creator>
   </cc:Work>
  </rdf:RDF>
 </metadata>
 <defs>
  <style type="text/css">*{stroke-linecap:butt;stroke-linejoin:round;}</style>
 </defs>
 <g id="figure_1">
  <g id="patch_1">
   <path d="M 0 254.181184 
L 231.097758 254.181184 
L 231.097758 0 
L 0 0 
z
" style="fill:none;"/>
  </g>
  <g id="axes_1">
   <g id="patch_2">
    <path d="M 40.440138 112.289525 
L 230.377758 112.289525 
L 230.377758 0.72 
L 40.440138 0.72 
z
" style="fill:none;"/>
   </g>
   <g id="matplotlib.axis_1">
    <g id="xtick_1">
     <g id="line2d_1">
      <defs>
       <path d="M 0 0 
L 0 2 
" id="m28263679ab" style="stroke:#000000;stroke-width:0.5;"/>
      </defs>
      <g>
       <use style="stroke:#000000;stroke-width:0.5;" x="71.023314" xlink:href="#m28263679ab" y="112.289525"/>
      </g>
     </g>
    </g>
    <g id="xtick_2">
     <g id="line2d_2">
      <g>
       <use style="stroke:#000000;stroke-width:0.5;" x="103.216131" xlink:href="#m28263679ab" y="112.289525"/>
      </g>
     </g>
    </g>
    <g id="xtick_3">
     <g id="line2d_3">
      <g>
       <use style="stroke:#000000;stroke-width:0.5;" x="135.408948" xlink:href="#m28263679ab" y="112.289525"/>
      </g>
     </g>
    </g>
    <g id="xtick_4">
     <g id="line2d_4">
      <g>
       <use style="stroke:#000000;stroke-width:0.5;" x="167.601765" xlink:href="#m28263679ab" y="112.289525"/>
      </g>
     </g>
    </g>
    <g id="xtick_5">
     <g id="line2d_5">
      <g>
       <use style="stroke:#000000;stroke-width:0.5;" x="199.794582" xlink:href="#m28263679ab" y="112.289525"/>
      </g>
     </g>
    </g>
   </g>
   <g id="matplotlib.axis_2">
    <g id="ytick_1">
     <g id="line2d_6">
      <defs>
       <path d="M 0 0 
L -2 0 
" id="m2d17ec9205" style="stroke:#000000;stroke-width:0.5;"/>
      </defs>
      <g>
       <use style="stroke:#000000;stroke-width:0.5;" x="40.440138" xlink:href="#m2d17ec9205" y="112.289525"/>
      </g>
     </g>
     <g id="text_1">
      <!-- $\mathdefault{10^{-7}}$ -->
      <g transform="translate(17.815704 115.40285)scale(0.09 -0.09)">
       <defs>
        <path d="M 26.59375 63.796875 
C 26.59375 65.890625 26.5 66 25.09375 66 
C 21.203125 61.359375 15.296875 59.890625 9.703125 59.6875 
C 9.40625 59.6875 8.90625 59.6875 8.796875 59.5 
C 8.703125 59.296875 8.703125 59.09375 8.703125 57 
C 11.796875 57 17 57.59375 21 59.984375 
L 21 7.296875 
C 21 3.796875 20.796875 2.59375 12.203125 2.59375 
L 9.203125 2.59375 
L 9.203125 0 
C 14 0.09375 19 0.1875 23.796875 0.1875 
C 28.59375 0.1875 33.59375 0.09375 38.40625 0 
L 38.40625 2.59375 
L 35.40625 2.59375 
C 26.796875 2.59375 26.59375 3.6875 26.59375 7.296875 
z
" id="CMR17-49"/>
        <path d="M 42 31.84375 
C 42 37.96875 41.90625 48.421875 37.703125 56.453125 
C 34 63.484375 28.09375 66 22.90625 66 
C 18.09375 66 12 63.78125 8.203125 56.5625 
C 4.203125 49.015625 3.796875 39.671875 3.796875 31.84375 
C 3.796875 26.109375 3.90625 17.375 7 9.734375 
C 11.296875 -0.609375 19 -2 22.90625 -2 
C 27.5 -2 34.5 -0.109375 38.59375 9.4375 
C 41.59375 16.375 42 24.5 42 31.84375 
z
M 22.90625 -0.40625 
C 16.5 -0.40625 12.703125 5.125 11.296875 12.75 
C 10.203125 18.6875 10.203125 27.328125 10.203125 32.953125 
C 10.203125 40.6875 10.203125 47.109375 11.5 53.234375 
C 13.40625 61.78125 19 64.390625 22.90625 64.390625 
C 27 64.390625 32.296875 61.671875 34.203125 53.4375 
C 35.5 47.71875 35.59375 40.984375 35.59375 32.953125 
C 35.59375 26.421875 35.59375 18.375 34.40625 12.453125 
C 32.296875 1.5 26.40625 -0.40625 22.90625 -0.40625 
z
" id="CMR17-48"/>
        <path d="M 65.90625 23 
C 67.59375 23 69.40625 23 69.40625 25 
C 69.40625 27 67.59375 27 65.90625 27 
L 11.796875 27 
C 10.09375 27 8.296875 27 8.296875 25 
C 8.296875 23 10.09375 23 11.796875 23 
z
" id="CMSY10-0"/>
        <path d="M 45.09375 61.796875 
L 45.09375 64 
L 21.59375 64 
C 9.90625 64 9.703125 65.09375 9.296875 67 
L 7.5 67 
L 4.59375 48.5 
L 6.40625 48.5 
C 6.703125 50.40625 7.40625 55.5 8.59375 57.390625 
C 9.203125 58.1875 16.59375 58.1875 18.296875 58.1875 
L 40.296875 58.1875 
L 29.203125 41.71875 
C 21.796875 30.640625 16.703125 15.671875 16.703125 2.59375 
C 16.703125 1.390625 16.703125 -2 20.296875 -2 
C 23.90625 -2 23.90625 1.390625 23.90625 2.6875 
L 23.90625 7.28125 
C 23.90625 23.65625 26.703125 34.4375 31.296875 41.3125 
z
" id="CMR17-55"/>
       </defs>
       <use transform="scale(0.996264)" xlink:href="#CMR17-49"/>
       <use transform="translate(45.690477 0)scale(0.996264)" xlink:href="#CMR17-48"/>
       <use transform="translate(91.380954 36.153639)scale(0.697382)" xlink:href="#CMSY10-0"/>
       <use transform="translate(145.621947 36.153639)scale(0.697382)" xlink:href="#CMR17-55"/>
      </g>
     </g>
    </g>
    <g id="ytick_2">
     <g id="line2d_7">
      <g>
       <use style="stroke:#000000;stroke-width:0.5;" x="40.440138" xlink:href="#m2d17ec9205" y="80.412518"/>
      </g>
     </g>
     <g id="text_2">
      <!-- $\mathdefault{10^{-5}}$ -->
      <g transform="translate(17.815704 83.525843)scale(0.09 -0.09)">
       <defs>
        <path d="M 11.40625 58.59375 
C 12.40625 58.1875 16.5 56.890625 20.703125 56.890625 
C 30 56.890625 35.09375 61.890625 38 64.6875 
C 38 65.484375 38 66 37.40625 66 
C 37.296875 66 37.09375 66 36.296875 65.59375 
C 32.796875 64.09375 28.703125 63 23.703125 63 
C 20.703125 63 16.203125 63.359375 11.296875 65.484375 
C 10.203125 66 10 66 9.90625 66 
C 9.40625 66 9.296875 65.890625 9.296875 63.90625 
L 9.296875 34.859375 
C 9.296875 33.015625 9.296875 32.5 10.296875 32.5 
C 10.796875 32.5 11 32.703125 11.5 33.421875 
C 14.703125 38.046875 19.09375 40 24.09375 40 
C 27.59375 40 35.09375 37.734375 35.09375 20.203125 
C 35.09375 16.984375 35.09375 11.1875 32.09375 6.59375 
C 29.59375 2.484375 25.703125 0.390625 21.40625 0.390625 
C 14.796875 0.390625 8.09375 4.984375 6.296875 12.6875 
C 6.703125 12.59375 7.5 12.390625 7.90625 12.390625 
C 9.203125 12.390625 11.703125 13.09375 11.703125 16.1875 
C 11.703125 18.890625 9.796875 20 7.90625 20 
C 5.59375 20 4.09375 18.59375 4.09375 15.796875 
C 4.09375 7.09375 11 -2 21.59375 -2 
C 31.90625 -2 41.703125 6.890625 41.703125 19.796875 
C 41.703125 32.09375 33.90625 41.59375 24.203125 41.59375 
C 19.09375 41.59375 14.796875 39.6875 11.40625 36 
z
" id="CMR17-53"/>
       </defs>
       <use transform="scale(0.996264)" xlink:href="#CMR17-49"/>
       <use transform="translate(45.690477 0)scale(0.996264)" xlink:href="#CMR17-48"/>
       <use transform="translate(91.380954 36.153639)scale(0.697382)" xlink:href="#CMSY10-0"/>
       <use transform="translate(145.621947 36.153639)scale(0.697382)" xlink:href="#CMR17-53"/>
      </g>
     </g>
    </g>
    <g id="ytick_3">
     <g id="line2d_8">
      <g>
       <use style="stroke:#000000;stroke-width:0.5;" x="40.440138" xlink:href="#m2d17ec9205" y="48.535511"/>
      </g>
     </g>
     <g id="text_3">
      <!-- $\mathdefault{10^{-3}}$ -->
      <g transform="translate(17.815704 51.648836)scale(0.09 -0.09)">
       <defs>
        <path d="M 22.09375 34 
C 31 34 34.90625 26.140625 34.90625 17.09375 
C 34.90625 5.03125 28.5 0.390625 22.703125 0.390625 
C 17.40625 0.390625 8.796875 3.015625 6.09375 10.796875 
C 6.59375 10.59375 7.09375 10.59375 7.59375 10.59375 
C 10 10.59375 11.796875 12.1875 11.796875 14.796875 
C 11.796875 17.6875 9.59375 19 7.59375 19 
C 5.90625 19 3.296875 18.1875 3.296875 14.484375 
C 3.296875 5.234375 12.296875 -2 22.90625 -2 
C 34 -2 42.5 6.75 42.5 16.984375 
C 42.5 26.84375 34.5 34 25 35.09375 
C 32.59375 36.671875 39.90625 43.375 39.90625 52.390625 
C 39.90625 60.25 32 66 23 66 
C 13.90625 66 5.90625 60.34375 5.90625 52.296875 
C 5.90625 48.796875 8.5 48.1875 9.796875 48.1875 
C 11.90625 48.1875 13.703125 49.484375 13.703125 52.09375 
C 13.703125 54.6875 11.90625 56 9.796875 56 
C 9.40625 56 8.90625 56 8.5 55.796875 
C 11.40625 62.484375 19.296875 63.6875 22.796875 63.6875 
C 26.296875 63.6875 32.90625 61.96875 32.90625 52.296875 
C 32.90625 49.484375 32.5 44.546875 29.09375 40.21875 
C 26.09375 36.390625 22.703125 36.1875 19.40625 35.890625 
C 18.90625 35.890625 16.59375 35.6875 16.203125 35.6875 
C 15.5 35.59375 15.09375 35.5 15.09375 34.796875 
C 15.09375 34.09375 15.203125 34 17.203125 34 
z
" id="CMR17-51"/>
       </defs>
       <use transform="scale(0.996264)" xlink:href="#CMR17-49"/>
       <use transform="translate(45.690477 0)scale(0.996264)" xlink:href="#CMR17-48"/>
       <use transform="translate(91.380954 36.153639)scale(0.697382)" xlink:href="#CMSY10-0"/>
       <use transform="translate(145.621947 36.153639)scale(0.697382)" xlink:href="#CMR17-51"/>
      </g>
     </g>
    </g>
    <g id="ytick_4">
     <g id="line2d_9">
      <g>
       <use style="stroke:#000000;stroke-width:0.5;" x="40.440138" xlink:href="#m2d17ec9205" y="16.658504"/>
      </g>
     </g>
     <g id="text_4">
      <!-- $\mathdefault{10^{-1}}$ -->
      <g transform="translate(17.815704 19.771829)scale(0.09 -0.09)">
       <use transform="scale(0.996264)" xlink:href="#CMR17-49"/>
       <use transform="translate(45.690477 0)scale(0.996264)" xlink:href="#CMR17-48"/>
       <use transform="translate(91.380954 36.153639)scale(0.697382)" xlink:href="#CMSY10-0"/>
       <use transform="translate(145.621947 36.153639)scale(0.697382)" xlink:href="#CMR17-49"/>
      </g>
     </g>
    </g>
    <g id="text_5">
     <!-- $\rho(x,0) \: / \: \rm{\AA}^{-2}$ -->
     <g transform="translate(13.57411 81.93682)rotate(-90)scale(0.09 -0.09)">
      <defs>
       <path d="M 3.09375 -16.953125 
C 3 -17.4375 2.796875 -18.03125 2.796875 -18.609375 
C 2.796875 -20.109375 4 -21.109375 5.5 -21.109375 
C 7 -21.109375 8.40625 -20.109375 9 -18.71875 
C 9.40625 -17.828125 12.203125 -6.09375 15.40625 6.078125 
C 17.40625 1.09375 21.09375 -1 25 -1 
C 36.296875 -1 49.09375 12.96875 49.09375 28.03125 
C 49.09375 38.703125 42.59375 44 35.703125 44 
C 26.90625 44 16.203125 34.90625 12.90625 21.640625 
z
M 24.90625 1 
C 18.09375 1 16.40625 8.875 16.40625 10.078125 
C 16.40625 10.671875 18.90625 20.140625 19.203125 21.640625 
C 24.296875 41.5 34.09375 41.984375 35.59375 41.984375 
C 40.09375 41.984375 42.59375 37.90625 42.59375 32.015625 
C 42.59375 26.9375 39.90625 17.046875 38.203125 12.859375 
C 35.203125 5.984375 30 1 24.90625 1 
z
" id="CMMI12-26"/>
       <path d="M 30.59375 -24.40625 
C 30.59375 -24.3125 30.59375 -24.109375 30.296875 -23.8125 
C 25.703125 -19.109375 13.40625 -6.296875 13.40625 24.9375 
C 13.40625 56.171875 25.5 68.875 30.40625 73.890625 
C 30.40625 73.984375 30.59375 74.1875 30.59375 74.484375 
C 30.59375 74.796875 30.296875 75 29.90625 75 
C 28.796875 75 20.296875 67.578125 15.40625 56.5625 
C 10.40625 45.453125 9 34.65625 9 25.046875 
C 9 17.828125 9.703125 5.625 15.703125 -7.296875 
C 20.5 -17.703125 28.703125 -25 29.90625 -25 
C 30.40625 -25 30.59375 -24.8125 30.59375 -24.40625 
z
" id="CMR17-40"/>
       <path d="M 47.40625 41 
C 44.203125 40.390625 43 37.984375 43 36.09375 
C 43 33.6875 44.90625 32.890625 46.296875 32.890625 
C 49.296875 32.890625 51.40625 35.484375 51.40625 38.1875 
C 51.40625 42.09375 46.59375 44 42.40625 44 
C 36.296875 44 32.90625 38.296875 32 36.390625 
C 29.703125 43.59375 23.5 44 21.703125 44 
C 11.5 44 6.09375 31.140625 6.09375 28.890625 
C 6.09375 28.484375 6.5 27.96875 7.203125 27.96875 
C 8 27.96875 8.203125 28.578125 8.40625 28.984375 
C 11.796875 40.1875 18.5 41.984375 21.40625 41.984375 
C 25.90625 41.984375 26.796875 38.09375 26.796875 35.6875 
C 26.796875 33.484375 26.203125 31.140625 25 26.21875 
L 21.59375 12.15625 
C 20.09375 6.09375 17.203125 1 11.90625 1 
C 11.40625 1 8.90625 1 6.796875 1.96875 
C 10.40625 2.59375 11.203125 5.59375 11.203125 6.796875 
C 11.203125 8.796875 9.703125 10 7.796875 10 
C 5.40625 10 2.796875 7.890625 2.796875 4.6875 
C 2.796875 0.890625 7.5 -1 11.796875 -1 
C 16.59375 -1 20 2.390625 22.09375 6.484375 
C 23.703125 1 28.703125 -1 32.40625 -1 
C 42.59375 -1 48 11.734375 48 14 
C 48 14.515625 47.59375 14.921875 47 14.921875 
C 46.09375 14.921875 46 14.40625 45.703125 13.59375 
C 43 4.6875 37.203125 1 32.703125 1 
C 29.203125 1 27.296875 3.1875 27.296875 7.296875 
C 27.296875 9.484375 27.703125 11.125 29.296875 17.90625 
L 32.796875 31.859375 
C 34.296875 37.890625 37.703125 41.984375 42.296875 41.984375 
C 42.5 41.984375 45.296875 41.984375 47.40625 41 
z
" id="CMMI12-120"/>
       <path d="M 19.5 -0.40625 
C 19.5 5.390625 17.59375 9.6875 13.5 9.6875 
C 10.296875 9.6875 8.703125 7.09375 8.703125 4.890625 
C 8.703125 2.6875 10.203125 0 13.59375 0 
C 14.90625 0 16 0.390625 16.90625 1.296875 
C 17.09375 1.5 17.203125 1.5 17.296875 1.5 
C 17.5 1.5 17.5 0.09375 17.5 -0.40625 
C 17.5 -3.640625 16.90625 -10.03125 11.09375 -16.421875 
C 10 -17.609375 10 -17.8125 10 -18 
C 10 -18.5 10.5 -19 11 -19 
C 11.796875 -19 19.5 -11.703125 19.5 -0.40625 
z
" id="CMMI12-59"/>
       <path d="M 26.296875 24.9375 
C 26.296875 32.140625 25.59375 44.359375 19.59375 57.265625 
C 14.796875 67.6875 6.59375 75 5.40625 75 
C 5.09375 75 4.703125 74.890625 4.703125 74.390625 
C 4.703125 74.1875 4.796875 74.09375 4.90625 73.890625 
C 9.703125 68.875 21.90625 56.171875 21.90625 25.046875 
C 21.90625 -6.1875 9.796875 -18.90625 4.90625 -23.90625 
C 4.796875 -24.109375 4.703125 -24.203125 4.703125 -24.40625 
C 4.703125 -24.90625 5.09375 -25 5.40625 -25 
C 6.5 -25 15 -17.609375 19.90625 -6.59375 
C 24.90625 4.515625 26.296875 15.328125 26.296875 24.9375 
z
" id="CMR17-41"/>
       <path d="M 42.90625 71.296875 
C 42.90625 71.390625 43.5 72.890625 43.5 73.09375 
C 43.5 74.296875 42.5 75 41.703125 75 
C 41.203125 75 40.296875 75 39.5 72.796875 
L 6 -21.3125 
C 6 -21.40625 5.40625 -22.90625 5.40625 -23.109375 
C 5.40625 -24.3125 6.40625 -25 7.203125 -25 
C 7.796875 -25 8.703125 -24.90625 9.40625 -22.8125 
z
" id="CMMI12-61"/>
       <path d="M 43.296875 62.1875 
C 43.296875 67.1875 39.296875 71 34.59375 71 
C 29.90625 71 25.90625 67.1875 25.90625 62.1875 
C 25.90625 57.1875 29.90625 53.390625 34.59375 53.390625 
C 39.296875 53.390625 43.296875 57.1875 43.296875 62.1875 
z
M 34.59375 55 
C 30.40625 55 27.703125 57.59375 27.703125 62.1875 
C 27.703125 66.890625 30.5 69.390625 34.59375 69.390625 
C 38.796875 69.390625 41.5 66.796875 41.5 62.1875 
C 41.5 57.5 38.703125 55 34.59375 55 
z
" id="CMR17-23"/>
       <path d="M 36.296875 69.390625 
C 35.796875 70.6875 35.59375 71 34.59375 71 
C 33.59375 71 33.40625 70.6875 32.90625 69.390625 
L 11.703125 9.0625 
C 9.796875 3.6875 5.796875 2.59375 2.296875 2.59375 
L 2.296875 0 
C 4.09375 0.1875 8.09375 0.1875 10 0.1875 
C 12.5 0.1875 16.5 0.1875 18.90625 0 
L 18.90625 2.59375 
C 14.203125 2.796875 13.5 5.96875 13.5 7.171875 
C 13.5 8.0625 13.703125 8.5625 13.90625 9.15625 
L 19.203125 24 
L 45.40625 24 
L 51.40625 7.078125 
C 51.90625 5.875 51.90625 5.671875 51.90625 5.28125 
C 51.90625 2.59375 47.59375 2.59375 45.703125 2.59375 
L 45.703125 0 
C 48.59375 0.1875 53.796875 0.1875 56.90625 0.1875 
C 59.5 0.1875 64.5 0.1875 66.90625 0 
L 66.90625 2.59375 
C 61.59375 2.59375 59.796875 2.59375 58.5 6.28125 
z
M 32.296875 61.3125 
L 44.5 26.59375 
L 20.09375 26.59375 
z
" id="CMR17-65"/>
       <path d="M 41.703125 15.46875 
L 39.90625 15.46875 
C 38.90625 8.390625 38.09375 7.1875 37.703125 6.59375 
C 37.203125 5.796875 30 5.796875 28.59375 5.796875 
L 9.40625 5.796875 
C 13 9.6875 20 16.765625 28.5 24.9375 
C 34.59375 30.71875 41.703125 37.5 41.703125 47.390625 
C 41.703125 59.1875 32.296875 66 21.796875 66 
C 10.796875 66 4.09375 56.296875 4.09375 47.296875 
C 4.09375 43.390625 7 42.890625 8.203125 42.890625 
C 9.203125 42.890625 12.203125 43.484375 12.203125 46.984375 
C 12.203125 50.09375 9.59375 51 8.203125 51 
C 7.59375 51 7 50.890625 6.59375 50.6875 
C 8.5 59.1875 14.296875 63.390625 20.40625 63.390625 
C 29.09375 63.390625 34.796875 56.5 34.796875 47.390625 
C 34.796875 38.703125 29.703125 31.21875 24 24.734375 
L 4.09375 2.296875 
L 4.09375 0 
L 39.296875 0 
z
" id="CMR17-50"/>
      </defs>
      <use transform="scale(0.996264)" xlink:href="#CMMI12-26"/>
      <use transform="translate(50.314373 0)scale(0.996264)" xlink:href="#CMR17-40"/>
      <use transform="translate(85.595141 0)scale(0.996264)" xlink:href="#CMMI12-120"/>
      <use transform="translate(141.0292 0)scale(0.996264)" xlink:href="#CMMI12-59"/>
      <use transform="translate(184.730783 0)scale(0.996264)" xlink:href="#CMR17-48"/>
      <use transform="translate(230.42126 0)scale(0.996264)" xlink:href="#CMR17-41"/>
      <use transform="translate(287.841234 0)scale(0.996264)" xlink:href="#CMMI12-61"/>
      <use transform="translate(358.75536 17.618744)scale(0.996264)" xlink:href="#CMR17-23"/>
      <use transform="translate(358.75536 0)scale(0.996264)" xlink:href="#CMR17-65"/>
      <use transform="translate(427.82779 59.877267)scale(0.697382)" xlink:href="#CMSY10-0"/>
      <use transform="translate(482.068783 59.877267)scale(0.697382)" xlink:href="#CMR17-50"/>
     </g>
    </g>
   </g>
   <g id="line2d_10">
    <path clip-path="url(#pad7fcd4c9d)" d="M 20.12231 255.181184 
L 20.134208 93.25527 
L 21.2986 100.834995 
L 22.462991 91.18281 
L 23.627382 91.164363 
L 24.791773 91.274117 
L 25.956165 93.224172 
L 27.120556 93.295426 
L 28.284947 100.834995 
L 29.449339 89.612496 
L 30.61373 84.837054 
L 31.778121 89.632033 
L 32.942513 79.39689 
L 34.106904 84.230213 
L 35.271295 77.731575 
L 36.435687 76.180411 
L 37.600078 76.639655 
L 38.764469 75.848877 
L 39.92886 73.113683 
L 41.093252 73.889201 
L 42.257643 72.284986 
L 43.422034 73.492553 
L 44.586426 70.100691 
L 45.750817 69.940216 
L 46.915208 67.884622 
L 48.0796 68.627215 
L 49.243991 67.599053 
L 50.408382 65.667892 
L 51.572774 64.830923 
L 52.737165 62.686529 
L 53.901556 60.830711 
L 55.065947 60.896328 
L 56.230339 59.359162 
L 57.39473 58.65907 
L 58.559121 57.109181 
L 59.723513 56.146129 
L 62.052295 52.73207 
L 63.216687 51.581691 
L 64.381078 49.42934 
L 65.545469 48.421174 
L 67.874252 45.658315 
L 69.038643 44.153364 
L 71.367426 41.777298 
L 73.696208 39.791179 
L 74.8606 39.037713 
L 77.189382 37.997955 
L 80.682556 37.177526 
L 81.846948 36.915416 
L 84.17573 36.711011 
L 85.340121 36.476259 
L 86.504513 36.361623 
L 89.997687 35.311542 
L 91.162078 35.190473 
L 98.148426 31.800337 
L 99.312817 30.973733 
L 105.134774 28.295977 
L 108.627948 27.301865 
L 113.285513 26.407355 
L 116.778687 25.341805 
L 120.271861 23.813998 
L 121.436252 23.194627 
L 128.4226 18.66156 
L 129.586991 18.005812 
L 131.915774 17.023139 
L 133.080165 16.688035 
L 134.244556 16.470882 
L 135.408948 16.392234 
L 136.573339 16.438951 
L 137.73773 16.669385 
L 140.066513 17.481883 
L 142.395295 18.729553 
L 144.724078 20.116766 
L 147.052861 21.725573 
L 150.546035 23.848264 
L 154.039209 25.392106 
L 158.696774 26.675564 
L 159.861165 26.930975 
L 161.025556 27.059851 
L 163.354339 27.650319 
L 164.51873 28.033702 
L 165.683122 28.257546 
L 169.176296 29.807113 
L 171.505078 30.792199 
L 173.833861 32.168319 
L 176.162643 33.524104 
L 181.9846 35.858806 
L 183.148991 36.235389 
L 184.313383 36.27141 
L 185.477774 36.724463 
L 186.642165 36.703048 
L 187.806556 36.87448 
L 192.464122 37.982979 
L 193.628513 38.020488 
L 197.121687 40.216533 
L 200.614861 43.022699 
L 201.779252 44.291624 
L 202.943643 45.107845 
L 208.7656 53.002938 
L 209.929991 54.031072 
L 212.258774 57.462384 
L 213.423165 57.880203 
L 214.587556 60.928528 
L 215.751948 61.222565 
L 216.916339 62.78987 
L 218.08073 63.830779 
L 219.245122 65.490589 
L 221.573904 66.739573 
L 222.738296 68.01342 
L 223.902687 67.143015 
L 225.067078 69.765164 
L 226.23147 69.84761 
L 227.395861 74.332963 
L 228.560252 74.03801 
L 229.724643 75.121889 
L 232.053426 75.827558 
L 232.097758 76.03362 
L 232.097758 76.03362 
" style="fill:none;stroke:#d43e4e;stroke-linecap:square;"/>
   </g>
   <g id="line2d_11">
    <path clip-path="url(#pad7fcd4c9d)" d="M -1 114.142587 
L 0.145464 115.788971 
L 1.795019 119.416818 
L 3.444574 125.172347 
L 5.094128 136.075119 
L 6.743683 160.331028 
L 8.393238 133.406289 
L 10.042792 126.542862 
L 11.692347 124.124144 
L 13.341902 125.064819 
L 14.991456 131.447367 
L 16.641011 159.196819 
L 18.290566 122.773429 
L 19.94012 111.460613 
L 21.589675 104.055435 
L 23.23923 98.451518 
L 24.888784 93.927589 
L 26.538339 90.136139 
L 28.187894 86.875887 
L 29.837449 84.016598 
L 31.487003 81.468836 
L 33.136558 79.170441 
L 34.786113 77.080047 
L 36.435667 75.173698 
L 38.085222 73.442682 
L 39.734777 71.891755 
L 41.384331 70.537498 
L 43.033886 69.40691 
L 44.683441 68.536621 
L 46.332995 67.973289 
L 47.98255 67.776152 
L 49.632105 68.023444 
L 51.281659 68.826487 
L 52.931214 70.36107 
L 54.580769 72.945339 
L 56.230323 77.277913 
L 57.879878 85.525283 
L 59.529433 125.604716 
L 61.178987 85.562319 
L 62.828542 75.035477 
L 64.478097 68.872874 
L 66.127651 64.498792 
L 67.777206 61.113948 
L 69.426761 58.355126 
L 71.076315 56.022733 
L 72.72587 53.995782 
L 74.375425 52.198989 
L 76.024979 50.588107 
L 77.674534 49.1424 
L 79.324089 47.860065 
L 80.973643 46.75494 
L 82.623198 45.85405 
L 84.272753 45.196169 
L 85.922307 44.831937 
L 87.571862 44.826643 
L 89.221417 45.267752 
L 90.870971 46.281974 
L 92.520526 48.074618 
L 94.170081 51.032237 
L 95.819635 56.063713 
L 97.46919 66.475662 
L 99.118745 83.434523 
L 100.768299 58.840631 
L 102.417854 49.938963 
L 104.067409 44.273466 
L 105.716963 40.075421 
L 107.366518 36.712049 
L 109.016073 33.87377 
L 110.665628 31.381476 
L 113.964737 27.022433 
L 117.263846 23.143317 
L 120.562956 19.611068 
L 123.862065 16.496487 
L 125.51162 15.145031 
L 127.161174 13.959991 
L 128.810729 12.961473 
L 130.460284 12.166662 
L 132.109838 11.589175 
L 133.759393 11.238782 
L 135.408948 11.121336 
L 137.058502 11.238782 
L 138.708057 11.589175 
L 140.357612 12.166662 
L 142.007166 12.961473 
L 143.656721 13.959991 
L 145.306276 15.145031 
L 146.95583 16.496487 
L 150.25494 19.611068 
L 153.554049 23.143317 
L 156.853158 27.022433 
L 160.152268 31.381476 
L 161.801822 33.87377 
L 163.451377 36.712049 
L 165.100932 40.075421 
L 166.750486 44.273466 
L 168.400041 49.938963 
L 170.049596 58.840631 
L 171.69915 83.434523 
L 173.348705 66.475662 
L 174.99826 56.063713 
L 176.647814 51.032237 
L 178.297369 48.074618 
L 179.946924 46.281974 
L 181.596478 45.267752 
L 183.246033 44.826643 
L 184.895588 44.831937 
L 186.545142 45.196169 
L 188.194697 45.85405 
L 189.844252 46.75494 
L 191.493807 47.860065 
L 193.143361 49.1424 
L 194.792916 50.588107 
L 196.442471 52.198989 
L 198.092025 53.995782 
L 199.74158 56.022733 
L 201.391135 58.355126 
L 203.040689 61.113948 
L 204.690244 64.498792 
L 206.339799 68.872874 
L 207.989353 75.035477 
L 209.638908 85.562319 
L 211.288463 125.604716 
L 212.938017 85.525283 
L 214.587572 77.277913 
L 216.237127 72.945339 
L 217.886681 70.36107 
L 219.536236 68.826487 
L 221.185791 68.023444 
L 222.835345 67.776152 
L 224.4849 67.973289 
L 226.134455 68.536621 
L 227.784009 69.40691 
L 229.433564 70.537498 
L 232.097758 72.845728 
L 232.097758 72.845728 
" style="fill:none;stroke:#bddf26;stroke-linecap:square;stroke-width:1.5;"/>
   </g>
   <g id="patch_3">
    <path d="M 40.440138 112.289525 
L 40.440138 0.72 
" style="fill:none;stroke:#000000;stroke-linecap:square;stroke-linejoin:miter;stroke-width:0.5;"/>
   </g>
   <g id="patch_4">
    <path d="M 230.377758 112.289525 
L 230.377758 0.72 
" style="fill:none;stroke:#000000;stroke-linecap:square;stroke-linejoin:miter;stroke-width:0.5;"/>
   </g>
   <g id="patch_5">
    <path d="M 40.440138 112.289525 
L 230.377758 112.289525 
" style="fill:none;stroke:#000000;stroke-linecap:square;stroke-linejoin:miter;stroke-width:0.5;"/>
   </g>
   <g id="patch_6">
    <path d="M 40.440138 0.72 
L 230.377758 0.72 
" style="fill:none;stroke:#000000;stroke-linecap:square;stroke-linejoin:miter;stroke-width:0.5;"/>
   </g>
   <g id="text_6">
    <!-- $f = 1/ \rm{N_\graphene}$ -->
    <g transform="translate(54.926905 16.658504)scale(0.09 -0.09)">
     <defs>
      <path d="M 44.59375 40.09375 
C 46.59375 40.09375 47.40625 40.09375 47.40625 41.984375 
C 47.40625 43 46.59375 43 44.796875 43 
L 36.703125 43 
C 38.59375 53.09375 40 60.09375 40.796875 63.296875 
C 41.40625 65.6875 43.5 67.984375 46.09375 67.984375 
C 48.203125 67.984375 50.296875 67.09375 51.296875 66.1875 
C 47.40625 65.796875 46.203125 62.890625 46.203125 61.1875 
C 46.203125 59.1875 47.703125 58 49.59375 58 
C 51.59375 58 54.59375 59.6875 54.59375 63.5 
C 54.59375 67.6875 50.40625 70 46 70 
C 41.703125 70 37.5 66.796875 35.5 62.890625 
C 33.703125 59.390625 32.703125 55.828125 30.40625 43 
L 23.703125 43 
C 21.796875 43 20.796875 43 20.796875 41.1875 
C 20.796875 40.09375 21.40625 40.09375 23.40625 40.09375 
L 29.796875 40.09375 
C 28 30.890625 23.90625 8.515625 21.59375 -2.0625 
C 19.90625 -10.703125 18.40625 -18 13.40625 -18 
C 13.09375 -18 10.203125 -18 8.40625 -16.109375 
C 13.5 -15.703125 13.5 -11.3125 13.5 -11.203125 
C 13.5 -9.203125 12 -8 10.09375 -8 
C 8.09375 -8 5.09375 -9.703125 5.09375 -13.515625 
C 5.09375 -17.8125 9.5 -20 13.40625 -20 
C 23.59375 -20 27.796875 -1.765625 28.90625 3.171875 
C 30.703125 10.796875 35.59375 37.125 36.09375 40.09375 
z
" id="CMMI12-102"/>
      <path d="M 64.296875 32 
C 65.796875 32 67.296875 32 67.296875 33.6875 
C 67.296875 35.5 65.59375 35.5 63.90625 35.5 
L 8 35.5 
C 6.296875 35.5 4.59375 35.5 4.59375 33.6875 
C 4.59375 32 6.09375 32 7.59375 32 
z
M 63.90625 14.484375 
C 65.59375 14.484375 67.296875 14.484375 67.296875 16.296875 
C 67.296875 18 65.796875 18 64.296875 18 
L 7.59375 18 
C 6.09375 18 4.59375 18 4.59375 16.296875 
C 4.59375 14.484375 6.296875 14.484375 8 14.484375 
z
" id="CMR17-61"/>
      <path d="M 20.5 66.796875 
C 19.796875 67.890625 19.703125 68 17.796875 68 
L 5.09375 68 
L 5.09375 65.390625 
L 7 65.390625 
C 11 65.390625 12.796875 64.890625 13.09375 64.796875 
L 13.09375 9.75 
C 13.09375 7.265625 13.09375 2.59375 5.09375 2.59375 
L 5.09375 0 
C 7.40625 0.1875 11.59375 0.1875 14.09375 0.1875 
C 16.59375 0.1875 20.796875 0.1875 23.09375 0 
L 23.09375 2.59375 
C 15.09375 2.59375 15.09375 7.265625 15.09375 9.75 
L 15.09375 63.390625 
C 15.796875 62.796875 15.796875 62.609375 16.5 61.609375 
L 53.59375 1.1875 
C 54.296875 0 54.59375 0 55.09375 0 
C 56.09375 0 56.09375 0.296875 56.09375 2.1875 
L 56.09375 58.21875 
C 56.09375 60.703125 56.09375 65.390625 64.09375 65.390625 
L 64.09375 68 
C 61.796875 67.796875 57.59375 67.796875 55.09375 67.796875 
C 52.59375 67.796875 48.40625 67.796875 46.09375 68 
L 46.09375 65.390625 
C 54.09375 65.390625 54.09375 60.703125 54.09375 58.21875 
L 54.09375 12.140625 
z
" id="CMR17-78"/>
      <path d="M 63.203125 41.328125 
L 63.203125 35 
L 78.90625 35 
L 62.59375 7 
L 29.703125 7 
L 13.203125 35.09375 
L 29.703125 64 
L 62.59375 64 
L 70.5 50 
L 77.203125 50 
L 66.40625 71 
L 25.90625 71 
L 5.5 35.09375 
L 25.90625 0 
L 66.40625 0 
L 86.796875 35 
L 78.703125 41.328125 
z
" id="SVRsymbols-115"/>
     </defs>
     <use transform="scale(0.996264)" xlink:href="#CMMI12-102"/>
     <use transform="translate(86.394314 0)scale(0.996264)" xlink:href="#CMR17-61"/>
     <use transform="translate(185.783111 0)scale(0.996264)" xlink:href="#CMR17-49"/>
     <use transform="translate(231.473588 0)scale(0.996264)" xlink:href="#CMMI12-61"/>
     <use transform="translate(280.248507 0)scale(0.996264)" xlink:href="#CMR17-78"/>
     <use transform="translate(349.320936 -15.337838)scale(0.697382)" xlink:href="#SVRsymbols-115"/>
    </g>
   </g>
   <g id="text_7">
    <!-- (a) -->
    <g transform="translate(42.339514 8.181777)scale(0.07 -0.07)">
     <defs>
      <path d="M 36 25.875 
C 36 32 36 35.546875 31.796875 39.59375 
C 28.09375 42.984375 23.796875 44 20.40625 44 
C 12.5 44 6.796875 37.625 6.796875 30.890625 
C 6.796875 27.1875 9.796875 27 10.40625 27 
C 11.703125 27 14 27.796875 14 30.59375 
C 14 33.09375 12.09375 34.1875 10.40625 34.1875 
C 10 34.1875 9.5 34.09375 9.203125 34 
C 11.296875 40.53125 16.703125 42.390625 20.203125 42.390625 
C 25.203125 42.390625 30.703125 37.828125 30.703125 29.296875 
L 30.703125 25.5 
C 24.796875 25.296875 17.703125 24.5 12.09375 21.453125 
C 5.796875 17.921875 4 12.84375 4 9 
C 4 1.203125 13 -1 18.296875 -1 
C 23.796875 -1 28.90625 2.109375 31.09375 7.890625 
C 31.296875 3.421875 34.09375 -0.609375 38.5 -0.609375 
C 40.59375 -0.609375 45.90625 0.796875 45.90625 8.796875 
L 45.90625 14.46875 
L 44.09375 14.46875 
L 44.09375 8.703125 
C 44.09375 2.515625 41.40625 1.703125 40.09375 1.703125 
C 36 1.703125 36 6.96875 36 11.4375 
z
M 30.703125 13.859375 
C 30.703125 5.046875 24.5 0.59375 19 0.59375 
C 14 0.59375 10.09375 4.34375 10.09375 9 
C 10.09375 12.046875 11.40625 17.40625 17.203125 20.65625 
C 22 23.390625 27.5 23.796875 30.703125 24 
z
" id="CMR17-97"/>
     </defs>
     <use transform="scale(0.996264)" xlink:href="#CMR17-40"/>
     <use transform="translate(35.280768 0)scale(0.996264)" xlink:href="#CMR17-97"/>
     <use transform="translate(80.971245 0)scale(0.996264)" xlink:href="#CMR17-41"/>
    </g>
   </g>
   <g id="legend_1">
    <g id="line2d_12">
     <path d="M 170.465224 11.97 
L 183.965224 11.97 
" style="fill:none;stroke:#d43e4e;stroke-linecap:square;"/>
    </g>
    <g id="line2d_13"/>
    <g id="text_8">
     <!-- QMC -->
     <g transform="translate(188.465224 15.12)scale(0.09 -0.09)">
      <defs>
       <path d="M 47.296875 0.484375 
C 59.203125 5.546875 67.296875 18.546875 67.296875 33.703125 
C 67.296875 54.4375 52.59375 70 36 70 
C 19 70 4.59375 54.234375 4.59375 33.703125 
C 4.59375 13.484375 19 -2 36 -2 
C 38.296875 -2 41.5 -1.703125 45.296875 -0.40625 
C 47 -12.703125 48.09375 -20 56.703125 -20 
C 67.296875 -20 67.796875 -4.328125 67.796875 -1.5 
C 67.796875 -0.5 67.796875 0.1875 67.09375 0.1875 
C 66.59375 0.1875 66.5 -0.5 66.5 -0.703125 
C 65.796875 -10.390625 60.40625 -12.40625 57.203125 -12.40625 
C 51.296875 -12.40625 49.203125 -7.0625 47.296875 0.484375 
z
M 30.59375 0.59375 
C 20.203125 3.859375 12 14.90625 12 33.703125 
C 12 57.78125 25.09375 68.1875 35.90625 68.1875 
C 47.09375 68.1875 59.90625 57.375 59.90625 33.703125 
C 59.90625 16.625 53.203125 7.234375 46.5 2.96875 
C 45 8.03125 42.59375 14 36.09375 14 
C 31.296875 14 28.59375 9.8125 28.59375 6.046875 
C 28.59375 3.765625 29.5 1.875 30.59375 0.59375 
z
M 44.90625 2.078125 
C 40.90625 -0.015625 37.703125 -0.203125 36 -0.203125 
C 31.5 -0.203125 30.203125 3.859375 30.203125 6.046875 
C 30.203125 9.125 32.296875 12.390625 36.09375 12.390625 
C 42.5 12.390625 44.09375 6.734375 44.90625 2.078125 
z
" id="CMR17-81"/>
       <path d="M 20.90625 66.390625 
C 20.296875 67.890625 20.203125 68 18.09375 68 
L 5.296875 68 
L 5.296875 65.390625 
C 12.203125 65.390625 13.296875 65.390625 13.296875 60.90625 
L 13.296875 9.75 
C 13.296875 7.265625 13.296875 2.59375 5.296875 2.59375 
L 5.296875 0 
C 7.59375 0.1875 11.796875 0.1875 14.296875 0.1875 
C 16.796875 0.1875 21 0.1875 23.296875 0 
L 23.296875 2.59375 
C 15.296875 2.59375 15.296875 7.265625 15.296875 9.75 
L 15.296875 64.984375 
L 15.40625 64.984375 
L 38.90625 1.59375 
C 39.296875 0.59375 39.5 0 40.296875 0 
C 41.09375 0 41.296875 0.59375 41.703125 1.59375 
L 65.40625 65.484375 
L 65.5 65.484375 
L 65.5 7.078125 
C 65.5 2.59375 64.40625 2.59375 57.5 2.59375 
L 57.5 0 
C 60.203125 0.1875 65.59375 0.1875 68.5 0.1875 
C 71.40625 0.1875 76.90625 0.1875 79.59375 0 
L 79.59375 2.59375 
C 72.703125 2.59375 71.59375 2.59375 71.59375 7.078125 
L 71.59375 60.90625 
C 71.59375 65.390625 72.703125 65.390625 79.59375 65.390625 
L 79.59375 68 
L 66.90625 68 
C 64.796875 68 64.703125 67.890625 64.09375 66.390625 
L 42.5 8.0625 
z
" id="CMR17-77"/>
       <path d="M 62.09375 67.984375 
C 62.09375 69.796875 62 69.890625 61.40625 69.890625 
C 61 69.890625 60.90625 69.796875 60.203125 68.59375 
L 55.796875 60.140625 
C 50.90625 66.390625 44.90625 70 37.203125 70 
C 20.09375 70 4.59375 54.796875 4.59375 34.046875 
C 4.59375 13.078125 20.09375 -2 37.296875 -2 
C 52.59375 -2 62.09375 11.578125 62.09375 23.15625 
C 62.09375 24.171875 62.09375 24.578125 61.203125 24.578125 
C 60.40625 24.578125 60.40625 24.265625 60.296875 23.359375 
C 59.5 9.25 49.5 0.59375 38.703125 0.59375 
C 28.5 0.59375 12.203125 7.84375 12.203125 34.046875 
C 12.203125 60.34375 28.796875 67.390625 38.5 67.390625 
C 49.796875 67.390625 58 57.515625 59.90625 43.515625 
C 60.09375 42.296875 60.09375 42.109375 61 42.109375 
C 62.09375 42.109375 62.09375 42.296875 62.09375 44.125 
z
" id="CMR17-67"/>
      </defs>
      <use transform="scale(0.996264)" xlink:href="#CMR17-81"/>
      <use transform="translate(71.714788 0)scale(0.996264)" xlink:href="#CMR17-77"/>
      <use transform="translate(156.401729 0)scale(0.996264)" xlink:href="#CMR17-67"/>
     </g>
    </g>
    <g id="line2d_14">
     <path d="M 170.465224 22.266562 
L 183.965224 22.266562 
" style="fill:none;stroke:#bddf26;stroke-linecap:square;stroke-width:1.5;"/>
    </g>
    <g id="line2d_15"/>
    <g id="text_9">
     <!-- Wannier -->
     <g transform="translate(188.465224 25.416562)scale(0.09 -0.09)">
      <defs>
       <path d="M 86.296875 58.984375 
C 87.203125 61.6875 88.703125 65.203125 94.5 65.390625 
L 94.5 68 
C 92.796875 67.890625 89.296875 67.796875 87.5 67.796875 
C 85 67.796875 80.59375 67.796875 78.203125 68 
L 78.203125 65.390625 
C 82.703125 65.296875 84.59375 62.796875 84.59375 60.390625 
C 84.59375 59.6875 84.5 59.28125 84.09375 58.1875 
L 68.59375 8.703125 
L 52.296875 60.78125 
C 52 61.796875 51.90625 62.1875 51.90625 62.59375 
C 51.90625 65.390625 56.296875 65.390625 58.203125 65.390625 
L 58.203125 68 
C 55.296875 67.796875 50.296875 67.796875 47.203125 67.796875 
C 44.703125 67.796875 40.203125 67.796875 37.90625 68 
L 37.90625 65.390625 
C 42.5 65.390625 43.703125 65.09375 44.703125 63.296875 
C 45.09375 62.390625 46.703125 57.1875 46.703125 56.875 
C 46.703125 56.484375 46.5 55.875 46.40625 55.578125 
L 31.703125 8.8125 
L 15.40625 60.78125 
C 14.90625 62.1875 14.90625 62.390625 14.90625 62.59375 
C 14.90625 65.390625 19.296875 65.390625 21.296875 65.390625 
L 21.296875 68 
C 18.40625 67.796875 13.40625 67.796875 10.296875 67.796875 
C 7.703125 67.796875 3.296875 67.796875 0.90625 68 
L 0.90625 65.390625 
C 6.90625 65.390625 7.296875 64.796875 8.296875 61.59375 
L 27.796875 -0.3125 
C 28.296875 -1.8125 28.296875 -2 29.203125 -2 
C 30 -2 30.296875 -1.8125 30.703125 -0.40625 
L 47.703125 53.875 
L 64.703125 -0.40625 
C 65.09375 -1.8125 65.40625 -2 66.203125 -2 
C 67.09375 -2 67.09375 -1.8125 67.59375 -0.3125 
z
" id="CMR17-87"/>
       <path d="M 41.5 30.53125 
C 41.5 35.65625 40.5 44 28.703125 44 
C 20.796875 44 16.703125 37.875 15.203125 33.84375 
L 15.09375 33.84375 
L 15.09375 44 
L 3.296875 42.890625 
L 3.296875 40.28125 
C 9.203125 40.28125 10.09375 39.6875 10.09375 34.859375 
L 10.09375 6.921875 
C 10.09375 3.09375 9.703125 2.59375 3.296875 2.59375 
L 3.296875 0 
C 5.703125 0.1875 10.09375 0.1875 12.703125 0.1875 
C 15.296875 0.1875 19.796875 0.1875 22.203125 0 
L 22.203125 2.59375 
C 15.796875 2.59375 15.40625 3 15.40625 6.921875 
L 15.40625 26.21875 
C 15.40625 35.453125 21 42.390625 28 42.390625 
C 35.40625 42.390625 36.203125 35.765625 36.203125 30.9375 
L 36.203125 6.921875 
C 36.203125 3.09375 35.796875 2.59375 29.40625 2.59375 
L 29.40625 0 
C 31.796875 0.1875 36.203125 0.1875 38.796875 0.1875 
C 41.40625 0.1875 45.90625 0.1875 48.296875 0 
L 48.296875 2.59375 
C 41.90625 2.59375 41.5 3 41.5 6.921875 
z
" id="CMR17-110"/>
       <path d="M 15.5 61.890625 
C 15.5 64.09375 13.703125 66 11.40625 66 
C 9.203125 66 7.296875 64.1875 7.296875 61.890625 
C 7.296875 59.6875 9.09375 57.796875 11.40625 57.796875 
C 13.59375 57.796875 15.5 59.59375 15.5 61.890625 
z
M 3.796875 42.890625 
L 3.796875 40.296875 
C 9.40625 40.296875 10.203125 39.6875 10.203125 34.859375 
L 10.203125 6.921875 
C 10.203125 3.09375 9.796875 2.59375 3.40625 2.59375 
L 3.40625 0 
C 5.796875 0.1875 10.09375 0.1875 12.59375 0.1875 
C 15 0.1875 19.09375 0.1875 21.40625 0 
L 21.40625 2.59375 
C 15.5 2.59375 15.296875 3.203125 15.296875 6.8125 
L 15.296875 44 
z
" id="CMR17-105"/>
       <path d="M 38.09375 23.484375 
C 38.5 23.890625 38.5 24.09375 38.5 25.09375 
C 38.5 35.171875 33.09375 44 21.703125 44 
C 11.09375 44 2.703125 33.984375 2.703125 21.78125 
C 2.703125 8.65625 12.203125 -1 22.796875 -1 
C 34 -1 38.40625 9.671875 38.40625 11.796875 
C 38.40625 12.5 37.796875 12.5 37.59375 12.5 
C 36.90625 12.5 36.796875 12.296875 36.40625 11.078125 
C 34.203125 4.21875 28.703125 0.796875 23.5 0.796875 
C 19.203125 0.796875 14.90625 3.21875 12.203125 7.65625 
C 9.09375 12.796875 9.09375 18.75 9.09375 23.484375 
z
M 9.203125 25 
C 9.90625 39.234375 17.59375 42.390625 21.59375 42.390625 
C 28.40625 42.390625 33 36.0625 33.09375 25 
z
" id="CMR17-101"/>
       <path d="M 15 23.703125 
C 15 33.34375 19.09375 42.390625 26.59375 42.390625 
C 27.296875 42.390625 28 42.296875 28.703125 41.984375 
C 28.703125 41.984375 26.5 41.28125 26.5 38.671875 
C 26.5 36.265625 28.40625 35.265625 29.90625 35.265625 
C 31.09375 35.265625 33.296875 35.96875 33.296875 38.78125 
C 33.296875 41.984375 30.09375 44 26.703125 44 
C 19.09375 44 15.796875 36.5625 14.796875 33.046875 
L 14.703125 33.046875 
L 14.703125 44 
L 3.09375 42.890625 
L 3.09375 40.28125 
C 9 40.28125 9.90625 39.6875 9.90625 34.859375 
L 9.90625 6.921875 
C 9.90625 3.09375 9.5 2.59375 3.09375 2.59375 
L 3.09375 0 
C 5.5 0.1875 10.09375 0.1875 12.703125 0.1875 
C 15.59375 0.1875 20.703125 0.1875 23.40625 0 
L 23.40625 2.59375 
C 16.203125 2.59375 15 2.59375 15 7.109375 
z
" id="CMR17-114"/>
      </defs>
      <use transform="scale(0.996264)" xlink:href="#CMR17-87"/>
      <use transform="translate(87.289395 0)scale(0.996264)" xlink:href="#CMR17-97"/>
      <use transform="translate(132.979872 0)scale(0.996264)" xlink:href="#CMR17-110"/>
      <use transform="translate(183.875241 0)scale(0.996264)" xlink:href="#CMR17-110"/>
      <use transform="translate(234.770611 0)scale(0.996264)" xlink:href="#CMR17-105"/>
      <use transform="translate(259.64167 0)scale(0.996264)" xlink:href="#CMR17-101"/>
      <use transform="translate(300.12733 0)scale(0.996264)" xlink:href="#CMR17-114"/>
     </g>
    </g>
   </g>
  </g>
  <g id="axes_2">
   <g id="patch_7">
    <path d="M 40.440138 229.437526 
L 230.377758 229.437526 
L 230.377758 117.868001 
L 40.440138 117.868001 
z
" style="fill:none;"/>
   </g>
   <g id="matplotlib.axis_3">
    <g id="xtick_6">
     <g id="line2d_16">
      <g>
       <use style="stroke:#000000;stroke-width:0.5;" x="71.023314" xlink:href="#m28263679ab" y="229.437526"/>
      </g>
     </g>
     <g id="text_10">
      <!-- $\mathdefault{−4}$ -->
      <g transform="translate(65.135709 239.664176)scale(0.09 -0.09)">
       <defs>
        <path d="M 33.59375 64.796875 
C 33.59375 66.890625 33.5 67 31.703125 67 
L 2 19.59375 
L 2 17 
L 27.796875 17 
L 27.796875 7.1875 
C 27.796875 3.59375 27.59375 2.59375 20.59375 2.59375 
L 18.703125 2.59375 
L 18.703125 0 
C 21.90625 0.1875 27.296875 0.1875 30.703125 0.1875 
C 34.09375 0.1875 39.5 0.1875 42.703125 0 
L 42.703125 2.59375 
L 40.796875 2.59375 
C 33.796875 2.59375 33.59375 3.59375 33.59375 7.1875 
L 33.59375 17 
L 43.796875 17 
L 43.796875 19.59375 
L 33.59375 19.59375 
z
M 28.09375 58.171875 
L 28.09375 19.59375 
L 4 19.59375 
z
" id="CMR17-52"/>
       </defs>
       <use transform="scale(0.996264)" xlink:href="#CMSY10-0"/>
       <use transform="translate(77.487468 0)scale(0.996264)" xlink:href="#CMR17-52"/>
      </g>
     </g>
    </g>
    <g id="xtick_7">
     <g id="line2d_17">
      <g>
       <use style="stroke:#000000;stroke-width:0.5;" x="103.216131" xlink:href="#m28263679ab" y="229.437526"/>
      </g>
     </g>
     <g id="text_11">
      <!-- $\mathdefault{−2}$ -->
      <g transform="translate(97.328526 239.664176)scale(0.09 -0.09)">
       <use transform="scale(0.996264)" xlink:href="#CMSY10-0"/>
       <use transform="translate(77.487468 0)scale(0.996264)" xlink:href="#CMR17-50"/>
      </g>
     </g>
    </g>
    <g id="xtick_8">
     <g id="line2d_18">
      <g>
       <use style="stroke:#000000;stroke-width:0.5;" x="135.408948" xlink:href="#m28263679ab" y="229.437526"/>
      </g>
     </g>
     <g id="text_12">
      <!-- $\mathdefault{0}$ -->
      <g transform="translate(133.105102 239.664176)scale(0.09 -0.09)">
       <use transform="scale(0.996264)" xlink:href="#CMR17-48"/>
      </g>
     </g>
    </g>
    <g id="xtick_9">
     <g id="line2d_19">
      <g>
       <use style="stroke:#000000;stroke-width:0.5;" x="167.601765" xlink:href="#m28263679ab" y="229.437526"/>
      </g>
     </g>
     <g id="text_13">
      <!-- $\mathdefault{2}$ -->
      <g transform="translate(165.297919 239.664176)scale(0.09 -0.09)">
       <use transform="scale(0.996264)" xlink:href="#CMR17-50"/>
      </g>
     </g>
    </g>
    <g id="xtick_10">
     <g id="line2d_20">
      <g>
       <use style="stroke:#000000;stroke-width:0.5;" x="199.794582" xlink:href="#m28263679ab" y="229.437526"/>
      </g>
     </g>
     <g id="text_14">
      <!-- $\mathdefault{4}$ -->
      <g transform="translate(197.490736 239.664176)scale(0.09 -0.09)">
       <use transform="scale(0.996264)" xlink:href="#CMR17-52"/>
      </g>
     </g>
    </g>
    <g id="text_15">
     <!-- $x$/\AA -->
     <g transform="translate(127.038307 251.21959)scale(0.09 -0.09)">
      <defs>
       <path d="M 40.703125 71.484375 
C 41.203125 72.78125 41.203125 72.984375 41.203125 73.1875 
C 41.203125 74.390625 40.296875 75 39.5 75 
C 38.296875 75 37.90625 74.1875 37.5 72.984375 
L 5.09375 -21.5 
C 4.59375 -22.8125 4.59375 -23 4.59375 -23.203125 
C 4.59375 -24.40625 5.5 -25 6.296875 -25 
C 7.5 -25 7.90625 -24.203125 8.296875 -23 
z
" id="CMR17-47"/>
      </defs>
      <use transform="scale(0.996264)" xlink:href="#CMMI12-120"/>
      <use transform="translate(55.43406 0)scale(0.996264)" xlink:href="#CMR17-47"/>
      <use transform="translate(101.124537 17.618744)scale(0.996264)" xlink:href="#CMR17-23"/>
      <use transform="translate(101.124537 0)scale(0.996264)" xlink:href="#CMR17-65"/>
     </g>
    </g>
   </g>
   <g id="matplotlib.axis_4">
    <g id="ytick_5">
     <g id="line2d_21">
      <g>
       <use style="stroke:#000000;stroke-width:0.5;" x="40.440138" xlink:href="#m2d17ec9205" y="229.437526"/>
      </g>
     </g>
     <g id="text_16">
      <!-- $\mathdefault{10^{-23}}$ -->
      <g transform="translate(14.162792 232.550851)scale(0.09 -0.09)">
       <use transform="scale(0.996264)" xlink:href="#CMR17-49"/>
       <use transform="translate(45.690477 0)scale(0.996264)" xlink:href="#CMR17-48"/>
       <use transform="translate(91.380954 36.153639)scale(0.697382)" xlink:href="#CMSY10-0"/>
       <use transform="translate(145.621947 36.153639)scale(0.697382)" xlink:href="#CMR17-50"/>
       <use transform="translate(177.605129 36.153639)scale(0.697382)" xlink:href="#CMR17-51"/>
      </g>
     </g>
    </g>
    <g id="ytick_6">
     <g id="line2d_22">
      <g>
       <use style="stroke:#000000;stroke-width:0.5;" x="40.440138" xlink:href="#m2d17ec9205" y="207.981848"/>
      </g>
     </g>
     <g id="text_17">
      <!-- $\mathdefault{10^{-18}}$ -->
      <g transform="translate(14.162792 211.095173)scale(0.09 -0.09)">
       <defs>
        <path d="M 27.203125 35.765625 
C 33.5 38.96875 39.90625 43.796875 39.90625 51.53125 
C 39.90625 60.6875 31.09375 66 23 66 
C 13.90625 66 5.90625 59.375 5.90625 50.234375 
C 5.90625 47.71875 6.5 43.390625 10.40625 39.578125 
C 11.40625 38.578125 15.59375 35.5625 18.296875 33.65625 
C 13.796875 31.34375 3.296875 25.8125 3.296875 14.765625 
C 3.296875 4.40625 13.09375 -2 22.796875 -2 
C 33.5 -2 42.5 5.71875 42.5 15.96875 
C 42.5 25.109375 36.40625 29.328125 32.40625 32.046875 
z
M 14.09375 44.609375 
C 13.296875 45.109375 9.296875 48.21875 9.296875 52.9375 
C 9.296875 59.078125 15.59375 63.6875 22.796875 63.6875 
C 30.703125 63.6875 36.5 58.0625 36.5 51.53125 
C 36.5 42.1875 26.09375 36.859375 25.59375 36.859375 
C 25.5 36.859375 25.40625 36.859375 24.59375 37.46875 
z
M 32.5 24 
C 34 22.90625 38.796875 19.578125 38.796875 13.453125 
C 38.796875 6.015625 31.40625 0.390625 23 0.390625 
C 13.90625 0.390625 7 6.921875 7 14.859375 
C 7 22.796875 13.09375 29.4375 20 32.546875 
z
" id="CMR17-56"/>
       </defs>
       <use transform="scale(0.996264)" xlink:href="#CMR17-49"/>
       <use transform="translate(45.690477 0)scale(0.996264)" xlink:href="#CMR17-48"/>
       <use transform="translate(91.380954 36.153639)scale(0.697382)" xlink:href="#CMSY10-0"/>
       <use transform="translate(145.621947 36.153639)scale(0.697382)" xlink:href="#CMR17-49"/>
       <use transform="translate(177.605129 36.153639)scale(0.697382)" xlink:href="#CMR17-56"/>
      </g>
     </g>
    </g>
    <g id="ytick_7">
     <g id="line2d_23">
      <g>
       <use style="stroke:#000000;stroke-width:0.5;" x="40.440138" xlink:href="#m2d17ec9205" y="186.52617"/>
      </g>
     </g>
     <g id="text_18">
      <!-- $\mathdefault{10^{-13}}$ -->
      <g transform="translate(14.162792 189.639495)scale(0.09 -0.09)">
       <use transform="scale(0.996264)" xlink:href="#CMR17-49"/>
       <use transform="translate(45.690477 0)scale(0.996264)" xlink:href="#CMR17-48"/>
       <use transform="translate(91.380954 36.153639)scale(0.697382)" xlink:href="#CMSY10-0"/>
       <use transform="translate(145.621947 36.153639)scale(0.697382)" xlink:href="#CMR17-49"/>
       <use transform="translate(177.605129 36.153639)scale(0.697382)" xlink:href="#CMR17-51"/>
      </g>
     </g>
    </g>
    <g id="ytick_8">
     <g id="line2d_24">
      <g>
       <use style="stroke:#000000;stroke-width:0.5;" x="40.440138" xlink:href="#m2d17ec9205" y="165.070492"/>
      </g>
     </g>
     <g id="text_19">
      <!-- $\mathdefault{10^{-8}}$ -->
      <g transform="translate(17.815704 168.183817)scale(0.09 -0.09)">
       <use transform="scale(0.996264)" xlink:href="#CMR17-49"/>
       <use transform="translate(45.690477 0)scale(0.996264)" xlink:href="#CMR17-48"/>
       <use transform="translate(91.380954 36.153639)scale(0.697382)" xlink:href="#CMSY10-0"/>
       <use transform="translate(145.621947 36.153639)scale(0.697382)" xlink:href="#CMR17-56"/>
      </g>
     </g>
    </g>
    <g id="ytick_9">
     <g id="line2d_25">
      <g>
       <use style="stroke:#000000;stroke-width:0.5;" x="40.440138" xlink:href="#m2d17ec9205" y="143.614814"/>
      </g>
     </g>
     <g id="text_20">
      <!-- $\mathdefault{10^{-3}}$ -->
      <g transform="translate(17.815704 146.728139)scale(0.09 -0.09)">
       <use transform="scale(0.996264)" xlink:href="#CMR17-49"/>
       <use transform="translate(45.690477 0)scale(0.996264)" xlink:href="#CMR17-48"/>
       <use transform="translate(91.380954 36.153639)scale(0.697382)" xlink:href="#CMSY10-0"/>
       <use transform="translate(145.621947 36.153639)scale(0.697382)" xlink:href="#CMR17-51"/>
      </g>
     </g>
    </g>
    <g id="ytick_10">
     <g id="line2d_26">
      <g>
       <use style="stroke:#000000;stroke-width:0.5;" x="40.440138" xlink:href="#m2d17ec9205" y="122.159136"/>
      </g>
     </g>
     <g id="text_21">
      <!-- $\mathdefault{10^{2}}$ -->
      <g transform="translate(23.571844 125.272462)scale(0.09 -0.09)">
       <use transform="scale(0.996264)" xlink:href="#CMR17-49"/>
       <use transform="translate(45.690477 0)scale(0.996264)" xlink:href="#CMR17-48"/>
       <use transform="translate(91.380954 36.153639)scale(0.697382)" xlink:href="#CMR17-50"/>
      </g>
     </g>
    </g>
    <g id="text_22">
     <!-- $\rho(x,0) / \rm{N} \: / \: \rm{\AA}^{-2}$ -->
     <g transform="translate(9.921198 204.843735)rotate(-90)scale(0.09 -0.09)">
      <use transform="scale(0.996264)" xlink:href="#CMMI12-26"/>
      <use transform="translate(50.314373 0)scale(0.996264)" xlink:href="#CMR17-40"/>
      <use transform="translate(85.595141 0)scale(0.996264)" xlink:href="#CMMI12-120"/>
      <use transform="translate(141.0292 0)scale(0.996264)" xlink:href="#CMMI12-59"/>
      <use transform="translate(184.730783 0)scale(0.996264)" xlink:href="#CMR17-48"/>
      <use transform="translate(230.42126 0)scale(0.996264)" xlink:href="#CMR17-41"/>
      <use transform="translate(265.702027 0)scale(0.996264)" xlink:href="#CMMI12-61"/>
      <use transform="translate(314.476946 0)scale(0.996264)" xlink:href="#CMR17-78"/>
      <use transform="translate(405.688583 0)scale(0.996264)" xlink:href="#CMMI12-61"/>
      <use transform="translate(476.602709 17.618744)scale(0.996264)" xlink:href="#CMR17-23"/>
      <use transform="translate(476.602709 0)scale(0.996264)" xlink:href="#CMR17-65"/>
      <use transform="translate(545.675139 59.877267)scale(0.697382)" xlink:href="#CMSY10-0"/>
      <use transform="translate(599.916132 59.877267)scale(0.697382)" xlink:href="#CMR17-50"/>
     </g>
    </g>
   </g>
   <g id="line2d_27">
    <path clip-path="url(#p9ef3c8ffe8)" d="M 118.764823 255.181184 
L 118.781437 165.880026 
L 119.573223 159.990932 
L 120.365009 156.62561 
L 121.156795 154.629021 
L 121.948581 152.283393 
L 124.32394 146.856964 
L 126.699299 142.444023 
L 128.282871 140.046713 
L 129.866444 138.094443 
L 131.450016 136.622378 
L 133.033589 135.620085 
L 134.617161 135.097313 
L 135.408948 135.013337 
L 136.200734 135.049159 
L 136.99252 135.208551 
L 138.576093 135.8879 
L 140.159665 137.038835 
L 141.743238 138.667406 
L 143.32681 140.76582 
L 144.910383 143.324045 
L 146.493955 146.310386 
L 148.869314 151.637802 
L 149.6611 153.860927 
L 150.452886 155.68405 
L 151.244672 157.216998 
L 152.036459 159.808183 
L 152.828245 163.106821 
L 152.845363 255.181184 
L 152.845363 255.181184 
" style="fill:none;stroke:#d43e4e;stroke-linecap:square;"/>
   </g>
   <g id="line2d_28">
    <path clip-path="url(#p9ef3c8ffe8)" d="M 0.050235 255.181184 
L 3.650768 237.835555 
L 5.506517 229.795345 
L 7.362266 222.888179 
L 8.599432 219.03899 
L 9.836598 215.815694 
L 11.073764 213.199199 
L 12.31093 211.156895 
L 13.548096 209.655967 
L 14.785262 208.669997 
L 16.022428 208.181148 
L 16.641011 208.120013 
L 17.259594 208.180509 
L 17.878177 208.362903 
L 18.49676 208.668014 
L 19.733926 209.652434 
L 20.971092 211.151456 
L 22.208258 213.191327 
L 23.445424 215.804674 
L 24.68259 219.023922 
L 25.919756 222.868013 
L 27.156922 227.324197 
L 29.012671 235.014784 
L 31.487003 246.547377 
L 33.237158 255.181184 
M 36.5136 255.181184 
L 41.384331 230.920195 
L 43.858663 219.366407 
L 45.714412 211.664129 
L 46.951578 207.20169 
L 48.188744 203.352449 
L 49.42591 200.129036 
L 50.663076 197.512323 
L 51.900242 195.469654 
L 53.137408 193.968149 
L 54.374574 192.9813 
L 55.61174 192.49115 
L 56.230323 192.429157 
L 56.848906 192.488626 
L 57.467489 192.669793 
L 58.086072 192.973444 
L 59.323238 193.95409 
L 60.560404 195.447876 
L 61.79757 197.480581 
L 63.034736 200.084293 
L 64.271902 203.290896 
L 65.509068 207.118914 
L 66.746234 211.555389 
L 68.601983 219.20937 
L 71.076315 230.67934 
L 72.932064 239.969562 
L 73.550647 244.275108 
L 74.16923 247.020989 
L 74.787813 241.137492 
L 76.024979 234.510932 
L 81.592226 206.922411 
L 84.066558 195.664798 
L 85.922307 188.342283 
L 87.159473 184.180242 
L 88.396639 180.6405 
L 89.633805 177.716347 
L 90.870971 175.378165 
L 92.108137 173.589664 
L 93.345303 172.317461 
L 94.582469 171.534778 
L 95.819635 171.22204 
L 96.438218 171.237635 
L 97.675384 171.607577 
L 98.91255 172.426338 
L 100.149716 173.694935 
L 101.386882 175.419042 
L 102.624048 177.608379 
L 103.861214 180.275193 
L 105.09838 183.430103 
L 106.335546 187.073732 
L 108.191296 193.405321 
L 110.047045 200.620763 
L 111.284211 205.884435 
L 111.902794 208.908294 
L 112.521377 213.9883 
L 113.13996 212.343746 
L 113.758543 207.695579 
L 115.614292 198.073334 
L 121.800122 167.559193 
L 123.655871 159.227594 
L 125.51162 151.90525 
L 126.748786 147.745185 
L 127.985952 144.209814 
L 129.223118 141.293607 
L 130.460284 138.968633 
L 131.69745 137.20098 
L 132.934616 135.960576 
L 134.171782 135.225213 
L 134.790365 135.042408 
L 135.408948 134.981565 
L 136.027531 135.042407 
L 136.646114 135.22521 
L 137.264697 135.530802 
L 138.501863 136.516455 
L 139.739029 138.017167 
L 140.976195 140.059328 
L 142.213361 142.675735 
L 143.450527 145.898983 
L 144.687693 149.748154 
L 145.924859 154.210589 
L 147.780608 161.912939 
L 150.25494 173.466914 
L 155.822187 201.163086 
L 157.059353 207.089005 
L 157.677936 209.237996 
L 158.296519 209.607522 
L 158.915102 208.075318 
L 160.770851 200.612884 
L 162.6266 193.405877 
L 164.482349 187.074357 
L 165.719515 183.430703 
L 166.956681 180.275767 
L 168.193847 177.608926 
L 169.431013 175.419562 
L 170.668179 173.695427 
L 171.905345 172.426803 
L 173.142511 171.608016 
L 174.379677 171.23805 
L 174.99826 171.222444 
L 175.616843 171.321012 
L 176.854009 171.866691 
L 178.091175 172.891224 
L 179.328341 174.417762 
L 180.565507 176.476592 
L 181.802673 179.103318 
L 183.039839 182.332541 
L 184.277005 186.184757 
L 185.514171 190.648287 
L 187.36992 198.350021 
L 189.844252 209.900949 
L 194.792916 234.507114 
L 196.030082 241.030535 
L 196.648665 246.047536 
L 197.267248 245.60532 
L 197.885831 240.789543 
L 199.74158 231.252266 
L 202.215912 219.595207 
L 204.071661 211.838045 
L 205.308827 207.346742 
L 206.545993 203.474273 
L 207.783159 200.232781 
L 209.020325 197.602458 
L 210.257491 195.549876 
L 211.494657 194.041454 
L 212.731823 193.050136 
L 213.968989 192.557602 
L 214.587572 192.495134 
L 215.206155 192.554593 
L 215.824738 192.73622 
L 216.443321 193.040813 
L 217.680487 194.0249 
L 218.917653 195.524489 
L 220.154819 197.565852 
L 221.391985 200.181692 
L 222.629151 203.40454 
L 223.866317 207.25343 
L 225.103483 211.715668 
L 226.959232 219.417831 
L 229.433564 230.971678 
L 232.097758 244.129724 
L 232.097758 244.129724 
" style="fill:none;stroke:#355f8d;stroke-linecap:square;stroke-width:1.5;"/>
   </g>
   <g id="line2d_29">
    <path clip-path="url(#p9ef3c8ffe8)" d="M 104.0713 255.181184 
L 108.809879 232.510533 
L 114.995709 201.727151 
L 121.800122 167.980474 
L 123.655871 159.580411 
L 125.51162 152.170682 
L 126.748786 147.949521 
L 127.985952 144.356872 
L 129.223118 141.390684 
L 130.460284 139.024664 
L 131.69745 137.225332 
L 132.934616 135.962503 
L 134.171782 135.213707 
L 134.790365 135.027485 
L 135.408948 134.965397 
L 136.027531 135.027164 
L 136.646114 135.213065 
L 137.264697 135.523943 
L 138.501863 136.526834 
L 139.739029 138.053883 
L 140.976195 140.131695 
L 142.213361 142.792971 
L 143.450527 146.069376 
L 144.687693 149.97752 
L 145.924859 154.500377 
L 147.780608 162.284313 
L 150.25494 173.914094 
L 155.822187 201.719995 
L 163.245183 238.514983 
L 166.748878 255.181184 
L 166.748878 255.181184 
" style="fill:none;stroke:#22a884;stroke-dasharray:5.55,2.4;stroke-dashoffset:0;stroke-width:1.5;"/>
   </g>
   <g id="patch_8">
    <path d="M 40.440138 229.437526 
L 40.440138 117.868001 
" style="fill:none;stroke:#000000;stroke-linecap:square;stroke-linejoin:miter;stroke-width:0.5;"/>
   </g>
   <g id="patch_9">
    <path d="M 230.377758 229.437526 
L 230.377758 117.868001 
" style="fill:none;stroke:#000000;stroke-linecap:square;stroke-linejoin:miter;stroke-width:0.5;"/>
   </g>
   <g id="patch_10">
    <path d="M 40.440138 229.437526 
L 230.377758 229.437526 
" style="fill:none;stroke:#000000;stroke-linecap:square;stroke-linejoin:miter;stroke-width:0.5;"/>
   </g>
   <g id="patch_11">
    <path d="M 40.440138 117.868001 
L 230.377758 117.868001 
" style="fill:none;stroke:#000000;stroke-linecap:square;stroke-linejoin:miter;stroke-width:0.5;"/>
   </g>
   <g id="text_23">
    <!-- $f = 1$ -->
    <g transform="translate(54.926905 139.323679)scale(0.09 -0.09)">
     <use transform="scale(0.996264)" xlink:href="#CMMI12-102"/>
     <use transform="translate(86.394314 0)scale(0.996264)" xlink:href="#CMR17-61"/>
     <use transform="translate(185.783111 0)scale(0.996264)" xlink:href="#CMR17-49"/>
    </g>
   </g>
   <g id="text_24">
    <!-- (b) -->
    <g transform="translate(42.339514 125.329777)scale(0.07 -0.07)">
     <defs>
      <path d="M 15 69 
L 3.09375 67.890625 
L 3.09375 65.296875 
C 9 65.296875 9.90625 64.703125 9.90625 60.046875 
L 9.90625 -0.203125 
L 11.703125 -0.203125 
L 14.59375 6.953125 
C 17.5 2.203125 21.796875 -1 27.59375 -1 
C 37.59375 -1 47.703125 7.859375 47.703125 21.59375 
C 47.703125 34.515625 38.703125 44 28.59375 44 
C 22.40625 44 18 40.671875 15 36.734375 
z
M 15.203125 31.59375 
C 15.203125 33.40625 15.203125 33.703125 16.59375 35.828125 
C 20.5 41.890625 26.09375 42.390625 28 42.390625 
C 31 42.390625 41.296875 40.78125 41.296875 21.6875 
C 41.296875 1.703125 29.5 0.59375 27.09375 0.59375 
C 24 0.59375 19.5 1.796875 16.296875 7.65625 
C 15.203125 9.578125 15.203125 9.78125 15.203125 11.59375 
z
" id="CMR17-98"/>
     </defs>
     <use transform="scale(0.996264)" xlink:href="#CMR17-40"/>
     <use transform="translate(35.280768 0)scale(0.996264)" xlink:href="#CMR17-98"/>
     <use transform="translate(86.176138 0)scale(0.996264)" xlink:href="#CMR17-41"/>
    </g>
   </g>
   <g id="legend_2">
    <g id="line2d_30">
     <path d="M 151.882975 129.118001 
L 165.382975 129.118001 
" style="fill:none;stroke:#d43e4e;stroke-linecap:square;"/>
    </g>
    <g id="line2d_31"/>
    <g id="text_25">
     <!-- QMC -->
     <g transform="translate(169.882975 132.268001)scale(0.09 -0.09)">
      <use transform="scale(0.996264)" xlink:href="#CMR17-81"/>
      <use transform="translate(71.714788 0)scale(0.996264)" xlink:href="#CMR17-77"/>
      <use transform="translate(156.401729 0)scale(0.996264)" xlink:href="#CMR17-67"/>
     </g>
    </g>
    <g id="line2d_32">
     <path d="M 151.882975 139.414563 
L 165.382975 139.414563 
" style="fill:none;stroke:#355f8d;stroke-linecap:square;stroke-width:1.5;"/>
    </g>
    <g id="line2d_33"/>
    <g id="text_26">
     <!-- Hartree-Fock -->
     <g transform="translate(169.882975 142.564563)scale(0.09 -0.09)">
      <defs>
       <path d="M 56.09375 60.90625 
C 56.09375 65.390625 57.203125 65.390625 64.09375 65.390625 
L 64.09375 68 
C 61.203125 67.796875 55.90625 67.796875 52.796875 67.796875 
C 49.703125 67.796875 44.40625 67.796875 41.5 68 
L 41.5 65.390625 
C 48.40625 65.390625 49.5 65.390625 49.5 60.90625 
L 49.5 36.59375 
L 19.703125 36.59375 
L 19.703125 60.90625 
C 19.703125 65.390625 20.796875 65.390625 27.703125 65.390625 
L 27.703125 68 
C 24.796875 67.796875 19.5 67.796875 16.40625 67.796875 
C 13.296875 67.796875 8 67.796875 5.09375 68 
L 5.09375 65.390625 
C 12 65.390625 13.09375 65.390625 13.09375 60.90625 
L 13.09375 7.0625 
C 13.09375 2.59375 12 2.59375 5.09375 2.59375 
L 5.09375 0 
C 8 0.1875 13.296875 0.1875 16.40625 0.1875 
C 19.5 0.1875 24.796875 0.1875 27.703125 0 
L 27.703125 2.59375 
C 20.796875 2.59375 19.703125 2.59375 19.703125 7.0625 
L 19.703125 34 
L 49.5 34 
L 49.5 7.0625 
C 49.5 2.59375 48.40625 2.59375 41.5 2.59375 
L 41.5 0 
C 44.40625 0.1875 49.703125 0.1875 52.796875 0.1875 
C 55.90625 0.1875 61.203125 0.1875 64.09375 0 
L 64.09375 2.59375 
C 57.203125 2.59375 56.09375 2.59375 56.09375 7.0625 
z
" id="CMR17-72"/>
       <path d="M 15.09375 40.390625 
L 29.09375 40.390625 
L 29.09375 43 
L 15.09375 43 
L 15.09375 62 
L 13.296875 62 
C 13.09375 51.4375 9.59375 42.1875 1.09375 41.984375 
L 1.09375 40.390625 
L 9.796875 40.390625 
L 9.796875 12.15625 
C 9.796875 10.234375 9.796875 -1 21.40625 -1 
C 27.296875 -1 30.703125 4.8125 30.703125 12.25 
L 30.703125 17.984375 
L 28.90625 17.984375 
L 28.90625 12.34375 
C 28.90625 5.421875 26.203125 0.796875 22 0.796875 
C 19.09375 0.796875 15.09375 2.796875 15.09375 11.953125 
z
" id="CMR17-116"/>
       <path d="M 25.5 19.59375 
L 25.5 24 
L 0.40625 24 
L 0.40625 19.59375 
z
" id="CMR17-45"/>
       <path d="M 54.40625 67.796875 
L 5.09375 67.796875 
L 5.09375 65.1875 
C 12 65.1875 13.09375 65.1875 13.09375 60.671875 
L 13.09375 7.03125 
C 13.09375 2.59375 12 2.59375 5.09375 2.59375 
L 5.09375 0 
C 8 0.1875 13.59375 0.1875 16.703125 0.1875 
C 20.796875 0.1875 25.59375 0.1875 29.703125 0 
L 29.703125 2.59375 
L 27.5 2.59375 
C 19.90625 2.59375 19.703125 3.578125 19.703125 7.125 
L 19.703125 32.390625 
L 28.703125 32.390625 
C 38 32.390625 38.90625 29.140625 38.90625 20.84375 
L 40.703125 20.84375 
L 40.703125 46.734375 
L 38.90625 46.734375 
C 38.90625 38.296875 38 35 28.703125 35 
L 19.703125 35 
L 19.703125 61.28125 
C 19.703125 64.6875 19.90625 65.1875 23.90625 65.1875 
L 36.796875 65.1875 
C 51.90625 65.1875 53.59375 58.96875 55 45.625 
L 56.796875 45.625 
z
" id="CMR17-70"/>
       <path d="M 43.09375 21.1875 
C 43.09375 34 33.796875 44 22.90625 44 
C 12 44 2.703125 34 2.703125 21.1875 
C 2.703125 8.59375 12 -1 22.90625 -1 
C 33.796875 -1 43.09375 8.59375 43.09375 21.1875 
z
M 22.90625 0.796875 
C 18.203125 0.796875 14.203125 3.59375 11.90625 7.5 
C 9.40625 12 9.09375 17.59375 9.09375 22 
C 9.09375 26.1875 9.296875 31.390625 11.90625 35.890625 
C 13.90625 39.1875 17.796875 42.390625 22.90625 42.390625 
C 27.40625 42.390625 31.203125 39.890625 33.59375 36.390625 
C 36.703125 31.6875 36.703125 25.09375 36.703125 22 
C 36.703125 18.09375 36.5 12.09375 33.796875 7.296875 
C 31 2.6875 26.703125 0.796875 22.90625 0.796875 
z
" id="CMR17-111"/>
       <path d="M 34.90625 35 
C 33 35 30.203125 35 30.203125 31.484375 
C 30.203125 28.6875 32.5 27.890625 33.796875 27.890625 
C 34.5 27.890625 37.40625 28.1875 37.40625 31.6875 
C 37.40625 38.6875 30.59375 44 22.90625 44 
C 12.296875 44 3.296875 34.390625 3.296875 21.546875 
C 3.296875 8.140625 12.703125 -1 22.90625 -1 
C 35.296875 -1 38.40625 10.5625 38.40625 11.671875 
C 38.40625 12.078125 38.296875 12.375 37.59375 12.375 
C 36.90625 12.375 36.796875 12.28125 36.40625 10.96875 
C 33.796875 2.8125 28.09375 0.796875 23.796875 0.796875 
C 17.40625 0.796875 9.703125 6.734375 9.703125 21.640625 
C 9.703125 36.84375 17.09375 42.1875 23 42.1875 
C 26.90625 42.1875 32.703125 40.34375 34.90625 35 
z
" id="CMR17-99"/>
       <path d="M 26.09375 26.234375 
C 26 26.4375 25.5 27.03125 25.5 27.328125 
C 25.5 27.53125 32.59375 33.984375 33.5 34.78125 
C 39.203125 39.5625 42.796875 40.046875 45.40625 40.15625 
L 45.40625 42.734375 
C 44.796875 42.734375 44.59375 42.734375 44.5 42.640625 
L 39.59375 42.53125 
C 36.796875 42.53125 32.5 42.53125 29.796875 42.734375 
L 29.796875 40.15625 
C 31.203125 40.046875 32.203125 39.265625 32.203125 37.859375 
C 32.203125 35.875 30.203125 33.984375 30.09375 33.984375 
L 15 20.28125 
L 15 69 
L 3.09375 67.890625 
L 3.09375 65.296875 
C 9 65.296875 9.90625 64.703125 9.90625 59.921875 
L 9.90625 6.859375 
C 9.90625 3.09375 9.5 2.59375 3.09375 2.59375 
L 3.09375 0 
C 5.5 0.1875 9.90625 0.1875 12.40625 0.1875 
C 14.90625 0.1875 19.296875 0.1875 21.703125 0 
L 21.703125 2.59375 
C 15.296875 2.59375 14.90625 2.984375 14.90625 6.859375 
L 14.90625 17.796875 
L 21.796875 24.0625 
L 31.90625 9.15625 
C 33.09375 7.359375 34.09375 5.96875 34.09375 4.671875 
C 34.09375 2.890625 32.296875 2.59375 31.09375 2.59375 
L 31.09375 0 
C 33.5 0.1875 37.796875 0.1875 40.296875 0.1875 
C 42.09375 0.1875 45.796875 0.09375 47.5 0 
L 47.5 2.59375 
C 42.796875 2.59375 41.703125 3.484375 38.703125 7.859375 
z
" id="CMR17-107"/>
      </defs>
      <use transform="scale(0.996264)" xlink:href="#CMR17-72"/>
      <use transform="translate(69.07243 0)scale(0.996264)" xlink:href="#CMR17-97"/>
      <use transform="translate(114.762907 0)scale(0.996264)" xlink:href="#CMR17-114"/>
      <use transform="translate(150.043675 0)scale(0.996264)" xlink:href="#CMR17-116"/>
      <use transform="translate(185.324443 0)scale(0.996264)" xlink:href="#CMR17-114"/>
      <use transform="translate(220.60521 0)scale(0.996264)" xlink:href="#CMR17-101"/>
      <use transform="translate(261.090871 0)scale(0.996264)" xlink:href="#CMR17-101"/>
      <use transform="translate(301.576531 0)scale(0.996264)" xlink:href="#CMR17-45"/>
      <use transform="translate(331.652498 0)scale(0.996264)" xlink:href="#CMR17-70"/>
      <use transform="translate(383.829089 0)scale(0.996264)" xlink:href="#CMR17-111"/>
      <use transform="translate(432.122005 0)scale(0.996264)" xlink:href="#CMR17-99"/>
      <use transform="translate(470.005211 0)scale(0.996264)" xlink:href="#CMR17-107"/>
     </g>
    </g>
    <g id="line2d_34">
     <path d="M 151.882975 149.711126 
L 165.382975 149.711126 
" style="fill:none;stroke:#22a884;stroke-dasharray:5.55,2.4;stroke-dashoffset:0;stroke-width:1.5;"/>
    </g>
    <g id="line2d_35"/>
    <g id="text_27">
     <!-- Hartree -->
     <g transform="translate(169.882975 152.861126)scale(0.09 -0.09)">
      <use transform="scale(0.996264)" xlink:href="#CMR17-72"/>
      <use transform="translate(69.07243 0)scale(0.996264)" xlink:href="#CMR17-97"/>
      <use transform="translate(114.762907 0)scale(0.996264)" xlink:href="#CMR17-114"/>
      <use transform="translate(150.043675 0)scale(0.996264)" xlink:href="#CMR17-116"/>
      <use transform="translate(185.324443 0)scale(0.996264)" xlink:href="#CMR17-114"/>
      <use transform="translate(220.60521 0)scale(0.996264)" xlink:href="#CMR17-101"/>
      <use transform="translate(261.090871 0)scale(0.996264)" xlink:href="#CMR17-101"/>
     </g>
    </g>
   </g>
  </g>
 </g>
 <defs>
  <clipPath id="pad7fcd4c9d">
   <rect height="111.569525" width="189.93762" x="40.440138" y="0.72"/>
  </clipPath>
  <clipPath id="p9ef3c8ffe8">
   <rect height="111.569525" width="189.93762" x="40.440138" y="117.868001"/>
  </clipPath>
 </defs>
</svg>
