<?xml version="1.0" encoding="utf-8" standalone="no"?>
<!DOCTYPE svg PUBLIC "-//W3C//DTD SVG 1.1//EN"
  "http://www.w3.org/Graphics/SVG/1.1/DTD/svg11.dtd">
<!-- Created with matplotlib (https://matplotlib.org/) -->
<svg height="164.116094pt" version="1.1" viewBox="0 0 258.13867 164.116094" width="258.13867pt" xmlns="http://www.w3.org/2000/svg" xmlns:xlink="http://www.w3.org/1999/xlink">
 <metadata>
  <rdf:RDF xmlns:cc="http://creativecommons.org/ns#" xmlns:dc="http://purl.org/dc/elements/1.1/" xmlns:rdf="http://www.w3.org/1999/02/22-rdf-syntax-ns#">
   <cc:Work>
    <dc:type rdf:resource="http://purl.org/dc/dcmitype/StillImage"/>
    <dc:date>2020-09-21T01:45:39.904966</dc:date>
    <dc:format>image/svg+xml</dc:format>
    <dc:creator>
     <cc:Agent>
      <dc:title>Matplotlib v3.3.1, https://matplotlib.org/</dc:title>
     </cc:Agent>
    </dc:creator>
   </cc:Work>
  </rdf:RDF>
 </metadata>
 <defs>
  <style type="text/css">*{stroke-linecap:butt;stroke-linejoin:round;}</style>
 </defs>
 <g id="figure_1">
  <g id="patch_1">
   <path d="M -0 164.116094 
L 258.13867 164.116094 
L 258.13867 0 
L -0 0 
z
" style="fill:none;"/>
  </g>
  <g id="axes_1">
   <g id="patch_2">
    <path d="M 45.09297 132.260943 
L 138.6583 132.260943 
L 138.6583 17.90218 
L 45.09297 17.90218 
z
" style="fill:#ffffff;"/>
   </g>
   <g id="matplotlib.axis_1">
    <g id="xtick_1">
     <g id="line2d_1">
      <defs>
       <path d="M 0 0 
L 0 -4 
" id="m30ff4e3c80" style="stroke:#000000;stroke-width:0.5;"/>
      </defs>
      <g>
       <use style="stroke:#000000;stroke-width:0.5;" x="45.09297" xlink:href="#m30ff4e3c80" y="17.90218"/>
      </g>
     </g>
     <g id="text_1">
      <!-- $\mathdefault{−5}$ -->
      <g transform="translate(39.682625 145.795744)scale(0.08 -0.08)">
       <defs>
        <path d="M 65.90625 23 
C 67.59375 23 69.40625 23 69.40625 25 
C 69.40625 27 67.59375 27 65.90625 27 
L 11.796875 27 
C 10.09375 27 8.296875 27 8.296875 25 
C 8.296875 23 10.09375 23 11.796875 23 
z
" id="CMSY10-0"/>
        <path d="M 11.40625 57.6875 
C 12.40625 57.28125 16.5 56 20.703125 56 
C 30 56 35.09375 61.109375 38 64.0625 
C 38 64.953125 38 65.5 37.40625 65.5 
C 37.296875 65.5 37.09375 65.5 36.296875 65.046875 
C 32.796875 63.40625 28.703125 62.078125 23.703125 62.078125 
C 20.703125 62.078125 16.203125 62.484375 11.296875 64.671875 
C 10.203125 65.171875 10 65.171875 9.90625 65.171875 
C 9.40625 65.171875 9.296875 65.0625 9.296875 63.078125 
L 9.296875 34.421875 
C 9.296875 32.640625 9.296875 32.140625 10.296875 32.140625 
C 10.796875 32.140625 11 32.34375 11.5 33.03125 
C 14.703125 37.515625 19.09375 39.40625 24.09375 39.40625 
C 27.59375 39.40625 35.09375 37.21875 35.09375 20.140625 
C 35.09375 16.953125 35.09375 11.171875 32.09375 6.578125 
C 29.59375 2.484375 25.703125 0.390625 21.40625 0.390625 
C 14.796875 0.390625 8.09375 5 6.296875 12.71875 
C 6.703125 12.609375 7.5 12.421875 7.90625 12.421875 
C 9.203125 12.421875 11.703125 13.125 11.703125 16.21875 
C 11.703125 18.90625 9.796875 20 7.90625 20 
C 5.59375 20 4.09375 18.59375 4.09375 15.796875 
C 4.09375 7.09375 11 -2 21.59375 -2 
C 31.90625 -2 41.703125 6.875 41.703125 19.75 
C 41.703125 31.71875 33.90625 41 24.203125 41 
C 19.09375 41 14.796875 39.109375 11.40625 35.53125 
z
" id="CMR17-53"/>
       </defs>
       <use transform="scale(0.996264)" xlink:href="#CMSY10-0"/>
       <use transform="translate(77.487468 0)scale(0.996264)" xlink:href="#CMR17-53"/>
      </g>
     </g>
    </g>
    <g id="xtick_2">
     <g id="line2d_2">
      <g>
       <use style="stroke:#000000;stroke-width:0.5;" x="91.875635" xlink:href="#m30ff4e3c80" y="17.90218"/>
      </g>
     </g>
     <g id="text_2">
      <!-- $\mathdefault{0}$ -->
      <g transform="translate(89.758544 145.795744)scale(0.08 -0.08)">
       <defs>
        <path d="M 42 31.640625 
C 42 37.75 41.90625 48.125 37.703125 56.109375 
C 34 63.109375 28.09375 65.59375 22.90625 65.59375 
C 18.09375 65.59375 12 63.40625 8.203125 56.203125 
C 4.203125 48.71875 3.796875 39.4375 3.796875 31.640625 
C 3.796875 25.953125 3.90625 17.28125 7 9.671875 
C 11.296875 -0.609375 19 -2 22.90625 -2 
C 27.5 -2 34.5 -0.109375 38.59375 9.375 
C 41.59375 16.28125 42 24.359375 42 31.640625 
z
M 22.90625 -0.40625 
C 16.5 -0.40625 12.703125 5.078125 11.296875 12.6875 
C 10.203125 18.5625 10.203125 27.15625 10.203125 32.75 
C 10.203125 40.4375 10.203125 46.828125 11.5 52.921875 
C 13.40625 61.390625 19 64 22.90625 64 
C 27 64 32.296875 61.296875 34.203125 53.125 
C 35.5 47.4375 35.59375 40.734375 35.59375 32.75 
C 35.59375 26.25 35.59375 18.265625 34.40625 12.375 
C 32.296875 1.484375 26.40625 -0.40625 22.90625 -0.40625 
z
" id="CMR17-48"/>
       </defs>
       <use transform="scale(0.996264)" xlink:href="#CMR17-48"/>
      </g>
     </g>
    </g>
    <g id="xtick_3">
     <g id="line2d_3">
      <g>
       <use style="stroke:#000000;stroke-width:0.5;" x="138.6583" xlink:href="#m30ff4e3c80" y="17.90218"/>
      </g>
     </g>
     <g id="text_3">
      <!-- $\mathdefault{5}$ -->
      <g transform="translate(136.541209 145.795744)scale(0.08 -0.08)">
       <use transform="scale(0.996264)" xlink:href="#CMR17-53"/>
      </g>
     </g>
    </g>
    <g id="text_4">
     <!-- $a_1$(\AA) -->
     <g transform="translate(79.39751 158.025434)scale(0.1 -0.1)">
      <defs>
       <path d="M 30.09375 11.875 
C 29.59375 10.171875 29.59375 9.984375 28.203125 8.078125 
C 26 5.28125 21.59375 1 16.90625 1 
C 12.796875 1 10.5 4.6875 10.5 10.578125 
C 10.5 16.0625 13.59375 27.234375 15.5 31.4375 
C 18.90625 38.421875 23.59375 42.015625 27.5 42.015625 
C 34.09375 42.015625 35.40625 33.828125 35.40625 33.03125 
C 35.40625 32.9375 35.09375 31.625 35 31.4375 
z
M 36.5 37.421875 
C 35.40625 40.015625 32.703125 44 27.5 44 
C 16.203125 44 4 29.4375 4 14.671875 
C 4 4.796875 9.796875 -1 16.59375 -1 
C 22.09375 -1 26.796875 3.296875 29.59375 6.59375 
C 30.59375 0.703125 35.296875 -1 38.296875 -1 
C 41.296875 -1 43.703125 0.796875 45.5 4.390625 
C 47.09375 7.78125 48.5 13.875 48.5 14.265625 
C 48.5 14.765625 48.09375 15.171875 47.5 15.171875 
C 46.59375 15.171875 46.5 14.671875 46.09375 13.171875 
C 44.59375 7.28125 42.703125 1 38.59375 1 
C 35.703125 1 35.5 3.59375 35.5 5.59375 
C 35.5 7.890625 35.796875 8.984375 36.703125 12.875 
C 37.40625 15.375 37.90625 17.5625 38.703125 20.453125 
C 42.40625 35.421875 43.296875 39.015625 43.296875 39.609375 
C 43.296875 41.015625 42.203125 42.109375 40.703125 42.109375 
C 37.5 42.109375 36.703125 38.625 36.5 37.421875 
z
" id="CMMI12-97"/>
       <path d="M 26.59375 63.40625 
C 26.59375 65.5 26.5 65.5 25.09375 65.5 
C 21.203125 61.1875 15.296875 59.796875 9.703125 59.796875 
C 9.40625 59.796875 8.90625 59.796875 8.796875 59.5 
C 8.703125 59.296875 8.703125 59.09375 8.703125 57 
C 11.796875 57 17 57.59375 21 59.984375 
L 21 7.203125 
C 21 3.6875 20.796875 2.5 12.203125 2.5 
L 9.203125 2.5 
L 9.203125 0 
C 14 0 19 0 23.796875 0 
C 28.59375 0 33.59375 0 38.40625 0 
L 38.40625 2.5 
L 35.40625 2.5 
C 26.796875 2.5 26.59375 3.59375 26.59375 7.15625 
z
" id="CMR17-49"/>
       <path d="M 30.59375 -24.390625 
C 30.59375 -24.296875 30.59375 -24.09375 30.296875 -23.796875 
C 25.703125 -19.125 13.40625 -6.359375 13.40625 24.703125 
C 13.40625 55.765625 25.5 68.421875 30.40625 73.390625 
C 30.40625 73.5 30.59375 73.703125 30.59375 74 
C 30.59375 74.296875 30.296875 74.5 29.90625 74.5 
C 28.796875 74.5 20.296875 67.125 15.40625 56.15625 
C 10.40625 45.109375 9 34.359375 9 24.8125 
C 9 17.625 9.703125 5.484375 15.703125 -7.359375 
C 20.5 -17.734375 28.703125 -25 29.90625 -25 
C 30.40625 -25 30.59375 -24.796875 30.59375 -24.390625 
z
" id="CMR17-40"/>
       <path d="M 43.296875 61.796875 
C 43.296875 66.796875 39.296875 70.59375 34.59375 70.59375 
C 29.90625 70.59375 25.90625 66.796875 25.90625 61.796875 
C 25.90625 56.796875 29.90625 53 34.59375 53 
C 39.296875 53 43.296875 56.796875 43.296875 61.796875 
z
M 34.59375 54.59375 
C 30.40625 54.59375 27.703125 57.1875 27.703125 61.8125 
C 27.703125 66.5 30.5 69 34.59375 69 
C 38.796875 69 41.5 66.40625 41.5 61.8125 
C 41.5 57.09375 38.703125 54.59375 34.59375 54.59375 
z
" id="CMR17-23"/>
       <path d="M 36.296875 68.40625 
C 35.796875 69.703125 35.59375 70 34.59375 70 
C 33.59375 70 33.40625 69.703125 32.90625 68.40625 
L 11.703125 8.84375 
C 9.796875 3.484375 5.796875 2.390625 2.296875 2.390625 
L 2.296875 -0.203125 
C 4.09375 0 8.09375 0 10 0 
C 12.5 0 16.5 0 18.90625 -0.203125 
L 18.90625 2.390625 
C 14.203125 2.390625 13.5 5.640625 13.5 6.859375 
C 13.5 7.765625 13.703125 8.28125 13.90625 8.890625 
L 19.203125 24 
L 45.40625 24 
L 51.40625 6.90625 
C 51.90625 5.703125 51.90625 5.5 51.90625 5.109375 
C 51.90625 2.390625 47.59375 2.390625 45.703125 2.390625 
L 45.703125 0 
C 48.59375 0 53.796875 0 56.90625 0 
C 59.5 0 64.5 0 66.90625 -0.203125 
L 66.90625 2.390625 
C 61.59375 2.390625 59.796875 2.390625 58.5 6.046875 
z
M 32.296875 60.828125 
L 44.5 26.59375 
L 20.09375 26.59375 
z
" id="CMR17-65"/>
       <path d="M 26.296875 24.703125 
C 26.296875 31.875 25.59375 44.015625 19.59375 56.859375 
C 14.796875 67.234375 6.59375 74.5 5.40625 74.5 
C 5.09375 74.5 4.703125 74.390625 4.703125 73.890625 
C 4.703125 73.703125 4.796875 73.59375 4.90625 73.390625 
C 9.703125 68.40625 21.90625 55.75 21.90625 24.75 
C 21.90625 -6.359375 9.796875 -19.015625 4.90625 -24.015625 
C 4.796875 -24.203125 4.703125 -24.3125 4.703125 -24.5 
C 4.703125 -25 5.09375 -25 5.40625 -25 
C 6.5 -25 15 -17.625 19.90625 -6.65625 
C 24.90625 4.390625 26.296875 15.140625 26.296875 24.703125 
z
" id="CMR17-41"/>
      </defs>
      <use transform="scale(0.996264)" xlink:href="#CMMI12-97"/>
      <use transform="translate(51.207858 -14.943915)scale(0.697382)" xlink:href="#CMR17-49"/>
      <use transform="translate(83.689172 0)scale(0.996264)" xlink:href="#CMR17-40"/>
      <use transform="translate(118.969939 17.618744)scale(0.996264)" xlink:href="#CMR17-23"/>
      <use transform="translate(118.969939 0)scale(0.996264)" xlink:href="#CMR17-65"/>
      <use transform="translate(188.042369 0)scale(0.996264)" xlink:href="#CMR17-41"/>
     </g>
    </g>
   </g>
   <g id="matplotlib.axis_2">
    <g id="ytick_1">
     <g id="line2d_4">
      <defs>
       <path d="M 0 0 
L -4 0 
" id="m59c8180373" style="stroke:#000000;stroke-width:0.5;"/>
      </defs>
      <g>
       <use style="stroke:#000000;stroke-width:0.5;" x="45.09297" xlink:href="#m59c8180373" y="115.172225"/>
      </g>
     </g>
     <g id="text_5">
      <!-- $\mathdefault{10^{-17}}$ -->
      <g transform="translate(15.56264 117.939626)scale(0.08 -0.08)">
       <defs>
        <path d="M 45.09375 61.578125 
L 45.09375 63.765625 
L 21.59375 63.765625 
C 9.90625 63.765625 9.703125 65.078125 9.296875 67 
L 7.5 67 
L 4.59375 48.34375 
L 6.40625 48.34375 
C 6.703125 50.234375 7.40625 55.3125 8.59375 57.203125 
C 9.203125 58 16.59375 58 18.296875 58 
L 40.296875 58 
L 29.203125 41.578125 
C 21.796875 30.53125 16.703125 15.609375 16.703125 2.578125 
C 16.703125 1.390625 16.703125 -2 20.296875 -2 
C 23.90625 -2 23.90625 1.390625 23.90625 2.671875 
L 23.90625 7.265625 
C 23.90625 23.5625 26.703125 34.3125 31.296875 41.1875 
z
" id="CMR17-55"/>
       </defs>
       <use transform="scale(0.996264)" xlink:href="#CMR17-49"/>
       <use transform="translate(45.690477 0)scale(0.996264)" xlink:href="#CMR17-48"/>
       <use transform="translate(91.380954 36.153639)scale(0.697382)" xlink:href="#CMSY10-0"/>
       <use transform="translate(145.621947 36.153639)scale(0.697382)" xlink:href="#CMR17-49"/>
       <use transform="translate(177.605129 36.153639)scale(0.697382)" xlink:href="#CMR17-55"/>
      </g>
     </g>
    </g>
    <g id="ytick_2">
     <g id="line2d_5">
      <g>
       <use style="stroke:#000000;stroke-width:0.5;" x="45.09297" xlink:href="#m59c8180373" y="93.916922"/>
      </g>
     </g>
     <g id="text_6">
      <!-- $\mathdefault{10^{-13}}$ -->
      <g transform="translate(15.56264 96.684323)scale(0.08 -0.08)">
       <defs>
        <path d="M 22.09375 33.703125 
C 31 33.703125 34.90625 25.96875 34.90625 17.03125 
C 34.90625 5 28.5 0.390625 22.703125 0.390625 
C 17.40625 0.390625 8.796875 3.03125 6.09375 10.828125 
C 6.59375 10.625 7.09375 10.625 7.59375 10.625 
C 10 10.625 11.796875 12.21875 11.796875 14.8125 
C 11.796875 17.703125 9.59375 19 7.59375 19 
C 5.90625 19 3.296875 18.203125 3.296875 14.46875 
C 3.296875 5.234375 12.296875 -2 22.90625 -2 
C 34 -2 42.5 6.71875 42.5 16.953125 
C 42.5 26.671875 34.5 33.703125 25 34.796875 
C 32.59375 36.375 39.90625 43.0625 39.90625 52.015625 
C 39.90625 59.6875 32 65.296875 23 65.296875 
C 13.90625 65.296875 5.90625 59.828125 5.90625 52.015625 
C 5.90625 48.59375 8.5 48 9.796875 48 
C 11.90625 48 13.703125 49.296875 13.703125 51.890625 
C 13.703125 54.46875 11.90625 55.765625 9.796875 55.765625 
C 9.40625 55.765625 8.90625 55.765625 8.5 55.578125 
C 11.40625 61.859375 19.296875 63 22.796875 63 
C 26.296875 63 32.90625 61.328125 32.90625 51.875 
C 32.90625 49.109375 32.5 44.1875 29.09375 39.84375 
C 26.09375 36 22.703125 36 19.40625 35.6875 
C 18.90625 35.6875 16.59375 35.453125 16.203125 35.453125 
C 15.5 35.359375 15.09375 35.265625 15.09375 34.5 
C 15.09375 33.796875 15.203125 33.703125 17.203125 33.703125 
z
" id="CMR17-51"/>
       </defs>
       <use transform="scale(0.996264)" xlink:href="#CMR17-49"/>
       <use transform="translate(45.690477 0)scale(0.996264)" xlink:href="#CMR17-48"/>
       <use transform="translate(91.380954 36.153639)scale(0.697382)" xlink:href="#CMSY10-0"/>
       <use transform="translate(145.621947 36.153639)scale(0.697382)" xlink:href="#CMR17-49"/>
       <use transform="translate(177.605129 36.153639)scale(0.697382)" xlink:href="#CMR17-51"/>
      </g>
     </g>
    </g>
    <g id="ytick_3">
     <g id="line2d_6">
      <g>
       <use style="stroke:#000000;stroke-width:0.5;" x="45.09297" xlink:href="#m59c8180373" y="72.661618"/>
      </g>
     </g>
     <g id="text_7">
      <!-- $\mathdefault{10^{-9}}$ -->
      <g transform="translate(19.215552 75.429019)scale(0.08 -0.08)">
       <defs>
        <path d="M 35.203125 29.125 
C 35.203125 7.25 26.09375 0.484375 18.59375 0.484375 
C 16.296875 0.484375 10.703125 0.484375 8.40625 4.59375 
C 11 4.1875 12.90625 5.578125 12.90625 8.09375 
C 12.90625 10.8125 10.703125 11.703125 9.296875 11.703125 
C 8.40625 11.703125 5.703125 11.296875 5.703125 7.90625 
C 5.703125 1.109375 11.59375 -2 18.796875 -2 
C 30.296875 -2 42 10.53125 42 32.390625 
C 42 59.640625 30.796875 65.296875 23.203125 65.296875 
C 13.296875 65.296875 3.796875 56.6875 3.796875 43.40625 
C 3.796875 31.109375 11.90625 22 22.09375 22 
C 30.5 22 34.203125 29.734375 35.203125 33 
z
M 22.296875 23.59375 
C 19.59375 23.59375 15.796875 24.09375 12.703125 30.03125 
C 10.59375 33.890625 10.59375 38.453125 10.59375 43.296875 
C 10.59375 49.15625 10.59375 53.203125 13.40625 57.5625 
C 14.796875 59.640625 17.40625 63 23.203125 63 
C 35 63 35 45.078125 35 41.125 
C 35 34.09375 31.796875 23.59375 22.296875 23.59375 
z
" id="CMR17-57"/>
       </defs>
       <use transform="scale(0.996264)" xlink:href="#CMR17-49"/>
       <use transform="translate(45.690477 0)scale(0.996264)" xlink:href="#CMR17-48"/>
       <use transform="translate(91.380954 36.153639)scale(0.697382)" xlink:href="#CMSY10-0"/>
       <use transform="translate(145.621947 36.153639)scale(0.697382)" xlink:href="#CMR17-57"/>
      </g>
     </g>
    </g>
    <g id="ytick_4">
     <g id="line2d_7">
      <g>
       <use style="stroke:#000000;stroke-width:0.5;" x="45.09297" xlink:href="#m59c8180373" y="51.406315"/>
      </g>
     </g>
     <g id="text_8">
      <!-- $\mathdefault{10^{-5}}$ -->
      <g transform="translate(19.215552 54.173716)scale(0.08 -0.08)">
       <use transform="scale(0.996264)" xlink:href="#CMR17-49"/>
       <use transform="translate(45.690477 0)scale(0.996264)" xlink:href="#CMR17-48"/>
       <use transform="translate(91.380954 36.153639)scale(0.697382)" xlink:href="#CMSY10-0"/>
       <use transform="translate(145.621947 36.153639)scale(0.697382)" xlink:href="#CMR17-53"/>
      </g>
     </g>
    </g>
    <g id="ytick_5">
     <g id="line2d_8">
      <g>
       <use style="stroke:#000000;stroke-width:0.5;" x="45.09297" xlink:href="#m59c8180373" y="30.151011"/>
      </g>
     </g>
     <g id="text_9">
      <!-- $\mathdefault{10^{-1}}$ -->
      <g transform="translate(19.215552 32.918412)scale(0.08 -0.08)">
       <use transform="scale(0.996264)" xlink:href="#CMR17-49"/>
       <use transform="translate(45.690477 0)scale(0.996264)" xlink:href="#CMR17-48"/>
       <use transform="translate(91.380954 36.153639)scale(0.697382)" xlink:href="#CMSY10-0"/>
       <use transform="translate(145.621947 36.153639)scale(0.697382)" xlink:href="#CMR17-49"/>
      </g>
     </g>
    </g>
    <g id="text_10">
     <!-- log($|\Psi|$) -->
     <g transform="translate(11.07198 91.962753)rotate(-90)scale(0.1 -0.1)">
      <defs>
       <path d="M 15.296875 68.6875 
L 3.40625 67.59375 
L 3.40625 65 
C 9.296875 65 10.203125 64.40625 10.203125 59.640625 
L 10.203125 6.65625 
C 10.203125 2.875 9.796875 2.390625 3.40625 2.390625 
L 3.40625 -0.203125 
C 5.796875 0 10.203125 0 12.703125 0 
C 15.296875 0 19.703125 0 22.09375 -0.203125 
L 22.09375 2.390625 
C 15.703125 2.390625 15.296875 2.78125 15.296875 6.65625 
z
" id="CMR17-108"/>
       <path d="M 43.09375 21.1875 
C 43.09375 34 33.796875 44 22.90625 44 
C 12 44 2.703125 34 2.703125 21.1875 
C 2.703125 8.609375 12 -1 22.90625 -1 
C 33.796875 -1 43.09375 8.609375 43.09375 21.1875 
z
M 22.90625 0.796875 
C 18.203125 0.796875 14.203125 3.59375 11.90625 7.5 
C 9.40625 11.984375 9.09375 17.59375 9.09375 22 
C 9.09375 26.203125 9.296875 31.40625 11.90625 35.90625 
C 13.90625 39.203125 17.796875 42.40625 22.90625 42.40625 
C 27.40625 42.40625 31.203125 39.90625 33.59375 36.40625 
C 36.703125 31.703125 36.703125 25.109375 36.703125 22 
C 36.703125 18.09375 36.5 12.109375 33.796875 7.296875 
C 31 2.703125 26.703125 0.796875 22.90625 0.796875 
z
" id="CMR17-111"/>
       <path d="M 11.09375 18.1875 
C 13 16.6875 16.296875 15 20.296875 15 
C 28.203125 15 35 21.203125 35 29.5 
C 35 32.09375 34.203125 36.09375 31.203125 39.203125 
C 34 42.0625 38.09375 43 40.40625 43 
C 40.796875 43 41.40625 43 41.90625 42.71875 
C 41.5 42.625 40.59375 42.234375 40.59375 40.703125 
C 40.59375 39.484375 41.5 38.609375 42.796875 38.609375 
C 44.296875 38.609375 45.09375 39.578125 45.09375 40.84375 
C 45.09375 42.671875 43.59375 44.59375 40.40625 44.59375 
C 36.40625 44.59375 32.90625 42.78125 30.09375 40.3125 
C 27.09375 43.015625 23.5 44 20.296875 44 
C 12.40625 44 5.59375 37.796875 5.59375 29.5 
C 5.59375 23.78125 8.90625 20.1875 9.90625 19.1875 
C 6.90625 15.6875 6.90625 11.609375 6.90625 11.109375 
C 6.90625 8.515625 7.90625 4.71875 11.296875 2.625 
C 6.09375 1.328125 2 -2.640625 2 -7.59375 
C 2 -14.734375 11.5 -20 22.90625 -20 
C 33.90625 -20 43.796875 -14.9375 43.796875 -7.484375 
C 43.796875 6 29 6 21.296875 6 
C 19 6 14.90625 6 14.40625 6.109375 
C 11.296875 6.609375 9.203125 9.40625 9.203125 12.90625 
C 9.203125 13.796875 9.203125 16 11.09375 18.1875 
z
M 20.296875 16.6875 
C 11.5 16.6875 11.5 27.5 11.5 29.515625 
C 11.5 31.5 11.5 42.3125 20.296875 42.3125 
C 29.09375 42.3125 29.09375 31.5 29.09375 29.515625 
C 29.09375 27.5 29.09375 16.6875 20.296875 16.6875 
z
M 22.90625 -18.296875 
C 12.90625 -18.296875 6 -13.046875 6 -7.59375 
C 6 -4.515625 7.703125 -1.640625 9.90625 -0.0625 
C 12.40625 1.625 13.40625 1.625 20.203125 1.625 
C 28.40625 1.625 39.796875 1.625 39.796875 -7.59375 
C 39.796875 -13.046875 32.90625 -18.296875 22.90625 -18.296875 
z
" id="CMR17-103"/>
       <path d="M 15.90625 71.40625 
C 15.90625 73.203125 15.90625 75 13.90625 75 
C 11.90625 75 11.90625 73.203125 11.90625 71.40625 
L 11.90625 -21.40625 
C 11.90625 -23.203125 11.90625 -25 13.90625 -25 
C 15.90625 -25 15.90625 -23.203125 15.90625 -21.40625 
z
" id="CMSY10-106"/>
       <path d="M 39 60.890625 
C 39 64.5 39.203125 65.5 46.796875 65.5 
L 49 65.5 
L 49 68 
C 44.90625 68 40.09375 68 35.90625 68 
C 31.703125 68 26.796875 68 22.703125 68 
L 22.703125 65.5 
L 24.90625 65.5 
C 32.5 65.5 32.703125 64.5 32.703125 60.890625 
L 32.703125 14.578125 
C 18.40625 17.46875 18.203125 35.84375 18.203125 41.03125 
C 18.09375 50.515625 15.59375 55.40625 9.40625 55.40625 
L 6.796875 55.40625 
C 5.203125 55.40625 4.703125 55.40625 4.703125 54.609375 
C 4.703125 54.515625 4.703125 53.90625 5.203125 53.90625 
C 8 53.40625 11.796875 52.8125 11.90625 39.421875 
C 12 30.140625 15.296875 14.875 32.703125 12.875 
L 32.703125 7.09375 
C 32.703125 3.5 32.5 2.5 24.90625 2.5 
L 22.703125 2.5 
L 22.703125 0 
C 26.796875 0 31.703125 0 35.90625 0 
C 40.09375 0 44.90625 0 49 0 
L 49 2.5 
L 46.796875 2.5 
C 39.203125 2.5 39 3.5 39 7.09375 
L 39 12.875 
C 59.796875 15.078125 60 36.046875 60 41.734375 
C 60 46.328125 61 52.8125 66.09375 53.8125 
C 67.09375 54.015625 67.296875 54.015625 67.296875 54.609375 
C 67.296875 55.40625 66.796875 55.40625 65.09375 55.40625 
L 62.5 55.40625 
C 55.90625 55.40625 53.796875 50.234375 53.703125 39.9375 
C 53.59375 29.359375 50.796875 17.078125 39 14.578125 
z
" id="CMR17-9"/>
      </defs>
      <use transform="scale(0.996264)" xlink:href="#CMR17-108"/>
      <use transform="translate(24.871058 0)scale(0.996264)" xlink:href="#CMR17-111"/>
      <use transform="translate(70.561536 0)scale(0.996264)" xlink:href="#CMR17-103"/>
      <use transform="translate(116.252013 0)scale(0.996264)" xlink:href="#CMR17-40"/>
      <use transform="translate(151.532781 0)scale(0.996264)" xlink:href="#CMSY10-106"/>
      <use transform="translate(179.206865 0)scale(0.996264)" xlink:href="#CMR17-9"/>
      <use transform="translate(250.921654 0)scale(0.996264)" xlink:href="#CMSY10-106"/>
      <use transform="translate(278.595738 0)scale(0.996264)" xlink:href="#CMR17-41"/>
     </g>
    </g>
   </g>
   <g id="line2d_9">
    <path clip-path="url(#pfe62a7e7ed)" d="M -1 35.634433 
L 0.532482 35.279333 
L 3.438855 34.874935 
L 6.760424 34.613822 
L 9.251601 34.616545 
L 11.327582 34.818966 
L 13.403562 35.237835 
L 16.725132 36.056374 
L 17.97072 36.051808 
L 19.216308 35.768237 
L 25.444251 33.867968 
L 27.520232 33.540848 
L 29.181016 33.462708 
L 30.426605 33.558228 
L 31.672193 33.874015 
L 32.502585 34.333796 
L 32.917782 34.739556 
L 33.332978 35.467452 
L 33.748174 39.225079 
L 34.16337 35.467951 
L 34.578566 34.606889 
L 35.408958 33.728887 
L 36.654547 32.997466 
L 38.315331 32.386448 
L 40.806508 31.753249 
L 44.543274 31.041164 
L 47.034451 30.740468 
L 49.110431 30.693563 
L 50.771216 30.879325 
L 52.016805 31.254198 
L 52.847197 31.745027 
L 53.262393 32.158561 
L 53.677589 32.871344 
L 54.092785 35.562217 
L 54.507981 33.063301 
L 54.923178 32.177547 
L 55.75357 31.314142 
L 56.583962 30.812789 
L 57.829551 30.313227 
L 59.905531 29.758211 
L 63.642297 29.049833 
L 66.54867 28.679752 
L 68.624651 28.609637 
L 70.285435 28.762427 
L 71.531024 29.09669 
L 72.361416 29.536409 
L 72.776612 29.898802 
L 73.191808 30.488667 
L 73.607004 31.936763 
L 74.022201 31.353151 
L 74.437397 30.21397 
L 75.267789 29.237128 
L 76.098181 28.689293 
L 77.34377 28.143209 
L 79.419751 27.519288 
L 83.986908 26.456178 
L 87.723674 25.764343 
L 90.214851 25.50686 
L 92.706027 25.468683 
L 95.197204 25.656098 
L 98.103577 26.115615 
L 102.670735 27.112703 
L 105.992304 27.999339 
L 107.653089 28.689293 
L 108.483481 29.237128 
L 108.898677 29.633315 
L 109.313874 30.21397 
L 109.72907 31.353151 
L 110.144266 31.936763 
L 110.559462 30.488667 
L 110.974658 29.898802 
L 111.80505 29.2836 
L 112.635443 28.954624 
L 113.881031 28.700202 
L 115.541816 28.604907 
L 117.617797 28.717407 
L 120.52417 29.118121 
L 124.260935 29.853862 
L 126.336916 30.458344 
L 127.582504 31.037946 
L 128.412896 31.671248 
L 128.828093 32.177547 
L 129.243289 33.063301 
L 129.658485 35.562217 
L 130.073681 32.871344 
L 130.488877 32.158561 
L 131.31927 31.46211 
L 132.149662 31.09597 
L 133.39525 30.807318 
L 135.056035 30.682749 
L 137.132016 30.77563 
L 140.038389 31.178989 
L 143.775154 31.943584 
L 146.266331 32.660776 
L 147.511919 33.201256 
L 148.342312 33.728887 
L 149.172704 34.606889 
L 149.5879 35.467951 
L 150.003096 39.225079 
L 150.418293 35.467452 
L 150.833489 34.739556 
L 151.663881 34.064984 
L 152.494273 33.734394 
L 153.739862 33.50776 
L 155.400646 33.477497 
L 157.476627 33.711293 
L 159.967804 34.269382 
L 162.874177 35.200326 
L 165.365354 35.982791 
L 166.610942 36.089281 
L 167.856531 35.907363 
L 172.838885 34.761586 
L 174.914866 34.599821 
L 177.406042 34.633173 
L 180.727612 34.921585 
L 183.633985 35.359538 
L 185.294769 35.811184 
L 186.125162 36.188802 
L 186.955554 36.829564 
L 187.37075 37.407925 
L 187.785946 38.692473 
L 188.201142 38.590202 
L 188.616339 37.344602 
L 189.031535 36.75749 
L 189.861927 36.088411 
L 191.107515 35.543021 
L 192.7683 35.176435 
L 194.429085 35.038776 
L 196.505065 35.076282 
L 199.411439 35.377059 
L 203.148204 36.006947 
L 205.224185 36.558274 
L 206.469773 37.119461 
L 207.300165 37.77507 
L 207.715362 38.34087 
L 208.130558 39.499819 
L 208.545754 39.87842 
L 208.96095 38.481694 
L 209.376146 37.879185 
L 210.206538 37.221274 
L 211.036931 36.844987 
L 211.036931 36.844987 
" style="fill:none;stroke:#1f77b4;stroke-linecap:square;stroke-width:1.5;"/>
   </g>
   <g id="line2d_10">
    <path clip-path="url(#pfe62a7e7ed)" d="M 11.331862 112.939281 
L 11.691433 105.997186 
L 12.770144 99.798676 
L 15.646707 85.086684 
L 17.084989 78.890298 
L 18.1637 75.171447 
L 19.242411 72.319903 
L 19.961552 70.880297 
L 20.680693 69.785724 
L 21.399834 69.017552 
L 22.118975 68.562009 
L 22.838115 68.410819 
L 23.557256 68.561208 
L 24.276397 69.015865 
L 24.995538 69.782981 
L 25.714679 70.876224 
L 26.43382 72.314117 
L 27.512531 75.162117 
L 28.591242 78.87597 
L 29.669953 83.403021 
L 31.467805 92.203626 
L 32.906087 99.958381 
L 33.265657 103.049195 
L 33.625228 102.952569 
L 33.984798 99.877323 
L 35.78265 90.087276 
L 38.659214 75.374171 
L 40.097495 69.177808 
L 41.176207 65.458919 
L 42.254918 62.607244 
L 42.974059 61.167462 
L 43.693199 60.072604 
L 44.41234 59.303989 
L 45.131481 58.847782 
L 45.850622 58.69562 
L 46.569763 58.844612 
L 47.288904 59.297295 
L 48.008044 60.061654 
L 48.727185 61.151097 
L 49.446326 62.583832 
L 50.525037 65.420808 
L 51.603749 69.118892 
L 52.68246 73.625049 
L 54.480312 82.378722 
L 55.559023 88.130885 
L 55.918594 90.796721 
L 56.278164 92.496869 
L 56.637734 88.854025 
L 58.076016 80.900952 
L 61.31215 64.083992 
L 62.750431 57.592798 
L 63.829143 53.588195 
L 64.907854 50.444559 
L 65.986565 48.138274 
L 66.705706 47.0309 
L 67.424847 46.243199 
L 68.143988 45.75859 
L 68.863129 45.564955 
L 69.582269 45.65432 
L 70.30141 46.022433 
L 71.020551 46.668375 
L 71.739692 47.594254 
L 72.458833 48.804899 
L 73.537544 51.170333 
L 74.616255 54.214315 
L 75.694966 57.926124 
L 77.133248 63.76756 
L 78.211959 68.898893 
L 78.57153 72.044246 
L 78.9311 71.025999 
L 79.650241 66.071345 
L 83.605516 45.110323 
L 85.403368 36.545809 
L 86.482079 32.269134 
L 87.56079 28.83998 
L 88.639501 26.270162 
L 89.358642 25.005729 
L 90.077783 24.076541 
L 90.796924 23.466259 
L 91.516065 23.16386 
L 92.235206 23.163859 
L 92.954346 23.466256 
L 93.673487 24.076536 
L 94.392628 25.005721 
L 95.111769 26.270152 
L 95.83091 27.890135 
L 96.909621 31.028935 
L 97.988332 35.032091 
L 99.426614 41.524025 
L 101.584036 52.607175 
L 104.4606 67.772457 
L 104.82017 69.103033 
L 105.17974 69.33183 
L 105.539311 68.383146 
L 108.775445 55.380125 
L 109.854156 52.109375 
L 110.932867 49.519478 
L 112.011578 47.594567 
L 112.730719 46.668671 
L 113.44986 46.022713 
L 114.169001 45.654584 
L 114.888142 45.565204 
L 115.607283 45.758827 
L 116.326423 46.243424 
L 117.045564 47.031114 
L 117.764705 48.138479 
L 118.483846 49.586186 
L 119.562557 52.444167 
L 120.641268 56.165353 
L 121.71998 60.699177 
L 123.517832 69.513509 
L 126.753965 86.699999 
L 127.113536 88.787801 
L 127.473106 91.894143 
L 127.832677 91.620339 
L 128.551817 86.562516 
L 130.70924 75.515836 
L 132.147522 69.276103 
L 133.226233 65.534348 
L 134.304944 62.66695 
L 135.024085 61.219944 
L 135.743226 60.119925 
L 136.462367 59.34782 
L 137.181507 58.889513 
L 137.900648 58.73647 
L 138.619789 58.885742 
L 139.33893 59.339905 
L 140.058071 60.107094 
L 140.777212 61.20097 
L 141.496352 62.640089 
L 142.575064 65.491172 
L 143.653775 69.209771 
L 144.732486 73.743354 
L 146.530338 82.559727 
L 149.766472 99.899701 
L 150.126042 102.85197 
L 150.485613 103.261886 
L 150.845183 100.08694 
L 152.283465 92.292193 
L 154.081317 83.458932 
L 155.519599 77.580971 
L 156.59831 74.147357 
L 157.677021 71.574515 
L 158.396162 70.308682 
L 159.115303 69.378463 
L 159.834444 68.767428 
L 160.553584 68.464484 
L 161.272725 68.46409 
L 161.991866 68.766207 
L 162.711007 69.37629 
L 163.430148 70.305339 
L 164.149289 71.569679 
L 164.868429 73.189604 
L 165.947141 76.32836 
L 167.025852 80.331509 
L 168.464134 86.823465 
L 170.621556 97.905632 
L 171.700267 103.642346 
L 172.059838 106.285785 
L 172.059838 106.285785 
" style="fill:none;stroke:#ff7f0e;stroke-linecap:square;stroke-width:1.5;"/>
   </g>
   <g id="line2d_11">
    <path clip-path="url(#pfe62a7e7ed)" d="M 57.356875 112.243439 
L 57.716446 113.142024 
L 58.076016 113.09422 
L 58.435586 115.207217 
L 58.795157 114.473898 
L 59.154727 112.354321 
L 59.514298 114.540449 
L 59.873868 117.703913 
L 60.233439 118.634075 
L 60.952579 113.978546 
L 61.31215 113.718002 
L 61.67172 117.319681 
L 62.031291 114.553481 
L 62.390861 114.230959 
L 62.750431 112.385402 
L 63.110002 115.530512 
L 63.469572 113.019252 
L 63.829143 111.5735 
L 64.188713 112.309605 
L 64.548284 115.93991 
L 64.907854 127.062817 
L 65.267424 112.63479 
L 65.626995 113.567225 
L 66.346136 112.432166 
L 66.705706 110.823034 
L 67.065276 111.186662 
L 67.424847 111.248315 
L 67.784417 119.292182 
L 68.143988 110.765066 
L 68.503558 110.414203 
L 68.863129 112.090239 
L 69.222699 110.404496 
L 69.582269 110.98112 
L 69.94184 110.506419 
L 70.30141 112.518188 
L 70.660981 110.895961 
L 71.020551 110.26404 
L 71.380121 108.442392 
L 71.739692 107.225901 
L 72.818403 101.687505 
L 75.694966 87.218283 
L 80.369382 62.508752 
L 84.324656 41.756505 
L 85.762938 35.199407 
L 86.841649 31.139596 
L 87.920361 27.949203 
L 88.999072 25.613654 
L 89.718213 24.499574 
L 90.437353 23.717677 
L 91.156494 23.25405 
L 91.875635 23.100305 
L 92.594776 23.253652 
L 93.313917 23.716875 
L 94.033058 24.498354 
L 94.752198 25.611998 
L 95.471339 27.076491 
L 96.550051 29.97548 
L 97.628762 33.749634 
L 98.707473 38.336892 
L 100.505325 47.215902 
L 105.898881 75.942026 
L 109.854156 96.342771 
L 112.730719 110.990866 
L 113.09029 109.687792 
L 113.44986 110.54427 
L 113.80943 109.724538 
L 114.169001 113.795749 
L 114.528571 108.961693 
L 115.247712 109.880779 
L 115.607283 111.94431 
L 115.966853 111.48448 
L 116.326423 111.861676 
L 116.685994 109.589046 
L 117.045564 112.7556 
L 117.405135 114.408227 
L 117.764705 111.392112 
L 118.124275 113.177827 
L 118.483846 112.611251 
L 118.843416 113.403236 
L 119.202987 115.316117 
L 119.922128 113.968564 
L 120.281698 113.997371 
L 120.641268 117.031846 
L 121.000839 117.067449 
L 121.71998 111.777069 
L 122.07955 120.676734 
L 122.43912 113.593536 
L 123.158261 119.669692 
L 123.517832 119.969113 
L 123.877402 113.609953 
L 124.236972 113.200887 
L 124.596543 113.857536 
L 124.956113 115.721191 
L 125.315684 114.055851 
L 125.675254 119.331061 
L 126.034825 113.409145 
L 126.034825 113.409145 
" style="fill:none;stroke:#2ca02c;stroke-linecap:square;stroke-width:1.5;"/>
   </g>
   <g id="patch_3">
    <path d="M 45.09297 132.260943 
L 45.09297 17.90218 
" style="fill:none;stroke:#000000;stroke-linecap:square;stroke-linejoin:miter;"/>
   </g>
   <g id="patch_4">
    <path d="M 138.6583 132.260943 
L 138.6583 17.90218 
" style="fill:none;stroke:#000000;stroke-linecap:square;stroke-linejoin:miter;"/>
   </g>
   <g id="patch_5">
    <path d="M 45.09297 132.260943 
L 138.6583 132.260943 
" style="fill:none;stroke:#000000;stroke-linecap:square;stroke-linejoin:miter;"/>
   </g>
   <g id="patch_6">
    <path d="M 45.09297 17.90218 
L 138.6583 17.90218 
" style="fill:none;stroke:#000000;stroke-linecap:square;stroke-linejoin:miter;"/>
   </g>
   <g id="text_11">
    <!-- Free Particle -->
    <g transform="translate(59.36109 11.90218)scale(0.12 -0.12)">
     <defs>
      <path d="M 54.40625 67.578125 
L 5.09375 67.578125 
L 5.09375 65 
C 12 65 13.09375 65 13.09375 60.53125 
L 13.09375 6.96875 
C 13.09375 2.5 12 2.5 5.09375 2.5 
L 5.09375 0 
C 8 0 13.59375 0 16.703125 0 
C 20.796875 0 25.59375 0 29.703125 0 
L 29.703125 2.5 
L 27.5 2.5 
C 19.90625 2.5 19.703125 3.484375 19.703125 7.0625 
L 19.703125 32.421875 
L 28.703125 32.421875 
C 38 32.421875 38.90625 29.140625 38.90625 20.8125 
L 40.703125 20.8125 
L 40.703125 46.671875 
L 38.90625 46.671875 
C 38.90625 38.28125 38 35 28.703125 35 
L 19.703125 35 
L 19.703125 61.109375 
C 19.703125 64.5 19.90625 65 23.90625 65 
L 36.796875 65 
C 51.90625 65 53.59375 58.828125 55 45.5625 
L 56.796875 45.5625 
z
" id="CMR17-70"/>
      <path d="M 15 23.390625 
C 15 33 19.09375 42 26.59375 42 
C 27.296875 42 28 41.90625 28.703125 41.59375 
C 28.703125 41.59375 26.5 40.890625 26.5 38.3125 
C 26.5 35.90625 28.40625 34.90625 29.90625 34.90625 
C 31.09375 34.90625 33.296875 35.609375 33.296875 38.40625 
C 33.296875 41.609375 30.09375 43.59375 26.703125 43.59375 
C 19.09375 43.59375 15.796875 36.203125 14.796875 32.703125 
L 14.703125 32.703125 
L 14.703125 43.59375 
L 3.09375 42.5 
L 3.09375 39.90625 
C 9 39.90625 9.90625 39.296875 9.90625 34.5 
L 9.90625 6.6875 
C 9.90625 2.875 9.5 2.390625 3.09375 2.390625 
L 3.09375 -0.203125 
C 5.5 0 10.09375 0 12.703125 0 
C 15.59375 0 20.703125 0 23.40625 -0.203125 
L 23.40625 2.390625 
C 16.203125 2.390625 15 2.390625 15 6.875 
z
" id="CMR17-114"/>
      <path d="M 38.09375 23 
C 38.5 23.40625 38.5 23.609375 38.5 24.625 
C 38.5 34.96875 33.09375 44 21.703125 44 
C 11.09375 44 2.703125 33.890625 2.703125 21.609375 
C 2.703125 8.609375 12.203125 -1 22.796875 -1 
C 34 -1 38.40625 9.484375 38.40625 11.5625 
C 38.40625 12.25 37.796875 12.25 37.59375 12.25 
C 36.90625 12.25 36.796875 12.046875 36.40625 10.875 
C 34.203125 4.140625 28.703125 0.796875 23.5 0.796875 
C 19.203125 0.796875 14.90625 3.171875 12.203125 7.5 
C 9.09375 12.546875 9.09375 18.375 9.09375 23 
z
M 9.203125 24.5 
C 9.90625 39.140625 17.59375 42.40625 21.59375 42.40625 
C 28.40625 42.40625 33 35.890625 33.09375 24.5 
z
" id="CMR17-101"/>
      <path d="M 19.796875 31.90625 
L 35.796875 31.90625 
C 48.703125 31.90625 58.09375 40.28125 58.09375 49.75 
C 58.09375 59.234375 48.90625 68 35.796875 68 
L 5.203125 68 
L 5.203125 65.40625 
C 12.09375 65.40625 13.203125 65.40625 13.203125 60.921875 
L 13.203125 6.96875 
C 13.203125 2.5 12.09375 2.5 5.203125 2.5 
L 5.203125 0 
C 8.09375 0 13.40625 0 16.5 0 
C 19.59375 0 24.90625 0 27.796875 0 
L 27.796875 2.5 
C 20.90625 2.5 19.796875 2.5 19.796875 6.96875 
z
M 19.59375 34 
L 19.59375 61.53125 
C 19.59375 64.921875 19.796875 65.40625 23.796875 65.40625 
L 33.90625 65.40625 
C 46.796875 65.40625 50.5 58.03125 50.5 49.75 
C 50.5 40.6875 46.09375 34 33.90625 34 
z
" id="CMR17-80"/>
      <path d="M 36 25.828125 
C 36 32.375 36 35.84375 31.796875 39.734375 
C 28.09375 43 23.796875 44 20.40625 44 
C 12.5 44 6.796875 37.609375 6.796875 30.796875 
C 6.796875 27 9.796875 27 10.40625 27 
C 11.703125 27 14 27.78125 14 30.53125 
C 14 33 12.09375 34.078125 10.40625 34.078125 
C 10 34.078125 9.5 33.96875 9.203125 33.875 
C 11.296875 40.5 16.703125 42.40625 20.203125 42.40625 
C 25.203125 42.40625 30.703125 37.953125 30.703125 29.453125 
L 30.703125 25 
C 24.796875 25 17.703125 24.203125 12.09375 21.203125 
C 5.796875 17.703125 4 12.703125 4 8.90625 
C 4 1.203125 13 -1 18.296875 -1 
C 23.796875 -1 28.90625 2.171875 31.09375 7.984375 
C 31.296875 3.640625 34.09375 -0.28125 38.5 -0.28125 
C 40.59375 -0.28125 45.90625 1.09375 45.90625 8.859375 
L 45.90625 14.375 
L 44.09375 14.375 
L 44.09375 8.78125 
C 44.09375 2.78125 41.40625 2 40.09375 2 
C 36 2 36 7.15625 36 11.53125 
z
M 30.703125 13.59375 
C 30.703125 4.953125 24.5 0.59375 19 0.59375 
C 14 0.59375 10.09375 4.296875 10.09375 8.90625 
C 10.09375 11.890625 11.40625 17.1875 17.203125 20.390625 
C 22 23.09375 27.5 23.5 30.703125 23.5 
z
" id="CMR17-97"/>
      <path d="M 15.09375 40 
L 29.09375 40 
L 29.09375 42.578125 
L 15.09375 42.578125 
L 15.09375 61 
L 13.296875 61 
C 13.09375 50.703125 9.59375 41.6875 1.09375 41.6875 
L 1.09375 40 
L 9.796875 40 
L 9.796875 12.046875 
C 9.796875 10.15625 9.796875 -1 21.40625 -1 
C 27.296875 -1 30.703125 4.78125 30.703125 12.140625 
L 30.703125 17.8125 
L 28.90625 17.8125 
L 28.90625 12.234375 
C 28.90625 5.375 26.203125 0.796875 22 0.796875 
C 19.09375 0.796875 15.09375 2.78125 15.09375 11.84375 
z
" id="CMR17-116"/>
      <path d="M 15.5 61.078125 
C 15.5 63.265625 13.703125 65.15625 11.40625 65.15625 
C 9.203125 65.15625 7.296875 63.375 7.296875 61.078125 
C 7.296875 58.890625 9.09375 57 11.40625 57 
C 13.59375 57 15.5 58.796875 15.5 61.078125 
z
M 3.796875 42.28125 
L 3.796875 39.703125 
C 9.40625 39.703125 10.203125 39.09375 10.203125 34.328125 
L 10.203125 6.671875 
C 10.203125 2.875 9.796875 2.390625 3.40625 2.390625 
L 3.40625 -0.203125 
C 5.796875 0 10.09375 0 12.59375 0 
C 15 0 19.09375 0 21.40625 -0.203125 
L 21.40625 2.390625 
C 15.5 2.390625 15.296875 2.984375 15.296875 6.5625 
L 15.296875 43.375 
z
" id="CMR17-105"/>
      <path d="M 34.90625 35 
C 33 35 30.203125 35 30.203125 31.515625 
C 30.203125 28.71875 32.5 27.921875 33.796875 27.921875 
C 34.5 27.921875 37.40625 28.234375 37.40625 31.625 
C 37.40625 38.546875 30.59375 43.796875 22.90625 43.796875 
C 12.296875 43.796875 3.296875 34.03125 3.296875 21.296875 
C 3.296875 8.0625 12.703125 -1 22.90625 -1 
C 35.296875 -1 38.40625 10.578125 38.40625 11.6875 
C 38.40625 12.09375 38.296875 12.390625 37.59375 12.390625 
C 36.90625 12.390625 36.796875 12.296875 36.40625 10.984375 
C 33.796875 2.8125 28.09375 0.796875 23.796875 0.796875 
C 17.40625 0.796875 9.703125 6.671875 9.703125 21.390625 
C 9.703125 36.53125 17.09375 42 23 42 
C 26.90625 42 32.703125 40.203125 34.90625 35 
z
" id="CMR17-99"/>
     </defs>
     <use transform="scale(0.996264)" xlink:href="#CMR17-70"/>
     <use transform="translate(52.176591 0)scale(0.996264)" xlink:href="#CMR17-114"/>
     <use transform="translate(87.457359 0)scale(0.996264)" xlink:href="#CMR17-101"/>
     <use transform="translate(127.943019 0)scale(0.996264)" xlink:href="#CMR17-101"/>
     <use transform="translate(198.504646 0)scale(0.996264)" xlink:href="#CMR17-80"/>
     <use transform="translate(258.488493 0)scale(0.996264)" xlink:href="#CMR17-97"/>
     <use transform="translate(304.17897 0)scale(0.996264)" xlink:href="#CMR17-114"/>
     <use transform="translate(339.459738 0)scale(0.996264)" xlink:href="#CMR17-116"/>
     <use transform="translate(374.740506 0)scale(0.996264)" xlink:href="#CMR17-105"/>
     <use transform="translate(399.611564 0)scale(0.996264)" xlink:href="#CMR17-99"/>
     <use transform="translate(440.097225 0)scale(0.996264)" xlink:href="#CMR17-108"/>
     <use transform="translate(464.968283 0)scale(0.996264)" xlink:href="#CMR17-101"/>
    </g>
   </g>
  </g>
  <g id="axes_2">
   <g id="patch_7">
    <path d="M 141.46526 132.260943 
L 235.03059 132.260943 
L 235.03059 17.90218 
L 141.46526 17.90218 
z
" style="fill:#ffffff;"/>
   </g>
   <g id="matplotlib.axis_3">
    <g id="xtick_4">
     <g id="line2d_12">
      <g>
       <use style="stroke:#000000;stroke-width:0.5;" x="141.46526" xlink:href="#m30ff4e3c80" y="17.90218"/>
      </g>
     </g>
     <g id="text_12">
      <!-- $\mathdefault{0.0}$ -->
      <g transform="translate(136.054915 145.795744)scale(0.08 -0.08)">
       <defs>
        <path d="M 18.40625 4.796875 
C 18.40625 7.6875 16 9.671875 13.59375 9.671875 
C 10.703125 9.671875 8.703125 7.28125 8.703125 4.890625 
C 8.703125 2 11.09375 0 13.5 0 
C 16.40625 0 18.40625 2.390625 18.40625 4.796875 
z
" id="CMMI12-58"/>
       </defs>
       <use transform="scale(0.996264)" xlink:href="#CMR17-48"/>
       <use transform="translate(45.690477 0)scale(0.996264)" xlink:href="#CMMI12-58"/>
       <use transform="translate(72.787654 0)scale(0.996264)" xlink:href="#CMR17-48"/>
      </g>
     </g>
    </g>
    <g id="xtick_5">
     <g id="line2d_13">
      <g>
       <use style="stroke:#000000;stroke-width:0.5;" x="188.247925" xlink:href="#m30ff4e3c80" y="17.90218"/>
      </g>
     </g>
     <g id="text_13">
      <!-- $\mathdefault{0.5}$ -->
      <g transform="translate(182.83758 145.795744)scale(0.08 -0.08)">
       <use transform="scale(0.996264)" xlink:href="#CMR17-48"/>
       <use transform="translate(45.690477 0)scale(0.996264)" xlink:href="#CMMI12-58"/>
       <use transform="translate(72.787654 0)scale(0.996264)" xlink:href="#CMR17-53"/>
      </g>
     </g>
    </g>
    <g id="xtick_6">
     <g id="line2d_14">
      <g>
       <use style="stroke:#000000;stroke-width:0.5;" x="235.03059" xlink:href="#m30ff4e3c80" y="17.90218"/>
      </g>
     </g>
     <g id="text_14">
      <!-- $\mathdefault{1.0}$ -->
      <g transform="translate(229.620245 145.795744)scale(0.08 -0.08)">
       <use transform="scale(0.996264)" xlink:href="#CMR17-49"/>
       <use transform="translate(45.690477 0)scale(0.996264)" xlink:href="#CMMI12-58"/>
       <use transform="translate(72.787654 0)scale(0.996264)" xlink:href="#CMR17-48"/>
      </g>
     </g>
    </g>
    <g id="text_15">
     <!-- $a_1$(\AA) -->
     <g transform="translate(175.7698 158.025434)scale(0.1 -0.1)">
      <use transform="scale(0.996264)" xlink:href="#CMMI12-97"/>
      <use transform="translate(51.207858 -14.943915)scale(0.697382)" xlink:href="#CMR17-49"/>
      <use transform="translate(83.689172 0)scale(0.996264)" xlink:href="#CMR17-40"/>
      <use transform="translate(118.969939 17.618744)scale(0.996264)" xlink:href="#CMR17-23"/>
      <use transform="translate(118.969939 0)scale(0.996264)" xlink:href="#CMR17-65"/>
      <use transform="translate(188.042369 0)scale(0.996264)" xlink:href="#CMR17-41"/>
     </g>
    </g>
   </g>
   <g id="matplotlib.axis_4"/>
   <g id="patch_8">
    <path d="M 141.46526 132.260943 
L 141.46526 17.90218 
" style="fill:none;stroke:#000000;stroke-linecap:square;stroke-linejoin:miter;"/>
   </g>
   <g id="patch_9">
    <path d="M 235.03059 132.260943 
L 235.03059 17.90218 
" style="fill:none;stroke:#000000;stroke-linecap:square;stroke-linejoin:miter;"/>
   </g>
   <g id="patch_10">
    <path d="M 141.46526 132.260943 
L 235.03059 132.260943 
" style="fill:none;stroke:#000000;stroke-linecap:square;stroke-linejoin:miter;"/>
   </g>
   <g id="patch_11">
    <path d="M 141.46526 17.90218 
L 235.03059 17.90218 
" style="fill:none;stroke:#000000;stroke-linecap:square;stroke-linejoin:miter;"/>
   </g>
   <g id="text_16">
    <!-- Unit Filling -->
    <g transform="translate(158.254459 11.90218)scale(0.12 -0.12)">
     <defs>
      <path d="M 54 22.390625 
C 54 9.046875 45.296875 0.59375 35.796875 0.59375 
C 30.703125 0.59375 26.09375 3.28125 23.296875 7.453125 
C 20.09375 12.234375 19.703125 18.40625 19.703125 21.890625 
L 19.703125 60.53125 
C 19.703125 65 20.796875 65 27.703125 65 
L 27.703125 67.5 
C 24.796875 67.5 19.5 67.5 16.40625 67.5 
C 13.296875 67.5 8 67.5 5.09375 67.5 
L 5.09375 65 
C 12 65 13.09375 65 13.09375 60.53125 
L 13.09375 22.390625 
C 13.09375 8.0625 24 -2 35.59375 -2 
C 48.59375 -2 56.09375 11.234375 56.09375 21 
L 56.09375 58.84375 
C 56.09375 64.40625 61.203125 65 64.09375 65 
L 64.09375 67.59375 
C 61.796875 67.5 57.59375 67.5 55.09375 67.5 
C 52.59375 67.5 48.296875 67.5 46 67.59375 
L 46 65 
C 54 65 54 60.328125 54 57.84375 
z
" id="CMR17-85"/>
      <path d="M 41.5 30.203125 
C 41.5 35.296875 40.5 43.59375 28.703125 43.59375 
C 20.796875 43.59375 16.703125 37.5 15.203125 33.5 
L 15.09375 33.5 
L 15.09375 43.59375 
L 3.296875 42.5 
L 3.296875 39.90625 
C 9.203125 39.90625 10.09375 39.296875 10.09375 34.5 
L 10.09375 6.6875 
C 10.09375 2.875 9.703125 2.390625 3.296875 2.390625 
L 3.296875 -0.203125 
C 5.703125 0 10.09375 0 12.703125 0 
C 15.296875 0 19.796875 0 22.203125 -0.203125 
L 22.203125 2.390625 
C 15.796875 2.390625 15.40625 2.78125 15.40625 6.6875 
L 15.40625 25.90625 
C 15.40625 35.109375 21 42 28 42 
C 35.40625 42 36.203125 35.40625 36.203125 30.59375 
L 36.203125 6.6875 
C 36.203125 2.875 35.796875 2.390625 29.40625 2.390625 
L 29.40625 -0.203125 
C 31.796875 0 36.203125 0 38.796875 0 
C 41.40625 0 45.90625 0 48.296875 -0.203125 
L 48.296875 2.390625 
C 41.90625 2.390625 41.5 2.78125 41.5 6.6875 
z
" id="CMR17-110"/>
     </defs>
     <use transform="scale(0.996264)" xlink:href="#CMR17-85"/>
     <use transform="translate(69.07243 0)scale(0.996264)" xlink:href="#CMR17-110"/>
     <use transform="translate(119.9678 0)scale(0.996264)" xlink:href="#CMR17-105"/>
     <use transform="translate(144.838858 0)scale(0.996264)" xlink:href="#CMR17-116"/>
     <use transform="translate(210.195592 0)scale(0.996264)" xlink:href="#CMR17-70"/>
     <use transform="translate(270.179439 0)scale(0.996264)" xlink:href="#CMR17-105"/>
     <use transform="translate(295.050497 0)scale(0.996264)" xlink:href="#CMR17-108"/>
     <use transform="translate(319.921556 0)scale(0.996264)" xlink:href="#CMR17-108"/>
     <use transform="translate(344.792614 0)scale(0.996264)" xlink:href="#CMR17-105"/>
     <use transform="translate(369.663673 0)scale(0.996264)" xlink:href="#CMR17-110"/>
     <use transform="translate(420.559043 0)scale(0.996264)" xlink:href="#CMR17-103"/>
    </g>
   </g>
  </g>
  <g id="legend_1">
   <g id="patch_12">
    <path d="M 165.489897 103.00398 
L 251.13867 103.00398 
Q 253.13867 103.00398 253.13867 101.00398 
L 253.13867 63.112114 
Q 253.13867 61.112114 251.13867 61.112114 
L 165.489897 61.112114 
Q 163.489897 61.112114 163.489897 63.112114 
L 163.489897 101.00398 
Q 163.489897 103.00398 165.489897 103.00398 
z
" style="fill:#ffffff;opacity:0.8;stroke:#cccccc;stroke-linejoin:miter;"/>
   </g>
   <g id="line2d_15">
    <path d="M 167.489897 69.210552 
L 187.489897 69.210552 
" style="fill:none;stroke:#1f77b4;stroke-linecap:square;stroke-width:1.5;"/>
   </g>
   <g id="line2d_16"/>
   <g id="text_17">
    <!-- Wannier -->
    <g transform="translate(192.489897 72.710552)scale(0.1 -0.1)">
     <defs>
      <path d="M 86.296875 58.8125 
C 87.203125 61.5 88.703125 65 94.5 65 
L 94.5 67.59375 
C 92.796875 67.59375 89.296875 67.59375 87.5 67.59375 
C 85 67.59375 80.59375 67.59375 78.203125 67.6875 
L 78.203125 65 
C 82.703125 65 84.59375 62.5 84.59375 60.109375 
C 84.59375 59.40625 84.5 59.015625 84.09375 57.921875 
L 68.59375 8.671875 
L 52.296875 60.515625 
C 52 61.515625 51.90625 61.921875 51.90625 62.3125 
C 51.90625 65 56.296875 65 58.203125 65 
L 58.203125 67.59375 
C 55.296875 67.59375 50.296875 67.59375 47.203125 67.59375 
C 44.703125 67.59375 40.203125 67.59375 37.90625 67.6875 
L 37.90625 65 
C 42.5 65 43.703125 64.703125 44.703125 62.921875 
C 45.09375 62.015625 46.703125 56.84375 46.703125 56.546875 
C 46.703125 56.140625 46.5 55.546875 46.40625 55.25 
L 31.703125 8.765625 
L 15.40625 60.421875 
C 14.90625 61.828125 14.90625 62.015625 14.90625 62.21875 
C 14.90625 65 19.296875 65 21.296875 65 
L 21.296875 67.59375 
C 18.40625 67.59375 13.40625 67.59375 10.296875 67.59375 
C 7.703125 67.59375 3.296875 67.59375 0.90625 67.6875 
L 0.90625 65 
C 6.90625 65 7.296875 64.40625 8.296875 61.21875 
L 27.796875 -0.3125 
C 28.296875 -1.796875 28.296875 -2 29.203125 -2 
C 30 -2 30.296875 -1.796875 30.703125 -0.40625 
L 47.703125 53.640625 
L 64.703125 -0.40625 
C 65.09375 -1.796875 65.40625 -2 66.203125 -2 
C 67.09375 -2 67.09375 -1.796875 67.59375 -0.3125 
z
" id="CMR17-87"/>
     </defs>
     <use transform="scale(0.996264)" xlink:href="#CMR17-87"/>
     <use transform="translate(87.289395 0)scale(0.996264)" xlink:href="#CMR17-97"/>
     <use transform="translate(132.979872 0)scale(0.996264)" xlink:href="#CMR17-110"/>
     <use transform="translate(183.875241 0)scale(0.996264)" xlink:href="#CMR17-110"/>
     <use transform="translate(234.770611 0)scale(0.996264)" xlink:href="#CMR17-105"/>
     <use transform="translate(259.64167 0)scale(0.996264)" xlink:href="#CMR17-101"/>
     <use transform="translate(300.12733 0)scale(0.996264)" xlink:href="#CMR17-114"/>
    </g>
   </g>
   <g id="line2d_17">
    <path d="M 167.489897 81.388677 
L 187.489897 81.388677 
" style="fill:none;stroke:#ff7f0e;stroke-linecap:square;stroke-width:1.5;"/>
   </g>
   <g id="line2d_18"/>
   <g id="text_18">
    <!-- Hartree-Fock -->
    <g transform="translate(192.489897 84.888677)scale(0.1 -0.1)">
     <defs>
      <path d="M 56.09375 61.015625 
C 56.09375 65.5 57.203125 65.5 64.09375 65.5 
L 64.09375 68 
C 61.203125 68 55.90625 68 52.796875 68 
C 49.703125 68 44.40625 68 41.5 68 
L 41.5 65.5 
C 48.40625 65.5 49.5 65.5 49.5 61 
L 49.5 36.578125 
L 19.703125 36.578125 
L 19.703125 61 
C 19.703125 65.5 20.796875 65.5 27.703125 65.5 
L 27.703125 68 
C 24.796875 68 19.5 68 16.40625 68 
C 13.296875 68 8 68 5.09375 68 
L 5.09375 65.5 
C 12 65.5 13.09375 65.5 13.09375 61.015625 
L 13.09375 6.984375 
C 13.09375 2.5 12 2.5 5.09375 2.5 
L 5.09375 0 
C 8 0 13.296875 0 16.40625 0 
C 19.5 0 24.796875 0 27.703125 0 
L 27.703125 2.5 
C 20.796875 2.5 19.703125 2.5 19.703125 6.96875 
L 19.703125 34 
L 49.5 34 
L 49.5 6.96875 
C 49.5 2.5 48.40625 2.5 41.5 2.5 
L 41.5 0 
C 44.40625 0 49.703125 0 52.796875 0 
C 55.90625 0 61.203125 0 64.09375 0 
L 64.09375 2.5 
C 57.203125 2.5 56.09375 2.5 56.09375 6.984375 
z
" id="CMR17-72"/>
      <path d="M 25.5 19 
L 25.5 23.375 
L 0.40625 23.375 
L 0.40625 19 
z
" id="CMR17-45"/>
      <path d="M 26.09375 26.140625 
C 26 26.34375 25.5 26.9375 25.5 27.234375 
C 25.5 27.4375 32.59375 33.921875 33.5 34.71875 
C 39.203125 39.5 42.796875 40 45.40625 40 
L 45.40625 42.703125 
C 44.796875 42.703125 44.59375 42.703125 44.5 42.5 
L 39.59375 42.5 
C 36.796875 42.5 32.5 42.5 29.796875 42.703125 
L 29.796875 40.09375 
C 31.203125 39.984375 32.203125 39.1875 32.203125 37.796875 
C 32.203125 35.796875 30.203125 33.90625 30.09375 33.90625 
L 15 20.140625 
L 15 68.6875 
L 3.09375 67.59375 
L 3.09375 65 
C 9 65 9.90625 64.40625 9.90625 59.640625 
L 9.90625 6.65625 
C 9.90625 2.875 9.5 2.390625 3.09375 2.390625 
L 3.09375 -0.203125 
C 5.5 0 9.90625 0 12.40625 0 
C 14.90625 0 19.296875 0 21.703125 -0.203125 
L 21.703125 2.390625 
C 15.296875 2.390625 14.90625 2.78125 14.90625 6.6875 
L 14.90625 17.65625 
L 21.796875 23.9375 
L 31.90625 8.96875 
C 33.09375 7.171875 34.09375 5.765625 34.09375 4.46875 
C 34.09375 2.6875 32.296875 2.390625 31.09375 2.390625 
L 31.09375 -0.203125 
C 33.5 0 37.796875 0 40.296875 0 
C 42.09375 0 45.796875 0 47.5 0 
L 47.5 2.390625 
C 42.796875 2.390625 41.703125 3.28125 38.703125 7.671875 
z
" id="CMR17-107"/>
     </defs>
     <use transform="scale(0.996264)" xlink:href="#CMR17-72"/>
     <use transform="translate(69.07243 0)scale(0.996264)" xlink:href="#CMR17-97"/>
     <use transform="translate(114.762907 0)scale(0.996264)" xlink:href="#CMR17-114"/>
     <use transform="translate(150.043675 0)scale(0.996264)" xlink:href="#CMR17-116"/>
     <use transform="translate(185.324443 0)scale(0.996264)" xlink:href="#CMR17-114"/>
     <use transform="translate(220.60521 0)scale(0.996264)" xlink:href="#CMR17-101"/>
     <use transform="translate(261.090871 0)scale(0.996264)" xlink:href="#CMR17-101"/>
     <use transform="translate(301.576531 0)scale(0.996264)" xlink:href="#CMR17-45"/>
     <use transform="translate(331.652498 0)scale(0.996264)" xlink:href="#CMR17-70"/>
     <use transform="translate(383.829089 0)scale(0.996264)" xlink:href="#CMR17-111"/>
     <use transform="translate(432.122005 0)scale(0.996264)" xlink:href="#CMR17-99"/>
     <use transform="translate(470.005211 0)scale(0.996264)" xlink:href="#CMR17-107"/>
    </g>
   </g>
   <g id="line2d_19">
    <path d="M 167.489897 93.566802 
L 187.489897 93.566802 
" style="fill:none;stroke:#2ca02c;stroke-linecap:square;stroke-width:1.5;"/>
   </g>
   <g id="line2d_20"/>
   <g id="text_19">
    <!-- Hartree -->
    <g transform="translate(192.489897 97.066802)scale(0.1 -0.1)">
     <use transform="scale(0.996264)" xlink:href="#CMR17-72"/>
     <use transform="translate(69.07243 0)scale(0.996264)" xlink:href="#CMR17-97"/>
     <use transform="translate(114.762907 0)scale(0.996264)" xlink:href="#CMR17-114"/>
     <use transform="translate(150.043675 0)scale(0.996264)" xlink:href="#CMR17-116"/>
     <use transform="translate(185.324443 0)scale(0.996264)" xlink:href="#CMR17-114"/>
     <use transform="translate(220.60521 0)scale(0.996264)" xlink:href="#CMR17-101"/>
     <use transform="translate(261.090871 0)scale(0.996264)" xlink:href="#CMR17-101"/>
    </g>
   </g>
  </g>
 </g>
 <defs>
  <clipPath id="pfe62a7e7ed">
   <rect height="114.358763" width="93.56533" x="45.09297" y="17.90218"/>
  </clipPath>
 </defs>
</svg>
